<svg xmlns="http://www.w3.org/2000/svg" fill="none" viewBox="0 0 159 50"><path fill="#8796AF" d="M24.68 47.73C37.07 47.73 47.1 37.55 47.1 25S37.07 2.27 24.68 2.27C12.28 2.27 2.24 12.45 2.24 25S12.3 47.73 24.68 47.73z"/><path fill="#fff" fillRule="evenodd" d="M38.14 19.7v7.57H14.74a10.2 10.2 0 009.92 8.03c4 0 7.47-2.34 9.13-5.75h4.35v6.36c0 1.5-1.21 2.73-2.7 2.73H13.91a2.71 2.71 0 01-2.7-2.73V19.7h26.93zm-6.93 9.85a7.89 7.89 0 01-13.1 0h13.1zm-12.3-8.03a4.2 4.2 0 00-4.14 3.63h2.3c.25-.79.98-1.36 1.85-1.36.86 0 1.6.57 1.85 1.36h2.3a4.2 4.2 0 00-4.15-3.63zm11.52 0a4.2 4.2 0 00-4.14 3.63h2.3c.25-.79.98-1.36 1.84-1.36.87 0 1.6.57 1.85 1.36h2.3a4.2 4.2 0 00-4.15-3.63zm5.01-10.16c1.49 0 2.7 1.22 2.7 2.73v3.33H11.22V14.1c0-1.5 1.2-2.73 2.69-2.73h21.53z" clip-rule="evenodd"/><path fill="#8796AF" d="M122.5 10.76c4.08 0 8.7 1.6 8.98 6.75h-5.7c-.11-1.49-1.46-2.17-3.24-2.17-1.66 0-2.4.64-2.4 1.4 0 .65.47 1.25 1.97 1.53l3.6.6c3.6.68 5.97 2.45 5.97 5.9 0 4.5-4 6.6-8.98 6.6-5.02 0-9.1-2.14-9.49-7.32l5.7.04c.27 1.69 1.66 2.45 3.67 2.45 1.7 0 2.73-.52 2.73-1.36 0-.64-.6-1.17-1.86-1.37l-3.87-.68c-3.32-.56-5.62-2.45-5.62-5.87 0-4.1 3.44-6.5 8.54-6.5zm-24 .07c2.09 0 3.83.57 5.25 1.49v-1.05h6.4v19.47h-6.4v-1.09a9.45 9.45 0 01-5.25 1.49c-5.17 0-9.52-4.38-9.52-10.16 0-5.81 4.35-10.15 9.52-10.15zM61.04 3.41L70.63 18l9.55-14.6h4.99v27.35h-6.7V17.04l-5.98 9.37v.04h-3.73v-.04l-6.02-9.45.04 13.8h-6.7V3.4h4.96zm80.57-1.14V18.6l6.7-7.3h7.64l-7.29 7.94 7.92 11.52h-7.68l-4.6-6.74-2.69 2.93v3.8h-6.42V2.28h6.42zM99.76 16.13c-2.6 0-4.5 2.17-4.5 4.85 0 2.7 1.9 4.82 4.5 4.82 1.42 0 2.8-.4 3.99-1.8v-6.02a4.93 4.93 0 00-3.99-1.85zM65.11 36.2v6.37l-6.48-6.37h-2.55v11.31h3.34v-6.2l6.44 6.2h2.57v-11.3h-3.32zM70.8 36.2v11.31h3.35v-11.3H70.8zM83.04 41.16v2.21l3.85.03a3.82 3.82 0 01-3.42 1.77c-2.37 0-3.89-1.48-3.89-3.26 0-2 1.56-3.38 3.88-3.38 1.2 0 2.54.38 3.12 1.7h3.51c-.57-2.7-3.41-4.25-6.71-4.25-4.1 0-7.18 2.47-7.18 6 0 3.24 2.95 5.75 7.16 5.75 1.87 0 3.28-.6 4.25-1.6l.13 1.38h2.5v-6.35h-7.2zM101.68 36.2v4.54H96.2V36.2h-3.34v11.31h3.34v-4.24h5.48v4.24H105v-11.3h-3.32zM118.4 36.2h-11.89v2.51h4.29v8.8h3.32v-8.8h4.29v-2.5zM123.26 45v-8.8h-3.34v11.31h9.98V45h-6.64zM137.93 36.2l-3.3 4.92-3.28-4.92h-3.7l5.32 7.9v3.41h3.36v-3.4l5.3-7.9h-3.7z"/></svg>
