<svg fill="none" viewBox="0 0 122 53" xmlns="http://www.w3.org/2000/svg"><path d="m27.03 41.22v6.37l-6.48-6.37h-2.55v11.3h3.34v-6.2l6.44 6.2h2.57v-11.3zm5.69 0v11.3h3.34v-11.3zm12.24 4.95v2.21l3.85.04a3.82 3.82 0 0 1 -3.42 1.76c-2.37 0-3.89-1.48-3.89-3.26 0-2 1.56-3.38 3.87-3.38 1.2 0 2.55.39 3.13 1.7h3.5c-.56-2.7-3.4-4.24-6.7-4.24-4.09 0-7.17 2.46-7.17 5.99 0 3.24 2.95 5.75 7.15 5.75 1.88 0 3.28-.6 4.25-1.6l.14 1.39h2.5v-6.36h-7.2zm18.64-4.95v4.54h-5.48v-4.54h-3.34v11.3h3.34v-4.24h5.48v4.25h3.32v-11.31zm16.73 0h-11.9v2.5h4.29v8.8h3.32v-8.8h4.29zm4.85 8.79v-8.8h-3.34v11.32h9.98v-2.53h-6.64zm14.67-8.79-3.3 4.92-3.28-4.92h-3.7l5.32 7.9v3.4h3.36v-3.4l5.3-7.9zm-19.48-30.62c4.9 0 10.46 1.9 10.8 8h-6.85c-.15-1.77-1.76-2.58-3.9-2.58-2 0-2.9.76-2.9 1.67 0 .76.57 1.47 2.38 1.8l4.32.72c4.33.8 7.18 2.9 7.18 6.99 0 5.33-4.8 7.8-10.8 7.8-6.03 0-10.92-2.52-11.4-8.66l6.85.05c.33 2 2 2.9 4.42 2.9 2.04 0 3.28-.62 3.28-1.61 0-.77-.72-1.38-2.24-1.62l-4.66-.81c-3.99-.67-6.75-2.9-6.75-6.94 0-4.86 4.14-7.71 10.27-7.71zm-28.75.2c2.51 0 4.6.66 6.3 1.75v-1.23h7.68v23h-7.68v-1.27c-1.7 1.09-3.79 1.75-6.3 1.75-6.2 0-11.42-5.17-11.42-12 0-6.88 5.21-12 11.42-12zm-44.9-8.8 11.48 17.19 11.43-17.19h5.97v32.2h-8.01v-16.15l-7.16 11.05v.04h-4.46v-.04l-7.2-11.13.04 16.24h-8.01v-32.21h5.93zm96.57-1.4v19.26l8.01-8.61h9.15l-8.72 9.37 9.48 13.58h-9.21l-5.5-7.95-3.22 3.45v4.5h-7.68v-33.6h7.68zm-50.15 16.46c-3.13 0-5.4 2.56-5.4 5.74s2.27 5.7 5.4 5.7a5.9 5.9 0 0 0 4.78-2.14v-7.12a5.95 5.95 0 0 0 -4.78-2.18z" fill="#fff"/></svg>