<svg xmlns="http://www.w3.org/2000/svg" fill="none" viewBox="0 0 452 452">
    <g clip-path="url(#ens_svg__a)">
        <rect width="452" height="452" fill="url(#ens_svg__b)" rx="20"/>
        <path fill="#fff" fill-opacity=".1" d="M69.055 182.096c4.552 9.93 15.817 29.558 15.817 29.558L215.104-8.088 88.001 82.503C80.428 87.66 74.214 94.64 69.91 102.828a95.626 95.626 0 0 0-9.012 39.538 95.68 95.68 0 0 0 8.158 39.73ZM17.45 254.453c1.436 21.019 7.254 41.483 17.066 60.021 9.812 18.538 23.392 34.722 39.829 47.469L214.931 462S126.972 332.617 52.782 203.873a131.832 131.832 0 0 1-14.906-43.902 71.705 71.705 0 0 1 0-21.08c-1.935 3.658-5.69 11.149-5.69 11.149a173.005 173.005 0 0 0-15.19 49.651 309.858 309.858 0 0 0 .455 54.762Zm358.666 17.363c-4.551-9.93-15.817-29.558-15.817-29.558L230.068 462l127.102-90.533c7.574-5.157 13.787-12.138 18.093-20.325a95.627 95.627 0 0 0 9.025-39.567 95.688 95.688 0 0 0-8.172-39.759Zm51.611-72.357c-1.435-21.019-7.253-41.483-17.065-60.021-9.812-18.538-23.392-34.723-39.829-47.47L230.246-8.087s87.903 129.383 162.15 258.127a131.828 131.828 0 0 1 14.849 43.902 71.67 71.67 0 0 1 0 21.08c1.935-3.658 5.69-11.15 5.69-11.15a173.02 173.02 0 0 0 15.191-49.651 309.893 309.893 0 0 0-.399-54.761Z"/>
    </g>
    <defs>
        <linearGradient id="ens_svg__b" x1="226" x2="226" y1="0" y2="452" gradientUnits="userSpaceOnUse">
            <stop stop-color="#2467FF"/>
            <stop offset="1" stop-color="#95B6FF"/>
        </linearGradient>
        <clipPath id="ens_svg__a">
            <rect width="452" height="452" fill="#fff" rx="20"/>
        </clipPath>
    </defs>
</svg>
