<svg height="600" viewBox="0 0 600 600" width="600" xmlns="http://www.w3.org/2000/svg"><g fill="none" fill-rule="evenodd"><circle cx="300" cy="300" fill="#1c68f3" r="300"/><path d="m480 200h-360v-44c0-19.882251 16.117749-36 36-36h288c19.882251 0 36 16.117749 36 36zm0 30v100h-60-230.995189-21.912465c13.660721 60.676586 67.877536 106 132.680202 106 53.574931 0 99.914449-30.97848 122.083115-76h58.144337v84c0 19.882251-16.117749 36-36 36h-288c-19.882251 0-36-16.117749-36-36v-214zm-267.782539 130 175.110171.000005c-19.09162 27.913564-51.184149 46.231598-87.555084 46.231598s-68.463464-18.318034-87.555084-46.231598zm-44.65035-58h30.686887c3.374227-10.445056 13.177839-18 24.746002-18s21.371775 7.554944 24.746002 18h30.686887c-3.881837-27.138353-27.221114-48-55.432889-48s-51.551052 20.861647-55.432889 48zm154 0h30.686887c3.374227-10.445056 13.177839-18 24.746002-18s21.371775 7.554944 24.746002 18h30.686887c-3.881837-27.138353-27.221114-48-55.432889-48s-51.551052 20.861647-55.432889 48z" fill="#fff"/></g></svg>