<svg xmlns="http://www.w3.org/2000/svg" xmlns:xlink="http://www.w3.org/1999/xlink" id="uz_svg__flag-icons-uz" viewBox="0 0 512 512">
    <path fill="#1eb53a" d="M0 341.3h512V512H0z"/>
    <path fill="#0099b5" d="M0 0h512v170.7H0z"/>
    <path fill="#ce1126" d="M0 163.8h512v184.4H0z"/>
    <path fill="#fff" d="M0 174h512v164H0z"/>
    <circle cx="143.4" cy="81.9" r="61.4" fill="#fff"/>
    <circle cx="163.8" cy="81.9" r="61.4" fill="#0099b5"/>
    <g fill="#fff" transform="translate(278.5 131) scale(2.048)">
        <g id="uz_svg__uz-e">
            <g id="uz_svg__uz-d">
                <g id="uz_svg__uz-c">
                    <g id="uz_svg__uz-b">
                        <path id="uz_svg__uz-a" d="M0-6-1.9-.3 1 .7"/>
                        <use xlink:href="#uz_svg__uz-a" width="100%" height="100%" transform="scale(-1 1)"/>
                    </g>
                    <use xlink:href="#uz_svg__uz-b" width="100%" height="100%" transform="rotate(72)"/>
                </g>
                <use xlink:href="#uz_svg__uz-b" width="100%" height="100%" transform="rotate(-72)"/>
                <use xlink:href="#uz_svg__uz-c" width="100%" height="100%" transform="rotate(144)"/>
            </g>
            <use xlink:href="#uz_svg__uz-d" width="100%" height="100%" y="-24"/>
            <use xlink:href="#uz_svg__uz-d" width="100%" height="100%" y="-48"/>
        </g>
        <use xlink:href="#uz_svg__uz-e" width="100%" height="100%" x="24"/>
        <use xlink:href="#uz_svg__uz-e" width="100%" height="100%" x="48"/>
        <use xlink:href="#uz_svg__uz-d" width="100%" height="100%" x="-48"/>
        <use xlink:href="#uz_svg__uz-d" width="100%" height="100%" x="-24"/>
        <use xlink:href="#uz_svg__uz-d" width="100%" height="100%" x="-24" y="-24"/>
    </g>
</svg>
