<svg xmlns="http://www.w3.org/2000/svg" fill="none" viewBox="0 0 126 126">
    <rect width="126" height="126" fill="#2467FF" fill-opacity=".7" rx="8"/>
    <rect width="126" height="126" fill="url(#ens_svg__a)" rx="8"/>
    <rect width="48" height="48" x="39" y="24" fill="#fff" rx="24"/>
    <path fill="url(#ens_svg__b)" d="M49.667 44.183c.395.845 1.373 2.515 1.373 2.515L62.351 28l-11.039 7.709a4.818 4.818 0 0 0-1.571 1.729 8 8 0 0 0-.074 6.745Z"/>
    <path fill="#A0A8D4" d="M45.185 50.34a12.585 12.585 0 0 0 4.94 9.146L62.336 68s-7.638-11.01-14.082-21.964A11.063 11.063 0 0 1 46.96 42.3c-.09-.594-.09-1.2 0-1.794-.169.312-.495.95-.495.95a14.503 14.503 0 0 0-1.319 4.224 25.829 25.829 0 0 0 .04 4.66Z"/>
    <path fill="url(#ens_svg__c)" d="M76.335 51.817c-.395-.845-1.374-2.515-1.374-2.515L63.651 68l11.038-7.703a4.817 4.817 0 0 0 1.572-1.73 7.998 7.998 0 0 0 .074-6.75Z"/>
    <path fill="#A0A8D4" d="M80.817 45.66a12.584 12.584 0 0 0-4.941-9.146L63.666 28S71.3 39.01 77.749 49.964a11.064 11.064 0 0 1 1.29 3.736c.09.594.09 1.199 0 1.793.168-.31.494-.948.494-.948a14.504 14.504 0 0 0 1.319-4.225c.129-1.551.117-3.11-.035-4.66Z"/>
    <path fill="url(#ens_svg__d)" d="M49.74 37.438a4.817 4.817 0 0 1 1.572-1.73L62.35 28 51.04 46.703s-.988-1.67-1.374-2.515a8 8 0 0 1 .075-6.75ZM45.185 50.34a12.584 12.584 0 0 0 4.94 9.146L62.336 68s-7.638-11.01-14.082-21.964A11.064 11.064 0 0 1 46.96 42.3a5.987 5.987 0 0 1 0-1.793c-.169.31-.495.948-.495.948a14.504 14.504 0 0 0-1.319 4.225 25.828 25.828 0 0 0 .04 4.66Zm31.13 1.482c-.395-.845-1.374-2.515-1.374-2.515L63.651 68l11.038-7.703a4.817 4.817 0 0 0 1.572-1.73 7.999 7.999 0 0 0 .074-6.75l-.02.005Zm4.482-6.157a12.587 12.587 0 0 0-4.942-9.146L63.665 28S71.3 39.01 77.748 49.964a11.064 11.064 0 0 1 1.29 3.736c.09.594.09 1.199 0 1.793.168-.31.494-.948.494-.948a14.504 14.504 0 0 0 1.319-4.225c.129-1.551.117-3.11-.035-4.66l-.02.005Z" style="mix-blend-mode:color"/>
    <path fill="#07101B" d="M49.74 89.254h1.776V91H49.74v-1.746Zm9.516-2.027H55.06v2.22h4.782V91h-6.545v-8.637h6.334v1.53h-4.57v1.834h4.195v1.5ZM68.232 91h-1.804L62.9 84.865V91h-1.68v-8.637h1.892l3.44 6.03v-6.03h1.681V91Zm4.823-1.248c.425 0 .771-.047 1.037-.14.504-.18.756-.514.756-1.003a.74.74 0 0 0-.375-.662c-.25-.152-.643-.287-1.178-.404l-.914-.205c-.899-.203-1.52-.424-1.863-.662-.582-.399-.874-1.022-.874-1.87 0-.773.282-1.415.844-1.927.563-.512 1.389-.768 2.479-.768.91 0 1.685.242 2.326.727.644.48.982 1.18 1.014 2.098h-1.735c-.031-.52-.258-.89-.68-1.108-.28-.144-.63-.217-1.048-.217-.465 0-.836.094-1.113.282a.895.895 0 0 0-.416.785c0 .308.136.539.41.691.175.102.55.22 1.125.358l1.488.357c.652.156 1.144.365 1.477.627.515.406.773.994.773 1.764 0 .789-.303 1.445-.908 1.968-.602.52-1.453.78-2.555.78-1.125 0-2.01-.256-2.654-.768-.645-.516-.967-1.223-.967-2.121h1.723c.054.394.162.69.322.885.293.355.795.533 1.506.533Z"/>
    <defs>
        <linearGradient id="ens_svg__a" x1="63" x2="63" y1="0" y2="126" gradientUnits="userSpaceOnUse">
            <stop stop-color="#fff" stop-opacity="0"/>
            <stop offset="1" stop-color="#fff" stop-opacity=".9"/>
        </linearGradient>
        <linearGradient id="ens_svg__b" x1="62.845" x2="48.328" y1="28.459" y2="44.198" gradientUnits="userSpaceOnUse">
            <stop offset=".58" stop-color="#A0A8D4"/>
            <stop offset=".73" stop-color="#8791C7"/>
            <stop offset=".91" stop-color="#6470B4"/>
        </linearGradient>
        <linearGradient id="ens_svg__c" x1="63.151" x2="77.674" y1="67.541" y2="51.803" gradientUnits="userSpaceOnUse">
            <stop offset=".58" stop-color="#A0A8D4"/>
            <stop offset=".73" stop-color="#8791C7"/>
            <stop offset=".91" stop-color="#6470B4"/>
        </linearGradient>
        <linearGradient id="ens_svg__d" x1="62.998" x2="62.998" y1="27.802" y2="68.124" gradientUnits="userSpaceOnUse">
            <stop stop-color="#513EFF"/>
            <stop offset=".18" stop-color="#5157FF"/>
            <stop offset=".57" stop-color="#5298FF"/>
            <stop offset="1" stop-color="#52E5FF"/>
        </linearGradient>
    </defs>
</svg>
