<svg fill="none" viewBox="0 0 127 126" xmlns="http://www.w3.org/2000/svg" xmlns:xlink="http://www.w3.org/1999/xlink"><linearGradient id="a" gradientUnits="userSpaceOnUse" x1="63.15" x2="63.15" y1="0" y2="126"><stop offset="0" stop-color="#fff" stop-opacity="0"/><stop offset="1" stop-color="#fff" stop-opacity=".9"/></linearGradient><rect fill="#a1fe27" fill-opacity=".7" height="126" rx="8" width="126" x=".15"/><rect fill="url(#a)" height="126" rx="8" width="126" x=".15"/><rect fill="#a1fe27" height="48" rx="24" width="48" x="39.15" y="24"/><g fill="#00501e"><path d="m63.186 52.58c-.321 0-7.938-.066-13.765-5.895a16.776 16.776 0 0 1 -.361-.371c-1.221-1.286-1.8-2.817-1.677-4.425.109-1.42.764-2.794 1.84-3.873 1.075-1.078 2.453-1.731 3.872-1.84 1.486-.108 2.906.374 4.13 1.411.132-1.598.791-2.947 1.922-3.917 1.08-.927 2.511-1.437 4.04-1.437 1.528 0 2.96.51 4.04 1.437 1.13.97 1.79 2.319 1.922 3.917 1.224-1.037 2.644-1.528 4.13-1.41 1.42.109 2.794.764 3.871 1.84 1.078 1.075 1.733 2.454 1.84 3.872.123 1.608-.456 3.139-1.676 4.427a16.56 16.56 0 0 1 -.361.371c-5.828 5.827-13.445 5.893-13.767 5.893zm-9.67-15.21c-1.32 0-2.561.615-3.443 1.496-1.586 1.586-2.306 4.335-.14 6.625.11.117.223.233.338.348 5.479 5.477 12.843 5.54 12.916 5.54s7.452-.076 12.916-5.54c.116-.116.229-.232.339-.348 2.166-2.293 1.445-5.039-.14-6.625-1.585-1.587-4.335-2.307-6.628-.14a13.809 13.809 0 0 0 -.608.608l-1.139 1.208.045-1.658c0-.126.008-.252.008-.38 0-.163 0-.327-.007-.485-.087-3.15-2.54-4.586-4.784-4.586-2.243 0-4.694 1.435-4.783 4.586 0 .16-.006.327-.006.485 0 .125 0 .247.006.37l.045 1.668-1.14-1.201a15.308 15.308 0 0 0 -.263-.274 16.421 16.421 0 0 0 -.348-.339c-1.021-.968-2.13-1.358-3.184-1.358z"/><path d="m62.415 46.22h-.873c0-1.3-1.267-2.36-2.821-2.36-1.555 0-2.821 1.06-2.821 2.36h-.874c0-1.783 1.658-3.233 3.695-3.233s3.694 1.45 3.694 3.233zm8.882-.036h-.874c0-1.3-1.265-2.358-2.82-2.358-1.557 0-2.822 1.057-2.822 2.358h-.873c0-1.782 1.657-3.232 3.694-3.232s3.695 1.45 3.695 3.232z"/><path d="m59.727 46.238a1.257 1.257 0 1 0 0-2.513 1.257 1.257 0 0 0 0 2.513zm8.82 0a1.257 1.257 0 1 0 0-2.513 1.257 1.257 0 0 0 0 2.513zm-5.365 3.192c-1.029 0-1.983-.53-2.429-1.348l.765-.417c.295.546.947.892 1.662.892s1.368-.35 1.663-.892l.764.417c-.44.819-1.392 1.348-2.425 1.348zm15.652 12.107a10.905 10.905 0 0 1 -7.013.764 10.717 10.717 0 0 1 -5.173-2.8 7.367 7.367 0 0 0 2.855.561 8.16 8.16 0 0 0 4.726-1.506l-.7-.976c-1.89 1.36-4.49 1.688-6.541.76-2.024-.911-3.166-2.862-3.24-5.507v-.853h-1.2v.846c-.07 2.649-1.215 4.602-3.24 5.515-2.052.924-4.656.601-6.541-.765l-.7.976a8.16 8.16 0 0 0 4.724 1.51c.98.004 1.95-.187 2.855-.562a10.713 10.713 0 0 1 -5.172 2.8c-2.358.53-4.825.261-7.013-.764l-.512 1.087a12.062 12.062 0 0 0 5.136 1.143c.892 0 1.782-.099 2.652-.294a11.93 11.93 0 0 0 6.758-4.229l.008-.01a10.8 10.8 0 0 0 1.047-1.67v6.18h1.2v-6.171c.298.585.647 1.141 1.044 1.663l.008.01a11.932 11.932 0 0 0 6.757 4.228 12.085 12.085 0 0 0 7.79-.849z"/></g><path d="m23.004 94.44h1.805v7.084h4.277v1.553h-6.082zm12.668 6.762c-.043.379-.24.763-.592 1.154-.546.621-1.312.932-2.296.932-.813 0-1.53-.262-2.15-.785-.622-.524-.933-1.375-.933-2.555 0-1.106.28-1.953.838-2.543.563-.59 1.291-.885 2.186-.885.531 0 1.01.1 1.435.299.426.2.778.514 1.055.943.25.38.412.819.486 1.319.044.293.061.715.053 1.265h-4.37c.023.641.224 1.09.603 1.348.23.16.508.24.832.24.343 0 .623-.098.838-.293a1.39 1.39 0 0 0 .31-.439zm-1.652-1.957c-.027-.442-.162-.776-.404-1.002a1.23 1.23 0 0 0 -.891-.346c-.387 0-.688.121-.902.363-.211.242-.344.57-.399.985zm5.871-1.319c-.566 0-.955.24-1.166.721-.11.254-.164.578-.164.973v3.457h-1.664v-6.375h1.611v.931c.215-.328.418-.564.61-.709.343-.257.779-.386 1.306-.386.66 0 1.2.174 1.617.521.422.344.633.916.633 1.717v4.301h-1.71v-3.885c0-.336-.046-.594-.136-.773-.164-.329-.476-.493-.937-.493zm8.73-.943c.5.32.788.871.862 1.652h-1.67a.988.988 0 0 0 -.182-.51c-.183-.226-.496-.34-.937-.34-.364 0-.623.057-.78.17-.152.114-.228.247-.228.4 0 .19.082.33.246.415.164.09.744.244 1.74.463.664.156 1.162.392 1.494.709.329.32.493.721.493 1.201 0 .633-.237 1.151-.71 1.553-.468.398-1.195.598-2.18.598-1.003 0-1.745-.211-2.226-.633-.476-.426-.715-.967-.715-1.623h1.694c.035.297.111.507.228.632.207.223.59.334 1.149.334.328 0 .588-.048.78-.146.194-.098.292-.244.292-.439a.473.473 0 0 0 -.234-.428c-.157-.098-.737-.266-1.74-.504-.723-.18-1.233-.404-1.53-.674-.297-.266-.445-.648-.445-1.148 0-.59.23-1.096.691-1.518.465-.426 1.117-.639 1.957-.639.797 0 1.448.159 1.951.475zm1.776 1.957h3.363v1.582h-3.363zm10.758-2.97h-4.33v1.986h3.79v1.5h-3.79v3.621h-1.793v-8.625h6.123v1.517zm6.404 1.529c.539.675.809 1.474.809 2.396 0 .938-.27 1.74-.809 2.408-.54.664-1.358.996-2.455.996-1.098 0-1.916-.332-2.455-.996-.54-.668-.809-1.47-.809-2.408 0-.922.27-1.72.809-2.396s1.357-1.014 2.455-1.014c1.097 0 1.916.338 2.455 1.014zm-2.461.398c-.488 0-.865.174-1.13.521-.263.344-.393.836-.393 1.477s.13 1.135.392 1.483c.266.347.643.521 1.131.521s.863-.174 1.125-.521c.262-.348.393-.842.393-1.483 0-.64-.131-1.133-.393-1.477-.262-.347-.637-.521-1.125-.521zm4.506-3.457h1.67v8.637h-1.67zm3.34 0h1.67v8.637h-1.67zm8.631 3.059c.539.675.808 1.474.808 2.396 0 .938-.27 1.74-.808 2.408-.54.664-1.358.996-2.456.996-1.097 0-1.915-.332-2.455-.996-.539-.668-.808-1.47-.808-2.408 0-.922.27-1.72.808-2.396.54-.676 1.358-1.014 2.456-1.014 1.097 0 1.915.338 2.455 1.014zm-2.461.398c-.489 0-.866.174-1.131.521-.262.344-.393.836-.393 1.477s.131 1.135.393 1.483c.265.347.642.521 1.13.521.489 0 .864-.174 1.126-.521.261-.348.392-.842.392-1.483 0-.64-.13-1.133-.392-1.477-.262-.347-.637-.521-1.125-.521zm9.316 5.18-1.002-4.653-1.014 4.653h-1.734l-1.793-6.387h1.793l.996 4.582.92-4.582h1.693l.973 4.6.996-4.6h1.74l-1.851 6.387zm9.961-1.875c-.043.379-.24.763-.592 1.154-.547.621-1.312.932-2.297.932a3.24 3.24 0 0 1 -2.15-.785c-.621-.524-.932-1.375-.932-2.555 0-1.106.28-1.953.838-2.543.563-.59 1.291-.885 2.186-.885.531 0 1.01.1 1.435.299.426.2.778.514 1.055.943.25.38.412.819.486 1.319.043.293.06.715.053 1.265h-4.371c.023.641.224 1.09.603 1.348.23.16.508.24.832.24.344 0 .623-.098.838-.293.118-.105.221-.252.31-.439zm-1.652-1.957c-.028-.442-.163-.776-.405-1.002a1.23 1.23 0 0 0 -.89-.346c-.387 0-.688.121-.903.363-.21.242-.343.57-.398.985zm6.076-1.014c-.672 0-1.123.219-1.354.656-.129.246-.193.625-.193 1.137v3.053h-1.682v-6.387h1.594v1.113c.258-.425.482-.716.674-.873.312-.262.719-.392 1.219-.392.031 0 .056.002.076.005l.146.006v1.711a4.503 4.503 0 0 0 -.48-.029z" fill="#07101b"/></svg>