<svg fill="none" viewBox="0 0 127 126" xmlns="http://www.w3.org/2000/svg" xmlns:xlink="http://www.w3.org/1999/xlink"><linearGradient id="a" gradientUnits="userSpaceOnUse" x1="63.5" x2="63.5" y1="0" y2="126"><stop offset="0" stop-color="#fff" stop-opacity="0"/><stop offset="1" stop-color="#fff" stop-opacity=".9"/></linearGradient><rect fill="#a1fe27" fill-opacity=".7" height="126" rx="8" width="126" x=".5"/><rect fill="url(#a)" height="126" rx="8" width="126" x=".5"/><rect fill="#a1fe27" height="48" rx="24" width="48" x="39.5" y="24"/><g fill="#00501e"><path d="m63.536 52.58c-.321 0-7.938-.066-13.765-5.895a16.548 16.548 0 0 1 -.361-.371c-1.22-1.286-1.8-2.817-1.677-4.425.109-1.42.764-2.794 1.84-3.873 1.075-1.078 2.454-1.731 3.872-1.84 1.486-.108 2.906.374 4.13 1.411.132-1.598.791-2.947 1.923-3.917 1.08-.927 2.51-1.437 4.04-1.437 1.528 0 2.959.51 4.038 1.437 1.13.97 1.791 2.319 1.923 3.917 1.224-1.037 2.644-1.528 4.13-1.41 1.42.109 2.794.764 3.872 1.84 1.077 1.075 1.732 2.454 1.84 3.872.123 1.608-.457 3.139-1.677 4.427a16.56 16.56 0 0 1 -.361.371c-5.828 5.827-13.445 5.893-13.767 5.893zm-9.67-15.21c-1.32 0-2.56.615-3.443 1.496-1.585 1.586-2.306 4.335-.14 6.625.11.117.224.233.339.348 5.478 5.477 12.842 5.54 12.915 5.54s7.452-.076 12.917-5.54c.115-.116.228-.232.338-.348 2.166-2.293 1.445-5.039-.14-6.625-1.585-1.587-4.335-2.307-6.628-.14a13.809 13.809 0 0 0 -.608.608l-1.138 1.208.044-1.658c0-.126.008-.252.008-.38 0-.163 0-.327-.007-.485-.087-3.15-2.54-4.586-4.784-4.586-2.243 0-4.694 1.435-4.783 4.586 0 .16-.006.327-.006.485 0 .125 0 .247.006.37l.045 1.668-1.14-1.201a14.964 14.964 0 0 0 -.263-.274 16.421 16.421 0 0 0 -.348-.339c-1.02-.968-2.13-1.358-3.184-1.358z"/><path d="m62.766 46.22h-.874c0-1.3-1.266-2.36-2.82-2.36-1.556 0-2.822 1.06-2.822 2.36h-.873c0-1.783 1.657-3.233 3.694-3.233s3.695 1.45 3.695 3.233zm8.881-.036h-.874c0-1.3-1.265-2.358-2.82-2.358-1.556 0-2.822 1.057-2.822 2.358h-.873c0-1.782 1.657-3.232 3.694-3.232 2.038 0 3.695 1.45 3.695 3.232z"/><path d="m60.077 46.238a1.257 1.257 0 1 0 0-2.513 1.257 1.257 0 0 0 0 2.513zm8.82 0a1.257 1.257 0 1 0 0-2.513 1.257 1.257 0 0 0 0 2.513zm-5.364 3.192c-1.03 0-1.984-.53-2.43-1.348l.765-.417c.296.546.947.892 1.663.892.715 0 1.367-.35 1.662-.892l.764.417c-.44.819-1.391 1.348-2.424 1.348zm15.652 12.107a10.905 10.905 0 0 1 -7.014.764 10.717 10.717 0 0 1 -5.173-2.8 7.367 7.367 0 0 0 2.855.561 8.16 8.16 0 0 0 4.727-1.506l-.701-.976c-1.89 1.36-4.49 1.688-6.541.76-2.024-.911-3.166-2.862-3.24-5.507v-.853h-1.2v.846c-.07 2.649-1.214 4.602-3.24 5.515-2.052.924-4.656.601-6.541-.765l-.7.976a8.16 8.16 0 0 0 4.724 1.51c.98.004 1.95-.187 2.855-.562a10.713 10.713 0 0 1 -5.172 2.8c-2.358.53-4.825.261-7.013-.764l-.512 1.087a12.062 12.062 0 0 0 5.136 1.143c.893 0 1.782-.099 2.652-.294a11.93 11.93 0 0 0 6.758-4.229l.008-.01c.4-.523.75-1.082 1.047-1.67v6.18h1.2v-6.171c.298.585.647 1.141 1.045 1.663l.007.01a11.932 11.932 0 0 0 6.757 4.228 12.085 12.085 0 0 0 7.79-.849z"/></g><path d="m30.346 94.44h2.105v8.265h4.99v1.811h-7.095zm14.779 7.889c-.05.442-.28.891-.69 1.346-.639.725-1.532 1.087-2.68 1.087a3.777 3.777 0 0 1 -2.509-.916c-.724-.61-1.087-1.604-1.087-2.98 0-1.29.326-2.279.978-2.967.656-.688 1.506-1.032 2.55-1.032.62 0 1.178.116 1.674.348.497.233.907.6 1.23 1.101.292.442.482.955.568 1.538.05.342.07.834.062 1.477h-5.1c.027.747.262 1.271.704 1.572.27.187.593.28.97.28.402 0 .728-.114.978-.342.137-.123.258-.294.363-.512zm-1.928-2.284c-.032-.514-.189-.904-.471-1.169a1.436 1.436 0 0 0 -1.04-.403c-.45 0-.802.142-1.052.424-.246.283-.401.665-.465 1.148zm6.85-1.538c-.66 0-1.114.28-1.36.841-.128.296-.192.675-.192 1.135v4.033h-1.941v-7.437h1.88v1.087c.25-.383.487-.659.71-.828.402-.3.91-.45 1.525-.45.77 0 1.399.202 1.887.608.492.4.738 1.068.738 2.003v5.017h-1.996v-4.532c0-.392-.053-.693-.157-.902-.192-.383-.556-.575-1.094-.575zm10.185-1.1c.584.374.919 1.016 1.005 1.928h-1.947c-.027-.251-.098-.45-.212-.595-.214-.264-.579-.397-1.094-.397-.423 0-.726.066-.909.199-.177.132-.266.287-.266.464 0 .224.095.385.287.486.191.105.868.285 2.03.54.775.182 1.356.458 1.743.827.383.374.574.841.574 1.401 0 .739-.275 1.342-.827 1.812-.547.465-1.394.697-2.543.697-1.171 0-2.037-.246-2.597-.738-.556-.497-.834-1.128-.834-1.894h1.975c.041.347.13.593.267.739.241.259.688.389 1.34.389.383 0 .685-.057.909-.171.228-.114.342-.285.342-.512a.553.553 0 0 0 -.274-.499c-.182-.114-.859-.31-2.03-.588-.843-.21-1.438-.472-1.784-.786-.347-.31-.52-.757-.52-1.34 0-.688.27-1.279.807-1.77.542-.498 1.303-.746 2.283-.746.93 0 1.688.185 2.276.554zm2.072 2.283h3.924v1.846h-3.924zm9.686 1.203h-2.14v3.623h-2.09v-10.076h4.388c1.012 0 1.819.26 2.42.78.602.519.903 1.323.903 2.412 0 1.19-.301 2.03-.903 2.523-.601.492-1.46.738-2.577.738zm.985-2.099c.273-.241.41-.624.41-1.148s-.14-.898-.417-1.121c-.274-.223-.659-.335-1.156-.335h-1.961v2.967h1.962c.496 0 .884-.121 1.162-.362zm10.131-.786c.628.789.943 1.72.943 2.796 0 1.094-.315 2.031-.944 2.81-.628.775-1.583 1.162-2.864 1.162-1.28 0-2.235-.387-2.864-1.162-.629-.779-.943-1.716-.943-2.81 0-1.075.314-2.007.943-2.796.629-.788 1.584-1.182 2.864-1.182s2.236.394 2.865 1.182zm-2.872.465c-.57 0-1.01.203-1.319.609-.305.4-.458.975-.458 1.722 0 .748.153 1.324.458 1.73.31.405.75.608 1.32.608.569 0 1.007-.203 1.312-.608.305-.406.458-.982.458-1.73 0-.747-.153-1.321-.458-1.722-.305-.406-.743-.609-1.313-.609zm10.35-1.066c.583.374.918 1.016 1.005 1.928h-1.949c-.028-.251-.098-.45-.212-.595-.215-.264-.58-.397-1.094-.397-.424 0-.727.066-.91.199-.177.132-.266.287-.266.464a.51.51 0 0 0 .287.486c.192.105.868.285 2.03.54.775.182 1.356.458 1.744.827.383.374.574.841.574 1.401 0 .739-.276 1.342-.827 1.812-.547.465-1.395.697-2.543.697-1.171 0-2.037-.246-2.598-.738-.556-.497-.834-1.128-.834-1.894h1.976c.04.347.13.593.266.739.242.259.689.389 1.34.389.383 0 .686-.057.91-.171.227-.114.341-.285.341-.512a.553.553 0 0 0 -.273-.499c-.183-.114-.86-.31-2.03-.588-.844-.21-1.438-.472-1.785-.786-.346-.31-.52-.757-.52-1.34 0-.688.27-1.279.807-1.77.543-.498 1.304-.746 2.284-.746.93 0 1.688.185 2.276.554zm6.07 5.721v1.457l-.923.034c-.92.032-1.549-.128-1.886-.479-.219-.223-.328-.567-.328-1.032v-4.587h-1.04v-1.388h1.04v-2.078h1.927v2.078h1.21v1.388h-1.21v3.938c0 .305.04.496.117.574.077.073.314.109.71.109h.185z" fill="#07101b"/></svg>