<svg fill="none" viewBox="0 0 126 126" xmlns="http://www.w3.org/2000/svg" xmlns:xlink="http://www.w3.org/1999/xlink"><linearGradient id="a" gradientUnits="userSpaceOnUse" x1="63" x2="63" y1="0" y2="126"><stop offset="0" stop-color="#fff" stop-opacity="0"/><stop offset="1" stop-color="#fff" stop-opacity=".9"/></linearGradient><rect fill="#a1fe27" fill-opacity=".7" height="126" rx="8" width="126"/><rect fill="url(#a)" height="126" rx="8" width="126"/><rect fill="#a1fe27" height="48" rx="24" width="48" x="39" y="24"/><g fill="#00501e"><path d="m63.036 52.58c-.321 0-7.938-.066-13.765-5.895a16.548 16.548 0 0 1 -.361-.371c-1.22-1.286-1.8-2.817-1.677-4.425.109-1.42.764-2.794 1.84-3.873 1.075-1.078 2.454-1.731 3.872-1.84 1.486-.108 2.906.374 4.13 1.411.132-1.598.791-2.947 1.923-3.917 1.08-.927 2.51-1.437 4.04-1.437 1.528 0 2.959.51 4.038 1.437 1.13.97 1.791 2.319 1.923 3.917 1.224-1.037 2.644-1.528 4.13-1.41 1.42.109 2.794.764 3.872 1.84 1.077 1.075 1.732 2.454 1.84 3.872.123 1.608-.457 3.139-1.677 4.427a16.56 16.56 0 0 1 -.361.371c-5.828 5.827-13.445 5.893-13.767 5.893zm-9.67-15.21c-1.32 0-2.56.615-3.443 1.496-1.585 1.586-2.306 4.335-.14 6.625.11.117.224.233.339.348 5.478 5.477 12.842 5.54 12.915 5.54s7.452-.076 12.917-5.54c.115-.116.228-.232.338-.348 2.166-2.293 1.445-5.039-.14-6.625-1.585-1.587-4.335-2.307-6.628-.14a13.809 13.809 0 0 0 -.608.608l-1.138 1.208.044-1.658c0-.126.008-.252.008-.38 0-.163 0-.327-.007-.485-.087-3.15-2.54-4.586-4.784-4.586-2.243 0-4.694 1.435-4.783 4.586 0 .16-.006.327-.006.485 0 .125 0 .247.006.37l.045 1.668-1.14-1.201a14.964 14.964 0 0 0 -.263-.274 16.421 16.421 0 0 0 -.348-.339c-1.02-.968-2.13-1.358-3.184-1.358z"/><path d="m62.266 46.22h-.874c0-1.3-1.266-2.36-2.82-2.36-1.556 0-2.822 1.06-2.822 2.36h-.873c0-1.783 1.657-3.233 3.694-3.233s3.695 1.45 3.695 3.233zm8.881-.036h-.874c0-1.3-1.265-2.358-2.82-2.358-1.556 0-2.822 1.057-2.822 2.358h-.873c0-1.782 1.657-3.232 3.694-3.232 2.038 0 3.695 1.45 3.695 3.232z"/><path d="m59.577 46.238a1.257 1.257 0 1 0 0-2.513 1.257 1.257 0 0 0 0 2.513zm8.82 0a1.257 1.257 0 1 0 0-2.513 1.257 1.257 0 0 0 0 2.513zm-5.364 3.192c-1.03 0-1.984-.53-2.43-1.348l.765-.417c.296.546.947.892 1.663.892.715 0 1.367-.35 1.662-.892l.764.417c-.44.819-1.391 1.348-2.424 1.348zm15.652 12.107a10.905 10.905 0 0 1 -7.014.764 10.717 10.717 0 0 1 -5.173-2.8 7.367 7.367 0 0 0 2.855.561 8.16 8.16 0 0 0 4.727-1.506l-.701-.976c-1.89 1.36-4.49 1.688-6.541.76-2.024-.911-3.166-2.862-3.24-5.507v-.853h-1.2v.846c-.07 2.649-1.214 4.602-3.24 5.515-2.052.924-4.656.601-6.541-.765l-.7.976a8.16 8.16 0 0 0 4.724 1.51c.98.004 1.95-.187 2.855-.562a10.713 10.713 0 0 1 -5.172 2.8c-2.358.53-4.825.261-7.013-.764l-.512 1.087a12.062 12.062 0 0 0 5.136 1.143c.893 0 1.782-.099 2.652-.294a11.93 11.93 0 0 0 6.758-4.229l.008-.01c.4-.523.75-1.082 1.047-1.67v6.18h1.2v-6.171c.298.585.647 1.141 1.045 1.663l.007.01a11.932 11.932 0 0 0 6.757 4.228 12.085 12.085 0 0 0 7.79-.849z"/></g><path d="m19.904 94.604h1.805v7.084h4.277v1.553h-6.082zm12.668 6.762c-.043.379-.24.763-.592 1.154-.546.621-1.312.932-2.296.932-.813 0-1.53-.262-2.15-.785-.622-.524-.932-1.375-.932-2.555 0-1.106.279-1.953.837-2.543.563-.59 1.291-.885 2.186-.885.531 0 1.01.1 1.436.299.425.2.777.514 1.054.943.25.38.412.819.487 1.319.043.293.06.715.052 1.265h-4.37c.023.641.224 1.09.603 1.348.23.16.508.24.832.24.343 0 .623-.097.838-.293a1.39 1.39 0 0 0 .31-.439zm-1.652-1.957c-.027-.442-.162-.776-.404-1.002a1.23 1.23 0 0 0 -.891-.346c-.387 0-.688.121-.902.363-.211.243-.344.57-.399.985zm5.871-1.319c-.566 0-.955.24-1.166.721-.11.254-.164.578-.164.973v3.457h-1.664v-6.375h1.611v.931c.215-.328.418-.564.61-.709.343-.257.779-.386 1.306-.386.66 0 1.2.174 1.617.521.422.344.633.916.633 1.717v4.301h-1.71v-3.885c0-.336-.046-.594-.136-.773-.163-.329-.476-.493-.937-.493zm8.731-.943c.5.32.787.871.86 1.652h-1.67a.987.987 0 0 0 -.18-.51c-.184-.226-.497-.34-.938-.34-.364 0-.623.057-.78.17-.152.114-.228.247-.228.4 0 .19.082.33.246.415.164.09.744.244 1.74.463.664.156 1.162.393 1.494.709.328.32.493.721.493 1.201 0 .633-.237 1.151-.71 1.553-.468.398-1.195.598-2.18.598-1.003 0-1.745-.211-2.226-.633-.476-.426-.715-.967-.715-1.623h1.694c.035.297.111.508.228.633.207.222.59.334 1.149.334.328 0 .588-.049.78-.147.194-.098.292-.244.292-.439a.474.474 0 0 0 -.234-.428c-.157-.098-.737-.266-1.74-.504-.723-.18-1.233-.404-1.53-.674-.297-.266-.445-.648-.445-1.148 0-.59.23-1.096.691-1.518.465-.426 1.117-.639 1.957-.639.797 0 1.448.159 1.952.475zm1.775 1.957h3.363v1.582h-3.363zm10.728 3.492c-.644.59-1.468.885-2.472.885-1.242 0-2.219-.398-2.93-1.195-.71-.801-1.066-1.899-1.066-3.293 0-1.508.404-2.67 1.212-3.487.704-.71 1.598-1.066 2.684-1.066 1.453 0 2.516.477 3.188 1.43.37.535.57 1.072.597 1.611h-1.804c-.118-.414-.268-.727-.452-.938-.328-.375-.814-.562-1.459-.562-.656 0-1.173.266-1.552.797-.38.527-.569 1.275-.569 2.244s.2 1.695.598 2.18c.402.48.912.72 1.53.72.632 0 1.114-.207 1.447-.621.183-.222.336-.556.457-1.002h1.787c-.156.942-.555 1.707-1.196 2.297zm7.77-4.933c.539.675.808 1.474.808 2.396 0 .938-.269 1.74-.808 2.408-.54.664-1.358.996-2.455.996-1.098 0-1.916-.332-2.455-.996-.54-.668-.809-1.47-.809-2.408 0-.922.27-1.72.809-2.396s1.357-1.014 2.455-1.014c1.097 0 1.916.338 2.455 1.014zm-2.461.398c-.488 0-.865.174-1.13.522-.263.343-.394.835-.394 1.476s.131 1.135.393 1.483c.266.347.643.521 1.131.521s.863-.174 1.125-.521c.262-.348.393-.842.393-1.483 0-.64-.131-1.133-.393-1.476-.262-.348-.637-.522-1.125-.522zm8.056.551c-.14-.309-.415-.463-.826-.463-.476 0-.796.154-.96.463-.09.176-.135.437-.135.785v3.844h-1.694v-6.375h1.623v.931c.208-.332.403-.568.586-.709.325-.25.745-.375 1.26-.375.488 0 .883.108 1.184.323.242.199.425.455.55.767.22-.375.49-.65.815-.826a2.485 2.485 0 0 1 1.148-.264c.282 0 .559.055.832.165.274.109.522.3.745.574.18.222.3.496.363.82.039.215.058.53.058.943l-.011 4.026h-1.711v-4.067c0-.242-.04-.441-.117-.597-.149-.297-.422-.446-.82-.446-.462 0-.78.192-.956.575-.09.203-.135.447-.135.732v3.803h-1.681v-3.803c0-.379-.04-.654-.117-.826zm10.676 0c-.14-.309-.416-.463-.826-.463-.476 0-.797.154-.96.463-.09.176-.136.437-.136.785v3.844h-1.693v-6.375h1.623v.931c.207-.332.403-.568.586-.709.324-.25.744-.375 1.26-.375.488 0 .883.108 1.183.323.243.199.426.455.551.767.219-.375.49-.65.815-.826a2.485 2.485 0 0 1 1.148-.264c.281 0 .559.055.832.165.274.109.522.3.744.574.18.222.301.496.364.82.039.215.058.53.058.943l-.011 4.026h-1.711v-4.067c0-.242-.04-.441-.118-.597-.148-.297-.422-.446-.82-.446-.46 0-.78.192-.955.575-.09.203-.135.447-.135.732v3.803h-1.681v-3.803c0-.379-.04-.654-.118-.826zm12.557 2.754c-.043.379-.24.763-.592 1.154-.547.621-1.312.932-2.297.932a3.24 3.24 0 0 1 -2.15-.785c-.621-.524-.932-1.375-.932-2.555 0-1.106.28-1.953.838-2.543.563-.59 1.291-.885 2.186-.885.531 0 1.01.1 1.435.299.426.2.778.514 1.055.943.25.38.412.819.486 1.319.043.293.06.715.053 1.265h-4.371c.023.641.225 1.09.603 1.348.231.16.508.24.832.24.344 0 .624-.097.838-.293a1.39 1.39 0 0 0 .311-.439zm-1.652-1.957c-.028-.442-.162-.776-.405-1.002a1.23 1.23 0 0 0 -.89-.346c-.387 0-.688.121-.903.363-.21.243-.343.57-.398.985zm5.871-1.319c-.567 0-.955.24-1.166.721-.11.254-.164.578-.164.973v3.457h-1.664v-6.375h1.611v.931c.215-.328.418-.564.61-.709.343-.257.779-.386 1.306-.386.66 0 1.199.174 1.617.521.422.344.633.916.633 1.717v4.301h-1.71v-3.885c0-.336-.046-.594-.136-.773-.164-.329-.476-.493-.937-.493zm7.254 3.961v1.248l-.791.03c-.789.027-1.328-.11-1.617-.41-.188-.192-.282-.487-.282-.885v-3.932h-.89v-1.19h.89v-1.78h1.653v1.78h1.037v1.19h-1.037v3.375c0 .262.033.426.099.492.067.063.27.094.61.094h.158z" fill="#07101b"/></svg>