<svg fill="none" viewBox="0 0 127 126" xmlns="http://www.w3.org/2000/svg" xmlns:xlink="http://www.w3.org/1999/xlink"><linearGradient id="a" gradientUnits="userSpaceOnUse" x1="63.05" x2="63.05" y1="0" y2="126"><stop offset="0" stop-color="#fff" stop-opacity="0"/><stop offset="1" stop-color="#fff" stop-opacity=".9"/></linearGradient><rect fill="#a1fe27" fill-opacity=".7" height="126" rx="8" width="126" x=".05"/><rect fill="url(#a)" height="126" rx="8" width="126" x=".05"/><rect fill="#a1fe27" height="48" rx="24" width="48" x="39.05" y="24"/><g fill="#00501e"><path d="m63.086 52.58c-.321 0-7.938-.066-13.765-5.895a16.548 16.548 0 0 1 -.361-.371c-1.221-1.286-1.8-2.817-1.677-4.425.109-1.42.764-2.794 1.84-3.873 1.075-1.078 2.454-1.731 3.872-1.84 1.486-.108 2.906.374 4.13 1.411.132-1.598.791-2.947 1.922-3.917 1.08-.927 2.511-1.437 4.04-1.437 1.528 0 2.96.51 4.04 1.437 1.13.97 1.79 2.319 1.922 3.917 1.224-1.037 2.644-1.528 4.13-1.41 1.42.109 2.794.764 3.871 1.84 1.078 1.075 1.733 2.454 1.84 3.872.123 1.608-.456 3.139-1.676 4.427-.118.124-.238.249-.361.371-5.828 5.827-13.445 5.893-13.767 5.893zm-9.67-15.21c-1.32 0-2.561.615-3.443 1.496-1.585 1.586-2.306 4.335-.14 6.625.11.117.223.233.338.348 5.479 5.477 12.843 5.54 12.916 5.54s7.452-.076 12.916-5.54c.116-.116.229-.232.339-.348 2.166-2.293 1.445-5.039-.14-6.625-1.585-1.587-4.335-2.307-6.628-.14a13.809 13.809 0 0 0 -.608.608l-1.139 1.208.045-1.658c0-.126.008-.252.008-.38 0-.163 0-.327-.007-.485-.087-3.15-2.54-4.586-4.784-4.586-2.243 0-4.694 1.435-4.783 4.586 0 .16-.006.327-.006.485 0 .125 0 .247.006.37l.045 1.668-1.14-1.201a15.668 15.668 0 0 0 -.263-.274 16.913 16.913 0 0 0 -.348-.339c-1.021-.968-2.13-1.358-3.184-1.358z"/><path d="m62.315 46.22h-.873c0-1.3-1.266-2.36-2.821-2.36s-2.821 1.06-2.821 2.36h-.874c0-1.783 1.658-3.233 3.695-3.233s3.694 1.45 3.694 3.233zm8.882-.036h-.874c0-1.3-1.265-2.358-2.82-2.358-1.557 0-2.822 1.057-2.822 2.358h-.873c0-1.782 1.657-3.232 3.694-3.232s3.695 1.45 3.695 3.232z"/><path d="m59.627 46.238a1.257 1.257 0 1 0 0-2.513 1.257 1.257 0 0 0 0 2.513zm8.82 0a1.257 1.257 0 1 0 0-2.513 1.257 1.257 0 0 0 0 2.513zm-5.364 3.192c-1.03 0-1.984-.53-2.43-1.348l.765-.417c.296.546.947.892 1.662.892s1.368-.35 1.663-.892l.764.417c-.44.819-1.392 1.348-2.425 1.348zm15.651 12.107a10.905 10.905 0 0 1 -7.013.764 10.717 10.717 0 0 1 -5.173-2.8 7.366 7.366 0 0 0 2.855.561 8.16 8.16 0 0 0 4.726-1.506l-.7-.976c-1.89 1.36-4.49 1.688-6.541.76-2.024-.911-3.166-2.862-3.24-5.507v-.853h-1.2v.846c-.07 2.649-1.214 4.602-3.24 5.515-2.052.924-4.656.601-6.541-.765l-.7.976a8.16 8.16 0 0 0 4.724 1.51c.98.004 1.95-.187 2.855-.562a10.713 10.713 0 0 1 -5.172 2.8c-2.358.53-4.825.261-7.013-.764l-.512 1.087a12.062 12.062 0 0 0 5.136 1.143c.892 0 1.782-.099 2.652-.294a11.93 11.93 0 0 0 6.758-4.229l.008-.01a10.73 10.73 0 0 0 1.047-1.67v6.18h1.2v-6.171c.298.585.647 1.141 1.044 1.663l.008.01a11.932 11.932 0 0 0 6.757 4.228 12.085 12.085 0 0 0 7.79-.849z"/></g><path d="m45.958 101.587h1.775v1.746h-1.775zm3.504-6.891h1.804v7.084h4.278v1.553h-6.082zm13.348 4.864h-4.196v2.22h4.781v1.553h-6.545v-8.637h6.334v1.53h-4.57v1.834h4.195v1.5zm8.976 3.773h-1.806l-3.527-6.135v6.135h-1.682v-8.637h1.893l3.44 6.03v-6.03h1.68v8.637zm4.822-1.248c.426 0 .772-.047 1.037-.141.504-.179.756-.513.756-1.002a.74.74 0 0 0 -.375-.662c-.25-.152-.642-.287-1.178-.404l-.914-.205c-.898-.203-1.52-.424-1.863-.662-.582-.399-.873-1.022-.873-1.87 0-.773.281-1.415.844-1.927.562-.512 1.388-.768 2.478-.768.91 0 1.686.242 2.326.727.645.48.983 1.18 1.014 2.098h-1.734c-.032-.52-.258-.89-.68-1.108-.281-.144-.63-.217-1.049-.217-.465 0-.836.094-1.113.282a.896.896 0 0 0 -.416.785c0 .308.137.539.41.691.176.102.55.22 1.125.358l1.488.357c.653.156 1.145.365 1.477.627.516.406.773.994.773 1.764 0 .789-.302 1.445-.908 1.968-.601.52-1.453.78-2.555.78-1.124 0-2.01-.256-2.654-.768-.644-.516-.967-1.223-.967-2.121h1.723c.055.395.162.689.322.885.293.355.795.533 1.506.533z" fill="#07101b"/></svg>