<svg xmlns="http://www.w3.org/2000/svg" fill="none" viewBox="0 0 24 24">
    <g clip-path="url('#manta_svg__clip0_10949_58084')">
        <path fill="#000" d="M24 12c0-6.627-5.373-12-12-12S0 5.373 0 12s5.373 12 12 12 12-5.373 12-12Z"/>
        <path fill="url(#manta_svg__paint0_linear_10949_58084)" fill-rule="evenodd" d="M6.668 19.171A8.947 8.947 0 0 1 3.083 12c0-4.94 3.994-8.948 8.917-8.948 4.065 0 8.503 2.437 9.576 6.17C20.376 5.053 16.544 2 12 2 6.498 2 2.035 6.478 2.035 12S6.498 22 12 22c5.503 0 9.966-4.478 9.966-10v-.527h-.62a17.35 17.35 0 0 1-1.202-.065c-.748-.066-1.601-.193-2.18-.427-.935-.375-1.463-.87-2.064-1.451l-.035-.033c-.604-.581-1.281-1.236-2.46-1.79-1.158-.547-2.439-.46-3.379-.264a8.408 8.408 0 0 0-1.178.334c-.146.052-.262.1-.344.133-.473.201-.934.438-1.397.658 0 0 .913.25 1.362.391l.076.025a5.203 5.203 0 0 1 1.14.549c.487.312.891.709 1.056 1.193-1.032.135-2.001.592-2.727 1.019a11.476 11.476 0 0 0-1.362.948c-.06.049-.99.872-.99.872s1.201.128 1.794.248c.396.078.927.209 1.484.402.558.195 1.122.45 1.59.78.469.328.812.706.98 1.14.493 1.267.008 2.498-.964 3.191-.961.685-2.42.848-3.88-.157l.002.002Zm3.402 1.565a4.06 4.06 0 0 0 1.088-.549c1.322-.942 2.018-2.67 1.333-4.432-.271-.693-.786-1.22-1.357-1.622-.574-.402-1.232-.695-1.844-.91-.401-.142-.791-.25-1.13-.332.122-.079.25-.16.388-.242.807-.475 1.825-.913 2.8-.913 1.47 0 2.564.454 3.61.938.094.043.19.09.287.133.934.44 1.914.902 3.054.902s1.966-.312 2.56-.638c-.529 4.434-4.29 7.875-8.853 7.875a9.02 9.02 0 0 1-1.93-.21h-.006Zm9.65-8.31a4.381 4.381 0 0 1-1.424.232c-.893 0-1.662-.36-2.637-.816l-.263-.122c-.977-.454-2.107-.935-3.577-1.022-.198-.975-.934-1.644-1.568-2.051-.07-.046-.14-.09-.211-.13.062-.014.127-.03.195-.044.85-.177 1.863-.22 2.721.187 1.019.481 1.595 1.036 2.194 1.612l.021.019c.615.592 1.268 1.214 2.402 1.671.631.253 1.45.389 2.148.465Z" clip-rule="evenodd"/>
    </g>
    <defs>
        <linearGradient id="manta_svg__paint0_linear_10949_58084" x1="1.856" x2="22.144" y1="12.185" y2="11.815" gradientUnits="userSpaceOnUse">
            <stop stop-color="#29CCB9"/>
            <stop offset=".49" stop-color="#0091FF"/>
            <stop offset="1" stop-color="#FF66B7"/>
        </linearGradient>
        <clipPath id="manta_svg__clip0_10949_58084">
            <path fill="#fff" d="M0 0h24v24H0z"/>
        </clipPath>
    </defs>
</svg>
