<svg xmlns="http://www.w3.org/2000/svg" fill="none" viewBox="0 0 24 24">
    <path fill="#CDBDB2" fill-rule="evenodd" d="M8.15039 18.7443L10.5087 19.3706V18.5516L10.7013 18.3589H12.0489V19.3224V19.9968H10.605L8.8242 19.226L8.15039 18.7443Z" clip-rule="evenodd"/>
    <path fill="#CDBDB2" fill-rule="evenodd" d="M15.8506 18.7443L13.5404 19.3706V18.5516L13.3479 18.3589H12.0002V19.3224V19.9968H13.4441L15.2249 19.226L15.8506 18.7443Z" clip-rule="evenodd"/>
    <path fill="#393939" fill-rule="evenodd" d="M10.7013 16.9611L10.5088 18.5509L10.7494 18.3582H13.2522L13.5409 18.5509L13.3484 16.9611L12.9634 16.7202L11.0382 16.7684L10.7013 16.9611Z" clip-rule="evenodd"/>
    <path fill="#F89C35" fill-rule="evenodd" d="M9.40137 6.21826L10.5565 8.91605L11.0859 16.7686H12.9629L13.5405 8.91605L14.5994 6.21826H9.40137Z" clip-rule="evenodd"/>
    <path fill="#F89D35" fill-rule="evenodd" d="M4.34762 12.144L3 16.0461L6.36906 15.8534H8.53489V14.1673L8.43863 10.6987L7.95733 11.0841L4.34762 12.144Z" clip-rule="evenodd"/>
    <path fill="#D87C30" fill-rule="evenodd" d="M6.89844 12.5776L10.8451 12.674L10.4119 14.6973L8.53484 14.2156L6.89844 12.5776Z" clip-rule="evenodd"/>
    <path fill="#EA8D3A" fill-rule="evenodd" d="M6.89844 12.6265L8.53484 14.1681V15.7097L6.89844 12.6265Z" clip-rule="evenodd"/>
    <path fill="#F89D35" fill-rule="evenodd" d="M8.53418 14.2163L10.4594 14.6981L11.085 16.7696L10.6519 17.0105L8.53418 15.7579V14.2163Z" clip-rule="evenodd"/>
    <path fill="#EB8F35" fill-rule="evenodd" d="M8.53543 15.7568L8.15039 18.7437L10.7012 16.9612L8.53543 15.7568Z" clip-rule="evenodd"/>
    <path fill="#EA8E3A" fill-rule="evenodd" d="M10.8456 12.6733L11.0862 16.7682L10.3643 14.6726L10.8456 12.6733Z" clip-rule="evenodd"/>
    <path fill="#D87C30" fill-rule="evenodd" d="M6.32129 15.805L8.53524 15.7568L8.15021 18.7437L6.32129 15.805Z" clip-rule="evenodd"/>
    <path fill="#EB8F35" fill-rule="evenodd" d="M4.05885 20.0436L8.14985 18.7429L6.32093 15.8042L3 16.0451L4.05885 20.0436Z" clip-rule="evenodd"/>
    <path fill="#E8821E" fill-rule="evenodd" d="M10.5563 8.91748L8.48671 10.6518L6.89844 12.5788L10.8451 12.7233L10.5563 8.91748Z" clip-rule="evenodd"/>
    <path fill="#DFCEC3" fill-rule="evenodd" d="M8.15039 18.7449L10.7012 16.9624L10.5087 18.504V19.3711L8.77607 19.0339L8.15039 18.7449Z" clip-rule="evenodd"/>
    <path fill="#DFCEC3" fill-rule="evenodd" d="M15.8506 18.7449L13.3479 16.9624L13.5404 18.504V19.3711L15.273 19.0339L15.8506 18.7449Z" clip-rule="evenodd"/>
    <path fill="#393939" fill-rule="evenodd" d="M9.786 13.5405L10.3154 14.6486L8.43838 14.1668L9.786 13.5405Z" clip-rule="evenodd"/>
    <path fill="#E88F35" fill-rule="evenodd" d="M4.01074 3.95459L10.5563 8.91661L9.44937 6.21881L4.01074 3.95459Z" clip-rule="evenodd"/>
    <path fill="#8E5A30" fill-rule="evenodd" d="M4.00989 3.95459L3.14355 6.60421L3.62485 9.4947L3.28794 9.6874L3.76924 10.121L3.3842 10.4582L3.91363 10.9399L3.57672 11.229L4.34679 12.1925L7.9565 11.0845C9.72125 9.67134 10.5876 8.94872 10.5555 8.9166C10.5234 8.88448 8.34154 7.23048 4.00989 3.95459Z" clip-rule="evenodd"/>
    <path fill="#F89D35" fill-rule="evenodd" d="M19.6524 12.144L21 16.0461L17.6309 15.8534H15.4651V14.1673L15.5614 10.6987L16.0427 11.0841L19.6524 12.144Z" clip-rule="evenodd"/>
    <path fill="#D87C30" fill-rule="evenodd" d="M17.1016 12.5776L13.155 12.674L13.5881 14.6973L15.4652 14.2156L17.1016 12.5776Z" clip-rule="evenodd"/>
    <path fill="#EA8D3A" fill-rule="evenodd" d="M17.1016 12.6265L15.4652 14.1681V15.7097L17.1016 12.6265Z" clip-rule="evenodd"/>
    <path fill="#F89D35" fill-rule="evenodd" d="M15.4658 14.2163L13.5406 14.6981L12.915 16.7696L13.3481 17.0105L15.4658 15.7579V14.2163Z" clip-rule="evenodd"/>
    <path fill="#EB8F35" fill-rule="evenodd" d="M15.4646 15.7568L15.8496 18.7437L13.3469 17.0094L15.4646 15.7568Z" clip-rule="evenodd"/>
    <path fill="#EA8E3A" fill-rule="evenodd" d="M13.1544 12.6733L12.9138 16.7682L13.6357 14.6726L13.1544 12.6733Z" clip-rule="evenodd"/>
    <path fill="#D87C30" fill-rule="evenodd" d="M17.6787 15.805L15.4647 15.7568L15.8498 18.7437L17.6787 15.805Z" clip-rule="evenodd"/>
    <path fill="#EB8F35" fill-rule="evenodd" d="M19.9411 20.0455L15.8501 18.7448L17.6791 15.8062L21 16.047L19.9411 20.0455Z" clip-rule="evenodd"/>
    <path fill="#E8821E" fill-rule="evenodd" d="M13.4437 8.91748L15.5133 10.6518L17.1016 12.5788L13.155 12.7233L13.4437 8.91748Z" clip-rule="evenodd"/>
    <path fill="#393939" fill-rule="evenodd" d="M14.214 13.5405L13.6846 14.6486L15.5616 14.1668L14.214 13.5405Z" clip-rule="evenodd"/>
    <path fill="#E88F35" fill-rule="evenodd" d="M19.9893 3.95459L13.4437 8.91661L14.5506 6.21881L19.9893 3.95459Z" clip-rule="evenodd"/>
    <path fill="#8E5A30" fill-rule="evenodd" d="M19.9891 3.95459L20.8555 6.60421L20.3742 9.4947L20.7111 9.6874L20.2298 10.121L20.6148 10.4582L20.0854 10.9399L20.4223 11.229L19.6522 12.1925L16.0425 11.0845C14.2778 9.67134 13.4115 8.94872 13.4435 8.9166C13.4756 8.88448 15.6575 7.23048 19.9891 3.95459Z" clip-rule="evenodd"/>
</svg>
