<svg xmlns="http://www.w3.org/2000/svg" fill="none" viewBox="0 0 24 24">
    <g clip-path="url('#metis_svg__clip0_7527_47706')">
        <path fill="#00CFFF" d="M24 12a12 12 0 1 0-24 0 12 12 0 0 0 24 0Z"/>
        <path fill="#000" d="M20.098 11.401a8.756 8.756 0 0 0-.792-.534 1.905 1.905 0 0 1-.327-.258c-.205-.203-.545-.555-.658-.773-.07-.134-.041-.39.014-.628.097-.42.024-.86-.202-1.226l-.355-.577a3.86 3.86 0 0 1-.392-.842 2.436 2.436 0 0 0-.624-1c-.577-.566-2.178-.843-3.508-.888a2.154 2.154 0 0 0-.25-.058c-.592-.102-1.223-.268-1.79-.16-.842.158-1.692.421-2.328 1.07-.133.133-.327.193-.465.317-.274.247-.642.247-.884.521-.143.16-.208.682-.581.88-.617.33-1.069.695-1.222.88-.114.141-.2.304-.312.447-.11.143-.642.394-.801.55a1.125 1.125 0 0 0-.267.977l.021.101c.061.228.226.638.188.826-.044.223-.618 1.885.668 2.327a.574.574 0 0 1 .41.546c.027.222.09.438.189.639.085.163.211.3.366.4.165.157.32.323.466.498.454.84.327 1.26 1.202 1.545.224.074.439.173.64.294.246.149.51.265.784.348l.035.012c.194-.468.39-.91.585-1.328a3.874 3.874 0 0 1-1.004-3.886.09.09 0 0 1 .144-.042c.328.289 1.329 1.327 1.211 3.206.346-.69.682-1.297.989-1.815a3.918 3.918 0 0 1-.023-4.037.089.089 0 0 1 .12-.031.09.09 0 0 1 .033.031c.23.342.856 1.47.469 3.072.281-.43.508-.748.658-.947.4-2.671 2.42-3.548 2.95-3.733a.09.09 0 0 1 .12.093 4.642 4.642 0 0 1-2.728 3.771c-.282.37-.553.76-.812 1.16.895-.699 2.15-1.027 3.191-.775a.089.089 0 0 1 .065.056.088.088 0 0 1-.013.086c-.299.4-1.49 1.736-3.74 1.428-.38.64-.727 1.286-1.035 1.906.97-.733 2.385-1.014 3.483-.645a.093.093 0 0 1 .061.063.091.091 0 0 1-.02.086c-.341.368-1.654 1.573-3.814 1.094a45.93 45.93 0 0 0-.652 1.48c-.051.12-.098.24-.134.363a12.38 12.38 0 0 1-.378.99.4.4 0 0 0 .237.534 8.794 8.794 0 0 0 5.298.196.4.4 0 0 0 .259-.23l.072-.168s.753-1.749.864-2.511c.032-.24.107-.473.22-.687a.72.72 0 0 1 .591-.371c.575-.031 1.797-.111 2.242-.253.59-.187.335-1.264.303-1.38-.032-.116.284-.386.349-.542.064-.156-.16-.213-.252-.385-.092-.172.229-.298.274-.454.046-.156-.104-.329-.164-.445a.965.965 0 0 1-.084-.267s.433-.317.661-.516c.229-.199.188-.364.187-.4"/>
    </g>
    <defs>
        <clipPath id="metis_svg__clip0_7527_47706">
            <path fill="#fff" d="M0 0h24v24H0z"/>
        </clipPath>
    </defs>
</svg>
