<svg xmlns="http://www.w3.org/2000/svg" fill="none" viewBox="0 0 24 24">
    <g clip-path="url(#clip0_9926_9018)">
        <path fill="black" d="M0 4C0 1.79086 1.79086 0 4 0H20C22.2091 0 24 1.79086 24 4V20C24 22.2091 22.2091 24 20 24H4C1.79086 24 0 22.2091 0 20V4Z"/>
        <path fill="white" fill-rule="evenodd" d="M9.27372 4.76221H5.08315C4.99797 4.76243 4.91634 4.79637 4.85611 4.8566C4.79588 4.91683 4.76194 4.99846 4.76172 5.08364V9.27335C4.76172 9.45078 4.90572 9.59478 5.08315 9.59478H9.27286C9.35819 9.59455 9.43994 9.5605 9.5002 9.50008C9.56045 9.43966 9.59429 9.35782 9.59429 9.27249V5.08449C9.59406 4.99917 9.56001 4.91741 9.49959 4.85716C9.43918 4.7969 9.35733 4.76306 9.272 4.76306L9.27372 4.76221ZM14.108 9.59478H9.92C9.83453 9.59478 9.75255 9.62873 9.69211 9.68917C9.63167 9.74961 9.59772 9.83159 9.59772 9.91706V14.1059C9.59772 14.2842 9.74172 14.4282 9.92 14.4282H14.1089C14.1942 14.4282 14.276 14.3944 14.3364 14.3341C14.3969 14.2739 14.4309 14.1921 14.4311 14.1068V9.91706C14.4313 9.87467 14.423 9.83267 14.4069 9.79347C14.3907 9.75427 14.367 9.71864 14.3371 9.68862C14.3071 9.6586 14.2716 9.63479 14.2324 9.61854C14.1932 9.60229 14.1513 9.59392 14.1089 9.59392L14.108 9.59478ZM14.7509 4.76221H18.9397C19.118 4.76221 19.262 4.90621 19.262 5.08364V9.27335C19.2618 9.35868 19.2277 9.44043 19.1673 9.50069C19.1069 9.56094 19.025 9.59478 18.9397 9.59478H14.7517C14.6662 9.59478 14.5843 9.56082 14.5238 9.50038C14.4634 9.43994 14.4294 9.35797 14.4294 9.27249V5.08535C14.4294 4.90706 14.5743 4.76306 14.7517 4.76306L14.7509 4.76221ZM9.27372 14.4282H5.08315C4.99782 14.4284 4.91607 14.4625 4.85581 14.5229C4.79556 14.5833 4.76172 14.6652 4.76172 14.7505V18.9394C4.76172 19.1176 4.90572 19.2616 5.08315 19.2616H9.27286C9.35819 19.2614 9.43994 19.2274 9.5002 19.1669C9.56045 19.1065 9.59429 19.0247 9.59429 18.9394V14.7513C9.59429 14.6659 9.56034 14.5839 9.4999 14.5235C9.43945 14.463 9.35748 14.4291 9.272 14.4291L9.27372 14.4282ZM14.7509 14.4282H18.9397C19.118 14.4282 19.262 14.5731 19.262 14.7505V18.9394C19.262 18.9817 19.2537 19.0236 19.2375 19.0627C19.2213 19.1018 19.1975 19.1373 19.1676 19.1672C19.1377 19.1972 19.1022 19.2209 19.0631 19.2371C19.0239 19.2533 18.982 19.2616 18.9397 19.2616H14.7517C14.7094 19.2616 14.6675 19.2533 14.6284 19.2371C14.5893 19.2209 14.5538 19.1972 14.5238 19.1672C14.4939 19.1373 14.4702 19.1018 14.454 19.0627C14.4378 19.0236 14.4294 18.9817 14.4294 18.9394V14.7513C14.4294 14.5739 14.5743 14.4291 14.7517 14.4291L14.7509 14.4282Z" clip-rule="evenodd"/>
    </g>
    <defs>
        <clipPath id="clip0_9926_9018">
            <rect width="24" height="24" fill="white"/>
        </clipPath>
    </defs>
</svg>
