<svg xmlns="http://www.w3.org/2000/svg" fill="none" viewBox="0 0 24 24">
    <g clip-path="url('#rabby_svg__clip0_9925_8879')">
        <mask id="rabby_svg__mask0_9925_8879" width="24" height="24" x="0" y="0" maskUnits="userSpaceOnUse" style="mask-type:luminance">
            <path fill="#fff" d="M0 4a4 4 0 0 1 4-4h16a4 4 0 0 1 4 4v16a4 4 0 0 1-4 4H4a4 4 0 0 1-4-4V4Z"/>
        </mask>
        <g mask="url('#rabby_svg__mask0_9925_8879')">
            <path fill="#8697FF" d="M24 4a4 4 0 0 0-4-4H4a4 4 0 0 0-4 4v16a4 4 0 0 0 4 4h16a4 4 0 0 0 4-4V4Z"/>
            <path fill="url(#rabby_svg__paint0_linear_9925_8879)" d="M19.32 12.924C19.9 11.626 17.028 8 14.285 6.49c-1.73-1.17-3.532-1.01-3.896-.496-.698.983 1.833 1.834 4.023 2.774.371.16.382.711.097.997-.227.228-.627.28-.886.09-.985-.726-2.617-1.21-4.48-.663-1.365.402-2.52 1.3-3.074 2.646-.085.206-.326.307-.548.313a.94.94 0 0 0 .025 1.88.962.962 0 0 0 .126-.013c.181-.028.364-.05.547-.049 1.978.015 3.07 2.148 1.575 3.443-.308.267-.485.437-.485.617 0 .529 1.455.386 2.002.189 1.613-.582 3.3-1.925 4.47-3.067a5.418 5.418 0 0 1 3.632-1.509c.97-.016 1.678-.208 1.905-.718h.001Z"/>
            <path fill="url(#rabby_svg__paint1_linear_9925_8879)" fill-rule="evenodd" d="M15.33 9.182c.014.006.03.006.042-.001.084-.054.067-.198.04-.314-.068-.286-1.233-1.437-2.328-1.952a7.14 7.14 0 0 0-.876-.346c-1.183-.376-1.419.599-.297 1.129.486.23 1.04.46 1.604.693.62.257 1.25.52 1.815.791Z" clip-rule="evenodd"/>
            <path fill="url(#rabby_svg__paint2_linear_9925_8879)" fill-rule="evenodd" d="M13.018 15.857a.34.34 0 0 0-.121-.588c-.233-.07-.35-.34-.273-.57.234-.688.233-1.518-.085-2.081-.548-.971-1.234-1.488-2.832-1.488-.878 0-3.243.296-3.285 2.27-.006.324.263.573.587.575l2.361.018c.606.004.966.667.6 1.15-.353.465-.141 1.163.424 1.31l.237.062.714.186a.99.99 0 0 0 .855-.171c.28-.217.552-.441.818-.674Z" clip-rule="evenodd"/>
            <path fill="url(#rabby_svg__paint3_linear_9925_8879)" d="M5.87 13.768c.176 1.5 1.028 2.087 2.77 2.261 1.742.174 2.74.058 4.07.179 1.112.1 2.103.667 2.471.471.33-.176.146-.812-.297-1.22a3.244 3.244 0 0 0-.39-.308c-1.054-.708-1.853-2.115-2.61-3.134-.626-.842-1.782-1.222-3.244-1.056-1.527.173-2.991.926-2.77 2.807Z"/>
        </g>
    </g>
    <defs>
        <linearGradient id="rabby_svg__paint0_linear_9925_8879" x1="8.969" x2="19.194" y1="11.775" y2="14.674" gradientUnits="userSpaceOnUse">
            <stop stop-color="#fff"/>
            <stop offset="1" stop-color="#fff"/>
        </linearGradient>
        <linearGradient id="rabby_svg__paint1_linear_9925_8879" x1="17.474" x2="10.096" y1="11.579" y2="4.182" gradientUnits="userSpaceOnUse">
            <stop stop-color="#7258DC"/>
            <stop offset="1" stop-color="#797DEA" stop-opacity="0"/>
        </linearGradient>
        <linearGradient id="rabby_svg__paint2_linear_9925_8879" x1="13.663" x2="6.577" y1="15.717" y2="11.643" gradientUnits="userSpaceOnUse">
            <stop stop-color="#7461EA"/>
            <stop offset="1" stop-color="#BFC2FF" stop-opacity="0"/>
        </linearGradient>
        <linearGradient id="rabby_svg__paint3_linear_9925_8879" x1="9.58" x2="14.37" y1="11.698" y2="17.785" gradientUnits="userSpaceOnUse">
            <stop stop-color="#fff"/>
            <stop offset=".984" stop-color="#D5CEFF"/>
        </linearGradient>
        <clipPath id="rabby_svg__clip0_9925_8879">
            <path fill="#fff" d="M0 0h24v24H0z"/>
        </clipPath>
    </defs>
</svg>
