<svg xmlns="http://www.w3.org/2000/svg" fill="none" viewBox="0 0 24 24">
    <g>
        <path fill="white" d="M20 0H4C1.79086 0 0 1.79086 0 4V20C0 22.2091 1.79086 24 4 24H20C22.2091 24 24 22.2091 24 20V4C24 1.79086 22.2091 0 20 0Z"/>
        <path fill="#004DE5" fill-rule="evenodd" d="M5.77344 4.59534V15.3928C5.77356 15.5944 5.81899 15.7936 5.90638 15.9753C5.99376 16.1571 6.12087 16.3169 6.2783 16.4429L11.3691 20.5289C11.5481 20.6724 11.7707 20.7505 12.0001 20.7505C12.2295 20.7505 12.4521 20.6724 12.6313 20.5289L17.722 16.4429C17.8794 16.3169 18.0065 16.1571 18.0939 15.9753C18.1813 15.7936 18.2267 15.5944 18.2268 15.3928V4.59534C18.2268 4.23828 18.085 3.89583 17.8325 3.64335C17.5801 3.39087 17.2376 3.24902 16.8805 3.24902H7.11975C6.76268 3.24902 6.42024 3.39087 6.16776 3.64335C5.91528 3.89583 5.77344 4.23828 5.77344 4.59534Z" clip-rule="evenodd"/>
        <path fill="white" d="M16.2064 9.3075V6.61487C16.2064 6.25781 16.0646 5.91537 15.8121 5.66288C15.5596 5.4104 15.2172 5.26855 14.8602 5.26855H9.1383C8.78124 5.26855 8.4388 5.4104 8.18632 5.66288C7.93383 5.91537 7.79199 6.25781 7.79199 6.61487V14.4277C7.79212 14.6294 7.83755 14.8284 7.92493 15.0102C8.01232 15.192 8.13942 15.3518 8.29686 15.4779L10.3803 17.1506C10.405 17.1707 10.4349 17.1833 10.4666 17.187C10.4982 17.1908 10.5302 17.1855 10.5589 17.1718C10.5877 17.158 10.6119 17.1364 10.6288 17.1094C10.6458 17.0825 10.6547 17.0512 10.6546 17.0193V11.4953C10.6546 11.4506 10.6723 11.4078 10.7039 11.3763C10.7354 11.3447 10.7782 11.327 10.8229 11.327H12.3375C12.6053 11.327 12.8621 11.4334 13.0514 11.6227C13.2408 11.8121 13.3472 12.0689 13.3472 12.3367V17.0193C13.3473 17.051 13.3562 17.0821 13.3731 17.1089C13.39 17.1358 13.4141 17.1573 13.4426 17.171C13.4712 17.1847 13.5031 17.1901 13.5346 17.1865C13.5661 17.1828 13.596 17.1704 13.6207 17.1506L15.7041 15.4779C15.8615 15.3518 15.9887 15.192 16.0761 15.0102C16.1634 14.8284 16.2089 14.6294 16.2089 14.4277V12.0001C16.2089 11.6431 16.0671 11.3006 15.8146 11.0481C15.5622 10.7957 15.2198 10.6538 14.8627 10.6538C15.2193 10.6531 15.5611 10.511 15.813 10.2586C16.065 10.0062 16.2064 9.66413 16.2064 9.3075ZM12.3358 9.98065H10.8212C10.7766 9.98065 10.7338 9.96293 10.7022 9.93136C10.6706 9.89981 10.6529 9.857 10.6529 9.81237V6.78316C10.6529 6.73853 10.6706 6.69572 10.7022 6.66416C10.7338 6.6326 10.7766 6.61487 10.8212 6.61487H13.1773C13.2219 6.61487 13.2647 6.6326 13.2963 6.66416C13.3278 6.69572 13.3456 6.73853 13.3456 6.78316V8.97092C13.3456 9.23872 13.2391 9.49555 13.0498 9.68491C12.8605 9.87428 12.6036 9.98065 12.3358 9.98065Z"/>
    </g>
</svg>
