<svg fill="none" viewBox="0 0 24 24" xmlns="http://www.w3.org/2000/svg"><rect fill="#fff7f1" height="24" rx="12" width="24"/><path d="m18.807 14.86v-9.436c-.012-.789-.626-1.424-1.397-1.424h-9.61c-2.074.032-3.74 1.771-3.74 3.902 0 .719.188 1.335.476 1.874.244.45.626.873 1.002 1.188.107.09.056.05.382.256.451.282.965.424.965.424l-.006 5.641c.012.27.037.526.106.764a2.492 2.492 0 0 0 1.485 1.7c.307.123.652.206 1.021.212l7.675.026c1.529 0 2.769-1.27 2.769-2.843a2.855 2.855 0 0 0 -1.128-2.285z" fill="#ffeeda"/><path d="m18.995 17.215c-.03 1.007-.839 1.816-1.829 1.816l-5.281-.02c.42-.5.676-1.148.676-1.854 0-1.11-.645-1.874-.645-1.874h5.256c1.01 0 1.83.84 1.83 1.874l-.006.058z" fill="#ebc28e"/><g fill="#101010"><path d="m6.04 10.168c-.608-.59-1.034-1.354-1.034-2.26v-.095c.05-1.547 1.29-2.792 2.8-2.837h9.61c.251.013.452.192.452.456v8.33a2.655 2.655 0 0 1 .939.347v-8.677c-.012-.79-.626-1.425-1.397-1.425h-9.61c-2.074.032-3.74 1.771-3.74 3.902 0 1.239.55 2.298 1.453 3.042.063.051.12.116.282.116a.463.463 0 0 0 .47-.482c-.006-.212-.094-.289-.226-.417z"/><path d="m17.166 14.307h-7.537a.933.933 0 0 0 -.915.944v1.11c.013.514.439.95.946.95h.558v-.95h-.558v-1.085h.307c.952 0 1.654.905 1.654 1.875 0 .86-.764 1.957-2.042 1.867-1.134-.077-1.748-1.11-1.748-1.867v-9.411a.763.763 0 0 0 -.752-.77h-.752v.963h.558v9.223c-.032 1.874 1.303 2.817 2.694 2.817l7.593.026c1.529 0 2.769-1.27 2.769-2.843 0-1.572-1.247-2.85-2.775-2.85zm1.829 2.908c-.031 1.007-.84 1.816-1.83 1.816l-5.28-.02c.419-.5.676-1.148.676-1.854 0-1.11-.646-1.874-.646-1.874h5.257c1.008 0 1.83.84 1.83 1.874zm-3.859-9.107h-5.682v-.963h5.682c.257 0 .47.212.47.481a.475.475 0 0 1 -.47.482z"/><path d="m15.136 12.639h-5.682v-.963h5.682c.257 0 .47.212.47.481a.475.475 0 0 1 -.47.482zm1.003-2.266h-6.685v-.962h6.678c.258 0 .47.211.47.481a.47.47 0 0 1 -.463.481z"/></g></svg>