<svg xmlns="http://www.w3.org/2000/svg" fill="none" viewBox="0 0 24 24">
    <g clip-path="url('#sei_svg__clip0_11006_879')">
        <path fill="url(#sei_svg__paint0_linear_11006_879)" d="M11.945 24c3.418 0 6.503-1.415 8.696-3.689l-.042-.046a2.514 2.514 0 0 0-3.518-.195l-.22.194a5.165 5.165 0 0 1-7.098-.26 2.255 2.255 0 0 0-3.148-.07L4.778 21.65A12.037 12.037 0 0 0 11.945 24Z"/>
        <path fill="url(#sei_svg__paint1_linear_11006_879)" d="M15.158 17.889a5.424 5.424 0 0 1 7.25.076A11.903 11.903 0 0 0 24 12c0-2.503-.77-4.827-2.087-6.75a2.504 2.504 0 0 0-1.664.625l-.22.194a5.165 5.165 0 0 1-7.098-.26 2.255 2.255 0 0 0-3.148-.069L6.977 8.36 4.991 6.239l2.806-2.62a5.165 5.165 0 0 1 7.211.157c.839.854 2.2.904 3.099.114l.22-.194a5.418 5.418 0 0 1 1.373-.883A12.04 12.04 0 0 0 11.945 0C5.962 0 .998 4.338.052 10.027a5.278 5.278 0 0 1 5.843 1.156 2.366 2.366 0 0 0 3.14.211l1.655-1.287a5.424 5.424 0 0 1 6.882.184l3.133 2.717-1.907 2.194-3.132-2.716a2.514 2.514 0 0 0-3.19-.086l-1.654 1.287a5.276 5.276 0 0 1-7.004-.47 2.366 2.366 0 0 0-3.303-.072L0 13.626a11.921 11.921 0 0 0 2.658 6.025l1.97-1.84a5.165 5.165 0 0 1 7.212.158c.838.855 2.2.905 3.098.114l.22-.194Z"/>
    </g>
    <defs>
        <linearGradient id="sei_svg__paint0_linear_11006_879" x1="12" x2="16.718" y1="0" y2="24" gradientUnits="userSpaceOnUse">
            <stop stop-color="#780000"/>
            <stop offset="1" stop-color="#C1121F"/>
        </linearGradient>
        <linearGradient id="sei_svg__paint1_linear_11006_879" x1="12" x2="16.718" y1="0" y2="24" gradientUnits="userSpaceOnUse">
            <stop stop-color="#780000"/>
            <stop offset="1" stop-color="#C1121F"/>
        </linearGradient>
        <clipPath id="sei_svg__clip0_11006_879">
            <path fill="#fff" d="M0 0h24v24H0z"/>
        </clipPath>
    </defs>
</svg>
