<svg xmlns="http://www.w3.org/2000/svg" fill="none" viewBox="0 0 24 24">
    <path fill="#2980FE" d="M23.989 4a4 4 0 0 0-4-4H4a4 4 0 0 0-4 4v16a4 4 0 0 0 4 4h15.989a4 4 0 0 0 4-4V4Z"/>
    <path fill="#29AEFF" d="M9.767 10.308h.01c-.01-.027-.01-.058-.01-.086v.086Z"/>
    <path fill="#fff" d="M15.595 10.864h-3.241v6.107a.51.51 0 0 0 .5.522h2.24a.512.512 0 0 0 .5-.522v-6.107Zm-4.806-4.372H4.877a.51.51 0 0 0-.499.523v2.117c0 .289.223.523.5.523H6.78v7.331a.51.51 0 0 0 .5.522h2.128a.511.511 0 0 0 .5-.523v-7.33h.871c.835 0 1.515-.709 1.515-1.58.008-.872-.67-1.583-1.506-1.583Z"/>
    <path fill="url(#tokenpocket_svg__paint0_linear_9928_9047)" d="M15.598 10.863v4.262a4 4 0 0 0 .85.11h.03v-3.389c-.492-.034-.88-.46-.88-.982Z"/>
    <path fill="#fff" d="M16.54 6.492c-2.31 0-4.186 1.959-4.186 4.372 0 2.076 1.385 3.814 3.243 4.261v-4.26c0-.544.423-.986.944-.986.52 0 .944.442.944.986 0 .456-.297.84-.703.95a.912.912 0 0 1-.241.035v3.386c.082 0 .162-.003.241-.006 2.2-.132 3.947-2.036 3.947-4.366.003-2.413-1.873-4.372-4.188-4.372Z"/>
    <path fill="#fff" d="M16.56 15.236V11.85c-.03 0-.056 0-.085-.003v3.389h.085Z"/>
    <defs>
        <linearGradient id="tokenpocket_svg__paint0_linear_9928_9047" x1="110.146" x2="15.638" y1="229.543" y2="229.543" gradientUnits="userSpaceOnUse">
            <stop stop-color="#fff"/>
            <stop offset=".967" stop-color="#fff" stop-opacity=".323"/>
            <stop offset="1" stop-color="#fff" stop-opacity=".3"/>
        </linearGradient>
    </defs>
</svg>
