<svg xmlns="http://www.w3.org/2000/svg" fill="none" viewBox="0 0 24 24">
    <g clip-path="url('#trust_svg__clip0_9925_8878')">
        <path fill="#fff" d="M0 4a4 4 0 0 1 4-4h16a4 4 0 0 1 4 4v16a4 4 0 0 1-4 4H4a4 4 0 0 1-4-4V4Z"/>
        <path fill="#0500FF" d="M4 5.6 12.1 3v18C6.314 18.6 4 14 4 11.4V5.6Z"/>
        <path fill="url(#trust_svg__paint0_linear_9925_8878)" d="M20.2 5.6 12.1 3v18c5.785-2.4 8.1-7 8.1-9.6V5.6Z"/>
        <path fill="url(#trust_svg__paint1_linear_9925_8878)" d="M20.2 5.6 12.1 3v18c5.785-2.4 8.1-7 8.1-9.6V5.6Z"/>
    </g>
    <defs>
        <linearGradient id="trust_svg__paint0_linear_9925_8878" x1="11.758" x2="18.236" y1="23.262" y2="-.463" gradientUnits="userSpaceOnUse">
            <stop offset=".26" stop-color="#48FF91"/>
            <stop offset=".66" stop-color="#0094FF"/>
            <stop offset=".8" stop-color="#0038FF"/>
            <stop offset=".89" stop-color="#0500FF"/>
        </linearGradient>
        <linearGradient id="trust_svg__paint1_linear_9925_8878" x1="17.897" x2="11.915" y1="1.96" y2="21.017" gradientUnits="userSpaceOnUse">
            <stop offset=".02" stop-color="#00F"/>
            <stop offset=".08" stop-color="#0094FF"/>
            <stop offset=".16" stop-color="#48FF91"/>
            <stop offset=".42" stop-color="#0094FF"/>
            <stop offset=".68" stop-color="#0038FF"/>
            <stop offset=".9" stop-color="#0500FF"/>
        </linearGradient>
        <clipPath id="trust_svg__clip0_9925_8878">
            <path fill="#fff" d="M0 0h24v24H0z"/>
        </clipPath>
    </defs>
</svg>
