<svg width="24" height="24" viewBox="0 0 24 24" fill="none" xmlns="http://www.w3.org/2000/svg">
    <rect x="3" y="3" width="18" height="18" rx="6" fill="white"/>
    <path d="M14.8705 13.7376H13.9731C12.8973 13.7376 12.0225 12.8628 12.0225 11.787C12.0225 10.7111 12.8973 9.83606 13.9734 9.83606C15.0496 9.83606 15.924 10.7108 15.924 11.7867V13.6985H15.1438V11.7867C15.1438 11.14 14.6201 10.6163 13.9734 10.6163C13.3267 10.6163 12.8031 11.14 12.8031 11.7867C12.8031 12.4334 13.3267 12.957 13.9734 12.957H14.8708V13.7373L14.8705 13.7376Z" fill="black"/>
    <path d="M10.462 13.6985H9.68176V11.7867C9.68176 10.7108 10.5565 9.83606 11.6324 9.83606V10.6163C10.9857 10.6163 10.462 11.14 10.462 11.7867V13.6985Z" fill="black"/>
    <path d="M6.95061 13.7376C5.87473 13.7376 5 12.8628 5 11.787C5 10.7111 5.87473 9.83606 6.95061 9.83606C8.02649 9.83606 8.90123 10.7108 8.90123 11.7867V12.1768H6.65781V11.3966H8.05308C7.89098 10.9416 7.45871 10.6163 6.95146 10.6163C6.30475 10.6163 5.78109 11.14 5.78109 11.7867C5.78109 12.4334 6.30475 12.957 6.95146 12.957C7.34158 12.957 7.70596 12.7618 7.9238 12.4365L8.57051 12.8719C8.20925 13.4119 7.6044 13.7373 6.95033 13.7373L6.95061 13.7376Z" fill="black"/>
    <path d="M19.0001 10.6163H17.0944V13.6985H19.0001V10.6163Z" fill="black"/>
</svg>
