<svg fill="none" viewBox="0 0 24 24" xmlns="http://www.w3.org/2000/svg" xmlns:xlink="http://www.w3.org/1999/xlink"><linearGradient id="a" gradientUnits="userSpaceOnUse" x1="19.788" x2="6.276" y1="1.754" y2="24.086"><stop offset="0" stop-color="#ffa8d7"/><stop offset=".51" stop-color="#ef9feb"/><stop offset="1" stop-color="#b8fbff"/></linearGradient><linearGradient id="b" gradientUnits="userSpaceOnUse" x1="2.484" x2="10.728" y1="21.662" y2="13.826"><stop offset="0" stop-color="#fca08c"/><stop offset=".964" stop-color="#fb9f88" stop-opacity="0"/></linearGradient><linearGradient id="c" gradientUnits="userSpaceOnUse" x1="22.272" x2="17.052" y1="18.494" y2="12.998"><stop offset="0" stop-color="#bdccff"/><stop offset=".964" stop-color="#bdccff" stop-opacity="0"/></linearGradient><linearGradient id="d" gradientUnits="userSpaceOnUse" x1="20.904" x2="13.812" y1="2.966" y2="10.154"><stop offset="0" stop-color="#fd7279"/><stop offset="1" stop-color="#f49494" stop-opacity="0"/></linearGradient><linearGradient id="e" gradientUnits="userSpaceOnUse" x1="3.096" x2="12.024" y1="1.106" y2="8.318"><stop offset="0" stop-color="#ffec96"/><stop offset=".509" stop-color="#fad795" stop-opacity=".509"/><stop offset="1" stop-color="#f4c294" stop-opacity="0"/></linearGradient><clipPath id="f"><path d="m0 0h24v24h-24z" transform="translate(0 .086)"/></clipPath><g clip-path="url(#f)"><path d="m24 .086h-24v24h24v-24z" fill="#fff"/><path d="m24.012.086h-24v24h24v-24z" fill="url(#a)"/><path d="m24.012.086h-24v24h24v-24z" fill="url(#b)"/><path d="m24.012.086h-24v24h24v-24z" fill="url(#c)"/><path d="m24.012.086h-24v24h24v-24z" fill="url(#d)"/><path d="m24.012.086h-24v24h24v-24z" fill="url(#e)"/></g></svg>