<svg fill="none" viewBox="0 0 24 24" xmlns="http://www.w3.org/2000/svg" xmlns:xlink="http://www.w3.org/1999/xlink"><linearGradient id="a" gradientUnits="userSpaceOnUse" x1="19.788" x2="6.276" y1="1.754" y2="24.086"><stop offset="0" stop-color="#fbd3c6"/><stop offset=".51" stop-color="#f2f8f2"/><stop offset="1" stop-color="#c4fdf5"/></linearGradient><linearGradient id="b" gradientUnits="userSpaceOnUse" x1="2.484" x2="10.728" y1="21.662" y2="13.826"><stop offset="0" stop-color="#8df9f9"/><stop offset=".964" stop-color="#8df9f9" stop-opacity="0"/></linearGradient><linearGradient id="c" gradientUnits="userSpaceOnUse" x1="24.948" x2="18.528" y1="17.246" y2="8.81"><stop offset="0" stop-color="#fcecde" stop-opacity=".9"/><stop offset="1" stop-color="#fcecde" stop-opacity="0"/></linearGradient><linearGradient id="d" gradientUnits="userSpaceOnUse" x1="20.904" x2="13.812" y1="2.966" y2="10.154"><stop offset="0" stop-color="#ff7774"/><stop offset="1" stop-color="#ff7774" stop-opacity="0"/></linearGradient><linearGradient id="e" gradientUnits="userSpaceOnUse" x1="3.096" x2="12.024" y1="1.106" y2="8.318"><stop offset="0" stop-color="#ffcb8f"/><stop offset="1" stop-color="#ffcb8f" stop-opacity="0"/></linearGradient><clipPath id="f"><path d="m0 0h24v24h-24z" transform="translate(0 .086)"/></clipPath><g clip-path="url(#f)"><path d="m24 .086h-24v24h24v-24z" fill="#fff"/><path d="m24.012.086h-24v24h24v-24z" fill="url(#a)"/><path d="m24.012.086h-24v24h24v-24z" fill="url(#b)"/><path d="m24.012.086h-24v24h24v-24z" fill="url(#c)"/><path d="m24.012.086h-24v24h24v-24z" fill="url(#d)"/><path d="m24.012.086h-24v24h24v-24z" fill="url(#e)"/></g></svg>