<svg xmlns="http://www.w3.org/2000/svg" fill="none" viewBox="0 0 24 24">
    <g clip-path="url(#Aura4_svg__a)">
        <path fill="#fff" d="M24 .086H0v24h24v-24Z"/>
        <path fill="url(#Aura4_svg__b)" d="M24.012.086h-24v24h24v-24Z"/>
        <path fill="url(#Aura4_svg__c)" d="M24.012.086h-24v24h24v-24Z"/>
        <path fill="url(#Aura4_svg__d)" d="M24.012.086h-24v24h24v-24Z"/>
        <path fill="url(#Aura4_svg__e)" d="M24.012.086h-24v24h24v-24Z"/>
        <path fill="url(#Aura4_svg__f)" d="M24.012.086h-24v24h24v-24Z"/>
    </g>
    <defs>
        <linearGradient id="Aura4_svg__b" x1="19.788" x2="6.276" y1="1.754" y2="24.086" gradientUnits="userSpaceOnUse">
            <stop stop-color="#FFA8D7"/>
            <stop offset=".51" stop-color="#EF9FEB"/>
            <stop offset="1" stop-color="#B8FBFF"/>
        </linearGradient>
        <linearGradient id="Aura4_svg__c" x1="2.484" x2="10.728" y1="21.662" y2="13.826" gradientUnits="userSpaceOnUse">
            <stop stop-color="#FCA08C"/>
            <stop offset=".964" stop-color="#FB9F88" stop-opacity="0"/>
        </linearGradient>
        <linearGradient id="Aura4_svg__d" x1="22.272" x2="17.052" y1="18.494" y2="12.998" gradientUnits="userSpaceOnUse">
            <stop stop-color="#BDCCFF"/>
            <stop offset=".964" stop-color="#BDCCFF" stop-opacity="0"/>
        </linearGradient>
        <linearGradient id="Aura4_svg__e" x1="20.904" x2="13.812" y1="2.966" y2="10.154" gradientUnits="userSpaceOnUse">
            <stop stop-color="#FD7279"/>
            <stop offset="1" stop-color="#F49494" stop-opacity="0"/>
        </linearGradient>
        <linearGradient id="Aura4_svg__f" x1="3.096" x2="12.024" y1="1.106" y2="8.318" gradientUnits="userSpaceOnUse">
            <stop stop-color="#FFEC96"/>
            <stop offset=".509" stop-color="#FAD795" stop-opacity=".509"/>
            <stop offset="1" stop-color="#F4C294" stop-opacity="0"/>
        </linearGradient>
        <clipPath id="Aura4_svg__a">
            <path fill="#fff" d="M0 0h24v24H0z" transform="translate(0 .086)"/>
        </clipPath>
    </defs>
</svg>
