<svg xmlns="http://www.w3.org/2000/svg" fill="none" viewBox="0 0 24 24">
    <g clip-path="url(#Aura11_svg__a)">
        <path fill="#fff" d="M.006.087v24h24v-24h-24Z"/>
        <path fill="url(#Aura11_svg__b)" d="M.006.087v24h24v-24h-24Z"/>
        <path fill="url(#Aura11_svg__c)" d="M.006.087v24h24v-24h-24Z"/>
        <path fill="url(#Aura11_svg__d)" d="M.006.087v24h24v-24h-24Z"/>
        <path fill="url(#Aura11_svg__e)" d="M.006.087v24h24v-24h-24Z"/>
        <path fill="url(#Aura11_svg__f)" d="M.006.087v24h24v-24h-24Z"/>
    </g>
    <defs>
        <linearGradient id="Aura11_svg__b" x1="1.674" x2="24.006" y1="4.311" y2="17.823" gradientUnits="userSpaceOnUse">
            <stop stop-color="#C6FBEE"/>
            <stop offset=".51" stop-color="#F2F8F2"/>
            <stop offset="1" stop-color="#C4FDF5"/>
        </linearGradient>
        <linearGradient id="Aura11_svg__c" x1="21.582" x2="13.746" y1="21.615" y2="13.371" gradientUnits="userSpaceOnUse">
            <stop stop-color="#8DCCF9"/>
            <stop offset=".964" stop-color="#8DF9F9" stop-opacity="0"/>
        </linearGradient>
        <linearGradient id="Aura11_svg__d" x1="17.166" x2="8.73" y1="-.849" y2="5.571" gradientUnits="userSpaceOnUse">
            <stop stop-color="#FADEFC" stop-opacity=".9"/>
            <stop offset="1" stop-color="#DEF5FC" stop-opacity="0"/>
        </linearGradient>
        <linearGradient id="Aura11_svg__e" x1="2.886" x2="10.074" y1="3.195" y2="10.287" gradientUnits="userSpaceOnUse">
            <stop stop-color="#7F74FF"/>
            <stop offset="1" stop-color="#AEA7FF" stop-opacity="0"/>
        </linearGradient>
        <linearGradient id="Aura11_svg__f" x1="1.026" x2="8.238" y1="21.003" y2="12.075" gradientUnits="userSpaceOnUse">
            <stop stop-color="#ACFF8F"/>
            <stop offset="1" stop-color="#FFCB8F" stop-opacity="0"/>
        </linearGradient>
        <clipPath id="Aura11_svg__a">
            <path fill="#fff" d="M0 0h24v24H0z" transform="translate(0 .086)"/>
        </clipPath>
    </defs>
</svg>
