<svg xmlns="http://www.w3.org/2000/svg" fill="none" viewBox="0 0 24 24">
    <g clip-path="url(#Aura2_svg__a)">
        <path fill="#fff" d="M24 .086H0v24h24v-24Z"/>
        <path fill="url(#Aura2_svg__b)" d="M24.012.086h-24v24h24v-24Z"/>
        <path fill="url(#Aura2_svg__c)" d="M24.012.086h-24v24h24v-24Z"/>
        <path fill="url(#Aura2_svg__d)" d="M24.012.086h-24v24h24v-24Z"/>
        <path fill="url(#Aura2_svg__e)" d="M24.012.086h-24v24h24v-24Z"/>
        <path fill="url(#Aura2_svg__f)" d="M24.012.086h-24v24h24v-24Z"/>
    </g>
    <defs>
        <linearGradient id="Aura2_svg__b" x1="19.788" x2="6.276" y1="1.754" y2="24.086" gradientUnits="userSpaceOnUse">
            <stop stop-color="#FBD3C6"/>
            <stop offset=".51" stop-color="#F5CDFF"/>
            <stop offset="1" stop-color="#F69CA2"/>
        </linearGradient>
        <linearGradient id="Aura2_svg__c" x1="2.484" x2="10.728" y1="21.662" y2="13.826" gradientUnits="userSpaceOnUse">
            <stop stop-color="#F98D8D"/>
            <stop offset=".964" stop-color="#F98D8D" stop-opacity="0"/>
        </linearGradient>
        <linearGradient id="Aura2_svg__d" x1="24.948" x2="18.528" y1="17.246" y2="8.81" gradientUnits="userSpaceOnUse">
            <stop stop-color="#FFCEA2" stop-opacity=".9"/>
            <stop offset="1" stop-color="#FFCEA1" stop-opacity="0"/>
        </linearGradient>
        <linearGradient id="Aura2_svg__e" x1="20.904" x2="13.812" y1="2.966" y2="10.154" gradientUnits="userSpaceOnUse">
            <stop stop-color="#A7FFFA"/>
            <stop offset="1" stop-color="#A7FFFA" stop-opacity="0"/>
        </linearGradient>
        <linearGradient id="Aura2_svg__f" x1="3.096" x2="12.024" y1="1.106" y2="8.318" gradientUnits="userSpaceOnUse">
            <stop stop-color="#FFED8F"/>
            <stop offset="1" stop-color="#FFED8F" stop-opacity="0"/>
        </linearGradient>
        <clipPath id="Aura2_svg__a">
            <path fill="#fff" d="M0 0h24v24H0z" transform="translate(0 .086)"/>
        </clipPath>
    </defs>
</svg>
