<svg fill="none" viewBox="0 0 24 24" xmlns="http://www.w3.org/2000/svg" xmlns:xlink="http://www.w3.org/1999/xlink"><linearGradient id="a" gradientUnits="userSpaceOnUse" x1="1.674" x2="24.006" y1="4.311" y2="17.823"><stop offset="0" stop-color="#c6fbee"/><stop offset=".51" stop-color="#f2f8f2"/><stop offset="1" stop-color="#c4fdf5"/></linearGradient><linearGradient id="b" gradientUnits="userSpaceOnUse" x1="21.582" x2="13.746" y1="21.615" y2="13.371"><stop offset="0" stop-color="#8dccf9"/><stop offset=".964" stop-color="#8df9f9" stop-opacity="0"/></linearGradient><linearGradient id="c" gradientUnits="userSpaceOnUse" x1="17.166" x2="8.73" y1="-.849" y2="5.571"><stop offset="0" stop-color="#fadefc" stop-opacity=".9"/><stop offset="1" stop-color="#def5fc" stop-opacity="0"/></linearGradient><linearGradient id="d" gradientUnits="userSpaceOnUse" x1="2.886" x2="10.074" y1="3.195" y2="10.287"><stop offset="0" stop-color="#7f74ff"/><stop offset="1" stop-color="#aea7ff" stop-opacity="0"/></linearGradient><linearGradient id="e" gradientUnits="userSpaceOnUse" x1="1.026" x2="8.238" y1="21.003" y2="12.075"><stop offset="0" stop-color="#acff8f"/><stop offset="1" stop-color="#ffcb8f" stop-opacity="0"/></linearGradient><clipPath id="f"><path d="m0 0h24v24h-24z" transform="translate(0 .086)"/></clipPath><g clip-path="url(#f)"><path d="m.006.087v24h24v-24h-24z" fill="#fff"/><path d="m.006.087v24h24v-24h-24z" fill="url(#a)"/><path d="m.006.087v24h24v-24h-24z" fill="url(#b)"/><path d="m.006.087v24h24v-24h-24z" fill="url(#c)"/><path d="m.006.087v24h24v-24h-24z" fill="url(#d)"/><path d="m.006.087v24h24v-24h-24z" fill="url(#e)"/></g></svg>