<svg xmlns="http://www.w3.org/2000/svg" fill="none" viewBox="0 0 24 24">
    <g clip-path="url(#Aura1_svg__a)">
        <path fill="#fff" d="M24 .086H0v24h24v-24Z"/>
        <path fill="url(#Aura1_svg__b)" d="M24.012.086h-24v24h24v-24Z"/>
        <path fill="url(#Aura1_svg__c)" d="M24.012.086h-24v24h24v-24Z"/>
        <path fill="url(#Aura1_svg__d)" d="M24.012.086h-24v24h24v-24Z"/>
        <path fill="url(#Aura1_svg__e)" d="M24.012.086h-24v24h24v-24Z"/>
        <path fill="url(#Aura1_svg__f)" d="M24.012.086h-24v24h24v-24Z"/>
    </g>
    <defs>
        <linearGradient id="Aura1_svg__b" x1="19.788" x2="6.276" y1="1.754" y2="24.086" gradientUnits="userSpaceOnUse">
            <stop stop-color="#6DFDDD"/>
            <stop offset=".51" stop-color="#8DF4DA"/>
            <stop offset="1" stop-color="#7CC7F1"/>
        </linearGradient>
        <linearGradient id="Aura1_svg__c" x1="1.812" x2="10.728" y1="20.45" y2="13.826" gradientUnits="userSpaceOnUse">
            <stop stop-color="#7CB6FC"/>
            <stop offset=".964" stop-color="#7CB6FC" stop-opacity="0"/>
        </linearGradient>
        <linearGradient id="Aura1_svg__d" x1="22.272" x2="16.548" y1="18.494" y2="11.234" gradientUnits="userSpaceOnUse">
            <stop stop-color="#C6FFFB"/>
            <stop offset=".964" stop-color="#BAFFFA" stop-opacity="0"/>
        </linearGradient>
        <linearGradient id="Aura1_svg__e" x1="20.904" x2="13.812" y1="2.966" y2="10.154" gradientUnits="userSpaceOnUse">
            <stop stop-color="#7EFEDF"/>
            <stop offset="1" stop-color="#7BFFE1" stop-opacity="0"/>
        </linearGradient>
        <linearGradient id="Aura1_svg__f" x1="3.096" x2="12.024" y1="1.106" y2="8.318" gradientUnits="userSpaceOnUse">
            <stop stop-color="#91E5FF"/>
            <stop offset="1" stop-color="#91E5FF" stop-opacity="0"/>
        </linearGradient>
        <clipPath id="Aura1_svg__a">
            <path fill="#fff" d="M0 0h24v24H0z" transform="translate(0 .086)"/>
        </clipPath>
    </defs>
</svg>
