<svg xmlns="http://www.w3.org/2000/svg" fill="none" viewBox="0 0 24 24">
    <g clip-path="url(#Aura6_svg__a)">
        <path fill="#fff" d="M24 .086H0v24h24v-24Z"/>
        <path fill="url(#Aura6_svg__b)" d="M24.012.086h-24v24h24v-24Z"/>
        <path fill="url(#Aura6_svg__c)" d="M24.012.086h-24v24h24v-24Z"/>
        <path fill="url(#Aura6_svg__d)" d="M24.012.086h-24v24h24v-24Z"/>
        <path fill="url(#Aura6_svg__e)" d="M24.012.086h-24v24h24v-24Z"/>
        <path fill="url(#Aura6_svg__f)" d="M24.012.086h-24v24h24v-24Z"/>
    </g>
    <defs>
        <linearGradient id="Aura6_svg__b" x1="19.788" x2="6.276" y1="1.754" y2="24.086" gradientUnits="userSpaceOnUse">
            <stop stop-color="#E495FF"/>
            <stop offset=".51" stop-color="#EBABFF"/>
            <stop offset="1" stop-color="#BFA1FF"/>
        </linearGradient>
        <linearGradient id="Aura6_svg__c" x1="2.484" x2="10.728" y1="21.662" y2="13.826" gradientUnits="userSpaceOnUse">
            <stop stop-color="#8C9BFF"/>
            <stop offset=".964" stop-color="#8C9BFF" stop-opacity="0"/>
        </linearGradient>
        <linearGradient id="Aura6_svg__d" x1="25.02" x2="19.404" y1="17.21" y2="10.442" gradientUnits="userSpaceOnUse">
            <stop stop-color="#DFFEFE" stop-opacity=".9"/>
            <stop offset="1" stop-color="#DFFEFE" stop-opacity="0"/>
        </linearGradient>
        <linearGradient id="Aura6_svg__e" x1="20.904" x2="13.812" y1="2.966" y2="10.154" gradientUnits="userSpaceOnUse">
            <stop stop-color="#E167FF"/>
            <stop offset="1" stop-color="#E167FF" stop-opacity="0"/>
        </linearGradient>
        <linearGradient id="Aura6_svg__f" x1="3.096" x2="12.024" y1="1.106" y2="8.318" gradientUnits="userSpaceOnUse">
            <stop stop-color="#F08DFF"/>
            <stop offset="1" stop-color="#F08DFF" stop-opacity="0"/>
        </linearGradient>
        <clipPath id="Aura6_svg__a">
            <path fill="#fff" d="M0 0h24v24H0z" transform="translate(0 .086)"/>
        </clipPath>
    </defs>
</svg>
