<svg fill="none" viewBox="0 0 24 24" xmlns="http://www.w3.org/2000/svg" xmlns:xlink="http://www.w3.org/1999/xlink"><linearGradient id="a" gradientUnits="userSpaceOnUse" x1="19.788" x2="6.276" y1="1.754" y2="24.086"><stop offset="0" stop-color="#6dfddd"/><stop offset=".51" stop-color="#8df4da"/><stop offset="1" stop-color="#7cc7f1"/></linearGradient><linearGradient id="b" gradientUnits="userSpaceOnUse" x1="1.812" x2="10.728" y1="20.45" y2="13.826"><stop offset="0" stop-color="#7cb6fc"/><stop offset=".964" stop-color="#7cb6fc" stop-opacity="0"/></linearGradient><linearGradient id="c" gradientUnits="userSpaceOnUse" x1="22.272" x2="16.548" y1="18.494" y2="11.234"><stop offset="0" stop-color="#c6fffb"/><stop offset=".964" stop-color="#bafffa" stop-opacity="0"/></linearGradient><linearGradient id="d" gradientUnits="userSpaceOnUse" x1="20.904" x2="13.812" y1="2.966" y2="10.154"><stop offset="0" stop-color="#7efedf"/><stop offset="1" stop-color="#7bffe1" stop-opacity="0"/></linearGradient><linearGradient id="e" gradientUnits="userSpaceOnUse" x1="3.096" x2="12.024" y1="1.106" y2="8.318"><stop offset="0" stop-color="#91e5ff"/><stop offset="1" stop-color="#91e5ff" stop-opacity="0"/></linearGradient><clipPath id="f"><path d="m0 0h24v24h-24z" transform="translate(0 .086)"/></clipPath><g clip-path="url(#f)"><path d="m24 .086h-24v24h24v-24z" fill="#fff"/><path d="m24.012.086h-24v24h24v-24z" fill="url(#a)"/><path d="m24.012.086h-24v24h24v-24z" fill="url(#b)"/><path d="m24.012.086h-24v24h24v-24z" fill="url(#c)"/><path d="m24.012.086h-24v24h24v-24z" fill="url(#d)"/><path d="m24.012.086h-24v24h24v-24z" fill="url(#e)"/></g></svg>