<svg xmlns="http://www.w3.org/2000/svg" width="27" height="26" viewBox="0 0 27 26">
    <path fill="#EFF3F4" d="M2.13086 14.2392V24.498V14.2392ZM21.925 2.17517H4.84842C3.34778 2.17517 2.13086 3.39209 2.13086 4.89273V21.1076C2.13086 22.6082 3.34778 23.8252 4.84842 23.8252H21.925C23.4257 23.8252 24.6426 22.6082 24.6426 21.1076V4.89273C24.6426 3.39182 23.4257 2.17517 21.925 2.17517ZM22.7403 21.1076C22.7403 21.5571 22.3745 21.9229 21.925 21.9229H4.84842C4.39894 21.9229 4.03315 21.5571 4.03315 21.1076V4.89273C4.03315 4.44325 4.39894 4.07746 4.84842 4.07746H21.925C22.3745 4.07746 22.7403 4.44325 22.7403 4.89273V21.1076Z"/>
    <path fill="#EFF3F4" d="M22.7403 15.8696H17.5242C15.942 15.8696 14.6547 14.5823 14.6547 12.9998C14.6547 11.4174 15.9418 10.1304 17.5242 10.1304H22.7403V8.22806H17.5242C14.889 8.22806 12.7524 10.3643 12.7524 12.9998C12.7524 15.6353 14.8887 17.7719 17.5242 17.7719H22.7403V15.8696Z"/>
    <path fill="#EFF3F4" d="M17.7461 13.0002C17.7461 13.2524 17.8463 13.4943 18.0247 13.6727C18.2031 13.8511 18.445 13.9513 18.6972 13.9513C18.9495 13.9513 19.1914 13.8511 19.3698 13.6727C19.5482 13.4943 19.6484 13.2524 19.6484 13.0002C19.6484 12.7479 19.5482 12.506 19.3698 12.3276C19.1914 12.1492 18.9495 12.049 18.6972 12.049C18.445 12.049 18.2031 12.1492 18.0247 12.3276C17.8463 12.506 17.7461 12.7479 17.7461 13.0002Z"/>
</svg>

