<svg xmlns="http://www.w3.org/2000/svg" viewBox="0 0 27 26">
    <path fill="#EFF3F4" d="M2.13 14.24v10.258-10.259ZM21.926 2.174H4.848a2.718 2.718 0 0 0-2.717 2.718v16.215c0 1.5 1.217 2.717 2.717 2.717h17.077c1.5 0 2.718-1.217 2.718-2.717V4.893a2.718 2.718 0 0 0-2.718-2.718Zm.815 18.933c0 .45-.365.815-.815.815H4.848a.816.816 0 0 1-.815-.815V4.893c0-.45.366-.816.815-.816h17.077c.45 0 .815.366.815.816v16.215Z"/>
    <path fill="#EFF3F4" d="M22.74 15.87h-5.216a2.873 2.873 0 0 1-2.87-2.87 2.872 2.872 0 0 1 2.87-2.87h5.216V8.228h-5.216a4.772 4.772 0 0 0 0 9.544h5.216V15.87Z"/>
    <path fill="#EFF3F4" d="M17.746 13a.951.951 0 1 0 1.902 0 .951.951 0 0 0-1.902 0Z"/>
</svg>
