<svg xmlns="http://www.w3.org/2000/svg" viewBox="0 0 70 79">
    <path fill="url(#Airdrop_svg__a)" d="m35.523 70.684-12.818-1.13 4.489-11.115 12.817 1.13-4.488 11.115z"/>
    <path fill="url(#Airdrop_svg__b)" d="m12.627 61.571 10.058 7.966 4.488-11.116-10.058-7.965-4.488 11.115z"/>
    <g clip-path="url('#Airdrop_svg__c')">
        <path fill="#E1EAFF" d="M18.502 63.207c.95.86 2.31.322 3.039-1.202.728-1.523.55-3.455-.4-4.314-.95-.86-2.311-.322-3.04 1.201-.729 1.524-.549 3.456.401 4.315z"/>
        <path fill="#4081FF" fill-rule="evenodd" d="m21.184 60.71-.438.916-1.741-1.575-.075-.068c-.186.628-.07 1.328.306 1.668.31.282.715.241 1.041-.055l.337.306-.368.77c-.086.181-.251.245-.366.14L18.207 61.3c-.115-.104-.138-.337-.051-.519l.938-1.96 2.09 1.89zm-1.107.704c-.233.155-.499.155-.71-.036-.212-.19-.318-.527-.306-.883l1.016.92zm-.489-1.834c-.164-.148-.39-.08-.532.149l.178.16c.065-.077.156-.095.223-.034.067.06.09.181.065.295l.178.161c.095-.269.052-.582-.112-.73zm.894.81c-.164-.149-.391-.08-.532.148l.178.161c.065-.078.155-.096.223-.035.067.06.09.181.065.295l.177.161c.096-.27.052-.583-.111-.73zm.975-.877c.116.105.138.337.052.52l-.193.402-2.09-1.89.193-.403c.087-.182.252-.246.367-.141l1.671 1.512z" clip-rule="evenodd"/>
    </g>
    <path fill="#6F9CF5" d="m19.678 55.867.635-.166.377.968.889-.094.411 1.123 1.03-2.553-2.312-1.83-1.03 2.552z"/>
    <path fill="#64ACFF" d="M29.933 51.6 17.1 50.463l10.074 7.98 12.833 1.136L29.933 51.6z"/>
    <path fill="url(#Airdrop_svg__d)" d="M15.085 23.35s7.58 2.652 7.6 8.526c0 0 11.926-2.642 22.271 8.862 0 0 5.713-4.768 15.328.622l-1.685-7.621-21.316-10.88-14.076-5.6-8.122 6.091z"/>
    <path fill="#538DFF" d="m23.005 55.144 12.834 1.137-2.298-1.824-12.834-1.136 2.298 1.823z"/>
    <path fill="#538DFF" d="m31.969 58.892-10.074-7.98 2.93.258L34.9 59.15l-2.93-.258z"/>
    <path fill="#F0F2F6" d="M33.718 30.023c3.128-.574 6.653-.308 10.114.947 3.465 1.255 6.335 3.308 8.355 5.75.36.108.72.228 1.08.358 2.752.997 5.127 2.497 7 4.295l.125-.3c5.035-12.477-1.003-26.619-13.488-31.586-12.484-4.967-26.686 1.122-31.72 13.6-.038.093-.073.187-.11.28 3.173-.618 6.765-.367 10.293.912 3.464 1.255 6.331 3.305 8.35 5.744z"/>
    <path fill="#553DC4" d="m28.345 55.07 31.908-13.715-.04-.093-31.544 13.559 23.515-18.124-.061-.082L29.72 53.881l15.224-13.16-.067-.077L28.4 54.888l5.334-24.918-.1-.021-5.32 24.848-5.621-22.985-.1.024 5.52 22.569L15.09 23.284l-.095.04L28.264 55.03l-.025.12.047-.037.001.005.058-.049z" opacity=".56"/>
    <path fill="#fff" d="M28.409 55.096 60.317 41.38l-.04-.092-31.545 13.558 23.516-18.124-.062-.081-22.402 17.265 15.224-13.16-.067-.077-16.478 14.244 5.335-24.918-.1-.02-5.32 24.847-5.622-22.985-.099.025 5.52 22.568-13.023-31.121-.094.04 13.268 31.707-.026.12.048-.037.001.005.058-.048z"/>
    <path fill="#F9ECD7" d="m17.1 50.456 2.541 1.968 2.531 1.98 2.525 1.988 2.523 1.99-.038-.014 3.208.29 3.208.295 3.207.305 3.206.319-3.212-.249-3.21-.264-3.21-.275-3.21-.277-.022-.002-.017-.013-2.514-2.002-2.513-2.004-2.506-2.011-2.497-2.024z"/>
    <path fill="#5180DC" d="m33.872 61.704-.344-.556-.946.442-.577-.677-1.079.53 1.03-2.552 2.946.261-1.03 2.552z"/>
    <path fill="url(#Airdrop_svg__e)" d="m60.272 41.374.125-.3c5.033-12.47-1.002-26.602-13.48-31.566 0 0 12.577 8.503 5.278 27.215.36.108.72.227 1.08.358 2.751.997 5.125 2.496 6.997 4.293z"/>
    <path fill="url(#Airdrop_svg__f)" d="M46.89 9.482C34.414 4.52 20.219 10.603 15.186 23.073c-.038.093-.072.187-.109.28 3.171-.617 6.761-.367 10.288.911 3.46 1.254 6.326 3.303 8.345 5.74 4.737-16.79 13.18-20.522 13.18-20.522z"/>
    <path fill="url(#Airdrop_svg__g)" d="M46.91 9.503s-8.443 3.732-13.18 20.52c3.126-.574 6.649-.308 10.108.945 3.463 1.255 6.33 3.306 8.35 5.746 7.297-18.709-5.279-27.211-5.279-27.211z"/>
    <defs>
        <linearGradient id="Airdrop_svg__a" x1="37.636" x2="25.459" y1="65.271" y2="62.971" gradientUnits="userSpaceOnUse">
            <stop stop-color="#7FABFF"/>
            <stop offset="1" stop-color="#4780EF"/>
        </linearGradient>
        <linearGradient id="Airdrop_svg__b" x1="14.488" x2="24.65" y1="55.309" y2="63.776" gradientUnits="userSpaceOnUse">
            <stop stop-color="#A3D5FA"/>
            <stop offset="1" stop-color="#A3C2FF"/>
        </linearGradient>
        <linearGradient id="Airdrop_svg__d" x1="38.367" x2="33.288" y1="22.928" y2="39.755" gradientUnits="userSpaceOnUse">
            <stop stop-color="#002CC9"/>
            <stop offset="1" stop-color="#91CFFF"/>
        </linearGradient>
        <linearGradient id="Airdrop_svg__e" x1="58.213" x2="49.094" y1="14.002" y2="36.927" gradientUnits="userSpaceOnUse">
            <stop stop-color="#1462F8"/>
            <stop offset="1" stop-color="#D9E3FF"/>
        </linearGradient>
        <linearGradient id="Airdrop_svg__f" x1="46.891" x2="12.819" y1="7.7" y2="22.918" gradientUnits="userSpaceOnUse">
            <stop stop-color="#06F"/>
            <stop offset="1" stop-color="#fff"/>
        </linearGradient>
        <linearGradient id="Airdrop_svg__g" x1="51.643" x2="42.795" y1="11.386" y2="33.629" gradientUnits="userSpaceOnUse">
            <stop stop-color="#1463FB"/>
            <stop offset="1" stop-color="#fff"/>
        </linearGradient>
        <clipPath id="Airdrop_svg__c">
            <path fill="#fff" d="m19.137 56.68 4.028 1.856-2.657 5.682-4.028-1.857z"/>
        </clipPath>
    </defs>
</svg>
