<svg xmlns="http://www.w3.org/2000/svg" fill="none" viewBox="0 0 15 15">
    <g clip-path="url('#America_svg__clip0_8497_46318')">
        <path fill="#fff" d="M0 0h15v15H0z"/>
        <path fill="#1A47B8" fill-rule="evenodd" d="M0 0h9v7H0z" clip-rule="evenodd"/>
        <path fill="#F93939" fill-rule="evenodd" d="M9 0v1h12V0zm0 2v1h12V2zm0 2v1h12V4zm0 2v1h12V6zM0 8v1h21V8zm0 2v1h21v-1zm0 2v1h21v-1zm0 2v1h21v-1z" clip-rule="evenodd"/>
        <path fill="#fff" fill-rule="evenodd" d="M1 1v1h1V1zm2 0v1h1V1zm2 0v1h1V1zm2 0v1h1V1zM6 2v1h1V2zM4 2v1h1V2zM2 2v1h1V2zM1 3v1h1V3zm2 0v1h1V3zm2 0v1h1V3zm2 0v1h1V3zM1 5v1h1V5zm2 0v1h1V5zm2 0v1h1V5zm2 0v1h1V5zM6 4v1h1V4zM4 4v1h1V4zM2 4v1h1V4z" clip-rule="evenodd"/>
    </g>
    <defs>
        <clipPath id="America_svg__clip0_8497_46318">
            <path fill="#fff" d="M0 0h15v15H0z"/>
        </clipPath>
    </defs>
</svg>
