<svg xmlns="http://www.w3.org/2000/svg" fill="none" viewBox="0 0 20 20">
    <path fill="currentColor" fill-rule="evenodd" d="M12.537 4.226c-.486 0-.953.193-1.297.537l-5.744 5.744A3.085 3.085 0 1 0 9.86 14.87l5.744-5.744a.667.667 0 0 1 .942.943l-5.743 5.744a4.42 4.42 0 0 1-6.25-6.25l5.744-5.743a3.168 3.168 0 0 1 4.48 4.48l-5.75 5.744a1.918 1.918 0 0 1-2.711-2.711l5.307-5.3a.667.667 0 0 1 .942.943l-5.306 5.3a.584.584 0 1 0 .826.825l5.75-5.743a1.835 1.835 0 0 0-1.298-3.132" clip-rule="evenodd"/>
</svg>
