<svg xmlns="http://www.w3.org/2000/svg" fill="none" viewBox="0 0 24 25">
    <g filter="url('#ApplicationNFT_svg__a')">
        <g filter="url('#ApplicationNFT_svg__b')">
            <path fill="url(#ApplicationNFT_svg__c)" fill-opacity=".9" d="M3 3.5a2 2 0 0 1 2-2h14a2 2 0 0 1 2 2v18a2 2 0 0 1-2 2H5a2 2 0 0 1-2-2z"/>
        </g>
        <path fill="#fff" d="M8.863 5.105c1.21-.975 2.86-1.25 4.362-.964 1.368.326 2.592 1.246 3.255 2.49.46.82.603 1.767.609 2.694l-.002 7.202c-.04.313.208.536.365.776.747 1.07 1.096 2.37 1.157 3.663q-.674.002-1.346 0c-.069-.835-.216-1.67-.608-2.42-1.225-.007-2.449.02-3.674.008-.007-.91-.004-1.82-.005-2.729-1.045-.245-2.149-.062-3.13.343-1.876.791-3.146 2.771-3.139 4.799H5.395c-.063-1.603.602-3.182 1.65-4.376.148-.14.096-.358.111-.538-.013-1.84.009-3.683-.01-5.524-.046-.916-.017-1.834.025-2.751.109-1.097.782-2.074 1.692-2.673m4.297.371c.151.426.564.695.727 1.12.512.953.367 2.055.384 3.092.008 2.521.006 5.041.007 7.563.503 0 1.007.003 1.51-.006q-.005-3.961 0-7.922c-.006-.637-.07-1.293-.354-1.874-.421-.948-1.285-1.673-2.274-1.973m-3.77.862c-.664.433-.993 1.247-.968 2.022 1.522.014 3.042.005 4.564.006.054-1.012-.6-2.039-1.6-2.298-.668-.237-1.392-.047-1.997.27Zm-.928 3.32c-.007.541.012 1.11.297 1.589.425.805 1.306 1.3 2.207 1.327q.003.645 0 1.29a4.05 4.05 0 0 1-2.533-.989c.013.84 0 1.678.01 2.518a6.6 6.6 0 0 1 4.537-.956c-.008-1.593-.001-3.186-.005-4.779z"/>
    </g>
    <defs>
        <filter id="ApplicationNFT_svg__a" width="34" height="34" x="-5" y="-4.5" color-interpolation-filters="sRGB" filterUnits="userSpaceOnUse">
            <feFlood flood-opacity="0" result="BackgroundImageFix"/>
            <feGaussianBlur in="BackgroundImage" stdDeviation="2.5"/>
            <feComposite in2="SourceAlpha" operator="in" result="effect1_backgroundBlur_2886_21104"/>
            <feBlend in="SourceGraphic" in2="effect1_backgroundBlur_2886_21104" result="shape"/>
        </filter>
        <filter id="ApplicationNFT_svg__b" width="24" height="28" x="0" y="-1.5" color-interpolation-filters="sRGB" filterUnits="userSpaceOnUse">
            <feFlood flood-opacity="0" result="BackgroundImageFix"/>
            <feGaussianBlur in="BackgroundImage" stdDeviation="1.5"/>
            <feComposite in2="SourceAlpha" operator="in" result="effect1_backgroundBlur_2886_21104"/>
            <feBlend in="SourceGraphic" in2="effect1_backgroundBlur_2886_21104" result="shape"/>
        </filter>
        <linearGradient id="ApplicationNFT_svg__c" x1="4.199" x2="16.246" y1="1.5" y2="25.852" gradientUnits="userSpaceOnUse">
            <stop stop-color="#C9A8FF"/>
            <stop offset=".466" stop-color="#5C70FF"/>
            <stop offset="1" stop-color="#0B53FF"/>
        </linearGradient>
    </defs>
</svg>
