<svg xmlns="http://www.w3.org/2000/svg" fill="none" viewBox="0 0 18 18">
    <path fill="currentColor" fill-rule="evenodd" d="M9.502.936c.456 0 .94.063 1.338.208l.005.002 3.742 1.403c.56.209 1.038.63 1.373 1.114s.56 1.08.56 1.677v5.573c0 .554-.18 1.153-.441 1.675-.263.522-.637 1.023-1.082 1.356l-3.224 2.406c-.644.484-1.468.71-2.265.71s-1.622-.226-2.265-.71l-3.224-2.406c-.445-.333-.82-.834-1.082-1.356s-.442-1.12-.442-1.675V5.34c0-.595.226-1.188.56-1.671s.813-.903 1.372-1.113h.001l3.741-1.41h.002c.393-.147.875-.21 1.331-.21M8.565 2.2 4.821 3.61c-.302.113-.609.364-.842.7s-.36.71-.36 1.03v5.573c0 .33.113.755.322 1.17.208.413.482.759.75.96m0 0 3.226 2.408c.414.311.989.483 1.59.483.6 0 1.175-.172 1.59-.483v-.001l3.225-2.408c.268-.2.542-.546.75-.96.209-.414.322-.838.322-1.17V5.34c0-.324-.127-.7-.36-1.037s-.54-.588-.842-.7L10.453 2.2c-.24-.087-.583-.14-.951-.14-.37 0-.708.053-.937.139" clip-rule="evenodd"/>
    <path fill="currentColor" fill-rule="evenodd" d="M12.118 6.487c.22.22.22.576 0 .796l-3.225 3.224a.56.56 0 0 1-.796 0L6.89 9.3a.562.562 0 1 1 .795-.795l.81.81 2.827-2.828c.22-.22.576-.22.796 0" clip-rule="evenodd"/>
</svg>
