<svg viewBox="0 0 36 36" xmlns="http://www.w3.org/2000/svg"><circle cx="18" cy="18" r="18"/><g clip-rule="evenodd" fill-rule="evenodd"><path d="m9 33.592v-13.592a9 9 0 1 1 18 0v13.592a17.917 17.917 0 0 1 -9 2.408c-3.279 0-6.352-.877-9-2.408z" fill="#afc3e1"/><path d="m23.5 20.361v3.056h-9.561a4.157 4.157 0 0 0 7.784.916h1.777v2.567a1.1 1.1 0 0 1 -1.1 1.1h-8.8a1.1 1.1 0 0 1 -1.1-1.1v-6.539zm-2.832 3.972a3.235 3.235 0 0 1 -2.675 1.413 3.235 3.235 0 0 1 -2.675-1.413zm-5.02-3.239c-.863 0-1.576.638-1.695 1.467h.938a.795.795 0 0 1 1.512 0h.938a1.711 1.711 0 0 0 -1.694-1.467zm4.705 0c-.862 0-1.575.638-1.694 1.467h.938a.795.795 0 0 1 1.512 0h.938a1.712 1.712 0 0 0 -1.694-1.467zm2.047-4.094a1.1 1.1 0 0 1 1.1 1.1v1.344h-11v-1.344a1.1 1.1 0 0 1 1.1-1.1z" fill="#fff"/></g></svg>