<svg xmlns="http://www.w3.org/2000/svg" viewBox="0 0 20 20">
    <path fill="#1C68F3" fill-rule="evenodd" d="M5.489 5.161a.3.3 0 0 1 .3.3v2.106h2.106a.3.3 0 1 1 0 .601H5.489a.3.3 0 0 1-.3-.3V5.462a.3.3 0 0 1 .3-.3zm6.315 4.387a.3.3 0 0 1 .301-.301h2.406a.3.3 0 0 1 .3.3v2.406a.3.3 0 1 1-.6 0V9.848h-2.106a.3.3 0 0 1-.3-.3z" clip-rule="evenodd"/>
    <path fill="#1C68F3" fill-rule="evenodd" stroke="#1C68F3" stroke-linecap="round" stroke-linejoin="round" stroke-width=".2" d="M8.893 4.662a3.8 3.8 0 0 1 1.99-.062 3.9 3.9 0 0 1 1.772.96 4.2 4.2 0 0 1 1.111 1.743.33.33 0 0 1-.187.413.303.303 0 0 1-.392-.197 3.6 3.6 0 0 0-.94-1.475 3.3 3.3 0 0 0-1.5-.812 3.2 3.2 0 0 0-1.684.052 3.35 3.35 0 0 0-1.457.912l-1.9 1.883a.296.296 0 0 1-.434-.015.337.337 0 0 1 .013-.457l1.897-1.88a3.96 3.96 0 0 1 1.71-1.065zm5.835 4.686c.116.13.11.336-.013.458l-1.897 1.88a3.95 3.95 0 0 1-1.711 1.065 3.8 3.8 0 0 1-1.99.062 3.9 3.9 0 0 1-1.772-.96 4.2 4.2 0 0 1-1.111-1.743.33.33 0 0 1 .187-.413c.16-.06.335.028.392.197a3.6 3.6 0 0 0 .94 1.475c.427.4.942.68 1.499.812a3.2 3.2 0 0 0 1.684-.053 3.35 3.35 0 0 0 1.458-.91l1.9-1.884a.296.296 0 0 1 .434.014" clip-rule="evenodd"/>
    <g filter="url('#BackUp_svg__a')">
        <path fill="#1C68F3" fill-opacity=".1" d="M13.438 11.458a3.92 3.92 0 0 0-3.855-3.125c-1.51 0-2.812.833-3.437 2.085-1.615.207-2.813 1.508-2.813 3.125a3.134 3.134 0 0 0 3.125 3.123h6.771a2.58 2.58 0 0 0 2.604-2.554v-.05c0-1.354-1.093-2.5-2.396-2.605"/>
    </g>
    <defs>
        <filter id="BackUp_svg__a" width="18.5" height="14.333" x=".333" y="5.333" color-interpolation-filters="sRGB">
            <feFlood flood-opacity="0" result="BackgroundImageFix"/>
            <feGaussianBlur in="BackgroundImage"/>
            <feComposite in2="SourceAlpha" operator="in" result="effect1_backgroundBlur"/>
            <feBlend in="SourceGraphic" in2="effect1_backgroundBlur" result="shape"/>
        </filter>
    </defs>
</svg>
