<svg xmlns="http://www.w3.org/2000/svg" fill="none" viewBox="0 0 24 24">
    <g id="BaseContacts_svg__base/Contacts-1" fill="currentColor" fill-rule="evenodd" clip-rule="evenodd">
        <path id="BaseContacts_svg__Vector (Stroke)" d="M6 2.809c-1.225 0-2.2.979-2.2 2.17v10.91c0 1.191.975 2.17 2.2 2.17h.75c.996 0 1.97.39 2.684 1.102l.002.002 1.706 1.687a1.22 1.22 0 0 0 1.706 0l1.707-1.687.001-.002a3.8 3.8 0 0 1 2.684-1.102H18c1.224 0 2.2-.987 2.2-2.17V4.979c0-1.191-.975-2.17-2.2-2.17zm-3.8 2.17c0-2.089 1.705-3.77 3.8-3.77h12c2.095 0 3.8 1.681 3.8 3.77v10.91c0 2.077-1.703 3.77-3.8 3.77h-.76c-.592 0-1.147.229-1.554.636l-.004.003-1.71 1.69a2.823 2.823 0 0 1-3.954 0l-1.71-1.69-.003-.003a2.2 2.2 0 0 0-1.555-.636H6c-2.095 0-3.8-1.681-3.8-3.77z"/>
        <path id="BaseContacts_svg__Vector (Stroke)_2" d="M12 6.14a1.53 1.53 0 1 0 0 3.059 1.53 1.53 0 0 0 0-3.06ZM8.87 7.668a3.13 3.13 0 1 1 6.26 0 3.13 3.13 0 0 1-6.26 0"/>
        <path id="BaseContacts_svg__Vector (Stroke)_3" d="M7.2 15.66c0-2.387 2.309-4.06 4.8-4.06 2.492 0 4.8 1.673 4.8 4.06a.8.8 0 0 1-1.6 0c0-1.214-1.271-2.46-3.2-2.46-1.928 0-3.2 1.246-3.2 2.46a.8.8 0 0 1-1.6 0"/>
    </g>
</svg>
