<svg xmlns="http://www.w3.org/2000/svg" fill="none" viewBox="0 0 24 24">
    <path fill="#07101B" d="M22 12c0 5.523-4.477 10-10 10S2 17.523 2 12 6.477 2 12 2s10 4.477 10 10"/>
    <path fill="#fff" fill-rule="evenodd" d="M7.757 7.757c.352-.351.985-.287 1.416.143l6.927 6.927c.43.43.494 1.064.142 1.416-.351.351-.985.287-1.415-.143L7.9 9.173c-.43-.43-.494-1.064-.143-1.416" clip-rule="evenodd"/>
    <path fill="#fff" fill-rule="evenodd" d="M16.242 7.757c.352.352.288.985-.142 1.416L9.173 16.1c-.43.43-1.064.494-1.416.142-.351-.351-.287-.985.143-1.415L14.827 7.9c.43-.43 1.064-.494 1.415-.143" clip-rule="evenodd"/>
</svg>
