<svg xmlns="http://www.w3.org/2000/svg" viewBox="0 0 24 24">
    <path fill="#ff5f5f" d="M22.132 9.13V6.036l-2.684-1.55-1.542-2.676h-3.093L12.13.26 9.454 1.81H6.361L4.81 4.487l-2.684 1.55v3.092L.584 11.806l1.55 2.676v3.092l2.684 1.543 1.55 2.684h3.093l2.676 1.542 2.684-1.542h3.085l1.542-2.684 2.684-1.543v-3.092l1.542-2.676-1.542-2.677z"/>
    <path fill="#fff" d="M5.103 12.208q.849-.49 1.495-.383.647.105 1.056.815.305.529.14 1.118-.162.573-.727 1.045a2.15 2.15 0 0 1 .973-.296q.505-.024.942.203.431.216.685.656.934 1.618-1.271 2.891l-2.954 1.705-.213-.37.49-.256q.16-.091.033-.312l-2.796-4.843a.23.23 0 0 0-.125-.101.15.15 0 0 0-.16-.001l-.458.29L2 14zm-.766.909q-.1.057-.05.189l1.274 2.207.519-.3q.459-.264.517-.671.052-.417-.311-1.046-.652-1.129-1.57-.598zm1.426 2.745 1.412 2.447q.075.13.215.05l.489-.283q.51-.294.614-.78.114-.493-.255-1.132-.39-.68-.81-.85-.418-.172-.907.11zm5.044-4.79q.909-.524 1.735-.336.832.173 1.366 1.076l.214.37-2.874 1.659q.496.858 1.065 1.13.579.264 1.213-.089.47-.27.675-.696.202-.436.165-.867l.379.034q.053.623-.3 1.185-.344.558-1.052.967-1.187.685-2.047.463t-1.512-1.35q-.663-1.15-.406-2.017.252-.878 1.38-1.529zm.166.357q-.429.247-.369.813.053.554.464 1.263l1.327-.766q.1-.057.11-.156.008-.099-.1-.289-.375-.65-.724-.86-.338-.218-.708-.005m4.126 1.067.328-.216q.294.51.909.607.624.093 1.224-.253.329-.19.432-.45a.61.61 0 0 0-.054-.554.52.52 0 0 0-.358-.274q-.22-.058-.621.053l-.834.215q-.67.174-1.14.006-.46-.174-.754-.683-.358-.62-.148-1.247.204-.638.983-1.086.21-.12.396-.19a5 5 0 0 1 .477-.141q.37-.095.55-.198a.7.7 0 0 0 .254-.253l.597 1.173-.299.173q-.22-.38-.7-.475-.47-.1-1.01.21-.309.178-.406.448a.55.55 0 0 0 .04.483.52.52 0 0 0 .33.249q.214.049.524-.037l.792-.217q.792-.218 1.232-.032.45.18.75.699.41.709.16 1.385-.253.666-1.042 1.12a2.7 2.7 0 0 1-.497.222q-.253.092-.827.25a1.4 1.4 0 0 0-.302.122q-.22.126-.275.238zm4.116-6.145.988-.57.184.32-.988.57 1.765 3.056q.201.35.36.418.16.068.349-.042a.48.48 0 0 0 .192-.244.77.77 0 0 0 .042-.41l.356-.006a1.03 1.03 0 0 1-.138.706q-.188.295-.608.537-.61.351-1.09.323-.488-.038-.782-.547l-1.753-3.036-.599.345-.184-.32q.399-.23.568-.42a.73.73 0 0 0 .162-.48q.009-.285-.14-.798l.728-.42z"/>
</svg>
