<svg xmlns="http://www.w3.org/2000/svg" fill="none" viewBox="0 0 24 24">
    <path fill="currentColor" d="m13.857 5.125 3.024 6.886a3.74 3.74 0 1 1-1.272.52l-.769-1.75-2.7 5.209a.69.69 0 0 1-.54.368l-.07.003h-1.489a3.74 3.74 0 1 1 0-1.375h1.072l3.018-5.82L12.96 6.5h-1.9a.69.69 0 0 1-.683-.621l-.003-.067a.687.687 0 0 1 .621-.682l.066-.004zm3.778 8.184q-.091 0-.181.006l.811 1.849a.687.687 0 0 1-1.229.611l-.03-.06-.834-1.9a2.367 2.367 0 1 0 1.463-.506m-11.27 0a2.366 2.366 0 1 0 2.264 3.052H6.365a.687.687 0 0 1-.066-1.371l.066-.002h2.264a2.37 2.37 0 0 0-2.264-1.68ZM8.243 9.35c.174 0 .342.067.47.186l.052.054 1.409 1.644a.688.688 0 0 1-.995.945l-.049-.05-1.202-1.405H5.425a.69.69 0 0 1-.684-.62l-.002-.066a.687.687 0 0 1 .62-.684l.066-.004z"/>
</svg>
