<svg xmlns="http://www.w3.org/2000/svg" fill="none" viewBox="0 0 16 16">
    <path fill="currentColor" fill-rule="evenodd" d="M9.014 1.267c.378-.336.904-.434 1.473-.434h2.693c.569 0 1.095.098 1.473.434.393.35.514.852.514 1.387V5.68c0 .534-.12 1.037-.515 1.386-.379.336-.905.43-1.473.428h-2.692c-.568 0-1.094-.096-1.473-.431-.394-.35-.514-.853-.514-1.39v-3.02c0-.534.12-1.036.514-1.386m.664.748c-.085.075-.178.233-.178.639v3.02c0 .41.093.566.177.64.1.088.317.18.81.18h2.696c.49.003.707-.089.806-.177.085-.074.178-.23.178-.637V2.654c0-.406-.093-.564-.178-.64-.1-.088-.318-.18-.809-.18h-2.693c-.491 0-.709.092-.81.18Zm-.686 6.977c.379-.378.915-.492 1.495-.492h2.693c.58 0 1.116.114 1.494.492.379.379.493.915.493 1.495v2.693c0 .58-.114 1.116-.493 1.494-.378.379-.914.493-1.494.493h-2.693c-.58 0-1.116-.114-1.495-.493-.378-.378-.492-.914-.492-1.494v-2.693c0-.58.114-1.116.492-1.495M9.7 9.7c-.1.1-.199.308-.199.788v2.693c0 .48.1.687.2.787s.307.2.787.2h2.693c.48 0 .687-.1.787-.2s.2-.307.2-.787v-2.693c0-.48-.1-.688-.2-.788s-.307-.199-.787-.199h-2.693c-.48 0-.688.1-.788.2ZM1.347 1.267C1.725.931 2.251.833 2.82.833h2.693c.57 0 1.095.098 1.473.434.394.35.514.852.514 1.387V5.68c0 .534-.12 1.037-.514 1.386-.38.336-.905.43-1.474.428H2.82c-.567 0-1.093-.096-1.472-.431-.394-.35-.515-.853-.515-1.39v-3.02c0-.534.121-1.036.514-1.386m.664.748c-.085.075-.178.233-.178.639v3.02c0 .41.094.566.178.64.1.088.316.18.81.18h2.696c.49.003.707-.089.806-.177.084-.074.177-.23.177-.637V2.654c0-.406-.093-.564-.178-.64-.1-.088-.318-.18-.809-.18H2.82c-.49 0-.708.092-.809.18Zm-.685 6.977c.378-.378.914-.492 1.494-.492h2.693c.58 0 1.116.114 1.495.492.378.379.492.915.492 1.495v2.693c0 .58-.114 1.116-.492 1.494-.379.379-.914.493-1.495.493H2.82c-.58 0-1.116-.114-1.494-.493-.379-.378-.493-.914-.493-1.494v-2.693c0-.58.114-1.116.493-1.495m.707.707c-.1.1-.2.308-.2.788v2.693c0 .48.1.687.2.787s.307.2.787.2h2.693c.48 0 .688-.1.788-.2s.2-.307.2-.787v-2.693c0-.48-.1-.688-.2-.788S5.993 9.5 5.513 9.5H2.82c-.48 0-.687.1-.787.2Z" clip-rule="evenodd"/>
</svg>
