<svg viewBox="0 0 24 24" xmlns="http://www.w3.org/2000/svg"><g clip-rule="evenodd" fill="#fff" fill-rule="evenodd"><path d="m1.25 8.5a.75.75 0 0 1 .75-.75h11a.75.75 0 0 1 0 1.5h-11a.75.75 0 0 1 -.75-.75zm4 8a.75.75 0 0 1 .75-.75h2a.75.75 0 0 1 0 1.5h-2a.75.75 0 0 1 -.75-.75zm4.5 0a.75.75 0 0 1 .75-.75h4a.75.75 0 0 1 0 1.5h-4a.75.75 0 0 1 -.75-.75z"/><path d="m3.416 4.912c-.425.42-.666 1.22-.666 2.978v8.22c0 1.759.241 2.558.666 2.978.428.423 1.243.662 3.024.662h11.12c1.781 0 2.596-.239 3.024-.662.425-.42.666-1.22.666-2.978v-4.78a.75.75 0 0 1 1.5 0v4.78c0 1.751-.204 3.147-1.111 4.045-.905.894-2.31 1.095-4.079 1.095h-11.12c-1.769 0-3.174-.201-4.079-1.095-.907-.898-1.111-2.294-1.111-4.045v-8.22c0-1.751.204-3.147 1.111-4.045.905-.894 2.31-1.095 4.079-1.095h6.84a.75.75 0 0 1 0 1.5h-6.84c-1.781 0-2.596.239-3.024.662z"/><path d="m16.25 3.25a.75.75 0 0 1 .75-.75h3.13c1.13 0 2 .993 2 2a2 2 0 0 1 -2 2h-3.13a.75.75 0 0 1 -.75-.75zm1.5.75v1h2.38a.5.5 0 0 0 .5-.5c0-.233-.25-.5-.5-.5z"/><path d="m16.25 5.75a.75.75 0 0 1 .75-.75h3.57c1.107 0 2.18.804 2.18 2s-1.073 2-2.18 2h-3.57a.75.75 0 0 1 -.75-.75zm1.5.75v1h2.82c.474 0 .68-.316.68-.5s-.206-.5-.68-.5z"/><path d="m18.76 7.5a.75.75 0 0 1 .75.75v1.25a.75.75 0 0 1 -1.5 0v-1.25a.75.75 0 0 1 .75-.75zm0-6.25a.75.75 0 0 1 .75.75v1.25a.75.75 0 0 1 -1.5 0v-1.25a.75.75 0 0 1 .75-.75z"/><path d="m15.25 3.25a.75.75 0 0 1 .75-.75h2.19a.75.75 0 0 1 0 1.5h-2.19a.75.75 0 0 1 -.75-.75zm0 5a.75.75 0 0 1 .75-.75h2.19a.75.75 0 0 1 0 1.5h-2.19a.75.75 0 0 1 -.75-.75z"/></g></svg>