<svg xmlns="http://www.w3.org/2000/svg" viewBox="0 0 24 24">
    <g fill="#fff" fill-rule="evenodd" clip-rule="evenodd">
        <path d="M1.25 8.5A.75.75 0 0 1 2 7.75h11a.75.75 0 0 1 0 1.5H2a.75.75 0 0 1-.75-.75m4 8a.75.75 0 0 1 .75-.75h2a.75.75 0 0 1 0 1.5H6a.75.75 0 0 1-.75-.75m4.5 0a.75.75 0 0 1 .75-.75h4a.75.75 0 0 1 0 1.5h-4a.75.75 0 0 1-.75-.75"/>
        <path d="M3.416 4.912c-.425.42-.666 1.22-.666 2.978v8.22c0 1.759.241 2.558.666 2.978.428.423 1.243.662 3.024.662h11.12c1.781 0 2.596-.239 3.024-.662.425-.42.666-1.22.666-2.978v-4.78a.75.75 0 0 1 1.5 0v4.78c0 1.751-.204 3.147-1.111 4.045-.905.894-2.31 1.095-4.079 1.095H6.44c-1.769 0-3.174-.201-4.079-1.095-.907-.898-1.111-2.294-1.111-4.045V7.89c0-1.751.204-3.147 1.111-4.045.905-.894 2.31-1.095 4.079-1.095h6.84a.75.75 0 0 1 0 1.5H6.44c-1.781 0-2.596.239-3.024.662"/>
        <path d="M16.25 3.25A.75.75 0 0 1 17 2.5h3.13c1.13 0 2 .993 2 2a2 2 0 0 1-2 2H17a.75.75 0 0 1-.75-.75zm1.5.75v1h2.38a.5.5 0 0 0 .5-.5c0-.233-.25-.5-.5-.5z"/>
        <path d="M16.25 5.75A.75.75 0 0 1 17 5h3.57c1.107 0 2.18.804 2.18 2s-1.073 2-2.18 2H17a.75.75 0 0 1-.75-.75zm1.5.75v1h2.82c.474 0 .68-.316.68-.5s-.206-.5-.68-.5z"/>
        <path d="M18.76 7.5a.75.75 0 0 1 .75.75V9.5a.75.75 0 0 1-1.5 0V8.25a.75.75 0 0 1 .75-.75m0-6.25a.75.75 0 0 1 .75.75v1.25a.75.75 0 0 1-1.5 0V2a.75.75 0 0 1 .75-.75"/>
        <path d="M15.25 3.25A.75.75 0 0 1 16 2.5h2.19a.75.75 0 0 1 0 1.5H16a.75.75 0 0 1-.75-.75m0 5A.75.75 0 0 1 16 7.5h2.19a.75.75 0 0 1 0 1.5H16a.75.75 0 0 1-.75-.75"/>
    </g>
</svg>
