<svg xmlns="http://www.w3.org/2000/svg" fill="none" viewBox="0 0 24 24">
    <g fill="#767f8d" fill-rule="evenodd" clip-rule="evenodd">
        <path d="M6.5 14.2a.8.8 0 0 1 .8.8v7a.8.8 0 0 1-1.6 0v-7a.8.8 0 0 1 .8-.8m0-13a.8.8 0 0 1 .8.8v3a.8.8 0 0 1-1.6 0V2a.8.8 0 0 1 .8-.8m11 17a.8.8 0 0 1 .8.8v3a.8.8 0 0 1-1.6 0v-3a.8.8 0 0 1 .8-.8m0-17a.8.8 0 0 1 .8.8v7a.8.8 0 0 1-1.6 0V2a.8.8 0 0 1 .8-.8"/>
        <path d="M4.544 6.11c-.14.162-.244.444-.244.89v6c0 .444.103.726.244.89.121.14.371.31.956.31h2c.585 0 .835-.17.957-.31.14-.164.243-.446.243-.89V7c0-.446-.103-.728-.243-.89-.122-.142-.372-.31-.957-.31h-2c-.585 0-.835.168-.956.31M3.332 5.063C3.835 4.48 4.585 4.2 5.5 4.2h2c.915 0 1.665.281 2.169.865.484.562.631 1.28.631 1.935v6c0 .655-.147 1.373-.631 1.935-.504.584-1.254.865-2.169.865h-2c-.915 0-1.665-.28-2.168-.865-.485-.562-.632-1.28-.632-1.935V7c0-.655.147-1.373.632-1.935zm12.212 5.047c-.14.162-.244.444-.244.89v6c0 .444.103.727.244.89.121.14.371.31.956.31h2c.585 0 .835-.17.957-.31.14-.163.243-.446.243-.89v-6c0-.446-.103-.728-.243-.89-.122-.142-.372-.31-.957-.31h-2c-.585 0-.835.168-.956.31m-1.212-1.046c.503-.584 1.253-.865 2.168-.865h2c.915 0 1.665.281 2.169.865.484.562.631 1.28.631 1.935v6c0 .655-.147 1.373-.631 1.935-.504.584-1.254.865-2.169.865h-2c-.915 0-1.665-.28-2.168-.865-.485-.562-.632-1.28-.632-1.935v-6c0-.655.147-1.373.632-1.935"/>
    </g>
</svg>
