<svg xmlns="http://www.w3.org/2000/svg" fill="none" viewBox="0 0 24 24">
    <path fill="currentColor" d="M22.507 16.024v-2.418l-.003-.04-.002-.07-.002-.05a2 2 0 0 0-.015-.17l-.004-.064-.005-.038a4.76 4.76 0 0 0-1.15-2.604 4.75 4.75 0 0 0-2.307-1.455c-.185-1.294-.977-2.484-2.247-3.368C15.467 4.84 13.773 4.341 12 4.341c-1.775 0-3.47.499-4.772 1.406-1.268.881-2.063 2.074-2.248 3.366a4.74 4.74 0 0 0-2.306 1.455A4.8 4.8 0 0 0 1.52 13.18l-.005.038-.005.06-.014.172-.002.051-.002.068-.003.038v2.416q0 .15.033.29c.035.183.113.35.22.49.242.336.636.554 1.078.554h1.06a3.08 3.08 0 0 0 1.024 1.61 3.07 3.07 0 0 0 1.931.691h.035a3.06 3.06 0 0 0 2.958-2.299h4.374a3.08 3.08 0 0 0 1.024 1.61 3.07 3.07 0 0 0 1.931.692h.035a3.06 3.06 0 0 0 2.958-2.3h1.022c.445 0 .84-.22 1.08-.558q.164-.212.218-.485.036-.144.036-.293Zm-6.809.52a1.54 1.54 0 0 1 1.498-1.485 1.544 1.544 0 0 1 1.535 1.544q0 .044-.003.09-.038.105-.063.215a1.55 1.55 0 0 1-1.486 1.23 1.547 1.547 0 0 1-1.481-1.593Zm1.498-3.004a3.065 3.065 0 0 0-2.958 2.3H9.832a3.06 3.06 0 0 0-2.96-2.302 3.065 3.065 0 0 0-2.958 2.299h-.91V13.65l.003-.028v-.007q.002-.081.009-.162v-.028a3.26 3.26 0 0 1 2.452-2.852 1 1 0 0 0 .159-.052q.31-.063.635-.063h11.47q.325 0 .636.063.077.031.159.052a3.25 3.25 0 0 1 2.45 2.86l.002.023.004.046q.004.056.005.113v2.224h-.832a3.06 3.06 0 0 0-2.96-2.299m.236-4.598h-4.71V5.895c1.16.108 2.259.476 3.114 1.047.811.544 1.371 1.247 1.596 2M8.137 6.959c.842-.57 1.924-.94 3.068-1.057v3.04h-4.64c.22-.746.773-1.442 1.572-1.983m-2.763 9.586a1.54 1.54 0 0 1 1.497-1.486c.41.002.797.162 1.086.455.29.29.45.68.447 1.09l-.002.088q-.039.106-.063.216a1.55 1.55 0 0 1-1.486 1.23 1.545 1.545 0 0 1-1.48-1.593Z"/>
</svg>
