<svg xmlns="http://www.w3.org/2000/svg" fill="none" viewBox="0 0 30 30">
    <g clip-path="url('#Chrome_svg__clip0_34724_4580')">
        <path fill="url(#Chrome_svg__paint0_linear_34724_4580)" d="M27.32 7.885a14.23 14.23 0 0 0-24.647 0l.854 15.369z"/>
        <path fill="url(#Chrome_svg__paint1_linear_34724_4580)" d="M8.838 18.558 2.676 7.885A14.23 14.23 0 0 0 15 29.23L28.946 15z"/>
        <path fill="url(#Chrome_svg__paint2_linear_34724_4580)" d="M21.162 18.558 15 29.23A14.23 14.23 0 0 0 27.321 7.885H15z"/>
        <path fill="#fff" d="M15 22.115a7.116 7.116 0 1 0 0-14.23 7.116 7.116 0 0 0 0 14.23"/>
        <path fill="#1A73E8" d="M15 20.635a5.634 5.634 0 0 0 5.206-7.792A5.636 5.636 0 1 0 15 20.635"/>
    </g>
    <defs>
        <linearGradient id="Chrome_svg__paint0_linear_34724_4580" x1="2.676" x2="27.321" y1="9.663" y2="9.663" gradientUnits="userSpaceOnUse">
            <stop stop-color="#D93025"/>
            <stop offset="1" stop-color="#EA4335"/>
        </linearGradient>
        <linearGradient id="Chrome_svg__paint1_linear_34724_4580" x1="16.54" x2="4.216" y1="28.34" y2="6.994" gradientUnits="userSpaceOnUse">
            <stop stop-color="#1E8E3E"/>
            <stop offset="1" stop-color="#34A853"/>
        </linearGradient>
        <linearGradient id="Chrome_svg__paint2_linear_34724_4580" x1="12.922" x2="25.246" y1="29.231" y2="7.922" gradientUnits="userSpaceOnUse">
            <stop stop-color="#FCC934"/>
            <stop offset="1" stop-color="#FBBC04"/>
        </linearGradient>
        <clipPath id="Chrome_svg__clip0_34724_4580">
            <path fill="#fff" d="M0 0h30v30H0z"/>
        </clipPath>
    </defs>
</svg>
