<svg xmlns="http://www.w3.org/2000/svg" viewBox="0 0 36 36">
    <g fill="currentColor">
        <path d="M34.5 18c0 9.113-7.387 16.5-16.5 16.5S1.5 27.113 1.5 18 8.887 1.5 18 1.5 34.5 8.887 34.5 18M4.8 18c0 7.29 5.91 13.2 13.2 13.2S31.2 25.29 31.2 18 25.29 4.8 18 4.8 4.8 10.71 4.8 18" opacity=".5"/>
        <path d="M18 32.85c0 .911-.74 1.658-1.647 1.568A16.5 16.5 0 1 1 31.595 8.65c.517.751.218 1.76-.58 2.199-.799.439-1.794.14-2.33-.598a13.2 13.2 0 1 0-12.33 20.846c.903.114 1.645.842 1.645 1.753"/>
    </g>
</svg>
