<svg width="18" height="19" viewBox="0 0 18 19" xmlns="http://www.w3.org/2000/svg">
<g>
        <path d="M15.75 9.135a6.75 6.75 0 1 1-13.5 0 6.75 6.75 0 0 1 13.5 0Z" fill="#FF3545" />
        <path
            fill-rule="evenodd"
            clip-rule="evenodd"
            d="M9 5.459c.374 0 .676.302.676.675v4.065a.675.675 0 1 1-1.35 0V6.134c0-.373.302-.675.675-.675ZM9 12.132c.374 0 .676.302.676.675v.017a.675.675 0 1 1-1.35 0v-.017c0-.373.302-.675.675-.675Z"
            fill="#fff"
        />
    </g>
</svg>
  