<svg fill="none" viewBox="0 0 24 24" xmlns="http://www.w3.org/2000/svg"><path d="m22 12c0 5.523-4.477 10-10 10s-10-4.477-10-10 4.477-10 10-10 10 4.477 10 10z" fill="#07101b"/><g clip-rule="evenodd" fill="#fff" fill-rule="evenodd"><path d="m7.757 7.757c.352-.351.985-.287 1.416.143l6.927 6.927c.43.43.494 1.064.142 1.416-.351.351-.985.287-1.415-.143l-6.927-6.927c-.43-.43-.494-1.064-.143-1.416z"/><path d="m16.242 7.757c.352.352.288.985-.142 1.416l-6.927 6.927c-.43.43-1.064.494-1.416.142-.351-.351-.287-.985.143-1.415l6.927-6.927c.43-.43 1.064-.494 1.415-.143z"/></g></svg>