<svg xmlns="http://www.w3.org/2000/svg" fill="none" viewBox="0 0 19 19">
    <g fill="currentColor" fill-rule="evenodd" clip-path="url('#CloudBackup2_svg__cloud_backup_a')" clip-rule="evenodd">
        <path d="M4.924 7.633a.6.6 0 0 1-.536.658 2.576 2.576 0 1 0 .726 5.097.6.6 0 0 1 .217 1.18 3.776 3.776 0 1 1-1.065-7.471.6.6 0 0 1 .658.536"/>
        <path d="M13.515 7.313a.6.6 0 0 1-.737-.422 4.253 4.253 0 1 0-8.107 2.55.6.6 0 0 1-1.129.406 5.453 5.453 0 1 1 10.395-3.27.6.6 0 0 1-.422.736"/>
        <path d="M12.574 13.412a2.889 2.889 0 1 0-1.734-4.951.6.6 0 0 1-.835-.862 4.088 4.088 0 1 1 2.455 7.008.6.6 0 0 1 .114-1.195"/>
        <path d="M8.626 16.535a.6.6 0 0 1-.6-.6v-4.011l-1.282 1.282a.6.6 0 0 1-.849-.849l2.306-2.306a.6.6 0 0 1 .849 0l2.306 2.306a.6.6 0 0 1-.848.849l-1.282-1.282v4.01a.6.6 0 0 1-.6.6Z"/>
    </g>
    <defs>
        <clipPath id="CloudBackup2_svg__cloud_backup_a">
            <path fill="currentColor" d="M.043.933h18v18h-18z"/>
        </clipPath>
    </defs>
</svg>
