<svg xmlns="http://www.w3.org/2000/svg" viewBox="0 0 13 12">
    <path fill="currentColor" fill-rule="evenodd" d="M6.5 0c-3.307 0-6 2.69-6 6s2.693 6 6 6 6-2.693 6-6-2.69-6-6-6Zm5.223 6a5.19 5.19 0 0 1-.92 2.96 2.705 2.705 0 0 0-.026-.067V8.89c-.156-.384-.468-.844-.905-1.367v-.001c-.09-.106-.175-.205-.252-.291a.617.617 0 0 0 .11-.352V3.975A3.255 3.255 0 0 0 7.299.838 5.233 5.233 0 0 1 11.723 6ZM1.277 6A5.233 5.233 0 0 1 5.805.823a2.85 2.85 0 0 0-1.287.739 2.972 2.972 0 0 0-.883 2.098v3.4c-.39.423-.843 1.015-1.117 1.61a6.888 6.888 0 0 0-.192.458A5.184 5.184 0 0 1 1.277 6Zm1.637 3.793c.062-.197.135-.397.224-.605.017.112.04.226.07.337l.001.002c.102.356.306.66.481.874a5.335 5.335 0 0 1-.776-.608Zm1.554-2.47c.023-.021.047-.042.073-.063a3.02 3.02 0 0 0-.009.233c0 .28.045.589.2.841a.97.97 0 0 0 .715.47c.09.016.173.02.249.02.45 0 .852-.183 1.167-.393.23-.154.423-.327.567-.474a.636.636 0 0 0 .486.02l.682-.245a2.694 2.694 0 0 0-.824.774c-.281.406-.443 1.019-.54 1.56-.077.432-.116.843-.136 1.116-.194.025-.389.04-.585.041-.063-.3-.236-.745-.726-1.013a1.97 1.97 0 0 0-1.406-.204c-.143-.154-.342-.41-.422-.691-.152-.533-.057-1.184-.013-1.423a6.11 6.11 0 0 1 .522-.569Zm1.016 1.254-.035.228h-.004l.04-.228Zm2.35-4.3h-.002V3.054c0-.825-.672-1.493-1.493-1.493h-.126a1.5 1.5 0 0 0-.23.018c.173-.046.354-.069.54-.067a2.47 2.47 0 0 1 2.43 2.463v2.8l-1.118.405V4.277ZM4.417 3.66c0-.545.215-1.085.594-1.487-.182.247-.29.552-.29.882v1.454c0 .443.196.836.498 1.108a.714.714 0 0 1-.128.247c-.107.14-.314.28-.566.45a6.006 6.006 0 0 0-.108.072V3.66Zm1.92 2.348c.26 0 .504-.068.715-.186v1.393a3.274 3.274 0 0 1-.454.444c-.31.247-.678.433-1.034.379h-.001a.22.22 0 0 1-.172-.108c-.081-.136-.104-.384-.074-.681.025-.248.08-.49.126-.644a1.513 1.513 0 0 0 .469-.63c.095.02.195.033.299.033h.126Zm-.839-2.953c0-.396.322-.716.716-.716h.126c.396 0 .716.322.716.716v1.454a.716.716 0 0 1-.716.716h-.126a.716.716 0 0 1-.716-.716V3.054Zm2.915 5.894a1.923 1.923 0 0 1 1.011-.741c.318.399.533.734.633.978.052.127.1.294.139.499a5.244 5.244 0 0 1-2.305 1.35c.022-.248.059-.56.117-.878.088-.484.22-.94.405-1.208Zm-3.95 1.857a.188.188 0 0 1 .01-.018c.12-.041.495-.137.94.106a.638.638 0 0 1 .258.262 5.25 5.25 0 0 1-1.208-.35Z" clip-rule="evenodd"/>
</svg>
