<svg width="13" height="12" viewBox="0 0 13 12" xmlns="http://www.w3.org/2000/svg">
<g>
        <path
            fill-rule="evenodd"
            clip-rule="evenodd"
            d="M6.5 0C3.19309 0 0.5 2.68977 0.5 6C0.5 9.31023 3.19309 12 6.5 12C9.80699 12 12.5 9.30699 12.5 6C12.5 2.69309 9.81023 0 6.5 0ZM11.723 6C11.723 7.09786 11.3836 8.11733 10.8025 8.95911C10.7942 8.93641 10.7859 8.9143 10.7774 8.89282L10.7766 8.89097C10.621 8.50719 10.3092 8.04673 9.87242 7.52383L9.8716 7.52286C9.78185 7.41662 9.69673 7.31807 9.62002 7.23165C9.69 7.13083 9.73052 7.00932 9.73052 6.88005V3.97493C9.73052 2.47275 8.69247 1.20012 7.29807 0.837914C9.79965 1.22358 11.723 3.39267 11.723 6ZM1.27697 6C1.27697 3.35699 3.25334 1.16431 5.80493 0.82309C5.32743 0.946988 4.88529 1.19888 4.51779 1.56174C3.95715 2.11554 3.63538 2.88101 3.63538 3.6595V7.06027C3.24488 7.48348 2.79182 8.07468 2.51792 8.66962C2.44555 8.82641 2.38231 8.9786 2.32583 9.12844C1.66869 8.25476 1.27697 7.17385 1.27697 6ZM2.91361 9.79306C2.97595 9.59581 3.0495 9.39582 3.13777 9.18782C3.1546 9.30043 3.17764 9.41355 3.20842 9.52492L3.20897 9.52683C3.31072 9.88296 3.51473 10.1872 3.69042 10.4006C3.41344 10.2229 3.1533 10.0189 2.91361 9.79306ZM4.46845 7.32311C4.49106 7.30201 4.51522 7.28084 4.54072 7.25959C4.53497 7.33649 4.53176 7.41488 4.532 7.49347C4.53284 7.77335 4.57732 8.08178 4.73189 8.33408C4.89232 8.60081 5.13947 8.75693 5.44699 8.80481C5.53684 8.82026 5.62005 8.82361 5.69565 8.82361C6.14582 8.82361 6.54768 8.64126 6.8634 8.43078C7.09334 8.27749 7.28628 8.10351 7.43008 7.95737C7.51479 7.99677 7.60637 8.01611 7.69864 8.01611C7.77625 8.01611 7.85041 8.00051 7.91557 7.97724L8.59765 7.73177C8.32151 7.89818 8.02521 8.14445 7.77377 8.50577C7.49265 8.91243 7.33096 9.52485 7.23448 10.066C7.1574 10.4984 7.11806 10.9095 7.0985 11.1821C6.9036 11.2068 6.70925 11.2223 6.51318 11.223C6.45029 10.9238 6.27701 10.4777 5.78732 10.2103C5.2048 9.89207 4.67982 9.93678 4.38054 10.0064C4.23778 9.85245 4.03893 9.59669 3.95872 9.31487C3.80658 8.78239 3.9024 8.13107 3.94629 7.89184C4.14512 7.64809 4.33686 7.44631 4.46845 7.32311ZM5.48427 8.57729L5.44922 8.80515L5.44699 8.80481L5.44477 8.80443L5.48427 8.57729ZM7.83478 4.27724H7.83162V3.05388C7.83162 2.22895 7.16015 1.56138 6.33913 1.56138H6.21296C6.13488 1.56138 6.05821 1.5674 5.98338 1.57899C6.15635 1.53276 6.33674 1.51003 6.52254 1.51191C7.86304 1.52936 8.95355 2.63156 8.95355 3.97493V6.77583L7.83478 7.18038V4.27724ZM4.41551 3.6595C4.41551 3.11413 4.63087 2.57437 5.00993 2.17154C4.82794 2.4191 4.72047 2.72445 4.72047 3.05388V4.50801C4.72047 4.95112 4.91622 5.3444 5.21819 5.61603C5.20048 5.68094 5.16381 5.76701 5.08994 5.86261C4.98282 6.00212 4.77586 6.14337 4.52409 6.31232C4.48779 6.33607 4.45154 6.36033 4.41551 6.38504V3.6595ZM6.33598 6.00681C6.59634 6.00681 6.83992 5.93887 7.0515 5.82111V7.21423C6.97799 7.30209 6.81478 7.48519 6.59718 7.65842C6.28789 7.90464 5.91908 8.09102 5.56332 8.03667L5.56177 8.03644C5.47791 8.02421 5.42985 7.99062 5.3903 7.92876C5.30885 7.79299 5.28639 7.54547 5.31611 7.24756C5.3408 6.99998 5.39689 6.75891 5.44174 6.60437C5.53633 6.52499 5.62614 6.43731 5.70215 6.33913C5.79897 6.21284 5.86524 6.08903 5.91066 5.97416C6.00577 5.99475 6.10559 6.00681 6.2098 6.00681H6.33598ZM5.49743 3.05388C5.49743 2.65821 5.81945 2.33835 6.21296 2.33835H6.33913C6.73479 2.33835 7.05465 2.66036 7.05465 3.05388V4.50801C7.05465 4.90368 6.73264 5.22354 6.33913 5.22354H6.21296C5.81729 5.22354 5.49743 4.90152 5.49743 4.50801V3.05388ZM8.41206 8.94806C8.73453 8.48174 9.17067 8.2849 9.42324 8.20704C9.74053 8.60584 9.95554 8.94079 10.0558 9.1849C10.1075 9.3118 10.1557 9.47918 10.1949 9.68357C9.56381 10.3158 8.77319 10.7886 7.88981 11.034C7.91227 10.7858 7.9488 10.4732 8.00686 10.1559C8.09543 9.67193 8.2278 9.21506 8.41206 8.94806ZM4.4623 10.8046C4.46589 10.7968 4.46904 10.791 4.47155 10.7868C4.59177 10.7457 4.96726 10.65 5.41179 10.8931C5.53484 10.9601 5.61646 11.0558 5.6701 11.1549C5.24834 11.0863 4.844 10.9665 4.4623 10.8046Z"
        />
    </g>
</svg>
  