<svg xmlns="http://www.w3.org/2000/svg" fill="none" viewBox="0 0 24 24">
    <path fill="currentColor" fill-rule="evenodd" d="M8.52 11.984a.8.8 0 0 1 .8-.8h5.36a.8.8 0 0 1 0 1.6H9.32a.8.8 0 0 1-.8-.8" clip-rule="evenodd"/>
    <path fill="currentColor" fill-rule="evenodd" d="M2.647 12A5.28 5.28 0 0 1 7.93 6.72h2.686v1.6H7.93a3.681 3.681 0 0 0 0 7.362h2.686v1.6H7.93a5.28 5.28 0 0 1-5.282-5.28M21.353 12a5.28 5.28 0 0 0-5.283-5.28h-3.686v1.6h3.686a3.681 3.681 0 0 1 0 7.362h-3.686v1.6h3.686a5.28 5.28 0 0 0 5.281-5.28" clip-rule="evenodd"/>
</svg>
