<svg width="20" height="20" viewBox="0 0 20 20" xmlns="http://www.w3.org/2000/svg">
    <g>
        <path
            fillRule="evenodd"
            clipRule="evenodd"
            d="M6.39 8.988a.6.6 0 0 1 .6-.6h4.02a.6.6 0 1 1 0 1.2H6.99a.6.6 0 0 1-.6-.6Z"
            fill="#fff"
        />
        <path
            fillRule="evenodd"
            clipRule="evenodd"
            d="M1.986 9a3.961 3.961 0 0 1 3.96-3.96h2.015v1.2H5.947a2.761 2.761 0 1 0 0 5.521H7.96v1.2H5.947a3.961 3.961 0 0 1-3.961-3.96ZM16.014 9a3.961 3.961 0 0 0-3.96-3.96H9.288v1.2h2.764a2.761 2.761 0 0 1 0 5.521H9.29v1.2h2.764a3.961 3.961 0 0 0 3.961-3.96Z"
            fill="#fff"
        />
    </g>
</svg>
