<svg xmlns="http://www.w3.org/2000/svg" fill="none" viewBox="0 0 24 24">
    <path fill="currentColor" fill-rule="evenodd" d="M17.294 7.291A5.274 5.274 0 0 1 12 12.583a5.275 5.275 0 0 1-5.294-5.292A5.274 5.274 0 0 1 12 2a5.273 5.273 0 0 1 5.294 5.291M12 22c-4.338 0-8-.705-8-3.425 0-2.721 3.685-3.401 8-3.401 4.339 0 8 .705 8 3.425s-3.685 3.4-8 3.4Zm3.644-8.014a.8.8 0 0 1 .8-.8h5.112a.8.8 0 0 1 0 1.6h-5.112a.8.8 0 0 1-.8-.8m1.289-2.45a.8.8 0 0 1 .8-.8h3.823a.8.8 0 0 1 0 1.6h-3.823a.8.8 0 0 1-.8-.8m1.203-2.449a.8.8 0 0 1 .8-.8h2.62a.8.8 0 0 1 0 1.6h-2.62a.8.8 0 0 1-.8-.8" clip-rule="evenodd"/>
</svg>
