<svg xmlns="http://www.w3.org/2000/svg" fill="none" viewBox="0 0 16 17">
    <path fill="currentColor" fill-rule="evenodd" d="M7.736 12.923c-.898 0-1.68-.268-2.244-.794-.566-.53-.858-1.272-.858-2.117V5.267c0-.84.29-1.58.851-2.11.559-.525 1.336-.794 2.227-.8h4.386c.898 0 1.68.267 2.243.793.567.53.859 1.272.859 2.117v4.745c0 .84-.29 1.58-.852 2.109-.558.525-1.335.795-2.226.8h-.003zv-.534zm0-1.067c-.689 0-1.19-.203-1.516-.506-.32-.3-.52-.746-.52-1.338V5.267c0-.589.198-1.033.516-1.332.322-.303.82-.507 1.5-.51h.002l4.38-.002c.689 0 1.19.203 1.515.506.321.3.52.746.52 1.338v4.745c0 .589-.197 1.032-.516 1.332-.322.303-.818.506-1.5.51z" clip-rule="evenodd"/>
    <path fill="currentColor" fill-rule="evenodd" d="M5.41 15c-.898 0-1.68-.268-2.243-.794-.567-.53-.86-1.272-.86-2.117V7.344c0-1.084.484-1.987 1.37-2.49a.533.533 0 0 1 .526.928c-.514.292-.828.817-.828 1.562v4.745c0 .592.199 1.037.52 1.338.325.303.826.506 1.515.506l4.382-.002c.763-.005 1.295-.258 1.612-.627a.533.533 0 0 1 .81.694c-.563.654-1.418.994-2.418 1h-.003zv-.534z" clip-rule="evenodd"/>
</svg>
