<svg xmlns="http://www.w3.org/2000/svg" viewBox="0 0 25 25">
    <path fill="currentColor" d="M3.36 8.49v9h15v-9zm14.25 2.128a2.27 2.27 0 0 1-1.377-1.378h1.377zm-2.133 6.122H6.245a2.98 2.98 0 0 0-2.135-2.133v-3.23A2.98 2.98 0 0 0 6.244 9.24h9.232a2.98 2.98 0 0 0 2.134 2.138v3.227a2.98 2.98 0 0 0-2.133 2.135m-9.99-7.5a2.26 2.26 0 0 1-1.377 1.371v-1.37h1.377ZM4.11 15.373a2.26 2.26 0 0 1 1.372 1.367H4.11zm12.132 1.367a2.26 2.26 0 0 1 1.368-1.376v1.376z"/>
    <path fill="currentColor" d="M14.985 11.865a1.125 1.125 0 1 0 0 2.25 1.125 1.125 0 0 0 0-2.25m0 1.5a.376.376 0 0 1 0-.75.376.376 0 0 1 0 .75M10.86 9.99c-1.242 0-2.25 1.344-2.25 3 0 1.657 1.008 3 2.25 3 1.243 0 2.25-1.343 2.25-3 0-1.656-1.007-3-2.25-3m0 5.25c-.813 0-1.5-1.03-1.5-2.25s.687-2.25 1.5-2.25 1.5 1.03 1.5 2.25-.687 2.25-1.5 2.25m-4.125-3.375a1.125 1.125 0 1 0 0 2.25 1.125 1.125 0 0 0 0-2.25m0 1.5a.375.375 0 0 1 0-.75.376.376 0 0 1 0 .75M5.28 6.48H6v1.56h-.72zm14.76 0v.72H6v-.72z"/>
    <path fill="#111418" d="M20.04 14.76v.72h-.96v-.72z"/>
    <path fill="currentColor" stroke="currentColor" stroke-width=".36" d="M20.22 6.66h.36v8.64h-.36z"/>
</svg>
