<svg viewBox="0 0 48 48" xmlns="http://www.w3.org/2000/svg"><g fill="none" xmlns="http://www.w3.org/2000/svg"><rect fill="none" height="48" rx="24" width="48"/><path clip-rule="evenodd" d="m37.908 18.556v7.777h-24.178c1.056 4.72 5.245 8.245 10.253 8.245 4.14 0 7.72-2.41 9.433-5.911h4.493v6.533a2.79 2.79 0 0 1 -2.782 2.8h-22.255a2.791 2.791 0 0 1 -2.782-2.8v-16.644zm-7.16 10.11a8.168 8.168 0 0 1 -6.767 3.597 8.168 8.168 0 0 1 -6.765-3.596h13.531zm-12.699-8.244c-2.18 0-3.983 1.623-4.284 3.734h2.372a2.011 2.011 0 0 1 1.912-1.4 2.01 2.01 0 0 1 1.912 1.4h2.372c-.3-2.111-2.104-3.734-4.284-3.734zm11.9 0c-2.18 0-3.983 1.623-4.283 3.734h2.371a2.011 2.011 0 0 1 1.912-1.4 2.01 2.01 0 0 1 1.912 1.4h2.372c-.3-2.111-2.104-3.734-4.284-3.734zm5.177-10.422a2.791 2.791 0 0 1 2.782 2.8v3.422h-27.818v-3.422a2.79 2.79 0 0 1 2.782-2.8h22.255z" fill="#101010" fill-rule="evenodd"/></g></svg>