<svg xmlns="http://www.w3.org/2000/svg" viewBox="0 0 48 48">
    <g xmlns="http://www.w3.org/2000/svg" fill="none">
        <rect width="48" height="48" rx="24"/>
        <path fill="#101010" fill-rule="evenodd" d="M37.908 18.556v7.777H13.73c1.056 4.72 5.245 8.245 10.253 8.245 4.14 0 7.72-2.41 9.433-5.911h4.493V35.2a2.79 2.79 0 0 1-2.782 2.8H12.872a2.79 2.79 0 0 1-2.782-2.8V18.556zm-7.16 10.11a8.17 8.17 0 0 1-6.767 3.597 8.17 8.17 0 0 1-6.765-3.596h13.531zm-12.699-8.244c-2.18 0-3.983 1.623-4.284 3.734h2.372a2.01 2.01 0 0 1 1.912-1.4 2.01 2.01 0 0 1 1.912 1.4h2.372c-.3-2.111-2.104-3.734-4.284-3.734m11.9 0c-2.18 0-3.983 1.623-4.283 3.734h2.371a2.01 2.01 0 0 1 1.912-1.4 2.01 2.01 0 0 1 1.912 1.4h2.372c-.3-2.111-2.104-3.734-4.284-3.734M35.126 10a2.79 2.79 0 0 1 2.782 2.8v3.422H10.09V12.8a2.79 2.79 0 0 1 2.782-2.8z" clip-rule="evenodd"/>
    </g>
</svg>
