<svg xmlns="http://www.w3.org/2000/svg" viewBox="0 0 48 48">
    <linearGradient id="DefaultToken_light_svg__a" x1="0" x2="48" y1="24" y2="24" gradientUnits="userSpaceOnUse">
        <stop offset=".01" stop-color="#6298ea" stop-opacity=".2"/>
        <stop offset="1" stop-color="#627eea" stop-opacity=".2"/>
    </linearGradient>
    <linearGradient id="DefaultToken_light_svg__b" x1="24" x2="24" y1="0" y2="48" gradientUnits="userSpaceOnUse">
        <stop offset="0" stop-color="#fff" stop-opacity="0"/>
        <stop offset="1" stop-color="#fff" stop-opacity=".9"/>
    </linearGradient>
    <g xmlns="http://www.w3.org/2000/svg" fill="none">
        <rect width="48" height="48" fill="url(#DefaultToken_light_svg__a)" rx="24"/>
        <rect width="48" height="48" fill="url(#DefaultToken_light_svg__b)" rx="24"/>
        <path fill="#fff" fill-rule="evenodd" d="M37.908 18.556v7.777H13.73c1.056 4.72 5.245 8.245 10.253 8.245 4.14 0 7.72-2.41 9.433-5.911h4.493V35.2a2.79 2.79 0 0 1-2.782 2.8H12.872a2.79 2.79 0 0 1-2.782-2.8V18.556zm-7.16 10.11a8.17 8.17 0 0 1-6.767 3.597 8.17 8.17 0 0 1-6.765-3.596h13.531zm-12.699-8.244c-2.18 0-3.983 1.623-4.284 3.734h2.372a2.01 2.01 0 0 1 1.912-1.4 2.01 2.01 0 0 1 1.912 1.4h2.372c-.3-2.111-2.104-3.734-4.284-3.734m11.9 0c-2.18 0-3.983 1.623-4.283 3.734h2.371a2.01 2.01 0 0 1 1.912-1.4 2.01 2.01 0 0 1 1.912 1.4h2.372c-.3-2.111-2.104-3.734-4.284-3.734M35.126 10a2.79 2.79 0 0 1 2.782 2.8v3.422H10.09V12.8a2.79 2.79 0 0 1 2.782-2.8z" clip-rule="evenodd"/>
    </g>
</svg>
