<svg width="48" height="48" viewBox="0 0 48 48" xmlns="http://www.w3.org/2000/svg">
<g fill="none" xmlns="http://www.w3.org/2000/svg">
        <rect width="48" height="48" rx="24" fill="url(#a)" />
        <rect width="48" height="48" rx="24" fill="url(#b)" />
        <path
            fill-rule="evenodd"
            clip-rule="evenodd"
            d="M37.908 18.556v7.777H13.73c1.056 4.72 5.245 8.245 10.253 8.245 4.14 0 7.72-2.41 9.433-5.911h4.493V35.2c0 1.546-1.245 2.8-2.782 2.8H12.872a2.791 2.791 0 0 1-2.782-2.8V18.556h27.818Zm-7.16 10.11a8.168 8.168 0 0 1-6.767 3.597 8.168 8.168 0 0 1-6.765-3.596h13.531Zm-12.699-8.244c-2.18 0-3.983 1.623-4.284 3.734h2.372a2.011 2.011 0 0 1 1.912-1.4c.894 0 1.652.587 1.912 1.4h2.372c-.3-2.111-2.104-3.734-4.284-3.734Zm11.9 0c-2.18 0-3.983 1.623-4.283 3.734h2.371a2.011 2.011 0 0 1 1.912-1.4c.894 0 1.652.587 1.912 1.4h2.372c-.3-2.111-2.104-3.734-4.284-3.734ZM35.126 10a2.791 2.791 0 0 1 2.782 2.8v3.422H10.09V12.8c0-1.546 1.245-2.8 2.782-2.8h22.255Z"
            fill="#fff"
        />
        <defs>
            <linearGradient id="a" x1="0" y1="24" x2="48" y2="24" gradient-units="userSpaceOnUse">
                <stop offset=".01" stop-color="#6298EA" stop-opacity=".2" />
                <stop offset=".01" stop-color="#6298EA" stop-opacity=".2" />
                <stop offset="1" stop-color="#627EEA" stop-opacity=".2" />
            </linearGradient>
            <linearGradient id="b" x1="24" y1="0" x2="24" y2="48" gradient-units="userSpaceOnUse">
                <stop stop-color="#fff" stop-opacity="0" />
                <stop offset="1" stop-color="#fff" stop-opacity=".9" />
            </linearGradient>
        </defs>
    </g>
</svg>
  