<svg width="34" height="34" viewBox="0 0 34 34" xmlns="http://www.w3.org/2000/svg">
<g>
        <path
            fill-rule="evenodd"
            clip-rule="evenodd"
            d="M3.59 3.588C5.611 1.565 8.631.798 12.5.798h9c3.869 0 6.889.767 8.911 2.79 2.023 2.022 2.79 5.042 2.79 8.91v9c0 3.87-.767 6.89-2.79 8.912-2.022 2.022-5.042 2.789-8.91 2.789h-9c-3.87 0-6.89-.767-8.912-2.79C1.567 28.388.8 25.368.8 21.5v-9c0-3.869.767-6.889 2.79-8.911Zm1.696 1.697C3.934 6.637 3.2 8.867 3.2 12.499v9c0 3.632.734 5.861 2.086 7.214 1.353 1.352 3.583 2.086 7.214 2.086h9c3.632 0 5.862-.734 7.214-2.086 1.353-1.353 2.086-3.582 2.086-7.214v-9c0-3.632-.733-5.862-2.086-7.214-1.352-1.352-3.582-2.086-7.214-2.086h-9c-3.631 0-5.861.734-7.214 2.086Z"
        />
        <path
            fill-rule="evenodd"
            clip-rule="evenodd"
            d="m24.749 20.686-1.335 2.685a4.2 4.2 0 0 1-3.759 2.328H14.36c-.436 0-2.597-.003-3.77-2.305l-.004-.01L9.252 20.7a1.802 1.802 0 0 0-1.612-1.002H2a1.2 1.2 0 0 1 0-2.4h5.64a4.2 4.2 0 0 1 3.759 2.329v.002l1.333 2.68c.507.99 1.34.99 1.626.99h5.297a1.8 1.8 0 0 0 1.611-1.002l1.336-2.685a4.2 4.2 0 0 1 3.758-2.329h5.61a1.2 1.2 0 1 1 0 2.4h-5.61c-.68 0-1.303.385-1.611 1.002Z"
        />
    </g>
</svg>
  