<svg xmlns="http://www.w3.org/2000/svg" fill="none" viewBox="0 0 24 24">
    <path fill="currentColor" fill-rule="evenodd" d="M16.348 4.455a.8.8 0 0 1 .293 1.093L8.746 19.223a.8.8 0 0 1-1.386-.8l7.895-13.675a.8.8 0 0 1 1.093-.293" clip-rule="evenodd"/>
    <path fill="currentColor" fill-rule="evenodd" d="M2.647 12A5.28 5.28 0 0 1 7.93 6.72h3.316v1.6H7.929a3.681 3.681 0 1 0 0 7.362h1.163v1.6H7.93a5.28 5.28 0 0 1-5.282-5.28Zm18.705 0a5.28 5.28 0 0 0-5.28-5.281h-1.66v1.6h1.66a3.681 3.681 0 0 1 0 7.362H12.35v1.6h3.72a5.28 5.28 0 0 0 5.281-5.28Z" clip-rule="evenodd"/>
</svg>
