<svg width="14" height="12" fill="currentColor" xmlns="http://www.w3.org/2000/svg"><path fill-rule="evenodd" clip-rule="evenodd" d="M13.585 7.55a.667.667 0 0 1-.943 0L7.28 2.188 1.918 7.55a.667.667 0 1 1-.942-.943L6.809.774c.26-.26.682-.26.943 0l5.833 5.833c.26.26.26.683 0 .943Z" fill="#767F8D"/><path fill-rule="evenodd" clip-rule="evenodd" d="M13.583 11.716a.667.667 0 0 1-.943 0L7.278 6.354l-5.362 5.362a.667.667 0 0 1-.942-.942L6.807 4.94c.26-.26.682-.26.943 0l5.833 5.833c.26.26.26.683 0 .943Z" fill="#767F8D"/></svg>
