<svg xmlns="http://www.w3.org/2000/svg" fill="none" viewBox="0 0 24 24">
    <path fill="currentColor" fill-rule="evenodd" d="M11.694 9.779a.8.8 0 0 1-.494-.74v-6a.8.8 0 0 1 1.6 0v4.07l.634-.635a.8.8 0 0 1 1.132 1.132l-2 2a.8.8 0 0 1-.872.173" clip-rule="evenodd"/>
    <path fill="currentColor" fill-rule="evenodd" d="M12.566 9.606a.8.8 0 0 1-1.132 0l-2-2a.8.8 0 1 1 1.132-1.132l2 2a.8.8 0 0 1 0 1.132m-9.724 3.11c.731-1.058 2.083-1.517 4.158-1.517.552 0 .982.057 1.37.209.364.141.642.35.88.529l.03.022a1 1 0 0 1 .104.094l1.01 1.078a2.2 2.2 0 0 0 3.202.001l.003-.002 1.02-1.08a1 1 0 0 1 .101-.09l.03-.023c.239-.18.516-.388.88-.53.388-.15.818-.208 1.37-.208 2.076 0 3.427.459 4.158 1.517.35.505.502 1.075.573 1.622.07.53.07 1.101.07 1.633v1.028c0 1.451-.259 2.928-1.185 4.046-.951 1.148-2.468 1.754-4.616 1.754H8c-2.576 0-4.177-.57-5.033-1.81-.412-.596-.595-1.274-.682-1.94-.085-.65-.085-1.352-.085-2.02V15.97c0-.532 0-1.102.07-1.633.07-.547.223-1.117.572-1.622Zm1.014 1.83c-.055.417-.056.888-.056 1.453v1c0 .703.001 1.306.072 1.842.069.53.198.93.411 1.239.395.57 1.293 1.12 3.717 1.12h8c1.852 0 2.836-.514 3.384-1.176.574-.693.816-1.716.816-3.025v-1c0-.565-.001-1.036-.056-1.454-.053-.41-.151-.702-.302-.92-.269-.39-.917-.826-2.842-.826-.448 0-.658.048-.79.1-.131.05-.24.124-.475.3l-.97 1.027-.002.001a3.8 3.8 0 0 1-5.534.002l-.003-.003-.962-1.029c-.235-.175-.343-.247-.474-.299-.132-.05-.342-.099-.79-.099-1.924 0-2.573.437-2.842.826-.15.218-.249.51-.302.92Z" clip-rule="evenodd"/>
    <path fill="currentColor" fill-rule="evenodd" d="M8.797 5.961a.8.8 0 0 1-.72.874c-1.355.13-1.796.54-1.996.915-.261.49-.28 1.179-.28 2.248v2a.8.8 0 1 1-1.6 0V9.894c-.001-.92-.002-2.015.469-2.897.55-1.03 1.609-1.596 3.253-1.755a.8.8 0 0 1 .874.72Zm6.407 0a.8.8 0 0 1 .873-.719c1.645.159 2.704.725 3.254 1.755.47.882.47 1.977.47 2.897v2.104a.8.8 0 1 1-1.6 0v-2c0-1.07-.02-1.759-.282-2.248-.2-.375-.64-.784-1.996-.915a.8.8 0 0 1-.719-.874" clip-rule="evenodd"/>
</svg>
