<svg xmlns="http://www.w3.org/2000/svg" fill="none" viewBox="0 0 24 24">
    <path fill="currentColor" fill-rule="evenodd" d="M3.566 4.565C3.07 5.06 2.8 5.993 2.8 7.999v8c0 2.006.27 2.939.766 3.434.495.496 1.428.766 3.434.766h10c2.006 0 2.939-.27 3.434-.766.496-.495.766-1.428.766-3.434v-4c0-2.006-.27-2.939-.765-3.434-.496-.496-1.43-.766-3.435-.766h-3c-.572 0-1.043-.084-1.446-.328-.359-.216-.592-.525-.759-.746l-.032-.042-.003-.004-1.5-2c-.304-.405-.44-.569-.623-.679-.165-.099-.456-.2-1.137-.2H7c-2.006 0-2.939.27-3.434.765M2.435 3.434C3.439 2.429 5.005 2.199 7 2.199h1.5c.82 0 1.443.118 1.96.43.478.286.787.699 1.046 1.045l.034.045 1.499 1.998c.21.277.27.341.343.385.051.031.19.097.618.097h3c1.994 0 3.561.23 4.566 1.235 1.004 1.004 1.234 2.57 1.234 4.565v4c0 1.995-.23 3.562-1.234 4.566S18.994 21.799 17 21.799H7c-1.994 0-3.561-.23-4.565-1.234S1.2 17.993 1.2 15.999V8c0-1.994.23-3.561 1.235-4.565Z" clip-rule="evenodd"/>
    <path fill="currentColor" fill-rule="evenodd" d="M7.2 3a.8.8 0 0 1 .8-.8h9c1.123 0 2.113.28 2.816.984.703.702.984 1.692.984 2.815v1.38a.8.8 0 0 1-1.6 0V6c0-.876-.218-1.387-.515-1.684S17.877 3.8 17 3.8H8a.8.8 0 0 1-.8-.8m8.339 11.106a.8.8 0 0 1-.74.494h-6a.8.8 0 0 1 0-1.6h4.07l-.635-.634a.8.8 0 0 1 1.131-1.132l2 2a.8.8 0 0 1 .174.872" clip-rule="evenodd"/>
    <path fill="currentColor" fill-rule="evenodd" d="M15.365 13.234a.8.8 0 0 1 0 1.132l-2 2a.8.8 0 0 1-1.131-1.132l2-2a.8.8 0 0 1 1.131 0" clip-rule="evenodd"/>
</svg>
