<svg viewBox="0 0 36 37" xmlns="http://www.w3.org/2000/svg"><g clip-rule="evenodd" fill="#666c75" fill-rule="evenodd"><path d="m4.59 5.223c2.021-2.023 5.041-2.789 8.91-2.789h9c3.869 0 6.889.766 8.911 2.789 2.023 2.023 2.79 5.043 2.79 8.911v9c0 3.868-.767 6.889-2.79 8.911-2.022 2.023-5.042 2.79-8.91 2.79h-9c-3.87 0-6.89-.767-8.912-2.79s-2.789-5.043-2.789-8.91v-9c0-3.87.767-6.89 2.79-8.912zm1.695 1.697c-1.351 1.352-2.085 3.582-2.085 7.214v9c0 3.632.734 5.862 2.086 7.214 1.354 1.352 3.584 2.086 7.214 2.086h9c3.632 0 5.862-.734 7.214-2.086 1.353-1.352 2.086-3.582 2.086-7.214v-9c0-3.632-.733-5.862-2.086-7.214-1.352-1.352-3.582-2.086-7.214-2.086h-9c-3.631 0-5.861.734-7.214 2.086z"/><path d="m25.749 22.321-1.335 2.685a4.2 4.2 0 0 1 -3.759 2.328h-5.295c-.436 0-2.597-.003-3.77-2.305l-.004-.01-1.334-2.683a1.802 1.802 0 0 0 -1.612-1.002h-5.64a1.2 1.2 0 1 1 0-2.4h5.64a4.2 4.2 0 0 1 3.759 2.329v.002l1.333 2.68c.507.99 1.34.99 1.626.99h5.297a1.8 1.8 0 0 0 1.611-1.001l1.336-2.686a4.2 4.2 0 0 1 3.758-2.329h5.61a1.2 1.2 0 0 1 0 2.4h-5.61c-.68 0-1.303.386-1.611 1.002z"/></g></svg>