<svg xmlns="http://www.w3.org/2000/svg" viewBox="0 0 36 37">
    <g fill-rule="evenodd" clip-rule="evenodd" style="--default-color:#666c75;fill:var(--icon-color, var(--default-color, currentColor))">
        <path d="M4.59 5.223C6.611 3.2 9.631 2.434 13.5 2.434h9c3.869 0 6.889.766 8.911 2.789 2.023 2.023 2.79 5.043 2.79 8.911v9c0 3.868-.767 6.889-2.79 8.911-2.022 2.023-5.042 2.79-8.91 2.79h-9c-3.87 0-6.89-.767-8.912-2.79S1.8 27.002 1.8 23.135v-9c0-3.87.767-6.89 2.79-8.912M6.285 6.92C4.934 8.272 4.2 10.502 4.2 14.134v9c0 3.632.734 5.862 2.086 7.214C7.64 31.7 9.87 32.434 13.5 32.434h9c3.632 0 5.862-.734 7.214-2.086s2.086-3.582 2.086-7.214v-9c0-3.632-.733-5.862-2.086-7.214S26.132 4.834 22.5 4.834h-9c-3.631 0-5.861.734-7.214 2.086z"/>
        <path d="m25.749 22.321-1.335 2.685a4.2 4.2 0 0 1-3.759 2.328H15.36c-.436 0-2.597-.003-3.77-2.305l-.004-.01-1.334-2.683a1.8 1.8 0 0 0-1.612-1.002H3a1.2 1.2 0 1 1 0-2.4h5.64a4.2 4.2 0 0 1 3.759 2.329v.002l1.333 2.68c.507.99 1.34.99 1.626.99h5.297a1.8 1.8 0 0 0 1.611-1.001l1.336-2.686a4.2 4.2 0 0 1 3.758-2.329h5.61a1.2 1.2 0 0 1 0 2.4h-5.61c-.68 0-1.303.386-1.611 1.002"/>
    </g>
</svg>
