<svg fill="none" viewBox="0 0 37 37" xmlns="http://www.w3.org/2000/svg"><path d="m6.006 8.289a5 5 0 0 1 5-5h15a5 5 0 0 1 5 5v20a5 5 0 0 1 -5 5h-15a5 5 0 0 1 -5-5z" fill="#fbb03b"/><path d="m31.005 14.5v-6.212a5 5 0 0 0 -5-5h-6.21l11.21 11.21z" fill="#fcda21"/><path d="m19.795 3.29v6.21a5 5 0 0 0 5 5h6.211l-11.21-11.21z" fill="#f7931e"/><g clip-rule="evenodd" fill="#fff" fill-rule="evenodd"><path d="m15.479 15.51a2.09 2.09 0 1 0 .704 4.119 2.09 2.09 0 0 0 -.704-4.12zm-3.35 2.692a3.756 3.756 0 1 1 7.404-1.265 3.756 3.756 0 0 1 -7.404 1.265z"/><path d="m17.663 19.266a.833.833 0 0 1 1.164-.181l4.672 3.409a.833.833 0 1 1 -.982 1.346l-4.672-3.41a.833.833 0 0 1 -.182-1.164z"/><path d="m20.284 21.868a.833.833 0 0 1 -.19-1.163l1.003-1.394a.833.833 0 1 1 1.353.973l-1.003 1.395a.833.833 0 0 1 -1.163.19zm2.002.59a.833.833 0 0 1 -.19-1.163l1.004-1.395a.833.833 0 1 1 1.353.974l-1.003 1.394a.833.833 0 0 1 -1.163.19z"/></g></svg>