<svg xmlns="http://www.w3.org/2000/svg" fill="none" viewBox="0 0 37 37">
    <path fill="#fbb03b" d="M6.006 8.289a5 5 0 0 1 5-5h15a5 5 0 0 1 5 5v20a5 5 0 0 1-5 5h-15a5 5 0 0 1-5-5z"/>
    <path fill="#fcda21" d="M31.005 14.5V8.288a5 5 0 0 0-5-5h-6.21l11.21 11.21z"/>
    <path fill="#f7931e" d="M19.795 3.29V9.5a5 5 0 0 0 5 5h6.211z"/>
    <g fill="#fff" fill-rule="evenodd" clip-rule="evenodd">
        <path d="M15.479 15.51a2.09 2.09 0 1 0 .704 4.119 2.09 2.09 0 0 0-.704-4.12zm-3.35 2.692a3.756 3.756 0 1 1 7.404-1.265 3.756 3.756 0 0 1-7.404 1.265"/>
        <path d="M17.663 19.266a.833.833 0 0 1 1.164-.181l4.672 3.409a.833.833 0 1 1-.982 1.346l-4.672-3.41a.833.833 0 0 1-.182-1.164"/>
        <path d="M20.284 21.868a.833.833 0 0 1-.19-1.163l1.003-1.394a.833.833 0 1 1 1.353.973l-1.003 1.395a.833.833 0 0 1-1.163.19zm2.002.59a.833.833 0 0 1-.19-1.163L23.1 19.9a.833.833 0 1 1 1.353.974l-1.003 1.394a.833.833 0 0 1-1.163.19z"/>
    </g>
</svg>
