<svg xmlns="http://www.w3.org/2000/svg" fill="none" viewBox="0 0 15 15">
    <path fill="#002F9F" d="M0 0h15v15H0z"/>
    <path fill="#FFC911" d="m7.523 2.511.173.518h.552l-.007.005h.001l-.27.199-.17.124.168.525-.445-.322-.45.332.173-.532-.457-.33h.563zm.173 9.115h.552l-.007.005h.001l-.27.199-.17.124.168.525-.445-.321-.45.33.173-.531-.457-.33.563.001.17-.52zm1.967-8.52.173.517h.551l-.006.005-.27.199-.17.124.169.525-.445-.321-.45.33.172-.531-.457-.33.564.001zm-4.279 0 .173.517h.552l-.007.005-.27.199-.17.124.17.525-.446-.321-.45.33.172-.531-.457-.33.564.001zm4.452 7.926h.551l-.006.005-.27.198-.17.125.169.525-.445-.322-.45.332.172-.532-.457-.33.564.001.168-.52zm-4.28 0h.553l-.007.005-.27.198-.17.125.17.525-.446-.322-.45.332.172-.532-.457-.33.564.001.168-.52.174.518Zm5.164-5 .172-.533-.457-.33.565.001.168-.52.173.518h.552l-.007.005-.27.199-.17.124.17.526-.445-.322-.451.33zM3.84 4.65l.172.517h.552l-.007.006h.001l-.27.198-.17.125.168.525-.444-.322-.451.331.173-.532-.457-.33.564.002zm7.501 4.797h.553l-.008.005h.002l-.271.198-.17.125.169.525-.445-.322-.45.331.172-.532-.457-.33.564.002.169-.52zm-7.33 0h.553l-.007.005h.001l-.27.198-.17.125.168.525-.444-.322-.451.331.173-.532-.457-.33.564.002.168-.52.173.517Zm8.476-2.14-.007.006h.001l-.27.198-.17.125.168.525-.444-.322-.451.33.173-.53-.457-.331.564.001.168-.519.173.518zm-9.24.532-.451.332.173-.532-.457-.33h.564l.168-.519.173.518h.552l-.007.005h.001l-.27.198-.17.125.168.525z"/>
</svg>
