<svg width="20" height="20" viewBox="0 0 20 20" xmlns="http://www.w3.org/2000/svg">
    <g fill="none">
        <path
            d="M8.473 4.356A6.632 6.632 0 0 1 10 4.182c5.09 0 8 5.818 8 5.818a13.46 13.46 0 0 1-1.57 2.32m-4.888-.778a2.18 2.18 0 0 1-3.62-.67 2.181 2.181 0 0 1 .536-2.414m5.862 5.862A7.324 7.324 0 0 1 10 15.818C4.91 15.818 2 10 2 10a13.418 13.418 0 0 1 3.68-4.32l8.64 8.64ZM2 2l16 16"
            stroke="#ffffff"
            stroke-width="1.25"
            stroke-linecap="round"
            stroke-linejoin="round"
        />
    </g>
</svg>