<svg xmlns="http://www.w3.org/2000/svg" fill="none" viewBox="0 0 18 18">
    <path fill="#fff" fill-opacity=".78" d="m16.393 5.708.015.01-.335.452q-1.04 1.406-2.168 2.356l1.501 2.6a1.125 1.125 0 0 1-1.537-.411L13 9.207a7.8 7.8 0 0 1-2.063.982l.426 2.417a1.125 1.125 0 0 1-1.303-.912l-.224-1.27a7 7 0 0 1-2.201-.06l-.43 2.443-.02-.003a1.125 1.125 0 0 1-.896-1.282l.003-.018.253-1.438a8 8 0 0 1-1.973-1.053l-.083.147-1.46 2.529-.016-.01c-.52-.311-.7-.98-.405-1.51l.009-.017.894-1.548.173-.307a14 14 0 0 1-1.842-2.041l-.064-.086-.335-.451a1.14 1.14 0 0 1 1.58.216l.068.087.048.061.044.056.04.05.035.043.023.028.02.025.009.009C5.052 8.35 6.92 9.358 8.925 9.358c1.99 0 3.846-.992 5.578-3.018l.059-.07.018-.022.025-.03.023-.029.03-.038.046-.057.065-.083.059-.075a1.14 1.14 0 0 1 1.55-.239z"/>
</svg>
