<svg fill="none" viewBox="0 0 18 18" xmlns="http://www.w3.org/2000/svg"><path d="m16.3935 5.70754.015.01094-.335.45193c-.6938.9363-1.4169 1.72225-2.1687 2.35582l1.5013 2.60017c-.5381.3106-1.2262.1263-1.5368-.4118l-.8706-1.5078c-.6666.4413-1.3543.76904-2.0626.9819l.4263 2.4175c-.6119.1079-1.1954-.3007-1.3033-.9126l-.22376-1.2689c-.30172.0393-.60567.0589-.90993.0588-.43749 0-.86799-.0399-1.29143-.1195l-.43084 2.4435-.0183-.0034c-.59569-.115-.99308-.6826-.89731-1.2817l.00304-.0182.25356-1.438c-.67721-.24452-1.33509-.59597-1.97328-1.05322l-.08311.14694-1.46007 2.52898-.01604-.0095c-.52041-.3118-.69969-.9811-.40482-1.5113l.00909-.016.89395-1.54839.17325-.30631c-.63506-.57045-1.24926-1.25142-1.84222-2.04166l-.06356-.08526-.33494-.45193c.49799-.36904 1.19953-.2729 1.57987.21649l.06798.08712.04807.06117.04389.05535.03971.04957.03551.04379.02282.02774.02069.02478.00766.00911c1.74326 2.0571 3.61143 3.0648 5.61683 3.0648 1.99029 0 3.84539-.99257 5.57739-3.01843l.0591-.06966.0183-.02197.0248-.03036.0231-.02857.0306-.03823.0457-.05765.0649-.08287.0583-.0749c.3727-.48041 1.0546-.58271 1.5509-.23885z" fill="#767f8d"/></svg>