<svg viewBox="0 0 16 16" xmlns="http://www.w3.org/2000/svg"><g fill="#afc3e1"><path d="m3 4.313a2 2 0 0 1 2-2h6a2 2 0 0 1 2 2v8a2 2 0 0 1 -2 2h-6a2 2 0 0 1 -2-2z" opacity=".5"/><path d="m13 6.797v-2.484a2 2 0 0 0 -2-2h-2.484l4.484 4.483z" opacity=".1"/><path d="m8.516 2.313v2.484a2 2 0 0 0 2 2h2.484z"/></g><path clip-rule="evenodd" d="m8.68 7.61a.915.915 0 0 0 -.678-.316c-.25 0-.496.11-.68.315a1.177 1.177 0 0 0 -.291.785v.842h1.941v-.842c0-.298-.107-.58-.291-.785zm.68 1.626v-.842c0-.388-.138-.764-.39-1.044a1.306 1.306 0 0 0 -.968-.444c-.368 0-.715.163-.968.444-.253.28-.391.656-.391 1.044v.842h-.153a.622.622 0 0 0 -.626.617v1.482c0 .345.284.618.626.618h3.02a.622.622 0 0 0 .625-.617v-1.484a.622.622 0 0 0 -.626-.617h-.15zm.387.617a.233.233 0 0 0 -.237-.23h-3.02a.233.233 0 0 0 -.237.23v1.482c0 .124.103.23.238.23h3.02a.233.233 0 0 0 .236-.23v-1.481z" fill="#fff" fill-rule="evenodd"/></svg>