<svg xmlns="http://www.w3.org/2000/svg" viewBox="0 0 42 48">
    <path fill="#AFC3E1" d="M8.088 12.938c0-3.314 2.312-6 5.165-6h15.494c2.853 0 5.165 2.686 5.165 6v24c0 3.313-2.312 6-5.165 6H13.252c-2.852 0-5.164-2.687-5.164-6v-24Z" opacity=".5"/>
    <path fill="#AFC3E1" d="M33.912 20.39v-7.453c0-3.313-2.312-6-5.165-6h-6.416l11.581 13.454Z" opacity=".1"/>
    <path fill="#AFC3E1" d="M22.331 6.938v7.453c0 3.313 2.313 6 5.165 6h6.416L22.332 6.938Z"/>
    <path fill="#fff" fill-rule="evenodd" d="M22.756 22.828c-.475-.613-1.107-.945-1.754-.945-.646 0-1.279.332-1.754.945-.477.615-.752 1.462-.752 2.355v2.524h5.013v-2.524c0-.893-.276-1.74-.753-2.355Zm1.755 4.879v-2.524c0-1.165-.358-2.294-1.01-3.134-.652-.843-1.55-1.33-2.499-1.33-.948 0-1.846.487-2.499 1.33-.651.84-1.01 1.969-1.01 3.134v2.524h-.392c-.884 0-1.615.82-1.615 1.853v4.447c0 1.033.731 1.852 1.615 1.852h7.797c.884 0 1.616-.82 1.616-1.852V29.56c0-1.034-.732-1.853-1.616-1.853h-.387Zm1 1.853c0-.37-.265-.688-.613-.688h-7.797c-.347 0-.613.318-.613.688v4.447c0 .37.266.688.613.688h7.797c.348 0 .613-.318.613-.688V29.56Z" clip-rule="evenodd"/>
</svg>
