<svg xmlns="http://www.w3.org/2000/svg" viewBox="0 0 16 16">
    <g fill="#afc3e1">
        <path d="M3 4.313a2 2 0 0 1 2-2h6a2 2 0 0 1 2 2v8a2 2 0 0 1-2 2H5a2 2 0 0 1-2-2z" opacity=".5"/>
        <path d="M13 6.797V4.313a2 2 0 0 0-2-2H8.516z" opacity=".1"/>
        <path d="M8.516 2.313v2.484a2 2 0 0 0 2 2H13z"/>
    </g>
    <path fill="#fff" fill-rule="evenodd" d="M8.68 7.61a.92.92 0 0 0-.678-.316c-.25 0-.496.11-.68.315a1.18 1.18 0 0 0-.291.785v.842h1.941v-.842c0-.298-.107-.58-.291-.785zm.68 1.626v-.842c0-.388-.138-.764-.39-1.044a1.3 1.3 0 0 0-.968-.444c-.368 0-.715.163-.968.444-.253.28-.391.656-.391 1.044v.842H6.49a.62.62 0 0 0-.626.617v1.482c0 .345.284.618.626.618h3.02a.62.62 0 0 0 .625-.617V9.852a.62.62 0 0 0-.626-.617h-.15zm.387.617a.233.233 0 0 0-.237-.23H6.49a.233.233 0 0 0-.237.23v1.482c0 .124.103.23.238.23h3.02a.233.233 0 0 0 .236-.23z" clip-rule="evenodd"/>
</svg>
