<svg width="24" height="24" viewBox="0 0 24 24" fill="none" xmlns="http://www.w3.org/2000/svg">
    <path d="M21 12C21 16.9706 16.9706 21 12 21C7.02944 21 3 16.9706 3 12C3 7.02944 7.02944 3 12 3C16.9706 3 21 7.02944 21 12Z" fill="#767F8D"/>
    <path fill-rule="evenodd" clip-rule="evenodd" d="M8.53548 8.53483C8.88695 8.18336 9.4568 8.18336 9.80827 8.53483L15.4651 14.1917C15.8166 14.5432 15.8166 15.113 15.4651 15.4645C15.1137 15.816 14.5438 15.816 14.1923 15.4645L8.53548 9.80763C8.18401 9.45615 8.18401 8.88631 8.53548 8.53483Z" fill="white"/>
    <path fill-rule="evenodd" clip-rule="evenodd" d="M15.4642 8.53548C15.8157 8.88695 15.8157 9.4568 15.4642 9.80827L9.80734 15.4651C9.45586 15.8166 8.88602 15.8166 8.53454 15.4651C8.18307 15.1137 8.18307 14.5438 8.53454 14.1923L14.1914 8.53548C14.5429 8.18401 15.1127 8.18401 15.4642 8.53548Z" fill="white"/>
</svg>
