<svg xmlns="http://www.w3.org/2000/svg" viewBox="0 0 24 24">
    <path fill="currentColor" fill-rule="evenodd" d="M2.535 16.26a.8.8 0 0 1 .8-.8h7.234a.8.8 0 0 1 0 1.6H3.335a.8.8 0 0 1-.8-.8m15.249-2.08a2.08 2.08 0 1 0-.002 4.159 2.08 2.08 0 0 0 .002-4.159m-3.68 2.08a3.68 3.68 0 1 1 7.36 0 3.68 3.68 0 0 1-7.36 0m-1.475-8.523a.8.8 0 0 1 .8-.8h7.235a.8.8 0 0 1 0 1.6H13.43a.8.8 0 0 1-.8-.8Zm-10.094 0a3.68 3.68 0 1 1 7.36 0 3.68 3.68 0 0 1-7.36 0m3.68-2.08a2.08 2.08 0 1 0 0 4.16 2.08 2.08 0 0 0 0-4.16" clip-rule="evenodd"/>
</svg>
