<svg xmlns="http://www.w3.org/2000/svg" fill="none" viewBox="0 0 16 16">
    <g>
        <path id="Union" fill="currentColor" fill-rule="evenodd" d="M6.72188 10.8076H5.78685V11.2708H5.31934L5.31934 12.1972H5.78685V12.6604H6.72188V12.1972H7.18939V11.2708H6.72188V10.8076Z" clip-rule="evenodd"/>
        <path id="Subtract" fill="currentColor" fill-rule="evenodd" d="M4.27359 0.825952C4.2069 0.579937 4.35258 0.3276 4.59898 0.262341C4.84538 0.197081 5.09919 0.343614 5.16588 0.589629L5.28566 1.03146L9.19925 0L9.32101 0.446954L9.92515 0.287567L10.6609 2.99099L10.0574 3.15019L10.1798 3.5993L6.26169 4.63194L8.25688 11.992H8.05225V13.536H8.51977V13.9991H8.80099L9.17031 15.3616C9.237 15.6076 9.09132 15.8599 8.84492 15.9252C8.59852 15.9904 8.34471 15.8439 8.27802 15.5979L7.43998 12.5064H7.50125V10.9624H7.03373V10.4992H6.89586L5.3691 4.86718L1.46161 5.89703L1.33985 5.45008L0.735709 5.60947L0 2.90605L0.603454 2.74684L0.48111 2.29773L4.39307 1.26671L4.27359 0.825952ZM9.76647 13.6894L8.83427 13.6876L8.83333 13.2253L8.59108 13.2248L8.59171 13.2272H8.36393V12.3869L8.36506 12.3911L8.36487 12.3008H8.83145V12.3008V11.8385L9.50675 11.8398V11.8376H9.76647V12.2236H9.76443L9.76459 12.3026L10.1561 12.3034V12.3008H10.234V12.8669H10.2323L10.233 13.2272H9.7708L9.76647 13.2272L9.76647 13.2276V13.6894ZM10.5457 12.8669H14.052V12.2236H14.7014L14.7013 11.5802H15.3507V10.9369H16V7.72029H15.3507V6.43364H14.7013L14.7014 5.14699H14.052V4.50367H14.7014V3.86034H14.052V4.50367H13.4027V3.86034H12.7534V3.21702H11.4547V2.57369H10.8054V3.86034H11.4547V4.50367H10.8054V5.79032H10.1561V5.14699H9.50675V4.50367H10.1561V3.86034H9.50675V4.50367H8.85742V7.07697H8.20809V10.2936H8.85742V11.5288H10.0782V11.992H10.5457V12.8669ZM7.18957 11.2712V11.5827L7.10514 11.2712H7.18957ZM7.71675 1.35438L6.33262 1.71947L6.47355 2.2372L6.81958 2.14593L7.14841 3.35397L7.84048 3.17142L7.51165 1.96339L7.85768 1.87212L7.71675 1.35438ZM4.35577 2.24089L6.08594 1.78453L6.22687 2.30227L5.36178 2.53044L5.45573 2.8756L5.99209 2.73413L6.08604 3.07928L5.54969 3.22075L5.69061 3.73848L4.82553 3.96666L4.35577 2.24089ZM3.41702 2.4885L4.10909 2.30596L4.57885 4.03173L3.88678 4.21427L3.79283 3.86911L3.61981 3.91475L3.52586 3.56959L3.35284 3.61523L3.54075 4.30554L2.84868 4.48808L2.37892 2.76231L3.07099 2.57977L3.16494 2.92492L3.33796 2.87929L3.43191 3.22444L3.60493 3.17881L3.41702 2.4885ZM12.104 7.07696H12.7534V7.72028H12.104V7.07696ZM10.8054 9.00694V8.36361H13.4027V9.00694H14.052V11.5802H13.4027V12.2236H10.8054V11.5802H10.1561V9.00694H10.8054ZM10.7794 9.7532H11.2889V10.157H11.6965V10.6618H11.2889V11.0656H10.7794V10.5608H11.187V10.258H10.7794V9.7532ZM12.9492 9.7532H13.4586V10.258H13.051V10.5608H13.4586V11.0656H12.9492V10.6618H12.5416V10.157H12.9492V9.7532Z" clip-rule="evenodd"/>
    </g>
</svg>
