<svg xmlns="http://www.w3.org/2000/svg" fill="none" viewBox="0 0 16 16">
    <g fill="currentColor" fill-rule="evenodd" clip-rule="evenodd">
        <path id="FireflyNFT_svg__Union" d="M6.722 10.808h-.935v.463h-.468v.926h.468v.463h.935v-.463h.467v-.926h-.467z"/>
        <path id="FireflyNFT_svg__Subtract" d="M4.274.826a.46.46 0 0 1 .325-.564c.246-.065.5.082.567.328l.12.441L9.199 0l.122.447.604-.16.736 2.704-.604.16.123.448-3.918 1.033 1.995 7.36h-.205v1.544h.468v.463h.28l.37 1.363a.46.46 0 0 1-.326.563.465.465 0 0 1-.567-.327l-.838-3.092H7.5v-1.544h-.467V10.5h-.138L5.369 4.867l-3.907 1.03-.122-.447-.604.16L0 2.905l.603-.16-.122-.448 3.912-1.031-.12-.441Zm5.492 12.863-.932-.001v-.463H8.59v.002h-.227v-.84l.001.004v-.09h.466v-.463l.676.002v-.002h.26v.386h-.003v.079h.392v-.002h.078v.566h-.002l.001.36h-.467v.462Zm.78-.822h3.506v-.643h.65v-.644h.649v-.643H16V7.72h-.65V6.434h-.649V5.147h-.649v-.643h.65V3.86h-.65v.644h-.65V3.86h-.649v-.643h-1.298v-.643h-.65V3.86h.65v.644h-.65V5.79h-.649v-.643h-.65v-.643h.65V3.86h-.65v.644h-.649v2.573h-.649v3.217h.65v1.235h1.22v.463h.468zM7.19 11.27v.312l-.085-.312zm.527-9.917-1.384.365.14.518.347-.091.328 1.208.692-.183-.328-1.208.346-.09zm-3.361.887 1.73-.456.14.517-.864.228.094.346.536-.142.094.345-.536.142.14.517-.864.229zm-.939.248.692-.183.47 1.726-.692.182-.094-.345-.173.046-.094-.345-.173.045.188.69-.692.183-.47-1.726.692-.182.094.345.173-.046.094.345.173-.045zm8.687 4.588h.65v.643h-.65zm-1.299 1.93v-.643h2.598v.643h.649v2.573h-.65v.644h-2.597v-.644h-.649V9.007zm-.026.746h.51v.404h.408v.505h-.408v.404h-.51v-.505h.408v-.303h-.408zm2.17 0h.51v.505h-.408v.303h.408v.505h-.51v-.404h-.407v-.505h.407z"/>
    </g>
</svg>
