<svg xmlns="http://www.w3.org/2000/svg" fill="none" viewBox="0 0 24 24">
    <g fill="currentColor" fill-rule="evenodd" clip-rule="evenodd">
        <path d="M4.89 1.2a.8.8 0 0 1 .8.8v20a.8.8 0 0 1-1.6 0V2a.8.8 0 0 1 .8-.8"/>
        <path d="M4.09 4a.8.8 0 0 1 .8-.8h11.2c.74 0 1.398.102 1.934.326.542.228 1.005.603 1.232 1.16.226.554.16 1.146-.064 1.687-.222.537-.616 1.072-1.137 1.593l-1.2 1.2c-.51.51-.452 1.27-.038 1.632l.038.037 1.2 1.2c.99.99 1.63 2.191 1.158 3.293-.467 1.09-1.766 1.472-3.123 1.472H4.89a.8.8 0 0 1 0-1.6h11.2c1.243 0 1.594-.367 1.652-.502.053-.124.092-.622-.818-1.532l-1.183-1.183c-1.164-1.042-1.1-2.865-.017-3.948l1.2-1.2c.43-.43.674-.794.79-1.074.113-.274.084-.413.06-.471-.023-.057-.098-.175-.369-.288-.276-.116-.705-.202-1.315-.202H4.89a.8.8 0 0 1-.8-.8"/>
    </g>
</svg>
