<svg width="24" height="24" viewBox="0 0 24 24" xmlns="http://www.w3.org/2000/svg">
<g>
        <path
            d="M12 0C5.37258 0 0 5.37258 0 12C0 18.6274 5.37258 24 12 24C18.6274 24 24 18.6274 24 12C24 5.37258 18.6274 0 12 0ZM12 1.14286C17.9962 1.14286 22.8571 6.00377 22.8571 12C22.8571 17.9962 17.9962 22.8571 12 22.8571C6.00377 22.8571 1.14286 17.9962 1.14286 12C1.14286 6.00377 6.00377 1.14286 12 1.14286Z"
            fill="#2F3249"
        />
        <path
            d="M11.9997 22.8574C17.996 22.8574 22.8569 17.9964 22.8569 12.0002C22.8569 6.00397 17.996 1.14307 11.9997 1.14307C6.00349 1.14307 1.14258 6.00397 1.14258 12.0002C1.14258 17.9964 6.00349 22.8574 11.9997 22.8574Z"
            fill="url(#paint0_radial_3012_21937)"
        />
        <path
            d="M11.7032 18.0469L11.3545 18.664L11.8173 18.9356C11.8752 18.9729 11.9429 18.9922 12.0117 18.9911C12.0776 18.9901 12.1421 18.9732 12.2 18.9417L12.6628 18.6702L12.3172 18.053L11.7032 18.0469Z"
            fill="white"
        />
        <path d="M13.7428 10.2773L12.7646 10.8575L13.1534 11.5301L14.1254 10.9531L13.7428 10.2773Z" fill="white" />
        <path d="M16.3969 9.63817L16.0143 8.9624L15.0361 9.54252L15.4249 10.2121L16.3969 9.63817Z" fill="white" />
        <path
            d="M18.1303 8.01553L17.6706 7.74707L17.291 8.31484L17.652 8.93199L18.3216 8.88261V8.3457C18.3194 8.20993 18.247 8.08501 18.1303 8.01553Z"
            fill="white"
        />
        <path d="M14.5394 5.9634L13.6816 5.45117L13.2959 6.12694L14.1568 6.63609L14.5394 5.9634Z" fill="white" />
        <path d="M16.4828 7.10207L15.625 6.58984L15.2393 7.26561L16.1002 7.77476L16.4828 7.10207Z" fill="white" />
        <path
            d="M11.8232 4.6272L11.3604 4.90183L11.7522 5.5776L12.0176 5.41406L12.2861 5.57143L12.678 4.89875L12.2182 4.6272C12.0969 4.5533 11.9445 4.5533 11.8232 4.6272Z"
            fill="white"
        />
        <path d="M17.5508 12.3849L17.557 13.397L18.3222 13.3939L18.3191 12.3818L17.5508 12.3849Z" fill="white" />
        <path d="M17.5508 10.1105L17.557 11.1195H18.3222L18.3191 10.1074L17.5508 10.1105Z" fill="white" />
        <path
            d="M17.5476 14.9088L17.2822 15.0693L17.6741 15.7419L18.1339 15.4673C18.2508 15.3955 18.322 15.2682 18.3221 15.131V14.5879H17.5476V14.9088Z"
            fill="white"
        />
        <path d="M15.3506 16.14L15.7332 16.8158L16.591 16.3066L16.2084 15.6309L15.3506 16.14Z" fill="white" />
        <path d="M13.4033 17.3032L13.789 17.9759L14.6469 17.4668L14.2642 16.791L13.4033 17.3032Z" fill="white" />
        <path d="M11.632 17.0103L12.4003 17.0072L12.3972 15.9951L11.6289 15.9982L11.632 17.0103Z" fill="white" />
        <path d="M12.3972 11.9741L11.6289 11.9772L11.632 12.9893L12.4003 12.9862L12.3972 11.9741Z" fill="white" />
        <path d="M11.632 15.0015L12.4003 14.9984L12.3972 13.9863L11.6289 13.9894L11.632 15.0015Z" fill="white" />
        <path d="M6.4853 11.1781L6.48221 10.166L5.71387 10.1691L5.71695 11.1812L6.4853 11.1781Z" fill="white" />
        <path d="M6.4853 13.4584L6.48221 12.4463L5.71387 12.4494L5.71695 13.4615L6.4853 13.4584Z" fill="white" />
        <path
            d="M6.48838 14.5879H5.71387V15.131C5.71519 15.2686 5.78754 15.3958 5.90518 15.4673L6.36495 15.7419L6.75684 15.0693L6.48838 14.9088V14.5879Z"
            fill="white"
        />
        <path d="M7.43555 16.3066L8.29337 16.8158L8.676 16.14L7.81818 15.6309L7.43555 16.3066Z" fill="white" />
        <path d="M9.37695 17.4668L10.2379 17.9759L10.6205 17.3032L9.76267 16.791L9.37695 17.4668Z" fill="white" />
        <path d="M10.7374 6.12694L10.3547 5.45117L9.5 5.9634L9.88263 6.63917L10.7374 6.12694Z" fill="white" />
        <path d="M8.79643 7.26561L8.41072 6.58984L7.5498 7.10207L7.9386 7.77476L8.79643 7.26561Z" fill="white" />
        <path d="M9.90723 10.9531L10.8854 11.5301L11.268 10.8544L10.2929 10.2773L9.90723 10.9531Z" fill="white" />
        <path d="M7.63672 9.63817L8.61489 10.2121L8.99752 9.54252L8.02243 8.9624L7.63672 9.63817Z" fill="white" />
        <path
            d="M6.74758 8.31484L6.36804 7.74707L5.90827 8.01553C5.79079 8.08611 5.71749 8.21178 5.71387 8.34878V8.8857L6.38655 8.93507L6.74758 8.31484Z"
            fill="white"
        />
        <defs>
            <radialGradient
                id="paint0_radial_3012_21937"
                cx="0"
                cy="0"
                r="1"
                gradient-units="userSpaceOnUse"
                gradient-transform="translate(11.9997 12.4603) scale(10.8064)">
                <stop stop-color="#1D1E27" />
                <stop offset="0.220033" stop-color="#1F202A" />
                <stop offset="0.75923" stop-color="#20222E" />
                <stop offset="1" stop-color="#191A21" />
            </radialGradient>
        </defs>
    </g>
</svg>
  