<svg xmlns="http://www.w3.org/2000/svg" viewBox="0 0 24 24">
    <path fill="#2F3249" d="M12 0C5.373 0 0 5.373 0 12s5.373 12 12 12 12-5.373 12-12S18.627 0 12 0Zm0 1.143c5.996 0 10.857 4.86 10.857 10.857 0 5.996-4.86 10.857-10.857 10.857-5.996 0-10.857-4.86-10.857-10.857C1.143 6.004 6.003 1.143 12 1.143Z"/>
    <path fill="url(#Furucombo_svg__a)" d="M12 22.857c5.996 0 10.857-4.86 10.857-10.857 0-5.996-4.861-10.857-10.857-10.857C6.003 1.143 1.143 6.004 1.143 12c0 5.996 4.86 10.857 10.857 10.857Z"/>
    <path fill="#fff" d="m11.703 18.047-.348.617.462.272a.349.349 0 0 0 .195.055.407.407 0 0 0 .188-.05l.463-.27-.346-.618-.614-.006Zm2.04-7.77-.978.58.388.673.972-.577-.382-.676Zm2.654-.639-.383-.676-.978.58.389.67.972-.574Zm1.733-1.622-.46-.269-.379.568.361.617.67-.05v-.536a.392.392 0 0 0-.192-.33Zm-3.59-2.053-.858-.512-.386.676.86.51.383-.674Zm1.943 1.139-.858-.512-.386.676.861.509.383-.673Zm-4.66-2.475-.463.275.392.676.266-.164.268.157.392-.672-.46-.272a.38.38 0 0 0-.395 0Zm5.727 7.758.007 1.012.765-.003-.003-1.012-.768.003Zm0-2.275.007 1.01h.765l-.003-1.013-.768.004Zm-.002 4.799-.266.16.392.673.46-.275a.395.395 0 0 0 .188-.336v-.543h-.774v.32ZM15.35 16.14l.383.676.858-.51-.383-.675-.857.509Zm-1.947 1.163.386.673.858-.51-.383-.675-.86.512Zm-1.771-.293.768-.003-.003-1.012-.768.003.003 1.012Zm.765-5.036-.768.003.003 1.012.768-.003-.003-1.012Zm-.765 3.028.768-.004-.003-1.012-.768.003.003 1.012Zm-5.147-3.824-.003-1.012-.768.003.003 1.012.768-.003Zm0 2.28-.003-1.012-.768.003.003 1.012.768-.003Zm.003 1.13h-.774v.543a.398.398 0 0 0 .191.336l.46.275.392-.673-.269-.16v-.321Zm.948 1.719.857.509.383-.676-.858-.51-.382.677Zm1.941 1.16.86.509.383-.673-.857-.512-.386.676Zm1.36-11.34-.382-.676-.855.512.383.676.854-.512ZM8.796 7.266l-.385-.676-.861.512.389.673.857-.51Zm1.111 3.687.978.577.383-.676-.975-.577-.386.676Zm-2.27-1.315.978.574.383-.67-.976-.58-.385.676Zm-.889-1.323-.38-.568-.46.269a.401.401 0 0 0-.194.333v.537l.673.05.36-.621Z"/>
    <defs>
        <radialGradient id="Furucombo_svg__a" cx="0" cy="0" r="1">
            <stop stop-color="#1D1E27"/>
            <stop offset=".22" stop-color="#1F202A"/>
            <stop offset=".759" stop-color="#20222E"/>
            <stop offset="1" stop-color="#191A21"/>
        </radialGradient>
    </defs>
</svg>
