<svg fill="none" viewBox="0 0 24 24" xmlns="http://www.w3.org/2000/svg"><g clip-rule="evenodd" fill="#767f8d" fill-rule="evenodd"><path d="m4.92 3.338c-.354.327-.62.85-.62 1.662v16.2h12.4v-16.2c0-.811-.265-1.335-.62-1.662-.364-.336-.906-.538-1.58-.538h-8c-.674 0-1.215.202-1.58.538zm-1.084-1.176c.72-.664 1.678-.962 2.664-.962h8c.986 0 1.945.298 2.665.962.73.674 1.135 1.65 1.135 2.838v17a.8.8 0 0 1 -.8.8h-14a.8.8 0 0 1 -.8-.8v-17c0-1.188.405-2.164 1.136-2.838z"/><path d="m1.2 22a.8.8 0 0 1 .8-.8h17a.8.8 0 0 1 0 1.6h-17a.8.8 0 0 1 -.8-.8zm5.33-17.189c.538-.47 1.226-.62 1.86-.62h4.23c.635 0 1.323.15 1.861.62.558.487.83 1.205.83 2.07v1.23c0 .864-.272 1.582-.83 2.069-.538.47-1.226.62-1.86.62h-4.231c-.635 0-1.323-.15-1.862-.62-.558-.487-.829-1.205-.829-2.07v-1.23c0-.864.271-1.582.83-2.069zm1.05 1.206c-.127.11-.28.338-.28.863v1.23c0 .526.153.753.28.864.147.128.404.226.81.226h4.23c.405 0 .662-.098.808-.226.127-.11.281-.338.281-.864v-1.23c0-.525-.154-.752-.28-.863-.147-.128-.404-.227-.81-.227h-4.229c-.405 0-.662.1-.809.227zm4.258 6.187a.8.8 0 0 1 0 1.131l-1.741 1.741h2.738a.8.8 0 0 1 .584 1.346l-3.134 3.355a.8.8 0 1 1 -1.169-1.092l1.876-2.009h-2.827a.8.8 0 0 1 -.565-1.366l3.107-3.107a.8.8 0 0 1 1.131 0zm7.447-3.561a.8.8 0 0 1 1.073-.358l2 1a.8.8 0 0 1 .442.715v6a.8.8 0 0 1 -.798.8l-4.5.01a.8.8 0 0 1 -.004-1.6l3.702-.008v-4.707l-1.558-.78a.8.8 0 0 1 -.357-1.072z"/></g></svg>