<svg xmlns="http://www.w3.org/2000/svg" viewBox="0 0 14 14">
    <path d="M7 4.473A2.53 2.53 0 0 0 4.474 7 2.53 2.53 0 0 0 7 9.526 2.53 2.53 0 0 0 9.527 7 2.53 2.53 0 0 0 7 4.473m0 4.053A1.53 1.53 0 0 1 5.474 7c0-.843.686-1.527 1.526-1.527S8.527 6.157 8.527 7 7.842 8.526 7 8.526"/>
    <path d="M7.24 13.917h-.481A1.507 1.507 0 0 1 5.25 12.54l-.01-.098a.51.51 0 0 0-.314-.43.51.51 0 0 0-.532.077l-.078.065c-.578.483-1.502.442-2.04-.094l-.34-.34a1.51 1.51 0 0 1-.093-2.04l.065-.078a.51.51 0 0 0 .082-.525.51.51 0 0 0-.431-.32l-.1-.01A1.507 1.507 0 0 1 .082 7.242V6.76c0-.788.592-1.436 1.376-1.508l.104-.01a.518.518 0 0 0 .348-.845l-.063-.077a1.51 1.51 0 0 1 .092-2.04l.341-.341c.536-.536 1.459-.577 2.04-.093l.077.065a.518.518 0 0 0 .845-.347l.01-.102A1.506 1.506 0 0 1 6.758.083h.482c.788 0 1.436.592 1.508 1.376l.009.104a.51.51 0 0 0 .315.427.51.51 0 0 0 .529-.078l.08-.068c.578-.482 1.503-.441 2.04.093l.34.342c.557.558.597 1.435.093 2.04l-.066.078a.5.5 0 0 0-.082.526c.074.18.24.3.43.318l.102.01c.786.07 1.378.72 1.378 1.508v.482c0 .788-.592 1.436-1.376 1.508l-.104.009a.51.51 0 0 0-.426.313.51.51 0 0 0 .078.53l.066.08c.504.604.464 1.48-.093 2.04l-.34.34c-.538.536-1.46.576-2.04.094l-.077-.064a.52.52 0 0 0-.846.349l-.01.1a1.506 1.506 0 0 1-1.508 1.373zM4.725 10.97q.301 0 .58.117c.526.218.882.702.933 1.264l.01.098a.51.51 0 0 0 .513.466h.481c.267 0 .487-.2.512-.466l.01-.1a1.51 1.51 0 0 1 .927-1.26 1.52 1.52 0 0 1 1.556.233l.075.063a.51.51 0 0 0 .693-.032l.34-.34a.51.51 0 0 0 .032-.692l-.067-.08a1.51 1.51 0 0 1-.235-1.548c.218-.527.702-.88 1.263-.932l.103-.01a.513.513 0 0 0 .467-.512v-.482a.514.514 0 0 0-.468-.512l-.101-.01a1.51 1.51 0 0 1-1.264-.928 1.51 1.51 0 0 1 .236-1.551l.066-.079a.51.51 0 0 0-.032-.693l-.34-.34a.51.51 0 0 0-.692-.031l-.08.066a1.54 1.54 0 0 1-1.548.236 1.51 1.51 0 0 1-.931-1.264l-.01-.103a.51.51 0 0 0-.51-.467H6.76a.514.514 0 0 0-.512.468l-.009.102a1.51 1.51 0 0 1-.927 1.262 1.52 1.52 0 0 1-1.553-.234l-.079-.064a.51.51 0 0 0-.694.03l-.341.34a.51.51 0 0 0-.03.693l.066.079a1.516 1.516 0 0 1-1.029 2.48l-.104.01a.513.513 0 0 0-.466.514v.48c0 .268.202.488.468.513l.1.01a1.51 1.51 0 0 1 1.264.93 1.51 1.51 0 0 1-.235 1.55l-.064.077a.51.51 0 0 0 .03.693l.34.34a.51.51 0 0 0 .693.031l.077-.064c.27-.224.615-.35.969-.35v-.001Z"/>
</svg>
