<svg xmlns="http://www.w3.org/2000/svg" fill="none" viewBox="0 0 24 24">
    <g fill="#f5f5f5">
        <path d="m22.153 11.134-4.345-7.528a1.75 1.75 0 0 0-1.512-.872h-8.59c-.682 0-1.32.368-1.66.959l-4.298 7.441a1.74 1.74 0 0 0 0 1.744l4.346 7.526c.311.539.888.872 1.511.872h8.691c.621 0 1.2-.335 1.512-.872l4.345-7.526c.31-.539.31-1.207 0-1.744m-1.422.924-4.346 7.526a.1.1 0 0 1-.089.051h-8.69a.1.1 0 0 1-.09-.051l-4.345-7.526a.1.1 0 0 1 0-.103l4.296-7.44a.28.28 0 0 1 .24-.138h8.59a.1.1 0 0 1 .088.052l4.345 7.526c.02.03.02.07 0 .103z"/>
        <path d="M11.95 8.447a3.56 3.56 0 0 0-3.557 3.558 3.56 3.56 0 0 0 3.557 3.558 3.56 3.56 0 0 0 3.558-3.556 3.564 3.564 0 0 0-3.558-3.56m0 5.478a1.92 1.92 0 0 1-1.917-1.918 1.92 1.92 0 0 1 1.917-1.917 1.92 1.92 0 0 1 1.918 1.917 1.92 1.92 0 0 1-1.918 1.918"/>
    </g>
</svg>
