<svg xmlns="http://www.w3.org/2000/svg" viewBox="0 0 24 25">
    <path d="m22.153 11.27-4.345-7.53a1.75 1.75 0 0 0-1.512-.872h-8.59c-.682 0-1.32.368-1.66.959l-4.298 7.441a1.74 1.74 0 0 0 0 1.744l4.346 7.526c.311.539.888.871 1.511.871h8.691c.621 0 1.2-.335 1.512-.871l4.345-7.526c.31-.54.31-1.207 0-1.744zm-1.422.923-4.346 7.525a.1.1 0 0 1-.089.052h-8.69a.1.1 0 0 1-.09-.052l-4.345-7.525a.1.1 0 0 1 0-.104L7.467 4.65a.28.28 0 0 1 .24-.138h8.59a.1.1 0 0 1 .088.052l4.345 7.525c.02.03.02.07 0 .104z"/>
    <path d="M11.95 8.582a3.56 3.56 0 0 0-3.557 3.558 3.56 3.56 0 0 0 3.557 3.558 3.56 3.56 0 0 0 3.558-3.556 3.564 3.564 0 0 0-3.558-3.56m0 5.477a1.92 1.92 0 0 1-1.917-1.917 1.92 1.92 0 0 1 1.917-1.917 1.92 1.92 0 0 1 1.918 1.917 1.92 1.92 0 0 1-1.918 1.917"/>
</svg>
