<svg xmlns="http://www.w3.org/2000/svg" fill="none" viewBox="0 0 21 20">
    <path fill="#07101B" fill-rule="evenodd" d="M10.5 18.333a8.333 8.333 0 1 0 0-16.666 8.333 8.333 0 0 0 0 16.666m7.14-8.176.001.014v-.014Zm0 0a7.2 7.2 0 0 0-.156-1.602q.006.186-.005.4.126.594.162 1.202ZM3.51 8.58a7.14 7.14 0 0 0 1.52 6.062 7.14 7.14 0 0 0 4.232 2.44 2.8 2.8 0 0 1 .946-.128 9 9 0 0 1-.056-1.26s-1.673-1.194-1.673-1.97c0-.333.039-.589.067-.773.037-.248.055-.366-.067-.366-.16 0-.314.036-.45.067-.23.053-.406.093-.468-.067-.285-.741-.885-.968-.918-.968-1.132-.021-1.177-1.358-1.177-2.606 0-.272-.222-.365-.465-.468-.093-.04-.19-.08-.278-.133-.177.494-.905.501-1.213.171Zm8.254 8.189c.296-.078.458.02.494.202h.001a7.15 7.15 0 0 0 5.104-4.939c-.549 1.177-1.662 1.455-1.425.76-.219-.353-.554-.848-.906-1.176-.669-.625-1.19-1.717.846-3.282-.38-1.016.74-1.85 1.202-.698a.3.3 0 0 1 .17.078 7.145 7.145 0 0 0-6.665-4.798c1.526.159 1.64 1.653.613 1.492-.024.364-.06.853-.104 1.275-.047.449-.39.548-.705.64-.203.058-.396.114-.49.258-.237.36.438.742 1.2.565.111-.026.106-.103.102-.176-.004-.06-.008-.118.057-.14.42-.141.945-.087.97-.02.032.081-.205.498-.534 1.077-.142.249-.3.528-.462.823-.093.173-.058.443-.027.68.014.107.027.208.027.29 0 1.556-.503.644-.858.003-.15-.272-.273-.495-.32-.463-.098.065-.358 0-.616-.063-.198-.05-.396-.098-.52-.088-.143.011-.18.163-.218.313-.037.152-.074.301-.221.297-.338-.008-.418-.063-.427-.054-.005.006.014.034.02.108q.005.081.02.21c.032.317.086.849.086 1.535 0 .161.204.103.454.032.171-.048.363-.103.525-.096.3.01.526.179.73.33.102.076.199.148.296.194.258.122.504.354.732.57.258.243.494.465.696.482.183.016.216.16.248.299.034.151.067.296.29.262.542-.08 1.17.606.458 1.224-.472.41-.597.944-.814 1.872z" clip-rule="evenodd"/>
</svg>
