<svg xmlns="http://www.w3.org/2000/svg" fill="none" viewBox="0 0 24 24">
    <path fill="#767F8D" fill-rule="evenodd" d="M12 22c5.523 0 10-4.477 10-10S17.523 2 12 2 2 6.477 2 12s4.477 10 10 10Zm8.569-9.812v.017-.017Zm0 0a8.59 8.59 0 0 0-.188-1.922 5.69 5.69 0 0 1-.006.479c.1.476.165.958.194 1.443Zm-16.957-1.89A8.569 8.569 0 0 0 10.515 20.5a3.33 3.33 0 0 1 1.135-.155 10.778 10.778 0 0 1-.068-1.512S9.575 17.4 9.575 16.469c0-.4.046-.707.08-.928.045-.297.067-.439-.08-.439a2.41 2.41 0 0 0-.54.08c-.275.064-.487.112-.562-.08-.342-.89-1.062-1.162-1.1-1.162-1.36-.025-1.413-1.629-1.413-3.126 0-.327-.267-.44-.559-.562-.112-.048-.228-.096-.334-.16-.212.593-1.085.602-1.455.205Zm9.905 9.826c.355-.094.549.025.593.242a8.583 8.583 0 0 0 6.126-5.926c-.659 1.412-1.995 1.745-1.71.912-.263-.425-.665-1.018-1.088-1.412-.802-.75-1.427-2.06 1.015-3.938-.456-1.22.89-2.22 1.443-.837a.35.35 0 0 1 .204.093A8.573 8.573 0 0 0 12.102 3.5c1.831.191 1.968 1.984.735 1.791a43.78 43.78 0 0 1-.125 1.53c-.056.538-.466.657-.845.767-.244.07-.475.138-.589.31-.283.432.527.89 1.442.678.132-.03.127-.123.121-.21-.005-.074-.009-.143.069-.168.503-.17 1.133-.106 1.165-.026.037.098-.247.598-.642 1.294-.17.298-.36.633-.555.988-.111.206-.07.53-.032.815.017.129.032.25.032.347 0 1.868-.603.774-1.029.004-.18-.325-.328-.593-.384-.555-.118.078-.43 0-.739-.076-.238-.059-.476-.117-.624-.105-.172.013-.217.196-.261.375-.046.183-.09.362-.266.357-.406-.01-.502-.076-.512-.064-.007.006.016.04.023.13.005.063.013.147.024.251.039.38.103 1.018.103 1.842 0 .193.246.124.545.039.206-.059.437-.124.63-.117.36.014.632.216.877.398.122.09.238.176.355.231.309.147.604.426.878.684.31.293.593.559.835.579.22.019.26.192.297.359.042.181.081.355.348.314.652-.096 1.404.728.55 1.47-.567.49-.716 1.131-.977 2.245-.01.048-.022.097-.034.147Z" clip-rule="evenodd"/>
</svg>
