<svg xmlns="http://www.w3.org/2000/svg" fill="none" viewBox="0 0 24 24">
    <path fill="currentColor" d="M12 1.5C6.2 1.5 1.5 6.2 1.5 12S6.2 22.5 12 22.5 22.5 17.8 22.5 12 17.8 1.5 12 1.5M9.047 5.9c-.878.484-1.22.574-1.486.858-.263.284-.663 1.597-.84 1.712s-1.462.154-1.462.154 2.148 1.674 2.853 1.832 2.43-.21 2.77-.142c.342.07 2.116 1.67 2.324 2.074s.166 1.748-.038 1.944-1.183 1.09-1.393 1.39-1.894 4.078-2.094 4.08c-.2 0-.62-.564-.73-.848s-.427-4.012-.59-4.263c-.163-.25-1.126-.82-1.276-1.026s-.552-1.387-.527-1.617c.024-.23.492-1.007.374-1.214s-2.207-1.033-2.61-1.18a39 39 0 0 0-.983-.332 9.08 9.08 0 0 1 8.52-6.38s.125-.018.186.14c.11.286.256 1.078.092 1.345-.143.23-2.21.99-3.088 1.474zm11.144 8.24c-.21-.383-1.222-2.35-1.593-2.684-.23-.208-2.2-.912-2.55-1.09-.352-.177-1.258-.997-1.267-1.213-.01-.216 1.115-1.204 1.15-1.524.056-.49-1.882-1.835-1.897-2.054-.015-.22.147-.66.31-.81.403-.36 3.19.04 3.556.36 2 1.757 3.168 4.126 3.168 6.873 0 .776-.18 1.912-.282 2.18-.08.21-.443.232-.595-.04z"/>
</svg>
