<svg xmlns="http://www.w3.org/2000/svg" fill="none" viewBox="0 0 24 24">
    <path fill="currentColor" fill-rule="evenodd" d="M3.743 3.919c-.63.677-.974 1.703-.974 3.08v10c0 1.378.344 2.403.974 3.08.619.668 1.628 1.12 3.226 1.12h7.375a.8.8 0 1 1 0 1.6H6.969c-1.903 0-3.393-.547-4.399-1.63-.996-1.073-1.401-2.547-1.401-4.17V7c0-1.622.405-3.097 1.401-4.17C3.576 1.748 5.066 1.2 6.97 1.2h8c1.902 0 3.393.548 4.399 1.63.995 1.073 1.4 2.548 1.4 4.17v4.205a.8.8 0 1 1-1.6 0V6.999c0-1.377-.343-2.403-.973-3.08-.62-.667-1.628-1.12-3.226-1.12h-8c-1.598 0-2.607.453-3.226 1.12Z" clip-rule="evenodd"/>
    <path fill="currentColor" fill-rule="evenodd" d="M18.95 14.418a3.442 3.442 0 1 0 0 6.884 3.442 3.442 0 0 0 0-6.884m-4.842 3.442a4.842 4.842 0 1 1 9.684 0 4.842 4.842 0 0 1-9.684 0" clip-rule="evenodd"/>
    <path fill="currentColor" fill-rule="evenodd" d="M18.949 14.895a.7.7 0 0 1 .7.7v2.278a.7.7 0 1 1-1.4 0v-2.279a.7.7 0 0 1 .7-.7Z" clip-rule="evenodd"/>
    <path fill="currentColor" fill-rule="evenodd" d="M18.343 17.522a.7.7 0 0 1 .957-.256l1.668.963a.7.7 0 1 1-.7 1.213l-1.668-.963a.7.7 0 0 1-.257-.957M14.95 2a.8.8 0 0 1 .8.8v2c0 .658.542 1.2 1.2 1.2h2a.8.8 0 0 1 0 1.6h-2a2.806 2.806 0 0 1-2.8-2.8v-2a.8.8 0 0 1 .8-.8m-8.783 8.388a.8.8 0 0 1 .8-.8h6a.8.8 0 0 1 0 1.6h-6a.8.8 0 0 1-.8-.8m0 4.85a.8.8 0 0 1 .8-.8h4.814a.8.8 0 0 1 0 1.6H6.967a.8.8 0 0 1-.8-.8" clip-rule="evenodd"/>
</svg>
