<svg fill="none" viewBox="0 0 24 24" xmlns="http://www.w3.org/2000/svg"><circle cx="12" cy="12" fill="#f30000" r="12"/><path d="m6.821 11.352h-3.001v-2.86h-1.105v7.014h1.105v-3.193h3v3.194h1.107v-7.015h-1.106zm7.976-2.86h-1.23l-2.668 3.317h-.028v-3.317h-1.106v7.014h1.106v-2.115l1.076-1.316 1.982 3.432h1.23l-2.535-4.31 2.172-2.705zm3.105 0h-1.82v7.012h1.879c2.097 0 3.325-1.257 3.325-3.535 0-2.284-1.23-3.477-3.384-3.477zm-.077 6.108h-.638v-5.211h.638c1.505 0 2.316.83 2.316 2.582 0 1.743-.809 2.629-2.316 2.629z" fill="#fff"/></svg>