<svg xmlns="http://www.w3.org/2000/svg" fill="none" viewBox="0 0 24 24">
    <circle cx="12" cy="12" r="12" fill="#f30000"/>
    <path fill="#fff" d="M6.821 11.352H3.82v-2.86H2.715v7.014H3.82v-3.193h3v3.194h1.107V8.492H6.821zm7.976-2.86h-1.23l-2.668 3.317h-.028V8.492H9.765v7.014h1.106v-2.115l1.076-1.316 1.982 3.432h1.23l-2.535-4.31zm3.105 0h-1.82v7.012h1.879c2.097 0 3.325-1.257 3.325-3.535 0-2.284-1.23-3.477-3.384-3.477m-.077 6.108h-.638V9.389h.638c1.505 0 2.316.83 2.316 2.582 0 1.743-.809 2.629-2.316 2.629"/>
</svg>
