<svg xmlns="http://www.w3.org/2000/svg" fill="none" viewBox="0 0 15 15">
    <path fill="#F93939" d="M0 0h15v15H0z"/>
    <path fill="#fff" fill-rule="evenodd" d="M7.155 7.514C4.443 6.366 5.645 2.83 8.24 3.006c-.526.27-.602.774-.302 1.24.336.524-.03 1.365-.484 1.57-.746.335-.895 1.23-.3 1.698zm.227-.122c.253-2.933 3.99-2.883 4.62-.362-.418-.415-.92-.332-1.272.098-.393.48-1.306.39-1.64.023-.55-.604-1.45-.47-1.708.242zm.092.293c2.88-.615 3.924 2.972 1.697 4.314.276-.523.05-.98-.464-1.19-.574-.236-.756-1.135-.502-1.562.418-.703.026-1.523-.73-1.563ZM3.75 10.98c.58.1.945-.257.986-.81.047-.62.845-1.07 1.33-.96.798.18 1.457-.446 1.26-1.178 1.476 2.55-1.613 4.65-3.577 2.947h.001ZM3.153 5.5c.115.578.578.79 1.11.63.595-.178 1.302.406 1.373.9.118.808.938 1.198 1.55.754-1.85 2.29-4.92.16-4.033-2.285Z" clip-rule="evenodd"/>
</svg>
