<svg width="20" height="20" viewBox="0 0 20 20" xmlns="http://www.w3.org/2000/svg">
    <g clipRule="evenodd" fill="#fff" fillRule="evenodd">
        <path d="m15 12.158a.6.6 0 0 1 .6.6v4.062a.6.6 0 1 1 -1.2 0v-4.062a.6.6 0 0 1 .6-.6z" />
        <path d="m17.632 14.79a.6.6 0 0 1 -.6.6h-4.065a.6.6 0 1 1 0-1.2h4.065a.6.6 0 0 1 .6.6zm-8.834-12.38a2.992 2.992 0 1 0 0 5.984 2.992 2.992 0 0 0 0-5.984zm-4.192 2.992a4.192 4.192 0 1 1 8.384 0 4.192 4.192 0 0 1 -8.384 0z" />
        <path d="m6.019 8.987a7.798 7.798 0 0 1 8.498 1.69.6.6 0 1 1 -.849.849 6.597 6.597 0 0 0 -11.262 4.664.6.6 0 0 1 -1.2 0 7.797 7.797 0 0 1 4.813-7.204z" />
    </g>
</svg>
