<svg xmlns="http://www.w3.org/2000/svg" fill="none" viewBox="0 0 24 24">
    <g fill="#767f8d" fill-rule="evenodd" clip-rule="evenodd">
        <path d="M19.999 16.21a.8.8 0 0 1 .8.8v5.417a.8.8 0 1 1-1.6 0v-5.416a.8.8 0 0 1 .8-.8z"/>
        <path d="M23.509 19.72a.8.8 0 0 1-.8.8h-5.42a.8.8 0 1 1 0-1.6h5.42a.8.8 0 0 1 .8.8M11.73 3.213a3.99 3.99 0 1 0 0 7.979 3.99 3.99 0 0 0 0-7.979m-5.588 3.99a5.59 5.59 0 1 1 11.178 0 5.59 5.59 0 0 1-11.178 0"/>
        <path d="M8.025 11.983a10.4 10.4 0 0 1 11.33 2.253.8.8 0 0 1-1.13 1.132 8.797 8.797 0 0 0-15.018 6.22.8.8 0 0 1-1.6 0 10.4 10.4 0 0 1 6.418-9.605"/>
    </g>
</svg>
