<svg xmlns="http://www.w3.org/2000/svg" fill="none" viewBox="0 0 24 24">
    <path fill="#767F8D" fill-rule="evenodd" d="M19.999 16.21a.8.8 0 0 1 .8.8v5.417a.8.8 0 1 1-1.6 0v-5.416a.8.8 0 0 1 .8-.8Z" clip-rule="evenodd"/>
    <path fill="#767F8D" fill-rule="evenodd" d="M23.509 19.72a.8.8 0 0 1-.8.8h-5.42a.8.8 0 1 1 0-1.6h5.42a.8.8 0 0 1 .8.8ZM11.73 3.213a3.99 3.99 0 1 0 0 7.979 3.99 3.99 0 0 0 0-7.979Zm-5.588 3.99a5.59 5.59 0 1 1 11.178 0 5.59 5.59 0 0 1-11.178 0Z" clip-rule="evenodd"/>
    <path fill="#767F8D" fill-rule="evenodd" d="M8.025 11.983a10.396 10.396 0 0 1 11.33 2.253.8.8 0 0 1-1.13 1.132 8.797 8.797 0 0 0-15.018 6.22.8.8 0 0 1-1.6 0 10.397 10.397 0 0 1 6.418-9.605Z" clip-rule="evenodd"/>
</svg>
