<svg xmlns="http://www.w3.org/2000/svg" viewBox="0 0 20 20">
    <g fill="#fff">
        <path d="M15 12.158a.6.6 0 0 1 .6.6v4.062a.6.6 0 1 1-1.2 0v-4.062a.6.6 0 0 1 .6-.6"/>
        <path d="M17.632 14.79a.6.6 0 0 1-.6.6h-4.065a.6.6 0 1 1 0-1.2h4.065a.6.6 0 0 1 .6.6M8.798 2.41a2.992 2.992 0 1 0 0 5.984 2.992 2.992 0 0 0 0-5.984M4.606 5.402a4.192 4.192 0 1 1 8.384 0 4.192 4.192 0 0 1-8.384 0"/>
        <path d="M6.019 8.987a7.8 7.8 0 0 1 8.498 1.69.6.6 0 1 1-.849.849A6.597 6.597 0 0 0 2.406 16.19a.6.6 0 0 1-1.2 0 7.8 7.8 0 0 1 4.813-7.204z"/>
    </g>
</svg>
