<svg width="24" height="24" viewBox="0 0 24 24" xmlns="http://www.w3.org/2000/svg">
<g fill="none">
        <rect x="1" y="1" width="24" height="24" rx="12" fill="url(#a)" />
        <path
            d="M13 10.433A2.567 2.567 0 0 0 10.433 13 2.553 2.553 0 0 0 13 15.567 2.567 2.567 0 0 0 15.567 13 2.582 2.582 0 0 0 13 10.433Zm0 4.241A1.672 1.672 0 0 1 11.326 13c0-.915.736-1.652 1.674-1.652.915 0 1.652.737 1.652 1.652 0 .937-.737 1.674-1.652 1.674Zm3.259-4.33a.6.6 0 0 0-.603-.603.6.6 0 0 0-.603.603.6.6 0 0 0 .603.602.6.6 0 0 0 .603-.602Zm1.696.602c-.044-.803-.223-1.517-.803-2.098-.58-.58-1.295-.759-2.099-.803-.825-.045-3.303-.045-4.129 0-.803.044-1.495.223-2.098.803-.58.58-.76 1.295-.804 2.098-.044.826-.044 3.304 0 4.13.045.803.223 1.495.804 2.098.603.58 1.294.759 2.098.804.826.044 3.304.044 4.13 0 .803-.045 1.517-.224 2.098-.804.58-.603.759-1.295.803-2.098.045-.826.045-3.304 0-4.13Zm-1.071 5c-.156.447-.514.782-.938.96-.67.268-2.232.201-2.946.201-.737 0-2.3.067-2.947-.2a1.693 1.693 0 0 1-.96-.96c-.267-.648-.2-2.21-.2-2.947 0-.714-.067-2.277.2-2.947.18-.424.514-.758.96-.937.648-.268 2.21-.2 2.947-.2.714 0 2.277-.068 2.946.2.425.156.76.513.938.938.268.67.2 2.232.2 2.946 0 .737.068 2.3-.2 2.946ZM13 24C6.925 24 2 19.075 2 13H0c0 7.18 5.82 13 13 13v-2Zm11-11c0 6.075-4.925 11-11 11v2c7.18 0 13-5.82 13-13h-2ZM13 2c6.075 0 11 4.925 11 11h2c0-7.18-5.82-13-13-13v2Zm0-2C5.82 0 0 5.82 0 13h2C2 6.925 6.925 2 13 2V0Z"
            fill="#fff"
        />
        <defs>
            <linearGradient id="a" x1="16.629" y1="42.895" x2="50.702" y2="9.315" gradient-units="userSpaceOnUse">
                <stop stop-color="#fff" />
                <stop offset=".148" stop-color="#F6640E" />
                <stop offset=".444" stop-color="#BA03A7" />
                <stop offset=".733" stop-color="#6A01B9" />
                <stop offset="1" stop-color="#6B01B9" />
            </linearGradient>
        </defs>
    </g>
</svg>
  