<svg xmlns="http://www.w3.org/2000/svg" fill="none" viewBox="0 0 25 25">
    <rect width="24" height="24" x=".5" y=".017" fill="url(#InstagramRoundColored_svg__a)" rx="12"/>
    <path fill="#fff" d="M12.5 9.45a2.567 2.567 0 0 0-2.567 2.567 2.553 2.553 0 0 0 2.567 2.567 2.567 2.567 0 0 0 2.567-2.567A2.582 2.582 0 0 0 12.5 9.45Zm0 4.241a1.672 1.672 0 0 1-1.674-1.674c0-.915.737-1.652 1.674-1.652.916 0 1.652.737 1.652 1.652 0 .938-.736 1.674-1.652 1.674Zm3.26-4.33a.6.6 0 0 0-.603-.603.6.6 0 0 0-.603.603.6.6 0 0 0 .603.603.6.6 0 0 0 .602-.603Zm1.696.603c-.045-.804-.223-1.518-.804-2.099-.58-.58-1.294-.759-2.098-.803-.826-.045-3.304-.045-4.13 0-.803.044-1.495.223-2.098.803-.58.58-.759 1.295-.803 2.099-.045.825-.045 3.303 0 4.13.044.803.223 1.495.803 2.097.603.58 1.295.76 2.098.804.826.044 3.304.044 4.13 0 .804-.045 1.518-.223 2.098-.804.58-.602.76-1.294.804-2.098.044-.826.044-3.303 0-4.13Zm-1.072 5c-.156.446-.513.78-.937.96-.67.267-2.232.2-2.947.2-.736 0-2.299.067-2.946-.2a1.692 1.692 0 0 1-.96-.96c-.268-.648-.2-2.21-.2-2.947 0-.714-.068-2.277.2-2.946.179-.424.514-.76.96-.938.647-.268 2.21-.2 2.946-.2.715 0 2.277-.068 2.947.2.424.156.759.514.937.938.268.67.201 2.232.201 2.946 0 .737.067 2.3-.2 2.947Z"/>
    <defs>
        <linearGradient id="InstagramRoundColored_svg__a" x1="16.129" x2="50.202" y1="41.912" y2="8.331" gradientUnits="userSpaceOnUse">
            <stop stop-color="#fff"/>
            <stop offset=".148" stop-color="#F6640E"/>
            <stop offset=".444" stop-color="#BA03A7"/>
            <stop offset=".733" stop-color="#6A01B9"/>
            <stop offset="1" stop-color="#6B01B9"/>
        </linearGradient>
    </defs>
</svg>
