<svg xmlns="http://www.w3.org/2000/svg" viewBox="0 0 24 24">
    <path fill="#FEDD18" fill-rule="evenodd" d="M16.424 6.133c0 .429-.192.837-.537 1.208v1.724a6.001 6.001 0 1 1-2.982 11.56A13.5 13.5 0 0 1 9.674 21c-3.116 0-5.738-.964-6.516-2.275h-.155v-.336a1.474 1.474 0 0 1 0-.945V6.606a1.474 1.474 0 0 1-.08-.473c0-1.703 3.023-3.083 6.75-3.083 3.729 0 6.75 1.38 6.75 3.083Z" clip-rule="evenodd"/>
    <path fill="#FFF4B3" d="M9.385 7.535c-.427 0-2.55-.04-2.55-.85a.283.283 0 0 1 .562-.052c.136.122.835.335 1.988.335 1.003 0 1.662-.162 1.908-.284-.244-.122-.903-.283-1.908-.283-.427 0-2.55-.04-2.55-.851 0-.81 2.126-.85 2.55-.85.424 0 2.55.04 2.55.85a.283.283 0 0 1-.563.052c-.136-.122-.834-.336-1.987-.336-1.003 0-1.662.162-1.908.284.244.122.902.284 1.908.284.427 0 2.55.04 2.55.85 0 .811-2.126.851-2.55.851Z"/>
    <path fill="#FFB600" d="M15.183 21.635a6.669 6.669 0 0 1-6.66-6.66 6.669 6.669 0 0 1 6.66-6.662c3.673 0 6.661 2.99 6.661 6.664a6.666 6.666 0 0 1-6.66 6.658Zm0-12.469a5.817 5.817 0 0 0-5.81 5.81 5.816 5.816 0 0 0 5.81 5.81 5.816 5.816 0 0 0 5.81-5.81 5.816 5.816 0 0 0-5.81-5.81Z"/>
    <path fill="#FFF4B3" d="M9.1 7.891a.283.283 0 1 0 .568 0v-3.4a.283.283 0 1 0-.567 0v3.4Z"/>
    <path fill="#FFB600" d="M11.273 20.363c-.6.091-1.235.138-1.891.138-3.457 0-6.377-1.362-6.377-2.977 0-.051-.012-.1-.028-.147a.446.446 0 0 0 .028-.148v-.71c1.207 1.2 3.583 1.999 6.377 1.999l.162-.002a6.727 6.727 0 0 1-.455-.851c-3.328-.075-6.087-1.404-6.087-2.972v-1.005c1.086 1.078 3.12 1.832 5.553 1.973a6.581 6.581 0 0 1-.03-.853c-3.071-.202-5.523-1.47-5.523-2.946v-1.01c1.132 1.125 3.298 1.898 5.87 1.99a6.72 6.72 0 0 1 .35-.844C5.835 11.958 3 10.613 3 9.023V8.018c1.207 1.2 3.584 2 6.377 2 .497 0 .98-.027 1.446-.076a6.63 6.63 0 0 1 4.353-1.626c.077 0 .155.002.232.007.122-.099.239-.2.344-.305v.323c.289.026.572.068.851.13V6.19c0-2.145-3.173-3.825-7.228-3.825S2.156 4.045 2.156 6.19v11.04c0 .052.012.101.028.148a.446.446 0 0 0-.028.148c0 2.144 3.174 3.825 7.228 3.825 1.079 0 2.093-.12 3.003-.335a6.493 6.493 0 0 1-1.114-.654ZM9.384 3.213c3.457 0 6.378 1.362 6.378 2.977 0 1.615-2.92 2.976-6.378 2.976-3.457 0-6.377-1.361-6.377-2.976s2.92-2.977 6.377-2.977Z"/>
    <path fill="#FFF4B3" d="M15.183 17.03c-.954 0-1.702-.54-1.702-1.228a.283.283 0 1 1 .568 0c0 .351.53.66 1.134.66.605 0 1.134-.309 1.134-.66 0-.352-.53-.661-1.134-.661-.954 0-1.702-.54-1.702-1.229 0-.689.748-1.228 1.702-1.228s1.702.54 1.702 1.229a.283.283 0 1 1-.568 0c0-.352-.53-.661-1.134-.661-.605 0-1.134.309-1.134.66 0 .352.53.661 1.134.661.954 0 1.702.54 1.702 1.229 0 .689-.748 1.228-1.702 1.228Z"/>
    <path fill="#FFF4B3" d="M15.183 18.094a.283.283 0 0 1-.284-.284v-5.67a.283.283 0 1 1 .568 0v5.668c0 .16-.127.286-.284.286Z"/>
</svg>
