<svg xmlns="http://www.w3.org/2000/svg" fill="none" viewBox="0 0 24 22">
    <path fill="#FFB600" d="M23.487 6.615c-.024 1.026-11.49 14.723-11.49 14.723S4.935 13.346.514 6.618h22.974v-.003Z"/>
    <path fill="#FFD401" d="M18.72.662H5.28L.513 6.615h22.974L18.719.662Z"/>
    <path fill="#FFFFFD" d="M7.43 6.615 12 .662l4.3 5.953H7.43Z" opacity=".2"/>
    <path fill="#fff" d="m7.43 6.615 4.567 14.723L16.3 6.615H7.43Z" opacity=".2"/>
    <path fill="#FAFF73" d="m5.28.662 2.15 5.953H.513L5.28.662Z" opacity=".2"/>
    <path fill="#FFFFFD" d="M18.72.662 16.3 6.615h7.186L18.72.662Z" opacity=".2"/>
    <path fill="#FBFAF4" d="M16.835 6.854a.615.615 0 0 0-.387.356c-.128.185-.17.399-.204.614-.035.211-.056.425-.086.666-.038-.368-.07-.708-.167-1.036.017-.03 0-.047-.025-.059l-.028-.07c-.005-.007-.008-.016-.012-.023l-.052-.108c-.01-.082-.058-.136-.131-.174a.258.258 0 0 0-.19-.145c-.01-.007-.021-.012-.03-.019a.393.393 0 0 0-.284-.117c-.007-.002-.014-.005-.023-.005a.208.208 0 0 0-.17-.04 2.091 2.091 0 0 1-.063-.009h-.004a.283.283 0 0 0-.195-.037c-.014-.003-.03-.003-.044-.005-.03-.033-.075-.012-.108-.028-.061-.028-.007-.04.012-.054a.288.288 0 0 1 .044-.005c.026.014.052.012.073-.009.197-.03.396-.063.586-.127.04-.014.075-.04.112-.06.17-.076.326-.162.38-.361.127-.113.155-.272.187-.422.064-.272.097-.553.127-.832.045.241.056.487.108.726.044.192.094.385.201.553a.95.95 0 0 0 .497.382c.27.101.556.127.837.164.059.007.117.021.202.036-.317.028-.605.06-.884.133-.096.024-.2.047-.279.115Z"/>
</svg>
