<svg xmlns="http://www.w3.org/2000/svg" viewBox="0 0 20 20">
    <path fill-rule="evenodd" d="M10 1.042c.345 0 .625.28.625.625V5a.625.625 0 1 1-1.25 0V1.667c0-.346.28-.625.625-.625m0 13.333c.345 0 .625.28.625.625v3.333a.625.625 0 1 1-1.25 0V15c0-.345.28-.625.625-.625M3.666 3.666a.625.625 0 0 1 .884 0l2.36 2.359a.625.625 0 1 1-.884.884L3.666 4.55a.625.625 0 0 1 0-.884m9.425 9.425a.625.625 0 0 1 .884 0l2.359 2.359a.625.625 0 1 1-.884.884l-2.358-2.359a.625.625 0 0 1 0-.884zM1.042 10c0-.345.28-.625.625-.625H5a.625.625 0 1 1 0 1.25H1.667A.625.625 0 0 1 1.042 10m13.333 0c0-.345.28-.625.625-.625h3.333a.625.625 0 1 1 0 1.25H15a.625.625 0 0 1-.625-.625m-7.466 3.091a.625.625 0 0 1 0 .884L4.55 16.334a.625.625 0 1 1-.884-.884l2.359-2.359a.625.625 0 0 1 .884 0m9.425-9.425a.625.625 0 0 1 0 .884l-2.359 2.36a.625.625 0 0 1-.883-.884l2.358-2.359a.625.625 0 0 1 .884 0z" clip-rule="evenodd"/>
</svg>
