<svg xmlns="http://www.w3.org/2000/svg" fill="none" viewBox="0 0 64 64">
    <g filter="url(#LocalBackup_svg__a)">
        <path fill="#1C68F3" fill-opacity=".1" d="M10.666 29.587c0-3.085 2.635-5.587 5.886-5.587h30.896c3.25 0 5.885 2.502 5.885 5.587v18.159c0 3.086-2.635 5.587-5.885 5.587H16.552c-3.25 0-5.886-2.501-5.886-5.587V29.587Z"/>
    </g>
    <path fill="#1C68F3" fill-rule="evenodd" stroke="#1C68F3" stroke-linecap="round" stroke-linejoin="round" stroke-width=".2" d="M17.566 11.182c.532 0 .963.431.963.963v6.736h6.736a.962.962 0 1 1 0 1.924h-7.699a.962.962 0 0 1-.962-.962v-7.698c0-.532.43-.963.962-.963Zm20.21 14.037c0-.532.43-.963.962-.963h7.699c.531 0 .962.431.962.963v7.698a.962.962 0 1 1-1.925 0v-6.736h-6.736a.962.962 0 0 1-.962-.962Z" clip-rule="evenodd"/>
    <path fill="#1C68F3" fill-rule="evenodd" stroke="#1C68F3" stroke-linecap="round" stroke-linejoin="round" stroke-width=".2" d="M28.458 9.585c2.074-.632 4.265-.7 6.37-.198a12.555 12.555 0 0 1 5.668 3.071 13.537 13.537 0 0 1 3.557 5.577c.181.54-.087 1.132-.599 1.323-.511.191-1.073-.092-1.254-.631a11.455 11.455 0 0 0-3.01-4.72 10.623 10.623 0 0 0-4.796-2.598 10.27 10.27 0 0 0-5.39.168 10.708 10.708 0 0 0-4.664 2.915l-6.08 6.026a.947.947 0 0 1-1.39-.045 1.077 1.077 0 0 1 .044-1.465l6.07-6.016a12.654 12.654 0 0 1 5.474-3.407Zm18.674 14.997a1.077 1.077 0 0 1-.043 1.465l-6.07 6.015a12.655 12.655 0 0 1-5.475 3.407c-2.073.633-4.265.7-6.37.199a12.554 12.554 0 0 1-5.668-3.072 13.537 13.537 0 0 1-3.557-5.576c-.18-.54.087-1.133.6-1.324.51-.19 1.072.092 1.253.632a11.455 11.455 0 0 0 3.01 4.719 10.623 10.623 0 0 0 4.796 2.598c1.781.426 3.636.368 5.39-.167a10.708 10.708 0 0 0 4.664-2.916l6.08-6.026a.947.947 0 0 1 1.39.046Z" clip-rule="evenodd"/>
    <g filter="url(#LocalBackup_svg__b)">
        <path fill="#1C68F3" fill-opacity=".05" d="M10.666 34.386c0-2.79 2.635-5.053 5.886-5.053h30.896c3.25 0 5.885 2.263 5.885 5.053v13.895c0 2.79-2.635 5.052-5.885 5.052H16.552c-3.25 0-5.886-2.262-5.886-5.052V34.386Z"/>
    </g>
    <defs>
        <filter id="LocalBackup_svg__a" width="50.666" height="37.333" x="6.667" y="20" color-interpolation-filters="sRGB" filterUnits="userSpaceOnUse">
            <feFlood flood-opacity="0" result="BackgroundImageFix"/>
            <feGaussianBlur in="BackgroundImage" stdDeviation="2"/>
            <feComposite in2="SourceAlpha" operator="in" result="effect1_backgroundBlur_8651_6028"/>
            <feBlend in="SourceGraphic" in2="effect1_backgroundBlur_8651_6028" result="shape"/>
        </filter>
        <filter id="LocalBackup_svg__b" width="48.666" height="30" x="7.667" y="26.333" color-interpolation-filters="sRGB" filterUnits="userSpaceOnUse">
            <feFlood flood-opacity="0" result="BackgroundImageFix"/>
            <feGaussianBlur in="BackgroundImage" stdDeviation="1.5"/>
            <feComposite in2="SourceAlpha" operator="in" result="effect1_backgroundBlur_8651_6028"/>
            <feBlend in="SourceGraphic" in2="effect1_backgroundBlur_8651_6028" result="shape"/>
        </filter>
    </defs>
</svg>
