<svg fill="none" viewBox="0 0 24 25" xmlns="http://www.w3.org/2000/svg"><g clip-rule="evenodd" fill="#767f8d" fill-rule="evenodd"><path d="m7.748 5.01c-.697.866-.948 2.132-.948 3.74v2a.8.8 0 0 1 -1.6 0v-2c0-1.704.25-3.438 1.302-4.744 1.083-1.344 2.861-2.056 5.498-2.056s4.416.713 5.498 2.057c1.052 1.305 1.302 3.039 1.302 4.743v2a.8.8 0 0 1 -1.6 0v-2c0-1.607-.25-2.873-.948-3.74-.667-.828-1.889-1.46-4.252-1.46s-3.584.632-4.252 1.46zm4.252 10.04a1.7 1.7 0 1 0 0 3.4 1.7 1.7 0 0 0 0-3.4zm-3.3 1.7a3.3 3.3 0 1 1 6.6 0 3.3 3.3 0 0 1 -6.6 0z"/><path d="m3.566 12.315c-.496.495-.766 1.428-.766 3.434v2c0 2.006.27 2.939.766 3.434.495.496 1.428.766 3.434.766h10c2.006 0 2.939-.27 3.434-.766.496-.495.766-1.428.766-3.434v-2c0-2.006-.27-2.939-.765-3.434-.496-.496-1.43-.766-3.435-.766h-10c-2.006 0-2.939.27-3.434.766zm-1.131-1.131c1.004-1.006 2.57-1.235 4.565-1.235h10c1.994 0 3.561.23 4.566 1.235 1.004 1.004 1.234 2.57 1.234 4.565v2c0 1.995-.23 3.562-1.234 4.566-1.005 1.004-2.572 1.234-4.566 1.234h-10c-1.994 0-3.561-.23-4.565-1.234-1.005-1.005-1.235-2.572-1.235-4.566v-2c0-1.994.23-3.561 1.235-4.566z"/></g></svg>