<svg xmlns="http://www.w3.org/2000/svg" fill="none" viewBox="0 0 24 25">
    <g fill="currentColor" fill-rule="evenodd" clip-rule="evenodd">
        <path d="M7.748 5.01c-.697.866-.948 2.132-.948 3.74v2a.8.8 0 0 1-1.6 0v-2c0-1.704.25-3.438 1.302-4.744C7.585 2.662 9.363 1.95 12 1.95s4.416.713 5.498 2.057C18.55 5.312 18.8 7.046 18.8 8.75v2a.8.8 0 0 1-1.6 0v-2c0-1.607-.25-2.873-.948-3.74-.667-.828-1.889-1.46-4.252-1.46s-3.584.632-4.252 1.46M12 15.05a1.7 1.7 0 1 0 0 3.4 1.7 1.7 0 0 0 0-3.4m-3.3 1.7a3.3 3.3 0 1 1 6.6 0 3.3 3.3 0 0 1-6.6 0"/>
        <path d="M3.566 12.315c-.496.495-.766 1.428-.766 3.434v2c0 2.006.27 2.939.766 3.434.495.496 1.428.766 3.434.766h10c2.006 0 2.939-.27 3.434-.766.496-.495.766-1.428.766-3.434v-2c0-2.006-.27-2.939-.765-3.434-.496-.496-1.43-.766-3.435-.766H7c-2.006 0-2.939.27-3.434.766m-1.131-1.131C3.439 10.178 5.005 9.949 7 9.949h10c1.994 0 3.561.23 4.566 1.235 1.004 1.004 1.234 2.57 1.234 4.565v2c0 1.995-.23 3.562-1.234 4.566S18.994 23.549 17 23.549H7c-1.994 0-3.561-.23-4.565-1.234S1.2 19.743 1.2 17.749v-2c0-1.994.23-3.561 1.235-4.566z"/>
    </g>
</svg>
