<svg fill="none" viewBox="0 0 24 24" xmlns="http://www.w3.org/2000/svg" xmlns:xlink="http://www.w3.org/1999/xlink"><linearGradient id="a" gradientUnits="userSpaceOnUse" x1="12" x2="12" y1="2" y2="22"><stop offset="0" stop-color="#14008c"/><stop offset="1" stop-color="#45a3fb"/></linearGradient><rect fill="url(#a)" height="20" rx="2" width="20" x="2" y="2"/><path d="m11.613 9.458c-.289.639-.753.942-1.394.908.335.318.527.656.575 1.017.05.36-.081.758-.39 1.195-.16.222-.334.398-.522.529a1.58 1.58 0 0 1 -.577.257 1.884 1.884 0 0 1 -.651.013 3.396 3.396 0 0 1 -.705-.178 6.924 6.924 0 0 1 -.767-.343l-.733 1.27-.767-.443.721-1.25a31.83 31.83 0 0 1 -.604-.356l-.725 1.255-.767-.443.734-1.27c-.06-.034-.15-.087-.268-.158l-.272-.16-.996-.575.68-.822.553.319c.166.096.311.067.435-.087l1.984-3.436c.087-.251.005-.45-.248-.595l-.552-.319.471-.817 1.053.615c.213.122.375.214.486.274l.725-1.255.766.443-.71 1.23c.276.15.48.264.614.34l.704-1.22.767.443-.725 1.255c.25.175.46.346.633.515.173.168.317.35.433.549.116.197.178.406.187.625.008.22-.041.445-.148.675zm-2.637 2.096a.768.768 0 0 0 .109-.362.863.863 0 0 0 -.052-.335 1.092 1.092 0 0 0 -.199-.317 2.81 2.81 0 0 0 -.273-.28 3.402 3.402 0 0 0 -.342-.258 6.203 6.203 0 0 0 -.66-.394 17.634 17.634 0 0 1 -.239-.132l-.97 1.684.182.11.238.14a7.432 7.432 0 0 0 .57.293c.087.039.19.08.31.122.119.042.224.072.316.09.092.017.19.028.297.031.106.004.2-.008.283-.036a.763.763 0 0 0 .431-.355zm1.014-2.574a.755.755 0 0 0 .106-.328.802.802 0 0 0 -.031-.297.86.86 0 0 0 -.159-.277 1.98 1.98 0 0 0 -.226-.24 3.163 3.163 0 0 0 -.284-.217 3.35 3.35 0 0 0 -.281-.18 43.613 43.613 0 0 1 -.47-.26l-.883 1.528.17.102a6.147 6.147 0 0 0 .487.267c.112.059.209.102.29.131.08.029.176.06.288.093.11.034.21.05.294.048a1.6 1.6 0 0 0 .262-.028.553.553 0 0 0 .245-.114.799.799 0 0 0 .192-.228z" fill="#fff"/><path d="m18.882 10.374h.251v6.221h-.251zm-4.627 0h.251v6.915h-.251z" fill="#ff306c"/><path d="m16.568 13.554h.251v5.014h-.251zm-4.627 1.362h.251v5.483h-.251z" fill="#30ff8f"/><path d="m18.346 11.581h1.324v3.825h-1.324zm-4.627.135h1.324v4.252h-1.324z" fill="#ff306c"/><path d="m16.032 14.916h1.324v2.462h-1.324zm-4.627 1.361h1.324v2.934h-1.324z" fill="#30ff8f"/></svg>