<svg viewBox="0 0 31 31" xmlns="http://www.w3.org/2000/svg"><rect fill="#6f6f6f" height="30" rx="15" width="30"/><path clip-rule="evenodd" d="m23.693 11.597v4.861h-15.112c.66 2.95 3.278 5.153 6.408 5.153a6.565 6.565 0 0 0 5.896-3.694h2.808v4.083c0 .966-.778 1.75-1.738 1.75h-13.91c-.96 0-1.738-.784-1.738-1.75v-10.403zm-4.476 6.32a5.105 5.105 0 0 1 -4.228 2.247 5.105 5.105 0 0 1 -4.229-2.247h8.458zm-7.936-5.153a2.71 2.71 0 0 0 -2.677 2.333h1.482a1.257 1.257 0 0 1 1.195-.875c.559 0 1.032.367 1.195.875h1.482a2.71 2.71 0 0 0 -2.677-2.333zm7.438 0a2.711 2.711 0 0 0 -2.678 2.333h1.483a1.257 1.257 0 0 1 1.195-.875c.558 0 1.032.367 1.195.875h1.482a2.71 2.71 0 0 0 -2.677-2.333zm3.236-6.514c.96 0 1.738.784 1.738 1.75v2.139h-17.386v-2.139c0-.966.778-1.75 1.738-1.75z" fill="#101010" fill-rule="evenodd"/></svg>