<svg viewBox="0 0 52 52" xmlns="http://www.w3.org/2000/svg"><path d="m26 52c14.36 0 26-11.64 26-26s-11.64-26-26-26-26 11.64-26 26 11.64 26 26 26z" fill="#72727c"/><path d="m41.693 19.609v8.634h-27.451c1.199 5.24 5.955 9.153 11.64 9.153 4.7 0 8.765-2.675 10.71-6.562h5.1v7.252c0 1.717-1.413 3.109-3.157 3.109h-25.266c-1.744 0-3.158-1.392-3.158-3.109v-18.476h31.582zm-8.13 11.225a9.33 9.33 0 0 1 -7.681 3.991 9.33 9.33 0 0 1 -7.681-3.991zm-14.416-9.154c-2.475 0-4.523 1.801-4.863 4.145h2.692a2.279 2.279 0 0 1 2.17-1.555 2.28 2.28 0 0 1 2.172 1.555h2.692c-.34-2.344-2.388-4.145-4.863-4.145zm13.51 0c-2.475 0-4.523 1.801-4.863 4.145h2.692a2.279 2.279 0 0 1 2.17-1.555 2.28 2.28 0 0 1 2.172 1.555h2.692c-.34-2.344-2.388-4.145-4.863-4.145zm5.878-11.57c1.744 0 3.158 1.392 3.158 3.108v3.8h-31.583v-3.8c0-1.716 1.414-3.108 3.158-3.108h25.266z" fill="#fff"/></svg>