<svg xmlns="http://www.w3.org/2000/svg" fill="none" viewBox="0 0 96 96">
    <rect width="6" height="30" x="14" y="53" fill="#1C68F3" rx="3" transform="rotate(-30 14 53)"/>
    <path fill="url(#Masks_svg__a)" fill-rule="evenodd" d="M55.304 52.263c-4.33 1.382-9.016.651-13.267-1.99-.461-.308-1.076-.384-1.654-.2a1.99 1.99 0 0 0-1.26 1.175c-1.907 4.562-5.344 7.886-9.674 9.268-6.928 2.211-14.798-1.092-19.621-8.231a24.6 24.6 0 0 1-3.055-6.295 30 30 0 0 1-.834-3.324l-.74-4.171 3.46 2.44a2.56 2.56 0 0 0 2.253.37c.206-.065.4-.172.592-.28l.875-.96.056-.109.113-.217a19 19 0 0 1 10.09-7.675 18.96 18.96 0 0 1 12.004.167 18.96 18.96 0 0 1 9.687-7.09c4.124-1.317 8.626-1.164 12.672.408l.217.112c.163.084.368.155.572.226l.055.028c.45.13.943.108 1.438-.05a2.5 2.5 0 0 0 1.622-1.608l1.365-3.98 1.813 3.829c.52 1.06.904 2.12 1.246 3.192a24.6 24.6 0 0 1 1.158 6.9c.287 8.587-4.255 15.853-11.183 18.065M28.616 49.65a8.7 8.7 0 0 1-1.798.346c-3.384.217-6.53-2.095-7.979-3.36 1.042-1.15 3.12-3.177 5.719-4.006.618-.198 1.18-.286 1.798-.347 3.384-.217 6.53 2.096 7.979 3.36-1.083 1.164-3.162 3.19-5.719 4.007m14.132-6.692c1.515.334 4.425.768 6.982-.048a8 8 0 0 0 1.666-.76c2.843-1.77 4.108-5.49 4.557-7.36-1.516-.335-4.426-.769-6.983.047a8 8 0 0 0-1.666.76c-2.842 1.77-4.108 5.491-4.556 7.36Z" clip-rule="evenodd"/>
    <g filter="url('#Masks_svg__b')">
        <path fill="#1C68F3" fill-opacity=".1" fill-rule="evenodd" d="m57.061 32.95.727-1.212L91.999 43.03l-.145 1.405a40.2 40.2 0 0 1-1.938 9.11c-2.375 7.124-6.445 13.23-11.436 17.203-3.732 2.956-7.754 4.507-11.582 4.507-1.502 0-2.956-.194-4.361-.679-5.04-1.696-8.771-6.154-10.467-12.599-1.648-6.154-1.26-13.471 1.114-20.594a39.2 39.2 0 0 1 3.877-8.432Zm4.362 20.013c.727.34 1.502.485 2.375.485.775 0 1.647-.146 2.568-.388.99-.33 1.786-.743 2.135-.925.113-.058.18-.093.19-.093l.97-.581-.533-1.018c-.048-.145-1.6-3.101-4.652-4.458s-6.3-.484-6.445-.436l-1.114.29.242 1.115c.014.014.044.116.093.283.122.417.364 1.242.78 2.14.871 1.745 2.034 3.005 3.391 3.586m15.07 5.137c.388.096.776.145 1.212.145 1.163 0 2.423-.34 3.634-.97 1.26-.63 2.084-1.356 2.133-1.404l.872-.776-.679-.92c-.097-.146-2.18-2.811-5.427-3.538-3.005-.673-5.802.523-6.317.743l-.08.032-1.017.485.436 1.066c0 .048.436 1.115 1.26 2.23 1.163 1.55 2.52 2.567 3.974 2.907Z" clip-rule="evenodd"/>
    </g>
    <defs>
        <linearGradient id="Masks_svg__a" x1="6" x2="65" y1="43" y2="24" gradientUnits="userSpaceOnUse">
            <stop stop-color="#1C68F3"/>
            <stop offset="1" stop-color="#6CB8FF"/>
        </linearGradient>
        <filter id="Masks_svg__b" width="48.933" height="51.515" x="47.066" y="27.738" color-interpolation-filters="sRGB" filterUnits="userSpaceOnUse">
            <feFlood flood-opacity="0" result="BackgroundImageFix"/>
            <feGaussianBlur in="BackgroundImage" stdDeviation="2"/>
            <feComposite in2="SourceAlpha" operator="in" result="effect1_backgroundBlur_275_13631"/>
            <feBlend in="SourceGraphic" in2="effect1_backgroundBlur_275_13631" result="shape"/>
        </filter>
    </defs>
</svg>
