<svg xmlns="http://www.w3.org/2000/svg" fill="none" viewBox="0 0 16 16">
    <path id="Medal_svg__Vector" fill="#767F8D" d="m14.167 12.313-1.1.26a.65.65 0 0 0-.494.494l-.233.98a.668.668 0 0 1-1.16.28l-1.993-2.294a.332.332 0 0 1 .166-.54 5.66 5.66 0 0 0 3.02-1.886.333.333 0 0 1 .494-.034l1.48 1.48c.506.507.326 1.14-.18 1.26"/>
    <path id="Medal_svg__Vector_2" fill="#767F8D" d="m1.8 12.313 1.1.26c.247.06.44.247.493.494l.234.98c.126.533.806.7 1.16.28l1.993-2.294a.332.332 0 0 0-.167-.54 5.66 5.66 0 0 1-3.02-1.886.333.333 0 0 0-.493-.034l-1.48 1.48c-.507.507-.327 1.14.18 1.26"/>
    <path id="Medal_svg__Vector_3" fill="#767F8D" d="M8 1.333A4.663 4.663 0 0 0 3.333 6c0 .967.287 1.853.78 2.593A4.66 4.66 0 0 0 7.3 10.607q.34.06.7.06t.7-.06a4.66 4.66 0 0 0 3.187-2.014c.493-.74.78-1.626.78-2.593A4.663 4.663 0 0 0 8 1.333m2.04 4.52-.553.554a.47.47 0 0 0-.114.406l.16.687c.127.54-.16.753-.64.467l-.666-.394a.47.47 0 0 0-.44 0l-.667.394c-.48.28-.767.073-.64-.467l.16-.687a.5.5 0 0 0-.113-.406l-.567-.554c-.327-.326-.22-.653.233-.726l.714-.12c.12-.02.26-.127.313-.234l.393-.786c.214-.427.56-.427.774 0l.393.786a.48.48 0 0 0 .32.234l.713.12c.447.073.554.4.227.726"/>
</svg>
