<svg xmlns="http://www.w3.org/2000/svg" viewBox="0 0 24 25">
    <path fill="currentColor" fill-rule="evenodd" d="M2.865 5.878a2.8 2.8 0 0 1 2.8-2.8h13.69a.8.8 0 0 1 0 1.6H5.665a1.2 1.2 0 0 0-1.2 1.2v.803h13.87a2.8 2.8 0 0 1 2.8 2.8v10.138a2.8 2.8 0 0 1-2.8 2.8H5.665a2.8 2.8 0 0 1-2.8-2.8V5.88Zm1.6 2.403v11.338a1.2 1.2 0 0 0 1.2 1.2h12.67a1.2 1.2 0 0 0 1.2-1.2V9.481a1.2 1.2 0 0 0-1.2-1.2z" clip-rule="evenodd"/>
    <path fill="currentColor" fill-rule="evenodd" d="M12.285 9.23a.8.8 0 0 1 .463 1.032l-3.484 9.155a.8.8 0 1 1-1.496-.569l3.484-9.155a.8.8 0 0 1 1.033-.463" clip-rule="evenodd"/>
    <path fill="currentColor" fill-rule="evenodd" d="M15.769 19.881a.8.8 0 0 0 .463-1.032l-3.484-9.155a.8.8 0 0 0-1.495.569l3.484 9.155a.8.8 0 0 0 1.032.463" clip-rule="evenodd"/>
    <path fill="currentColor" fill-rule="evenodd" d="M9.458 15.546a.8.8 0 0 1 .8-.8H13.9a.8.8 0 0 1 0 1.6h-3.642a.8.8 0 0 1-.8-.8" clip-rule="evenodd"/>
</svg>
