<svg viewBox="0 0 21 21" xmlns="http://www.w3.org/2000/svg">
    <g fill="none" xmlns="http://www.w3.org/2000/svg">
        <path
            fill-rule="evenodd"
            clip-rule="evenodd"
            d="M2.633 2.8c0-.369.299-.667.667-.667h4.705v1.066H3.7v9.6h9.6V8.313h1.067V13.2a.667.667 0 0 1-.667.666H3.3a.667.667 0 0 1-.667-.666V2.8Zm6.976-.134c0-.294.24-.533.534-.533h3.69c.295 0 .534.239.534.533v3.662a.533.533 0 1 1-1.067 0V3.97l-6.58 6.693a.533.533 0 1 1-.76-.747l6.601-6.716h-2.418a.533.533 0 0 1-.534-.533Z"
            fill="#536471"
        />
    </g>
</svg>
