<svg width="16" height="16" viewBox="0 0 16 16" xmlns="http://www.w3.org/2000/svg">
<g>
        <path
            opacity="0.2"
            d="M8.00004 14.6666C11.6819 14.6666 14.6667 11.6819 14.6667 7.99998C14.6667 4.31808 11.6819 1.33331 8.00004 1.33331C4.31814 1.33331 1.33337 4.31808 1.33337 7.99998C1.33337 11.6819 4.31814 14.6666 8.00004 14.6666Z"
            fill="#FFB915"
        />
        <path
            d="M8.66671 4.85472C8.66671 4.48653 8.36823 4.18805 8.00004 4.18805C7.63185 4.18805 7.33337 4.48653 7.33337 4.85472V8.18805C7.33337 8.55624 7.63185 8.85472 8.00004 8.85472C8.36823 8.85472 8.66671 8.55624 8.66671 8.18805V4.85472Z"
            fill="#FFB915"
        />
        <path
            d="M8.66671 10.6667C8.66671 10.2985 8.36823 10 8.00004 10C7.63185 10 7.33337 10.2985 7.33337 10.6667C7.33337 11.0349 7.63185 11.3333 8.00004 11.3333C8.36823 11.3333 8.66671 11.0349 8.66671 10.6667Z"
            fill="#FFB915"
        />
    </g>
</svg>
  