<svg xmlns="http://www.w3.org/2000/svg" viewBox="0 0 16 16">
    <path fill="currentColor" d="M7.186 1.494a1.067 1.067 0 0 1 1.628 0l.513.606c.262.308.675.443 1.067.347l.772-.189c.64-.156 1.268.3 1.317.957l.059.792c.03.403.285.754.66.908l.734.3c.61.25.85.988.503 1.549l-.418.675a1.067 1.067 0 0 0 0 1.122l.418.676c.347.56.107 1.298-.503 1.547l-.735.302c-.374.153-.63.504-.66.907l-.058.792a1.067 1.067 0 0 1-1.317.957l-.772-.189a1.067 1.067 0 0 0-1.067.347l-.513.606a1.067 1.067 0 0 1-1.628 0l-.513-.606a1.067 1.067 0 0 0-1.067-.347l-.772.189c-.64.156-1.267-.3-1.317-.957l-.059-.792a1.067 1.067 0 0 0-.66-.907l-.734-.302c-.61-.25-.85-.987-.503-1.547l.418-.676a1.067 1.067 0 0 0 0-1.122l-.418-.675a1.067 1.067 0 0 1 .503-1.548l.735-.301c.374-.154.63-.505.66-.908l.058-.792a1.067 1.067 0 0 1 1.317-.957l.772.189c.392.096.806-.039 1.067-.347l.513-.606Z"/>
    <path fill="#fff" stroke="#fff" stroke-width=".4" d="M7.2 9.4 5.8 8l-.467.467L7.2 10.333l4-4-.467-.466L7.2 9.4Z"/>
</svg>
