<svg xmlns="http://www.w3.org/2000/svg" fill="none" viewBox="0 0 21 20">
    <path fill="currentColor" fill-rule="evenodd" d="M5.362 1.037A.575.575 0 0 1 5.77.33a.583.583 0 0 1 .711.41l.15.554L11.542 0l.153.56.758-.2.923 3.393-.757.2.154.563L7.856 5.81l2.503 9.234h-.258v1.937h.587v.581h.354l.464 1.71a.575.575 0 0 1-.409.708.583.583 0 0 1-.71-.411l-1.053-3.88h.076v-1.936h-.586v-.582h-.172L6.736 6.106 1.834 7.4l-.153-.561-.758.2L0 3.646l.757-.2-.153-.563 4.908-1.294zm6.89 16.138-1.17-.002v-.58h-.303v.002h-.287v-1.06l.002.005v-.108h.202l.383.001v-.58l.847.002v-.004h.326v.486h-.003v.098l.492.001v-.004h.098v.712h-.003l.001.45h-.585zm.978-1.03h4.398v-.808h.815v-.807h.815v-.807h.815V9.687h-.815V8.073h-.815V6.459h-.815V5.65h.815v-.807h-.815v.807h-.814v-.807h-.815v-.807h-1.63V3.23h-.814v1.614h.815v.807h-.815v1.615h-.814v-.807h-.815V5.65h.815v-.807h-.815v.807h-.815v3.23h-.815v4.036h.815v1.548h1.532v.58h.587zM9.02 14.14v.386l-.106-.386zM9.681 1.7l-1.737.458.177.65.434-.115.413 1.516.868-.23-.412-1.515.434-.115-.177-.65ZM5.465 2.812l2.17-.572.178.65-1.086.285.118.433.673-.177.118.433-.673.178.177.65-1.086.285zm-1.178.31.869-.228.589 2.165-.868.229-.118-.433-.217.057-.118-.433-.217.057.236.867-.869.229-.59-2.166.87-.229.117.433.217-.057.118.433.217-.057-.236-.866ZM15.184 8.88H16v.807h-.815V8.88Zm-1.63 2.422v-.808h3.26v.808h.814v3.228h-.814v.807h-3.26v-.807h-.814v-3.228zm-.032.936h.64v.507h.51v.633h-.51v.506h-.64v-.633h.511v-.38h-.51zm2.723 0h.64v.633h-.512v.38h.511v.633h-.639v-.505h-.511v-.634h.511z" clip-rule="evenodd"/>
</svg>
