<svg xmlns="http://www.w3.org/2000/svg" viewBox="0 0 25 24">
    <path fill="#F6F6F8" d="M.5 12c0-6.627 5.373-12 12-12s12 5.373 12 12-5.373 12-12 12-12-5.373-12-12Z"/>
    <path fill="#8247E5" d="M8.399 14.594c.295.169.679.169 1.004 0l2.302-1.297 1.565-.846 2.302-1.297c.296-.169.68-.169 1.004 0l1.83 1.015c.295.17.502.48.502.818v2.001a.908.908 0 0 1-.502.818l-1.8.986c-.296.17-.68.17-1.004 0l-1.8-.986c-.296-.17-.503-.48-.503-.818v-1.297l-1.564.874v1.297c0 .338.177.648.502.817l3.335 1.86c.296.17.68.17 1.004 0l3.395-1.86a.908.908 0 0 0 .502-.817v-3.75a.908.908 0 0 0-.502-.817l-3.395-1.86a1.056 1.056 0 0 0-1.004 0l-2.302 1.268-1.565.874-2.302 1.269c-.296.169-.68.169-1.004 0l-1.8-.987c-.296-.169-.503-.48-.503-.817V9.04c0-.338.177-.648.502-.817l1.8-1.015c.296-.17.68-.17 1.005 0l1.8.987c.296.169.502.479.502.817v1.297l1.565-.874V8.138a.908.908 0 0 0-.502-.817L9.373 5.46a1.056 1.056 0 0 0-1.004 0L4.975 7.32c-.296.169-.502.479-.502.817v3.75c0 .338.177.648.502.817l3.424 1.889Z"/>
    <path fill="#8247E5" d="M8.399 14.593c.295.17.679.17 1.004 0l2.302-1.296 1.565-.846 2.302-1.297c.296-.169.68-.169 1.004 0l1.83 1.015c.295.17.502.48.502.817v2.002a.908.908 0 0 1-.502.817l-1.8.987c-.296.17-.68.17-1.004 0l-1.8-.987c-.296-.169-.503-.479-.503-.817V13.69l-1.564.874v1.297c0 .338.177.648.502.817l3.335 1.86c.296.17.68.17 1.004 0l3.395-1.86a.908.908 0 0 0 .502-.817v-3.75a.908.908 0 0 0-.502-.817l-3.395-1.86a1.056 1.056 0 0 0-1.004 0l-2.302 1.268-1.565.874-2.302 1.268c-.296.17-.68.17-1.004 0l-1.8-.986c-.296-.17-.503-.48-.503-.818v-2c0-.338.177-.648.502-.817l1.8-1.015c.296-.17.68-.17 1.005 0l1.8.986c.296.17.502.48.502.818v1.296l1.565-.873V8.138a.908.908 0 0 0-.502-.818L9.373 5.46a1.056 1.056 0 0 0-1.004 0L4.975 7.32c-.296.17-.502.48-.502.818v3.75a.91.91 0 0 0 .502.817l3.424 1.888Z"/>
    <path fill="#fff" d="M12.5 23c-6.075 0-11-4.925-11-11h-2c0 7.18 5.82 13 13 13v-2Zm11-11c0 6.075-4.925 11-11 11v2c7.18 0 13-5.82 13-13h-2Zm-11-11c6.075 0 11 4.925 11 11h2c0-7.18-5.82-13-13-13v2Zm0-2C5.32-1-.5 4.82-.5 12h2c0-6.075 4.925-11 11-11v-2Z"/>
</svg>
