<svg viewBox="0 0 25 24" xmlns="http://www.w3.org/2000/svg"><path d="m.5 12c0-6.627 5.373-12 12-12s12 5.373 12 12-5.373 12-12 12-12-5.373-12-12z" fill="#f6f6f8"/><path d="m8.399 14.594c.295.169.679.169 1.004 0l2.302-1.297 1.565-.846 2.302-1.297c.296-.169.68-.169 1.004 0l1.83 1.015c.295.17.502.48.502.818v2.001a.908.908 0 0 1 -.502.818l-1.8.986c-.296.17-.68.17-1.004 0l-1.8-.986c-.296-.17-.503-.48-.503-.818v-1.297l-1.564.874v1.297c0 .338.177.648.502.817l3.335 1.86c.296.17.68.17 1.004 0l3.395-1.86a.908.908 0 0 0 .502-.817v-3.75a.908.908 0 0 0 -.502-.817l-3.395-1.86a1.056 1.056 0 0 0 -1.004 0l-2.302 1.268-1.565.874-2.302 1.269c-.296.169-.68.169-1.004 0l-1.8-.987c-.296-.169-.503-.48-.503-.817v-2.002c0-.338.177-.648.502-.817l1.8-1.015c.296-.17.68-.17 1.005 0l1.8.987c.296.169.502.479.502.817v1.297l1.565-.874v-1.297a.908.908 0 0 0 -.502-.817l-3.395-1.861a1.056 1.056 0 0 0 -1.004 0l-3.394 1.86c-.296.169-.502.479-.502.817v3.75c0 .338.177.648.502.817l3.424 1.889z" fill="#8247e5"/><path d="m8.399 14.593c.295.17.679.17 1.004 0l2.302-1.296 1.565-.846 2.302-1.297c.296-.169.68-.169 1.004 0l1.83 1.015c.295.17.502.48.502.817v2.002a.908.908 0 0 1 -.502.817l-1.8.987c-.296.17-.68.17-1.004 0l-1.8-.987c-.296-.169-.503-.479-.503-.817v-1.298l-1.564.874v1.297c0 .338.177.648.502.817l3.335 1.86c.296.17.68.17 1.004 0l3.395-1.86a.908.908 0 0 0 .502-.817v-3.75a.908.908 0 0 0 -.502-.817l-3.395-1.86a1.056 1.056 0 0 0 -1.004 0l-2.302 1.268-1.565.874-2.302 1.268c-.296.17-.68.17-1.004 0l-1.8-.986c-.296-.17-.503-.48-.503-.818v-2c0-.338.177-.648.502-.817l1.8-1.015c.296-.17.68-.17 1.005 0l1.8.986c.296.17.502.48.502.818v1.296l1.565-.873v-1.297a.908.908 0 0 0 -.502-.818l-3.395-1.86a1.056 1.056 0 0 0 -1.004 0l-3.394 1.86c-.296.17-.502.48-.502.818v3.75a.91.91 0 0 0 .502.817z" fill="#8247e5"/><path d="m12.5 23c-6.075 0-11-4.925-11-11h-2c0 7.18 5.82 13 13 13zm11-11c0 6.075-4.925 11-11 11v2c7.18 0 13-5.82 13-13zm-11-11c6.075 0 11 4.925 11 11h2c0-7.18-5.82-13-13-13zm0-2c-7.18 0-13 5.82-13 13h2c0-6.075 4.925-11 11-11z" fill="#fff"/></svg>