<svg xmlns="http://www.w3.org/2000/svg" viewBox="0 0 24 24">
    <path fill="#DB1919" d="M4.517 6.195S3.724 3.91 12.638 3.91s8.12 2.284 8.12 2.284v.983H4.519v-.983Z"/>
    <path fill="#291E20" d="M18.638 15h-1.5v1.5h1.5V15Z"/>
    <path fill="#1A1115" d="M17.138 15h-1.5v1.5h1.5V15Z"/>
    <path fill="#1B1417" d="M15.638 15h-1.5v1.5h1.5V15Z"/>
    <path fill="#1D1018" d="M14.138 15h-1.5v1.5h1.5V15Z"/>
    <path fill="#131117" d="M12.638 15h-1.5v1.5h1.5V15Z"/>
    <path fill="#1B1419" d="M11.138 15h-1.5v1.5h1.5V15Z"/>
    <path fill="#2D2529" d="M9.638 15h-1.5v1.5h1.5V15Z"/>
    <path fill="#1F1114" d="M18.638 13.5h-1.5V15h1.5v-1.5Z"/>
    <path fill="#0F0407" d="M17.138 13.5h-1.5V15h1.5v-1.5Z"/>
    <path fill="#130408" d="M15.638 13.5h-1.5V15h1.5v-1.5Z"/>
    <path fill="#12060B" d="M14.138 13.5h-1.5V15h1.5v-1.5Z"/>
    <path fill="#562311" d="M12.638 13.5h-1.5V15h1.5v-1.5Z"/>
    <path fill="#512111" d="M11.138 13.5h-1.5V15h1.5v-1.5Z"/>
    <path fill="#211618" d="M9.638 13.5h-1.5V15h1.5v-1.5Z"/>
    <path fill="#171112" d="M18.638 12h-1.5v1.5h1.5V12Z"/>
    <path fill="#1A0A0B" d="M17.138 12h-1.5v1.5h1.5V12Z"/>
    <path fill="#270D04" d="M15.638 12h-1.5v1.5h1.5V12Z"/>
    <path fill="#E97800" d="M14.138 12h-1.5v1.5h1.5V12Z"/>
    <path fill="#ED8900" d="M12.638 12h-1.5v1.5h1.5V12Z"/>
    <path fill="#5B3311" d="M11.138 12h-1.5v1.5h1.5V12Z"/>
    <path fill="#21171D" d="M9.638 12h-1.5v1.5h1.5V12Z"/>
    <path fill="#1D1614" d="M18.638 10.5h-1.5V12h1.5v-1.5Z"/>
    <path fill="#150706" d="M17.138 10.5h-1.5V12h1.5v-1.5Z"/>
    <path fill="#030106" d="M15.638 10.5h-1.5V12h1.5v-1.5Z"/>
    <path fill="#0D0808" d="M14.138 10.5h-1.5V12h1.5v-1.5Z"/>
    <path fill="#462B10" d="M12.638 10.5h-1.5V12h1.5v-1.5Z"/>
    <path fill="#5C310C" d="M11.138 10.5h-1.5V12h1.5v-1.5Z"/>
    <path fill="#1C1118" d="M9.638 10.5h-1.5V12h1.5v-1.5Z"/>
    <path fill="#2C1B19" d="M18.638 9h-1.5v1.5h1.5V9Z"/>
    <path fill="#1A0908" d="M17.138 9h-1.5v1.5h1.5V9Z"/>
    <path fill="#0E0503" d="M15.638 9h-1.5v1.5h1.5V9Z"/>
    <path fill="#0A060A" d="M14.138 9h-1.5v1.5h1.5V9Z"/>
    <path fill="#000105" d="M12.638 9h-1.5v1.5h1.5V9Z"/>
    <path fill="#10070C" d="M11.138 9h-1.5v1.5h1.5V9Z"/>
    <path fill="#4F361D" d="M9.638 9h-1.5v1.5h1.5V9Z"/>
    <path fill="#592613" d="M18.638 7.5h-1.5V9h1.5V7.5Z"/>
    <path fill="#190C0B" d="M17.138 7.5h-1.5V9h1.5V7.5Z"/>
    <path fill="#7E4B08" d="M15.638 7.5h-1.5V9h1.5V7.5Z"/>
    <path fill="#E39B00" d="M14.138 7.5h-1.5V9h1.5V7.5Z"/>
    <path fill="#5D320C" d="M12.638 7.5h-1.5V9h1.5V7.5Z"/>
    <path fill="#22110E" d="M11.138 7.5h-1.5V9h1.5V7.5Z"/>
    <path fill="#6A2C1E" d="M9.638 7.5h-1.5V9h1.5V7.5Z"/>
    <path fill="#4F3A11" d="M18.638 6h-1.5v1.5h1.5V6Z"/>
    <path fill="#2F270E" d="M17.138 6h-1.5v1.5h1.5V6Z"/>
    <path fill="#904400" d="M15.638 6h-1.5v1.5h1.5V6Z"/>
    <path fill="#341206" d="M14.138 6h-1.5v1.5h1.5V6Z"/>
    <path fill="#140E0F" d="M12.638 6h-1.5v1.5h1.5V6Z"/>
    <path fill="#4D401E" d="M11.138 6h-1.5v1.5h1.5V6Z"/>
    <path fill="#3B3524" d="M9.638 6h-1.5v1.5h1.5V6Z"/>
    <path fill="#625617" d="M18.638 4.5h-1.5V6h1.5V4.5Z"/>
    <path fill="#333417" d="M17.138 4.5h-1.5V6h1.5V4.5Z"/>
    <path fill="#41160C" d="M15.638 4.5h-1.5V6h1.5V4.5Z"/>
    <path fill="#D47100" d="M14.138 4.5h-1.5V6h1.5V4.5Z"/>
    <path fill="#33190B" d="M12.638 4.5h-1.5V6h1.5V4.5Z"/>
    <path fill="#21200E" d="M11.138 4.5h-1.5V6h1.5V4.5Z"/>
    <path fill="#3B3B23" d="M9.638 4.5h-1.5V6h1.5V4.5Z"/>
    <path fill="#C29F09" d="M18.638 3h-1.5v1.5h1.5V3Z"/>
    <path fill="#83711D" d="M17.138 3h-1.5v1.5h1.5V3Z"/>
    <path fill="#461400" d="M15.638 3h-1.5v1.5h1.5V3Z"/>
    <path fill="#D17C00" d="M14.138 3h-1.5v1.5h1.5V3Z"/>
    <path fill="#8A5D1B" d="M12.638 3h-1.5v1.5h1.5V3Z"/>
    <path fill="#B6972C" d="M11.138 3h-1.5v1.5h1.5V3Z"/>
    <path fill="#7C6729" d="M9.638 3h-1.5v1.5h1.5V3Z"/>
    <path fill="#BD980B" d="M18.638 1.5h-1.5V3h1.5V1.5Z"/>
    <path fill="#E2B92B" d="M17.138 1.5h-1.5V3h1.5V1.5Z"/>
    <path fill="#020000" d="M15.638 1.5h-1.5V3h1.5V1.5Z"/>
    <path fill="#D68900" d="M14.138 1.5h-1.5V3h1.5V1.5Z"/>
    <path fill="#B38825" d="M12.638 1.5h-1.5V3h1.5V1.5Z"/>
    <path fill="#F4C32E" d="M11.138 1.5h-1.5V3h1.5V1.5Z"/>
    <path fill="#C29F36" d="M9.638 1.5h-1.5V3h1.5V1.5Z"/>
    <path fill="#8D8239" d="M18.638 0h-1.5v1.5h1.5V0Z"/>
    <path fill="#8F732B" d="M17.138 0h-1.5v1.5h1.5V0Z"/>
    <path fill="#AA9530" d="M15.638 0h-1.5v1.5h1.5V0Z"/>
    <path fill="#8F8533" d="M14.138 0h-1.5v1.5h1.5V0Z"/>
    <path fill="#887527" d="M12.638 0h-1.5v1.5h1.5V0Z"/>
    <path fill="#8F792B" d="M11.138 0h-1.5v1.5h1.5V0Z"/>
    <path fill="#93813A" d="M9.638 0h-1.5v1.5h1.5V0Z"/>
    <path fill="#CA9B00" d="M8.138 0h-1.5v1.5h1.5V0Zm0 1.5h-1.5V3h1.5V1.5Zm0 1.5h-1.5v1.5h1.5V3Zm0 1.5h-1.5V6h1.5V4.5Zm0 1.5h-1.5v1.5h1.5V6Zm0 1.5h-1.5V9h1.5V7.5Zm0 1.5h-1.5v1.5h1.5V9Zm0 1.5h-1.5V12h1.5v-1.5Zm0 1.5h-1.5v1.5h1.5V12Zm0 1.5h-1.5V15h1.5v-1.5Zm0 1.5h-1.5v1.5h1.5V15Zm1.5 0h-1.5v1.5h1.5V15Zm1.5 0h-1.5v1.5h1.5V15Zm1.5 0h-1.5v1.5h1.5V15Zm1.5 0h-1.5v1.5h1.5V15Zm1.5 0h-1.5v1.5h1.5V15Zm1.5 0h-1.5v1.5h1.5V15Zm1.5 0h-1.5v1.5h1.5V15Zm0-1.5h-1.5V15h1.5v-1.5Zm0-1.5h-1.5v1.5h1.5V12Zm0-1.5h-1.5V12h1.5v-1.5Zm0-1.5h-1.5v1.5h1.5V9Zm0-1.5h-1.5V9h1.5V7.5Zm0-1.5h-1.5v1.5h1.5V6Zm0-1.5h-1.5V6h1.5V4.5Zm0-1.5h-1.5v1.5h1.5V3Zm0-1.5h-1.5V3h1.5V1.5Zm0-1.5h-1.5v1.5h1.5V0Zm-1.5 0h-1.5v1.5h1.5V0Zm-1.5 0h-1.5v1.5h1.5V0Zm-1.5 0h-1.5v1.5h1.5V0Zm-1.5 0h-1.5v1.5h1.5V0Zm-1.5 0h-1.5v1.5h1.5V0Zm-1.5 0h-1.5v1.5h1.5V0Z"/>
    <path fill="#F93737" d="M4.518 6.258s3.013.904 8.105.904c5.091 0 8.136-.904 8.136-.904V21.5a1 1 0 0 1-1 1H5.518a1 1 0 0 1-1-1V6.258Z"/>
</svg>
