<svg xmlns="http://www.w3.org/2000/svg" viewBox="0 0 24 24">
    <path fill="#db1919" d="M4.517 6.195S3.724 3.91 12.638 3.91s8.12 2.284 8.12 2.284v.983H4.519v-.983z"/>
    <path fill="#291e20" d="M18.638 15h-1.5v1.5h1.5z"/>
    <path fill="#1a1115" d="M17.138 15h-1.5v1.5h1.5z"/>
    <path fill="#1b1417" d="M15.638 15h-1.5v1.5h1.5z"/>
    <path fill="#1d1018" d="M14.138 15h-1.5v1.5h1.5z"/>
    <path fill="#131117" d="M12.638 15h-1.5v1.5h1.5z"/>
    <path fill="#1b1419" d="M11.138 15h-1.5v1.5h1.5z"/>
    <path fill="#2d2529" d="M9.638 15h-1.5v1.5h1.5z"/>
    <path fill="#1f1114" d="M18.638 13.5h-1.5V15h1.5z"/>
    <path fill="#0f0407" d="M17.138 13.5h-1.5V15h1.5z"/>
    <path fill="#130408" d="M15.638 13.5h-1.5V15h1.5z"/>
    <path fill="#12060b" d="M14.138 13.5h-1.5V15h1.5z"/>
    <path fill="#562311" d="M12.638 13.5h-1.5V15h1.5z"/>
    <path fill="#512111" d="M11.138 13.5h-1.5V15h1.5z"/>
    <path fill="#211618" d="M9.638 13.5h-1.5V15h1.5z"/>
    <path fill="#171112" d="M18.638 12h-1.5v1.5h1.5z"/>
    <path fill="#1a0a0b" d="M17.138 12h-1.5v1.5h1.5z"/>
    <path fill="#270d04" d="M15.638 12h-1.5v1.5h1.5z"/>
    <path fill="#e97800" d="M14.138 12h-1.5v1.5h1.5z"/>
    <path fill="#ed8900" d="M12.638 12h-1.5v1.5h1.5z"/>
    <path fill="#5b3311" d="M11.138 12h-1.5v1.5h1.5z"/>
    <path fill="#21171d" d="M9.638 12h-1.5v1.5h1.5z"/>
    <path fill="#1d1614" d="M18.638 10.5h-1.5V12h1.5z"/>
    <path fill="#150706" d="M17.138 10.5h-1.5V12h1.5z"/>
    <path fill="#030106" d="M15.638 10.5h-1.5V12h1.5z"/>
    <path fill="#0d0808" d="M14.138 10.5h-1.5V12h1.5z"/>
    <path fill="#462b10" d="M12.638 10.5h-1.5V12h1.5z"/>
    <path fill="#5c310c" d="M11.138 10.5h-1.5V12h1.5z"/>
    <path fill="#1c1118" d="M9.638 10.5h-1.5V12h1.5z"/>
    <path fill="#2c1b19" d="M18.638 9h-1.5v1.5h1.5z"/>
    <path fill="#1a0908" d="M17.138 9h-1.5v1.5h1.5z"/>
    <path fill="#0e0503" d="M15.638 9h-1.5v1.5h1.5z"/>
    <path fill="#0a060a" d="M14.138 9h-1.5v1.5h1.5z"/>
    <path fill="#000105" d="M12.638 9h-1.5v1.5h1.5z"/>
    <path fill="#10070c" d="M11.138 9h-1.5v1.5h1.5z"/>
    <path fill="#4f361d" d="M9.638 9h-1.5v1.5h1.5z"/>
    <path fill="#592613" d="M18.638 7.5h-1.5V9h1.5z"/>
    <path fill="#190c0b" d="M17.138 7.5h-1.5V9h1.5z"/>
    <path fill="#7e4b08" d="M15.638 7.5h-1.5V9h1.5z"/>
    <path fill="#e39b00" d="M14.138 7.5h-1.5V9h1.5z"/>
    <path fill="#5d320c" d="M12.638 7.5h-1.5V9h1.5z"/>
    <path fill="#22110e" d="M11.138 7.5h-1.5V9h1.5z"/>
    <path fill="#6a2c1e" d="M9.638 7.5h-1.5V9h1.5z"/>
    <path fill="#4f3a11" d="M18.638 6h-1.5v1.5h1.5z"/>
    <path fill="#2f270e" d="M17.138 6h-1.5v1.5h1.5z"/>
    <path fill="#904400" d="M15.638 6h-1.5v1.5h1.5z"/>
    <path fill="#341206" d="M14.138 6h-1.5v1.5h1.5z"/>
    <path fill="#140e0f" d="M12.638 6h-1.5v1.5h1.5z"/>
    <path fill="#4d401e" d="M11.138 6h-1.5v1.5h1.5z"/>
    <path fill="#3b3524" d="M9.638 6h-1.5v1.5h1.5z"/>
    <path fill="#625617" d="M18.638 4.5h-1.5V6h1.5z"/>
    <path fill="#333417" d="M17.138 4.5h-1.5V6h1.5z"/>
    <path fill="#41160c" d="M15.638 4.5h-1.5V6h1.5z"/>
    <path fill="#d47100" d="M14.138 4.5h-1.5V6h1.5z"/>
    <path fill="#33190b" d="M12.638 4.5h-1.5V6h1.5z"/>
    <path fill="#21200e" d="M11.138 4.5h-1.5V6h1.5z"/>
    <path fill="#3b3b23" d="M9.638 4.5h-1.5V6h1.5z"/>
    <path fill="#c29f09" d="M18.638 3h-1.5v1.5h1.5z"/>
    <path fill="#83711d" d="M17.138 3h-1.5v1.5h1.5z"/>
    <path fill="#461400" d="M15.638 3h-1.5v1.5h1.5z"/>
    <path fill="#d17c00" d="M14.138 3h-1.5v1.5h1.5z"/>
    <path fill="#8a5d1b" d="M12.638 3h-1.5v1.5h1.5z"/>
    <path fill="#b6972c" d="M11.138 3h-1.5v1.5h1.5z"/>
    <path fill="#7c6729" d="M9.638 3h-1.5v1.5h1.5z"/>
    <path fill="#bd980b" d="M18.638 1.5h-1.5V3h1.5z"/>
    <path fill="#e2b92b" d="M17.138 1.5h-1.5V3h1.5z"/>
    <path fill="#020000" d="M15.638 1.5h-1.5V3h1.5z"/>
    <path fill="#d68900" d="M14.138 1.5h-1.5V3h1.5z"/>
    <path fill="#b38825" d="M12.638 1.5h-1.5V3h1.5z"/>
    <path fill="#f4c32e" d="M11.138 1.5h-1.5V3h1.5z"/>
    <path fill="#c29f36" d="M9.638 1.5h-1.5V3h1.5z"/>
    <path fill="#8d8239" d="M18.638 0h-1.5v1.5h1.5z"/>
    <path fill="#8f732b" d="M17.138 0h-1.5v1.5h1.5z"/>
    <path fill="#aa9530" d="M15.638 0h-1.5v1.5h1.5z"/>
    <path fill="#8f8533" d="M14.138 0h-1.5v1.5h1.5z"/>
    <path fill="#887527" d="M12.638 0h-1.5v1.5h1.5z"/>
    <path fill="#8f792b" d="M11.138 0h-1.5v1.5h1.5z"/>
    <path fill="#93813a" d="M9.638 0h-1.5v1.5h1.5z"/>
    <path fill="#ca9b00" d="M8.138 0h-1.5v1.5h1.5zm0 1.5h-1.5V3h1.5zm0 1.5h-1.5v1.5h1.5zm0 1.5h-1.5V6h1.5zm0 1.5h-1.5v1.5h1.5zm0 1.5h-1.5V9h1.5zm0 1.5h-1.5v1.5h1.5zm0 1.5h-1.5V12h1.5zm0 1.5h-1.5v1.5h1.5zm0 1.5h-1.5V15h1.5zm0 1.5h-1.5v1.5h1.5zm1.5 0h-1.5v1.5h1.5zm1.5 0h-1.5v1.5h1.5zm1.5 0h-1.5v1.5h1.5zm1.5 0h-1.5v1.5h1.5zm1.5 0h-1.5v1.5h1.5zm1.5 0h-1.5v1.5h1.5zm1.5 0h-1.5v1.5h1.5zm0-1.5h-1.5V15h1.5zm0-1.5h-1.5v1.5h1.5zm0-1.5h-1.5V12h1.5zm0-1.5h-1.5v1.5h1.5zm0-1.5h-1.5V9h1.5zm0-1.5h-1.5v1.5h1.5zm0-1.5h-1.5V6h1.5zm0-1.5h-1.5v1.5h1.5zm0-1.5h-1.5V3h1.5zm0-1.5h-1.5v1.5h1.5zm-1.5 0h-1.5v1.5h1.5zm-1.5 0h-1.5v1.5h1.5zm-1.5 0h-1.5v1.5h1.5zm-1.5 0h-1.5v1.5h1.5zm-1.5 0h-1.5v1.5h1.5zm-1.5 0h-1.5v1.5h1.5z"/>
    <path fill="#f93737" d="M4.518 6.258s3.013.904 8.105.904c5.091 0 8.136-.904 8.136-.904V21.5a1 1 0 0 1-1 1H5.518a1 1 0 0 1-1-1z"/>
</svg>
