<svg viewBox="0 0 24 24" xmlns="http://www.w3.org/2000/svg"><path d="m4.517 6.195s-.793-2.285 8.121-2.285 8.12 2.284 8.12 2.284v.983h-16.239v-.983z" fill="#db1919"/><path d="m18.638 15h-1.5v1.5h1.5z" fill="#291e20"/><path d="m17.138 15h-1.5v1.5h1.5z" fill="#1a1115"/><path d="m15.638 15h-1.5v1.5h1.5z" fill="#1b1417"/><path d="m14.138 15h-1.5v1.5h1.5z" fill="#1d1018"/><path d="m12.638 15h-1.5v1.5h1.5z" fill="#131117"/><path d="m11.138 15h-1.5v1.5h1.5z" fill="#1b1419"/><path d="m9.638 15h-1.5v1.5h1.5z" fill="#2d2529"/><path d="m18.638 13.5h-1.5v1.5h1.5z" fill="#1f1114"/><path d="m17.138 13.5h-1.5v1.5h1.5z" fill="#0f0407"/><path d="m15.638 13.5h-1.5v1.5h1.5z" fill="#130408"/><path d="m14.138 13.5h-1.5v1.5h1.5z" fill="#12060b"/><path d="m12.638 13.5h-1.5v1.5h1.5z" fill="#562311"/><path d="m11.138 13.5h-1.5v1.5h1.5z" fill="#512111"/><path d="m9.638 13.5h-1.5v1.5h1.5z" fill="#211618"/><path d="m18.638 12h-1.5v1.5h1.5z" fill="#171112"/><path d="m17.138 12h-1.5v1.5h1.5z" fill="#1a0a0b"/><path d="m15.638 12h-1.5v1.5h1.5z" fill="#270d04"/><path d="m14.138 12h-1.5v1.5h1.5z" fill="#e97800"/><path d="m12.638 12h-1.5v1.5h1.5z" fill="#ed8900"/><path d="m11.138 12h-1.5v1.5h1.5z" fill="#5b3311"/><path d="m9.638 12h-1.5v1.5h1.5z" fill="#21171d"/><path d="m18.638 10.5h-1.5v1.5h1.5z" fill="#1d1614"/><path d="m17.138 10.5h-1.5v1.5h1.5z" fill="#150706"/><path d="m15.638 10.5h-1.5v1.5h1.5z" fill="#030106"/><path d="m14.138 10.5h-1.5v1.5h1.5z" fill="#0d0808"/><path d="m12.638 10.5h-1.5v1.5h1.5z" fill="#462b10"/><path d="m11.138 10.5h-1.5v1.5h1.5z" fill="#5c310c"/><path d="m9.638 10.5h-1.5v1.5h1.5z" fill="#1c1118"/><path d="m18.638 9h-1.5v1.5h1.5z" fill="#2c1b19"/><path d="m17.138 9h-1.5v1.5h1.5z" fill="#1a0908"/><path d="m15.638 9h-1.5v1.5h1.5z" fill="#0e0503"/><path d="m14.138 9h-1.5v1.5h1.5z" fill="#0a060a"/><path d="m12.638 9h-1.5v1.5h1.5z" fill="#000105"/><path d="m11.138 9h-1.5v1.5h1.5z" fill="#10070c"/><path d="m9.638 9h-1.5v1.5h1.5z" fill="#4f361d"/><path d="m18.638 7.5h-1.5v1.5h1.5z" fill="#592613"/><path d="m17.138 7.5h-1.5v1.5h1.5z" fill="#190c0b"/><path d="m15.638 7.5h-1.5v1.5h1.5z" fill="#7e4b08"/><path d="m14.138 7.5h-1.5v1.5h1.5z" fill="#e39b00"/><path d="m12.638 7.5h-1.5v1.5h1.5z" fill="#5d320c"/><path d="m11.138 7.5h-1.5v1.5h1.5z" fill="#22110e"/><path d="m9.638 7.5h-1.5v1.5h1.5z" fill="#6a2c1e"/><path d="m18.638 6h-1.5v1.5h1.5z" fill="#4f3a11"/><path d="m17.138 6h-1.5v1.5h1.5z" fill="#2f270e"/><path d="m15.638 6h-1.5v1.5h1.5z" fill="#904400"/><path d="m14.138 6h-1.5v1.5h1.5z" fill="#341206"/><path d="m12.638 6h-1.5v1.5h1.5z" fill="#140e0f"/><path d="m11.138 6h-1.5v1.5h1.5z" fill="#4d401e"/><path d="m9.638 6h-1.5v1.5h1.5z" fill="#3b3524"/><path d="m18.638 4.5h-1.5v1.5h1.5z" fill="#625617"/><path d="m17.138 4.5h-1.5v1.5h1.5z" fill="#333417"/><path d="m15.638 4.5h-1.5v1.5h1.5z" fill="#41160c"/><path d="m14.138 4.5h-1.5v1.5h1.5z" fill="#d47100"/><path d="m12.638 4.5h-1.5v1.5h1.5z" fill="#33190b"/><path d="m11.138 4.5h-1.5v1.5h1.5z" fill="#21200e"/><path d="m9.638 4.5h-1.5v1.5h1.5z" fill="#3b3b23"/><path d="m18.638 3h-1.5v1.5h1.5z" fill="#c29f09"/><path d="m17.138 3h-1.5v1.5h1.5z" fill="#83711d"/><path d="m15.638 3h-1.5v1.5h1.5z" fill="#461400"/><path d="m14.138 3h-1.5v1.5h1.5z" fill="#d17c00"/><path d="m12.638 3h-1.5v1.5h1.5z" fill="#8a5d1b"/><path d="m11.138 3h-1.5v1.5h1.5z" fill="#b6972c"/><path d="m9.638 3h-1.5v1.5h1.5z" fill="#7c6729"/><path d="m18.638 1.5h-1.5v1.5h1.5z" fill="#bd980b"/><path d="m17.138 1.5h-1.5v1.5h1.5z" fill="#e2b92b"/><path d="m15.638 1.5h-1.5v1.5h1.5z" fill="#020000"/><path d="m14.138 1.5h-1.5v1.5h1.5z" fill="#d68900"/><path d="m12.638 1.5h-1.5v1.5h1.5z" fill="#b38825"/><path d="m11.138 1.5h-1.5v1.5h1.5z" fill="#f4c32e"/><path d="m9.638 1.5h-1.5v1.5h1.5z" fill="#c29f36"/><path d="m18.638 0h-1.5v1.5h1.5z" fill="#8d8239"/><path d="m17.138 0h-1.5v1.5h1.5z" fill="#8f732b"/><path d="m15.638 0h-1.5v1.5h1.5z" fill="#aa9530"/><path d="m14.138 0h-1.5v1.5h1.5z" fill="#8f8533"/><path d="m12.638 0h-1.5v1.5h1.5z" fill="#887527"/><path d="m11.138 0h-1.5v1.5h1.5z" fill="#8f792b"/><path d="m9.638 0h-1.5v1.5h1.5z" fill="#93813a"/><path d="m8.138 0h-1.5v1.5h1.5zm0 1.5h-1.5v1.5h1.5zm0 1.5h-1.5v1.5h1.5zm0 1.5h-1.5v1.5h1.5zm0 1.5h-1.5v1.5h1.5zm0 1.5h-1.5v1.5h1.5zm0 1.5h-1.5v1.5h1.5zm0 1.5h-1.5v1.5h1.5zm0 1.5h-1.5v1.5h1.5zm0 1.5h-1.5v1.5h1.5zm0 1.5h-1.5v1.5h1.5zm1.5 0h-1.5v1.5h1.5zm1.5 0h-1.5v1.5h1.5zm1.5 0h-1.5v1.5h1.5zm1.5 0h-1.5v1.5h1.5zm1.5 0h-1.5v1.5h1.5zm1.5 0h-1.5v1.5h1.5zm1.5 0h-1.5v1.5h1.5zm0-1.5h-1.5v1.5h1.5zm0-1.5h-1.5v1.5h1.5zm0-1.5h-1.5v1.5h1.5zm0-1.5h-1.5v1.5h1.5zm0-1.5h-1.5v1.5h1.5zm0-1.5h-1.5v1.5h1.5zm0-1.5h-1.5v1.5h1.5zm0-1.5h-1.5v1.5h1.5zm0-1.5h-1.5v1.5h1.5zm0-1.5h-1.5v1.5h1.5zm-1.5 0h-1.5v1.5h1.5zm-1.5 0h-1.5v1.5h1.5zm-1.5 0h-1.5v1.5h1.5zm-1.5 0h-1.5v1.5h1.5zm-1.5 0h-1.5v1.5h1.5zm-1.5 0h-1.5v1.5h1.5z" fill="#ca9b00"/><path d="m4.518 6.258s3.013.904 8.105.904c5.091 0 8.136-.904 8.136-.904v15.242a1 1 0 0 1 -1 1h-14.241a1 1 0 0 1 -1-1z" fill="#f93737"/></svg>