<svg width="24" height="24" viewBox="0 0 24 24" fill="none" xmlns="http://www.w3.org/2000/svg">
<g>
        <path
            d="M4.51712 6.19485C4.51712 6.19485 3.72407 3.91086 12.638 3.91086C21.5519 3.91086 20.7588 6.19485 20.7588 6.19485V7.17823H4.51712V6.19485Z"
            fill="#DB1919"
        />
        <path d="M18.6377 15.0001H17.1377V16.5001H18.6377V15.0001Z" fill="#291E20" />
        <path d="M17.1377 15.0001H15.6377V16.5001H17.1377V15.0001Z" fill="#1A1115" />
        <path d="M15.6377 15.0001H14.1377V16.5001H15.6377V15.0001Z" fill="#1B1417" />
        <path d="M14.1377 15.0001H12.6377V16.5001H14.1377V15.0001Z" fill="#1D1018" />
        <path d="M12.6377 15.0001H11.1377V16.5001H12.6377V15.0001Z" fill="#131117" />
        <path d="M11.1377 15.0001H9.6377V16.5001H11.1377V15.0001Z" fill="#1B1419" />
        <path d="M9.6377 15.0001H8.1377V16.5001H9.6377V15.0001Z" fill="#2D2529" />
        <path d="M18.6377 13.5001H17.1377V15.0001H18.6377V13.5001Z" fill="#1F1114" />
        <path d="M17.1377 13.5001H15.6377V15.0001H17.1377V13.5001Z" fill="#0F0407" />
        <path d="M15.6377 13.5001H14.1377V15.0001H15.6377V13.5001Z" fill="#130408" />
        <path d="M14.1377 13.5001H12.6377V15.0001H14.1377V13.5001Z" fill="#12060B" />
        <path d="M12.6377 13.5001H11.1377V15.0001H12.6377V13.5001Z" fill="#562311" />
        <path d="M11.1377 13.5001H9.6377V15.0001H11.1377V13.5001Z" fill="#512111" />
        <path d="M9.6377 13.5001H8.1377V15.0001H9.6377V13.5001Z" fill="#211618" />
        <path d="M18.6377 12.0001H17.1377V13.5001H18.6377V12.0001Z" fill="#171112" />
        <path d="M17.1377 12.0001H15.6377V13.5001H17.1377V12.0001Z" fill="#1A0A0B" />
        <path d="M15.6377 12.0001H14.1377V13.5001H15.6377V12.0001Z" fill="#270D04" />
        <path d="M14.1377 12.0001H12.6377V13.5001H14.1377V12.0001Z" fill="#E97800" />
        <path d="M12.6377 12.0001H11.1377V13.5001H12.6377V12.0001Z" fill="#ED8900" />
        <path d="M11.1377 12.0001H9.6377V13.5001H11.1377V12.0001Z" fill="#5B3311" />
        <path d="M9.6377 12.0001H8.1377V13.5001H9.6377V12.0001Z" fill="#21171D" />
        <path d="M18.6377 10.5001H17.1377V12.0001H18.6377V10.5001Z" fill="#1D1614" />
        <path d="M17.1377 10.5001H15.6377V12.0001H17.1377V10.5001Z" fill="#150706" />
        <path d="M15.6377 10.5001H14.1377V12.0001H15.6377V10.5001Z" fill="#030106" />
        <path d="M14.1377 10.5001H12.6377V12.0001H14.1377V10.5001Z" fill="#0D0808" />
        <path d="M12.6377 10.5001H11.1377V12.0001H12.6377V10.5001Z" fill="#462B10" />
        <path d="M11.1377 10.5001H9.6377V12.0001H11.1377V10.5001Z" fill="#5C310C" />
        <path d="M9.6377 10.5001H8.1377V12.0001H9.6377V10.5001Z" fill="#1C1118" />
        <path d="M18.6377 9.00009H17.1377V10.5001H18.6377V9.00009Z" fill="#2C1B19" />
        <path d="M17.1377 9.00009H15.6377V10.5001H17.1377V9.00009Z" fill="#1A0908" />
        <path d="M15.6377 9.00009H14.1377V10.5001H15.6377V9.00009Z" fill="#0E0503" />
        <path d="M14.1377 9.00009H12.6377V10.5001H14.1377V9.00009Z" fill="#0A060A" />
        <path d="M12.6377 9.00009H11.1377V10.5001H12.6377V9.00009Z" fill="#000105" />
        <path d="M11.1377 9.00009H9.6377V10.5001H11.1377V9.00009Z" fill="#10070C" />
        <path d="M9.6377 9.00009H8.1377V10.5001H9.6377V9.00009Z" fill="#4F361D" />
        <path d="M18.6377 7.50009H17.1377V9.00009H18.6377V7.50009Z" fill="#592613" />
        <path d="M17.1377 7.50009H15.6377V9.00009H17.1377V7.50009Z" fill="#190C0B" />
        <path d="M15.6377 7.50009H14.1377V9.00009H15.6377V7.50009Z" fill="#7E4B08" />
        <path d="M14.1377 7.50009H12.6377V9.00009H14.1377V7.50009Z" fill="#E39B00" />
        <path d="M12.6377 7.50009H11.1377V9.00009H12.6377V7.50009Z" fill="#5D320C" />
        <path d="M11.1377 7.50009H9.6377V9.00009H11.1377V7.50009Z" fill="#22110E" />
        <path d="M9.6377 7.50009H8.1377V9.00009H9.6377V7.50009Z" fill="#6A2C1E" />
        <path d="M18.6377 6.00009H17.1377V7.50009H18.6377V6.00009Z" fill="#4F3A11" />
        <path d="M17.1377 6.00009H15.6377V7.50009H17.1377V6.00009Z" fill="#2F270E" />
        <path d="M15.6377 6.00009H14.1377V7.50009H15.6377V6.00009Z" fill="#904400" />
        <path d="M14.1377 6.00009H12.6377V7.50009H14.1377V6.00009Z" fill="#341206" />
        <path d="M12.6377 6.00009H11.1377V7.50009H12.6377V6.00009Z" fill="#140E0F" />
        <path d="M11.1377 6.00009H9.6377V7.50009H11.1377V6.00009Z" fill="#4D401E" />
        <path d="M9.6377 6.00009H8.1377V7.50009H9.6377V6.00009Z" fill="#3B3524" />
        <path d="M18.6377 4.50009H17.1377V6.00009H18.6377V4.50009Z" fill="#625617" />
        <path d="M17.1377 4.50009H15.6377V6.00009H17.1377V4.50009Z" fill="#333417" />
        <path d="M15.6377 4.50009H14.1377V6.00009H15.6377V4.50009Z" fill="#41160C" />
        <path d="M14.1377 4.50009H12.6377V6.00009H14.1377V4.50009Z" fill="#D47100" />
        <path d="M12.6377 4.50009H11.1377V6.00009H12.6377V4.50009Z" fill="#33190B" />
        <path d="M11.1377 4.50009H9.6377V6.00009H11.1377V4.50009Z" fill="#21200E" />
        <path d="M9.6377 4.50009H8.1377V6.00009H9.6377V4.50009Z" fill="#3B3B23" />
        <path d="M18.6377 3.00009H17.1377V4.50009H18.6377V3.00009Z" fill="#C29F09" />
        <path d="M17.1377 3.00009H15.6377V4.50009H17.1377V3.00009Z" fill="#83711D" />
        <path d="M15.6377 3.00009H14.1377V4.50009H15.6377V3.00009Z" fill="#461400" />
        <path d="M14.1377 3.00009H12.6377V4.50009H14.1377V3.00009Z" fill="#D17C00" />
        <path d="M12.6377 3.00009H11.1377V4.50009H12.6377V3.00009Z" fill="#8A5D1B" />
        <path d="M11.1377 3.00009H9.6377V4.50009H11.1377V3.00009Z" fill="#B6972C" />
        <path d="M9.6377 3.00009H8.1377V4.50009H9.6377V3.00009Z" fill="#7C6729" />
        <path d="M18.6377 1.50009H17.1377V3.00009H18.6377V1.50009Z" fill="#BD980B" />
        <path d="M17.1377 1.50009H15.6377V3.00009H17.1377V1.50009Z" fill="#E2B92B" />
        <path d="M15.6377 1.50009H14.1377V3.00009H15.6377V1.50009Z" fill="#020000" />
        <path d="M14.1377 1.50009H12.6377V3.00009H14.1377V1.50009Z" fill="#D68900" />
        <path d="M12.6377 1.50009H11.1377V3.00009H12.6377V1.50009Z" fill="#B38825" />
        <path d="M11.1377 1.50009H9.6377V3.00009H11.1377V1.50009Z" fill="#F4C32E" />
        <path d="M9.6377 1.50009H8.1377V3.00009H9.6377V1.50009Z" fill="#C29F36" />
        <path d="M18.6377 9.15527e-05H17.1377V1.50009H18.6377V9.15527e-05Z" fill="#8D8239" />
        <path d="M17.1377 9.15527e-05H15.6377V1.50009H17.1377V9.15527e-05Z" fill="#8F732B" />
        <path d="M15.6377 9.15527e-05H14.1377V1.50009H15.6377V9.15527e-05Z" fill="#AA9530" />
        <path d="M14.1377 9.15527e-05H12.6377V1.50009H14.1377V9.15527e-05Z" fill="#8F8533" />
        <path d="M12.6377 9.15527e-05H11.1377V1.50009H12.6377V9.15527e-05Z" fill="#887527" />
        <path d="M11.1377 9.15527e-05H9.6377V1.50009H11.1377V9.15527e-05Z" fill="#8F792B" />
        <path d="M9.6377 9.15527e-05H8.1377V1.50009H9.6377V9.15527e-05Z" fill="#93813A" />
        <path d="M8.1377 9.15527e-05H6.6377V1.50009H8.1377V9.15527e-05Z" fill="#CA9B00" />
        <path d="M8.1377 1.50009H6.6377V3.00009H8.1377V1.50009Z" fill="#CA9B00" />
        <path d="M8.1377 3.00009H6.6377V4.50009H8.1377V3.00009Z" fill="#CA9B00" />
        <path d="M8.1377 4.50009H6.6377V6.00009H8.1377V4.50009Z" fill="#CA9B00" />
        <path d="M8.1377 6.00009H6.6377V7.50009H8.1377V6.00009Z" fill="#CA9B00" />
        <path d="M8.1377 7.50009H6.6377V9.00009H8.1377V7.50009Z" fill="#CA9B00" />
        <path d="M8.1377 9.00009H6.6377V10.5001H8.1377V9.00009Z" fill="#CA9B00" />
        <path d="M8.1377 10.5001H6.6377V12.0001H8.1377V10.5001Z" fill="#CA9B00" />
        <path d="M8.1377 12.0001H6.6377V13.5001H8.1377V12.0001Z" fill="#CA9B00" />
        <path d="M8.1377 13.5001H6.6377V15.0001H8.1377V13.5001Z" fill="#CA9B00" />
        <path d="M8.1377 15.0001H6.6377V16.5001H8.1377V15.0001Z" fill="#CA9B00" />
        <path d="M9.6377 15.0001H8.1377V16.5001H9.6377V15.0001Z" fill="#CA9B00" />
        <path d="M11.1377 15.0001H9.6377V16.5001H11.1377V15.0001Z" fill="#CA9B00" />
        <path d="M12.6377 15.0001H11.1377V16.5001H12.6377V15.0001Z" fill="#CA9B00" />
        <path d="M14.1377 15.0001H12.6377V16.5001H14.1377V15.0001Z" fill="#CA9B00" />
        <path d="M15.6377 15.0001H14.1377V16.5001H15.6377V15.0001Z" fill="#CA9B00" />
        <path d="M17.1377 15.0001H15.6377V16.5001H17.1377V15.0001Z" fill="#CA9B00" />
        <path d="M18.6377 15.0001H17.1377V16.5001H18.6377V15.0001Z" fill="#CA9B00" />
        <path d="M18.6377 13.5001H17.1377V15.0001H18.6377V13.5001Z" fill="#CA9B00" />
        <path d="M18.6377 12.0001H17.1377V13.5001H18.6377V12.0001Z" fill="#CA9B00" />
        <path d="M18.6377 10.5001H17.1377V12.0001H18.6377V10.5001Z" fill="#CA9B00" />
        <path d="M18.6377 9.00009H17.1377V10.5001H18.6377V9.00009Z" fill="#CA9B00" />
        <path d="M18.6377 7.50009H17.1377V9.00009H18.6377V7.50009Z" fill="#CA9B00" />
        <path d="M18.6377 6.00009H17.1377V7.50009H18.6377V6.00009Z" fill="#CA9B00" />
        <path d="M18.6377 4.50009H17.1377V6.00009H18.6377V4.50009Z" fill="#CA9B00" />
        <path d="M18.6377 3.00009H17.1377V4.50009H18.6377V3.00009Z" fill="#CA9B00" />
        <path d="M18.6377 1.50009H17.1377V3.00009H18.6377V1.50009Z" fill="#CA9B00" />
        <path d="M18.6377 9.15527e-05H17.1377V1.50009H18.6377V9.15527e-05Z" fill="#CA9B00" />
        <path d="M17.1377 9.15527e-05H15.6377V1.50009H17.1377V9.15527e-05Z" fill="#CA9B00" />
        <path d="M15.6377 9.15527e-05H14.1377V1.50009H15.6377V9.15527e-05Z" fill="#CA9B00" />
        <path d="M14.1377 9.15527e-05H12.6377V1.50009H14.1377V9.15527e-05Z" fill="#CA9B00" />
        <path d="M12.6377 9.15527e-05H11.1377V1.50009H12.6377V9.15527e-05Z" fill="#CA9B00" />
        <path d="M11.1377 9.15527e-05H9.6377V1.50009H11.1377V9.15527e-05Z" fill="#CA9B00" />
        <path d="M9.6377 9.15527e-05H8.1377V1.50009H9.6377V9.15527e-05Z" fill="#CA9B00" />
        <path
            d="M4.51758 6.2583C4.51758 6.2583 7.53117 7.16238 12.6226 7.16238C17.714 7.16238 20.7593 6.2583 20.7593 6.2583V21.5C20.7593 22.0523 20.3116 22.5 19.7593 22.5H5.51758C4.96529 22.5 4.51758 22.0523 4.51758 21.5V6.2583Z"
            fill="#F93737"
        />
    </g>
</svg>
  