<svg viewBox="0 0 27 26" xmlns="http://www.w3.org/2000/svg"><path d="m13.5 25c6.627 0 12-5.373 12-12s-5.373-12-12-12-12 5.373-12 12 5.373 12 12 12z" fill="#627eea"/><path d="m13.498 6.6-.088.292v8.464l.088.086 3.999-2.322-4-6.52z" fill="#c0cbf6"/><path d="m13.5 6.6-4 6.52 4 2.322z" fill="#fff"/><path d="m13.498 16.185-.049.059v3.015l.05.141 4.001-5.537z" fill="#c0cbf6"/><path d="m13.5 19.4v-3.215l-4-2.322z" fill="#fff"/><path d="m13.498 15.446 4-2.322-4-1.786z" fill="#8197ee"/><path d="m9.5 13.124 4 2.322v-4.108z" fill="#c0cbf6"/><path d="m13.5 24c-6.075 0-11-4.925-11-11h-2c0 7.18 5.82 13 13 13zm11-11c0 6.075-4.925 11-11 11v2c7.18 0 13-5.82 13-13zm-11-11c6.075 0 11 4.925 11 11h2c0-7.18-5.82-13-13-13zm0-2c-7.18 0-13 5.82-13 13h2c0-6.075 4.925-11 11-11z" fill="#fff"/></svg>