<svg xmlns="http://www.w3.org/2000/svg" viewBox="0 0 27 26">
    <path fill="#627EEA" d="M13.5 25c6.627 0 12-5.373 12-12s-5.373-12-12-12-12 5.373-12 12 5.373 12 12 12Z"/>
    <path fill="#C0CBF6" d="m13.498 6.6-.088.292v8.464l.088.086 3.999-2.322-4-6.52Z"/>
    <path fill="#fff" d="m13.5 6.6-4 6.52 4 2.322V6.6Z"/>
    <path fill="#C0CBF6" d="m13.498 16.185-.049.059v3.015l.05.141 4.001-5.537-4.002 2.322Z"/>
    <path fill="#fff" d="M13.5 19.4v-3.215l-4-2.322 4 5.537Z"/>
    <path fill="#8197EE" d="m13.498 15.446 4-2.322-4-1.786v4.108Z"/>
    <path fill="#C0CBF6" d="m9.5 13.124 4 2.322v-4.108l-4 1.786Z"/>
    <path fill="#fff" d="M13.5 24c-6.075 0-11-4.925-11-11h-2c0 7.18 5.82 13 13 13v-2Zm11-11c0 6.075-4.925 11-11 11v2c7.18 0 13-5.82 13-13h-2Zm-11-11c6.075 0 11 4.925 11 11h2c0-7.18-5.82-13-13-13v2Zm0-2C6.32 0 .5 5.82.5 13h2c0-6.075 4.925-11 11-11V0Z"/>
</svg>
