<svg fill="none" viewBox="0 0 42 42" xmlns="http://www.w3.org/2000/svg"><path d="m39.55 21a18.55 18.55 0 1 1 -37.1 0 18.55 18.55 0 0 1 37.1 0z" stroke="#fff"/><path d="m32.45 16.55v6.36h-19.91a8.66 8.66 0 0 0 16.21 1.9h3.7v5.35a2.3 2.3 0 0 1 -2.29 2.3h-18.32a2.3 2.3 0 0 1 -2.3-2.3v-13.61zm-5.9 8.27a6.74 6.74 0 0 1 -11.14 0h11.15zm-10.45-6.75a3.56 3.56 0 0 0 -3.53 3.06h1.96a1.66 1.66 0 0 1 3.14 0h1.96a3.56 3.56 0 0 0 -3.53-3.06zm9.8 0a3.56 3.56 0 0 0 -3.53 3.06h1.96a1.66 1.66 0 0 1 3.14 0h1.96a3.56 3.56 0 0 0 -3.53-3.06zm4.26-8.52a2.3 2.3 0 0 1 2.3 2.29v2.8h-22.92v-2.8a2.3 2.3 0 0 1 2.29-2.3h18.32z" fill="#fff"/></svg>