<svg xmlns="http://www.w3.org/2000/svg" fill="none" viewBox="0 0 42 42">
    <path stroke="#fff" d="M39.55 21a18.55 18.55 0 1 1-37.1 0 18.55 18.55 0 0 1 37.1 0z"/>
    <path fill="#fff" d="M32.45 16.55v6.36H12.54a8.66 8.66 0 0 0 16.21 1.9h3.7v5.35a2.3 2.3 0 0 1-2.29 2.3H11.84a2.3 2.3 0 0 1-2.3-2.3V16.55zm-5.9 8.27a6.74 6.74 0 0 1-11.14 0h11.15zM16.1 18.07a3.56 3.56 0 0 0-3.53 3.06h1.96a1.66 1.66 0 0 1 3.14 0h1.96a3.56 3.56 0 0 0-3.53-3.06m9.8 0a3.56 3.56 0 0 0-3.53 3.06h1.96a1.66 1.66 0 0 1 3.14 0h1.96a3.56 3.56 0 0 0-3.53-3.06m4.26-8.52a2.3 2.3 0 0 1 2.3 2.29v2.8H9.54v-2.8a2.3 2.3 0 0 1 2.29-2.3h18.32z"/>
</svg>
