<svg fill="none" viewBox="0 0 65 64" xmlns="http://www.w3.org/2000/svg"><rect fill="#fff" fill-opacity=".08" height="64" rx="4" width="64" x=".904"/><path d="m15.934 48.97a24 24 0 1 0 33.941-33.94 24 24 0 0 0 -33.941 33.94zm3.77-3.77a18.668 18.668 0 1 1 26.402-26.4 18.668 18.668 0 0 1 -26.402 26.4z" fill="#f5f5f5"/><path d="m27.57 37.682v-11.362a2.667 2.667 0 0 1 4.147-2.222l8.525 5.686a2.668 2.668 0 0 1 0 4.437l-8.525 5.685a2.667 2.667 0 0 1 -4.147-2.226z" fill="#fff"/><path d="m27.57 37.682v-11.362a2.667 2.667 0 0 1 4.147-2.222l8.525 5.686a2.668 2.668 0 0 1 0 4.437l-8.525 5.685a2.667 2.667 0 0 1 -4.147-2.226z" fill="#1c68f3" fill-opacity=".05"/></svg>