<svg xmlns="http://www.w3.org/2000/svg" fill="none" viewBox="0 0 65 64">
    <rect width="64" height="64" x=".904" fill="#fff" fill-opacity=".08" rx="4"/>
    <path fill="#f5f5f5" d="M15.934 48.97a24 24 0 1 0 33.941-33.94 24 24 0 0 0-33.941 33.94m3.77-3.77a18.668 18.668 0 1 1 26.402-26.4 18.668 18.668 0 0 1-26.402 26.4"/>
    <path fill="#fff" d="M27.57 37.682V26.32a2.667 2.667 0 0 1 4.147-2.222l8.525 5.686a2.668 2.668 0 0 1 0 4.437l-8.525 5.685a2.667 2.667 0 0 1-4.147-2.226z"/>
    <path fill="#1c68f3" fill-opacity=".05" d="M27.57 37.682V26.32a2.667 2.667 0 0 1 4.147-2.222l8.525 5.686a2.668 2.668 0 0 1 0 4.437l-8.525 5.685a2.667 2.667 0 0 1-4.147-2.226z"/>
</svg>
