<svg xmlns="http://www.w3.org/2000/svg" viewBox="0 0 19 18">
    <path fill="#fff" d="M12.662 16.5h-3.42l.265-.744c.07-.201.09-.417.062-.632a1.295 1.295 0 0 0-.236-.591 1.383 1.383 0 0 0-.48-.417 1.37 1.37 0 0 0-1.23 0 1.383 1.383 0 0 0-.48.417 1.401 1.401 0 0 0-.229.59 1.39 1.39 0 0 0 .063.633l.264.744H3.82A1.825 1.825 0 0 1 2 14.679v-3.406l.744.264a1.3 1.3 0 0 0 1.21-.174 1.35 1.35 0 0 0 .57-1.091c0-.208-.056-.43-.154-.618a1.382 1.382 0 0 0-.417-.48 1.384 1.384 0 0 0-.584-.236A1.36 1.36 0 0 0 2.744 9L2 9.264v-3.42c0-.486.188-.945.535-1.285.34-.34.806-.536 1.286-.536h1.974a2.423 2.423 0 0 1 1.32-2.245A2.43 2.43 0 0 1 8.243 1.5c.41 0 .792.09 1.126.258.347.18.646.444.876.764.229.32.375.695.424 1.077.02.14.027.278.02.41h1.974a1.824 1.824 0 0 1 1.821 1.822v1.974c.14-.007.278 0 .41.02.39.056.765.202 1.085.424.32.23.584.529.764.876.181.348.278.737.278 1.126 0 .39-.097.779-.277 1.126a2.445 2.445 0 0 1-1.85 1.3 2.03 2.03 0 0 1-.41.021v1.967c0 .243-.048.48-.139.695a1.94 1.94 0 0 1-.389.59 1.768 1.768 0 0 1-.59.397c-.23.104-.466.153-.703.153Zm-1.967-1.112h1.967a.728.728 0 0 0 .5-.209.728.728 0 0 0 .208-.5v-3.427l.745.264a1.366 1.366 0 0 0 1.223-.167c.174-.125.32-.291.418-.48a1.351 1.351 0 0 0-.008-1.236 1.382 1.382 0 0 0-.416-.48 1.285 1.285 0 0 0-.591-.23 1.399 1.399 0 0 0-.633.063l-.744.264V5.83c0-.09-.02-.18-.055-.27a.697.697 0 0 0-.382-.383.7.7 0 0 0-.271-.055h-3.42l.264-.744c.07-.202.09-.417.062-.633a1.326 1.326 0 0 0-.236-.59 1.382 1.382 0 0 0-.48-.417 1.44 1.44 0 0 0-.604-.126 1.323 1.323 0 0 0-1.092.563 1.326 1.326 0 0 0-.236.591c-.028.209-.007.431.063.633l.264.744H3.82a.71.71 0 0 0-.5.208.683.683 0 0 0-.209.494v1.974c.14-.007.278 0 .41.02a2.442 2.442 0 0 1 1.835 1.307c.18.348.271.737.271 1.126 0 .39-.097.779-.27 1.126a2.499 2.499 0 0 1-.758.876c-.32.222-.689.375-1.078.43-.132.008-.27.015-.41.008v1.96a.736.736 0 0 0 .209.5.663.663 0 0 0 .229.153.699.699 0 0 0 .271.056h1.974c-.007-.14 0-.278.021-.41a2.444 2.444 0 0 1 1.3-1.842 2.489 2.489 0 0 1 2.259 0c.347.18.646.445.876.764.229.32.375.695.424 1.078.013.139.02.278.02.417Z"/>
</svg>
