<svg xmlns="http://www.w3.org/2000/svg" viewBox="0 0 19 18">
    <path fill="#fff" d="M12.662 16.5h-3.42l.265-.744c.07-.201.09-.417.062-.632a1.3 1.3 0 0 0-.236-.591 1.4 1.4 0 0 0-.48-.417 1.37 1.37 0 0 0-1.23 0 1.4 1.4 0 0 0-.48.417 1.4 1.4 0 0 0-.229.59 1.4 1.4 0 0 0 .063.633l.264.744H3.82A1.825 1.825 0 0 1 2 14.679v-3.406l.744.264a1.3 1.3 0 0 0 1.21-.174 1.35 1.35 0 0 0 .57-1.091c0-.208-.056-.43-.154-.618a1.4 1.4 0 0 0-.417-.48 1.4 1.4 0 0 0-.584-.236A1.36 1.36 0 0 0 2.744 9L2 9.264v-3.42c0-.486.188-.945.535-1.285.34-.34.806-.536 1.286-.536h1.974a2.42 2.42 0 0 1 1.32-2.245A2.4 2.4 0 0 1 8.243 1.5c.41 0 .792.09 1.126.258.347.18.646.444.876.764s.375.695.424 1.077q.03.211.02.41h1.974a1.824 1.824 0 0 1 1.821 1.822v1.974q.211-.01.41.02c.39.056.765.202 1.085.424.32.23.584.529.764.876.181.348.278.737.278 1.126 0 .39-.097.779-.277 1.126a2.44 2.44 0 0 1-1.85 1.3 2 2 0 0 1-.41.021v1.967c0 .243-.048.48-.139.695a2 2 0 0 1-.389.59 1.8 1.8 0 0 1-.59.397q-.346.154-.703.153Zm-1.967-1.112h1.967a.73.73 0 0 0 .5-.209.73.73 0 0 0 .208-.5v-3.427l.745.264a1.37 1.37 0 0 0 1.223-.167c.174-.125.32-.291.418-.48a1.35 1.35 0 0 0-.008-1.236 1.4 1.4 0 0 0-.416-.48 1.3 1.3 0 0 0-.591-.23 1.4 1.4 0 0 0-.633.063l-.744.264V5.83q-.001-.135-.055-.27a.7.7 0 0 0-.382-.383.7.7 0 0 0-.271-.055h-3.42l.264-.744c.07-.202.09-.417.062-.633a1.3 1.3 0 0 0-.236-.59 1.4 1.4 0 0 0-.48-.417 1.4 1.4 0 0 0-.604-.126 1.32 1.32 0 0 0-1.092.563 1.3 1.3 0 0 0-.236.591c-.028.209-.007.431.063.633l.264.744H3.82a.7.7 0 0 0-.5.208.68.68 0 0 0-.209.494v1.974q.211-.01.41.02a2.44 2.44 0 0 1 1.835 1.307c.18.348.271.737.271 1.126 0 .39-.097.779-.27 1.126a2.5 2.5 0 0 1-.758.876c-.32.222-.689.375-1.078.43-.132.008-.27.015-.41.008v1.96a.74.74 0 0 0 .209.5.7.7 0 0 0 .229.153.7.7 0 0 0 .271.056h1.974q-.01-.211.021-.41a2.44 2.44 0 0 1 1.3-1.842 2.49 2.49 0 0 1 2.259 0c.347.18.646.445.876.764.229.32.375.695.424 1.078q.02.208.02.417Z"/>
</svg>
