<svg xmlns="http://www.w3.org/2000/svg" viewBox="0 0 18 18">
    <g fill="currentColor">
        <path d="m13.777 8.974-3.636 1.02a.323.323 0 0 0-.213.458l.023.042 1.942 3.17a.46.46 0 0 0 .554.18.33.33 0 0 0 .177-.173l.501-.743c.863.446 1.46.842 1.802 1.673l.527 1.28a.46.46 0 0 0 .516.27.33.33 0 0 0 .27-.29l.115-1c.208-1.655-.805-3.351-2.512-4.207l.474-1.174c.074-.182-.037-.4-.249-.485a.45.45 0 0 0-.29-.021Zm-2.892 1.6 2.37-.667-.303.752c-.074.183.037.4.248.485 1.376.556 2.287 1.74 2.372 3.016-.514-1.052-1.464-1.911-2.629-2.38-.21-.085-.442-.006-.516.177l-.277.686z"/>
        <path fill-rule="evenodd" d="M5.998 3.895c-.907.417-1.19.873-1.19 1.165s.283.747 1.19 1.165c.856.394 2.08.654 3.465.654s2.609-.26 3.464-.654c.908-.418 1.19-.873 1.19-1.165s-.283-.748-1.19-1.165c-.855-.394-2.08-.654-3.464-.654-1.385 0-2.61.26-3.465.654m-.502-1.09c1.046-.482 2.45-.764 3.967-.764s2.92.282 3.966.764c.995.457 1.888 1.211 1.888 2.255s-.893 1.797-1.888 2.255c-1.046.482-2.449.764-3.966.764s-2.92-.282-3.967-.764c-.994-.458-1.888-1.211-1.888-2.255s.894-1.798 1.888-2.255m.279 6.487c.708.375 1.738.655 2.942.738l-.082 1.197c-1.325-.091-2.529-.401-3.422-.875-.859-.455-1.605-1.165-1.605-2.115h1.2c0 .262.224.661.967 1.055m0 2.948c.708.374 1.738.654 2.942.737l-.082 1.197c-1.325-.091-2.529-.401-3.422-.875-.859-.455-1.605-1.165-1.605-2.115h1.2c0 .263.224.661.967 1.055Zm-.097 2.7c.755.4 2.1.713 4.374.713v1.2c-2.347 0-3.924-.318-4.935-.852-1.053-.557-1.509-1.365-1.509-2.223h1.2c0 .355.156.784.87 1.162" clip-rule="evenodd"/>
        <path fill-rule="evenodd" d="M14.717 4.358a.6.6 0 0 1 .6.6v2.548a.6.6 0 1 1-1.2 0V4.958a.6.6 0 0 1 .6-.6m-10.509 0a.6.6 0 0 1 .6.6v8.82a.6.6 0 0 1-1.2 0v-8.82a.6.6 0 0 1 .6-.6" clip-rule="evenodd"/>
    </g>
</svg>
