<svg xmlns="http://www.w3.org/2000/svg" fill="none" viewBox="0 0 24 24">
    <g filter="url('#PopupTrash_svg__a')">
        <path fill="#1C68F3" fill-opacity=".1" d="M4 11.095C4 9.938 4.988 9 6.207 9h11.586C19.012 9 20 9.938 20 11.095v6.81C20 19.062 19.012 20 17.793 20H6.207C4.988 20 4 19.062 4 17.905v-6.81Z"/>
    </g>
    <path fill="#1C68F3" d="m17 5.595-3.1-.508a.28.28 0 0 1-.225-.203L13.45 4h-2.905l-.22.883a.272.272 0 0 1-.224.204L7 5.595v.587h10v-.588ZM15.079 16l.81-9.273H8.111L8.922 16h6.157Zm-1.4-7.92a.276.276 0 0 1 .09-.188.286.286 0 0 1 .2-.074.275.275 0 0 1 .266.284l-.278 6.546a.271.271 0 0 1-.086.185.281.281 0 0 1-.192.076h-.011a.284.284 0 0 1-.193-.088.27.27 0 0 1-.073-.196l.277-6.546v.001Zm-1.945.011a.27.27 0 0 1 .082-.193.28.28 0 0 1 .393 0 .27.27 0 0 1 .081.193v6.546a.27.27 0 0 1-.081.192.28.28 0 0 1-.393 0 .27.27 0 0 1-.082-.193V8.091Zm-1.678-.273a.286.286 0 0 1 .198.073.275.275 0 0 1 .091.188l.278 6.545a.275.275 0 0 1-.265.284h-.013a.28.28 0 0 1-.192-.076.27.27 0 0 1-.085-.185L9.79 8.101a.27.27 0 0 1 .073-.195.28.28 0 0 1 .193-.088Z"/>
    <g filter="url('#PopupTrash_svg__b')">
        <path fill="#1C68F3" fill-opacity=".05" d="M4 12.895C4 11.848 4.988 11 6.207 11h11.586c1.219 0 2.207.848 2.207 1.895v5.21C20 19.152 19.012 20 17.793 20H6.207C4.988 20 4 19.152 4 18.105v-5.21Z"/>
    </g>
    <defs>
        <filter id="PopupTrash_svg__a" width="24" height="19" x="0" y="5" color-interpolation-filters="sRGB" filterUnits="userSpaceOnUse">
            <feFlood flood-opacity="0" result="BackgroundImageFix"/>
            <feGaussianBlur in="BackgroundImage" stdDeviation="2"/>
            <feComposite in2="SourceAlpha" operator="in" result="effect1_backgroundBlur_16600_2281"/>
            <feBlend in="SourceGraphic" in2="effect1_backgroundBlur_16600_2281" result="shape"/>
        </filter>
        <filter id="PopupTrash_svg__b" width="22" height="15" x="1" y="8" color-interpolation-filters="sRGB" filterUnits="userSpaceOnUse">
            <feFlood flood-opacity="0" result="BackgroundImageFix"/>
            <feGaussianBlur in="BackgroundImage" stdDeviation="1.5"/>
            <feComposite in2="SourceAlpha" operator="in" result="effect1_backgroundBlur_16600_2281"/>
            <feBlend in="SourceGraphic" in2="effect1_backgroundBlur_16600_2281" result="shape"/>
        </filter>
    </defs>
</svg>
