<svg width="12" height="12" viewBox="0 0 12 12" xmlns="http://www.w3.org/2000/svg">
<g>
        <path
            fill-rule="evenodd"
            clip-rule="evenodd"
            d="M5.802 9.272c-.674 0-1.26-.2-1.683-.595-.425-.397-.644-.954-.644-1.588V3.53c0-.63.218-1.185.64-1.582.418-.394 1-.596 1.669-.6H9.073c.674 0 1.261.2 1.683.594.425.397.644.955.644 1.588v3.56c0 .63-.217 1.184-.639 1.58-.419.395-1.001.597-1.67.6H9.09l-3.287.002v-.4.4Zm0-.8c-.517 0-.893-.152-1.137-.38-.24-.225-.39-.559-.39-1.003V3.53c0-.441.148-.774.387-.999.242-.227.614-.38 1.125-.383h3.286c.517 0 .893.151 1.137.379.24.225.39.56.39 1.003v3.56c0 .44-.148.773-.387.998-.241.227-.614.38-1.125.383l-3.286.001Z"
            fill='currentColor'
        />
        <path
            fill-rule="evenodd"
            clip-rule="evenodd"
            d="M4.058 10.83c-.674 0-1.26-.2-1.683-.595-.425-.397-.644-.955-.644-1.588v-3.56c0-.812.363-1.489 1.026-1.866a.4.4 0 0 1 .395.696c-.385.219-.621.612-.621 1.17v3.56c0 .444.15.778.39 1.003.244.228.62.38 1.137.38l3.286-.002c.572-.003.971-.193 1.209-.47a.4.4 0 1 1 .607.521c-.421.49-1.063.745-1.813.75H4.058v-.4.4Z"
            fill='currentColor'
        />
    </g>
</svg>
  
