<svg xmlns="http://www.w3.org/2000/svg" fill="none" viewBox="0 0 20 20">
    <g id="PublicKey2_svg__base/key" fill="currentColor" fill-rule="evenodd" clip-rule="evenodd">
        <path id="PublicKey2_svg__Ellipse 85 (Stroke)" d="M11.856 4.691a3.244 3.244 0 1 0 3.996 5.111 3.244 3.244 0 0 0-3.996-5.11Zm-1.608 5.375a4.577 4.577 0 1 1 7.212-5.638 4.577 4.577 0 0 1-7.212 5.638"/>
        <path id="PublicKey2_svg__Ellipse 86 (Stroke)" d="M13.433 6.71a.684.684 0 1 0 .842 1.076.684.684 0 0 0-.842-1.077Zm-1.168 1.78a2.017 2.017 0 1 1 3.178-2.484 2.017 2.017 0 0 1-3.178 2.484"/>
        <path id="PublicKey2_svg__Vector 11 (Stroke)" d="M1.924 16.573a.667.667 0 0 1 .114-.935l3.776-2.953 4.494-3.494a.667.667 0 0 1 .819 1.053L7.16 13.328l.95 1.215a.667.667 0 0 1-1.05.821l-.952-1.216-1.043.815 1.556 1.99a.667.667 0 1 1-1.05.82l-1.556-1.99-1.157.905a.667.667 0 0 1-.935-.115Z"/>
    </g>
</svg>
