<svg xmlns="http://www.w3.org/2000/svg" fill="none" viewBox="0 0 20 20">
    <path fill="currentColor" d="M10.7773 2.77832V9.22276H17.2218V2.77832H10.7773ZM16.444 8.38943H11.6107V3.5561H16.444V8.38943ZM2.77734 17.2228H9.22179V10.7783H2.77734V17.2228ZM3.55512 11.6117H8.38846V16.445H3.55512V11.6117ZM2.77734 9.22276H9.22179V2.77832H2.77734V9.22276ZM3.55512 3.5561H8.38846V8.38943H3.55512V3.5561ZM15.6107 17.2228H17.2218V14.0005H15.6107V17.2228ZM15.6107 12.3894H17.2218V10.7783H15.6107V12.3894ZM13.2218 10.7783H10.8329V13.1672H13.2218V13.945H14.8329V12.3339H13.2218V10.7783ZM10.7773 17.2228H13.9996V15.6117H10.7773V17.2228Z"/>
    <path fill="currentColor" d="M4.38867 7.61187H7.61089V4.38965H4.38867V7.61187ZM15.6109 4.38965H12.3887V7.61187H15.6109V4.38965ZM4.38867 15.6119H7.61089V12.3896H4.38867V15.6119Z"/>
</svg>
