<svg xmlns="http://www.w3.org/2000/svg" fill="none" viewBox="0 0 24 24">
    <path fill="currentColor" fill-rule="evenodd" d="M12 4.8a7.2 7.2 0 1 0 0 14.4 7.2 7.2 0 0 0 0-14.4M3.2 12a8.8 8.8 0 1 1 17.6 0 8.8 8.8 0 0 1-17.6 0" clip-rule="evenodd"/>
    <path fill="currentColor" d="M11.9 16.787a.69.69 0 1 1-.057-1.38.69.69 0 0 1 .056 1.38Zm2.956-6.713c-.04.738-.267 1.317-1.397 2.448-.571.573-.932 1.004-.97 1.38a.574.574 0 0 1-1.14-.112c.076-.795.66-1.437 1.3-2.08 1.027-1.024 1.046-1.35 1.063-1.697a1.48 1.48 0 0 0-.421-1.1 1.8 1.8 0 0 0-1.293-.55h-.003a1.714 1.714 0 0 0-1.707 1.711.574.574 0 0 1-1.147 0c0-.762.295-1.478.833-2.019a2.84 2.84 0 0 1 2.018-.838 2.95 2.95 0 0 1 2.13.906c.513.537.772 1.23.734 1.951"/>
    <path fill="currentColor" fill-rule="evenodd" d="M14.052 8.19a2.85 2.85 0 0 0-2.06-.876 2.74 2.74 0 0 0-1.948.81 2.74 2.74 0 0 0-.806 1.95.476.476 0 1 0 .952 0 1.81 1.81 0 0 1 1.804-1.809h.004a1.9 1.9 0 0 1 1.363.58 1.57 1.57 0 0 1 .449 1.172c-.01.18-.02.365-.165.636-.142.266-.411.612-.927 1.127-.644.646-1.2 1.264-1.272 2.02a.475.475 0 1 0 .947.092c.02-.213.132-.432.302-.664a7 7 0 0 1 .694-.775c.563-.563.895-.982 1.09-1.348a2.3 2.3 0 0 0 .28-1.036 2.5 2.5 0 0 0-.707-1.879m-2.06-1.07a3.04 3.04 0 0 1 2.2.935 2.7 2.7 0 0 1 .761 2.025c-.02.38-.09.723-.301 1.117-.21.39-.556.826-1.124 1.394a7 7 0 0 0-.675.753c-.163.22-.25.405-.266.568a.67.67 0 0 1-1.31.13m-.026-.261c.081-.835.692-1.5 1.329-2.14.512-.51.765-.84.893-1.08.125-.233.133-.385.142-.553a1.38 1.38 0 0 0-.394-1.027V8.98a1.7 1.7 0 0 0-1.223-.52h-.003a1.616 1.616 0 0 0-1.61 1.614.67.67 0 1 1-1.342 0c0-.788.306-1.529.862-2.088a2.94 2.94 0 0 1 2.087-.867v.098-.098m-.74 6.662.096.01-.097-.01m.644 1.723a.594.594 0 0 0-.234 1.147.592.592 0 1 0 .234-1.147m-.303-.145a.787.787 0 1 1 .558 1.473.787.787 0 0 1-.558-1.473" clip-rule="evenodd"/>
</svg>
