<svg fill="none" viewBox="0 0 24 24" xmlns="http://www.w3.org/2000/svg" xmlns:xlink="http://www.w3.org/1999/xlink"><linearGradient id="a" gradientUnits="userSpaceOnUse" x1="12" x2="12" y1="0" y2="24"><stop offset="0" stop-color="#0041b9"/><stop offset="1" stop-color="#1c68f3"/></linearGradient><circle cx="12" cy="12" fill="url(#a)" r="12"/><g clip-rule="evenodd" fill="#fff" fill-rule="evenodd"><path d="m12 15.707-4.097-4.097a.718.718 0 1 1 1.015-1.015l2.364 2.364v-6.792a.718.718 0 1 1 1.436 0v6.792l2.364-2.364a.718.718 0 1 1 1.015 1.015l-4.097 4.098z"/><path d="m6.436 14.423v2.692h11.128v-2.692h1.436v3.23a.897.897 0 0 1 -.897.898h-12.206a.897.897 0 0 1 -.897-.897v-3.231z"/></g></svg>