<svg xmlns="http://www.w3.org/2000/svg" fill="none" viewBox="0 0 24 24">
    <linearGradient id="ReceiveColorful_svg__a" x1="12" x2="12" y1="0" y2="24" gradientUnits="userSpaceOnUse">
        <stop offset="0" stop-color="#0041b9"/>
        <stop offset="1" stop-color="#1c68f3"/>
    </linearGradient>
    <circle cx="12" cy="12" r="12" fill="url(#ReceiveColorful_svg__a)"/>
    <g fill="#fff" fill-rule="evenodd" clip-rule="evenodd">
        <path d="M12 15.707 7.903 11.61a.718.718 0 1 1 1.015-1.015l2.364 2.364V6.167a.718.718 0 1 1 1.436 0v6.792l2.364-2.364a.718.718 0 1 1 1.015 1.015z"/>
        <path d="M6.436 14.423v2.692h11.128v-2.692H19v3.23a.897.897 0 0 1-.897.898H5.897A.897.897 0 0 1 5 17.654v-3.231z"/>
    </g>
</svg>
