<svg xmlns="http://www.w3.org/2000/svg" viewBox="0 0 20 20">
    <path fill="#db1919" d="M3.765 5.161s-.661-1.903 6.767-1.903 6.767 1.903 6.767 1.903v.82H3.765z"/>
    <circle cx="13.389" cy="4.498" r="1.96" fill="#ffbc5a" stroke="#f5b250" stroke-width=".2"/>
    <path fill="#fff" fill-rule="evenodd" d="M14.515 4.062v.621h-1.96a.85.85 0 0 0 .83.658.853.853 0 0 0 .766-.472h.364v.522a.225.225 0 0 1-.226.224h-1.804a.225.225 0 0 1-.226-.224V4.062zm-.58.807a.665.665 0 0 1-1.098 0h1.097zm-1.03-.658a.35.35 0 0 0-.348.298h.193a.163.163 0 0 1 .31 0h.192a.35.35 0 0 0-.347-.298zm.965 0a.35.35 0 0 0-.348.298h.193a.163.163 0 0 1 .31 0h.192a.35.35 0 0 0-.347-.298zm.42-.832c.124 0 .225.1.225.223v.274H12.26v-.274c0-.123.101-.223.226-.223h1.805z" clip-rule="evenodd"/>
    <path fill="#ffbc5a" stroke="#f5b250" stroke-width=".2" d="M9.484 4.498a1.96 1.96 0 1 1-3.92 0 1.96 1.96 0 0 1 3.92 0z"/>
    <path fill="#fff" fill-rule="evenodd" d="M8.65 4.062v.621H6.69a.85.85 0 0 0 .83.658.853.853 0 0 0 .766-.472h.364v.522a.225.225 0 0 1-.226.224H6.62a.225.225 0 0 1-.226-.224V4.062zm-.58.807a.665.665 0 0 1-1.098 0h1.097zm-1.03-.658a.35.35 0 0 0-.348.298h.192a.163.163 0 0 1 .31 0h.193a.35.35 0 0 0-.348-.298zm.964 0a.35.35 0 0 0-.347.298h.192a.163.163 0 0 1 .31 0h.193a.35.35 0 0 0-.348-.298zm.42-.832c.125 0 .226.1.226.223v.274H6.394v-.274c0-.123.101-.223.226-.223z" clip-rule="evenodd"/>
    <path fill="#ffbc5a" stroke="#f5b250" stroke-width=".2" d="M13.168 3.986a2.636 2.636 0 1 1-5.272 0 2.636 2.636 0 0 1 5.272 0z"/>
    <path fill="#fff" fill-rule="evenodd" d="M12.03 3.407v.825H9.426c.113.5.565.874 1.104.874.446 0 .831-.255 1.016-.627h.484v.693a.298.298 0 0 1-.3.297H9.333a.298.298 0 0 1-.3-.297V3.407zm-.771 1.072a.883.883 0 0 1-.73.382.883.883 0 0 1-.728-.382h1.457zM9.89 3.605a.465.465 0 0 0-.461.396h.255a.216.216 0 0 1 .412 0h.255a.465.465 0 0 0-.461-.396zm1.282 0a.465.465 0 0 0-.462.396h.256a.216.216 0 0 1 .206-.148c.096 0 .177.062.206.148h.255a.465.465 0 0 0-.461-.396zM11.73 2.5c.166 0 .3.133.3.297v.363H9.034v-.363c0-.164.134-.297.3-.297z" clip-rule="evenodd"/>
    <path fill="#f93737" d="M3.765 5.215s2.511.753 6.754.753 6.78-.753 6.78-.753V17.75a1 1 0 0 1-1 1H4.765a1 1 0 0 1-1-1z"/>
</svg>
