<svg width="36" height="36" viewBox="0 0 36 36" fill="none" xmlns="http://www.w3.org/2000/svg">
    <g filter="url(#filter0_d_11276_1901)">
        <path fill-rule="evenodd" clip-rule="evenodd"
            d="M25.5734 15.2691C25.6066 15.1886 25.6237 15.1024 25.6236 15.0153V13.6893C25.6236 13.5135 25.5538 13.345 25.4295 13.2207C25.3053 13.0964 25.1367 13.0266 24.961 13.0266H11.0396C10.8639 13.0266 10.6953 13.0964 10.571 13.2207C10.4468 13.345 10.377 13.5135 10.377 13.6893V15.0153C10.3769 15.1024 10.3939 15.1886 10.4272 15.2691C10.4605 15.3495 10.5093 15.4227 10.5708 15.4843C10.6324 15.5459 10.7054 15.5948 10.7859 15.6281C10.8663 15.6614 10.9525 15.6786 11.0396 15.6786H11.7028V22.9705C11.7028 23.0576 11.7199 23.1438 11.7533 23.2243C11.7866 23.3047 11.8355 23.3778 11.8971 23.4393C11.9587 23.5009 12.0318 23.5497 12.1123 23.5829C12.1928 23.6162 12.279 23.6333 12.3661 23.6332H23.6354C23.8112 23.6332 23.9799 23.5634 24.1042 23.4391C24.2286 23.3149 24.2986 23.1463 24.2988 22.9705V15.6786H24.961C25.048 15.6786 25.1343 15.6614 25.2147 15.6281C25.2951 15.5948 25.3682 15.5459 25.4298 15.4843C25.4913 15.4227 25.5401 15.3495 25.5734 15.2691Z"
            fill="#4B4B4B" />
        <path
            d="M21.5978 10.6C21.0911 11.1073 18.6631 11.7007 18.6631 11.7007C18.6631 11.7007 19.2598 9.27266 19.7638 8.76599C19.8825 8.63797 20.0258 8.53522 20.1851 8.46388C20.3445 8.39254 20.5166 8.35409 20.6912 8.35081C20.8657 8.34754 21.0392 8.37952 21.2011 8.44483C21.363 8.51014 21.5101 8.60745 21.6335 8.73093C21.7569 8.85441 21.8542 9.00152 21.9194 9.16346C21.9847 9.3254 22.0166 9.49883 22.0133 9.6734C22.0099 9.84796 21.9714 10.02 21.9 10.1794C21.8286 10.3387 21.7258 10.4813 21.5978 10.6Z"
            stroke="black" stroke-width="0.5" stroke-linecap="round" stroke-linejoin="round" />
        <path
            d="M14.4028 10.6001C14.9095 11.1074 17.3375 11.7008 17.3375 11.7008C17.3375 11.7008 16.7402 9.27345 16.2368 8.76678C15.9919 8.53162 15.6646 8.40186 15.325 8.40534C14.9855 8.40883 14.6609 8.54528 14.4208 8.78542C14.1808 9.02556 14.0444 9.35024 14.0411 9.68976C14.0377 10.0293 14.1676 10.3566 14.4028 10.6014V10.6001Z"
            stroke="black" stroke-width="0.5" stroke-linecap="round" stroke-linejoin="round" />
    </g>
    <path
        d="M24.2981 22.9705C24.298 23.1463 24.228 23.3148 24.1036 23.4391C23.9792 23.5633 23.8106 23.6331 23.6348 23.6331H12.3655C12.2784 23.6332 12.1922 23.6161 12.1117 23.5829C12.0312 23.5496 11.9581 23.5008 11.8965 23.4393C11.8349 23.3777 11.786 23.3047 11.7527 23.2242C11.7193 23.1438 11.7021 23.0575 11.7021 22.9705V15.6785H24.2975L24.2981 22.9705Z"
        fill="#F93737" />
    <path d="M24.2981 15.6785H11.7021V17.5585H24.2975V15.6785H24.2981Z" fill="#CD1B1B" />
    <path
        d="M25.6236 15.0153C25.6237 15.1024 25.6066 15.1886 25.5734 15.2691C25.5401 15.3495 25.4913 15.4227 25.4298 15.4843C25.3682 15.5459 25.2951 15.5948 25.2147 15.6281C25.1343 15.6614 25.048 15.6786 24.961 15.6786H11.0396C10.9525 15.6786 10.8663 15.6614 10.7859 15.6281C10.7054 15.5948 10.6324 15.5459 10.5708 15.4843C10.5093 15.4227 10.4605 15.3495 10.4272 15.2691C10.3939 15.1886 10.3769 15.1024 10.377 15.0153V13.6893C10.377 13.5135 10.4468 13.345 10.571 13.2207C10.6953 13.0964 10.8639 13.0266 11.0396 13.0266H24.961C25.1367 13.0266 25.3053 13.0964 25.4295 13.2207C25.5538 13.345 25.6236 13.5135 25.6236 13.6893V15.0159V15.0153Z"
        fill="#CD1B1B" />
    <path
        d="M25.6236 14.2006V13.6893C25.6236 13.5135 25.5538 13.345 25.4295 13.2207C25.3053 13.0964 25.1367 13.0266 24.961 13.0266H11.0396C10.8639 13.0266 10.6953 13.0964 10.571 13.2207C10.4468 13.345 10.377 13.5135 10.377 13.6893V14.2006H25.6236Z"
        fill="#F93737" />
    <path d="M20.3207 13.0266H15.6807V15.6786H20.3207V13.0266Z" fill="#D8922C" />
    <path d="M20.3207 13.0266H15.6807V14.2006H20.3207V13.0266Z" fill="#FFB952" />
    <path d="M20.3207 15.6785H15.6807V23.6331H20.3207V15.6785Z" fill="#FFB952" />
    <path d="M20.3207 15.6785H15.6807V17.5585H20.3207V15.6785Z" fill="#D8922C" />
    <path
        d="M25.6236 15.0153C25.6237 15.1024 25.6066 15.1886 25.5734 15.2691C25.5401 15.3495 25.4913 15.4227 25.4298 15.4843C25.3682 15.5459 25.2951 15.5948 25.2147 15.6281C25.1343 15.6614 25.048 15.6786 24.961 15.6786H11.0396C10.9525 15.6786 10.8663 15.6614 10.7859 15.6281C10.7054 15.5948 10.6324 15.5459 10.5708 15.4843C10.5093 15.4227 10.4605 15.3495 10.4272 15.2691C10.3939 15.1886 10.3769 15.1024 10.377 15.0153V13.6893C10.377 13.5135 10.4468 13.345 10.571 13.2207C10.6953 13.0964 10.8639 13.0266 11.0396 13.0266H24.961C25.1367 13.0266 25.3053 13.0964 25.4295 13.2207C25.5538 13.345 25.6236 13.5135 25.6236 13.6893V15.0159V15.0153Z"
        stroke="url(#paint0_linear_11276_1901)" stroke-width="0.611111" stroke-linecap="round"
        stroke-linejoin="round" />
    <path
        d="M24.2981 22.9705C24.298 23.1463 24.228 23.3148 24.1036 23.4391C23.9792 23.5633 23.8106 23.6331 23.6348 23.6331H12.3655C12.2784 23.6332 12.1922 23.6161 12.1117 23.5829C12.0312 23.5496 11.9581 23.5008 11.8965 23.4393C11.8349 23.3777 11.786 23.3047 11.7527 23.2242C11.7193 23.1438 11.7021 23.0575 11.7021 22.9705L11.7021 15.6785H24.2981V22.9705Z"
        stroke="url(#paint1_linear_11276_1901)" stroke-width="0.611111" stroke-linecap="round"
        stroke-linejoin="round" />
    <path d="M15.6807 13.0266V23.6333" stroke="url(#paint2_linear_11276_1901)"
        stroke-width="0.611111" stroke-linecap="round" stroke-linejoin="round" />
    <path d="M20.3203 23.6333V13.0266" stroke="url(#paint3_linear_11276_1901)"
        stroke-width="0.611111" stroke-linecap="round" stroke-linejoin="round" />
    <path
        d="M21.5978 10.6C21.0911 11.1073 18.6631 11.7007 18.6631 11.7007C18.6631 11.7007 19.2598 9.27266 19.7638 8.76599C19.8825 8.63797 20.0258 8.53522 20.1851 8.46388C20.3445 8.39254 20.5166 8.35409 20.6912 8.35081C20.8657 8.34754 21.0392 8.37952 21.2011 8.44483C21.363 8.51014 21.5101 8.60745 21.6335 8.73093C21.7569 8.85441 21.8542 9.00152 21.9194 9.16346C21.9847 9.3254 22.0166 9.49883 22.0133 9.6734C22.0099 9.84796 21.9714 10.02 21.9 10.1794C21.8286 10.3387 21.7258 10.4813 21.5978 10.6Z"
        stroke="url(#paint4_linear_11276_1901)" stroke-width="0.611111" stroke-linecap="round"
        stroke-linejoin="round" />
    <path
        d="M14.4028 10.5999C14.9095 11.1072 17.3375 11.7005 17.3375 11.7005C17.3375 11.7005 16.7402 9.2732 16.2368 8.76653C15.9919 8.53138 15.6646 8.40161 15.325 8.4051C14.9855 8.40858 14.6609 8.54504 14.4208 8.78518C14.1808 9.02531 14.0444 9.34999 14.0411 9.68952C14.0377 10.029 14.1676 10.3564 14.4028 10.6012V10.5999Z"
        stroke="url(#paint5_linear_11276_1901)" stroke-width="0.611111" stroke-linecap="round"
        stroke-linejoin="round" />
    <path
        d="M14.4028 10.5999C14.9095 11.1072 17.3375 11.7005 17.3375 11.7005C17.3375 11.7005 16.7402 9.2732 16.2368 8.76653C15.9919 8.53138 15.6646 8.40161 15.325 8.4051C14.9855 8.40858 14.6609 8.54504 14.4208 8.78518C14.1808 9.02531 14.0444 9.34999 14.0411 9.68952C14.0377 10.029 14.1676 10.3564 14.4028 10.6012V10.5999Z"
        stroke="url(#paint6_linear_11276_1901)" stroke-width="0.611111" stroke-linecap="round"
        stroke-linejoin="round" />
    <g filter="url(#filter1_d_11276_1901)">
        <rect x="15.2773" y="12.3611" width="6.11111" height="6.11111" rx="3.05556" fill="#FFB952" />
        <rect x="15.444" y="12.5278" width="5.77778" height="5.77778" rx="2.88889" stroke="#EFA437"
            stroke-width="0.333333" />
        <rect x="15.444" y="12.5278" width="5.77778" height="5.77778" rx="2.88889"
            stroke="url(#paint7_linear_11276_1901)" stroke-width="0.333333" />
        <path d="M18.333 13.9229V15.0272L19.2664 15.4443L18.333 13.9229Z" fill="white"
            fill-opacity="0.4" />
        <path d="M18.333 13.9231L17.3994 15.4446L18.333 15.0275V13.9231Z" fill="white" />
        <path d="M18.333 16.16V16.9104L19.2671 15.6182L18.333 16.16Z" fill="white"
            fill-opacity="0.4" />
        <path d="M18.333 16.9104V16.1599L17.3994 15.6182L18.333 16.9104Z" fill="white" />
        <path d="M18.333 15.9862L19.2664 15.4442L18.333 15.0273V15.9862Z" fill="white"
            fill-opacity="0.1" />
        <path d="M17.3994 15.4442L18.333 15.9862V15.0273L17.3994 15.4442Z" fill="white"
            fill-opacity="0.4" />
    </g>
    <defs>
        <filter id="filter0_d_11276_1901" x="0.376953" y="0.100586" width="35.2471" height="35.5327"
            filterUnits="userSpaceOnUse" color-interpolation-filters="sRGB">
            <feFlood flood-opacity="0" result="BackgroundImageFix" />
            <feColorMatrix in="SourceAlpha" type="matrix"
                values="0 0 0 0 0 0 0 0 0 0 0 0 0 0 0 0 0 0 127 0" result="hardAlpha" />
            <feOffset dy="2" />
            <feGaussianBlur stdDeviation="5" />
            <feComposite in2="hardAlpha" operator="out" />
            <feColorMatrix type="matrix"
                values="0 0 0 0 0.803922 0 0 0 0 0.105882 0 0 0 0 0.105882 0 0 0 0.35 0" />
            <feBlend mode="normal" in2="BackgroundImageFix" result="effect1_dropShadow_11276_1901" />
            <feBlend mode="normal" in="SourceGraphic" in2="effect1_dropShadow_11276_1901"
                result="shape" />
        </filter>
        <filter id="filter1_d_11276_1901" x="14.2773" y="12.3611" width="8.11133" height="8.77775"
            filterUnits="userSpaceOnUse" color-interpolation-filters="sRGB">
            <feFlood flood-opacity="0" result="BackgroundImageFix" />
            <feColorMatrix in="SourceAlpha" type="matrix"
                values="0 0 0 0 0 0 0 0 0 0 0 0 0 0 0 0 0 0 127 0" result="hardAlpha" />
            <feOffset dy="1.66667" />
            <feGaussianBlur stdDeviation="0.5" />
            <feComposite in2="hardAlpha" operator="out" />
            <feColorMatrix type="matrix"
                values="0 0 0 0 0.519857 0 0 0 0 0.324628 0 0 0 0 0.120657 0 0 0 0.5 0" />
            <feBlend mode="multiply" in2="BackgroundImageFix" result="effect1_dropShadow_11276_1901" />
            <feBlend mode="normal" in="SourceGraphic" in2="effect1_dropShadow_11276_1901"
                result="shape" />
        </filter>
        <linearGradient id="paint0_linear_11276_1901" x1="18.0003" y1="12.9576" x2="18.0003"
            y2="16.0312" gradientUnits="userSpaceOnUse">
            <stop stop-color="#FFDF86" />
            <stop offset="0.385417" stop-color="#FFF3C7" />
            <stop offset="0.713542" stop-color="#FFDF86" />
            <stop offset="1" stop-color="#D57E42" />
        </linearGradient>
        <linearGradient id="paint1_linear_11276_1901" x1="18.0001" y1="15.4716" x2="18.0001"
            y2="24.6907" gradientUnits="userSpaceOnUse">
            <stop stop-color="#FFDF86" />
            <stop offset="0.385417" stop-color="#FFF3C7" />
            <stop offset="0.713542" stop-color="#FFDF86" />
            <stop offset="1" stop-color="#D57E42" />
        </linearGradient>
        <linearGradient id="paint2_linear_11276_1901" x1="16.1807" y1="12.7507" x2="16.1807"
            y2="25.0434" gradientUnits="userSpaceOnUse">
            <stop stop-color="#FFDF86" />
            <stop offset="0.385417" stop-color="#FFF3C7" />
            <stop offset="0.713542" stop-color="#FFDF86" />
            <stop offset="1" stop-color="#D57E42" />
        </linearGradient>
        <linearGradient id="paint3_linear_11276_1901" x1="20.8203" y1="12.7507" x2="20.8203"
            y2="25.0434" gradientUnits="userSpaceOnUse">
            <stop stop-color="#FFDF86" />
            <stop offset="0.385417" stop-color="#FFF3C7" />
            <stop offset="0.713542" stop-color="#FFDF86" />
            <stop offset="1" stop-color="#D57E42" />
        </linearGradient>
        <linearGradient id="paint4_linear_11276_1901" x1="20.3383" y1="8.26345" x2="20.3383"
            y2="12.146" gradientUnits="userSpaceOnUse">
            <stop stop-color="#F0C241" />
            <stop offset="0.385417" stop-color="#FFE378" />
            <stop offset="0.713542" stop-color="#FFD04E" />
            <stop offset="1" stop-color="#D57E42" />
        </linearGradient>
        <linearGradient id="paint5_linear_11276_1901" x1="15.6893" y1="8.31931" x2="15.6893"
            y2="12.1387" gradientUnits="userSpaceOnUse">
            <stop stop-color="#FFDF86" />
            <stop offset="0.385417" stop-color="#FFF3C7" />
            <stop offset="0.713542" stop-color="#FFDF86" />
            <stop offset="1" stop-color="#D57E42" />
        </linearGradient>
        <linearGradient id="paint6_linear_11276_1901" x1="15.6893" y1="8.31931" x2="15.6893"
            y2="12.1387" gradientUnits="userSpaceOnUse">
            <stop stop-color="#F0C241" />
            <stop offset="0.385417" stop-color="#FFE378" />
            <stop offset="0.713542" stop-color="#FFD04E" />
            <stop offset="1" stop-color="#D57E42" />
        </linearGradient>
        <linearGradient id="paint7_linear_11276_1901" x1="18.3329" y1="12.2021" x2="18.3329"
            y2="19.2847" gradientUnits="userSpaceOnUse">
            <stop stop-color="#FFDF86" />
            <stop offset="0.385417" stop-color="#FFF3C7" />
            <stop offset="0.713542" stop-color="#FFDF86" />
            <stop offset="1" stop-color="#D57E42" />
        </linearGradient>
    </defs>
</svg>
    