<svg xmlns="http://www.w3.org/2000/svg" width="14" height="20" fill="none">
    <rect width="14" height="20" fill="#F93737" rx="2" />
    <path fill="#C82929"
        d="M0 4.536c0-1.439 0-2.158.353-2.67a2 2 0 0 1 .513-.513C1.378 1 2.097 1 3.536 1h6.928c1.439 0 2.158 0 2.67.353a2 2 0 0 1 .513.513C14 2.378 14 3.097 14 4.536c0 .626 0 .94-.09 1.23a2.006 2.006 0 0 1-.14.336c-.141.269-.362.49-.806.934l-1.792 1.792c-.579.578-.867.868-1.235 1.02C9.569 10 9.16 10 8.343 10H5.657c-.818 0-1.226 0-1.594-.152-.367-.152-.657-.442-1.235-1.02L1.036 7.036C.592 6.592.37 6.37.23 6.102a2 2 0 0 1-.14-.337C0 5.475 0 5.162 0 4.535Z"
        opacity=".8" />
    <path fill="#F93737"
        d="M0 3.536C0 2.097 0 1.378.353.866A2 2 0 0 1 .866.353C1.378 0 2.097 0 3.536 0h6.928c1.439 0 2.158 0 2.67.353a2 2 0 0 1 .513.513C14 1.378 14 2.097 14 3.536c0 .626 0 .94-.09 1.23a2.006 2.006 0 0 1-.14.336c-.141.269-.362.49-.806.934l-1.792 1.792c-.579.578-.867.868-1.235 1.02C9.569 9 9.16 9 8.343 9H5.657c-.818 0-1.226 0-1.594-.152-.367-.152-.657-.442-1.235-1.02L1.036 6.036C.592 5.592.37 5.37.23 5.102a2 2 0 0 1-.14-.337C0 4.475 0 4.162 0 3.535Z" />
    <circle cx="7.001" cy="10" r="4" fill="#D22C2C" />
    <path fill="#fff" fill-rule="evenodd"
        d="M9.19 9.156v1.206H5.383a1.652 1.652 0 0 0 1.615 1.278c.651 0 1.215-.373 1.485-.916h.707v1.012c0 .24-.196.434-.438.434H5.25a.436.436 0 0 1-.438-.434v-2.58h4.38Zm-1.127 1.568a1.291 1.291 0 0 1-1.065.557c-.443 0-.833-.22-1.066-.557h2.13Zm-2-1.278a.68.68 0 0 0-.674.578h.374a.316.316 0 0 1 .602 0h.373a.68.68 0 0 0-.674-.578Zm1.874 0a.68.68 0 0 0-.674.578h.373a.316.316 0 0 1 .602 0h.374a.68.68 0 0 0-.675-.578Zm.815-1.616c.242 0 .438.194.438.434v.53H4.81v-.53c0-.24.197-.434.439-.434h3.503Z"
        clip-rule="evenodd" />
    <circle cx="7.001" cy="9" r="4" fill="#FFBC5A" />
    <path fill="#fff" fill-rule="evenodd"
        d="M9.19 8.156v1.206H5.383a1.652 1.652 0 0 0 1.615 1.278c.651 0 1.215-.373 1.485-.916h.707v1.012c0 .24-.196.434-.438.434H5.25a.436.436 0 0 1-.438-.434v-2.58h4.38ZM8.063 9.724a1.291 1.291 0 0 1-1.065.557c-.443 0-.833-.22-1.066-.557h2.13Zm-2-1.278a.68.68 0 0 0-.674.578h.374a.316.316 0 0 1 .602 0h.373a.68.68 0 0 0-.674-.578Zm1.874 0a.68.68 0 0 0-.674.578h.373a.316.316 0 0 1 .602 0h.374a.68.68 0 0 0-.675-.578Zm.815-1.616c.242 0 .438.194.438.434v.53H4.81v-.53c0-.24.197-.434.439-.434h3.503Z"
        clip-rule="evenodd" />
</svg>