<svg xmlns="http://www.w3.org/2000/svg" fill="none" viewBox="0 0 24 25">
    <path fill="#E42E32" d="m4 4.5 7.198 3.15a2 2 0 0 0 1.604 0L20 4.5v16a2 2 0 0 1-2 2H6a2 2 0 0 1-2-2z"/>
    <path fill="#DA1B1F" d="M20 6.548a1 1 0 0 1-.6.917L13.604 10a4 4 0 0 1-3.206 0L4.599 7.465A1 1 0 0 1 4 6.548v-.9a2 2 0 0 1 2-2h12a2 2 0 0 1 2 2z"/>
    <circle cx="12.001" cy="9.655" r="3.938" fill="#DA1B1F"/>
    <path fill="#F5B250" d="M20 6.112a1 1 0 0 1-.6.917l-5.797 2.536a4 4 0 0 1-3.206 0L4.599 7.029A1 1 0 0 1 4 6.112v-.9a2 2 0 0 1 2-2h12a2 2 0 0 1 2 2z"/>
    <path fill="#E42E32" d="M20 5.4a1 1 0 0 1-.6.916l-5.797 2.536a4 4 0 0 1-3.206 0L4.599 6.316A1 1 0 0 1 4 5.4v-.9a2 2 0 0 1 2-2h12a2 2 0 0 1 2 2z"/>
    <path fill="#FFBC5A" stroke="#EEA02E" stroke-width=".2" d="M15.673 9.364a3.674 3.674 0 1 1-7.349 0 3.674 3.674 0 0 1 7.35 0Z"/>
    <path fill="#fff" fill-rule="evenodd" d="M14.065 8.568v1.138h-3.592a1.56 1.56 0 0 0 1.523 1.206c.615 0 1.147-.352 1.402-.865h.667v.956c0 .226-.185.41-.413.41h-3.306a.41.41 0 0 1-.413-.41V8.568zm-1.063 1.48c-.22.317-.588.525-1.006.525-.417 0-.786-.208-1.005-.526h2.01ZM11.114 8.84a.64.64 0 0 0-.636.547h.352a.298.298 0 0 1 .568 0h.352a.64.64 0 0 0-.636-.547m1.768 0a.64.64 0 0 0-.636.547h.352a.298.298 0 0 1 .568 0h.352a.64.64 0 0 0-.636-.547m.77-1.524c.227 0 .412.183.412.41v.5H9.933v-.5c0-.227.185-.41.413-.41z" clip-rule="evenodd"/>
</svg>
