<svg viewBox="0 0 20 20" xmlns="http://www.w3.org/2000/svg"><path d="m3.765 5.161s-.661-1.903 6.767-1.903 6.767 1.903 6.767 1.903v.82h-13.534z" fill="#db1919"/><circle cx="13.389" cy="4.498" fill="#ffbc5a" r="1.96" stroke="#f5b250" stroke-width=".2"/><path clip-rule="evenodd" d="m14.515 4.062v.621h-1.96a.85.85 0 0 0 .83.658.853.853 0 0 0 .766-.472h.364v.522a.225.225 0 0 1 -.226.224h-1.804a.225.225 0 0 1 -.226-.224v-1.329zm-.58.807a.665.665 0 0 1 -1.098 0h1.097zm-1.03-.658a.35.35 0 0 0 -.348.298h.193a.163.163 0 0 1 .31 0h.192a.35.35 0 0 0 -.347-.298zm.965 0a.35.35 0 0 0 -.348.298h.193a.163.163 0 0 1 .31 0h.192a.35.35 0 0 0 -.347-.298zm.42-.832c.124 0 .225.1.225.223v.274h-2.255v-.274c0-.123.101-.223.226-.223h1.805z" fill="#fff" fill-rule="evenodd"/><path d="m9.484 4.498a1.96 1.96 0 1 1 -3.92 0 1.96 1.96 0 0 1 3.92 0z" fill="#ffbc5a" stroke="#f5b250" stroke-width=".2"/><path clip-rule="evenodd" d="m8.65 4.062v.621h-1.96a.85.85 0 0 0 .83.658.853.853 0 0 0 .766-.472h.364v.522a.225.225 0 0 1 -.226.224h-1.804a.225.225 0 0 1 -.226-.224v-1.329zm-.58.807a.665.665 0 0 1 -1.098 0h1.097zm-1.03-.658a.35.35 0 0 0 -.348.298h.192a.163.163 0 0 1 .31 0h.193a.35.35 0 0 0 -.348-.298zm.964 0a.35.35 0 0 0 -.347.298h.192a.163.163 0 0 1 .31 0h.193a.35.35 0 0 0 -.348-.298zm.42-.832c.125 0 .226.1.226.223v.274h-2.256v-.274c0-.123.101-.223.226-.223z" fill="#fff" fill-rule="evenodd"/><path d="m13.168 3.986a2.636 2.636 0 1 1 -5.272 0 2.636 2.636 0 0 1 5.272 0z" fill="#ffbc5a" stroke="#f5b250" stroke-width=".2"/><path clip-rule="evenodd" d="m12.03 3.407v.825h-2.604c.113.5.565.874 1.104.874.446 0 .831-.255 1.016-.627h.484v.693a.298.298 0 0 1 -.3.297h-2.397a.298.298 0 0 1 -.3-.297v-1.765zm-.771 1.072a.883.883 0 0 1 -.73.382.883.883 0 0 1 -.728-.382h1.457zm-1.369-.874a.465.465 0 0 0 -.461.396h.255a.216.216 0 0 1 .412 0h.255a.465.465 0 0 0 -.461-.396zm1.282 0a.465.465 0 0 0 -.462.396h.256a.216.216 0 0 1 .206-.148c.096 0 .177.062.206.148h.255a.465.465 0 0 0 -.461-.396zm.558-1.105c.166 0 .3.133.3.297v.363h-2.996v-.363c0-.164.134-.297.3-.297z" fill="#fff" fill-rule="evenodd"/><path d="m3.765 5.215s2.511.753 6.754.753 6.78-.753 6.78-.753v12.535a1 1 0 0 1 -1 1h-11.534a1 1 0 0 1 -1-1z" fill="#f93737"/></svg>