<svg xmlns="http://www.w3.org/2000/svg" viewBox="0 0 24 24">
    <g filter="url(#RestoreBlue_svg__a)">
        <path fill="#1C68F3" fill-opacity=".1" d="M4 11.095C4 9.938 4.988 9 6.207 9h11.586C19.012 9 20 9.938 20 11.095v6.81C20 19.062 19.012 20 17.793 20H6.207C4.988 20 4 19.062 4 17.905v-6.81Z"/>
    </g>
    <path fill="#1C68F3" fill-rule="evenodd" stroke="#1C68F3" stroke-linecap="round" stroke-linejoin="round" stroke-width=".2" d="M6.587 4.193c.2 0 .361.162.361.361V7.08h2.526a.36.36 0 1 1 0 .722H6.587a.36.36 0 0 1-.36-.36V4.553c0-.2.161-.36.36-.36Zm7.579 5.264c0-.2.162-.36.36-.36h2.888c.2 0 .36.16.36.36v2.887a.36.36 0 1 1-.721 0V9.818h-2.526a.36.36 0 0 1-.361-.36Z" clip-rule="evenodd"/>
    <path fill="#1C68F3" fill-rule="evenodd" stroke="#1C68F3" stroke-linecap="round" stroke-linejoin="round" stroke-width=".2" d="M10.672 3.595a4.551 4.551 0 0 1 2.389-.075c.789.188 1.52.585 2.125 1.152a5.076 5.076 0 0 1 1.334 2.091.395.395 0 0 1-.224.496.364.364 0 0 1-.47-.237 4.297 4.297 0 0 0-1.13-1.77 3.984 3.984 0 0 0-1.798-.974 3.851 3.851 0 0 0-2.021.063 4.016 4.016 0 0 0-1.75 1.094l-2.28 2.26a.355.355 0 0 1-.52-.018.404.404 0 0 1 .016-.55l2.276-2.255a4.745 4.745 0 0 1 2.053-1.277Zm7.002 5.623a.404.404 0 0 1-.016.55l-2.276 2.255a4.745 4.745 0 0 1-2.053 1.278c-.777.237-1.6.263-2.389.074a4.707 4.707 0 0 1-2.125-1.151 5.077 5.077 0 0 1-1.334-2.092.395.395 0 0 1 .225-.496.364.364 0 0 1 .47.237c.228.68.617 1.29 1.129 1.77a3.97 3.97 0 0 0 1.798.974c.668.16 1.363.138 2.021-.063a4.016 4.016 0 0 0 1.75-1.093l2.28-2.26a.355.355 0 0 1 .52.017Z" clip-rule="evenodd"/>
    <g filter="url(#RestoreBlue_svg__b)">
        <path fill="#1C68F3" fill-opacity=".05" d="M4 12.895C4 11.848 4.988 11 6.207 11h11.586c1.219 0 2.207.848 2.207 1.895v5.21C20 19.152 19.012 20 17.793 20H6.207C4.988 20 4 19.152 4 18.105v-5.21Z"/>
    </g>
    <defs>
        <filter id="RestoreBlue_svg__a" width="24" height="19" x="0" y="5" color-interpolation-filters="sRGB">
            <feFlood flood-opacity="0" result="BackgroundImageFix"/>
            <feGaussianBlur in="BackgroundImage"/>
            <feComposite in2="SourceAlpha" operator="in" result="effect1_backgroundBlur"/>
            <feBlend in="SourceGraphic" in2="effect1_backgroundBlur" result="shape"/>
        </filter>
        <filter id="RestoreBlue_svg__b" width="22" height="15" x="1" y="8" color-interpolation-filters="sRGB">
            <feFlood flood-opacity="0" result="BackgroundImageFix"/>
            <feGaussianBlur in="BackgroundImage"/>
            <feComposite in2="SourceAlpha" operator="in" result="effect1_backgroundBlur"/>
            <feBlend in="SourceGraphic" in2="effect1_backgroundBlur" result="shape"/>
        </filter>
    </defs>
</svg>
