<svg xmlns="http://www.w3.org/2000/svg" viewBox="0 0 48 48">
    <g filter="url('#RestoreColorful_svg__a')">
        <path fill="#FFD149" fill-opacity=".1" d="M7 25a2 2 0 0 1 2-2h30a2 2 0 0 1 2 2v10a1 1 0 0 1-1 1H8a1 1 0 0 1-1-1z"/>
    </g>
    <path fill="#FFC524" d="M25.625 36.13c-.411.052-.526.041-.822.041a2.46 2.46 0 0 1-1.744-.728 2.497 2.497 0 0 1 0-3.517 2.46 2.46 0 0 1 1.744-.728c.296 0 .423.012.822-.077a9.067 9.067 0 0 0 8.217-9.037 9.2 9.2 0 0 0-.688-3.488 9.1 9.1 0 0 0-1.959-2.957 9 9 0 0 0-2.933-1.975 9 9 0 0 0-3.459-.693c-4.712 0-8.538 3.65-8.948 8.284h4.84l-7.397 8.289-7.394-8.289h4.97a14.12 14.12 0 0 1 4.352-9.419 13.87 13.87 0 0 1 14.923-2.765 14 14 0 0 1 4.531 3.053 14.1 14.1 0 0 1 3.029 4.57 14.2 14.2 0 0 1 1.063 5.39 14.16 14.16 0 0 1-3.813 9.65 13.93 13.93 0 0 1-9.335 4.396Z"/>
    <g filter="url('#RestoreColorful_svg__b')">
        <path fill="#FFD149" fill-opacity=".2" d="M6 29a2 2 0 0 1 2-2h32a2 2 0 0 1 2 2v10a1 1 0 0 1-1 1H7a1 1 0 0 1-1-1z"/>
    </g>
    <defs>
        <filter id="RestoreColorful_svg__a" width="42" height="21" x="3" y="19" color-interpolation-filters="sRGB">
            <feFlood flood-opacity="0" result="BackgroundImageFix"/>
            <feGaussianBlur in="BackgroundImage"/>
            <feComposite in2="SourceAlpha" operator="in" result="effect1_backgroundBlur"/>
            <feBlend in="SourceGraphic" in2="effect1_backgroundBlur" result="shape"/>
        </filter>
        <filter id="RestoreColorful_svg__b" width="44" height="21" x="2" y="23" color-interpolation-filters="sRGB">
            <feFlood flood-opacity="0" result="BackgroundImageFix"/>
            <feGaussianBlur in="BackgroundImage"/>
            <feComposite in2="SourceAlpha" operator="in" result="effect1_backgroundBlur"/>
            <feBlend in="SourceGraphic" in2="effect1_backgroundBlur" result="shape"/>
        </filter>
    </defs>
</svg>
