<svg viewBox="0 0 24 24" xmlns="http://www.w3.org/2000/svg"><path d="m23.77 15.67a.749.749 0 0 0 -1.06 0l-2.22 2.22v-10.24a3.755 3.755 0 0 0 -3.75-3.75h-5.85a.75.75 0 0 0 0 1.5h5.85c1.24 0 2.25 1.01 2.25 2.25v10.24l-2.22-2.22a.749.749 0 1 0 -1.06 1.06l3.5 3.5a.74.74 0 0 0 .53.22.74.74 0 0 0 .53-.22l3.5-3.5a.747.747 0 0 0 0-1.06zm-10.66 3.28h-5.85c-1.24 0-2.25-1.01-2.25-2.25v-10.24l2.22 2.22a.752.752 0 0 0 1.062 0 .749.749 0 0 0 0-1.06l-3.5-3.5a.747.747 0 0 0 -1.06 0l-3.5 3.5a.749.749 0 1 0 1.06 1.06l2.22-2.22v10.24a3.755 3.755 0 0 0 3.75 3.75h5.85a.75.75 0 0 0 0-1.5z" fill="#0f1419"/></svg>