<svg viewBox="0 0 24 24" xmlns="http://www.w3.org/2000/svg"><path d="m3.36 8.49v9h15v-9zm14.25 2.128a2.265 2.265 0 0 1 -1.377-1.378h1.377zm-2.133 6.122h-9.232a2.975 2.975 0 0 0 -2.135-2.133v-3.23a2.978 2.978 0 0 0 2.134-2.137h9.232a2.979 2.979 0 0 0 2.134 2.138v3.227a2.979 2.979 0 0 0 -2.133 2.135zm-9.99-7.5a2.258 2.258 0 0 1 -1.377 1.371v-1.37h1.377zm-1.377 6.133a2.255 2.255 0 0 1 1.372 1.367h-1.372zm12.132 1.367a2.26 2.26 0 0 1 1.368-1.376v1.376z"/><path d="m14.985 11.865a1.125 1.125 0 1 0 0 2.25 1.125 1.125 0 0 0 0-2.25zm0 1.5a.376.376 0 0 1 0-.75.376.376 0 0 1 0 .75zm-4.125-3.375c-1.242 0-2.25 1.344-2.25 3 0 1.657 1.008 3 2.25 3 1.243 0 2.25-1.343 2.25-3 0-1.656-1.007-3-2.25-3zm0 5.25c-.813 0-1.5-1.03-1.5-2.25s.687-2.25 1.5-2.25 1.5 1.03 1.5 2.25-.687 2.25-1.5 2.25zm-4.125-3.375a1.125 1.125 0 1 0 0 2.25 1.125 1.125 0 0 0 0-2.25zm0 1.5a.375.375 0 0 1 0-.75.376.376 0 0 1 0 .75zm-1.455-6.885h.72v1.56h-.72zm14.76 0v.72h-14.04v-.72zm0 8.28v.72h-.96v-.72zm0-8.28h.72v9h-.72z"/></svg>