<svg xmlns="http://www.w3.org/2000/svg" fill="none" viewBox="0 0 24 24">
    <path fill="currentColor" d="M5.918 14.283a.5.5 0 0 1-.298-.095l-1.863-1.325-.066-.056a.89.89 0 0 1-.212-.93.89.89 0 0 1 .703-.587l4.84-1.252a.514.514 0 0 1 .493.862l-3.233 3.232a.5.5 0 0 1-.364.151m-1.271-2.05 1.215.864 1.59-1.59zm7.173 8.336a.9.9 0 0 1-.63-.264l-.056-.065-1.325-1.864a.514.514 0 0 1 .055-.662l3.232-3.232a.515.515 0 0 1 .862.493l-1.252 4.84a.9.9 0 0 1-.887.754Zm-.92-2.435.864 1.216.725-2.805-1.59 1.59Z"/>
    <path fill="currentColor" d="M10.228 18.593a.5.5 0 0 1-.364-.151l-4.31-4.31a.515.515 0 0 1 0-.727l8.62-8.62c.617-.617 1.792-1.138 3.141-1.393.672-.127 2.307-.35 2.973.316.674.673.448 2.307.32 2.979-.255 1.344-.778 2.517-1.397 3.136l-8.619 8.619a.52.52 0 0 1-.364.15Zm-3.582-4.825 3.582 3.582 8.255-8.255c.465-.464.902-1.485 1.115-2.6.242-1.271.075-1.946-.037-2.06-.124-.123-.854-.259-2.055-.032-1.12.212-2.142.648-2.604 1.11zM4.841 19.67a.515.515 0 0 1-.364-.879l2.155-2.154a.515.515 0 1 1 .728.727L5.205 19.52c-.1.1-.232.151-.364.151Zm-1.076-2.154a.515.515 0 0 1-.364-.879l1.616-1.616a.515.515 0 1 1 .727.728l-1.616 1.616a.5.5 0 0 1-.363.151m3.232 3.233a.515.515 0 0 1-.364-.878l1.616-1.617a.515.515 0 1 1 .728.728l-1.616 1.616c-.1.1-.232.15-.364.15Z"/>
    <path fill="currentColor" d="M14 12.035a2.03 2.03 0 0 1-1.442-.596 2.04 2.04 0 0 1 0-2.883 2.04 2.04 0 0 1 2.883 0 2.04 2.04 0 0 1 0 2.883c-.398.397-.92.596-1.442.596Zm0-3.046a1.007 1.007 0 0 0-.714 1.722 1.01 1.01 0 0 0 1.427 0 1.01 1.01 0 0 0-.714-1.722Zm4.848.984a.5.5 0 0 1-.364-.15l-4.31-4.31a.515.515 0 1 1 .728-.728l4.31 4.31a.515.515 0 0 1-.364.878"/>
</svg>
