<svg viewBox="2 2 25 25" xmlns="http://www.w3.org/2000/svg"><g fill="none" xmlns="http://www.w3.org/2000/svg"><path d="m26.25 15c0 6.213-5.037 11.25-11.25 11.25s-11.25-5.037-11.25-11.25 5.037-11.25 11.25-11.25 11.25 5.037 11.25 11.25z" fill="#ff3545"/><path clip-rule="evenodd" d="m15 8.875c.622 0 1.125.503 1.125 1.125v6.774a1.125 1.125 0 0 1 -2.25 0v-6.774c0-.622.504-1.125 1.126-1.125zm0 11.12c.622 0 1.125.504 1.125 1.125v.029a1.125 1.125 0 1 1 -2.25 0v-.029c0-.621.504-1.125 1.126-1.125z" fill="#fff" fill-rule="evenodd"/></g></svg>