<svg xmlns="http://www.w3.org/2000/svg" viewBox="2 2 25 25">
    <g xmlns="http://www.w3.org/2000/svg" fill="none">
        <path fill="#ff3545" d="M26.25 15c0 6.213-5.037 11.25-11.25 11.25S3.75 21.213 3.75 15 8.787 3.75 15 3.75 26.25 8.787 26.25 15"/>
        <path fill="#fff" fill-rule="evenodd" d="M15 8.875c.622 0 1.125.503 1.125 1.125v6.774a1.125 1.125 0 0 1-2.25 0V10c0-.622.504-1.125 1.126-1.125zm0 11.12c.622 0 1.125.504 1.125 1.125v.029a1.125 1.125 0 1 1-2.25 0v-.029c0-.621.504-1.125 1.126-1.125z" clip-rule="evenodd"/>
    </g>
</svg>
