<svg width="16" height="16" viewBox="0 0 16 16" fill="none" xmlns="http://www.w3.org/2000/svg">
<g fill="none">
        <path d="M0 8a8 8 0 1 1 16 0A8 8 0 0 1 0 8Z" fill="#fff" />
        <path d="M8 14.667A6.667 6.667 0 1 0 8 1.333a6.667 6.667 0 0 0 0 13.334Z" fill="#60DFAB" />
        <path
            fill-rule="evenodd"
            clip-rule="evenodd"
            d="M11.115 5.507c.272.247.293.67.045.941l-3.333 3.667a.667.667 0 0 1-.928.058l-2.333-2a.667.667 0 1 1 .868-1.012l1.842 1.578 2.897-3.187a.667.667 0 0 1 .942-.045Z"
            fill="#fff"
        />
    </g>
</svg>
  