<svg xmlns="http://www.w3.org/2000/svg" fill="none" viewBox="0 0 24 24">
    <linearGradient id="SendColorful_svg__a" x1="12" x2="12" y1="0" y2="24" gradientUnits="userSpaceOnUse">
        <stop offset="0" stop-color="#f75f1e"/>
        <stop offset="1" stop-color="#fba33b"/>
    </linearGradient>
    <circle cx="12" cy="12" r="12" fill="url(#SendColorful_svg__a)"/>
    <path fill="#fff" fill-rule="evenodd" d="M17.8 7.22 4.752 11.48l3.183 1.904a.7.7 0 0 1 .343.603v2.134l2.155-.874a.7.7 0 0 1 .608.038l4.88 2.737 1.877-10.8zm.317-1.287a.703.703 0 0 1 .91.789L16.93 18.801a.703.703 0 0 1-1.036.493l-5.224-2.93-2.548 1.033a.703.703 0 0 1-.967-.651v-2.52L3.38 11.969a.703.703 0 0 1 .143-1.272zM15.77 9.351a.56.56 0 0 1-.056.793l-3.969 3.448a.562.562 0 0 1-.737-.85l3.969-3.447a.56.56 0 0 1 .793.056" clip-rule="evenodd"/>
</svg>
