<svg xmlns="http://www.w3.org/2000/svg" viewBox="0 0 18 18">
    <g fill="none" stroke="currentColor">
        <path d="M9 11.25a2.25 2.25 0 1 0 0-4.5 2.25 2.25 0 0 0 0 4.5z"/>
        <path d="M14.55 11.25a1.24 1.24 0 0 0 .247 1.365l.045.045a1.5 1.5 0 0 1-1.06 2.562 1.5 1.5 0 0 1-1.062-.44l-.045-.044a1.24 1.24 0 0 0-1.365-.248 1.24 1.24 0 0 0-.75 1.133v.127a1.5 1.5 0 1 1-3 0v-.068a1.24 1.24 0 0 0-.81-1.132 1.24 1.24 0 0 0-1.365.247l-.045.045a1.5 1.5 0 1 1-2.123-2.122l.046-.045a1.24 1.24 0 0 0 .247-1.365 1.24 1.24 0 0 0-1.132-.75H2.25a1.5 1.5 0 1 1 0-3h.067a1.24 1.24 0 0 0 1.133-.81 1.24 1.24 0 0 0-.248-1.365l-.044-.045A1.5 1.5 0 1 1 5.28 3.217l.045.046a1.24 1.24 0 0 0 1.365.247h.06a1.24 1.24 0 0 0 .75-1.132V2.25a1.5 1.5 0 0 1 3 0v.067a1.24 1.24 0 0 0 .75 1.133 1.24 1.24 0 0 0 1.365-.248l.045-.044a1.5 1.5 0 1 1 2.123 2.122l-.045.045a1.24 1.24 0 0 0-.248 1.365v.06a1.24 1.24 0 0 0 1.133.75h.127a1.5 1.5 0 0 1 0 3h-.068a1.24 1.24 0 0 0-1.132.75z"/>
    </g>
</svg>
