<svg xmlns="http://www.w3.org/2000/svg" fill="none" viewBox="0 0 24 24">
    <path fill="currentColor" fill-rule="evenodd" d="m17.808 3.606 4.345 7.528c.31.537.31 1.205 0 1.744l-4.345 7.526c-.312.537-.89.872-1.512.872h-8.69c-.624 0-1.2-.333-1.512-.872l-4.346-7.526a1.74 1.74 0 0 1 0-1.744l4.299-7.441c.34-.59.977-.959 1.66-.959h8.59c.62 0 1.2.333 1.51.872Zm-9.415 8.4a3.56 3.56 0 0 1 3.557-3.559 3.564 3.564 0 0 1 3.558 3.56 3.56 3.56 0 0 1-3.558 3.556 3.56 3.56 0 0 1-3.557-3.558Zm1.64.001a1.92 1.92 0 0 0 1.917 1.918 1.92 1.92 0 0 0 1.918-1.918 1.92 1.92 0 0 0-1.918-1.917 1.92 1.92 0 0 0-1.917 1.917" clip-rule="evenodd"/>
</svg>
