<svg xmlns="http://www.w3.org/2000/svg" viewBox="0 0 38 38">
    <path fill="currentColor" d="M3.8 0h30.4A3.8 3.8 0 0 1 38 3.8v30.4a3.8 3.8 0 0 1-3.8 3.8H3.8A3.8 3.8 0 0 1 0 34.2V3.8A3.8 3.8 0 0 1 3.8 0Zm31.294 21.682v-8.94H2.906v19.133a3.219 3.219 0 0 0 3.219 3.22h25.75a3.219 3.219 0 0 0 3.219-3.22v-7.51h-5.199A12.16 12.16 0 0 1 18.98 31.16c-5.795 0-10.642-4.052-11.864-9.477h27.978ZM18.98 28.498a9.468 9.468 0 0 0 7.828-4.133H11.15a9.468 9.468 0 0 0 7.829 4.133Zm-11.821-9.32a5.008 5.008 0 0 1 9.913 0h-2.744a2.326 2.326 0 0 0-4.425 0H7.159Zm13.77 0a5.008 5.008 0 0 1 9.912 0h-2.744a2.326 2.326 0 0 0-4.425 0h-2.744ZM35.093 6.126a3.219 3.219 0 0 0-3.219-3.22H6.125a3.219 3.219 0 0 0-3.22 3.22v3.934h32.189V6.125Z"/>
</svg>
