<svg xmlns="http://www.w3.org/2000/svg" fill="none" viewBox="0 0 20 20">
    <path fill="currentColor" d="M3.2 1.5h13.6a1.7 1.7 0 0 1 1.7 1.7v13.6a1.7 1.7 0 0 1-1.7 1.7H3.2a1.7 1.7 0 0 1-1.7-1.7V3.2a1.7 1.7 0 0 1 1.7-1.7m14 9.7v-4H2.8v8.56a1.44 1.44 0 0 0 1.44 1.44h11.52a1.44 1.44 0 0 0 1.44-1.44V12.4h-2.326a5.44 5.44 0 0 1-4.883 3.04 5.44 5.44 0 0 1-5.308-4.24zm-7.21 3.05a4.24 4.24 0 0 0 3.502-1.85H6.488a4.24 4.24 0 0 0 3.503 1.85Zm-5.288-4.17a2.24 2.24 0 0 1 4.434 0H7.91a1.04 1.04 0 0 0-1.98 0H4.703Zm6.16 0a2.24 2.24 0 0 1 4.434 0H14.07a1.04 1.04 0 0 0-1.98 0zM17.2 4.24a1.44 1.44 0 0 0-1.44-1.44H4.24A1.44 1.44 0 0 0 2.8 4.24V6h14.4z"/>
</svg>
