<svg xmlns="http://www.w3.org/2000/svg" fill="none" viewBox="0 0 20 20">
    <path fill="currentColor" d="M4 2.5h12A1.5 1.5 0 0 1 17.5 4v12a1.5 1.5 0 0 1-1.5 1.5H4A1.5 1.5 0 0 1 2.5 16V4A1.5 1.5 0 0 1 4 2.5Zm12.353 8.559v-3.53H3.647v7.553a1.27 1.27 0 0 0 1.27 1.271h10.165a1.27 1.27 0 0 0 1.27-1.27v-2.965h-2.051a4.8 4.8 0 0 1-8.992-1.059h11.044Zm-6.36 2.69a3.736 3.736 0 0 0 3.09-1.631H6.9a3.737 3.737 0 0 0 3.091 1.631ZM5.325 10.07a1.977 1.977 0 0 1 3.913 0H8.156a.918.918 0 0 0-1.747 0H5.326Zm5.435 0a1.977 1.977 0 0 1 3.913 0H13.59a.918.918 0 0 0-1.747 0H10.76Zm5.591-5.152a1.27 1.27 0 0 0-1.27-1.27H4.918a1.27 1.27 0 0 0-1.271 1.27v1.553h12.706V4.918Z"/>
</svg>
