<svg xmlns="http://www.w3.org/2000/svg" fill="none" viewBox="0 0 17 16">
    <path fill="#FF3545" fill-rule="evenodd" d="M5.585 3.951a.6.6 0 0 1-.08.845A5.222 5.222 0 0 0 3.6 8.833a5.235 5.235 0 0 0 5.233 5.234 5.235 5.235 0 0 0 5.234-5.234c0-1.624-.74-3.076-1.905-4.037a.6.6 0 0 1 .764-.925 6.422 6.422 0 0 1 2.34 4.962 6.436 6.436 0 0 1-6.433 6.434A6.435 6.435 0 0 1 2.4 8.833c0-1.997.912-3.783 2.34-4.962a.6.6 0 0 1 .845.08Z" clip-rule="evenodd"/>
    <path fill="#FF3545" fill-rule="evenodd" d="M8.833 1.4a.6.6 0 0 1 .6.6v5.334a.6.6 0 0 1-1.2 0V2a.6.6 0 0 1 .6-.6Z" clip-rule="evenodd"/>
</svg>
