<svg xmlns="http://www.w3.org/2000/svg" viewBox="0 0 48 48">
    <path fill="#fff" d="M15.786 23.426a.477.477 0 0 1-.233.008.495.495 0 0 1-.378-.582c.478-2.372 2.062-4.373 4.236-5.353.322-.145.654-.267.993-.365a.488.488 0 0 1 .602.338.488.488 0 0 1-.33.607 6.494 6.494 0 0 0-.865.318c-1.892.852-3.27 2.594-3.686 4.659a.483.483 0 0 1-.34.37Z"/>
    <path fill="url(#SignInAccount_svg__a)" d="M24 24c3.867 0 7-3.133 7-7s-3.133-7-7-7-7 3.133-7 7 3.133 7 7 7Zm0 3.5c-4.672 0-14 2.345-14 7V37a1 1 0 0 0 1 1h26a1 1 0 0 0 1-1v-2.5c0-4.655-9.328-7-14-7Z"/>
    <g filter="url('#SignInAccount_svg__b')">
        <rect width="12" height="10" x="27" y="26" fill="#1C68F3" fill-opacity=".1" rx="1"/>
    </g>
    <rect width="7" height="1" x="30" y="29" fill="#fff" rx=".5"/>
    <rect width="7" height="1" x="30" y="32" fill="#fff" rx=".5"/>
    <defs>
        <linearGradient id="SignInAccount_svg__a" x1="10.171" x2="38.57" y1="23.019" y2="19.206">
            <stop stop-color="#1C68F3"/>
            <stop offset="1" stop-color="#6CB8FF"/>
        </linearGradient>
        <filter id="SignInAccount_svg__b" width="20" height="18" x="23" y="22" color-interpolation-filters="sRGB">
            <feFlood flood-opacity="0" result="BackgroundImageFix"/>
            <feGaussianBlur in="BackgroundImage"/>
            <feComposite in2="SourceAlpha" operator="in" result="effect1_backgroundBlur"/>
            <feBlend in="SourceGraphic" in2="effect1_backgroundBlur" result="shape"/>
        </filter>
    </defs>
</svg>
