<svg xmlns="http://www.w3.org/2000/svg" fill="none" viewBox="0 0 24 24">
    <rect width="24" height="24" fill="url(#SmartPay_svg__a)" rx="12"/>
    <path fill="#fff" fill-rule="evenodd" d="M13.668 14.692h-7.95V5h12.564v1.436H7.154v6.82h6.519l-.561-.56.846-.847 1.277 1.277.848.848-2.121 2.121-.849-.848.555-.555Zm-6.05-4.666.85.85 1.272 1.271.847-.847-.557-.557h6.816v6.82H5.718V19h12.564V9.307h-8.245l.553-.552-.85-.85-2.122 2.12v.001Z" clip-rule="evenodd"/>
    <path fill="url(#SmartPay_svg__b)" d="M16.842 6.428h1.44v2.876h-1.44z"/>
    <path fill="url(#SmartPay_svg__c)" d="M0 0h1.44v2.876H0z" transform="matrix(1 0 0 -1 5.718 17.57)"/>
    <defs>
        <linearGradient id="SmartPay_svg__a" x1="12" x2="12" y1="0" y2="24" gradientUnits="userSpaceOnUse">
            <stop stop-color="#0041B9"/>
            <stop offset="1" stop-color="#1C68F3"/>
        </linearGradient>
        <linearGradient id="SmartPay_svg__b" x1="17.562" x2="17.562" y1="6.428" y2="9.305" gradientUnits="userSpaceOnUse">
            <stop stop-color="#fff"/>
            <stop offset="1" stop-color="#fff" stop-opacity="0"/>
        </linearGradient>
        <linearGradient id="SmartPay_svg__c" x1=".72" x2=".72" y1="0" y2="2.876" gradientUnits="userSpaceOnUse">
            <stop stop-color="#fff"/>
            <stop offset="1" stop-color="#fff" stop-opacity="0"/>
        </linearGradient>
    </defs>
</svg>
