<svg fill="none" viewBox="0 0 24 24" xmlns="http://www.w3.org/2000/svg" xmlns:xlink="http://www.w3.org/1999/xlink"><linearGradient id="a" gradientUnits="userSpaceOnUse" x1="12" x2="12" y1="0" y2="24"><stop offset="0" stop-color="#0041b9"/><stop offset="1" stop-color="#1c68f3"/></linearGradient><linearGradient id="b"><stop offset="0" stop-color="#fff"/><stop offset="1" stop-color="#fff" stop-opacity="0"/></linearGradient><linearGradient id="c" gradientUnits="userSpaceOnUse" x1="17.562" x2="17.562" xlink:href="#b" y1="6.428" y2="9.305"/><linearGradient id="d" gradientUnits="userSpaceOnUse" x1=".72" x2=".72" xlink:href="#b" y1="0" y2="2.876"/><rect fill="url(#a)" height="24" rx="12" width="24"/><path clip-rule="evenodd" d="m13.668 14.692h-7.95v-9.692h12.564v1.436h-11.128v6.82h6.519l-.561-.56.846-.847 1.277 1.277.848.848-2.121 2.121-.849-.848zm-6.05-4.666.85.85 1.272 1.271.847-.847-.557-.557h6.816v6.82h-11.128v1.437h12.564v-9.693h-8.245l.553-.552-.85-.85-2.122 2.12z" fill="#fff" fill-rule="evenodd"/><path d="m16.842 6.428h1.44v2.876h-1.44z" fill="url(#c)"/><path d="m0 0h1.44v2.876h-1.44z" fill="url(#d)" transform="matrix(1 0 0 -1 5.718 17.57)"/></svg>