<svg xmlns="http://www.w3.org/2000/svg" fill="none" viewBox="0 0 16 16">
    <path fill="currentColor" d="M8 12.992c.254 0 .466.183.51.425l.008.093v.972a.518.518 0 0 1-1.027.093l-.009-.093v-.972c0-.286.232-.518.518-.518m4.181-1.528.081.066.688.688a.518.518 0 0 1-.651.798l-.081-.066-.688-.688a.518.518 0 0 1 .651-.798m-7.711.066c.177.177.199.45.066.651l-.066.081-.688.688a.518.518 0 0 1-.798-.651l.066-.081.688-.688a.52.52 0 0 1 .732 0M8 4.296a3.704 3.704 0 1 1 0 7.408 3.704 3.704 0 0 1 0-7.408m6.482 3.186a.518.518 0 0 1 .093 1.027l-.093.009h-.972a.518.518 0 0 1-.093-1.027l.093-.009zm-11.992 0a.518.518 0 0 1 .093 1.027l-.093.009h-.972a.518.518 0 0 1-.093-1.027l.093-.009zM12.95 3.05c.177.177.199.45.066.651l-.066.081-.688.688a.518.518 0 0 1-.798-.651l.066-.081.688-.688a.52.52 0 0 1 .732 0M3.7 2.984l.081.066.688.688a.518.518 0 0 1-.651.798l-.081-.066-.688-.688a.518.518 0 0 1 .651-.798M8 1c.254 0 .466.183.51.425l.008.093v.972a.518.518 0 0 1-1.027.093l-.009-.093v-.972C7.482 1.232 7.714 1 8 1"/>
</svg>
