<svg viewBox="0 0 16 16" xmlns="http://www.w3.org/2000/svg"><g clip-rule="evenodd" fill="#fff" fill-rule="evenodd"><path d="m2.5 3.2a.4.4 0 0 1 .4.4v2.8h2.8a.4.4 0 1 1 0 .8h-3.2a.4.4 0 0 1 -.4-.4v-3.2c0-.22.18-.4.4-.4zm8.4 6a.4.4 0 0 1 .4-.4h3.2a.4.4 0 0 1 .4.4v3.2a.4.4 0 0 1 -.8 0v-2.8h-2.8a.4.4 0 0 1 -.4-.4z"/><path d="m7.028 2.621a5.045 5.045 0 0 1 2.647-.083 5.218 5.218 0 0 1 2.356 1.277 5.626 5.626 0 0 1 1.478 2.318.437.437 0 0 1 -.248.55.403.403 0 0 1 -.522-.262 4.762 4.762 0 0 0 -1.25-1.962 4.416 4.416 0 0 0 -1.994-1.08 4.269 4.269 0 0 0 -2.24.07 4.451 4.451 0 0 0 -1.94 1.212l-2.526 2.504a.394.394 0 0 1 -.577-.019.448.448 0 0 1 .018-.609l2.523-2.5a5.26 5.26 0 0 1 2.276-1.416zm7.761 6.233a.448.448 0 0 1 -.018.61l-2.522 2.5a5.26 5.26 0 0 1 -2.276 1.416 5.045 5.045 0 0 1 -2.648.082 5.218 5.218 0 0 1 -2.356-1.276 5.627 5.627 0 0 1 -1.478-2.318.437.437 0 0 1 .248-.55.403.403 0 0 1 .522.262c.253.755.683 1.43 1.25 1.962a4.416 4.416 0 0 0 1.994 1.08 4.27 4.27 0 0 0 2.24-.07 4.45 4.45 0 0 0 1.93-1.202l.01-.01 2.527-2.505a.394.394 0 0 1 .577.02z"/></g></svg>