<svg width="20" height="20" viewBox="0 0 20 20" fill="none" xmlns="http://www.w3.org/2000/svg">
<circle cx="10" cy="10" r="10" fill="white"/>
<path d="M14.8608 7.22272L12.0831 10.0005H14.1664C14.1664 12.2991 12.2983 14.1672 9.99973 14.1672C9.29834 14.1672 8.63167 13.9936 8.05528 13.6811L7.0414 14.6949C7.89556 15.2366 8.90945 15.5561 9.99973 15.5561C13.0692 15.5561 15.5553 13.0699 15.5553 10.0005H17.6386L14.8608 7.22272ZM5.83306 10.0005C5.83306 7.70189 7.70112 5.83384 9.99973 5.83384C10.7011 5.83384 11.3678 6.00745 11.9442 6.31995L12.9581 5.30606C12.1039 4.76439 11.09 4.44495 9.99973 4.44495C6.93028 4.44495 4.44417 6.93106 4.44417 10.0005H2.36084L5.13862 12.7783L7.9164 10.0005H5.83306Z" fill="#030303"/>
</svg>
