<svg xmlns="http://www.w3.org/2000/svg" fill="none" viewBox="0 0 20 20">
    <g id="Time_svg__base/time" fill="currentColor" fill-rule="evenodd" clip-rule="evenodd">
        <path id="Time_svg__Vector (Stroke)" d="M10 3.166a6.833 6.833 0 1 0 0 13.667 6.833 6.833 0 0 0 0-13.667M1.834 9.999a8.167 8.167 0 1 1 16.333 0 8.167 8.167 0 0 1-16.334 0Z"/>
        <path id="Time_svg__Vector (Stroke)_2" d="M10 5.233c.368 0 .667.298.667.666v4.125a.667.667 0 1 1-1.333 0V5.9c0-.368.298-.666.666-.666Z"/>
        <path id="Time_svg__Vector (Stroke)_3" d="M9.423 9.69a.667.667 0 0 1 .91-.244l3.021 1.745a.667.667 0 0 1-.666 1.154l-3.021-1.744a.667.667 0 0 1-.244-.91Z"/>
    </g>
</svg>
