<svg xmlns="http://www.w3.org/2000/svg" viewBox="0 0 37 36">
    <linearGradient id="Tips_svg__a" x1="18.5" x2="18.5" y1="3" y2="33">
        <stop offset="0" stop-color="#f7931e"/>
        <stop offset="1" stop-color="#fbb03b"/>
    </linearGradient>
    <path fill="url(#Tips_svg__a)" fill-rule="evenodd" d="M18.5 3c-8.284 0-15 6.716-15 15v12.757A2.243 2.243 0 0 0 5.743 33H18.5c8.284 0 15-6.716 15-15s-6.716-15-15-15" clip-rule="evenodd"/>
    <path fill="#fff" d="M12.01 25.077a1.044 1.044 0 0 1 .002-1.474l1.105-1.104-.084-.14a5.3 5.3 0 0 1-.671-1.653 4.7 4.7 0 0 1-.135-1.367 1.05 1.05 0 0 1 1.116-.954 1.04 1.04 0 0 1 .968 1.095c-.004.255.025.51.086.756.131.601.431 1.152.865 1.588a2.38 2.38 0 0 0 1.739.765 1.1 1.1 0 0 0 .815-.377c.413-.514.358-1.238-.228-3.102l-.137-.429a10.2 10.2 0 0 1-.627-3.015A3.25 3.25 0 0 1 19.73 12.5a4.2 4.2 0 0 1 2.566.605l.136.081 1.11-1.11a1.05 1.05 0 0 1 1.436.04 1.043 1.043 0 0 1 .04 1.435l-1.105 1.104.085.139c.314.51.54 1.068.672 1.653.11.446.155.907.134 1.367a1.045 1.045 0 0 1-2.036.27 1 1 0 0 1-.045-.408 3 3 0 0 0-.087-.758 3.2 3.2 0 0 0-.862-1.59 2.38 2.38 0 0 0-1.74-.764 1.1 1.1 0 0 0-.817.376c-.41.512-.358 1.238.23 3.102l.137.427c.36.967.57 1.984.625 3.016a3.244 3.244 0 0 1-2.903 3.165 4.2 4.2 0 0 1-2.563-.605l-.139-.082-1.111 1.111a1.05 1.05 0 0 1-1.14.23 1 1 0 0 1-.338-.227h-.003z"/>
</svg>
