<svg viewBox="0 0 37 36" xmlns="http://www.w3.org/2000/svg" xmlns:xlink="http://www.w3.org/1999/xlink"><linearGradient id="a" x1="18.5" x2="18.5" y1="3" y2="33"><stop offset="0" stop-color="#f7931e"/><stop offset="1" stop-color="#fbb03b"/></linearGradient><path clip-rule="evenodd" d="m18.5 3c-8.284 0-15 6.716-15 15v12.757a2.243 2.243 0 0 0 2.243 2.243h12.757c8.284 0 15-6.716 15-15s-6.716-15-15-15z" fill="url(#a)" fill-rule="evenodd"/><path d="m12.01 25.077a1.044 1.044 0 0 1 .002-1.474l1.105-1.104-.084-.14a5.336 5.336 0 0 1 -.671-1.653 4.725 4.725 0 0 1 -.135-1.367 1.05 1.05 0 0 1 1.116-.954 1.04 1.04 0 0 1 .968 1.095c-.004.255.025.51.086.756.131.601.431 1.152.865 1.588a2.384 2.384 0 0 0 1.739.765 1.094 1.094 0 0 0 .815-.377c.413-.514.358-1.238-.228-3.102l-.137-.429a10.162 10.162 0 0 1 -.627-3.015 3.252 3.252 0 0 1 2.906-3.166 4.211 4.211 0 0 1 2.566.605l.136.081 1.11-1.11a1.05 1.05 0 0 1 1.436.04 1.043 1.043 0 0 1 .04 1.435l-1.105 1.104.085.139c.314.51.54 1.068.672 1.653.11.446.155.907.134 1.367a1.045 1.045 0 0 1 -2.036.27 1.044 1.044 0 0 1 -.045-.408 2.902 2.902 0 0 0 -.087-.758 3.206 3.206 0 0 0 -.862-1.59 2.38 2.38 0 0 0 -1.74-.764 1.1 1.1 0 0 0 -.817.376c-.41.512-.358 1.238.23 3.102l.137.427c.36.967.57 1.984.625 3.016a3.244 3.244 0 0 1 -2.903 3.165 4.202 4.202 0 0 1 -2.563-.605l-.139-.082-1.111 1.111a1.048 1.048 0 0 1 -1.14.23 1.038 1.038 0 0 1 -.338-.227h-.003z" fill="#fff"/></svg>