<svg width="24" height="24" viewBox="0 0 24 24" fill="none" xmlns="http://www.w3.org/2000/svg">
<path d="M21 12C21 16.9706 16.9706 21 12 21C7.02944 21 3 16.9706 3 12C3 7.02944 7.02944 3 12 3C16.9706 3 21 7.02944 21 12Z" fill="white"/>
<path fill-rule="evenodd" clip-rule="evenodd" d="M12.0004 7.09961C12.4974 7.09961 12.9004 7.50255 12.9004 7.99961L12.9004 13.4194C12.9004 13.9164 12.4974 14.3194 12.0004 14.3194C11.5033 14.3194 11.1004 13.9164 11.1004 13.4194L11.1004 7.99961C11.1004 7.50255 11.5033 7.09961 12.0004 7.09961Z" fill="#FF3545"/>
<path fill-rule="evenodd" clip-rule="evenodd" d="M12.0004 15.9961C12.4974 15.9961 12.9004 16.399 12.9004 16.8961L12.9004 16.9191C12.9004 17.4161 12.4974 17.8191 12.0004 17.8191C11.5033 17.8191 11.1004 17.4161 11.1004 16.9191L11.1004 16.8961C11.1004 16.399 11.5033 15.9961 12.0004 15.9961Z" fill="#FF3545"/>
</svg>
