<svg fill="none" viewBox="0 0 24 24" xmlns="http://www.w3.org/2000/svg"><g clip-rule="evenodd" fill="#767f8d" fill-rule="evenodd"><path d="m3.236 7.413a.8.8 0 0 1 .8-.8h15.929a.8.8 0 1 1 0 1.6h-15.929a.8.8 0 0 1 -.8-.8zm6.316 2.294a.8.8 0 0 1 .8.8v6.265a.8.8 0 0 1 -1.6 0v-6.265a.8.8 0 0 1 .8-.8zm2.448 0a.8.8 0 0 1 .8.8v6.265a.8.8 0 0 1 -1.6 0v-6.265a.8.8 0 0 1 .8-.8zm2.447 0a.8.8 0 0 1 .8.8v6.265a.8.8 0 0 1 -1.6 0v-6.265a.8.8 0 0 1 .8-.8z"/><path d="m7.391 7.297v11.002a1.2 1.2 0 0 0 1.2 1.2h6.816a1.2 1.2 0 0 0 1.2-1.2v-11.003h1.6v11.002a2.8 2.8 0 0 1 -2.8 2.8h-6.817a2.8 2.8 0 0 1 -2.8-2.8v-11.002h1.6zm6.903-.681a2.116 2.116 0 1 0 -4.232 0h-1.6a3.716 3.716 0 1 1 7.433 0h-1.6z"/></g></svg>