<svg xmlns="http://www.w3.org/2000/svg" viewBox="0 0 16 16">
    <path fill="#fff" d="M13.33 4.459a2.867 2.867 0 0 0 1.258-1.583 5.728 5.728 0 0 1-1.816.694 2.867 2.867 0 0 0-4.878 2.61 8.123 8.123 0 0 1-5.896-2.99 2.867 2.867 0 0 0 .886 3.82 2.85 2.85 0 0 1-1.296-.358v.036c0 1.362.96 2.535 2.296 2.805a2.867 2.867 0 0 1-1.292.05 2.867 2.867 0 0 0 2.672 1.986 5.74 5.74 0 0 1-3.553 1.225c-.228 0-.457-.013-.683-.04A8.099 8.099 0 0 0 5.414 14a8.085 8.085 0 0 0 8.13-8.51 5.812 5.812 0 0 0 1.429-1.482 5.72 5.72 0 0 1-1.643.45Z"/>
</svg>
