<svg xmlns="http://www.w3.org/2000/svg" fill="none" viewBox="0 0 24 24">
    <rect width="24" height="24" fill="#1DA1F2" rx="12"/>
    <path fill="#fff" d="M9.64 18.004c4.8 0 7.424-3.874 7.424-7.234 0-.11 0-.22-.007-.329.51-.36.951-.805 1.302-1.315-.477.205-.982.34-1.499.4a2.563 2.563 0 0 0 1.147-1.407 5.313 5.313 0 0 1-1.657.617 2.634 2.634 0 0 0-1.48-.767 2.672 2.672 0 0 0-1.655.267 2.571 2.571 0 0 0-1.146 1.193 2.485 2.485 0 0 0-.166 1.626 7.562 7.562 0 0 1-2.978-.77 7.376 7.376 0 0 1-2.4-1.886 2.488 2.488 0 0 0-.285 1.853c.15.63.541 1.181 1.094 1.54a2.64 2.64 0 0 1-1.185-.318v.033c0 .587.21 1.155.59 1.61a2.63 2.63 0 0 0 1.504.882 2.671 2.671 0 0 1-1.178.043c.166.505.491.947.928 1.264.437.316.965.492 1.51.502a5.305 5.305 0 0 1-1.824.901 5.368 5.368 0 0 1-2.038.153 7.531 7.531 0 0 0 4 1.14"/>
</svg>
