<svg xmlns="http://www.w3.org/2000/svg" fill="none" viewBox="0 0 21 20">
    <g clip-path="url(#TwitterStroke_svg__a)">
        <path fill="currentColor" fill-rule="evenodd" d="M12.664 2.113a4.4 4.4 0 0 1 4.575.898 8.416 8.416 0 0 0 2.043-1.057.667.667 0 0 1 1.033.703 7.101 7.101 0 0 1-1.674 3.127c.017.154.025.308.026.463v.002c0 5.025-2.416 8.696-5.875 10.537-3.441 1.832-7.848 1.815-11.782-.37a.667.667 0 0 1 .35-1.25 9.034 9.034 0 0 0 4.42-.957c-1.371-.793-2.336-1.75-2.992-2.785-.817-1.291-1.127-2.66-1.183-3.894-.056-1.232.14-2.342.346-3.14a10.736 10.736 0 0 1 .396-1.223l.03-.074.01-.02.002-.007.015-.032.596.299.546-.384a8.217 8.217 0 0 0 6.287 3.483V6.28a4.4 4.4 0 0 1 2.831-4.166ZM3.248 4.7l-.006.023a9.42 9.42 0 0 0-.305 2.746c.048 1.058.311 2.188.978 3.241.664 1.049 1.754 2.06 3.523 2.847a.667.667 0 0 1 .103 1.16 10.365 10.365 0 0 1-3.547 1.537c2.875.896 5.804.615 8.172-.645 3-1.597 5.167-4.8 5.168-9.358a3.178 3.178 0 0 0-.055-.568.666.666 0 0 1 .186-.6c.326-.321.61-.678.85-1.063a9.753 9.753 0 0 1-1.073.393.667.667 0 0 1-.695-.201 3.066 3.066 0 0 0-5.38 2.053v.843a.667.667 0 0 1-.65.666A9.55 9.55 0 0 1 3.248 4.7Z" clip-rule="evenodd"/>
    </g>
    <defs>
        <clipPath id="TwitterStroke_svg__a">
            <path fill="currentColor" d="M.5 0h20v20H.5z"/>
        </clipPath>
    </defs>
</svg>
