<svg xmlns="http://www.w3.org/2000/svg" viewBox="0 0 14 14">
    <path stroke="#000" stroke-width=".4" d="m10.047.81.01.001.01.001c1.36.08 2.408.811 2.934 2.05.283.666.37 1.329.254 1.966-.115.636-.43 1.235-.932 1.778-.452.489-.932.958-1.393 1.407l-.008.009-.443.434a1.35 1.35 0 0 1-.94.387c-.194 0-.38-.042-.547-.122.04.085.069.177.088.274.039.19.022.4-.031.59a1.25 1.25 0 0 1-.28.515l-.094.098-.005.006c-.605.638-1.237 1.305-1.923 1.906-.633.556-1.353.844-2.135.844-.474 0-.958-.109-1.44-.318a3.32 3.32 0 0 1-1.474-1.258L10.048.811Zm0 0h-.022c-.98.005-1.682.215-2.232.709M10.047.81l-.008.2h-.014c-.95.004-1.598.207-2.099.656m0 0-.133-.148m.133.148a39.813 39.813 0 0 0-2.149 2.106l2.15-2.106Zm-.133-.148a40.007 40.007 0 0 0-2.16 2.116A1.16 1.16 0 0 0 5.39 4.87m2.403-3.35L5.39 4.87m0 0c.016.042.035.083.055.122a1.155 1.155 0 0 0-.533-.13c-.345 0-.679.153-.942.415l-.165.163-.1.098c-.51.507-1.038 1.029-1.55 1.552a3.393 3.393 0 0 0-.998 2.43v.005a3.44 3.44 0 0 0 .54 1.852L5.39 4.871Zm1.036.758a1.13 1.13 0 0 0 .282-.02l-.614.615a1.114 1.114 0 0 0-.125-.716c.14.069.294.11.457.121Zm0 0h-.002l.016-.2-.012.2h-.002Zm.863-.537a1.3 1.3 0 0 1-.237.174l.123.16.22-.22-.106-.114Zm0 0 .106.113.97-1.163-.161.16-.004.004-.004.004-.108.107c-.26.258-.527.521-.799.775Zm.642 2.952c-.077 0-.152.007-.227.02l.634-.633c-.049.243-.021.49.087.718a1.183 1.183 0 0 0-.494-.105Zm.976-4.128c-.046 0-.091.003-.136.008.167-.164.336-.327.506-.484a.752.752 0 0 1 .53-.212c.086 0 .18.012.276.038h.001c.372.099.63.35.722.685a.998.998 0 0 1-.273.965c-.14.144-.282.288-.425.431a1.22 1.22 0 0 0-1.201-1.43ZM3.952 8.723l.218-.222A1.219 1.219 0 0 0 5.577 9.87l-.305.3c-.195.19-.45.294-.72.294a.962.962 0 0 1-.689-.283.906.906 0 0 1-.283-.695c.013-.247.13-.516.372-.763Zm4.697-.252.102-.097-.102.097Z"/>
    <path fill="#fff" fill-rule="evenodd" d="M10.027 1.445c1.009.059 1.918.557 2.389 1.664.478 1.125.265 2.171-.56 3.065-.444.48-.912.937-1.381 1.394l-.443.434a.708.708 0 0 1-.494.205.585.585 0 0 1-.43-.176c-.233-.245-.208-.582.073-.863.217-.218.435-.435.654-.652.386-.384.773-.768 1.153-1.157.897-.919.499-2.378-.74-2.708a1.726 1.726 0 0 0-.44-.06 1.38 1.38 0 0 0-.963.383c-.323.3-.637.611-.95.922-.298.296-.596.591-.902.878-.127.119-.333.222-.5.222l-.026-.001c-.463-.028-.696-.588-.376-.92A40.023 40.023 0 0 1 8.217 1.99c.45-.404 1.034-.542 1.81-.546ZM8.91 4.55a.585.585 0 0 1 .414 1l-3.53 3.529a.583.583 0 0 1-.827 0 .585.585 0 0 1 0-.828l3.529-3.53a.583.583 0 0 1 .414-.17ZM5.303 5.666a.543.543 0 0 0-.39-.17c-.165 0-.34.078-.495.232l-.166.164c-.55.546-1.1 1.09-1.644 1.644-.54.55-.81 1.217-.814 1.99.002 1.097.623 2.088 1.633 2.528.404.176.8.265 1.186.265.611 0 1.19-.225 1.715-.685.666-.585 1.28-1.231 1.89-1.876l.09-.094a.706.706 0 0 0 .15-.543.526.526 0 0 0-.527-.442.66.66 0 0 0-.46.198c-.283.277-.563.558-.843.84-.303.303-.606.608-.913.907a1.664 1.664 0 0 1-1.162.475c-.416 0-.83-.158-1.14-.47-.65-.655-.62-1.629.085-2.35.36-.369.726-.732 1.091-1.095.215-.213.43-.425.643-.64.3-.3.324-.622.071-.878Z" clip-rule="evenodd"/>
</svg>
