<svg xmlns="http://www.w3.org/2000/svg" fill="none" viewBox="0 0 24 24">
    <circle cx="12" cy="12" r="12" fill="#00CC5E"/>
    <path fill="#fff" d="M16.123 14.453c0 .867-.293 1.613-.88 2.24-.586.625-1.347 1.012-2.284 1.159v1.486a.26.26 0 0 1-.173.254.28.28 0 0 1-.11.018h-1.193a.277.277 0 0 1-.199-.08.254.254 0 0 1-.084-.192v-1.486a5.761 5.761 0 0 1-1.127-.264 6.058 6.058 0 0 1-.896-.377 5.968 5.968 0 0 1-.654-.408 5.02 5.02 0 0 1-.411-.32 2.22 2.22 0 0 1-.155-.151c-.1-.12-.106-.236-.018-.35l.91-1.146c.041-.057.11-.09.203-.102a.224.224 0 0 1 .213.076l.017.018c.667.56 1.382.914 2.148 1.062a3.3 3.3 0 0 0 .654.067c.477 0 .897-.122 1.26-.365.362-.244.543-.589.543-1.037a.835.835 0 0 0-.133-.45 1.609 1.609 0 0 0-.296-.356 2.402 2.402 0 0 0-.517-.319 12.02 12.02 0 0 0-.583-.272 18.82 18.82 0 0 0-.707-.276 57.51 57.51 0 0 0-.544-.212 15.694 15.694 0 0 1-.543-.226 6.545 6.545 0 0 1-.552-.263 9.196 9.196 0 0 1-.5-.302 3.097 3.097 0 0 1-.472-.36 5.388 5.388 0 0 1-.385-.417 2.068 2.068 0 0 1-.314-.493 3.308 3.308 0 0 1-.186-.564 2.843 2.843 0 0 1-.075-.663c0-.781.29-1.467.866-2.056.578-.59 1.33-.968 2.254-1.138V4.659c0-.073.028-.137.084-.191a.277.277 0 0 1 .199-.081h1.193a.28.28 0 0 1 .203.076.26.26 0 0 1 .08.196v1.495a5.88 5.88 0 0 1 1.746.48c.196.093.384.2.56.319.178.118.292.2.345.246.053.045.098.085.133.119.1.101.115.21.044.322l-.716 1.24a.241.241 0 0 1-.203.137.29.29 0 0 1-.239-.06 1.821 1.821 0 0 0-.128-.102 4.841 4.841 0 0 0-.344-.225 4.05 4.05 0 0 0-1.175-.493 3.06 3.06 0 0 0-.756-.097c-.56 0-1.017.122-1.37.365-.354.244-.53.558-.53.943 0 .148.025.283.074.408.05.125.137.242.26.352.124.11.241.204.35.28.11.077.274.165.495.264.22.099.4.176.535.23.136.053.342.13.618.233.313.114.552.203.716.268.165.065.39.164.672.297.283.133.505.254.668.361.161.108.344.25.548.425.202.175.359.355.468.54.109.183.201.4.278.65.076.248.115.514.115.798Z"/>
</svg>
