<svg xmlns="http://www.w3.org/2000/svg" fill="none" viewBox="0 0 24 24">
    <circle cx="12" cy="12" r="12" fill="#00CC5E"/>
    <path fill="#fff" d="M16.123 14.453q0 1.3-.88 2.24-.879.938-2.284 1.159v1.486a.26.26 0 0 1-.173.254.3.3 0 0 1-.11.018h-1.193a.28.28 0 0 1-.199-.08.25.25 0 0 1-.084-.192v-1.486a6 6 0 0 1-1.127-.264 6 6 0 0 1-.896-.377 6 6 0 0 1-.654-.408 5 5 0 0 1-.411-.32 2 2 0 0 1-.155-.151q-.15-.18-.018-.35l.91-1.146q.063-.085.203-.102a.22.22 0 0 1 .213.076l.017.018q1 .84 2.148 1.062a3.3 3.3 0 0 0 .654.067q.716 0 1.26-.365.543-.365.543-1.037a.84.84 0 0 0-.133-.45 1.6 1.6 0 0 0-.296-.356 2.4 2.4 0 0 0-.517-.319 12 12 0 0 0-.583-.272 19 19 0 0 0-.707-.276l-.544-.212a16 16 0 0 1-.543-.226 7 7 0 0 1-.552-.263 9 9 0 0 1-.5-.302 3 3 0 0 1-.472-.36 5 5 0 0 1-.385-.417 2 2 0 0 1-.314-.493 3.3 3.3 0 0 1-.186-.564 2.8 2.8 0 0 1-.075-.663q.001-1.172.866-2.056.867-.884 2.254-1.138V4.659q0-.11.084-.191a.28.28 0 0 1 .199-.081h1.193a.28.28 0 0 1 .203.076.26.26 0 0 1 .08.196v1.495a5.9 5.9 0 0 1 1.746.48q.295.14.56.319.266.177.345.246.08.068.133.119.15.153.044.322l-.716 1.24a.24.24 0 0 1-.203.137.29.29 0 0 1-.239-.06 2 2 0 0 0-.128-.102 5 5 0 0 0-.344-.225 4 4 0 0 0-1.175-.493 3 3 0 0 0-.756-.097q-.84 0-1.37.365-.53.366-.53.943 0 .221.074.408.075.187.26.352.186.165.35.28t.495.264.535.23q.204.079.618.233.47.17.716.268.248.098.672.297.424.2.668.361.242.162.548.425.304.263.468.54.163.275.278.65.114.372.115.798Z"/>
</svg>
