<svg xmlns="http://www.w3.org/2000/svg" fill="none" viewBox="0 0 18 18">
    <g id="UserOutline_svg__UserOutline_svg/linear/user-square">
        <g id="UserOutline_svg__user-square" fill="currentColor" fill-rule="evenodd" clip-rule="evenodd">
            <path id="UserOutline_svg__Vector (Stroke)" d="M4.655 16.516c.531.1 1.142.15 1.846.15h5c.703 0 1.314-.05 1.845-.15-.447-1.48-2.137-2.708-4.345-2.708-2.208 0-3.899 1.228-4.346 2.708Zm-1.435.444c.221-2.618 2.844-4.485 5.78-4.485 2.938 0 5.56 1.867 5.782 4.485a.666.666 0 0 1-.476.696c-.814.24-1.749.344-2.805.344h-5c-1.057 0-1.992-.104-2.806-.344a.667.667 0 0 1-.475-.696Z"/>
            <path id="UserOutline_svg__Vector (Stroke)_2" d="M1.55 1.549C2.673.425 4.35-.001 6.5-.001h5c2.15 0 3.827.426 4.95 1.55C17.576 2.672 18 4.35 18 6.499v5c0 1.63-.243 2.982-.847 4.032-.62 1.077-1.579 1.765-2.854 2.126a.666.666 0 0 1-.846-.585c-.146-1.715-1.973-3.264-4.453-3.264-2.48 0-4.307 1.549-4.452 3.264a.667.667 0 0 1-.846.585c-1.276-.36-2.235-1.05-2.855-2.126C.244 14.48 0 13.128 0 11.499v-5C0 4.35.426 2.672 1.55 1.55Zm.942.943c-.75.75-1.158 1.99-1.158 4.007v5c0 1.521.231 2.606.67 3.367.314.548.757.963 1.374 1.255.646-2.17 3.01-3.647 5.622-3.647 2.613 0 4.976 1.478 5.623 3.647a3.012 3.012 0 0 0 1.374-1.255c.438-.761.67-1.846.67-3.367v-5c0-2.017-.408-3.256-1.159-4.007-.751-.752-1.99-1.16-4.008-1.16h-5c-2.017 0-3.256.408-4.008 1.16ZM9 5.499a2.314 2.314 0 0 0-2.316 2.317A2.32 2.32 0 0 0 9 10.141a2.32 2.32 0 0 0 2.317-2.325A2.314 2.314 0 0 0 9 5.499ZM5.35 7.816A3.647 3.647 0 0 1 9 4.166a3.647 3.647 0 0 1 3.65 3.65A3.654 3.654 0 0 1 9 11.474a3.654 3.654 0 0 1-3.65-3.658Z"/>
            <path id="UserOutline_svg__Vector (Stroke)_3" d="M9 5.5a2.314 2.314 0 0 0-2.316 2.316A2.32 2.32 0 0 0 9 10.141a2.32 2.32 0 0 0 2.317-2.325A2.314 2.314 0 0 0 9 5.499ZM5.35 7.815A3.647 3.647 0 0 1 9 4.166a3.647 3.647 0 0 1 3.65 3.65A3.654 3.654 0 0 1 9 11.474a3.654 3.654 0 0 1-3.65-3.658Z"/>
        </g>
    </g>
</svg>
