<svg xmlns="http://www.w3.org/2000/svg" fill="none" viewBox="0 0 24 24">
    <path d="M10.705 1.603A1.7 1.7 0 0 1 12 1a1.7 1.7 0 0 1 1.295.603l.816.968a1.7 1.7 0 0 0 1.698.555l1.229-.302a1.7 1.7 0 0 1 2.095 1.53l.094 1.265a1.7 1.7 0 0 0 1.05 1.45l1.168.48c.97.4 1.353 1.58.8 2.476l-.665 1.079a1.71 1.71 0 0 0 0 1.793l.666 1.08c.552.895.17 2.074-.8 2.472l-1.17.483a1.7 1.7 0 0 0-1.05 1.45l-.093 1.265a1.71 1.71 0 0 1-.695 1.252 1.7 1.7 0 0 1-1.4.277l-1.229-.302a1.69 1.69 0 0 0-1.697.555l-.817.968A1.7 1.7 0 0 1 12 23a1.7 1.7 0 0 1-1.295-.603l-.816-.968a1.7 1.7 0 0 0-1.698-.555l-1.229.302a1.7 1.7 0 0 1-2.095-1.53l-.094-1.265a1.71 1.71 0 0 0-1.05-1.45l-1.168-.482a1.706 1.706 0 0 1-.8-2.472l.665-1.08a1.71 1.71 0 0 0 0-1.793l-.665-1.08a1.71 1.71 0 0 1 .8-2.473l1.17-.481a1.71 1.71 0 0 0 1.05-1.451l.092-1.266a1.71 1.71 0 0 1 .695-1.252 1.7 1.7 0 0 1 1.4-.277l1.229.302a1.69 1.69 0 0 0 1.698-.555z" style="--default-color:#1C68F3;fill:var(--icon-color, var(--default-color, currentColor))"/>
    <path fill="#fff" fill-rule="evenodd" d="M17.698 8.776a.75.75 0 0 1 0 1.06l-6.867 6.866a.75.75 0 0 1-1.06 0l-3.21-3.209a.75.75 0 1 1 1.061-1.06l2.679 2.678 6.336-6.335a.75.75 0 0 1 1.06 0Z" clip-rule="evenodd"/>
</svg>
