<svg xmlns="http://www.w3.org/2000/svg" viewBox="0 0 25 24">
    <g clip-path="url(#Verified_svg__a)">
        <path fill="#39CF92" d="M23.273 8.869V5.776l-2.685-1.55-1.542-2.676h-3.092L13.27 0l-2.677 1.55H7.501l-1.55 2.676-2.684 1.55v3.092l-1.542 2.677 1.55 2.677v3.092l2.684 1.542 1.55 2.684H10.6l2.676 1.542 2.684-1.542h3.085l1.542-2.684 2.685-1.542v-3.092l1.542-2.677-1.542-2.676Z"/>
        <path fill="#fff" fill-rule="evenodd" d="M18.422 8.776a.75.75 0 0 1 0 1.06l-6.866 6.867a.75.75 0 0 1-1.06 0l-3.21-3.21a.75.75 0 0 1 1.06-1.06l2.68 2.679 6.336-6.336a.75.75 0 0 1 1.06 0Z" clip-rule="evenodd"/>
    </g>
    <defs>
        <clipPath id="Verified_svg__a">
            <path fill="#fff" d="M0 0h24v24H0z" transform="translate(.725)"/>
        </clipPath>
    </defs>
</svg>
