<svg xmlns="http://www.w3.org/2000/svg" fill="none" viewBox="0 0 24 24">
    <path fill="#39CF92" d="M22.27 9.791a2 2 0 0 1-.267-.998V7.39a2 2 0 0 0-1-1.732l-1.22-.704a2 2 0 0 1-.732-.733l-.698-1.21a2 2 0 0 0-1.733-1.002h-1.4a2 2 0 0 1-1-.268l-1.218-.703a2 2 0 0 0-2.003 0l-1.21.702a2 2 0 0 1-1.003.27H7.384a2 2 0 0 0-1.73.997l-.705 1.216a2 2 0 0 1-.73.73l-1.222.705a2 2 0 0 0-1 1.732v1.403a2 2 0 0 1-.267.998l-.698 1.212a2 2 0 0 0 .002 2.001l.702 1.212a2 2 0 0 1 .269 1.002v1.397a2 2 0 0 0 1.003 1.735l1.214.697a2 2 0 0 1 .736.734L5.66 21a2 2 0 0 0 1.732 1h1.403a2 2 0 0 1 .999.267l1.215.7a2 2 0 0 0 1.995.002l1.224-.703a2 2 0 0 1 .996-.266h1.394a2 2 0 0 0 1.734-1.003l.696-1.212a2 2 0 0 1 .738-.738l1.212-.697a2 2 0 0 0 1.004-1.734v-1.4a2 2 0 0 1 .267-.998l.7-1.214a2 2 0 0 0 0-1.997l-.7-1.215Z"/>
    <path fill="#fff" fill-rule="evenodd" d="M17.698 8.776a.75.75 0 0 1 0 1.06l-6.867 6.866a.75.75 0 0 1-1.06 0l-3.21-3.209a.75.75 0 1 1 1.061-1.06l2.679 2.678 6.336-6.335a.75.75 0 0 1 1.06 0Z" clip-rule="evenodd"/>
</svg>
