<svg xmlns="http://www.w3.org/2000/svg" viewBox="0 0 20 20">
    <g fill="currentColor">
        <path d="m18.46 9.279-3.62-6.274a1.46 1.46 0 0 0-1.26-.726H6.42c-.568 0-1.1.306-1.382.799l-3.582 6.2c-.26.45-.26 1.006 0 1.454l3.62 6.271c.26.45.74.727 1.26.727h7.243c.517 0 1-.28 1.26-.727l3.62-6.271a1.46 1.46 0 0 0 0-1.453Zm-1.185.77-3.621 6.27a.09.09 0 0 1-.074.044H6.337a.08.08 0 0 1-.074-.043l-3.62-6.272a.09.09 0 0 1 0-.086l3.58-6.199a.23.23 0 0 1 .198-.115h7.159c.03 0 .058.015.074.043l3.62 6.271a.09.09 0 0 1 0 .086Z"/>
        <path d="M9.959 7.04a2.97 2.97 0 0 0-2.965 2.964A2.97 2.97 0 0 0 9.96 12.97a2.967 2.967 0 0 0 2.965-2.963A2.97 2.97 0 0 0 9.959 7.04m0 4.564a1.6 1.6 0 0 1-1.598-1.598A1.6 1.6 0 0 1 9.96 8.41a1.6 1.6 0 0 1 1.598 1.597 1.6 1.6 0 0 1-1.598 1.598Z"/>
    </g>
</svg>
