<svg xmlns="http://www.w3.org/2000/svg" viewBox="0 0 24 24">
    <g fill="currentColor" fill-rule="evenodd" clip-rule="evenodd">
        <path d="M17.77 9.873h3.484c.412 0 .746.326.746.728v2.53a.746.746 0 0 1-.746.729h-3.405c-.994.013-1.863-.651-2.089-1.595a1.98 1.98 0 0 1 .433-1.652 2.1 2.1 0 0 1 1.576-.74Zm.15 2.66h.33a.755.755 0 0 0 .764-.745.755.755 0 0 0-.764-.745h-.33a.77.77 0 0 0-.54.213.73.73 0 0 0-.224.524c0 .413.341.749.765.754Z"/>
        <path d="M22 8.382h-4.231v.034c-1.964 0-3.556 1.552-3.556 3.467s1.592 3.467 3.556 3.467H22v.312C22 19.015 19.964 21 16.516 21H7.484C4.036 21 2 19.015 2 15.662V8.338C2 4.985 4.036 3 7.484 3h9.032C19.964 3 22 4.985 22 8.382m-15.262 0h5.644a.755.755 0 0 0 .765-.746.755.755 0 0 0-.764-.745H6.738a.755.755 0 0 0-.764.736c0 .413.34.75.764.754Z"/>
    </g>
</svg>
