<svg xmlns="http://www.w3.org/2000/svg" viewBox="0 0 24 24">
    <g fill="currentColor" fill-rule="evenodd" clip-rule="evenodd">
        <path d="M6.2 11.15a.8.8 0 0 1 .8-.8h6a.8.8 0 0 1 0 1.6H7a.8.8 0 0 1-.8-.8m-.51-7.51A2.887 2.887 0 0 0 2.8 6.53v4.62a.8.8 0 0 1-1.6 0V6.53a4.487 4.487 0 0 1 4.49-4.49h5.62c1.182 0 2.298.367 3.131 1.082.845.724 1.36 1.774 1.36 3.027a.8.8 0 0 1-1.6 0c0-.787-.311-1.392-.802-1.813-.501-.43-1.23-.697-2.089-.697z"/>
        <path d="M6 6.95a3.2 3.2 0 0 0-3.2 3.2v7a3.2 3.2 0 0 0 3.2 3.2h10a3.2 3.2 0 0 0 3.2-3.2v-.65h-.13c-1.254 0-2.542-.772-2.902-2.113l-.002-.004a2.81 2.81 0 0 1 .75-2.751 2.8 2.8 0 0 1 2.004-.832h.28v-.65c0-1.759-1.442-3.2-3.2-3.2zm-4.8 3.2c0-2.652 2.148-4.8 4.8-4.8h10c2.642 0 4.8 2.158 4.8 4.8v1.45a.8.8 0 0 1-.8.8h-1.08a1.2 1.2 0 0 0-.886.377 1.21 1.21 0 0 0-.32 1.197c.14.518.691.926 1.356.926H20a.8.8 0 0 1 .8.8v1.45a4.8 4.8 0 0 1-4.8 4.8H6a4.8 4.8 0 0 1-4.8-4.8z"/>
        <path d="M18.92 12.399c-.345 0-.648.134-.866.358l-.015.014c-.256.25-.398.605-.362.982v.01c.051.605.636 1.136 1.363 1.136h1.93c.134 0 .23-.107.23-.22v-2.06a.227.227 0 0 0-.23-.22zm-2.006-.765a2.8 2.8 0 0 1 2.006-.835h2.05c1.007 0 1.83.813 1.83 1.82v2.06c0 1.007-.823 1.82-1.83 1.82h-1.93c-1.431 0-2.824-1.047-2.956-2.599a2.8 2.8 0 0 1 .83-2.267Z"/>
    </g>
</svg>
