<svg fill="none" viewBox="0 0 92 92" xmlns="http://www.w3.org/2000/svg"><path d="m79.75 45.56c0 18.64-15.11 33.75-33.75 33.75s-33.75-15.11-33.75-33.75c0-18.639 15.11-33.75 33.75-33.75s33.75 15.111 33.75 33.75z" fill="#ff3545"/><path clip-rule="evenodd" d="m46.002 27.184a3.375 3.375 0 0 1 3.374 3.375v20.324a3.375 3.375 0 0 1 -6.75 0v-20.323a3.375 3.375 0 0 1 3.376-3.375zm0 33.362a3.375 3.375 0 0 1 3.374 3.375v.086a3.375 3.375 0 0 1 -6.75 0v-.086a3.375 3.375 0 0 1 3.376-3.375z" fill="#fff" fill-rule="evenodd"/></svg>