<svg xmlns="http://www.w3.org/2000/svg" fill="none" viewBox="0 0 92 92">
    <path fill="#ff3545" d="M79.75 45.56c0 18.64-15.11 33.75-33.75 33.75S12.25 64.2 12.25 45.56c0-18.639 15.11-33.75 33.75-33.75s33.75 15.111 33.75 33.75"/>
    <path fill="#fff" fill-rule="evenodd" d="M46.002 27.184a3.375 3.375 0 0 1 3.374 3.375v20.324a3.375 3.375 0 0 1-6.75 0V30.56a3.375 3.375 0 0 1 3.376-3.375zm0 33.362a3.375 3.375 0 0 1 3.374 3.375v.086a3.375 3.375 0 0 1-6.75 0v-.086a3.375 3.375 0 0 1 3.376-3.375" clip-rule="evenodd"/>
</svg>
