<svg fill="none" viewBox="0 0 24 24" xmlns="http://www.w3.org/2000/svg"><circle cx="12" cy="12" fill="#1c68f3" r="12"/><g clip-rule="evenodd" fill="#fff" fill-rule="evenodd"><path d="m12 4.8a7.2 7.2 0 1 0 0 14.4 7.2 7.2 0 0 0 0-14.4zm-8.8 7.2a8.8 8.8 0 1 1 17.6 0 8.8 8.8 0 0 1 -17.6 0z"/><path d="m8.516 5a.8.8 0 0 1 .8-.8h.684a.8.8 0 0 1 .768 1.026 24.2 24.2 0 0 0 0 13.549.8.8 0 0 1 -.768 1.025h-.684a.8.8 0 0 1 -.342-1.523 25.839 25.839 0 0 1 0-12.554.8.8 0 0 1 -.458-.723zm5.259-.768a.8.8 0 0 1 .993.543 25.8 25.8 0 0 1 0 14.45.8.8 0 1 1 -1.535-.45 24.201 24.201 0 0 0 0-13.55.8.8 0 0 1 .542-.993z"/><path d="m4.52 13.36a.8.8 0 0 1 .706-.127 24.201 24.201 0 0 0 13.549 0 .8.8 0 0 1 1.025.767v.684a.8.8 0 0 1 -1.523.342 25.837 25.837 0 0 1 -12.554 0 .8.8 0 0 1 -1.523-.342v-.684a.8.8 0 0 1 .32-.64zm14.255-2.592a24.2 24.2 0 0 0 -13.55 0 .8.8 0 1 1 -.45-1.535 25.8 25.8 0 0 1 14.45 0 .8.8 0 1 1 -.45 1.535z"/></g></svg>