<svg xmlns="http://www.w3.org/2000/svg" fill="none" viewBox="0 0 24 24">
    <circle cx="12" cy="12" r="12" fill="#1c68f3"/>
    <g fill="#fff" fill-rule="evenodd" clip-rule="evenodd">
        <path d="M12 4.8a7.2 7.2 0 1 0 0 14.4 7.2 7.2 0 0 0 0-14.4M3.2 12a8.8 8.8 0 1 1 17.6 0 8.8 8.8 0 0 1-17.6 0"/>
        <path d="M8.516 5a.8.8 0 0 1 .8-.8H10a.8.8 0 0 1 .768 1.026 24.2 24.2 0 0 0 0 13.549A.8.8 0 0 1 10 19.8h-.684a.8.8 0 0 1-.342-1.523 25.84 25.84 0 0 1 0-12.554A.8.8 0 0 1 8.516 5m5.259-.768a.8.8 0 0 1 .993.543 25.8 25.8 0 0 1 0 14.45.8.8 0 1 1-1.535-.45 24.2 24.2 0 0 0 0-13.55.8.8 0 0 1 .542-.993"/>
        <path d="M4.52 13.36a.8.8 0 0 1 .706-.127 24.2 24.2 0 0 0 13.549 0A.8.8 0 0 1 19.8 14v.684a.8.8 0 0 1-1.523.342 25.84 25.84 0 0 1-12.554 0 .8.8 0 0 1-1.523-.342V14a.8.8 0 0 1 .32-.64m14.255-2.592a24.2 24.2 0 0 0-13.55 0 .8.8 0 1 1-.45-1.535 25.8 25.8 0 0 1 14.45 0 .8.8 0 1 1-.45 1.535"/>
    </g>
</svg>
