<svg xmlns="http://www.w3.org/2000/svg" fill="none" viewBox="0 0 20 21">
    <circle cx="10" cy="10.857" r="10" fill="#F5F5F5"/>
    <path fill="#15202B" fill-rule="evenodd" d="M10 4.857a6 6 0 1 0 0 12 6 6 0 0 0 0-12m-7.333 6a7.333 7.333 0 1 1 14.666 0 7.333 7.333 0 0 1-14.666 0" clip-rule="evenodd"/>
    <path fill="#15202B" fill-rule="evenodd" d="M7.097 5.024c0-.368.299-.667.667-.667h.57a.667.667 0 0 1 .64.855 20.17 20.17 0 0 0 0 11.29.667.667 0 0 1-.64.855h-.57a.667.667 0 0 1-.286-1.27 21.5 21.5 0 0 1 0-10.46.67.67 0 0 1-.381-.603m4.383-.64a.667.667 0 0 1 .826.452 21.5 21.5 0 0 1 0 12.042.667.667 0 1 1-1.279-.375 20.17 20.17 0 0 0 0-11.291.667.667 0 0 1 .452-.828Z" clip-rule="evenodd"/>
    <path fill="#15202B" fill-rule="evenodd" d="M3.767 11.99a.67.67 0 0 1 .587-.106 20.17 20.17 0 0 0 11.292 0 .667.667 0 0 1 .854.64v.57a.667.667 0 0 1-1.27.285c-3.418.86-7.043.86-10.46 0a.667.667 0 0 1-1.27-.285v-.57c0-.21.099-.408.267-.534m11.879-2.16a20.17 20.17 0 0 0-11.291 0 .667.667 0 1 1-.376-1.279 21.5 21.5 0 0 1 12.042 0 .667.667 0 1 1-.375 1.28Z" clip-rule="evenodd"/>
</svg>
