<svg xmlns="http://www.w3.org/2000/svg" fill="none" viewBox="0 0 21 21">
    <circle cx="10.795" cy="10.857" r="10" fill="#07101B"/>
    <path fill="#fff" fill-rule="evenodd" d="M10.795 4.857a6 6 0 1 0 0 12 6 6 0 0 0 0-12Zm-7.334 6a7.333 7.333 0 1 1 14.667 0 7.333 7.333 0 0 1-14.667 0Z" clip-rule="evenodd"/>
    <path fill="#fff" fill-rule="evenodd" d="M7.892 5.024c0-.368.298-.667.667-.667h.57a.667.667 0 0 1 .64.855 20.167 20.167 0 0 0 0 11.29.667.667 0 0 1-.64.855h-.57a.667.667 0 0 1-.286-1.27 21.532 21.532 0 0 1 0-10.46.667.667 0 0 1-.381-.603Zm4.382-.64a.667.667 0 0 1 .827.452 21.5 21.5 0 0 1 0 12.042.667.667 0 1 1-1.279-.375 20.167 20.167 0 0 0 0-11.291.667.667 0 0 1 .452-.828Z" clip-rule="evenodd"/>
    <path fill="#fff" fill-rule="evenodd" d="M4.562 11.99a.666.666 0 0 1 .587-.106 20.167 20.167 0 0 0 11.291 0 .666.666 0 0 1 .855.64v.57a.667.667 0 0 1-1.27.285c-3.418.86-7.043.86-10.46 0a.667.667 0 0 1-1.27-.285v-.57c0-.21.099-.408.267-.534ZM16.44 9.83a20.167 20.167 0 0 0-11.29 0 .667.667 0 1 1-.376-1.279 21.5 21.5 0 0 1 12.042 0 .667.667 0 0 1-.375 1.28Z" clip-rule="evenodd"/>
</svg>
