<svg xmlns="http://www.w3.org/2000/svg" fill="none" viewBox="0 0 566 256">
    <g clip-path="url(#ensCard_svg__a)">
        <rect width="566" height="256" fill="url(#ensCard_svg__b)" rx="8"/>
        <path fill="#fff" fill-opacity=".1" d="M82.436 61.964c5.7 12.183 19.806 36.263 19.806 36.263L265.32-171.36 106.161-60.22a69.46 69.46 0 0 0-22.656 24.936 115.344 115.344 0 0 0-1.069 97.248Zm-64.62 88.77A181.46 181.46 0 0 0 89.06 282.607L265.104 405.36S154.961 246.629 62.059 88.68a159.515 159.515 0 0 1-18.666-53.86 86.208 86.208 0 0 1 0-25.861c-2.422 4.488-7.124 13.678-7.124 13.678a209.103 209.103 0 0 0-19.023 60.914 372.469 372.469 0 0 0 .57 67.183Zm449.126 21.302c-5.7-12.183-19.806-36.263-19.806-36.263L284.058 405.36l159.16-111.069a69.466 69.466 0 0 0 22.655-24.935 115.349 115.349 0 0 0 1.069-97.32Zm64.628-88.77a181.457 181.457 0 0 0-71.244-131.873L284.282-171.36S394.354-12.629 487.328 145.319a159.519 159.519 0 0 1 18.594 53.861 86.171 86.171 0 0 1 0 25.862c2.423-4.489 7.125-13.679 7.125-13.679a209.112 209.112 0 0 0 19.022-60.914 372.44 372.44 0 0 0-.499-67.183Z"/>
        <path fill="#fff" d="M227.898 123.727h3.75l2.661 9.421 2.718-9.421h3.586l-4.605 12.773h-3.528l-4.582-12.773Zm18.047 0V136.5h-3.386v-12.773h3.386Zm0-4.606v3.082h-3.386v-3.082h3.386Zm9.094 15v2.496l-1.582.059c-1.578.054-2.656-.219-3.234-.821-.375-.382-.563-.972-.563-1.769v-7.863h-1.781v-2.379h1.781v-3.563h3.305v3.563h2.074v2.379h-2.074v6.75c0 .523.066.851.199.984.133.125.539.188 1.219.188h.316l.34-.024Zm2.625-9.012c.883-1.125 2.398-1.687 4.547-1.687 1.398 0 2.641.277 3.727.832 1.085.555 1.628 1.601 1.628 3.141v5.859c0 .406.008.898.024 1.476.023.438.09.735.199.891.109.156.273.285.492.387v.492h-3.633a3.747 3.747 0 0 1-.21-.727 8.233 8.233 0 0 1-.094-.773 6.84 6.84 0 0 1-1.594 1.277c-.719.414-1.531.621-2.438.621-1.156 0-2.113-.328-2.871-.984-.75-.664-1.125-1.602-1.125-2.812 0-1.571.606-2.707 1.817-3.411.664-.382 1.64-.656 2.929-.82l1.137-.141c.617-.078 1.059-.175 1.324-.292.477-.204.715-.52.715-.95 0-.523-.183-.883-.55-1.078-.36-.203-.891-.305-1.594-.305-.789 0-1.348.196-1.676.586-.234.289-.391.68-.469 1.172h-3.222c.07-1.117.382-2.035.937-2.754Zm2.484 8.977c.313.258.696.387 1.149.387.719 0 1.379-.211 1.98-.633.61-.422.926-1.192.95-2.309v-1.242a3.842 3.842 0 0 1-.645.328 5.614 5.614 0 0 1-.879.223l-.75.14c-.703.125-1.207.278-1.512.458-.515.304-.773.777-.773 1.417 0 .571.16.981.48 1.231Zm10.465-14.859h3.34V136.5h-3.34v-17.273Zm10.043 4.5V136.5h-3.386v-12.773h3.386Zm0-4.606v3.082h-3.386v-3.082h3.386Zm14.965 17.379h-4.031l-3.059-5.461-1.383 1.441v4.02h-3.281v-17.215h3.281v9.305l4.161-4.805h4.136l-4.465 4.887 4.641 7.828Zm1.582-3.492h3.551v3.492h-3.551v-3.492Zm17.672-.258c-.086.758-.48 1.527-1.184 2.309-1.093 1.242-2.625 1.863-4.593 1.863-1.625 0-3.059-.524-4.301-1.57-1.242-1.047-1.863-2.75-1.863-5.11 0-2.211.558-3.906 1.675-5.086 1.125-1.179 2.582-1.769 4.371-1.769 1.063 0 2.02.199 2.872.597.851.399 1.554 1.028 2.109 1.887.5.758.824 1.637.973 2.637.086.586.121 1.43.105 2.531h-8.742c.047 1.281.449 2.18 1.207 2.695.461.321 1.016.481 1.664.481.687 0 1.246-.195 1.676-.586.234-.211.441-.504.621-.879h3.41Zm-3.305-3.914c-.054-.883-.324-1.551-.808-2.004-.477-.461-1.071-.691-1.782-.691-.773 0-1.375.242-1.804.726-.422.485-.688 1.141-.797 1.969h5.191Zm11.578 5.285v2.496l-1.582.059c-1.578.054-2.656-.219-3.234-.821-.375-.382-.562-.972-.562-1.769v-7.863h-1.782v-2.379h1.782v-3.563h3.304v3.563h2.074v2.379h-2.074v6.75c0 .523.067.851.199.984.133.125.539.188 1.219.188h.317l.339-.024ZM336.836 129v7.5h-3.41v-7.77c0-.687-.117-1.242-.352-1.664-.304-.593-.883-.89-1.734-.89-.883 0-1.555.297-2.016.89-.453.586-.679 1.426-.679 2.52v6.914h-3.329v-17.215h3.329v6.106c.484-.743 1.043-1.258 1.675-1.547a4.74 4.74 0 0 1 2.016-.446c.789 0 1.504.137 2.144.411a3.75 3.75 0 0 1 1.594 1.253c.352.477.567.969.645 1.477.078.5.117 1.32.117 2.461Z"/>
    </g>
    <defs>
        <linearGradient id="ensCard_svg__b" x1="283" x2="283" y1="0" y2="256" gradientUnits="userSpaceOnUse">
            <stop stop-color="#2467FF"/>
            <stop offset="1" stop-color="#95B6FF"/>
        </linearGradient>
        <clipPath id="ensCard_svg__a">
            <rect width="566" height="256" fill="#fff" rx="8"/>
        </clipPath>
    </defs>
</svg>
