<svg xmlns="http://www.w3.org/2000/svg" fill="none" viewBox="0 0 60 61">
    <g fill="#F5F5F5" fill-rule="evenodd" clip-path="url('#mask_svg__clip0_30505_30827')" clip-rule="evenodd" opacity=".1">
        <path d="M30 59.064c15.648 0 28.333-12.685 28.333-28.333C58.333 15.083 45.648 2.398 30 2.398c-15.648 0-28.333 12.685-28.333 28.333 0 15.648 12.685 28.333 28.333 28.333Zm30-28.333c0 16.569-13.431 30-30 30-16.569 0-30-13.431-30-30 0-16.569 13.431-30 30-30 16.569 0 30 13.431 30 30Z"/>
        <path d="M48.107 23.357v9.962H16.434c1.383 6.045 6.87 10.56 13.43 10.56 5.423 0 10.114-3.085 12.358-7.57h5.885v8.368c0 1.98-1.631 3.586-3.644 3.586H15.311c-2.013 0-3.644-1.606-3.644-3.586v-21.32h36.44Zm-9.38 12.951a10.767 10.767 0 0 1-8.863 4.606c-3.681 0-6.93-1.825-8.863-4.606h17.726Zm-16.634-10.56c-2.856 0-5.218 2.078-5.611 4.782h3.106a2.63 2.63 0 0 1 2.505-1.794 2.63 2.63 0 0 1 2.505 1.794h3.106c-.393-2.704-2.755-4.782-5.611-4.782Zm15.588 0c-2.855 0-5.218 2.078-5.61 4.782h3.105a2.63 2.63 0 0 1 2.505-1.794 2.63 2.63 0 0 1 2.505 1.794h3.106c-.392-2.704-2.755-4.782-5.61-4.782Zm6.782-13.35c2.013 0 3.644 1.606 3.644 3.586v4.384h-36.44v-4.384c0-1.98 1.631-3.586 3.644-3.586h29.152Z"/>
    </g>
    <defs>
        <clipPath id="mask_dark_svg__mask_svg__clip0_30505_30827">
            <path fill="#fff" d="M0 .731h60v60H0z"/>
        </clipPath>
    </defs>
</svg>
