<svg xmlns="http://www.w3.org/2000/svg" fill="none" viewBox="0 0 61 61">
    <g fill="#F5F5F5" fill-rule="evenodd" clip-path="url('#mask_svg__clip0_30505_30427')" clip-rule="evenodd" opacity=".1">
        <path d="M30.983 59.064c15.649 0 28.334-12.685 28.334-28.333 0-15.648-12.685-28.333-28.334-28.333C15.335 2.398 2.65 15.083 2.65 30.73c0 15.648 12.685 28.333 28.333 28.333Zm30-28.333c0 16.569-13.431 30-30 30-16.568 0-30-13.431-30-30 0-16.569 13.432-30 30-30 16.569 0 30 13.431 30 30Z"/>
        <path d="M49.09 23.357v9.962H17.418c1.383 6.045 6.87 10.56 13.43 10.56 5.423 0 10.114-3.085 12.358-7.57h5.886v8.368c0 1.98-1.632 3.586-3.644 3.586H16.294c-2.012 0-3.644-1.606-3.644-3.586v-21.32h36.44Zm-9.38 12.951a10.767 10.767 0 0 1-8.863 4.606c-3.681 0-6.93-1.825-8.862-4.606H39.71Zm-16.634-10.56c-2.855 0-5.218 2.078-5.61 4.782h3.105a2.63 2.63 0 0 1 2.505-1.794c1.171 0 2.164.753 2.505 1.794h3.106c-.393-2.704-2.755-4.782-5.61-4.782Zm15.589 0c-2.856 0-5.218 2.078-5.611 4.782h3.106a2.63 2.63 0 0 1 2.505-1.794 2.63 2.63 0 0 1 2.505 1.794h3.106c-.393-2.704-2.756-4.782-5.611-4.782Zm6.782-13.35c2.012 0 3.644 1.606 3.644 3.586v4.384H12.65v-4.384c0-1.98 1.63-3.586 3.643-3.586h29.153Z"/>
    </g>
    <defs>
        <clipPath id="mask_svg__clip0_30505_30427">
            <path fill="#fff" d="M.983.731h60v60h-60z"/>
        </clipPath>
    </defs>
</svg>
