<svg xmlns="http://www.w3.org/2000/svg" fill="none" viewBox="0 0 126 126">
    <rect width="126" height="126" fill="#A1FE27" fill-opacity=".7" rx="8"/>
    <rect width="126" height="126" fill="url(#lens_svg__a)" rx="8"/>
    <rect width="48" height="48" x="39" y="24" fill="#A1FE27" rx="24"/>
    <path fill="#00501E" d="M63.036 52.58c-.321 0-7.938-.066-13.765-5.895a16.548 16.548 0 0 1-.361-.371c-1.22-1.286-1.8-2.817-1.677-4.425.109-1.42.764-2.794 1.84-3.873 1.075-1.078 2.454-1.731 3.872-1.84 1.486-.108 2.906.374 4.13 1.411.132-1.598.791-2.947 1.923-3.917 1.08-.927 2.51-1.437 4.04-1.437 1.528 0 2.959.51 4.038 1.437 1.13.97 1.791 2.319 1.923 3.917 1.224-1.037 2.644-1.528 4.13-1.41 1.42.109 2.794.764 3.872 1.84 1.077 1.075 1.732 2.454 1.84 3.872.123 1.608-.457 3.139-1.677 4.427a16.56 16.56 0 0 1-.361.371c-5.828 5.827-13.445 5.893-13.767 5.893Zm-9.67-15.21c-1.32 0-2.56.615-3.443 1.496-1.585 1.586-2.306 4.335-.14 6.625.11.117.224.233.339.348 5.478 5.477 12.842 5.54 12.915 5.54.073 0 7.452-.076 12.917-5.54.115-.116.228-.232.338-.348 2.166-2.293 1.445-5.039-.14-6.625-1.585-1.587-4.335-2.307-6.628-.14a13.809 13.809 0 0 0-.608.608l-1.138 1.208.044-1.658c0-.126.008-.252.008-.38 0-.163 0-.327-.007-.485-.087-3.15-2.54-4.586-4.784-4.586-2.243 0-4.694 1.435-4.783 4.586 0 .16-.006.327-.006.485 0 .125 0 .247.006.37l.045 1.668-1.14-1.201a14.964 14.964 0 0 0-.263-.274 16.421 16.421 0 0 0-.348-.339c-1.02-.968-2.13-1.358-3.184-1.358Z"/>
    <path fill="#00501E" d="M62.266 46.22h-.874c0-1.3-1.266-2.36-2.821-2.36-1.555 0-2.821 1.06-2.821 2.36h-.873c0-1.783 1.657-3.233 3.694-3.233s3.695 1.45 3.695 3.233Zm8.881-.036h-.874c0-1.3-1.265-2.358-2.82-2.358-1.556 0-2.822 1.057-2.822 2.358h-.873c0-1.782 1.657-3.232 3.694-3.232 2.038 0 3.695 1.45 3.695 3.232Z"/>
    <path fill="#00501E" d="M59.577 46.238a1.257 1.257 0 1 0 0-2.513 1.257 1.257 0 0 0 0 2.513Zm8.82 0a1.257 1.257 0 1 0 0-2.513 1.257 1.257 0 0 0 0 2.513Zm-5.364 3.192c-1.03 0-1.984-.53-2.43-1.348l.765-.417c.296.546.947.892 1.663.892.715 0 1.367-.35 1.662-.892l.764.417c-.44.819-1.391 1.348-2.424 1.348Zm15.652 12.107a10.905 10.905 0 0 1-7.014.764 10.717 10.717 0 0 1-5.173-2.8 7.369 7.369 0 0 0 2.855.561 8.161 8.161 0 0 0 4.727-1.506l-.701-.976c-1.89 1.36-4.49 1.688-6.541.76-2.024-.911-3.166-2.862-3.24-5.507v-.853h-1.2v.846c-.07 2.649-1.214 4.602-3.24 5.515-2.052.924-4.656.601-6.541-.765l-.7.976a8.16 8.16 0 0 0 4.724 1.51c.98.004 1.95-.187 2.855-.562a10.713 10.713 0 0 1-5.172 2.8c-2.358.53-4.825.261-7.013-.764l-.512 1.086a12.06 12.06 0 0 0 5.136 1.144c.893 0 1.782-.099 2.652-.294a11.93 11.93 0 0 0 6.758-4.229l.008-.01c.4-.523.75-1.082 1.047-1.67v6.18h1.2v-6.171c.298.585.647 1.141 1.045 1.663l.007.01a11.932 11.932 0 0 0 6.757 4.228 12.086 12.086 0 0 0 7.79-.85l-.514-1.086Z"/>
    <path fill="#07101B" d="M46.072 89.254h1.776V91h-1.776v-1.746Zm3.504-6.89h1.805v7.083h4.277V91h-6.082v-8.637Zm13.348 4.863h-4.196v2.22h4.782V91h-6.545v-8.637h6.334v1.53h-4.57v1.834h4.195v1.5ZM71.9 91h-1.804l-3.528-6.135V91h-1.681v-8.637h1.892l3.44 6.03v-6.03H71.9V91Zm4.823-1.248c.425 0 .771-.047 1.037-.14.504-.18.756-.514.756-1.003a.74.74 0 0 0-.375-.662c-.25-.152-.643-.287-1.178-.404l-.914-.205c-.899-.203-1.52-.424-1.864-.662-.582-.399-.873-1.022-.873-1.87 0-.773.282-1.415.844-1.927.563-.512 1.389-.768 2.479-.768.91 0 1.685.242 2.326.727.645.48.982 1.18 1.014 2.098H78.24c-.031-.52-.258-.89-.68-1.108-.28-.144-.63-.217-1.048-.217-.465 0-.836.094-1.114.282a.896.896 0 0 0-.416.785c0 .308.137.539.41.691.176.102.551.22 1.126.358l1.488.357c.652.156 1.144.365 1.476.627.516.406.774.994.774 1.764 0 .789-.303 1.445-.908 1.968-.602.52-1.454.78-2.555.78-1.125 0-2.01-.256-2.654-.768-.645-.516-.967-1.223-.967-2.121h1.722c.055.394.163.69.323.885.293.355.795.533 1.506.533Z"/>
    <defs>
        <linearGradient id="lens_svg__a" x1="63" x2="63" y1="0" y2="126" gradientUnits="userSpaceOnUse">
            <stop stop-color="#fff" stop-opacity="0"/>
            <stop offset="1" stop-color="#fff" stop-opacity=".9"/>
        </linearGradient>
    </defs>
</svg>
