<svg fill="none" viewBox="0 0 498 527" xmlns="http://www.w3.org/2000/svg" xmlns:xlink="http://www.w3.org/1999/xlink"><filter id="a" color-interpolation-filters="sRGB" filterUnits="userSpaceOnUse" height="524.353" width="497.298" x=".269" y="2.629"><feFlood flood-opacity="0" result="BackgroundImageFix"/><feBlend in="SourceGraphic" in2="BackgroundImageFix" result="shape"/><feGaussianBlur result="effect1_foregroundBlur_14560_369598" stdDeviation="37.241"/></filter><filter id="b" color-interpolation-filters="sRGB" filterUnits="userSpaceOnUse" height="752.855" width="490.526" x="-82.445" y="127.882"><feFlood flood-opacity="0" result="BackgroundImageFix"/><feBlend in="SourceGraphic" in2="BackgroundImageFix" result="shape"/><feGaussianBlur result="effect1_foregroundBlur_14560_369598" stdDeviation="60.886"/></filter><filter id="c" color-interpolation-filters="sRGB" filterUnits="userSpaceOnUse" height="673.719" width="452.15" x="163.555" y="-113.236"><feFlood flood-opacity="0" result="BackgroundImageFix"/><feBlend in="SourceGraphic" in2="BackgroundImageFix" result="shape"/><feGaussianBlur result="effect1_foregroundBlur_14560_369598" stdDeviation="60.886"/></filter><filter id="d" color-interpolation-filters="sRGB" filterUnits="userSpaceOnUse" height="752.855" width="490.526" x="83.851" y="77.004"><feFlood flood-opacity="0" result="BackgroundImageFix"/><feBlend in="SourceGraphic" in2="BackgroundImageFix" result="shape"/><feGaussianBlur result="effect1_foregroundBlur_14560_369598" stdDeviation="60.886"/></filter><filter id="e" color-interpolation-filters="sRGB" filterUnits="userSpaceOnUse" height="927.36" width="575.15" x="-108.029" y="-469.382"><feFlood flood-opacity="0" result="BackgroundImageFix"/><feBlend in="SourceGraphic" in2="BackgroundImageFix" result="shape"/><feGaussianBlur result="effect1_foregroundBlur_14560_369598" stdDeviation="60.886"/></filter><linearGradient id="f"><stop offset=".01" stop-color="#6298ea" stop-opacity=".2"/><stop offset="1" stop-color="#627eea" stop-opacity=".2"/></linearGradient><linearGradient id="g" gradientUnits="userSpaceOnUse" x1="25" x2="477" xlink:href="#f" y1="226.139" y2="226.139"/><linearGradient id="h"><stop offset="0" stop-color="#fff" stop-opacity="0"/><stop offset="1" stop-color="#fff" stop-opacity=".9"/></linearGradient><linearGradient id="i" gradientUnits="userSpaceOnUse" x1="251" x2="251" xlink:href="#h" y1=".139" y2="452.139"/><linearGradient id="j" gradientUnits="userSpaceOnUse" x1="201" x2="301" xlink:href="#f" y1="226.139" y2="226.139"/><linearGradient id="k" gradientUnits="userSpaceOnUse" x1="251" x2="251" xlink:href="#h" y1="176.139" y2="276.139"/><mask id="l" height="376" maskUnits="userSpaceOnUse" width="350" x="74" y="77"><rect fill="#fff" height="375.39" rx="23.645" width="348.336" x="74.751" y="77.11"/></mask><g filter="url(#a)"><g mask="url(#l)"><g filter="url(#b)"><ellipse cx="162.818" cy="504.309" fill="#1c68f3" rx="123.492" ry="254.656"/></g><g filter="url(#c)"><ellipse cx="389.63" cy="223.623" fill="#1c68f3" rx="104.304" ry="215.088"/></g><g filter="url(#d)"><ellipse cx="329.114" cy="453.431" fill="#1c68f3" rx="123.492" ry="254.656"/></g><g filter="url(#e)"><ellipse cx="179.546" cy="-5.702" fill="#b0b8a1" rx="165.804" ry="341.909"/></g></g></g><rect fill="#fff" height="452" rx="20" width="452" x="25" y=".139"/><rect fill="url(#g)" height="452" rx="20" width="452" x="25" y=".139"/><rect fill="url(#i)" height="452" rx="20" width="452" x="25" y=".139"/><rect fill="url(#j)" height="100" rx="50" width="100" x="201" y="176.139"/><rect fill="url(#k)" height="100" rx="50" width="100" x="201" y="176.139"/><path clip-rule="evenodd" d="m279.976 214.796v16.204h-50.374c2.199 9.832 10.927 17.176 21.36 17.176 8.624 0 16.084-5.02 19.653-12.315h9.361v13.611c0 3.222-2.595 5.833-5.796 5.833h-46.364c-3.201 0-5.795-2.611-5.795-5.833v-34.676zm-14.919 21.065c-3.074 4.523-8.24 7.491-14.095 7.491-5.856 0-11.022-2.968-14.096-7.491zm-26.455-17.176c-4.542 0-8.299 3.38-8.924 7.778h4.94a4.191 4.191 0 0 1 3.984-2.917 4.19 4.19 0 0 1 3.984 2.917h4.94c-.625-4.398-4.382-7.778-8.924-7.778zm24.792 0c-4.542 0-8.299 3.38-8.924 7.778h4.94a4.191 4.191 0 0 1 3.984-2.917 4.19 4.19 0 0 1 3.984 2.917h4.94c-.625-4.398-4.382-7.778-8.924-7.778zm10.786-21.713c3.201 0 5.796 2.612 5.796 5.833v7.13h-57.955v-7.13c0-3.221 2.594-5.833 5.795-5.833z" fill="#fff" fill-rule="evenodd"/></svg>