<svg xmlns="http://www.w3.org/2000/svg" fill="none" viewBox="0 0 498 527">
    <g filter="url(#FallbackImage_svg__a)">
        <mask id="FallbackImage_svg__b" width="350" height="376" x="74" y="77" maskUnits="userSpaceOnUse" style="mask-type:alpha">
            <rect width="348.336" height="375.39" x="74.751" y="77.11" fill="#fff" rx="23.645"/>
        </mask>
        <g mask="url(#FallbackImage_svg__b)">
            <g filter="url(#FallbackImage_svg__c)">
                <ellipse cx="162.818" cy="504.309" fill="#1C68F3" rx="123.492" ry="254.656"/>
            </g>
            <g filter="url(#FallbackImage_svg__d)">
                <ellipse cx="389.63" cy="223.623" fill="#1C68F3" rx="104.304" ry="215.088"/>
            </g>
            <g filter="url(#FallbackImage_svg__e)">
                <ellipse cx="329.114" cy="453.431" fill="#1C68F3" rx="123.492" ry="254.656"/>
            </g>
            <g filter="url(#FallbackImage_svg__f)">
                <ellipse cx="179.546" cy="-5.702" fill="#B0B8A1" rx="165.804" ry="341.909"/>
            </g>
        </g>
    </g>
    <rect width="452" height="452" x="25" y=".139" fill="#fff" rx="20"/>
    <rect width="452" height="452" x="25" y=".139" fill="url(#FallbackImage_svg__g)" rx="20"/>
    <rect width="452" height="452" x="25" y=".139" fill="url(#FallbackImage_svg__h)" rx="20"/>
    <rect width="100" height="100" x="201" y="176.139" fill="url(#FallbackImage_svg__i)" rx="50"/>
    <rect width="100" height="100" x="201" y="176.139" fill="url(#FallbackImage_svg__j)" rx="50"/>
    <path fill="#fff" fill-rule="evenodd" d="M279.976 214.796V231h-50.374c2.199 9.832 10.927 17.176 21.36 17.176 8.624 0 16.084-5.02 19.653-12.315h9.361v13.611c0 3.222-2.595 5.833-5.796 5.833h-46.364c-3.201 0-5.795-2.611-5.795-5.833v-34.676h57.955Zm-14.919 21.065c-3.074 4.523-8.24 7.491-14.095 7.491-5.856 0-11.022-2.968-14.096-7.491h28.191Zm-26.455-17.176c-4.542 0-8.299 3.38-8.924 7.778h4.94a4.191 4.191 0 0 1 3.984-2.917 4.19 4.19 0 0 1 3.984 2.917h4.94c-.625-4.398-4.382-7.778-8.924-7.778Zm24.792 0c-4.542 0-8.299 3.38-8.924 7.778h4.94a4.191 4.191 0 0 1 3.984-2.917 4.19 4.19 0 0 1 3.984 2.917h4.94c-.625-4.398-4.382-7.778-8.924-7.778Zm10.786-21.713c3.201 0 5.796 2.612 5.796 5.833v7.13h-57.955v-7.13c0-3.221 2.594-5.833 5.795-5.833h46.364Z" clip-rule="evenodd"/>
    <defs>
        <filter id="FallbackImage_svg__a" width="497.298" height="524.353" x=".269" y="2.629" color-interpolation-filters="sRGB" filterUnits="userSpaceOnUse">
            <feFlood flood-opacity="0" result="BackgroundImageFix"/>
            <feBlend in="SourceGraphic" in2="BackgroundImageFix" result="shape"/>
            <feGaussianBlur result="effect1_foregroundBlur_14560_369598" stdDeviation="37.241"/>
        </filter>
        <filter id="FallbackImage_svg__c" width="490.526" height="752.855" x="-82.445" y="127.882" color-interpolation-filters="sRGB" filterUnits="userSpaceOnUse">
            <feFlood flood-opacity="0" result="BackgroundImageFix"/>
            <feBlend in="SourceGraphic" in2="BackgroundImageFix" result="shape"/>
            <feGaussianBlur result="effect1_foregroundBlur_14560_369598" stdDeviation="60.886"/>
        </filter>
        <filter id="FallbackImage_svg__d" width="452.15" height="673.719" x="163.555" y="-113.236" color-interpolation-filters="sRGB" filterUnits="userSpaceOnUse">
            <feFlood flood-opacity="0" result="BackgroundImageFix"/>
            <feBlend in="SourceGraphic" in2="BackgroundImageFix" result="shape"/>
            <feGaussianBlur result="effect1_foregroundBlur_14560_369598" stdDeviation="60.886"/>
        </filter>
        <filter id="FallbackImage_svg__e" width="490.526" height="752.855" x="83.851" y="77.004" color-interpolation-filters="sRGB" filterUnits="userSpaceOnUse">
            <feFlood flood-opacity="0" result="BackgroundImageFix"/>
            <feBlend in="SourceGraphic" in2="BackgroundImageFix" result="shape"/>
            <feGaussianBlur result="effect1_foregroundBlur_14560_369598" stdDeviation="60.886"/>
        </filter>
        <filter id="FallbackImage_svg__f" width="575.15" height="927.36" x="-108.029" y="-469.382" color-interpolation-filters="sRGB" filterUnits="userSpaceOnUse">
            <feFlood flood-opacity="0" result="BackgroundImageFix"/>
            <feBlend in="SourceGraphic" in2="BackgroundImageFix" result="shape"/>
            <feGaussianBlur result="effect1_foregroundBlur_14560_369598" stdDeviation="60.886"/>
        </filter>
        <linearGradient id="FallbackImage_svg__g" x1="25" x2="477" y1="226.139" y2="226.139" gradientUnits="userSpaceOnUse">
            <stop offset=".01" stop-color="#6298EA" stop-opacity=".2"/>
            <stop offset=".01" stop-color="#6298EA" stop-opacity=".2"/>
            <stop offset="1" stop-color="#627EEA" stop-opacity=".2"/>
        </linearGradient>
        <linearGradient id="FallbackImage_svg__h" x1="251" x2="251" y1=".139" y2="452.139" gradientUnits="userSpaceOnUse">
            <stop stop-color="#fff" stop-opacity="0"/>
            <stop offset="1" stop-color="#fff" stop-opacity=".9"/>
        </linearGradient>
        <linearGradient id="FallbackImage_svg__i" x1="201" x2="301" y1="226.139" y2="226.139" gradientUnits="userSpaceOnUse">
            <stop offset=".01" stop-color="#6298EA" stop-opacity=".2"/>
            <stop offset=".01" stop-color="#6298EA" stop-opacity=".2"/>
            <stop offset="1" stop-color="#627EEA" stop-opacity=".2"/>
        </linearGradient>
        <linearGradient id="FallbackImage_svg__j" x1="251" x2="251" y1="176.139" y2="276.139" gradientUnits="userSpaceOnUse">
            <stop stop-color="#fff" stop-opacity="0"/>
            <stop offset="1" stop-color="#fff" stop-opacity=".9"/>
        </linearGradient>
    </defs>
</svg>
