<svg fill="none" height="28" viewBox="0 0 190 28" width="190" xmlns="http://www.w3.org/2000/svg"><path d="m28.2365 1.15862v26.26208h-6.5013v-13.1697l-5.8089 8.9987v.0386h-3.6161v-.0386l-5.84735-9.0759.03846 13.2469h-6.50131v-26.26208h4.80867l9.30953 14.01928 9.2711-14.01928zm24.1972 7.53103v18.73105h-6.232v-1.0428c-1.3849.8883-3.0776 1.429-5.1165 1.429-5.0394 0-9.2711-4.2097-9.2711-9.771 0-5.6 4.2317-9.77107 9.2711-9.77107 2.0389 0 3.7316.54069 5.1165 1.42896v-1.00414zm-10.1174 13.98065c1.3848 0 2.7313-.3862 3.8854-1.7379v-5.7931c-1.1541-1.3517-2.5006-1.7765-3.8854-1.7765-2.539 0-4.3855 2.0855-4.3855 4.6731 0 2.5875 1.8465 4.6344 4.3855 4.6344zm13.0795-1.6993 5.5396.0387c.2693 1.622 1.6157 2.3558 3.5777 2.3558 1.6541 0 2.6543-.5021 2.6543-1.3131 0-.6179-.577-1.12-1.808-1.3131l-3.77-.6565c-3.2314-.5407-5.4627-2.3559-5.4627-5.6387 0-3.9393 3.3469-6.25651 8.3094-6.25651 3.9624 0 8.4633 1.54482 8.7326 6.48831h-5.5396c-.1154-1.429-1.4234-2.0856-3.1545-2.0856-1.6157 0-2.3466.618-2.3466 1.3518 0 .6179.4616 1.1972 1.9234 1.4676l3.5007.5793c3.5007.6565 5.8089 2.3558 5.8089 5.6772 0 4.3255-3.8854 6.3338-8.7325 6.3338-4.8856 0-8.848-2.0469-9.2327-7.029zm30.16-.0386-2.6159 2.8193v3.669h-6.2321v-27.4207h6.2321v15.7186l6.5013-7.02895h7.4246l-7.0784 7.64685 7.6939 11.0842h-7.4631zm25.5052-12.59033c5.039 0 9.271 4.17103 9.271 9.73243 0 5.6-4.232 9.8096-9.271 9.8096-2.039 0-3.732-.5407-5.116-1.4289v.9655h-6.2325v-27.4207h6.2325v9.77103c1.384-.88827 3.077-1.42896 5.116-1.42896zm-1.231 14.40553c2.539 0 4.385-2.0469 4.385-4.6731 0-2.549-1.846-4.6345-4.385-4.6345-1.385 0-2.731.4248-3.885 1.7766v5.7931c1.154 1.3517 2.5 1.7379 3.885 1.7379zm23.158-14.48277c5.886 0 10.118 4.13237 10.118 9.77107 0 5.7158-4.232 9.9641-10.118 9.9641-5.885 0-10.117-4.2483-10.117-9.9641 0-5.6387 4.232-9.77107 10.117-9.77107zm.039 14.32827c2.5 0 4.193-2.0083 4.193-4.5186 0-2.4331-1.693-4.4028-4.193-4.4028-2.539 0-4.232 1.9697-4.232 4.4028 0 2.5103 1.693 4.5186 4.232 4.5186zm22.774-14.32827c5.886 0 10.117 4.13237 10.117 9.77107 0 5.7158-4.231 9.9641-10.117 9.9641s-10.118-4.2483-10.118-9.9641c0-5.6387 4.232-9.77107 10.118-9.77107zm.038 14.32827c2.501 0 4.193-2.0083 4.193-4.5186 0-2.4331-1.692-4.4028-4.193-4.4028-2.539 0-4.231 1.9697-4.231 4.4028 0 2.5103 1.692 4.5186 4.231 4.5186zm22.236-1.6607-2.616 2.8193v3.669h-6.232v-27.4207h6.232v15.7186l6.501-7.02895h7.425l-7.079 7.64685 7.694 11.0842h-7.463z" fill="#fff"/></svg>