<svg width="340" height="340" viewBox="0 0 340 340" fill="none" xmlns="http://www.w3.org/2000/svg">
<path fill-rule="evenodd" clip-rule="evenodd" d="M170 0C263.888 0 340 76.1116 340 170C340 263.888 263.888 340 170 340C76.1116 340 0 263.888 0 170C0 76.1116 76.1116 0 170 0ZM170 300.946C97.6805 300.946 39.0541 242.319 39.0541 170C39.0541 97.6805 97.6805 39.0541 170 39.0541C226.152 39.0541 274.048 74.3973 292.658 124.051L319.349 124.05C299.727 60.1995 240.284 13.7838 170 13.7838C83.7242 13.7838 13.7838 83.7242 13.7838 170C13.7838 256.276 83.7242 326.216 170 326.216C246.869 326.216 310.771 270.696 323.791 197.568L298.039 197.568C285.379 256.65 232.862 300.946 170 300.946ZM252.703 137.838H87.2973V236.162C87.2973 245.206 94.5554 252.554 103.564 252.7L103.838 252.703H236.162C245.206 252.703 252.554 245.445 252.7 236.436L252.703 236.162V197.568L225.987 197.568L225.678 198.187C215.375 218.537 194.265 232.486 169.895 232.486C140.419 232.486 115.71 212.077 109.128 184.619L108.934 183.784L252.703 183.784V137.838ZM210.123 197.568H129.668L129.933 197.952C138.735 210.561 153.352 218.809 169.895 218.809C186.439 218.809 201.056 210.561 209.858 197.952L210.123 197.568ZM322.901 137.836H296.966C299.565 148.126 300.946 158.902 300.946 170C300.946 174.656 300.703 179.255 300.229 183.786L325.616 183.786C326.013 179.244 326.216 174.646 326.216 170C326.216 158.974 325.074 148.216 322.901 137.836ZM134.622 148.865C147.454 148.865 158.093 158.259 160.035 170.546L160.091 170.919H145.991L145.936 170.75C144.335 166.039 139.874 162.649 134.622 162.649C129.369 162.649 124.908 166.039 123.308 170.75L123.252 170.919H109.152L109.209 170.546C111.151 158.259 121.789 148.865 134.622 148.865ZM205.378 148.865C218.211 148.865 228.849 158.259 230.791 170.546L230.848 170.919H216.748L216.692 170.75C215.092 166.039 210.631 162.649 205.378 162.649C200.126 162.649 195.665 166.039 194.064 170.75L194.009 170.919H179.909L179.965 170.546C181.907 158.259 192.546 148.865 205.378 148.865ZM236.162 87.2973H103.838C94.7941 87.2973 87.4456 94.5554 87.2995 103.564L87.2973 103.838V124.054H252.703V103.838C252.703 94.7941 245.445 87.4456 236.436 87.2995L236.162 87.2973Z" fill="#EDF3FE"/>
</svg>
