<svg height="21" viewBox="0 0 138 21" width="138" xmlns="http://www.w3.org/2000/svg"><path d="m18.902 25.67h1.82v18.33h-3.744v-10.14l-5.668 7.956-5.694-7.956v10.14h-3.718v-18.33h1.82l7.592 10.504zm15.912 4.212h3.614v14.118h-3.614v-1.04c-1.17.78-2.574 1.248-4.134 1.248-4.42 0-7.02-3.562-7.02-7.306 0-3.77 2.6-7.306 7.02-7.306 1.482 0 2.938.468 4.134 1.17zm0 9.88v-5.668c-.884-.754-2.132-1.222-3.484-1.222-2.574 0-4.186 1.924-4.186 4.03 0 2.132 1.638 4.056 4.186 4.056 1.378 0 2.6-.442 3.484-1.196zm6.084 3.094 1.352-2.678c1.742.754 3.068 1.144 4.836 1.144 1.664 0 2.314-.624 2.314-1.352 0-.806-.806-1.17-2.99-1.638-3.042-.676-5.252-1.664-5.252-4.394 0-2.548 2.106-4.316 5.382-4.316 2.21 0 3.978.52 5.512 1.144l-1.196 2.652c-1.378-.52-2.99-.91-4.394-.91-1.378 0-2.08.494-2.08 1.248 0 .78.858 1.144 3.12 1.612 3.276.676 5.174 1.82 5.174 4.394 0 2.678-2.054 4.446-5.668 4.446-2.444 0-4.03-.338-6.11-1.352zm23.062-7.462 5.226 8.606h-4.004l-3.614-5.772-2.73 2.626v3.146h-3.614v-19.604h3.614v11.544l6.032-6.058h4.238zm14.742-5.772c3.952 0 7.15 2.886 7.15 7.306 0 4.342-3.198 7.306-7.15 7.306-1.482 0-2.938-.416-4.108-1.118v.884h-3.614v-19.604h3.614v6.292c1.196-.65 2.6-1.066 4.108-1.066zm-.65 11.336c2.444 0 4.238-1.638 4.238-4.03 0-2.314-1.794-4.056-4.238-4.056-1.378 0-2.574.468-3.458 1.196v5.668c.884.754 2.106 1.222 3.458 1.222zm17.42-11.336c4.264 0 7.722 3.25 7.722 7.306 0 4.03-3.458 7.28-7.722 7.28s-7.722-3.25-7.722-7.28c0-4.056 3.458-7.306 7.722-7.306zm0 11.336c2.314 0 4.16-1.82 4.16-4.03 0-2.236-1.846-4.056-4.16-4.056-2.288 0-4.16 1.82-4.16 4.056 0 2.21 1.872 4.03 4.16 4.03zm17.316-11.336c4.264 0 7.722 3.25 7.722 7.306 0 4.03-3.458 7.28-7.722 7.28s-7.722-3.25-7.722-7.28c0-4.056 3.458-7.306 7.722-7.306zm0 11.336c2.314 0 4.16-1.82 4.16-4.03 0-2.236-1.846-4.056-4.16-4.056-2.288 0-4.16 1.82-4.16 4.056 0 2.21 1.872 4.03 4.16 4.03zm19.058-5.564 5.226 8.606h-4.004l-3.614-5.772-2.73 2.626v3.146h-3.614v-19.604h3.614v11.544l6.032-6.058h4.238z" transform="translate(0 -24)"/></svg>