<svg xmlns="http://www.w3.org/2000/svg" fill="none" viewBox="0 0 218 50"><defs/><path fill="#1c68f3" d="M84.31 14.63v21.54h-5.35v-10.8l-4.78 7.38v.03H71.2v-.03l-4.81-7.45.03 10.87h-5.35V14.63h3.96l7.66 11.5 7.63-11.5zm19.92 6.18v15.36H99.1v-.86a7.67 7.67 0 01-4.21 1.17c-4.15 0-7.63-3.45-7.63-8 0-4.6 3.48-8.02 7.63-8.02 1.68 0 3.07.44 4.2 1.17v-.82zM95.9 32.27c1.14 0 2.25-.32 3.2-1.42V26.1a3.98 3.98 0 00-3.2-1.46c-2.09 0-3.61 1.71-3.61 3.83s1.52 3.8 3.61 3.8zm10.77-1.4l4.56.04c.22 1.33 1.33 1.93 2.94 1.93 1.36 0 2.19-.41 2.19-1.08 0-.5-.48-.91-1.5-1.07l-3.1-.54c-2.66-.44-4.5-1.93-4.5-4.62 0-3.23 2.76-5.13 6.85-5.13 3.26 0 6.97 1.26 7.19 5.32h-4.56c-.1-1.17-1.18-1.71-2.6-1.71-1.33 0-1.93.5-1.93 1.1 0 .51.38.99 1.58 1.2l2.88.48c2.89.54 4.79 1.93 4.79 4.66 0 3.55-3.2 5.2-7.2 5.2-4.02 0-7.28-1.69-7.6-5.77zm24.82-.02l-2.15 2.3v3.02h-5.13V13.68h5.13v12.9l5.35-5.77h6.11l-5.82 6.27 6.33 9.09h-6.14zm21-10.33c4.15 0 7.63 3.42 7.63 7.98 0 4.6-3.48 8.05-7.63 8.05a7.67 7.67 0 01-4.21-1.18v.8h-5.13V13.68h5.13v8.01a7.67 7.67 0 014.2-1.17zm-1.02 11.81c2.1 0 3.61-1.67 3.61-3.83 0-2.09-1.52-3.8-3.6-3.8-1.14 0-2.25.35-3.2 1.46v4.75a3.94 3.94 0 003.2 1.42zm19.07-11.87c4.84 0 8.33 3.39 8.33 8.01 0 4.69-3.49 8.17-8.33 8.17s-8.33-3.48-8.33-8.17c0-4.62 3.48-8.01 8.33-8.01zm.03 11.75c2.06 0 3.45-1.65 3.45-3.7 0-2-1.4-3.62-3.45-3.62-2.09 0-3.48 1.62-3.48 3.61 0 2.06 1.39 3.7 3.48 3.7zm18.75-11.75c4.84 0 8.33 3.39 8.33 8.01 0 4.69-3.49 8.17-8.33 8.17s-8.33-3.48-8.33-8.17c0-4.62 3.48-8.01 8.33-8.01zm.03 11.75c2.06 0 3.45-1.65 3.45-3.7 0-2-1.4-3.62-3.45-3.62-2.1 0-3.48 1.62-3.48 3.61 0 2.06 1.39 3.7 3.48 3.7zm18.3-1.36l-2.15 2.3v3.02h-5.13V13.68h5.13v12.9l5.35-5.77h6.11l-5.82 6.27 6.33 9.09h-6.14zM25 50a25 25 0 100-50 25 25 0 000 50z"/><path fill="#fff" fill-rule="evenodd" d="M40 19.17v8.33H13.92A11.34 11.34 0 0035.15 30H40v7a3 3 0 01-3 3H13a3 3 0 01-3-3V19.17zM32.28 30a8.82 8.82 0 01-14.6 0zm-13.7-8.83a4.67 4.67 0 00-4.62 4h2.56a2.17 2.17 0 014.13 0h2.55a4.67 4.67 0 00-4.62-4zm12.84 0a4.67 4.67 0 00-4.62 4h2.55a2.17 2.17 0 014.13 0h2.56a4.67 4.67 0 00-4.62-4zM37 10a3 3 0 013 3v3.67H10V13a3 3 0 013-3z" clip-rule="evenodd"/></svg>
