<svg xmlns="http://www.w3.org/2000/svg" fill="none" viewBox="0 0 218 50"><defs/><path fill="#8796AF" d="M84.31 5.95v21.53h-5.35v-10.8l-4.78 7.38v.04H71.2v-.04l-4.81-7.44.03 10.86h-5.35V5.95h3.96l7.66 11.5 7.63-11.5h3.99zm19.92 6.17v15.36H99.1v-.85a7.67 7.67 0 01-4.21 1.17c-4.15 0-7.64-3.45-7.64-8.01 0-4.6 3.49-8.01 7.64-8.01 1.67 0 3.07.44 4.2 1.17v-.82h5.14zM95.9 23.6c1.14 0 2.25-.32 3.2-1.43v-4.75a3.98 3.98 0 00-3.2-1.45c-2.09 0-3.61 1.7-3.61 3.83 0 2.12 1.52 3.8 3.61 3.8zm10.77-1.4l4.56.04c.22 1.33 1.33 1.93 2.94 1.93 1.36 0 2.19-.41 2.19-1.08 0-.5-.48-.92-1.5-1.07l-3.1-.54c-2.66-.45-4.5-1.93-4.5-4.63 0-3.23 2.76-5.13 6.85-5.13 3.26 0 6.97 1.27 7.19 5.32h-4.56c-.1-1.17-1.17-1.7-2.6-1.7-1.33 0-1.93.5-1.93 1.1 0 .5.38.98 1.58 1.2l2.88.48c2.89.54 4.78 1.93 4.78 4.66 0 3.54-3.2 5.19-7.18 5.19-4.02 0-7.29-1.68-7.6-5.77zm24.82-.03l-2.15 2.32v3h-5.13V5h5.13v12.89l5.35-5.77h6.11l-5.82 6.28 6.33 9.08h-6.14l-3.68-5.32zm21-10.32c4.15 0 7.63 3.42 7.63 7.98 0 4.6-3.48 8.04-7.63 8.04a7.67 7.67 0 01-4.21-1.17v.8h-5.13V5h5.13v8.01a7.66 7.66 0 014.2-1.17zm-1.02 11.81c2.1 0 3.62-1.68 3.62-3.83 0-2.09-1.53-3.8-3.62-3.8-1.13 0-2.24.35-3.2 1.46v4.75a3.94 3.94 0 003.2 1.42zm19.07-11.87c4.84 0 8.33 3.38 8.33 8 0 4.7-3.49 8.18-8.33 8.18-4.85 0-8.33-3.48-8.33-8.17 0-4.63 3.48-8.01 8.33-8.01zm.03 11.74c2.06 0 3.45-1.64 3.45-3.7 0-2-1.4-3.61-3.45-3.61-2.09 0-3.48 1.61-3.48 3.61 0 2.06 1.39 3.7 3.48 3.7zm18.75-11.74c4.84 0 8.33 3.38 8.33 8 0 4.7-3.49 8.18-8.33 8.18-4.85 0-8.33-3.48-8.33-8.17 0-4.63 3.48-8.01 8.33-8.01zm.03 11.74c2.06 0 3.45-1.64 3.45-3.7 0-2-1.4-3.61-3.45-3.61-2.1 0-3.48 1.61-3.48 3.61 0 2.06 1.39 3.7 3.48 3.7zm18.3-1.36l-2.15 2.32v3h-5.13V5h5.13v12.89l5.35-5.77h6.11l-5.83 6.28 6.34 9.08h-6.15l-3.67-5.32zM69.27 36.12v6.13l-5.25-6.13h-2.06V47h2.7v-5.97L69.88 47h2.08V36.12h-2.69zM73.88 36.12V47h2.7V36.12h-2.7zM83.79 40.89v2.13l3.12.03a3 3 0 01-2.77 1.7 3.05 3.05 0 01-3.15-3.14c0-1.92 1.26-3.25 3.13-3.25.98 0 2.07.37 2.53 1.63h2.85c-.47-2.59-2.77-4.08-5.44-4.08a5.6 5.6 0 00-5.8 5.76c0 3.12 2.37 5.54 5.78 5.54 1.52 0 2.66-.58 3.44-1.54L87.6 47h2.02v-6.11H83.8zM98.88 36.12v4.37h-4.43v-4.37h-2.7V47h2.7v-4.08h4.43V47h2.69V36.12h-2.7zM112.42 36.12h-9.63v2.42h3.47V47h2.69v-8.46h3.47v-2.42zM116.35 44.58v-8.46h-2.7V47h8.08v-2.42h-5.38zM128.23 36.12l-2.67 4.74-2.66-4.74h-3l4.31 7.6V47h2.72v-3.28l4.3-7.6h-3zM25 50a25 25 0 100-50 25 25 0 000 50z"/><path fill="#fff" fill-rule="evenodd" d="M40 19.17v8.33H13.92A11.34 11.34 0 0035.15 30H40v7a3 3 0 01-3 3H13a3 3 0 01-3-3V19.17h30zM32.28 30a8.82 8.82 0 01-14.6 0h14.6zm-13.7-8.83a4.67 4.67 0 00-4.62 4h2.56a2.17 2.17 0 014.13 0h2.55a4.67 4.67 0 00-4.62-4zm12.84 0a4.67 4.67 0 00-4.62 4h2.55a2.17 2.17 0 014.13 0h2.56a4.67 4.67 0 00-4.62-4zM37 10a3 3 0 013 3v3.67H10V13a3 3 0 013-3h24z" clip-rule="evenodd"/></svg>
