<svg xmlns="http://www.w3.org/2000/svg" fill="none" viewBox="0 0 161 50"><path fill="#1C68F3" d="M25 47.73a22.73 22.73 0 100-45.46 22.73 22.73 0 000 45.46z"/><path fill="#fff" fillRule="evenodd" d="M38.64 19.7v7.57H14.93a10.3 10.3 0 0019.3 2.28h4.4v6.36c0 1.5-1.21 2.73-2.72 2.73H14.09a2.73 2.73 0 01-2.73-2.73V19.7h27.28zm-7.02 9.85a8.02 8.02 0 01-13.27 0h13.27zm-12.45-8.03a4.24 4.24 0 00-4.2 3.63h2.32a1.97 1.97 0 013.75 0h2.33a4.24 4.24 0 00-4.2-3.63zm11.66 0a4.24 4.24 0 00-4.2 3.63h2.33a1.97 1.97 0 013.75 0h2.32a4.24 4.24 0 00-4.2-3.63zm5.08-10.16c1.5 0 2.73 1.22 2.73 2.73v3.33H11.36V14.1c0-1.5 1.22-2.73 2.73-2.73h21.82z" clip-rule="evenodd"/><path fill="#1C68F3" d="M124.11 18.71c4.13 0 8.82 1.6 9.1 6.75h-5.77c-.12-1.49-1.48-2.17-3.29-2.17-1.68 0-2.44.64-2.44 1.4 0 .65.48 1.25 2 1.53l3.65.6c3.64.69 6.05 2.46 6.05 5.91 0 4.5-4.05 6.59-9.1 6.59-5.09 0-9.21-2.13-9.61-7.31l5.77.04c.28 1.68 1.68 2.45 3.72 2.45 1.73 0 2.77-.52 2.77-1.37 0-.64-.6-1.16-1.88-1.36l-3.93-.69c-3.37-.56-5.7-2.45-5.7-5.86 0-4.1 3.5-6.5 8.66-6.5zm-24.32.08c2.12 0 3.88.56 5.32 1.48v-1.04h6.48v19.46h-6.48v-1.08a9.66 9.66 0 01-5.32 1.48c-5.24 0-9.64-4.37-9.64-10.15 0-5.82 4.4-10.15 9.64-10.15zm-37.95-7.43l9.71 14.6 9.68-14.6h5.06v27.35H79.5V25l-6.06 9.37v.04h-3.77v-.04l-6.1-9.45.03 13.8h-6.78V11.35h5.02zm81.63-1.13v16.33l6.78-7.3H158l-7.38 7.94 8.03 11.51h-7.79l-4.65-6.74-2.73 2.93v3.81h-6.5V10.23h6.5zm-42.4 13.85c-2.64 0-4.56 2.17-4.56 4.86 0 2.69 1.92 4.81 4.56 4.81 1.44 0 2.84-.4 4.04-1.8v-6.02a5.02 5.02 0 00-4.04-1.85z"/></svg>
