<svg version="1.1" id="Layer_1" xmlns="http://www.w3.org/2000/svg" x="0" y="0" viewBox="0 0 53 60.58" xml:space="preserve"><style>.st0{fill:none;stroke:#000;stroke-width:3;stroke-miterlimit:10}</style><circle class="st0" cx="26.53" cy="30.29" r="12.86"></circle><path class="st0" d="M14.57 25.56s5.6-15.36 9.27-21.82c0 0 2.46-5.09 5.02.08 2.22 4.47 2.15 4.52 9.62 21.72"></path><path class="st0" d="M24.56 17.58s16.08-2.95 23.51-3.06c0 0 5.63-.46 2.47 4.37-2.74 4.18-2.81 4.14-13.85 19.3"></path><path class="st0" d="M37.48 23.39s9.22 13.5 12.34 20.24c0 0 2.7 4.96-2.99 4.03-4.93-.81-4.93-.88-23.26-4.83M28.44 17.58s-16.08-2.95-23.51-3.06c0 0-5.63-.46-2.47 4.37 2.74 4.18 2.81 4.14 13.85 19.3"></path><path class="st0" d="M15.52 23.39S6.3 36.89 3.18 43.63c0 0-2.7 4.96 2.99 4.03 4.93-.81 4.93-.88 23.26-4.83"></path><path class="st0" d="M38.48 35.02s-5.6 15.36-9.27 21.82c0 0-2.46 5.09-5.02-.08-2.22-4.47-2.15-4.52-9.62-21.72"></path></svg>
