<svg xmlns="http://www.w3.org/2000/svg" fill="none" viewBox="0 0 32 31">
    <rect width="30.238" height="30" x=".881" y=".967" fill="url(#mask_light_svg__a)" rx="15"/>
    <rect width="30.238" height="30" x=".881" y=".967" fill="url(#mask_light_svg__b)" rx="15"/>
    <path fill="#fff" fill-rule="evenodd" d="M24.762 12.564v4.861H9.53a6.62 6.62 0 0 0 6.459 5.153 6.621 6.621 0 0 0 5.942-3.694h2.83v4.083c0 .966-.784 1.75-1.752 1.75H8.99a1.751 1.751 0 0 1-1.752-1.75V12.564h17.525Zm-4.511 6.32a5.157 5.157 0 0 1-4.263 2.247c-1.77 0-3.332-.89-4.262-2.247h8.525Zm-8-5.153a2.725 2.725 0 0 0-2.698 2.333h1.494a1.266 1.266 0 0 1 2.409 0h1.494a2.725 2.725 0 0 0-2.699-2.333Zm7.497 0a2.725 2.725 0 0 0-2.699 2.333h1.494a1.266 1.266 0 0 1 2.41 0h1.493a2.725 2.725 0 0 0-2.698-2.333Zm3.261-6.514c.968 0 1.753.783 1.753 1.75v2.139H7.237v-2.14c0-.966.785-1.75 1.753-1.75h14.02Z" clip-rule="evenodd"/>
    <defs>
        <linearGradient id="mask_light_svg__a" x1=".881" x2="31.119" y1="15.967" y2="15.967" gradientUnits="userSpaceOnUse">
            <stop offset=".01" stop-color="#6298EA" stop-opacity=".2"/>
            <stop offset=".01" stop-color="#6298EA" stop-opacity=".2"/>
            <stop offset="1" stop-color="#627EEA" stop-opacity=".2"/>
        </linearGradient>
        <linearGradient id="mask_light_svg__b" x1="16" x2="16" y1=".967" y2="30.967" gradientUnits="userSpaceOnUse">
            <stop stop-color="#fff" stop-opacity="0"/>
            <stop offset="1" stop-color="#fff" stop-opacity=".9"/>
        </linearGradient>
    </defs>
</svg>
