<svg xmlns="http://www.w3.org/2000/svg" fill="none" viewBox="0 0 32 31">
    <rect width="30.238" height="30" x=".881" y=".234" fill="#6F6F6F" rx="15"/>
    <path fill="#1C1C1C" fill-rule="evenodd" d="M24.762 11.832v4.86H9.53a6.62 6.62 0 0 0 6.459 5.154 6.622 6.622 0 0 0 5.942-3.695h2.83v4.083a1.75 1.75 0 0 1-1.752 1.75H8.99a1.751 1.751 0 0 1-1.752-1.75V11.832h17.525Zm-4.511 6.32a5.157 5.157 0 0 1-4.263 2.246c-1.77 0-3.332-.89-4.262-2.247h8.525Zm-8-5.154a2.725 2.725 0 0 0-2.698 2.334h1.494a1.266 1.266 0 0 1 2.409 0h1.494a2.725 2.725 0 0 0-2.699-2.334Zm7.497 0a2.725 2.725 0 0 0-2.699 2.334h1.494a1.266 1.266 0 0 1 2.41 0h1.493a2.725 2.725 0 0 0-2.698-2.334Zm3.261-6.514c.968 0 1.753.784 1.753 1.75v2.14H7.237v-2.14c0-.966.785-1.75 1.753-1.75h14.02Z" clip-rule="evenodd"/>
</svg>
