<svg xmlns="http://www.w3.org/2000/svg" fill="none" viewBox="0 0 96 96">
    <circle cx="48" cy="48" r="48" fill="#000"/>
    <path fill="#000" d="M30.434 34.91c9.701-9.646 25.43-9.646 35.132 0l8.38 8.333-8.38 8.333c-9.702 9.646-25.43 9.646-35.132 0l-8.38-8.333 8.38-8.332Z"/>
    <path fill="#0CE466" fill-rule="evenodd" d="m16 43.257 19.027-19.04h25.946L80 43.257 48 75.244 16 43.257Zm46.703-6.932c-8.085-8.12-21.321-8.12-29.406 0l-6.919 6.919 6.92 6.919c8.084 8.12 21.32 8.12 29.405 0l6.918-6.92-6.918-6.919Z" clip-rule="evenodd"/>
    <path fill="#000" d="M48 49.297a6.054 6.054 0 1 1 0-12.107 6.054 6.054 0 0 1 0 12.108Z"/>
    <path fill="#fff" fill-rule="evenodd" d="M38.054 43.243c0 5.495 4.455 9.946 9.946 9.946 5.49 0 9.946-4.451 9.946-9.946S53.49 33.297 48 33.297c-5.49 0-9.946 4.45-9.946 9.946Zm5.622 0a4.324 4.324 0 1 0 8.648 0 4.324 4.324 0 0 0-8.648 0Z" clip-rule="evenodd"/>
</svg>
