<svg xmlns="http://www.w3.org/2000/svg" viewBox="6 0 36 36">
    <g filter="url(#Approval_svg__a)">
        <path fill="#F7931E" d="M23.557 36.633a3.063 3.063 0 0 0 2.065 0c4.558-1.625 6.205-2.953 6.205-2.953 4.737-3.36 4.78-7.771 4.78-7.771V11.986c0-.683-.535-1.27-1.191-1.294-3.362-.124-8.317-2.693-10.131-3.698a1.433 1.433 0 0 0-1.393 0c-1.814 1.002-6.766 3.574-10.131 3.698-.657.025-1.19.611-1.19 1.294v13.923s.041 4.411 4.778 7.77c.003 0 1.65 1.329 6.208 2.954Z"/>
        <path fill="#FBB03B" d="M23.728 34.11a2.57 2.57 0 0 0 1.725 0c3.806-1.355 5.182-2.466 5.182-2.466 3.955-2.804 3.991-6.49 3.991-6.49V13.682c0-.57-.447-1.058-.993-1.08-2.808-.102-6.945-2.249-8.458-3.086a1.198 1.198 0 0 0-1.163 0c-1.513.837-5.65 2.984-8.457 3.086-.546.019-.994.51-.994 1.08v11.472s.036 3.686 3.992 6.49c-.006 0 1.369 1.11 5.175 2.467Z"/>
        <path fill="#fff" fill-rule="evenodd" d="M25.975 22.256a3.162 3.162 0 1 0-2.946.002v4.452a1.473 1.473 0 1 0 2.946 0v-4.454Z" clip-rule="evenodd"/>
    </g>
    <defs>
        <filter id="Approval_svg__a" width="68" height="70" x="-9.5" y="-12" color-interpolation-filters="sRGB">
            <feFlood flood-opacity="0" result="BackgroundImageFix"/>
            <feComposite in2="SourceAlpha" operator="in" result="effect1_backgroundBlur_1560_130509"/>
            <feOffset dy="6"/>
            <feComposite in2="hardAlpha" operator="out"/>
            <feColorMatrix values="0 0 0 0 0.968627 0 0 0 0 0.576471 0 0 0 0 0.117647 0 0 0 0.2 0"/>
            <feBlend in2="effect1_backgroundBlur_1560_130509" result="effect2_dropShadow_1560_130509"/>
            <feBlend in="SourceGraphic" in2="effect2_dropShadow_1560_130509" result="shape"/>
        </filter>
    </defs>
</svg>
