<svg xmlns="http://www.w3.org/2000/svg" fill="none" viewBox="0 0 24 24">
    <path fill="#f7931e" d="M11.372 21.756c.446.159.93.159 1.376 0 3.039-1.084 4.137-1.97 4.137-1.97 3.158-2.24 3.186-5.18 3.186-5.18V5.324c0-.455-.356-.846-.794-.863-2.241-.082-5.545-1.795-6.754-2.465a.96.96 0 0 0-.929 0c-1.209.668-4.51 2.383-6.754 2.465-.437.017-.793.408-.793.863v9.282s.028 2.94 3.186 5.18c.002 0 1.1.886 4.139 1.97"/>
    <path fill="#fbb03b" d="M11.486 20.074a1.72 1.72 0 0 0 1.15 0c2.537-.904 3.454-1.644 3.454-1.644 2.637-1.87 2.66-4.327 2.66-4.327V6.455c0-.38-.298-.706-.662-.72-1.871-.068-4.63-1.5-5.638-2.058a.8.8 0 0 0-.775 0c-1.009.558-3.767 1.99-5.639 2.058-.364.012-.662.34-.662.72v7.648s.024 2.457 2.661 4.327c-.004 0 .913.74 3.45 1.644z"/>
    <path fill="#fff" fill-rule="evenodd" d="M12.983 12.171a2.108 2.108 0 1 0-1.963 0v2.969a.982.982 0 1 0 1.963 0v-2.97z" clip-rule="evenodd"/>
</svg>
