<svg xmlns="http://www.w3.org/2000/svg" fill="none" viewBox="0 0 20 20">
    <path fill="currentColor" d="M7.413 2.721c1.191-.96 2.814-1.23 4.293-.95 1.346.322 2.551 1.228 3.204 2.453.453.805.593 1.738.599 2.65l-.001 7.089c-.04.308.204.528.359.764.735 1.054 1.078 2.332 1.139 3.605q-.663.002-1.326 0c-.067-.822-.212-1.644-.597-2.382-1.206-.006-2.41.02-3.617.008-.007-.895-.003-1.79-.005-2.686-1.028-.24-2.115-.061-3.081.338-1.846.778-3.096 2.727-3.089 4.723H4c-.061-1.578.593-3.132 1.626-4.307.145-.137.093-.352.108-.53-.013-1.811.008-3.624-.01-5.436-.045-.902-.017-1.806.024-2.708.108-1.08.77-2.041 1.666-2.63Zm4.23.365c.148.42.554.684.715 1.102.504.938.361 2.023.378 3.044.008 2.481.006 4.962.007 7.443.495.001.99.004 1.486-.006q-.005-3.898 0-7.796c-.006-.627-.069-1.273-.349-1.845-.414-.933-1.265-1.646-2.238-1.942Zm-3.712.848c-.653.427-.977 1.227-.952 1.99 1.498.015 2.994.005 4.492.006.053-.995-.59-2.006-1.576-2.261-.656-.233-1.369-.046-1.964.265m-.913 3.268c-.007.533.012 1.093.293 1.564.418.793 1.285 1.28 2.172 1.306v1.27a4 4 0 0 1-2.493-.973c.013.825 0 1.651.01 2.478a6.5 6.5 0 0 1 4.465-.941c-.008-1.568-.001-3.136-.005-4.704z"/>
</svg>
