<svg fill="none" viewBox="0 0 24 24" xmlns="http://www.w3.org/2000/svg"><circle cx="12" cy="12" fill="#fff" r="12"/><path d="m11.442 15.811c3.248 0 5.905-2.658 5.905-5.905 0-1.359-.413-2.54-1.18-3.544a2.993 2.993 0 0 0 1.179-2.362h-5.905c-3.247 0-5.905 2.657-5.905 5.906 0 3.247 2.658 5.905 5.906 5.905zm0-9.094a3.176 3.176 0 0 1 3.189 3.189 3.176 3.176 0 0 1 -3.19 3.188 3.176 3.176 0 0 1 -3.188-3.188 3.176 3.176 0 0 1 3.189-3.19z" fill="#00df9b"/><path d="m19 17.405c-.354-.885-1.063-1.535-2.008-1.83-1.535 1.476-3.543 2.244-5.492 2.244-2.008 0-3.957-.768-5.492-2.244-.945.295-1.654.945-2.008 1.83a10.371 10.371 0 0 0 7.44 3.13c2.718 0 5.434-1.063 7.56-3.13z" fill="#2471fe"/></svg>