<svg xmlns="http://www.w3.org/2000/svg" fill="none" viewBox="0 0 24 24">
    <circle cx="12" cy="12" r="12" fill="#fff"/>
    <path fill="#00df9b" d="M11.442 15.811c3.248 0 5.905-2.658 5.905-5.905 0-1.359-.413-2.54-1.18-3.544A3 3 0 0 0 17.346 4h-5.905C8.194 4 5.536 6.657 5.536 9.906c0 3.247 2.658 5.905 5.906 5.905m0-9.094a3.176 3.176 0 0 1 3.189 3.189 3.176 3.176 0 0 1-3.19 3.188 3.176 3.176 0 0 1-3.188-3.188 3.176 3.176 0 0 1 3.189-3.19z"/>
    <path fill="#2471fe" d="M19 17.405c-.354-.885-1.063-1.535-2.008-1.83-1.535 1.476-3.543 2.244-5.492 2.244-2.008 0-3.957-.768-5.492-2.244-.945.295-1.654.945-2.008 1.83a10.37 10.37 0 0 0 7.44 3.13c2.718 0 5.434-1.063 7.56-3.13"/>
</svg>
