<svg xmlns="http://www.w3.org/2000/svg" fill="none" viewBox="0 0 28 29">
    <path fill="url(#Calendar_svg__paint0_linear_29434_17553)" d="M28 14.067c0 7.732-6.268 14-14 14s-14-6.268-14-14 6.268-14 14-14 14 6.268 14 14"/>
    <path fill="#fff" d="M12.21 7.68h3.557v1.057H12.21zm4.964 2.836c.382 0 .72-.315.72-.71V6.61a.723.723 0 0 0-.72-.71.697.697 0 0 0-.698.71v3.197a.69.69 0 0 0 .698.709m-6.394 0c.383 0 .72-.315.72-.71V6.61a.723.723 0 0 0-.72-.71.697.697 0 0 0-.698.71v3.197c0 .394.315.709.698.709"/>
    <path fill="#fff" d="M19.932 7.68h-1.328v1.057h1.373a.75.75 0 0 1 .743.743v2.465H7.246V9.48a.75.75 0 0 1 .743-.743h1.384V7.68H8.056A1.87 1.87 0 0 0 6.2 9.548v10.817c0 1.025.81 1.869 1.835 1.869h11.91a1.87 1.87 0 0 0 1.857-1.869V9.548a1.88 1.88 0 0 0-1.869-1.869ZM10.05 20.106a1.069 1.069 0 1 1 0-2.14 1.069 1.069 0 0 1 0 2.14m.022-3.918a1.069 1.069 0 1 1 0-2.14 1.069 1.069 0 0 1 0 2.14m3.906 3.918a1.069 1.069 0 1 1 0-2.14 1.069 1.069 0 0 1 0 2.14m0-3.918a1.069 1.069 0 1 1 0-2.14 1.069 1.069 0 0 1 0 2.14m3.906 0a1.069 1.069 0 1 1 1.07-1.07 1.076 1.076 0 0 1-1.07 1.07"/>
    <defs>
        <linearGradient id="Calendar_svg__paint0_linear_29434_17553" x1="14" x2="14" y1=".067" y2="28.067" gradientUnits="userSpaceOnUse">
            <stop stop-color="#00B550"/>
            <stop offset="1" stop-color="#37DD80"/>
        </linearGradient>
    </defs>
</svg>
