<svg xmlns="http://www.w3.org/2000/svg" viewBox="0 0 37 36">
    <linearGradient id="Collectibles_svg__a" x1="21.075" x2="21.075" y1="1.5" y2="34.5">
        <stop offset="0" stop-color="#ff8d5c"/>
        <stop offset=".99" stop-color="#ffc49a"/>
    </linearGradient>
    <path fill="url(#Collectibles_svg__a)" d="M4.833 3.5a2 2 0 0 1 2-2h23a2 2 0 0 1 2 2v29a2 2 0 0 1-2 2h-23a2 2 0 0 1-2-2z"/>
    <path fill="#fff" d="M13.627 6.907c1.816-1.463 4.29-1.875 6.543-1.447 2.052.49 3.888 1.87 4.884 3.737.689 1.228.903 2.65.912 4.04l-.002 10.803c-.059.47.312.804.548 1.164 1.12 1.606 1.643 3.554 1.735 5.494q-1.01.005-2.02 0c-.102-1.253-.324-2.506-.91-3.63-1.838-.01-3.674.03-5.512.012-.011-1.364-.006-2.729-.007-4.093-1.568-.367-3.224-.094-4.696.515-2.814 1.186-4.718 4.156-4.707 7.198h-1.97c-.093-2.405.904-4.774 2.477-6.565.222-.209.142-.536.166-.806-.02-2.761.012-5.524-.016-8.286-.069-1.375-.026-2.752.037-4.127.164-1.645 1.174-3.11 2.538-4.009m6.446.557c.227.639.846 1.042 1.09 1.679.77 1.43.552 3.083.577 4.639.012 3.781.009 7.561.01 11.343.755.002 1.51.006 2.265-.009q-.007-5.941 0-11.882c-.009-.955-.104-1.94-.531-2.811-.632-1.422-1.928-2.51-3.411-2.96zm-5.655 1.292c-.996.65-1.49 1.87-1.451 3.033 2.282.022 4.563.007 6.845.009.081-1.517-.9-3.058-2.401-3.447-1-.355-2.086-.07-2.994.405zm-1.392 4.98c-.01.812.018 1.666.447 2.384.637 1.208 1.958 1.95 3.31 1.99q.003.967 0 1.936c-1.399-.031-2.742-.576-3.8-1.484.02 1.259 0 2.517.014 3.777 1.993-1.275 4.468-1.81 6.806-1.435-.013-2.388-.002-4.779-.007-7.167q-3.384-.003-6.77 0z"/>
</svg>
