<svg xmlns="http://www.w3.org/2000/svg" viewBox="0 0 16 17">
    <g fill="currentColor" fill-rule="evenodd" clip-rule="evenodd">
        <path d="M4.15 7.366a.6.6 0 0 1 .6-.6h4.5a.6.6 0 0 1 0 1.2h-4.5a.6.6 0 0 1-.6-.6Zm-.382-5.635A2.166 2.166 0 0 0 1.6 3.9v3.465a.6.6 0 0 1-1.2 0V3.899A3.366 3.366 0 0 1 3.768.53h4.215c.886 0 1.723.276 2.348.812.634.544 1.02 1.33 1.02 2.27a.6.6 0 1 1-1.2 0c0-.59-.234-1.044-.601-1.359-.376-.322-.923-.523-1.567-.523H3.768Z"/>
        <path d="M4 4.216a2.4 2.4 0 0 0-2.4 2.4v5.25a2.4 2.4 0 0 0 2.4 2.4h7.5a2.4 2.4 0 0 0 2.4-2.4v-.488h-.097c-.94 0-1.907-.579-2.177-1.584V9.79a2.11 2.11 0 0 1 .562-2.064c.39-.397.925-.624 1.502-.624h.21v-.487c0-1.319-1.081-2.4-2.4-2.4H4Zm-3.6 2.4a3.6 3.6 0 0 1 3.6-3.6h7.5c1.982 0 3.6 1.618 3.6 3.6v1.087a.6.6 0 0 1-.6.6h-.81a.895.895 0 0 0-.664.283.91.91 0 0 0-.24.898c.105.389.518.694 1.017.694h.697a.6.6 0 0 1 .6.6v1.088a3.6 3.6 0 0 1-3.6 3.6H4a3.6 3.6 0 0 1-3.6-3.6v-5.25Z"/>
        <path d="M13.69 8.302c-.259 0-.486.1-.65.268l-.01.01a.906.906 0 0 0-.272.737v.007c.038.454.477.853 1.023.853h1.447c.1 0 .173-.08.173-.165V8.467a.17.17 0 0 0-.173-.165h-1.537Zm-1.504-.574a2.09 2.09 0 0 1 1.505-.626h1.537c.755 0 1.373.61 1.373 1.365v1.545a1.37 1.37 0 0 1-1.373 1.365h-1.447c-1.074 0-2.12-.786-2.218-1.95a2.106 2.106 0 0 1 .623-1.7Z"/>
    </g>
</svg>
