<svg xmlns="http://www.w3.org/2000/svg" viewBox="0 0 17 16">
    <g fill="currentColor" fill-rule="evenodd" clip-rule="evenodd">
        <path d="M4.15 7.362a.6.6 0 0 1 .6-.6h4.5a.6.6 0 0 1 0 1.2h-4.5a.6.6 0 0 1-.6-.6ZM3.768 1.73A2.166 2.166 0 0 0 1.6 3.896v3.465a.6.6 0 1 1-1.2 0V3.897A3.366 3.366 0 0 1 3.768.529h4.215c.886 0 1.723.276 2.348.812.633.544 1.02 1.33 1.02 2.27a.6.6 0 1 1-1.2 0c0-.59-.234-1.043-.601-1.359-.377-.322-.924-.523-1.567-.523H3.768Z"/>
        <path d="M4 4.212a2.4 2.4 0 0 0-2.4 2.4v5.25a2.4 2.4 0 0 0 2.4 2.4h7.5a2.4 2.4 0 0 0 2.4-2.4v-.487h-.097c-.94 0-1.907-.579-2.177-1.585l-.001-.003a2.11 2.11 0 0 1 .562-2.063c.39-.397.926-.624 1.503-.624h.21v-.488c0-1.318-1.081-2.4-2.4-2.4H4Zm-3.6 2.4a3.6 3.6 0 0 1 3.6-3.6h7.5c1.982 0 3.6 1.619 3.6 3.6V7.7a.6.6 0 0 1-.6.6h-.81a.895.895 0 0 0-.664.283.91.91 0 0 0-.241.897c.105.39.519.695 1.018.695h.697a.6.6 0 0 1 .6.6v1.087a3.6 3.6 0 0 1-3.6 3.6H4a3.6 3.6 0 0 1-3.6-3.6v-5.25Z"/>
        <path d="M13.69 8.3c-.259 0-.486.1-.65.268l-.01.01a.906.906 0 0 0-.272.737v.007c.038.454.477.852 1.022.852h1.448c.1 0 .172-.08.172-.165V8.464a.17.17 0 0 0-.172-.165H13.69Zm-1.504-.575c.39-.398.926-.626 1.504-.626h1.538c.755 0 1.372.61 1.372 1.365v1.545a1.37 1.37 0 0 1-1.372 1.365H13.78c-1.073 0-2.118-.785-2.217-1.949a2.106 2.106 0 0 1 .623-1.7Z"/>
    </g>
</svg>
