<svg width="25" height="25" viewBox="0 0 25 25" fill="none" xmlns="http://www.w3.org/2000/svg">
<g>
        <path
            d="M3.86035 8.49023V17.4902H18.8604V8.49023H3.86035ZM18.1104 10.6176C17.7927 10.505 17.5042 10.3229 17.2658 10.0846C17.0275 9.84633 16.8453 9.55786 16.7326 9.24023H18.1104V10.6176ZM15.9766 16.7402H6.74485C6.61165 16.2266 6.34351 15.7578 5.9682 15.3827C5.59289 15.0075 5.12408 14.7395 4.61035 14.6065V11.3777C5.12431 11.2441 5.59318 10.9754 5.96836 10.5996C6.34354 10.2238 6.61137 9.75443 6.7441 9.24023H15.9755C16.1085 9.75448 16.3765 10.2238 16.7519 10.5996C17.1273 10.9755 17.5963 11.2441 18.1104 11.3777V14.6046C17.5966 14.7381 17.1279 15.0065 16.7527 15.382C16.3776 15.7574 16.1096 16.2264 15.9766 16.7402ZM5.98698 9.24023C5.87399 9.55679 5.69177 9.84414 5.45361 10.0813C5.21546 10.3185 4.92737 10.4995 4.61035 10.6112V9.24023H5.98698ZM4.61035 15.3734C4.92618 15.485 5.21318 15.6656 5.45046 15.902C5.68774 16.1385 5.86936 16.4248 5.9821 16.7402H4.61035V15.3734ZM16.7416 16.7402C16.8532 16.4236 17.0339 16.1357 17.2707 15.8977C17.5075 15.6596 17.7943 15.4773 18.1104 15.364V16.7402H16.7416Z"
            fill="currentColor"
        />
        <path
            d="M15.4854 11.8652C15.187 11.8652 14.9008 11.9838 14.6899 12.1947C14.4789 12.4057 14.3604 12.6919 14.3604 12.9902C14.3604 13.2886 14.4789 13.5748 14.6899 13.7857C14.9008 13.9967 15.187 14.1152 15.4854 14.1152C15.7837 14.1152 16.0699 13.9967 16.2808 13.7857C16.4918 13.5748 16.6104 13.2886 16.6104 12.9902C16.6104 12.6919 16.4918 12.4057 16.2808 12.1947C16.0699 11.9838 15.7837 11.8652 15.4854 11.8652ZM15.4854 13.3652C15.3888 13.3609 15.2976 13.3195 15.2308 13.2497C15.164 13.1798 15.1268 13.0869 15.1268 12.9902C15.1268 12.8936 15.164 12.8007 15.2308 12.7308C15.2976 12.661 15.3888 12.6196 15.4854 12.6152C15.5819 12.6196 15.6731 12.661 15.7399 12.7308C15.8067 12.8007 15.844 12.8936 15.844 12.9902C15.844 13.0869 15.8067 13.1798 15.7399 13.2497C15.6731 13.3195 15.5819 13.3609 15.4854 13.3652V13.3652ZM11.3604 9.99023C10.1176 9.99023 9.11035 11.3335 9.11035 12.9902C9.11035 14.647 10.1176 15.9902 11.3604 15.9902C12.6031 15.9902 13.6104 14.647 13.6104 12.9902C13.6104 11.3335 12.6031 9.99023 11.3604 9.99023ZM11.3604 15.2402C10.5474 15.2402 9.86035 14.2097 9.86035 12.9902C9.86035 11.7707 10.5474 10.7402 11.3604 10.7402C12.1734 10.7402 12.8604 11.7707 12.8604 12.9902C12.8604 14.2097 12.1734 15.2402 11.3604 15.2402ZM7.23535 11.8652C6.93698 11.8652 6.65083 11.9838 6.43986 12.1947C6.22888 12.4057 6.11035 12.6919 6.11035 12.9902C6.11035 13.2886 6.22888 13.5748 6.43986 13.7857C6.65083 13.9967 6.93698 14.1152 7.23535 14.1152C7.53372 14.1152 7.81987 13.9967 8.03085 13.7857C8.24183 13.5748 8.36035 13.2886 8.36035 12.9902C8.36035 12.6919 8.24183 12.4057 8.03085 12.1947C7.81987 11.9838 7.53372 11.8652 7.23535 11.8652V11.8652ZM7.23535 13.3652C7.1388 13.3609 7.04763 13.3195 6.98083 13.2497C6.91403 13.1798 6.87675 13.0869 6.87675 12.9902C6.87675 12.8936 6.91403 12.8007 6.98083 12.7308C7.04763 12.661 7.1388 12.6196 7.23535 12.6152C7.33191 12.6196 7.42307 12.661 7.48987 12.7308C7.55667 12.8007 7.59395 12.8936 7.59395 12.9902C7.59395 13.0869 7.55667 13.1798 7.48987 13.2497C7.42307 13.3195 7.33191 13.3609 7.23535 13.3652V13.3652Z"
            fill="currentColor"
        />
        <rect x="5.78027" y="6.48047" width="0.72" height="1.56" fill="currentColor" />
        <rect
            x="20.54"
            y="6.48047"
            width="0.72"
            height="14.04"
            transform="rotate(90 20.54 6.48047)"
            fill="currentColor"
        />
        <rect
            x="20.54"
            y="14.7607"
            width="0.719986"
            height="0.959999"
            transform="rotate(90 20.54 14.7607)"
            fill="currentColor"
        />
        <rect x="20.54" y="6.48047" width="0.720001" height="9" fill="currentColor" />
    </g>
</svg>
  