<svg xmlns="http://www.w3.org/2000/svg" fill="#fff" viewBox="-8 -10 44 44">
    <path fill-rule="evenodd" d="m20.82 14.139 8.842 9.153a1.212 1.212 0 0 1 .011 1.662l-.649.669a1.173 1.173 0 0 1-.684.367 1.09 1.09 0 0 1-.513-.052 1.123 1.123 0 0 1-.437-.283L16.592 14.478a2.096 2.096 0 0 1-.438-.678 2.153 2.153 0 0 1 0-1.6c.102-.254.25-.485.438-.679L27.39.344a1.099 1.099 0 0 1 1.603 0l.669.704c.105.109.189.238.246.38a1.209 1.209 0 0 1-.246 1.28l-8.843 9.155c-.29.303-.452.712-.452 1.138 0 .426.162.835.452 1.138ZM9.18 11.873.341 2.717a1.208 1.208 0 0 1-.009-1.669L.98.377C1.163.18 1.404.05 1.665.01a1.1 1.1 0 0 1 .512.053c.165.058.314.154.437.281l10.794 11.178c.188.194.337.424.438.678a2.153 2.153 0 0 1 0 1.6c-.101.254-.25.484-.438.678L2.614 25.656a1.13 1.13 0 0 1-.802.344 1.1 1.1 0 0 1-.802-.344l-.669-.693a1.211 1.211 0 0 1 0-1.662l8.84-9.153c.29-.302.452-.711.452-1.138 0-.426-.163-.835-.453-1.137Z" clip-rule="evenodd"/>
</svg>
