<svg xmlns="http://www.w3.org/2000/svg" fill="none" viewBox="0 0 24 25">
    <path fill="#fff" fill-rule="evenodd" d="m15.88 13.245 5.894 5.985a.768.768 0 0 1 .226.541.778.778 0 0 1-.218.545l-.433.438a.787.787 0 0 1-.456.24.74.74 0 0 1-.633-.219l-7.199-7.308a1.367 1.367 0 0 1-.394-.967 1.383 1.383 0 0 1 .395-.966l7.198-7.309A.754.754 0 0 1 20.794 4a.745.745 0 0 1 .535.225l.445.46a.766.766 0 0 1 .222.543.777.777 0 0 1-.221.543l-5.895 5.986a1.065 1.065 0 0 0 0 1.488Zm-7.76-1.482L2.227 5.777A.767.767 0 0 1 2 5.233a.777.777 0 0 1 .222-.547l.43-.44a.804.804 0 0 1 .458-.24.747.747 0 0 1 .633.22l7.196 7.308a1.367 1.367 0 0 1 .394.967 1.382 1.382 0 0 1-.394.966l-7.196 7.308a.755.755 0 0 1-.535.226.747.747 0 0 1-.535-.226l-.446-.452a.77.77 0 0 1-.221-.544.779.779 0 0 1 .221-.543l5.893-5.985a1.065 1.065 0 0 0 0-1.488Z" clip-rule="evenodd"/>
</svg>
