<svg xmlns="http://www.w3.org/2000/svg" fill="none" viewBox="0 0 24 25">
    <path fill="#000" fill-rule="evenodd" d="m15.88 13.245 5.894 5.985a.77.77 0 0 1 .226.541.78.78 0 0 1-.218.545l-.433.438a.8.8 0 0 1-.456.24.74.74 0 0 1-.633-.219l-7.199-7.308a1.37 1.37 0 0 1-.394-.967 1.38 1.38 0 0 1 .395-.966l7.198-7.309A.75.75 0 0 1 20.794 4a.75.75 0 0 1 .535.225l.445.46a.77.77 0 0 1 .222.543.78.78 0 0 1-.221.543l-5.895 5.986a1.065 1.065 0 0 0 0 1.488m-7.76-1.482L2.227 5.777A.77.77 0 0 1 2 5.233a.78.78 0 0 1 .222-.547l.43-.44a.8.8 0 0 1 .458-.24.75.75 0 0 1 .633.22l7.196 7.308a1.37 1.37 0 0 1 .394.967 1.38 1.38 0 0 1-.394.966l-7.196 7.308a.76.76 0 0 1-.535.226.75.75 0 0 1-.535-.226l-.446-.452a.77.77 0 0 1-.221-.544.78.78 0 0 1 .221-.543l5.893-5.985a1.065 1.065 0 0 0 0-1.488" clip-rule="evenodd"/>
</svg>
