<svg xmlns="http://www.w3.org/2000/svg" fill="none" viewBox="0 0 566 256">
    <g clip-path="url('#ENSCover_svg__a')">
        <rect width="566" height="256" fill="url(#ENSCover_svg__b)" rx="8"/>
        <path fill="#fff" fill-opacity=".1" d="M82.436 61.964c5.7 12.183 19.806 36.263 19.806 36.263L265.32-171.36 106.161-60.22a69.46 69.46 0 0 0-22.656 24.936 115.34 115.34 0 0 0-1.069 97.248m-64.62 88.77A181.46 181.46 0 0 0 89.06 282.607L265.104 405.36S154.961 246.629 62.059 88.68a159.5 159.5 0 0 1-18.666-53.86 86.2 86.2 0 0 1 0-25.861c-2.422 4.488-7.124 13.678-7.124 13.678a209.1 209.1 0 0 0-19.023 60.914 372.5 372.5 0 0 0 .57 67.183m449.126 21.302c-5.7-12.183-19.806-36.263-19.806-36.263L284.058 405.36l159.16-111.069a69.5 69.5 0 0 0 22.655-24.935 115.35 115.35 0 0 0 1.069-97.32m64.628-88.77a181.46 181.46 0 0 0-71.244-131.873L284.282-171.36S394.354-12.629 487.328 145.319a159.5 159.5 0 0 1 18.594 53.861 86.2 86.2 0 0 1 0 25.862c2.423-4.489 7.125-13.679 7.125-13.679a209.1 209.1 0 0 0 19.022-60.914 372.4 372.4 0 0 0-.499-67.183"/>
    </g>
    <defs>
        <linearGradient id="ENSCover_svg__b" x1="283" x2="283" y1="0" y2="256" gradientUnits="userSpaceOnUse">
            <stop stop-color="#2467FF"/>
            <stop offset="1" stop-color="#95B6FF"/>
        </linearGradient>
        <clipPath id="ENSCover_svg__a">
            <rect width="566" height="256" fill="#fff" rx="8"/>
        </clipPath>
    </defs>
</svg>
