<svg xmlns="http://www.w3.org/2000/svg" fill="none" viewBox="0 0 566 256">
    <g clip-path="url('#ENSCover_svg__a')">
        <rect width="566" height="256" fill="url(#ENSCover_svg__b)" rx="8"/>
        <path fill="#fff" fill-opacity=".1" d="M82.436 61.964c5.7 12.183 19.806 36.263 19.806 36.263L265.32-171.36 106.161-60.22a69.461 69.461 0 0 0-22.656 24.936 115.344 115.344 0 0 0-1.069 97.248Zm-64.62 88.77A181.46 181.46 0 0 0 89.06 282.607L265.104 405.36S154.961 246.629 62.059 88.68a159.517 159.517 0 0 1-18.666-53.86 86.208 86.208 0 0 1 0-25.861c-2.422 4.488-7.124 13.678-7.124 13.678a209.103 209.103 0 0 0-19.023 60.914 372.469 372.469 0 0 0 .57 67.183Zm449.126 21.302c-5.7-12.183-19.806-36.263-19.806-36.263L284.058 405.36l159.16-111.069a69.466 69.466 0 0 0 22.655-24.935 115.349 115.349 0 0 0 1.069-97.32Zm64.628-88.77a181.457 181.457 0 0 0-71.244-131.873L284.282-171.36S394.354-12.629 487.328 145.319a159.519 159.519 0 0 1 18.594 53.861 86.171 86.171 0 0 1 0 25.862c2.423-4.489 7.125-13.679 7.125-13.679a209.112 209.112 0 0 0 19.022-60.914 372.44 372.44 0 0 0-.499-67.183Z"/>
    </g>
    <defs>
        <linearGradient id="ENSCover_svg__b" x1="283" x2="283" y1="0" y2="256" gradientUnits="userSpaceOnUse">
            <stop stop-color="#2467FF"/>
            <stop offset="1" stop-color="#95B6FF"/>
        </linearGradient>
        <clipPath id="ENSCover_svg__a">
            <rect width="566" height="256" fill="#fff" rx="8"/>
        </clipPath>
    </defs>
</svg>
