<svg xmlns="http://www.w3.org/2000/svg" viewBox="0 0 37 36">
    <path fill="#F7931E" d="M5 10a1 1 0 0 1 1-1h9.75a1 1 0 0 1 .8.4l5.25 7A1 1 0 0 1 21 18H6a1 1 0 0 1-1-1z"/>
    <g filter="url('#FileService_svg__a')">
        <rect width="22.5" height="15.75" x="7.25" y="11.004" fill="#fff" fill-opacity=".3" rx="1"/>
    </g>
    <path fill="#FFB110" fill-rule="evenodd" d="M6 11.736a1 1 0 0 0-1 1V28.25a1 1 0 0 0 1 1h25a1 1 0 0 0 1-1V14.5a1 1 0 0 0-1-1H17.573l-1.023-1.364a1 1 0 0 0-.8-.4z" clip-rule="evenodd"/>
    <path fill="#fff" fill-rule="evenodd" d="M15.928 17.795a1.88 1.88 0 1 0 .634 3.707 1.88 1.88 0 0 0-.634-3.707m-3.015 2.423a3.38 3.38 0 1 1 6.664-1.14 3.38 3.38 0 0 1-6.664 1.14" clip-rule="evenodd"/>
    <path fill="#fff" fill-rule="evenodd" d="M17.894 21.176a.75.75 0 0 1 1.048-.164l4.205 3.069a.75.75 0 1 1-.884 1.211l-4.205-3.068a.75.75 0 0 1-.164-1.048" clip-rule="evenodd"/>
    <path fill="#fff" fill-rule="evenodd" d="M20.252 23.516a.75.75 0 0 1-.17-1.047l.902-1.255a.75.75 0 0 1 1.218.877l-.903 1.254a.75.75 0 0 1-1.047.171m1.802.53A.75.75 0 0 1 21.883 23l.903-1.254a.75.75 0 0 1 1.217.876l-.902 1.255a.75.75 0 0 1-1.047.17Z" clip-rule="evenodd"/>
    <defs>
        <filter id="FileService_svg__a" width="42.5" height="35.75" x="-2.75" y="1.004" color-interpolation-filters="sRGB">
            <feFlood flood-opacity="0" result="BackgroundImageFix"/>
            <feGaussianBlur in="BackgroundImage"/>
            <feComposite in2="SourceAlpha" operator="in" result="effect1_backgroundBlur_39_226867"/>
            <feBlend in="SourceGraphic" in2="effect1_backgroundBlur_39_226867" result="shape"/>
        </filter>
    </defs>
</svg>
