<svg xmlns="http://www.w3.org/2000/svg" fill="none" viewBox="0 0 24 24">
    <path fill="#01BAFA" d="M24 12.166c0 6.627-5.373 12-12 12s-12-5.373-12-12 5.373-12 12-12 12 5.373 12 12"/>
    <path fill="#01BAFA" d="M8.882 10.831c.723-.133 1.43.576 1.333 1.295-.065.563-.579 1.059-1.155 1.053-.445.002-.888-.255-1.081-.66-.121-.232-.125-.503-.093-.757.082-.485.517-.864.996-.93Z"/>
    <path fill="#FEFFFE" d="M8.332 8.503c.955-.15 1.991.018 2.766.625.556.38.942.95 1.219 1.556l.027.132c2.054.006 4.107-.008 6.161.007q-.004 1.177 0 2.352c-.597.036-1.2-.036-1.793.04.021.767.004 1.534.009 2.302-.781.071-1.566.025-2.35.04a59 59 0 0 1 0-2.343c-.668-.07-1.343-.014-2.013-.03-.174.423-.384.84-.695 1.18-.56.624-1.341 1.065-2.181 1.151-.72.093-1.48-.025-2.115-.387a3.5 3.5 0 0 1-1.716-2.073c-.313-.947-.171-2.022.335-2.876a3.66 3.66 0 0 1 2.112-1.614l.192-.029zm.55 2.328c-.48.067-.915.446-.996.931-.032.254-.028.525.092.757a1.21 1.21 0 0 0 1.081.66c.577.005 1.091-.49 1.155-1.054.097-.718-.61-1.428-1.332-1.294"/>
</svg>
