<svg fill="none" viewBox="0 0 24 24" xmlns="http://www.w3.org/2000/svg"><path clip-rule="evenodd" d="m17.299 17-1.057-.975a3.956 3.956 0 0 0 1.207-2.837 3.899 3.899 0 0 0 -.467-1.856 4.09 4.09 0 0 0 -.832-1.068l-.551-.51.59-.531.505.508.482-.472c1.125 1.04 1.745 2.436 1.745 3.93 0 1.43-.576 2.784-1.622 3.811z" fill="#0fce7c" fill-rule="evenodd" stroke="#0fce7c" stroke-width=".15"/><path d="m17.265 20.411h-5.1c-3.96 0-7.183-3.275-7.183-7.3 0-4.026 3.222-7.3 7.184-7.3a7.06 7.06 0 0 1 4.472 1.585l-3.5 3.287a2.533 2.533 0 0 0 -.972-.194c-1.423 0-2.58 1.176-2.58 2.622s1.157 2.622 2.58 2.622c.247 0 .493-.036.73-.107l4.369 3.342zm-5.1-6.267c-.56 0-1.016-.463-1.016-1.033s.456-1.033 1.017-1.033c.56 0 1.016.463 1.016 1.033s-.456 1.033-1.016 1.033zm2.58-1.033a2.63 2.63 0 0 0 -.4-1.4l2.088-1.96.018.018 2.47-2.365-.57-.578a8.62 8.62 0 0 0 -6.185-2.604c-4.824 0-8.748 3.988-8.748 8.89 0 4.852 3.848 8.807 8.605 8.884v.004h6.805v-3.825l-4.587-3.508c.329-.452.506-.997.505-1.556z" fill="#fff"/><path clip-rule="evenodd" d="m12.171 14.105a1.03 1.03 0 1 0 0-2.06 1.03 1.03 0 0 0 0 2.06zm0 1.544a2.574 2.574 0 1 0 0-5.148 2.574 2.574 0 0 0 0 5.149z" fill="#fff" fill-rule="evenodd"/><path d="m20.582 3.667-.554.555-.553-.555.553-.556zm-4.43 0-.553.555-.554-.555.554-.556z" fill="#25e899"/><path d="m9.508 9.778c-.306 0-.554-.276-.554-.616v-6.546c0-.34.248-.616.554-.616.305 0 .553.276.553.616v6.546c0 .34-.248.616-.553.616zm3.262-1.428c-.306 0-.554-.224-.554-.502v-5.345c0-.278.248-.503.554-.503.305 0 .553.225.553.503v5.345c0 .278-.248.503-.553.503z" fill="#fff"/></svg>