<svg xmlns="http://www.w3.org/2000/svg" viewBox="0 0 28 28">
    <path fill="#fff" d="m18.244 13.541 1.661 3.274-1.265 5.36-3.003-2.454.531-3.93 2.076-2.25z"/>
    <path fill="#15003E" d="M13.807 12.44a.627.627 0 0 1-.627-.627V6.879a.626.626 0 1 1 1.255 0v4.934a.639.639 0 0 1-.628.627z"/>
    <path fill="#15003E" d="M14.822 12.44h-1.94a.633.633 0 0 1-.618-.637.635.635 0 0 1 .618-.618h1.94c.348.01.619.29.619.637a.629.629 0 0 1-.619.618z"/>
    <path fill="#fff" d="m18.238 13.541 2.057-1.94a8.686 8.686 0 0 0-6.151-2.55 8.712 8.712 0 0 0-8.71 8.71 8.712 8.712 0 0 0 8.71 8.71c1.796 0 3.37.656 4.75-.27l1.72.24-.05-2.8-4.933-3.91 1.062-4.992 1.545-1.198z"/>
    <path fill="#15003E" d="M14.15 27.32c-5.272 0-9.56-4.287-9.56-9.56 0-5.272 4.288-9.559 9.56-9.559 2.549 0 4.953.995 6.759 2.8l.618.618-2.704 2.54-1.168-1.246 1.38-1.303A7.764 7.764 0 0 0 14.14 9.9c-4.326 0-7.85 3.525-7.85 7.851 0 4.326 3.524 7.85 7.85 7.85"/>
    <path fill="#0FCE7C" d="m18.95 22.405-1.226-1.187a4.937 4.937 0 0 0 1.4-3.457 4.905 4.905 0 0 0-1.506-3.563l-.638-.628.686-.647.589.618.56-.58a6.638 6.638 0 0 1 2.028 4.79 6.699 6.699 0 0 1-1.893 4.654z"/>
    <path fill="#EFF4EE" d="M12.183 17.761c0-1.081.878-1.97 1.97-1.97 1.08 0 1.97.88 1.97 1.97 0 1.082-.88 1.97-1.97 1.97a1.978 1.978 0 0 1-1.97-1.97z"/>
    <path fill="#15003E" d="M14.15 16.65c-.61 0-1.111.503-1.111 1.11 0 .61.502 1.111 1.11 1.111.609 0 1.11-.502 1.11-1.11 0-.618-.492-1.11-1.11-1.11zm0 3.93a2.823 2.823 0 0 1-2.82-2.82 2.823 2.823 0 0 1 2.82-2.819 2.823 2.823 0 0 1 2.819 2.82 2.823 2.823 0 0 1-2.82 2.82zm6.16-8.98-4.973 4.597L20.31 11.6z"/>
    <path fill="#15003E" d="m19.73 10.973 1.158 1.255-4.973 4.597-1.159-1.256 4.973-4.596z"/>
    <path fill="#fff" d="m15.074 19.49 3.573 2.684 1.93 1.448v3.689l-3.871-.184"/>
    <path fill="#15003E" d="M21.432 27.32h-7.435v-1.708h5.726v-1.555l-5.156-3.882 1.023-1.361 5.842 4.393v4.114z"/>
    <path fill="#25E899" d="m22.038 7.351.686-.685.686.685-.686.686-.686-.686zM19.093 4.05l.329-.328.328.328-.328.328-.329-.328zm4.06-2.878a.495.495 0 0 0-.492-.493.495.495 0 0 0-.493.493c0 .27.222.492.492.492s.493-.212.493-.492z"/>
    <path fill="#15003E" d="M10.836 14.17a.626.626 0 0 1-.627-.628V6.879a.633.633 0 0 1 .637-.618c.338.01.608.28.618.618v6.663c0 .347-.28.627-.628.627z"/>
</svg>
