<svg width="16" height="16" viewBox="0 0 16 16" xmlns="http://www.w3.org/2000/svg">
<g fill="none">
        <path d="M3 4.313a2 2 0 0 1 2-2h6a2 2 0 0 1 2 2v8a2 2 0 0 1-2 2H5a2 2 0 0 1-2-2v-8Z" fill="#1C68F3" />
        <path
            d="M10.758 10.266H5.32c.512-1.107 1.651-3.182 1.92-3.182.26 0 1.26 1.926 1.54 2.46 0 0 .513-1.581.782-1.581.274 0 1.187 2.295 1.196 2.303ZM9.16 6.38c0-.358.294-.647.656-.647.363 0 .657.29.657.647a.65.65 0 0 1-.657.647.65.65 0 0 1-.656-.647Z"
            fill="#fff"
        />
    </g>
</svg>
  