<svg xmlns="http://www.w3.org/2000/svg" viewBox="0 0 36 36">
    <path fill="#FF4A4A" d="M5.983 10.887h25.885v5.375H5.983v-5.375Z"/>
    <path fill="#FB4141" d="M7.777 16.257H30.07v14.837H7.777V16.257Z"/>
    <path fill="#F03333" d="M7.777 16.257H30.07v2.062H7.777v-2.062Z"/>
    <path fill="#FFB45B" d="M16.128 10.887h5.594v20.212h-5.594V10.887Z"/>
    <path fill="#FFEF5B" d="M17.725 10.887h2.4v20.212h-2.4V10.887Z"/>
    <path fill="#FFB45B" d="m20.125 10.885-5.781-5.781-3.955 3.954 1.827 1.827h7.91Z"/>
    <path fill="#FFEF5B" d="m17.864 10.884-4.649-4.653-1.698 1.698 2.955 2.955h3.392Z"/>
    <path fill="#FFB45B" d="m17.725 10.885 5.778-5.781 3.955 3.954-1.823 1.827h-7.91Z"/>
    <path fill="#FFEF5B" d="m19.982 10.884 4.65-4.653L26.33 7.93l-2.955 2.955h-3.393Z"/>
</svg>
