<svg viewBox="0 0 28 28" xmlns="http://www.w3.org/2000/svg"><path d="m13.678 0 12.123 6.999-12.122 6.999-12.123-6.999z" fill="#2337b4"/><path d="m12.468 13.302 1.212.7v2.8l-1.212-.7zm0-4.2 1.212.7v2.8l-1.212-.7zm1.212-2.1 1.213.7v1.4l-1.213-.7zm-4.849-1.4 1.223.706v4.2l-1.224-.706zm1.209-2.099 1.212.7v1.4l-1.212-.7zm4.853-1.4 1.212.7v4.2l-1.212-.7z" fill="#ff9607"/><path d="m13.68 12.602 1.213.7-1.213.7-1.212-.7zm1.213-.7 1.212.7-1.212.7-1.213-.7zm-1.213-3.5 1.213.7-1.213.7-1.212-.7zm1.213-2.099 1.212.7-1.212.7-1.213-.7zm-4.853-1.4 1.212.7-1.212.7-1.212-.7zm6.065-4.9 1.226.708-6.061 3.5-1.227-.708z" fill="#ffd5be"/><path d="m17.317.703 1.213.7-1.213.7-1.212-.7z" fill="#ffd5be"/><path clip-rule="evenodd" d="m12.465 3.5-1.213.7v1.399l1.213-.7zm4.849-1.4 1.212-.7v5.599l-1.212.7-1.212.7v2.8l-1.213.7-1.212.7v-2.8l1.212-.7v-1.4l1.213-.7v-4.2l-1.213.7-1.212.7-1.212.7v-1.399l1.212-.7 1.212-.7 1.213-.7 1.212-.7zm-4.85 2.8-2.424 1.398v4.2l2.425-1.4v-4.2zm2.425 11.198-1.212.7v-2.8l1.212-.7 1.213-.7v2.8z" fill="#ff5900" fill-rule="evenodd"/><path d="m13.678 13.998 12.123-6.998v13.997l-12.122 7z" fill="#0057ff"/><path d="m1.556 7.002 12.122 7v13.997l-12.122-6.999z" fill="#367bff"/></svg>