<svg xmlns="http://www.w3.org/2000/svg" xmlns:xlink="http://www.w3.org/1999/xlink" viewBox="0 0 37 36">
    <radialGradient id="Savings_svg__a" cx="0" cy="0" r="1">
        <stop offset="0" stop-color="#ffd1e1"/>
        <stop offset="1" stop-color="#ffb2ce"/>
    </radialGradient>
    <linearGradient id="Savings_svg__b">
        <stop offset="0" stop-color="#f6528f"/>
        <stop offset="1" stop-color="#f6528f" stop-opacity="0"/>
    </linearGradient>
    <linearGradient xlink:href="#Savings_svg__b" id="Savings_svg__c" x1="10.783" x2="10.783" y1="27.302" y2="32.446"/>
    <linearGradient xlink:href="#Savings_svg__b" id="Savings_svg__d" x1="24.6" x2="24.6" y1="26.657" y2="32.444"/>
    <linearGradient xlink:href="#Savings_svg__b" id="Savings_svg__e" x1="9.104" x2="7.064" y1="13.895" y2="11.943"/>
    <linearGradient xlink:href="#Savings_svg__b" id="Savings_svg__f" x1="4.446" x2="2.401" y1="21.329" y2="21.38"/>
    <linearGradient xlink:href="#Savings_svg__b" id="Savings_svg__g" x1="11.306" x2="9.11" y1="13.929" y2="11.828"/>
    <path fill="url(#Savings_svg__a)" d="M14.089 30.044c-2.513-.383-4.785-1.356-6.612-2.742.109.154.182.33.215.515l.653 3.914a.85.85 0 0 0 .84.715h3.455a.854.854 0 0 0 .842-.72l.211-1.324a.43.43 0 0 1 .396-.358"/>
    <path fill="url(#Savings_svg__c)" fill-opacity=".4" d="M14.089 30.044c-2.513-.383-4.785-1.356-6.612-2.742.109.154.182.33.215.515l.653 3.914a.85.85 0 0 0 .84.715h3.455a.854.854 0 0 0 .842-.72l.211-1.324a.43.43 0 0 1 .396-.358"/>
    <path fill="url(#Savings_svg__a)" d="m20.999 30.03-.091.013c2.88-.445 5.446-1.662 7.385-3.386q-.167.153-.34.296a1.28 1.28 0 0 0-.447.768l-.669 4.009a.854.854 0 0 1-.84.714h-3.455a.85.85 0 0 1-.842-.72l-.215-1.339a.423.423 0 0 0-.486-.354z"/>
    <path fill="url(#Savings_svg__d)" fill-opacity=".4" d="m20.999 30.03-.091.013c2.88-.445 5.446-1.662 7.385-3.386q-.167.153-.34.296a1.28 1.28 0 0 0-.447.768l-.669 4.009a.854.854 0 0 1-.84.714h-3.455a.85.85 0 0 1-.842-.72l-.215-1.339a.423.423 0 0 0-.486-.354z"/>
    <path fill="url(#Savings_svg__a)" d="m7.656 11.033 3.046 1.518a.19.19 0 0 1-.014.345 6.3 6.3 0 0 0-3.083 2.631l-.038.065a.196.196 0 0 1-.355-.04L6.148 12.34c-.302-.913.648-1.736 1.508-1.307"/>
    <path fill="url(#Savings_svg__e)" fill-opacity=".4" d="m7.656 11.033 3.046 1.518a.19.19 0 0 1-.014.345 6.3 6.3 0 0 0-3.083 2.631l-.038.065a.196.196 0 0 1-.355-.04L6.148 12.34c-.302-.913.648-1.736 1.508-1.307"/>
    <path fill="url(#Savings_svg__a)" d="M2.401 20.05c0-.767.75-1.388 1.676-1.388h.739c.925 0 1.675.621 1.675 1.387v1.862c0 .766-.75 1.387-1.675 1.387h-.74c-.925 0-1.675-.62-1.675-1.387v-1.862z"/>
    <path fill="url(#Savings_svg__f)" fill-opacity=".4" d="M2.401 20.05c0-.767.75-1.388 1.676-1.388h.739c.925 0 1.675.621 1.675 1.387v1.862c0 .766-.75 1.387-1.675 1.387h-.74c-.925 0-1.675-.62-1.675-1.387v-1.862z"/>
    <path fill="url(#Savings_svg__a)" d="M31.363 20.205c0 6.068-6.09 10.372-13.603 10.372-7.514 0-13.604-3.405-13.604-10.372 0-7.282 6.09-10.247 13.604-10.247s13.603 4.18 13.603 10.247"/>
    <path fill="url(#Savings_svg__a)" d="M32.51 20.206a.95.95 0 0 1-.707-.312 1.12 1.12 0 0 1-.239-1.135c.088-.256.23-.49.416-.686a1.47 1.47 0 0 0-1.198.255.267.267 0 0 1-.325-.425 2.04 2.04 0 0 1 2.01-.237c.19-.127.401-.22.624-.273.569-.12 1.201.03 1.735.407a.268.268 0 0 1-.308.437c-.406-.288-.9-.409-1.318-.32a1 1 0 0 0-.197.063c.229.188.399.437.49.718a1.23 1.23 0 0 1-.225 1.161 1 1 0 0 1-.748.343zm.012-1.91a1.5 1.5 0 0 0-.45.631.58.58 0 0 0 .124.61.43.43 0 0 0 .318.137.48.48 0 0 0 .353-.162.69.69 0 0 0 .116-.648 1.08 1.08 0 0 0-.461-.571v.004z"/>
    <path fill="#dd306e" d="M13.148 12.282a.75.75 0 0 1-.143-1.477l.04-.01c1.21-.288 2.868-.682 4.88-.605 2.01.077 2.926.368 4.573.903l.283.09a.75.75 0 0 1-.455 1.427l-.284-.091c-1.618-.517-2.36-.76-4.175-.829-1.815-.07-3.35.299-4.48.566l-.04.01a.7.7 0 0 1-.199.016"/>
    <path fill="#fff5f9" d="M8.566 15.31a.68.68 0 0 1-.56.837l-.29.041-.742.107a.423.423 0 0 1-.436-.609 5.3 5.3 0 0 1 .601-.94c.293-.364.501-.617.734-.594.305.029.514.517.646.992q.027.084.047.166"/>
    <path fill="#0f0f0f" d="m8.006 16.149-.29.04a.669.669 0 0 1 .806-1.043l.044.167a.68.68 0 0 1-.56.836"/>
    <path fill="url(#Savings_svg__a)" d="m9.748 10.848 3.28 1.635a.204.204 0 0 1-.016.372 6.8 6.8 0 0 0-3.32 2.832l-.04.07a.211.211 0 0 1-.382-.043l-1.146-3.459c-.325-.982.698-1.868 1.624-1.407"/>
    <path fill="url(#Savings_svg__g)" fill-opacity=".4" d="m9.748 10.848 3.28 1.635a.204.204 0 0 1-.016.372 6.8 6.8 0 0 0-3.32 2.832l-.04.07a.211.211 0 0 1-.382-.043l-1.146-3.459c-.325-.982.698-1.868 1.624-1.407"/>
    <path fill="#1c68f3" fill-rule="evenodd" d="M12.639 9.145a5.454 5.454 0 1 1 7.76 2.878 13 13 0 0 0-2.505-.326c-1.11-.043-2.14.04-2.972.217a5.46 5.46 0 0 1-2.283-2.769" clip-rule="evenodd"/>
    <g fill="#fff">
        <path d="M17.724 8.032a.13.13 0 0 1-.06-.016l-1.585-.869a.13.13 0 0 1-.066-.084.14.14 0 0 1 .016-.106l1.722-2.694a.13.13 0 0 1 .12-.062.13.13 0 0 1 .113.07l1.511 2.819a.134.134 0 0 1-.064.186l-1.647.744a.13.13 0 0 1-.06.012"/>
        <path fill-opacity=".7" d="M17.637 10.302a.14.14 0 0 1-.111-.067l-1.52-2.609a.135.135 0 0 1 .02-.162.13.13 0 0 1 .161-.024l1.527.837 1.587-.714a.135.135 0 0 1 .166.2l-1.714 2.482a.14.14 0 0 1-.116.057"/>
    </g>
</svg>
