<svg viewBox="0 0 37 36" xmlns="http://www.w3.org/2000/svg" xmlns:xlink="http://www.w3.org/1999/xlink"><radialGradient id="a" cx="0" cy="0" r="1"><stop offset="0" stop-color="#ffd1e1"/><stop offset="1" stop-color="#ffb2ce"/></radialGradient><linearGradient id="b"><stop offset="0" stop-color="#f6528f"/><stop offset="1" stop-color="#f6528f" stop-opacity="0"/></linearGradient><linearGradient id="c" x1="10.783" x2="10.783" xlink:href="#b" y1="27.302" y2="32.446"/><linearGradient id="d" x1="24.6" x2="24.6" xlink:href="#b" y1="26.657" y2="32.444"/><linearGradient id="e" x1="9.104" x2="7.064" xlink:href="#b" y1="13.895" y2="11.943"/><linearGradient id="f" x1="4.446" x2="2.401" xlink:href="#b" y1="21.329" y2="21.38"/><linearGradient id="g" x1="11.306" x2="9.11" xlink:href="#b" y1="13.929" y2="11.828"/><path d="m14.089 30.044c-2.513-.383-4.785-1.356-6.612-2.742.109.154.182.33.215.515l.653 3.914a.853.853 0 0 0 .84.715h3.455a.854.854 0 0 0 .842-.72l.211-1.324a.427.427 0 0 1 .396-.358z" fill="url(#a)"/><path d="m14.089 30.044c-2.513-.383-4.785-1.356-6.612-2.742.109.154.182.33.215.515l.653 3.914a.853.853 0 0 0 .84.715h3.455a.854.854 0 0 0 .842-.72l.211-1.324a.427.427 0 0 1 .396-.358z" fill="url(#c)" fill-opacity=".4"/><path d="m20.999 30.03-.091.013c2.88-.445 5.446-1.662 7.385-3.386-.111.102-.225.2-.34.296a1.284 1.284 0 0 0 -.447.768l-.669 4.009a.854.854 0 0 1 -.84.714h-3.455a.853.853 0 0 1 -.842-.72l-.215-1.339a.423.423 0 0 0 -.486-.354z" fill="url(#a)"/><path d="m20.999 30.03-.091.013c2.88-.445 5.446-1.662 7.385-3.386-.111.102-.225.2-.34.296a1.284 1.284 0 0 0 -.447.768l-.669 4.009a.854.854 0 0 1 -.84.714h-3.455a.853.853 0 0 1 -.842-.72l-.215-1.339a.423.423 0 0 0 -.486-.354z" fill="url(#d)" fill-opacity=".4"/><path d="m7.656 11.033 3.046 1.518a.19.19 0 0 1 -.014.345 6.313 6.313 0 0 0 -3.083 2.631l-.038.065a.196.196 0 0 1 -.355-.04l-1.064-3.212c-.302-.913.648-1.736 1.508-1.307z" fill="url(#a)"/><path d="m7.656 11.033 3.046 1.518a.19.19 0 0 1 -.014.345 6.313 6.313 0 0 0 -3.083 2.631l-.038.065a.196.196 0 0 1 -.355-.04l-1.064-3.212c-.302-.913.648-1.736 1.508-1.307z" fill="url(#e)" fill-opacity=".4"/><path d="m2.401 20.05c0-.767.75-1.388 1.676-1.388h.739c.925 0 1.675.621 1.675 1.387v1.862c0 .766-.75 1.387-1.675 1.387h-.74c-.925 0-1.675-.62-1.675-1.387v-1.862z" fill="url(#a)"/><path d="m2.401 20.05c0-.767.75-1.388 1.676-1.388h.739c.925 0 1.675.621 1.675 1.387v1.862c0 .766-.75 1.387-1.675 1.387h-.74c-.925 0-1.675-.62-1.675-1.387v-1.862z" fill="url(#f)" fill-opacity=".4"/><path d="m31.363 20.205c0 6.068-6.09 10.372-13.603 10.372-7.514 0-13.604-3.405-13.604-10.372 0-7.282 6.09-10.247 13.604-10.247 7.513 0 13.603 4.18 13.603 10.247z" fill="url(#a)"/><path d="m32.51 20.206a.946.946 0 0 1 -.707-.312 1.115 1.115 0 0 1 -.239-1.135c.088-.256.23-.49.416-.686a1.469 1.469 0 0 0 -1.198.255.267.267 0 0 1 -.325-.425 2.038 2.038 0 0 1 2.01-.237c.19-.127.401-.22.624-.273.569-.12 1.201.03 1.735.407a.268.268 0 0 1 -.308.437c-.406-.288-.9-.409-1.318-.32a1.067 1.067 0 0 0 -.197.063c.229.188.399.437.49.718a1.234 1.234 0 0 1 -.225 1.161 1.01 1.01 0 0 1 -.748.343zm.012-1.91a1.504 1.504 0 0 0 -.45.631.577.577 0 0 0 .124.61.43.43 0 0 0 .318.137.475.475 0 0 0 .353-.162.69.69 0 0 0 .116-.648 1.076 1.076 0 0 0 -.461-.571v.004z" fill="url(#a)"/><path d="m13.148 12.282a.75.75 0 0 1 -.143-1.477l.04-.01c1.21-.288 2.868-.682 4.88-.605 2.01.077 2.926.368 4.573.903l.283.09a.75.75 0 0 1 -.455 1.427l-.284-.091c-1.618-.517-2.36-.76-4.175-.829-1.815-.07-3.35.299-4.48.566l-.04.01a.739.739 0 0 1 -.199.016z" fill="#dd306e"/><path d="m8.566 15.31a.678.678 0 0 1 -.56.837l-.29.041-.742.107a.423.423 0 0 1 -.436-.609 5.25 5.25 0 0 1 .601-.94c.293-.364.501-.617.734-.594.305.029.514.517.646.992.018.056.033.111.047.166z" fill="#fff5f9"/><path d="m8.006 16.149-.29.04a.669.669 0 0 1 .806-1.043l.044.167a.678.678 0 0 1 -.56.836z" fill="#0f0f0f"/><path d="m9.748 10.848 3.28 1.635a.204.204 0 0 1 -.016.372 6.796 6.796 0 0 0 -3.32 2.832l-.04.07a.211.211 0 0 1 -.382-.043l-1.146-3.459c-.325-.982.698-1.868 1.624-1.407z" fill="url(#a)"/><path d="m9.748 10.848 3.28 1.635a.204.204 0 0 1 -.016.372 6.796 6.796 0 0 0 -3.32 2.832l-.04.07a.211.211 0 0 1 -.382-.043l-1.146-3.459c-.325-.982.698-1.868 1.624-1.407z" fill="url(#g)" fill-opacity=".4"/><path clip-rule="evenodd" d="m12.639 9.145a5.454 5.454 0 1 1 7.76 2.878 13.094 13.094 0 0 0 -2.505-.326c-1.11-.043-2.14.04-2.972.217a5.455 5.455 0 0 1 -2.283-2.769z" fill="#1c68f3" fill-rule="evenodd"/><g fill="#fff"><path d="m17.724 8.032a.13.13 0 0 1 -.06-.016l-1.585-.869a.133.133 0 0 1 -.066-.084.138.138 0 0 1 .016-.106l1.722-2.694a.134.134 0 0 1 .12-.062.134.134 0 0 1 .113.07l1.511 2.819a.134.134 0 0 1 -.064.186l-1.647.744a.13.13 0 0 1 -.06.012z"/><path d="m17.637 10.302a.135.135 0 0 1 -.111-.067l-1.52-2.609a.135.135 0 0 1 .02-.162.132.132 0 0 1 .161-.024l1.527.837 1.587-.714a.135.135 0 0 1 .166.2l-1.714 2.482a.135.135 0 0 1 -.116.057z" fill-opacity=".7"/></g></svg>