<svg xmlns="http://www.w3.org/2000/svg" viewBox="0 0 1600 1600">
    <path fill="#fff" d="M0 800C0 358.172 358.172 0 800 0c441.83 0 800 358.172 800 800 0 441.83-358.17 800-800 800-441.828 0-800-358.17-800-800"/>
    <path d="M935.625 313.298c0 81.375-81.375 325.5-81.375 325.5h-108.5s-81.375-244.125-81.375-325.5c0-74.865 60.76-135.625 135.625-135.625s135.625 60.76 135.625 135.625M800 720.173c-59.675 0-108.5 48.825-108.5 108.5s48.825 108.5 108.5 108.5 108.5-48.825 108.5-108.5-48.825-108.5-108.5-108.5m221.34-265.283c9.76-40.687 17.9-79.747 21.16-111.755 177.94 88.97 300 272.878 300 485.538 0 299.457-243.04 542.497-542.5 542.497s-542.5-243.04-542.5-542.497c0-212.66 122.062-396.568 300.002-485.538 3.798 32.008 11.393 71.61 21.158 111.755C451.715 530.84 366 669.72 366 828.673c0 239.787 194.215 433.997 434 433.997 239.78 0 434-194.21 434-433.997 0-158.953-85.72-297.833-212.66-373.783m104.16 373.783c0 179.567-145.933 325.497-325.5 325.497-179.568 0-325.5-145.93-325.5-325.497 0-108.5 53.165-204.523 134.54-263.655 12.477 43.942 35.262 112.297 35.262 112.297C606.327 716.375 583 770.083 583 828.673c0 119.892 97.107 216.997 217 216.997 119.892 0 217-97.105 217-216.997 0-58.59-23.328-112.298-61.303-151.358 0 0 22.243-66.185 35.263-112.297 81.37 59.132 134.54 155.155 134.54 263.655"/>
</svg>
