<svg viewBox="0 0 1600 1600" xmlns="http://www.w3.org/2000/svg">
    <g>
        <path
            d="M0 800C0 358.172 358.172 0 800 0C1241.83 0 1600 358.172 1600 800C1600 1241.83 1241.83 1600 800 1600C358.172 1600 0 1241.83 0 800Z"
            fill="white"
        />
        <path
            d="M935.625 313.298C935.625 394.673 854.25 638.798 854.25 638.798H745.75C745.75 638.798 664.375 394.673 664.375 313.298C664.375 238.433 725.135 177.673 800 177.673C874.865 177.673 935.625 238.433 935.625 313.298ZM800 720.173C740.325 720.173 691.5 768.998 691.5 828.673C691.5 888.348 740.325 937.173 800 937.173C859.675 937.173 908.5 888.348 908.5 828.673C908.5 768.998 859.675 720.173 800 720.173ZM1021.34 454.89C1031.1 414.203 1039.24 375.143 1042.5 343.135C1220.44 432.105 1342.5 616.013 1342.5 828.673C1342.5 1128.13 1099.46 1371.17 800 1371.17C500.54 1371.17 257.5 1128.13 257.5 828.673C257.5 616.013 379.562 432.105 557.502 343.135C561.3 375.143 568.895 414.745 578.66 454.89C451.715 530.84 366 669.72 366 828.673C366 1068.46 560.215 1262.67 800 1262.67C1039.78 1262.67 1234 1068.46 1234 828.673C1234 669.72 1148.28 530.84 1021.34 454.89ZM1125.5 828.673C1125.5 1008.24 979.567 1154.17 800 1154.17C620.432 1154.17 474.5 1008.24 474.5 828.673C474.5 720.173 527.665 624.15 609.04 565.018C621.517 608.96 644.302 677.315 644.302 677.315C606.327 716.375 583 770.083 583 828.673C583 948.565 680.107 1045.67 800 1045.67C919.892 1045.67 1017 948.565 1017 828.673C1017 770.083 993.672 716.375 955.697 677.315C955.697 677.315 977.94 611.13 990.96 565.018C1072.33 624.15 1125.5 720.173 1125.5 828.673Z"
            fill="black"
        />
        ,
    </g>
</svg>
