<svg xmlns="http://www.w3.org/2000/svg" viewBox="0 0 28 28">
    <path fill="url(#SecurityChecker_svg__a)" d="M5.74 25.06c0 .272.826.533 2.296.726 1.47.192 3.465.3 5.544.3 2.08 0 4.073-.107 5.544-.3 1.47-.193 2.296-.454 2.296-.726 0-.272-.826-.533-2.296-.726-1.47-.192-3.465-.3-5.544-.3-2.08 0-4.073.108-5.544.3-1.47.193-2.296.454-2.296.726Z"/>
    <path fill="#7DABFF" fill-opacity=".32" d="M13.673 2.753C9.333 4.293 4.2 5.367 4.2 5.367c-.327.093-.607.42-.607.746V14.7c0 .093.14 1.96 1.4 4.153.747 1.307 2.24 2.334 3.454 3.36 1.493 1.214 3.593 2.147 5.693 2.847 0 0 3.127-.747 5.6-2.473 5.367-3.734 5.367-7.794 5.367-7.84v-9.24a.707.707 0 0 0-.607-.7s-4.993-.607-9.847-2.054c-.186-.093-.793.047-.98 0Z"/>
    <path fill="#699EFF" d="M13.58 3.033c-4.2 1.494-9.52 2.24-9.52 2.24-.327.047-.607.374-.607.747v8.353c0 .094.14 1.914 1.354 4.014.7 1.26 2.193 2.38 3.36 3.36 1.446 1.213 3.22 2.146 5.273 2.8l.187.046.186-.046c2.054-.654 3.78-1.587 5.227-2.8 1.167-.98 2.66-2.1 3.36-3.36 1.26-2.147 1.353-3.967 1.353-4.06V5.973c0-.326-.28-.7-.606-.746-.047.046-4.667-.7-9.567-2.194Z"/>
    <path fill="#DAE9FF" d="M12.693 8.82c.14-.513.7-.887 1.214-.887h1.4c.513 0 .746.374.56.84L14.7 11.527h1.073c1.54 0 1.96.933.98 2.1L13.02 17.92c-.327.373-.98.467-1.26.28l1.773-4.2H11.9c-.513 0-.793-.373-.653-.887l1.446-4.293Z"/>
    <path fill="#fff" d="M11.76 8.82c.14-.513.7-.887 1.213-.887h1.4c.514 0 .747.374.56.84l-1.166 2.754h2.006c1.027 0 1.307.653.654 1.4L12.04 18.06c-.327.373-.513.327-.373-.187L12.6 14h-1.633c-.514 0-.794-.373-.654-.887L11.76 8.82Z"/>
    <path fill="#FF5F5F" d="m25.48 23.987-.607-.607a4.48 4.48 0 0 0 .887-2.707c0-2.52-2.053-4.573-4.62-4.573s-4.62 2.053-4.62 4.573c0 2.52 2.053 4.574 4.62 4.574 1.027 0 1.96-.374 2.707-.887l.606.607c.28.28.7.28.98 0s.28-.7.047-.98Z"/>
    <path fill="#fff" d="M18.247 20.627c0 .755.305 1.479.847 2.013a2.918 2.918 0 0 0 2.046.833c.767 0 1.503-.3 2.046-.833a2.824 2.824 0 0 0 .847-2.013c0-.755-.305-1.48-.847-2.013a2.917 2.917 0 0 0-2.046-.834c-.767 0-1.503.3-2.046.834a2.824 2.824 0 0 0-.847 2.013Z"/>
    <path fill="#FFD6C2" d="M21.42 19.32c.233 0 .42-.187.42-.42a.418.418 0 0 0-.42-.42.418.418 0 0 0-.42.42c0 .233.187.42.42.42Z"/>
    <defs>
        <linearGradient id="SecurityChecker_svg__a" x1="13.58" x2="13.58" y1="23.775" y2="25.174">
            <stop stop-color="#3E7DEF" stop-opacity=".29"/>
            <stop offset="1" stop-color="#8DB3F9" stop-opacity="0"/>
        </linearGradient>
    </defs>
</svg>
