<svg fill="none" viewBox="0 0 36 36" xmlns="http://www.w3.org/2000/svg"><path d="m15.462 32.82a3.063 3.063 0 0 0 2.065 0c4.558-1.625 6.205-2.953 6.205-2.953 4.737-3.36 4.779-7.77 4.779-7.77v-13.925c0-.682-.534-1.269-1.19-1.294-3.363-.124-8.318-2.692-10.131-3.698a1.433 1.433 0 0 0 -1.394 0c-1.813 1.004-6.766 3.575-10.13 3.7-.657.025-1.19.612-1.19 1.294v13.923s.04 4.412 4.778 7.771c.003 0 1.65 1.328 6.208 2.954z" fill="#42cf00"/><path d="m15.633 30.298a2.57 2.57 0 0 0 1.725 0c3.806-1.356 5.181-2.466 5.181-2.466 3.956-2.805 3.992-6.49 3.992-6.49v-11.472c0-.571-.448-1.058-.993-1.08-2.808-.103-6.945-2.25-8.458-3.087a1.198 1.198 0 0 0 -1.163 0c-1.513.838-5.65 2.984-8.458 3.087-.546.018-.993.509-.993 1.08v11.472s.036 3.685 3.991 6.49c-.006 0 1.37 1.11 5.176 2.466z" fill="#46dc00"/><path d="m15.61 20.94a.873.873 0 0 1 -.629-.27l-3.141-3.27a.95.95 0 0 1 0-1.308.864.864 0 0 1 1.259 0l2.512 2.612 5.077-5.28a.864.864 0 0 1 1.259 0 .95.95 0 0 1 0 1.309l-5.707 5.934a.846.846 0 0 1 -.63.273z" fill="#fff"/><path d="m31.165 31.029-.78-.78a5.76 5.76 0 0 0 1.14-3.48c0-3.24-2.64-5.88-5.94-5.88s-5.94 2.64-5.94 5.88 2.64 5.88 5.94 5.88c1.32 0 2.52-.48 3.48-1.14l.78.78c.36.36.9.36 1.26 0s.36-.9.06-1.26z" fill="#ff5f5f"/><path d="m21.864 26.708c0 .97.392 1.902 1.09 2.588a3.752 3.752 0 0 0 2.63 1.072 3.75 3.75 0 0 0 2.63-1.072 3.63 3.63 0 0 0 1.09-2.588 3.63 3.63 0 0 0 -1.09-2.588 3.751 3.751 0 0 0 -2.63-1.072c-.986 0-1.933.386-2.63 1.072a3.63 3.63 0 0 0 -1.09 2.588z" fill="#fff"/><path d="m25.945 25.027c.3 0 .54-.24.54-.54s-.24-.54-.54-.54-.54.24-.54.54.24.54.54.54z" fill="#ffd6c2"/></svg>