<svg xmlns="http://www.w3.org/2000/svg" viewBox="0 0 19 18">
    <g clip-path="url('#shared_svg__a')">
        <path fill="#fff" fill-rule="evenodd" d="M16.845 3.382 2.925 7.926l3.397 2.032a.75.75 0 0 1 .365.643v2.277l2.3-.933a.75.75 0 0 1 .648.041l5.208 2.92zm.339-1.372a.75.75 0 0 1 .971.84l-2.239 12.89a.75.75 0 0 1-1.106.525L9.237 13.14l-2.718 1.1a.75.75 0 0 1-1.032-.695v-2.69L1.46 8.45a.75.75 0 0 1 .152-1.357l15.57-5.082ZM14.68 5.656a.6.6 0 0 1-.06.846l-4.234 3.679a.6.6 0 0 1-.787-.906l4.234-3.679a.6.6 0 0 1 .847.06" clip-rule="evenodd"/>
    </g>
    <defs>
        <clipPath id="shared_svg__a">
            <path fill="#fff" d="M.5 0h18v18H.5z"/>
        </clipPath>
    </defs>
</svg>
