<svg xmlns="http://www.w3.org/2000/svg" fill="none" viewBox="0 0 24 24">
    <circle cx="12" cy="12" r="12" fill="#000"/>
    <path fill="#1eefa4" fill-rule="evenodd" d="M5 9.308A4.31 4.31 0 0 1 9.308 5h5.384A4.31 4.31 0 0 1 19 9.308v5.384A4.31 4.31 0 0 1 14.692 19H9.308A4.31 4.31 0 0 1 5 14.692zm4.308-2.585h5.384a2.585 2.585 0 0 1 2.585 2.585v5.384a2.585 2.585 0 0 1-2.585 2.585H9.308a2.585 2.585 0 0 1-2.585-2.585V9.308a2.585 2.585 0 0 1 2.585-2.585m4.953 2.8c-.595 0-1.077.483-1.077 1.077v.431c0 .595.482 1.077 1.077 1.077h.431c.595 0 1.077-.482 1.077-1.077v-.43c0-.595-.482-1.078-1.077-1.078zm-1.077 4.954c0-.595.482-1.077 1.077-1.077h.431c.595 0 1.077.482 1.077 1.077v.43c0 .595-.482 1.078-1.077 1.078h-.43a1.077 1.077 0 0 1-1.078-1.077z" clip-rule="evenodd"/>
</svg>
