<svg viewBox="0 0 24 24" xmlns="http://www.w3.org/2000/svg" xmlns:xlink="http://www.w3.org/1999/xlink"><linearGradient id="a" x1="12" x2="12" y1="2" y2="22"><stop offset="0" stop-color="#f7931e"/><stop offset="1" stop-color="#fbb03b"/></linearGradient><path clip-rule="evenodd" d="m12 2c-5.523 0-10 4.477-10 10v8.505c0 .825.67 1.495 1.495 1.495h8.505c5.523 0 10-4.477 10-10s-4.477-10-10-10z" fill="url(#a)" fill-rule="evenodd"/><path d="m7.673 16.718a.696.696 0 0 1 .002-.983l.735-.735-.056-.093a3.558 3.558 0 0 1 -.448-1.102 3.152 3.152 0 0 1 -.09-.911.7.7 0 0 1 1.217-.404.7.7 0 0 1 .173.498c-.003.17.017.339.057.504.088.4.288.768.577 1.058a1.589 1.589 0 0 0 1.16.51.73.73 0 0 0 .543-.251c.275-.342.238-.825-.152-2.068l-.092-.286a6.772 6.772 0 0 1 -.417-2.01 2.168 2.168 0 0 1 1.936-2.11c.6-.052 1.199.089 1.71.403l.092.054.74-.74a.7.7 0 0 1 .956.026.695.695 0 0 1 .027.957l-.736.736.056.092c.21.34.36.713.448 1.102.074.298.104.605.09.912a.699.699 0 0 1 -1.225.42.695.695 0 0 1 -.163-.512c.003-.17-.017-.34-.058-.505a2.137 2.137 0 0 0 -.575-1.06 1.586 1.586 0 0 0 -1.16-.51.735.735 0 0 0 -.544.251c-.274.341-.239.825.154 2.068l.09.285c.24.644.38 1.322.417 2.01a2.163 2.163 0 0 1 -1.935 2.11 2.802 2.802 0 0 1 -1.709-.403l-.092-.055-.741.741a.7.7 0 0 1 -.76.153.693.693 0 0 1 -.225-.151h-.003z" fill="#fff"/></svg>