<svg xmlns="http://www.w3.org/2000/svg" viewBox="0 0 28 28">
    <path fill="url(#Transak_svg__a)" d="M7.363 22.32a1.75 1.75 0 0 1-1.75-1.75v-9.718c0-.966.784-1.75 1.75-1.75h16.57c.967 0 1.75.784 1.75 1.75v9.717a1.75 1.75 0 0 1-1.75 1.75H7.364Z" opacity=".6"/>
    <g filter="url(#Transak_svg__b)">
        <path fill="url(#Transak_svg__c)" fill-opacity=".9" d="M20.637 5.68c.966 0 1.75.784 1.75 1.75v9.718a1.75 1.75 0 0 1-1.75 1.75H4.067a1.75 1.75 0 0 1-1.75-1.75V7.43c0-.967.783-1.75 1.75-1.75h16.57Z"/>
    </g>
    <path fill="#fff" d="M2.316 8.133h20.07v2.653H2.317V8.133Z" opacity=".3"/>
    <circle cx="18.425" cy="16.095" r="1.3" fill="#FF601C" opacity=".8"/>
    <circle cx="19.724" cy="16.095" r="1.3" fill="#FFD977" opacity=".8"/>
    <defs>
        <linearGradient id="Transak_svg__a" x1="6.746" x2="25.684" y1="22.319" y2="10.064">
            <stop stop-color="#85C1FF"/>
            <stop offset="1" stop-color="#2353FF"/>
        </linearGradient>
        <linearGradient id="Transak_svg__c" x1="22.387" x2="2.316" y1="6.561" y2="18.897">
            <stop stop-color="#C9A8FF"/>
            <stop offset=".466" stop-color="#5C70FF"/>
            <stop offset="1" stop-color="#0B53FF"/>
        </linearGradient>
        <filter id="Transak_svg__b" width="26.07" height="19.217" x="-.684" y="2.681" color-interpolation-filters="sRGB">
            <feFlood flood-opacity="0" result="BackgroundImageFix"/>
            <feGaussianBlur in="BackgroundImage"/>
            <feComposite in2="SourceAlpha" operator="in" result="effect1_backgroundBlur_1060_927"/>
            <feBlend in="SourceGraphic" in2="effect1_backgroundBlur_1060_927" result="shape"/>
        </filter>
    </defs>
</svg>
