<svg viewBox="0 0 24 24" xmlns="http://www.w3.org/2000/svg" xmlns:xlink="http://www.w3.org/1999/xlink"><linearGradient id="a" x1="12" x2="12" y1="3" y2="21"><stop offset="0" stop-color="#14008c"/><stop offset="1" stop-color="#45a3fb"/></linearGradient><rect fill="url(#a)" height="18" rx="2" width="18" x="3" y="3"/><path d="m11.652 9.712c-.26.575-.679.848-1.255.818.301.285.474.59.518.914s-.074.683-.352 1.076c-.144.2-.3.359-.47.476a1.425 1.425 0 0 1 -.519.232 1.7 1.7 0 0 1 -.586.011 3.062 3.062 0 0 1 -.634-.16 6.237 6.237 0 0 1 -.69-.309l-.66 1.143-.69-.399.649-1.124c-.24-.139-.42-.245-.545-.32l-.652 1.129-.69-.399.66-1.143a21.419 21.419 0 0 1 -.24-.142 21.187 21.187 0 0 0 -.246-.144l-.896-.518.612-.74.498.288c.15.086.28.06.392-.079l1.784-3.092c.079-.226.004-.404-.223-.535l-.497-.288.424-.735.948.553c.19.11.337.193.437.247l.652-1.13.69.399-.639 1.107c.249.136.433.238.552.307l.634-1.098.69.398-.652 1.13c.224.157.414.311.57.463.155.151.285.316.39.494.104.178.16.365.167.563.008.197-.037.4-.132.607zm-2.374 1.888a.69.69 0 0 0 .098-.326.777.777 0 0 0 -.047-.302.982.982 0 0 0 -.178-.285 2.517 2.517 0 0 0 -.246-.253 3.045 3.045 0 0 0 -.308-.232 5.55 5.55 0 0 0 -.594-.354l-.215-.118-.875 1.514.165.098.214.127a6.818 6.818 0 0 0 .514.264c.077.035.17.071.277.11a1.754 1.754 0 0 0 .552.11.717.717 0 0 0 .255-.033.687.687 0 0 0 .388-.32zm.913-2.317a.68.68 0 0 0 .096-.295.722.722 0 0 0 -.028-.267.774.774 0 0 0 -.143-.25 1.783 1.783 0 0 0 -.204-.216 2.85 2.85 0 0 0 -.255-.195 3.014 3.014 0 0 0 -.253-.161 40.23 40.23 0 0 1 -.423-.236l-.795 1.376.154.092a5.545 5.545 0 0 0 .437.24c.102.053.188.092.261.118s.16.054.26.084.188.044.265.043a1.49 1.49 0 0 0 .235-.025.497.497 0 0 0 .22-.103.719.719 0 0 0 .173-.205z" fill="#fff"/><path d="m18.193 10.537h.226v5.599h-.226zm-4.164 0h.226v6.223h-.226z" fill="#ff306c"/><path d="m16.111 13.398h.226v4.513h-.226zm-4.164 1.227h.226v4.935h-.226z" fill="#30ff8f"/><path d="m17.711 11.623h1.191v3.442h-1.191zm-4.164.121h1.191v3.826h-1.191z" fill="#ff306c"/><path d="m15.629 14.625h1.191v2.216h-1.191zm-4.164 1.225h1.191v2.641h-1.191z" fill="#30ff8f"/></svg>