<svg xmlns="http://www.w3.org/2000/svg" viewBox="-3 -3 24 24">
    <g xmlns="http://www.w3.org/2000/svg" fill="#fff" fill-rule="evenodd" clip-rule="evenodd">
        <path d="M9.002.938c.456 0 .94.063 1.338.208l.005.002 3.742 1.402c.56.21 1.038.63 1.373 1.114.335.485.56 1.08.56 1.678v5.572c0 .555-.18 1.154-.441 1.675-.263.522-.637 1.024-1.082 1.356l-3.224 2.407c-.644.483-1.468.709-2.265.709-.798 0-1.622-.226-2.265-.709l-3.224-2.407c-.445-.332-.82-.834-1.082-1.356-.263-.521-.442-1.12-.442-1.675V5.342c0-.595.226-1.189.56-1.672.335-.482.813-.903 1.372-1.112h.001l3.741-1.41h.002c.393-.148.875-.21 1.331-.21ZM8.065 2.2 4.322 3.61c-.302.113-.609.364-.842.7-.233.337-.36.711-.36 1.03v5.573c0 .331.113.756.322 1.17.208.414.482.76.75.96m0 0 3.226 2.408c.414.312.989.484 1.59.484.6 0 1.175-.172 1.59-.484l3.225-2.408c.268-.2.542-.546.75-.96.209-.414.322-.839.322-1.17V5.342c0-.325-.127-.7-.36-1.038-.233-.337-.54-.587-.842-.7l-3.74-1.402c-.24-.087-.583-.14-.951-.14-.37 0-.708.054-.937.14"/>
        <path d="M11.617 6.485c.22.22.22.576 0 .796l-3.225 3.225a.563.563 0 0 1-.795 0L6.389 9.298a.563.563 0 0 1 .796-.795l.81.81 2.827-2.828c.22-.22.576-.22.795 0Z"/>
    </g>
</svg>
