<svg xmlns="http://www.w3.org/2000/svg" viewBox="0 0 28 28">
    <path fill-rule="evenodd" d="M16.882 10.056c0-.38.133-.996.498-1.477.308-.408.86-.832 2.007-.832 1.238 0 1.862.401 2.19.746.352.372.483.809.506 1.042v3.407a1.54 1.54 0 0 0 3.082 0V9.433l-.002-.045c-.052-.867-.427-2.04-1.35-3.013-.966-1.018-2.429-1.707-4.426-1.707-2.09 0-3.56.859-4.466 2.054-.849 1.122-1.12 2.43-1.12 3.334v2.5q0 .201.048.386H5.71a1.54 1.54 0 0 0-1.54 1.539v7.311c0 .85.69 1.54 1.54 1.54h13.1a1.54 1.54 0 0 0 1.54-1.54v-7.311c0-.85-.69-1.54-1.54-1.54h-1.975a1.5 1.5 0 0 0 .048-.384z" clip-rule="evenodd"/>
</svg>
