<svg xmlns="http://www.w3.org/2000/svg" fill="none" viewBox="0 0 20 21">
    <g clip-path="url(#VerifiedCollection_svg__a)">
        <path fill="#39CF92" d="M18.336 8.273V5.696l-2.237-1.292-1.286-2.23h-2.577L10 .883 7.77 2.174H5.193L3.9 4.404 1.664 5.696v2.577L.38 10.503l1.292 2.23v2.578l2.236 1.285L5.2 18.832h2.577l2.23 1.286 2.237-1.285h2.57l1.286-2.237 2.237-1.285v-2.577l1.285-2.23-1.285-2.231Z"/>
        <path fill="#fff" fill-rule="evenodd" d="M14.748 7.813a.625.625 0 0 1 0 .884L9.026 14.42a.625.625 0 0 1-.884 0l-2.674-2.674a.625.625 0 0 1 .884-.884l2.232 2.232 5.28-5.28a.625.625 0 0 1 .884 0Z" clip-rule="evenodd"/>
    </g>
    <defs>
        <clipPath id="VerifiedCollection_svg__a">
            <path fill="#fff" d="M0 0h20v20H0z" transform="translate(0 .5)"/>
        </clipPath>
    </defs>
</svg>
