<svg fill="none" viewBox="0 0 24 25" xmlns="http://www.w3.org/2000/svg" xmlns:xlink="http://www.w3.org/1999/xlink"><linearGradient id="a"><stop offset="0" stop-color="#0041b9"/><stop offset="1" stop-color="#1c68f3"/></linearGradient><linearGradient id="b" gradientUnits="userSpaceOnUse" x1="7.302" x2="7.302" xlink:href="#a" y1="3.448" y2="8.288"/><linearGradient id="c" gradientUnits="userSpaceOnUse" x1="1" x2="23" y1="14.881" y2="14.881"><stop offset="0" stop-color="#1c68f3" stop-opacity=".2"/><stop offset="1" stop-color="#2d29fd" stop-opacity=".2"/></linearGradient><linearGradient id="d" gradientUnits="userSpaceOnUse" x1="12" x2="12" y1="7.672" y2="22.091"><stop offset="0" stop-color="#fff" stop-opacity="0"/><stop offset="1" stop-color="#fff" stop-opacity=".8"/></linearGradient><linearGradient id="e" gradientUnits="userSpaceOnUse" x1="15.277" x2="15.277" xlink:href="#a" y1="12.77" y2="18.345"/><linearGradient id="f" gradientUnits="userSpaceOnUse" x1="17.304" x2="21.359" y1="17.331" y2="17.331"><stop offset="0" stop-color="#43e97b"/><stop offset="1" stop-color="#38f9d7"/></linearGradient><circle cx="7.302" cy="5.868" fill="url(#b)" r="2.42"/><rect fill="#fff" height="14.419" rx="2" width="22" x="1" y="7.672"/><rect fill="url(#c)" height="14.419" rx="2" width="22" x="1" y="7.672"/><rect fill="url(#d)" height="14.419" rx="2" width="22" x="1" y="7.672"/><path d="m16.156 18.345-.892-4.061-.902 4.061h-1.544l-1.596-5.575h1.596l.886 4 .82-4h1.506l.866 4.015.887-4.015h1.549l-1.648 5.575z" fill="url(#e)"/><path d="m18.67 15.802c-.13.145-.191.338-.186.58h-1.074c.01-.244.06-.476.15-.696.094-.192.242-.37.444-.533.151-.115.33-.203.538-.264a2.74 2.74 0 0 1 .764-.092c.56 0 1.012.122 1.354.367.345.242.518.568.518.977 0 .29-.102.535-.307.734-.13.124-.265.209-.405.254.105 0 .256.076.453.228.294.228.44.54.44.937 0 .416-.172.783-.517 1.1-.342.315-.85.472-1.524.472-.83 0-1.407-.228-1.73-.683-.17-.242-.264-.559-.283-.95h1.132c0 .197.038.36.113.489.14.237.395.356.764.356a.938.938 0 0 0 .59-.193c.17-.132.255-.32.255-.564 0-.324-.156-.54-.469-.649-.178-.06-.458-.091-.84-.091v-.693c.374-.004.635-.035.784-.091.256-.096.384-.288.384-.578a.585.585 0 0 0 -.199-.458c-.129-.118-.312-.176-.55-.176-.272 0-.471.072-.598.217z" fill="url(#f)"/></svg>