<svg xmlns="http://www.w3.org/2000/svg" viewBox="0 0 31 22">
    <linearGradient id="Web3Profile_svg__a" x1="12.5" x2="12.5" y1=".867" y2="17.367">
        <stop offset="0" stop-color="#0041b9"/>
        <stop offset="1" stop-color="#1c68f3"/>
    </linearGradient>
    <linearGradient id="Web3Profile_svg__b" x1="18.5" x2="30.5" y1="14.367" y2="14.367">
        <stop offset="0" stop-color="#43e97b"/>
        <stop offset="1" stop-color="#38f9d7"/>
    </linearGradient>
    <g xmlns="http://www.w3.org/2000/svg" fill="none">
        <path fill="url(#Web3Profile_svg__a)" d="m15.1 17.367-2.639-12.02-2.67 12.02H5.223L.5.867h4.723l2.624 11.838L10.27.867h4.46l2.562 11.883L19.916.867H24.5l-4.877 16.5z"/>
        <path fill="url(#Web3Profile_svg__b)" d="M22.544 9.841q-.574.643-.55 1.718H18.81q.048-1.085.443-2.06.419-.854 1.316-1.577a4.8 4.8 0 0 1 1.591-.784q.921-.27 2.261-.27 2.49-.001 4.008 1.084 1.532 1.075 1.532 2.894 0 1.285-.91 2.17-.574.553-1.196.753.467 0 1.34.674 1.305 1.014 1.304 2.772 0 1.85-1.531 3.256-1.52 1.396-4.51 1.396-3.685 0-5.122-2.02-.753-1.075-.837-2.812h3.35q0 .874.335 1.446.622 1.055 2.261 1.055 1.005 0 1.747-.572.754-.584.754-1.668 0-1.437-1.388-1.92-.79-.27-2.489-.27v-2.05q1.664-.02 2.321-.271 1.137-.421 1.137-1.708 0-.834-.586-1.357-.574-.522-1.627-.522-1.209 0-1.771.643z"/>
    </g>
</svg>
