<svg viewBox="0 0 31 22" xmlns="http://www.w3.org/2000/svg" xmlns:xlink="http://www.w3.org/1999/xlink"><linearGradient id="a" x1="12.5" x2="12.5" y1=".867" y2="17.367"><stop offset="0" stop-color="#0041b9"/><stop offset="1" stop-color="#1c68f3"/></linearGradient><linearGradient id="b" x1="18.5" x2="30.5" y1="14.367" y2="14.367"><stop offset="0" stop-color="#43e97b"/><stop offset="1" stop-color="#38f9d7"/></linearGradient><g fill="none" xmlns="http://www.w3.org/2000/svg"><path d="m15.1 17.367-2.639-12.02-2.67 12.02h-4.568l-4.723-16.5h4.723l2.624 11.838 2.423-11.838h4.46l2.562 11.883 2.624-11.883h4.584l-4.877 16.5z" fill="url(#a)"/><path d="m22.544 9.841c-.383.429-.566 1.001-.55 1.718h-3.184c.032-.723.18-1.41.443-2.06.279-.569.718-1.095 1.316-1.577a4.843 4.843 0 0 1 1.591-.784c.614-.18 1.368-.27 2.261-.27 1.66 0 2.995.36 4.008 1.084 1.021.717 1.532 1.681 1.532 2.894 0 .857-.303 1.58-.91 2.17-.383.368-.781.62-1.196.753.311 0 .758.225 1.34.674.87.676 1.304 1.6 1.304 2.772 0 1.233-.51 2.318-1.531 3.256-1.013.93-2.517 1.396-4.51 1.396-2.457 0-4.164-.673-5.122-2.02-.502-.716-.781-1.654-.837-2.812h3.35c0 .582.112 1.065.335 1.446.415.704 1.168 1.055 2.261 1.055.67 0 1.252-.19 1.747-.572.502-.389.754-.945.754-1.668 0-.958-.463-1.598-1.388-1.92-.527-.18-1.356-.27-2.489-.27v-2.05c1.109-.013 1.883-.104 2.321-.271.758-.281 1.137-.85 1.137-1.708 0-.556-.195-1.008-.586-1.357-.383-.348-.925-.522-1.627-.522-.806 0-1.396.214-1.771.643z" fill="url(#b)"/></g></svg>