<svg xmlns="http://www.w3.org/2000/svg" viewBox="0 0 36 18">
    <rect width="36" height="18" fill="#7e73ef" rx="6"/>
    <g fill="#fff">
        <path d="M11.42 12.14c-.41 0-.75-.34-.75-.75v-.63c0-.41.34-.75.75-.75s.75.34.75.75v.63c0 .41-.34.75-.75.75"/>
        <path d="M11.42 14.62c-.38 0-.76-.12-1.05-.37l-.79-.68s-.15-.07-.2-.07h-.86c-.89 0-1.62-.73-1.62-1.62v-.85s-.05-.16-.08-.2l-.66-.78c-.5-.59-.5-1.51 0-2.09l.67-.79s.07-.15.07-.2v-.84c0-.89.73-1.62 1.62-1.62h.86s.16-.04.19-.07l.78-.67c.59-.5 1.51-.51 2.11 0l.79.68s.15.07.2.07h.84c.89 0 1.62.73 1.62 1.62v.84s.04.16.07.19l.67.78c.5.59.5 1.51 0 2.11l-.68.79s-.07.15-.07.2v.84c0 .89-.73 1.62-1.62 1.62h-.84s-.16.04-.19.07l-.78.67c-.29.25-.67.38-1.05.38zM8.53 5.83c-.16 0-.3.14-.3.3v.85c0 .35-.16.77-.38 1.04l-.67.79c-.08.09-.08.29 0 .39l.67.79c.23.27.39.7.39 1.05v.85c0 .16.14.3.3.3h.86c.36 0 .79.16 1.06.4l.78.67c.09.08.29.08.39 0l.78-.67c.26-.23.7-.39 1.06-.39h.84c.16 0 .29-.14.29-.3v-.84c0-.36.16-.79.4-1.06l.67-.78c.08-.09.08-.29 0-.39L15 8.05c-.23-.27-.39-.7-.39-1.06v-.84c0-.16-.14-.3-.29-.3h-.84c-.36 0-.79-.16-1.06-.39l-.78-.67c-.09-.08-.29-.08-.39 0l-.78.67c-.27.23-.7.39-1.06.39h-.86zm15.26 6.75h-.05a.85.85 0 0 1-.41-.15c-.04-.03-.08-.06-.11-.1a.75.75 0 0 1-.18-.48V7.59c0-.41.34-.75.75-.75s.75.34.75.75v2.43l4.38-4.38c.29-.29.77-.29 1.06 0s.29.77 0 1.06l-4.38 4.38h2.43c.41 0 .75.34.75.75s-.34.75-.75.75z"/>
    </g>
</svg>
