<svg xmlns="http://www.w3.org/2000/svg" viewBox="0 0 36 18">
    <rect width="36" height="18" fill="#292929" rx="6"/>
    <path fill="#fff" d="m20.71 5.75-2.28-.85c-.24-.09-.62-.09-.86 0l-2.28.85c-.44.17-.79.68-.79 1.15v3.36c0 .33.22.78.48.98l2.28 1.7c.41.3 1.07.3 1.47 0l2.28-1.7c.27-.21.49-.65.49-.98V6.9c0-.47-.36-.98-.79-1.15m-1.18 2.41-1.78 1.79c-.08.08-.19.12-.31.12s-.23-.04-.31-.12l-.66-.68a.43.43 0 0 1 0-.61c.08-.08.19-.13.3-.13s.22.05.3.13l.36.35 1.47-1.47a.44.44 0 0 1 .62 0c.08.08.12.19.12.31s-.04.23-.12.31z"/>
</svg>
