<svg viewBox="0 0 36 18" xmlns="http://www.w3.org/2000/svg"><rect fill="#ff7a87" height="18" rx="6" width="36"/><g fill="#fff"><path d="m15.18 5.32-2.69-1.56c-.61-.34-1.52-.35-2.13 0l-2.73 1.58c-1.11.75-1.27.94-1.27 2.24v2.83c0 1.3.16 1.5 1.31 2.27l2.68 1.55c.31.18.69.26 1.07.26s.77-.09 1.07-.26l2.73-1.58c1.11-.75 1.27-.94 1.27-2.24v-2.83c0-1.3-.16-1.5-1.3-2.26zm-.02 5.09q0 .69-.64 1.13l-2.69 1.55c-.2.11-.61.11-.81 0l-2.65-1.53q-.69-.46-.69-1.14v-2.83q0-.69.65-1.13l2.68-1.55c.11-.05.26-.09.4-.09s.31.04.4.09l2.65 1.53q.69.46.69 1.14v2.83z"/><path d="m12.77 9.16-.25.3.03.38c.01.22-.07.4-.22.51a.48.48 0 0 1 -.31.1c-.08 0-.16-.02-.25-.05l-.36-.15-.36.15c-.19.07-.4.06-.55-.05a.586.586 0 0 1 -.22-.51l.02-.38-.25-.3a.584.584 0 0 1 -.13-.54c.06-.18.21-.31.42-.36l.38-.1.21-.33c.12-.18.32-.28.48-.28.18 0 .36.1.47.28l.21.33.37.09c.21.05.36.18.42.36s.02.37-.12.54z"/><path d="m28.89 5.42h.05c.15.01.29.07.41.15.04.03.08.06.11.1.11.13.18.3.18.48v4.25c0 .41-.34.75-.75.75s-.75-.34-.75-.75v-2.43l-4.38 4.38c-.29.29-.77.29-1.06 0s-.29-.77 0-1.06l4.38-4.38h-2.43c-.41 0-.75-.34-.75-.75s.34-.75.75-.75h4.24z"/></g></svg>