<svg xmlns="http://www.w3.org/2000/svg" viewBox="0 0 36 18">
    <rect width="36" height="18" fill="#ff7a87" rx="6"/>
    <g fill="#fff">
        <path d="m15.18 5.32-2.69-1.56c-.61-.34-1.52-.35-2.13 0L7.63 5.34c-1.11.75-1.27.94-1.27 2.24v2.83c0 1.3.16 1.5 1.31 2.27l2.68 1.55c.31.18.69.26 1.07.26s.77-.09 1.07-.26l2.73-1.58c1.11-.75 1.27-.94 1.27-2.24V7.58c0-1.3-.16-1.5-1.3-2.26zm-.02 5.09q0 .69-.64 1.13l-2.69 1.55c-.2.11-.61.11-.81 0l-2.65-1.53q-.69-.46-.69-1.14V7.59q0-.69.65-1.13l2.68-1.55c.11-.05.26-.09.4-.09s.31.04.4.09l2.65 1.53q.69.46.69 1.14v2.83z"/>
        <path d="m12.77 9.16-.25.3.03.38c.01.22-.07.4-.22.51a.48.48 0 0 1-.31.1c-.08 0-.16-.02-.25-.05l-.36-.15-.36.15c-.19.07-.4.06-.55-.05a.59.59 0 0 1-.22-.51l.02-.38-.25-.3a.58.58 0 0 1-.13-.54c.06-.18.21-.31.42-.36l.38-.1.21-.33c.12-.18.32-.28.48-.28.18 0 .36.1.47.28l.21.33.37.09c.21.05.36.18.42.36s.02.37-.12.54zm16.85 3.56c-.1.1-.23.15-.37.15s-.28-.05-.38-.15l-1.13-1.13a.52.52 0 0 1-.15-.38c0-.14.05-.27.15-.37.2-.2.55-.2.75 0l1.13 1.13c.21.2.21.54 0 .75"/>
        <path d="M29.16 9.17c-.03.18-.16.5-.7.67l-1.09.34c-.1.03-.22.17-.25.26l-.26.99c-.17.65-.5.79-.69.82h-.09c-.2 0-.51-.09-.81-.58l-.59-.95c-.05-.1-.21-.18-.32-.18h-.01l-1.12.06c-.67.03-.91-.25-.99-.42s-.16-.52.28-1.03l.66-.77c.07-.08.11-.26.08-.36l-.35-1.08c-.16-.54.02-.84.15-.96.13-.13.42-.31.96-.13l.99.32c.09.03.26.01.33-.05l1.04-.75c.47-.34.81-.24.97-.16s.43.31.42.89l-.03 1.28c0 .09.07.24.15.3l.83.63c.46.34.47.69.44.86"/>
    </g>
</svg>
