<svg xmlns="http://www.w3.org/2000/svg" viewBox="0 0 36 18">
    <rect width="36" height="18" fill="#6bca77" rx="6"/>
    <path fill="#fff" d="M29.05 9c0 .45-.37.81-.81.81h-1.88v1.88c0 .45-.36.81-.81.81s-.81-.36-.81-.81V9.81h-1.88c-.44 0-.81-.36-.81-.81s.37-.81.81-.81h1.88V6.31c0-.44.37-.81.81-.81s.81.37.81.81v1.88h1.88c.44 0 .81.37.81.81M14.88 5.72l-2.21-1.23c-.67-.36-1.68-.36-2.34.01L8.12 5.72c-.71.4-1.24 1.3-1.24 2.11v2.34c0 .81.53 1.72 1.24 2.11l2.21 1.23c.33.18.75.28 1.17.28s.84-.1 1.18-.28l2.2-1.23c.71-.39 1.25-1.3 1.25-2.11V7.83c0-.81-.54-1.71-1.25-2.11m-4.03 6.59-2.1-1.17c-.29-.16-.57-.63-.57-.97V8.06l2.67 1.54zM8.72 6.88s.02-.01.03-.02l2.21-1.22c.14-.08.34-.12.55-.12s.4.04.54.11l2.2 1.23s0 .01.02.01L11.5 8.48zm6.11 3.29c0 .34-.28.81-.58.97l-2.1 1.17V9.6l2.68-1.55z"/>
</svg>
