<svg xmlns="http://www.w3.org/2000/svg" viewBox="0 0 36 18">
    <rect width="36" height="18" fill="#6bca77" rx="6"/>
    <path fill="#fff" d="M28.38 5.42h.05c.15.01.29.07.41.15.04.03.08.06.11.1.11.13.18.3.18.48v4.25c0 .41-.34.75-.75.75s-.75-.34-.75-.75V7.97l-4.38 4.38c-.29.29-.77.29-1.06 0s-.29-.77 0-1.06l4.38-4.38h-2.43c-.41 0-.75-.34-.75-.75s.34-.75.75-.75h4.24zm-13.5.29-2.21-1.23c-.67-.36-1.68-.36-2.34.01L8.12 5.71c-.71.4-1.24 1.3-1.24 2.11v2.34c0 .81.53 1.72 1.24 2.11l2.21 1.23c.33.18.75.28 1.17.28s.84-.1 1.18-.28l2.2-1.23c.71-.39 1.25-1.3 1.25-2.11V7.82c0-.81-.54-1.71-1.25-2.11m-4.03 6.59-2.1-1.17c-.29-.16-.57-.63-.57-.97V8.05l2.67 1.54zM8.72 6.87s.02-.01.03-.02l2.21-1.22c.14-.08.34-.12.55-.12s.4.04.54.11l2.2 1.23s0 .01.02.01L11.5 8.47zm6.11 3.29c0 .34-.28.81-.58.97l-2.1 1.17V9.59l2.68-1.55z"/>
</svg>
