<svg xmlns="http://www.w3.org/2000/svg" fill="none" viewBox="0 0 48 18">
    <path fill="#79B346" d="M1.848 9.652a.83.83 0 0 1-.608-.256.88.88 0 0 1-.24-.624q0-.368.24-.608a.83.83 0 0 1 .608-.256.83.83 0 0 1 .608.256.8.8 0 0 1 .256.608.85.85 0 0 1-.256.624.83.83 0 0 1-.608.256m3.389 0a.83.83 0 0 1-.608-.256.88.88 0 0 1-.24-.624q0-.368.24-.608a.83.83 0 0 1 .608-.256.83.83 0 0 1 .608.256.8.8 0 0 1 .256.608.85.85 0 0 1-.256.624.83.83 0 0 1-.608.256m3.393 0a.83.83 0 0 1-.609-.256.88.88 0 0 1-.24-.624q0-.368.24-.608a.83.83 0 0 1 .608-.256.83.83 0 0 1 .608.256.8.8 0 0 1 .256.608.85.85 0 0 1-.256.624.83.83 0 0 1-.608.256ZM24 0c-4.959 0-9 4.041-9 9s4.041 9 9 9 9-4.041 9-9-4.041-9-9-9m4.302 6.93-5.103 5.103a.674.674 0 0 1-.954 0l-2.547-2.547a.68.68 0 0 1 0-.954.68.68 0 0 1 .954 0l2.07 2.07 4.626-4.626a.68.68 0 0 1 .954 0 .68.68 0 0 1 0 .954m11.052 2.722a.83.83 0 0 1-.608-.256.88.88 0 0 1-.24-.624q0-.368.24-.608a.83.83 0 0 1 .608-.256.83.83 0 0 1 .608.256.8.8 0 0 1 .256.608.85.85 0 0 1-.256.624.83.83 0 0 1-.608.256m3.391 0a.83.83 0 0 1-.608-.256.88.88 0 0 1-.24-.624q0-.368.24-.608a.83.83 0 0 1 .608-.256.83.83 0 0 1 .608.256.8.8 0 0 1 .255.608.85.85 0 0 1-.255.624.83.83 0 0 1-.608.256m3.39 0a.83.83 0 0 1-.608-.256.88.88 0 0 1-.24-.624q0-.368.24-.608a.83.83 0 0 1 .608-.256.83.83 0 0 1 .608.256.8.8 0 0 1 .256.608.85.85 0 0 1-.256.624.83.83 0 0 1-.608.256"/>
</svg>
