<svg viewBox="0 0 36 18" xmlns="http://www.w3.org/2000/svg"><rect fill="#ffca6f" height="18" rx="6" width="36"/><g fill="#fff"><path d="m30.15 9c0 .45-.37.81-.81.81h-1.88v1.88c0 .45-.36.81-.81.81s-.81-.36-.81-.81v-1.88h-1.88c-.44 0-.81-.36-.81-.81s.37-.81.81-.81h1.88v-1.88c0-.44.37-.81.81-.81s.81.37.81.81v1.88h1.88c.44 0 .81.37.81.81z"/><path d="m14.47 4.24c-.3-1.07-1.3-1.07-1.67-1.07h-2c-.37 0-1.37 0-1.67 1.07-1.8.3-2.58 1.43-2.58 3.68v3c0 1.94.45 3.75 3.75 3.75h3c3.29 0 3.75-1.81 3.75-3.75v-3c0-2.25-.78-3.38-2.58-3.68zm1.08 6.68c0 1.74-.3 2.25-2.25 2.25h-3c-1.96 0-2.25-.51-2.25-2.25v-3c0-1.55.36-2.01 1.13-2.18.34.93 1.27.93 1.62.93h2c1.04 0 1.46-.46 1.63-.93.76.17 1.12.64 1.12 2.18z"/><path d="m12.59 9.56h-2.74c-.27 0-.49-.28-.49-.62s.22-.62.49-.62h2.74c.27 0 .49.28.49.62s-.22.62-.49.62zm-1.02 2.29h-1.71c-.27 0-.49-.28-.49-.62s.22-.62.49-.62h1.71c.27 0 .49.28.49.62s-.22.62-.49.62z"/></g></svg>