<svg xmlns="http://www.w3.org/2000/svg" viewBox="0 0 36 18">
    <rect width="36" height="18" fill="#ffca6f" rx="6"/>
    <path fill="#fff" d="M16.6 8.47c.38 0 .69-.31.69-.69V7.3c0-2.31-.78-3.09-3.09-3.09H9.4c-2.31 0-3.09.78-3.09 3.09v.24c0 .38.31.69.69.69.28 0 .51.23.51.51s-.23.51-.51.51c-.38 0-.69.31-.69.69v.23c0 2.31.78 3.09 3.09 3.09h4.8c2.31 0 3.09-.78 3.09-3.09 0-.38-.31-.69-.69-.69-.29 0-.52-.22-.52-.5s.23-.51.52-.51m-1.9.51c0 .78.48 1.47 1.19 1.75-.06 1-.31 1.15-1.69 1.15h-2.66v-.62c0-.38-.31-.69-.7-.69s-.69.31-.69.69v.62H9.4c-1.46 0-1.67-.16-1.7-1.38.72-.29 1.2-.98 1.2-1.76s-.48-1.47-1.2-1.76c.03-1.23.24-1.39 1.7-1.39h.75v.62c0 .38.31.69.69.69s.7-.31.7-.69v-.62h2.66c1.5 0 1.7.17 1.7 1.63-.72.28-1.2.98-1.2 1.76m14.79-3.56h.05c.15.01.29.07.41.15.04.03.08.06.11.1.11.13.18.3.18.48v4.25c0 .41-.34.75-.75.75s-.75-.34-.75-.75V7.97l-4.38 4.38c-.29.29-.77.29-1.06 0s-.29-.77 0-1.06l4.38-4.38h-2.43c-.41 0-.75-.34-.75-.75s.34-.75.75-.75h4.24z"/>
</svg>
