<svg viewBox="0 0 36 18" xmlns="http://www.w3.org/2000/svg"><rect fill="#6e95ff" height="18" rx="6" width="36"/><g fill="#fff"><path d="m12.78 14.42h-2.55c-2.47 0-3.63-1.27-3.63-3.98v-2.86c0-2.75 1.12-3.98 3.63-3.98h2.55c2.51 0 3.63 1.23 3.63 3.98v2.86c0 2.75-1.12 3.98-3.63 3.98zm-2.55-9.53c-1.54 0-2.33.42-2.33 2.68v2.86c0 2.27.78 2.68 2.33 2.68h2.55c1.54 0 2.33-.42 2.33-2.68v-2.86c0-2.27-.78-2.68-2.33-2.68z"/><path d="m13.09 8.22h-3.19c-.36 0-.65-.29-.65-.65s.29-.65.65-.65h3.19c.36 0 .65.29.65.65s-.29.65-.65.65zm0 2.86h-3.19c-.36 0-.65-.29-.65-.65s.29-.65.65-.65h3.19c.36 0 .65.29.65.65s-.29.65-.65.65zm15.84-2.97-.43.47c-.86-.15-1.55-.79-1.72-1.65l.43-.46c.26-.29.53-.48.84-.48.25 0 .53.13.85.43.72.68.54 1.16.04 1.68zm-.9.97-2.36 2.5c-.08.08-.28.18-.39.2l-1.28.22c-.13.02-.23 0-.31-.07-.07-.06-.11-.17-.08-.31l.15-1.28c.01-.12.11-.32.18-.4l2.36-2.5c.3.78.93 1.39 1.74 1.64z"/></g></svg>