<svg xmlns="http://www.w3.org/2000/svg" viewBox="0 0 36 18">
    <rect width="36" height="18" fill="#6e95ff" rx="6"/>
    <g fill="#fff">
        <path d="M29.56 9c0 .45-.37.81-.81.81h-1.88v1.88c0 .45-.36.81-.81.81s-.81-.36-.81-.81V9.81h-1.88c-.44 0-.81-.36-.81-.81s.37-.81.81-.81h1.88V6.31c0-.44.37-.81.81-.81s.81.37.81.81v1.88h1.88c.44 0 .81.37.81.81m-16.78 5.42h-2.55c-2.47 0-3.63-1.27-3.63-3.98V7.58c0-2.75 1.12-3.98 3.63-3.98h2.55c2.51 0 3.63 1.23 3.63 3.98v2.86c0 2.75-1.12 3.98-3.63 3.98m-2.55-9.53c-1.54 0-2.33.42-2.33 2.68v2.86c0 2.27.78 2.68 2.33 2.68h2.55c1.54 0 2.33-.42 2.33-2.68V7.57c0-2.27-.78-2.68-2.33-2.68z"/>
        <path d="M13.09 8.22H9.9c-.36 0-.65-.29-.65-.65s.29-.65.65-.65h3.19c.36 0 .65.29.65.65s-.29.65-.65.65m0 2.86H9.9c-.36 0-.65-.29-.65-.65s.29-.65.65-.65h3.19c.36 0 .65.29.65.65s-.29.65-.65.65"/>
    </g>
</svg>
