<svg viewBox="0 0 36 18" xmlns="http://www.w3.org/2000/svg"><rect fill="#6e95ff" height="18" rx="6" width="36"/><g fill="#fff"><path d="m12.78 14.42h-2.55c-2.47 0-3.63-1.27-3.63-3.98v-2.86c0-2.75 1.12-3.98 3.63-3.98h2.55c2.51 0 3.63 1.23 3.63 3.98v2.86c0 2.75-1.12 3.98-3.63 3.98zm-2.55-9.53c-1.54 0-2.33.42-2.33 2.68v2.86c0 2.27.78 2.68 2.33 2.68h2.55c1.54 0 2.33-.42 2.33-2.68v-2.86c0-2.27-.78-2.68-2.33-2.68z"/><path d="m13.09 8.22h-3.19c-.36 0-.65-.29-.65-.65s.29-.65.65-.65h3.19c.36 0 .65.29.65.65s-.29.65-.65.65zm0 2.86h-3.19c-.36 0-.65-.29-.65-.65s.29-.65.65-.65h3.19c.36 0 .65.29.65.65s-.29.65-.65.65z"/><path d="m26.88 7.43.02-1.15c.01-.62-.39-.84-.9-.48l-.94.68c-.13.09-.36.13-.51.08l-.9-.3c-.58-.19-.9.13-.72.71l.31.99c.05.16 0 .41-.11.54l-.6.7c-.48.55-.27.97.46.94l1.02-.05c.18 0 .41.11.51.27l.54.87c.38.62.85.55 1.03-.16l.23-.9a.63.63 0 0 1 .38-.4l.98-.31c.58-.18.66-.63.17-1l-.76-.57a.625.625 0 0 1 -.23-.46zm.64 3.01 1.36 1.36c.13.13.13.35 0 .48-.07.07-.15.1-.24.1s-.17-.03-.24-.1l-1.36-1.36c-.13-.13-.13-.35 0-.48s.35-.13.48 0z" fill-rule="evenodd"/></g></svg>