<svg viewBox="0 0 36 18" xmlns="http://www.w3.org/2000/svg"><rect fill="#6e95ff" height="18" rx="6" width="36"/><g fill="#fff"><path d="m12.78 14.42h-2.55c-2.47 0-3.63-1.27-3.63-3.98v-2.86c0-2.75 1.12-3.98 3.63-3.98h2.55c2.51 0 3.63 1.23 3.63 3.98v2.86c0 2.75-1.12 3.98-3.63 3.98zm-2.55-9.53c-1.54 0-2.33.42-2.33 2.68v2.86c0 2.27.78 2.68 2.33 2.68h2.55c1.54 0 2.33-.42 2.33-2.68v-2.86c0-2.27-.78-2.68-2.33-2.68z"/><path d="m13.09 8.22h-3.19c-.36 0-.65-.29-.65-.65s.29-.65.65-.65h3.19c.36 0 .65.29.65.65s-.29.65-.65.65zm0 2.86h-3.19c-.36 0-.65-.29-.65-.65s.29-.65.65-.65h3.19c.36 0 .65.29.65.65s-.29.65-.65.65z"/><rect height="1.56" rx=".78" width="1.56" x="22.56" y="8.22"/><rect height="1.56" rx=".78" width="1.56" x="25.28" y="8.22"/><rect height="1.56" rx=".78" width="1.56" x="27.99" y="8.22"/></g></svg>