<svg viewBox="0 0 36 18" xmlns="http://www.w3.org/2000/svg"><path d="m36 6v6c0 3.32-2.68 6-6 6h-24c-3.31 0-6-2.68-6-6v-6c0-3.31 2.69-6 6-6h24c3.32 0 6 2.69 6 6z" fill="#6e95ff"/><g fill="#fff"><circle cx="11.28" cy="7.53" r="1.65"/><path d="m12.56 3.29h-2.56c-2.5 0-3.62 1.23-3.62 3.98v2.86c0 2.72 1.15 3.98 3.62 3.98h2.56c2.5 0 3.62-1.23 3.62-3.98v-2.86c0-2.75-1.12-3.98-3.62-3.98zm2.32 6.84c0 1.29-.25 1.98-.75 2.33.05-.08.07-.18.06-.28-.02-.23-.07-.45-.17-.66-.1-.24-.24-.46-.42-.65-.04-.05-.09-.1-.15-.15-.04-.05-.1-.09-.15-.13a.61.61 0 0 0 -.16-.12 2.86 2.86 0 0 0 -1.08-.48.647.647 0 0 0 -.2-.04c-.09-.02-.2-.04-.3-.04-.09-.01-.18-.02-.28-.02s-.19.01-.29.02c-.82.06-1.55.43-2.03.96-.05.04-.09.09-.13.15-.12.15-.22.32-.3.5-.09.21-.14.43-.16.66-.01.09 0 .19.05.27-.49-.35-.74-1.04-.74-2.32v-2.86c0-2.27.78-2.68 2.32-2.68h2.56c1.54 0 2.32.41 2.32 2.68zm13.53 1.51h-1.63c-.08-.3-.3-.55-.58-.67v-.68h1.04c.53 0 1.03-.2 1.42-.55.61-.53.83-1.36.59-2.17-.22-.71-.75-1.24-1.42-1.43-.22-.87-.78-1.49-1.55-1.73-.89-.26-1.9-.01-2.53.66-.54.56-.74 1.3-.57 2.1-.72.25-1.05.91-1.05 1.51 0 .73.47 1.54 1.53 1.61h1.61v.68c-.28.12-.5.37-.58.67h-1.52c-.23 0-.42.21-.42.46s.19.47.42.47h1.64c.19.31.53.51.93.51s.73-.2.92-.51h1.75c.24 0 .44-.21.44-.47s-.2-.46-.44-.46zm-2.67.83c-.28 0-.51-.22-.51-.5s.23-.5.51-.5.5.22.5.5-.23.5-.5.5z"/></g></svg>