<svg xmlns="http://www.w3.org/2000/svg" viewBox="0 0 36 18">
    <rect width="36" height="18" fill="#6e95ff" rx="6"/>
    <g fill="#fff">
        <path d="M10.19 4.5c-1.13 0-2.04.92-2.04 2.04s.86 2 1.99 2.04h.12a2.042 2.042 0 0 0-.07-4.08m2.47 5.37c-1.36-.91-3.57-.91-4.94 0-.62.41-.96.97-.96 1.57s.34 1.15.95 1.56c.68.46 1.58.69 2.47.69s1.79-.23 2.47-.69c.61-.41.95-.97.95-1.57s-.34-1.15-.95-1.56zm2.21-3.08c.07.83-.52 1.56-1.35 1.66h-.09c-.42.02-.8-.11-1.09-.36.44-.4.7-.99.64-1.63a2 2 0 0 0-.33-.94 1.55 1.55 0 0 1 2.22 1.26z"/>
        <path d="M16.51 11.06c-.04.47-.34.88-.85 1.16-.49.27-1.1.39-1.71.38.35-.32.56-.71.59-1.13.05-.6-.24-1.18-.81-1.65-.33-.26-.71-.46-1.12-.61 1.08-.31 2.43-.1 3.26.57.45.36.68.81.63 1.28z"/>
        <rect width="1.56" height="1.56" x="22.26" y="8.41" rx=".78"/>
        <rect width="1.56" height="1.56" x="24.98" y="8.41" rx=".78"/>
        <rect width="1.56" height="1.56" x="27.69" y="8.41" rx=".78"/>
    </g>
</svg>
