<svg viewBox="0 0 36 18" xmlns="http://www.w3.org/2000/svg"><rect fill="#6e95ff" height="18" rx="6" width="36"/><g fill="#fff"><path d="m28.89 9.17c0 .45-.37.81-.81.81h-5.38c-.44 0-.81-.36-.81-.81s.37-.81.81-.81h5.38c.44 0 .81.37.81.81z"/><circle cx="11.28" cy="7.53" r="1.65"/><path d="m12.56 3.29h-2.56c-2.5 0-3.62 1.23-3.62 3.98v2.86c0 2.72 1.15 3.98 3.62 3.98h2.56c2.5 0 3.62-1.23 3.62-3.98v-2.86c0-2.75-1.12-3.98-3.62-3.98zm2.32 6.84c0 1.29-.25 1.98-.75 2.33.05-.08.07-.18.06-.28-.02-.23-.07-.45-.17-.66-.1-.24-.24-.46-.42-.65-.04-.05-.09-.1-.15-.15-.04-.05-.1-.09-.15-.13a.61.61 0 0 0 -.16-.12 2.86 2.86 0 0 0 -1.08-.48.647.647 0 0 0 -.2-.04c-.09-.02-.2-.04-.3-.04-.09-.01-.18-.02-.28-.02s-.19.01-.29.02c-.82.06-1.55.43-2.03.96-.05.04-.09.09-.13.15-.12.15-.22.32-.3.5-.09.21-.14.43-.16.66-.01.09 0 .19.05.27-.49-.35-.74-1.04-.74-2.32v-2.86c0-2.27.78-2.68 2.32-2.68h2.56c1.54 0 2.32.41 2.32 2.68z"/></g></svg>