<svg xmlns="http://www.w3.org/2000/svg" viewBox="0 0 36 18">
    <rect width="36" height="18" fill="#6e95ff" rx="6"/>
    <g fill="#fff">
        <circle cx="11.28" cy="7.53" r="1.65"/>
        <path d="M12.56 3.29H10c-2.5 0-3.62 1.23-3.62 3.98v2.86c0 2.72 1.15 3.98 3.62 3.98h2.56c2.5 0 3.62-1.23 3.62-3.98V7.27c0-2.75-1.12-3.98-3.62-3.98m2.32 6.84c0 1.29-.25 1.98-.75 2.33.05-.08.07-.18.06-.28-.02-.23-.07-.45-.17-.66-.1-.24-.24-.46-.42-.65q-.06-.075-.15-.15c-.04-.05-.1-.09-.15-.13a.6.6 0 0 0-.16-.12 2.9 2.9 0 0 0-1.08-.48.7.7 0 0 0-.2-.04c-.09-.02-.2-.04-.3-.04-.09-.01-.18-.02-.28-.02s-.19.01-.29.02c-.82.06-1.55.43-2.03.96-.05.04-.09.09-.13.15-.12.15-.22.32-.3.5-.09.21-.14.43-.16.66-.01.09 0 .19.05.27-.49-.35-.74-1.04-.74-2.32V7.27c0-2.27.78-2.68 2.32-2.68h2.56c1.54 0 2.32.41 2.32 2.68zm12.96-2.02-.43.47c-.86-.15-1.55-.79-1.72-1.65l.43-.46c.26-.29.53-.48.84-.48.25 0 .53.13.85.43.72.68.54 1.16.04 1.68zm-.9.96-2.36 2.5c-.08.08-.28.18-.39.2l-1.28.22c-.13.02-.23 0-.31-.07-.07-.06-.11-.17-.08-.31l.15-1.28c.01-.12.11-.32.18-.4l2.36-2.5c.3.78.93 1.39 1.74 1.64z"/>
    </g>
</svg>
