<svg xmlns="http://www.w3.org/2000/svg" fill="none" viewBox="0 0 9 2">
    <path fill="currentColor" d="M.848 1.872a.83.83 0 0 1-.608-.256A.879.879 0 0 1 0 .992C0 .747.08.544.24.384A.83.83 0 0 1 .848.128a.83.83 0 0 1 .608.256.8.8 0 0 1 .256.608.85.85 0 0 1-.256.624.83.83 0 0 1-.608.256Zm3.391 0a.83.83 0 0 1-.608-.256.879.879 0 0 1-.24-.624c0-.245.08-.448.24-.608a.83.83 0 0 1 .608-.256.83.83 0 0 1 .608.256.8.8 0 0 1 .256.608.85.85 0 0 1-.256.624.83.83 0 0 1-.608.256Zm3.391 0a.83.83 0 0 1-.609-.256.879.879 0 0 1-.24-.624c0-.245.08-.448.24-.608A.83.83 0 0 1 7.63.128a.83.83 0 0 1 .608.256.8.8 0 0 1 .256.608.85.85 0 0 1-.256.624.83.83 0 0 1-.608.256Z"/>
</svg>
