<svg xmlns="http://www.w3.org/2000/svg" viewBox="0 0 36 18">
    <rect width="36" height="18" fill="#ff9d64" rx="6"/>
    <g fill="#fff">
        <path d="M8.06 7.92s0 .05.01.08v-.07q0-.165.06-.33c-.05.1-.07.21-.07.32m.84-1.18c-.25.16-.63.46-.77.86.15-.38.54-.75 1.1-1.03-.11.04-.23.1-.33.17m5.38.27c.15.14.27.29.36.44-.08-.15-.2-.3-.36-.44m.49.91c0-.15-.04-.31-.13-.46.08.15.12.31.12.47V8s.01-.05.01-.08m-.05-2.45c-.9-.56-2.07-.86-3.3-.86-.48 0-.94.04-1.37.14 1.59-.29 3.41-.05 4.65.72.05.03.1.06.15.1-.05-.03-.08-.07-.13-.1"/>
        <path d="M16.24 7.59c-.02-.12-.04-.24-.08-.35-.05-.17-.12-.33-.2-.48s-.17-.3-.29-.44c-.1-.13-.21-.24-.33-.35-.07-.07-.15-.14-.23-.2-.07-.06-.15-.12-.23-.17-.01 0-.02-.02-.03-.02-.05-.04-.1-.07-.15-.1-1.24-.77-3.06-1.01-4.65-.72-.15.02-.29.05-.43.09s-.28.07-.41.12c-.06.02-.11.04-.17.06-.39.15-.75.33-1.07.55-.11.07-.21.15-.31.23-.2.17-.37.34-.52.53-.08.09-.15.19-.2.29-.06.1-.11.21-.16.31s-.08.21-.11.31c-.04.11-.06.22-.08.33-.01 0-.01.01 0 .02-.01.11-.02.22-.02.34v2.27c0 1.81 2.08 3.18 4.85 3.18s4.84-1.34 4.84-3.18V7.94c0-.12-.01-.24-.02-.35m-4.82 4.3c-1.77 0-3.26-.73-3.34-1.6.87.52 2.04.82 3.33.82s2.47-.3 3.34-.84c-.06.89-1.53 1.62-3.33 1.62m3.34-3.88c-.01.19-.1.38-.25.56-.53.63-1.75 1.04-3.1 1.04S8.86 9.2 8.32 8.57c-.15-.18-.24-.37-.25-.56-.01-.03-.01-.05-.01-.08 0-.11.02-.22.07-.32.14-.4.52-.7.77-.86.1-.07.22-.13.33-.17.17-.08.34-.15.53-.21.19-.07.39-.12.6-.16a5.8 5.8 0 0 1 2.71.16c.1.03.21.06.3.11.1.04.19.09.29.13.09.04.18.09.26.14.13.08.25.18.36.27.16.14.28.29.36.44.09.16.13.32.13.47 0 .03 0 .05-.01.08"/>
        <path d="M6.56 7.92s0 .07.01.11v-.1c0-.12.01-.23.02-.34q-.03.165-.03.33m.58-1.59c.15-.19.32-.36.52-.53a2.6 2.6 0 0 0-.52.53m.96-.86s-.09.06-.13.1c.32-.22.68-.4 1.07-.55-.34.12-.66.27-.94.45m5.82 1.27c-.08-.05-.17-.1-.26-.14.09.05.17.1.26.15.13.08.26.17.36.26-.11-.09-.23-.19-.36-.27m2.35 1.18c0-.12-.01-.23-.03-.34 0 .11.02.23.02.35v.1s.01-.07.01-.11m-3.61-.19c0 .07-.06.14-.16.17l-.58.2-.31.37a.4.4 0 0 1-.28.11c-.11 0-.21-.04-.27-.11l-.32-.37-.58-.2c-.1-.04-.16-.11-.16-.17 0-.07.06-.14.16-.17l.58-.2.32-.38c.11-.13.43-.13.54 0l.31.38.58.2c.1.03.16.1.16.17zM29.5 8.95c0 .45-.37.81-.81.81h-1.88v1.88c0 .45-.36.81-.81.81s-.81-.36-.81-.81V9.76h-1.88c-.44 0-.81-.36-.81-.81s.37-.81.81-.81h1.88V6.26c0-.44.37-.81.81-.81s.81.37.81.81v1.88h1.88c.44 0 .81.37.81.81"/>
    </g>
</svg>
