<svg xmlns="http://www.w3.org/2000/svg" fill="none" viewBox="0 0 36 18">
    <rect width="36" height="18" y=".036" fill="#ff9d64" rx="6"/>
    <g fill="#fff">
        <path d="M11.523 9.403v.975a.603.603 0 0 1-.608.607.603.603 0 0 1-.607-.607v-.975a1.15 1.15 0 0 1-.41-.452h-3.39a.5.5 0 0 0-.494.494v1.738a2.845 2.845 0 0 0 2.853 2.853h4.11a2.845 2.845 0 0 0 2.854-2.853V9.445a.5.5 0 0 0-.495-.494h-3.39a1.24 1.24 0 0 1-.41.452zm1.44-5.367h-4.11A2.845 2.845 0 0 0 6 6.889v.664a.5.5 0 0 0 .494.494h3.277a1.154 1.154 0 0 1 1.455-.918c.395.099.706.424.82.82 0 .028 0 .07.013.112h3.277a.5.5 0 0 0 .495-.494v-.664a2.845 2.845 0 0 0-2.854-2.853z"/>
        <path fill-rule="evenodd" d="M21.168 9.71c.44 0 .797.357.797.797 0 1.045.214 1.154.497 1.438.284.283.808.497 1.852.497h1.743c1.044 0 1.569-.214 1.852-.497s.497-.393.497-1.438a.797.797 0 1 1 1.594 0c0 1.203-.236 1.837-.964 2.565s-1.777.964-2.98.964h-1.742c-1.202 0-2.25-.236-2.979-.964-.728-.728-.964-1.362-.964-2.564 0-.44.357-.798.797-.798" clip-rule="evenodd"/>
        <path d="M25.64 4.302c-.3-.266-.37-.266-.532-.266s-.29 0-.531.266l-1.86 1.86c-.266.265-.266.796 0 1.062s.797.266 1.063 0l.53-.531V9.91a.863.863 0 1 0 1.728 0V6.693l.531.53c.266.267.782.267 1.048 0 .266-.265.33-.817.077-1.062l-2.055-1.86z"/>
    </g>
</svg>
