<svg xmlns="http://www.w3.org/2000/svg" fill="none" viewBox="0 0 48 18">
    <path fill="#F2635A" d="M.848 9.872a.83.83 0 0 1-.608-.256.88.88 0 0 1-.24-.624q0-.368.24-.608a.83.83 0 0 1 .608-.256.83.83 0 0 1 .608.256.8.8 0 0 1 .256.608.85.85 0 0 1-.256.624.83.83 0 0 1-.608.256m3.391 0a.83.83 0 0 1-.608-.256.88.88 0 0 1-.24-.624q0-.368.24-.608a.83.83 0 0 1 .608-.256.83.83 0 0 1 .608.256.8.8 0 0 1 .256.608.85.85 0 0 1-.256.624.83.83 0 0 1-.608.256m3.391 0a.83.83 0 0 1-.609-.256.88.88 0 0 1-.24-.624q0-.368.24-.608a.83.83 0 0 1 .608-.256.83.83 0 0 1 .608.256.8.8 0 0 1 .256.608.85.85 0 0 1-.256.624.83.83 0 0 1-.608.256ZM23.494 0c-4.959 0-9 4.041-9 9s4.041 9 9 9c4.96 0 9-4.041 9-9s-4.04-9-9-9m3.024 11.07a.68.68 0 0 1 0 .954.67.67 0 0 1-.477.198.67.67 0 0 1-.477-.198l-2.07-2.07-2.07 2.07a.67.67 0 0 1-.477.198.67.67 0 0 1-.477-.198.68.68 0 0 1 0-.954L22.54 9l-2.07-2.07a.68.68 0 0 1 0-.954.68.68 0 0 1 .954 0l2.07 2.07 2.07-2.07a.68.68 0 0 1 .954 0 .68.68 0 0 1 0 .954L24.448 9zm12.824-1.198a.83.83 0 0 1-.608-.256.88.88 0 0 1-.24-.624q0-.368.24-.608a.83.83 0 0 1 .608-.256.83.83 0 0 1 .608.256.8.8 0 0 1 .256.608.85.85 0 0 1-.256.624.83.83 0 0 1-.608.256m3.391 0a.83.83 0 0 1-.608-.256.88.88 0 0 1-.24-.624q0-.368.24-.608a.83.83 0 0 1 .608-.256.83.83 0 0 1 .608.256.8.8 0 0 1 .256.608.85.85 0 0 1-.256.624.83.83 0 0 1-.608.256m3.39 0a.83.83 0 0 1-.608-.256.88.88 0 0 1-.24-.624q0-.368.24-.608a.83.83 0 0 1 .608-.256.83.83 0 0 1 .608.256q.256.24.256.608a.85.85 0 0 1-.256.624.83.83 0 0 1-.608.256"/>
</svg>
