<?xml version="1.0" encoding="utf-8"?>
<!-- Generator: Adobe Illustrator 24.3.0, SVG Export Plug-In . SVG Version: 6.00 Build 0)  -->
<svg version="1.1" id="Layer_1" xmlns="http://www.w3.org/2000/svg" xmlns:xlink="http://www.w3.org/1999/xlink" x="0px" y="0px"
	 viewBox="0 0 1988 1987.4" style="enable-background:new 0 0 1988 1987.4;" xml:space="preserve">
<style type="text/css">
	.st0{fill:#73BB59;}
	.st1{fill:#FFFFFF;}
</style>
<circle class="st0" cx="993.6" cy="993.6" r="993.6"/>
<g>
	<path class="st1" d="M1500.6,1048.9h-246.6h-131.2H826.1H694.9H486.6c-33.7,0-61.3,27.6-61.3,61.3s27.6,61.3,61.3,61.3h254.8
		L914,1627.5c9.6,25.4,34.6,40.8,60.5,39.5c25.9,1.3,50.9-14.1,60.5-39.5l172.7-455.9h293c33.7,0,61.3-27.6,61.3-61.3
		S1534.4,1048.9,1500.6,1048.9z M974.5,1440.9l-102-269.3h203.9L974.5,1440.9z"/>
	<path class="st1" d="M486.6,934.4h164.9h131.2h383.6h131.2h203.2c33.7,0,61.3-27.6,61.3-61.3s-27.6-61.3-61.3-61.3h-156.8
		l126.4-333.9c11.9-31.5-4.1-67.1-35.6-79.1s-67.1,4.1-79.1,35.6l-142.9,377.3H736.2L593.4,434.5c-11.9-31.5-47.5-47.6-79.1-35.6
		l0,0c-31.5,12-47.6,47.5-35.6,79.1l126.4,333.9H486.6c-33.7,0-61.3,27.6-61.3,61.3S452.8,934.4,486.6,934.4z"/>
</g>
</svg>
