<svg width="55" height="54" viewBox="0 0 55 54" fill="none" xmlns="http://www.w3.org/2000/svg">
<g filter="url(#filter0_bd_1645_1825)">
<rect x="12.5" y="6" width="30" height="30" rx="15" fill="#1C68F3"/>
<path fill-rule="evenodd" clip-rule="evenodd" d="M36.1927 17.5972V22.4583H21.7039L21.0805 22.4584C21.7403 25.4079 24.3588 27.6111 27.4885 27.6111C30.0759 27.6111 32.3139 26.1053 33.3846 23.9168L36.1927 23.9167V28C36.1927 28.9665 35.4143 29.75 34.4541 29.75H20.5448C19.5846 29.75 18.8062 28.9665 18.8062 28V17.5972H36.1927ZM31.717 23.9167C30.7949 25.2736 29.245 26.164 27.4885 26.164C25.7319 26.164 24.182 25.2736 23.2599 23.9167H31.717ZM23.7806 18.7639C22.4181 18.7639 21.2909 19.778 21.1035 21.0972L22.5855 21.0972C22.7485 20.5895 23.2219 20.2222 23.7806 20.2222C24.3394 20.2222 24.8128 20.5895 24.9758 21.0972L26.4578 21.0972C26.2704 19.778 25.1432 18.7639 23.7806 18.7639ZM31.2182 18.7639C29.8557 18.7639 28.7285 19.778 28.5411 21.0972L30.0231 21.0972C30.1861 20.5895 30.6595 20.2222 31.2182 20.2222C31.777 20.2222 32.2504 20.5895 32.4134 21.0972L33.8954 21.0972C33.708 19.778 32.5808 18.7639 31.2182 18.7639ZM34.4541 12.25C35.4143 12.25 36.1927 13.0335 36.1927 14V16.1389H18.8062V14C18.8062 13.0335 19.5846 12.25 20.5448 12.25H34.4541Z" fill="white"/>
</g>
<defs>
<filter id="filter0_bd_1645_1825" x="-3.5" y="-10" width="62" height="64" filterUnits="userSpaceOnUse" color-interpolation-filters="sRGB">
<feFlood flood-opacity="0" result="BackgroundImageFix"/>
<feGaussianBlur in="BackgroundImage" stdDeviation="8"/>
<feComposite in2="SourceAlpha" operator="in" result="effect1_backgroundBlur_1645_1825"/>
<feColorMatrix in="SourceAlpha" type="matrix" values="0 0 0 0 0 0 0 0 0 0 0 0 0 0 0 0 0 0 127 0" result="hardAlpha"/>
<feOffset dy="6"/>
<feGaussianBlur stdDeviation="6"/>
<feComposite in2="hardAlpha" operator="out"/>
<feColorMatrix type="matrix" values="0 0 0 0 0.109804 0 0 0 0 0.407843 0 0 0 0 0.952941 0 0 0 0.2 0"/>
<feBlend mode="normal" in2="effect1_backgroundBlur_1645_1825" result="effect2_dropShadow_1645_1825"/>
<feBlend mode="normal" in="SourceGraphic" in2="effect2_dropShadow_1645_1825" result="shape"/>
</filter>
</defs>
</svg>
