<svg width="47" height="46" viewBox="0 0 47 46" fill="none" xmlns="http://www.w3.org/2000/svg">
<g filter="url(#filter0_bd_1645_1777)">
<path fill-rule="evenodd" clip-rule="evenodd" d="M18.688 25.431L21.6359 26.2138V25.1901L21.8766 24.9492H23.5611V26.1536V26.9967H21.7562L19.5303 26.0332L18.688 25.431Z" fill="#CDBDB2"/>
<path fill-rule="evenodd" clip-rule="evenodd" d="M28.3132 25.431L25.4255 26.2138V25.1901L25.1848 24.9492H23.5003V26.1536V26.9967H25.3051L27.5311 26.0332L28.3132 25.431Z" fill="#CDBDB2"/>
<path fill-rule="evenodd" clip-rule="evenodd" d="M21.8766 23.202L21.636 25.1892L21.9368 24.9483H25.0652L25.4262 25.1892L25.1855 23.202L24.7042 22.9009L22.2978 22.9611L21.8766 23.202Z" fill="#393939"/>
<path fill-rule="evenodd" clip-rule="evenodd" d="M20.2517 9.77344L21.6956 13.1457L22.3574 22.9613H24.7037L25.4256 13.1457L26.7492 9.77344H20.2517Z" fill="#F89C35"/>
<path fill-rule="evenodd" clip-rule="evenodd" d="M13.9345 17.1806L12.25 22.0583L16.4613 21.8174H19.1686V19.7098L19.0483 15.374L18.4467 15.8558L13.9345 17.1806Z" fill="#F89D35"/>
<path fill-rule="evenodd" clip-rule="evenodd" d="M17.123 17.7227L22.0563 17.8431L21.5149 20.3723L19.1686 19.7701L17.123 17.7227Z" fill="#D87C30"/>
<path fill-rule="evenodd" clip-rule="evenodd" d="M17.123 17.7837L19.1686 19.7107V21.6377L17.123 17.7837Z" fill="#EA8D3A"/>
<path fill-rule="evenodd" clip-rule="evenodd" d="M19.1677 19.771L21.5742 20.3732L22.3563 22.9626L21.8149 23.2637L19.1677 21.698V19.771Z" fill="#F89D35"/>
<path fill-rule="evenodd" clip-rule="evenodd" d="M19.1693 21.6973L18.688 25.4308L21.8766 23.2027L19.1693 21.6973Z" fill="#EB8F35"/>
<path fill-rule="evenodd" clip-rule="evenodd" d="M22.0569 17.8423L22.3577 22.9609L21.4553 20.3414L22.0569 17.8423Z" fill="#EA8E3A"/>
<path fill-rule="evenodd" clip-rule="evenodd" d="M16.4016 21.7575L19.1691 21.6973L18.6878 25.4308L16.4016 21.7575Z" fill="#D87C30"/>
<path fill-rule="evenodd" clip-rule="evenodd" d="M13.5736 27.0551L18.6873 25.4292L16.4012 21.7559L12.25 22.057L13.5736 27.0551Z" fill="#EB8F35"/>
<path fill-rule="evenodd" clip-rule="evenodd" d="M21.6953 13.1475L19.1084 15.3153L17.123 17.7241L22.0563 17.9047L21.6953 13.1475Z" fill="#E8821E"/>
<path fill-rule="evenodd" clip-rule="evenodd" d="M18.688 25.4317L21.8766 23.2036L21.6359 25.1306V26.2145L19.4701 25.793L18.688 25.4317Z" fill="#DFCEC3"/>
<path fill-rule="evenodd" clip-rule="evenodd" d="M28.3132 25.4317L25.1848 23.2036L25.4255 25.1306V26.2145L27.5913 25.793L28.3132 25.4317Z" fill="#DFCEC3"/>
<path fill-rule="evenodd" clip-rule="evenodd" d="M20.7325 18.9263L21.3943 20.3113L19.048 19.7091L20.7325 18.9263Z" fill="#393939"/>
<path fill-rule="evenodd" clip-rule="evenodd" d="M13.5134 6.94385L21.6954 13.1464L20.3117 9.77413L13.5134 6.94385Z" fill="#E88F35"/>
<path fill-rule="evenodd" clip-rule="evenodd" d="M13.5124 6.94385L12.4294 10.2559L13.0311 13.869L12.6099 14.1099L13.2115 14.6518L12.7303 15.0734L13.392 15.6755L12.9709 16.0369L13.9335 17.2412L18.4456 15.8562C20.6516 14.0898 21.7345 13.1865 21.6944 13.1464C21.6543 13.1062 18.9269 11.0387 13.5124 6.94385Z" fill="#8E5A30"/>
<path fill-rule="evenodd" clip-rule="evenodd" d="M33.0655 17.1806L34.75 22.0583L30.5387 21.8174H27.8314V19.7098L27.9517 15.374L28.5533 15.8558L33.0655 17.1806Z" fill="#F89D35"/>
<path fill-rule="evenodd" clip-rule="evenodd" d="M29.877 17.7227L24.9437 17.8431L25.4852 20.3723L27.8315 19.7701L29.877 17.7227Z" fill="#D87C30"/>
<path fill-rule="evenodd" clip-rule="evenodd" d="M29.877 17.7837L27.8314 19.7107V21.6377L29.877 17.7837Z" fill="#EA8D3A"/>
<path fill-rule="evenodd" clip-rule="evenodd" d="M27.8323 19.771L25.4258 20.3732L24.6437 22.9626L25.1852 23.2637L27.8323 21.698V19.771Z" fill="#F89D35"/>
<path fill-rule="evenodd" clip-rule="evenodd" d="M27.8307 21.6973L28.312 25.4308L25.1836 23.263L27.8307 21.6973Z" fill="#EB8F35"/>
<path fill-rule="evenodd" clip-rule="evenodd" d="M24.9431 17.8423L24.6423 22.9609L25.5447 20.3414L24.9431 17.8423Z" fill="#EA8E3A"/>
<path fill-rule="evenodd" clip-rule="evenodd" d="M30.5984 21.7575L27.8309 21.6973L28.3122 25.4308L30.5984 21.7575Z" fill="#D87C30"/>
<path fill-rule="evenodd" clip-rule="evenodd" d="M33.4264 27.0575L28.3127 25.4316L30.5988 21.7583L34.75 22.0594L33.4264 27.0575Z" fill="#EB8F35"/>
<path fill-rule="evenodd" clip-rule="evenodd" d="M25.3047 13.1475L27.8916 15.3153L29.877 17.7241L24.9437 17.9047L25.3047 13.1475Z" fill="#E8821E"/>
<path fill-rule="evenodd" clip-rule="evenodd" d="M26.2675 18.9263L25.6057 20.3113L27.952 19.7091L26.2675 18.9263Z" fill="#393939"/>
<path fill-rule="evenodd" clip-rule="evenodd" d="M33.4866 6.94385L25.3046 13.1464L26.6883 9.77413L33.4866 6.94385Z" fill="#E88F35"/>
<path fill-rule="evenodd" clip-rule="evenodd" d="M33.4864 6.94385L34.5693 10.2559L33.9677 13.869L34.3889 14.1099L33.7872 14.6518L34.2685 15.0734L33.6067 15.6755L34.0279 16.0369L33.0653 17.2412L28.5532 15.8562C26.3472 14.0898 25.2643 13.1865 25.3044 13.1464C25.3445 13.1062 28.0719 11.0387 33.4864 6.94385Z" fill="#8E5A30"/>
</g>
<defs>
<filter id="filter0_bd_1645_1777" x="-7.5" y="-14" width="62" height="64" filterUnits="userSpaceOnUse" color-interpolation-filters="sRGB">
<feFlood flood-opacity="0" result="BackgroundImageFix"/>
<feGaussianBlur in="BackgroundImage" stdDeviation="8"/>
<feComposite in2="SourceAlpha" operator="in" result="effect1_backgroundBlur_1645_1777"/>
<feColorMatrix in="SourceAlpha" type="matrix" values="0 0 0 0 0 0 0 0 0 0 0 0 0 0 0 0 0 0 127 0" result="hardAlpha"/>
<feOffset dy="6"/>
<feGaussianBlur stdDeviation="6"/>
<feComposite in2="hardAlpha" operator="out"/>
<feColorMatrix type="matrix" values="0 0 0 0 0.847059 0 0 0 0 0.486275 0 0 0 0 0.188235 0 0 0 0.2 0"/>
<feBlend mode="normal" in2="effect1_backgroundBlur_1645_1777" result="effect2_dropShadow_1645_1777"/>
<feBlend mode="normal" in="SourceGraphic" in2="effect2_dropShadow_1645_1777" result="shape"/>
</filter>
</defs>
</svg>
