<svg width="55" height="54" viewBox="0 0 55 54" fill="none" xmlns="http://www.w3.org/2000/svg">
<g filter="url(#filter0_bd_1645_1852)">
<path d="M12.5 21C12.5 12.7157 19.2157 6 27.5 6C35.7843 6 42.5 12.7157 42.5 21C42.5 29.2843 35.7843 36 27.5 36C19.2157 36 12.5 29.2843 12.5 21Z" fill="#3B99FC"/>
<path fill-rule="evenodd" clip-rule="evenodd" d="M33.4068 17.1479C30.1453 13.9507 24.8572 13.9507 21.5956 17.1479L21.1648 17.5702C21.0017 17.7301 21.0017 17.9893 21.1648 18.1491L22.5076 19.4654C22.5891 19.5453 22.7213 19.5453 22.8029 19.4654L23.3813 18.8983C25.6567 16.6679 29.3458 16.6679 31.6211 18.8983L32.1613 19.4278C32.2428 19.5078 32.375 19.5078 32.4566 19.4278L33.7994 18.1116C33.9624 17.9517 33.9624 17.6925 33.7994 17.5327L33.4068 17.1479ZM37.3777 21.0416L36.1826 19.8701C36.0195 19.7102 35.7551 19.7102 35.5921 19.8701L31.7675 23.6191C31.7267 23.6591 31.6606 23.6591 31.6198 23.6191L27.7952 19.87L27.7952 19.87C27.6321 19.7101 27.3677 19.7101 27.2047 19.87L23.3802 23.6191C23.3395 23.6591 23.2733 23.6591 23.2326 23.6191L19.408 19.87C19.2449 19.7101 18.9805 19.7101 18.8174 19.87L17.6223 21.0415C17.4592 21.2013 17.4592 21.4605 17.6223 21.6204L23.0112 26.9028C23.1742 27.0627 23.4386 27.0627 23.6017 26.9028L27.4262 23.1538C27.467 23.1138 27.5331 23.1138 27.5739 23.1538L31.3984 26.9028C31.5615 27.0627 31.8259 27.0627 31.989 26.9028L37.3777 21.6205C37.5408 21.4606 37.5408 21.2014 37.3777 21.0416Z" fill="white"/>
</g>
<defs>
<filter id="filter0_bd_1645_1852" x="-3.5" y="-10" width="62" height="64" filterUnits="userSpaceOnUse" color-interpolation-filters="sRGB">
<feFlood flood-opacity="0" result="BackgroundImageFix"/>
<feGaussianBlur in="BackgroundImage" stdDeviation="8"/>
<feComposite in2="SourceAlpha" operator="in" result="effect1_backgroundBlur_1645_1852"/>
<feColorMatrix in="SourceAlpha" type="matrix" values="0 0 0 0 0 0 0 0 0 0 0 0 0 0 0 0 0 0 127 0" result="hardAlpha"/>
<feOffset dy="6"/>
<feGaussianBlur stdDeviation="6"/>
<feComposite in2="hardAlpha" operator="out"/>
<feColorMatrix type="matrix" values="0 0 0 0 0.109804 0 0 0 0 0.407843 0 0 0 0 0.952941 0 0 0 0.2 0"/>
<feBlend mode="normal" in2="effect1_backgroundBlur_1645_1852" result="effect2_dropShadow_1645_1852"/>
<feBlend mode="normal" in="SourceGraphic" in2="effect2_dropShadow_1645_1852" result="shape"/>
</filter>
</defs>
</svg>
