<svg xmlns="http://www.w3.org/2000/svg" fill="none" viewBox="0 0 24 24">
    <g id="across_svg__accross_svg__Across" clip-path="url('#across_svg__accross_svg__clip0_11500_2884')">
        <rect width="24" height="24" fill="#61F8D2" rx="12"/>
        <path id="across_svg__accross_svg__Vector" fill="#2D2E33" fill-rule="evenodd" d="m5.214 6.314 1.17-1.169 4.673 4.674a2.48 2.48 0 0 0-1.22 1.12zM9.75 13.08l-4.605 4.606 1.169 1.17 4.558-4.56A2.48 2.48 0 0 1 9.75 13.08m3.443 1.214 4.495 4.496 1.17-1.17-4.545-4.544a2.47 2.47 0 0 1-1.12 1.218m1.032-3.35 4.563-4.563-1.17-1.17-4.61 4.61a2.47 2.47 0 0 1 1.217 1.123" clip-rule="evenodd"/>
    </g>
    <defs>
        <clipPath id="across_svg__accross_svg__clip0_11500_2884">
            <rect width="24" height="24" fill="#fff" rx="12"/>
        </clipPath>
    </defs>
</svg>
