<svg xmlns="http://www.w3.org/2000/svg" fill="none" viewBox="0 0 24 24">
    <rect width="24" height="24" fill="#fff" rx="12"/>
    <path fill="#615CCD" d="M10.566 14.442v1.43c0 .4-.315.715-.716.715H8.42a.71.71 0 0 1-.715-.715V8.72c0-.4.315-.715.715-.715h.415c.644 0 .958-.772.5-1.216L6.79 4.215a.71.71 0 0 0-1.016 0l-2.56 2.574c-.458.444-.129 1.216.5 1.216h.415c.4 0 .715.315.715.715v10.013c0 .4.315.715.715.715h7.152c.4 0 .715-.315.715-.715V14.44c0-.4-.314-.715-.715-.715h-1.43a.717.717 0 0 0-.715.715"/>
    <path fill="#615CCD" d="M19.863 16.587a.71.71 0 0 1-.716-.715V5.86c0-.4-.314-.715-.715-.715h-7.151c-.4 0-.716.314-.716.715v4.29c0 .401.315.716.716.716h1.43c.4 0 .715-.315.715-.715V8.72c0-.401.315-.716.715-.716h1.43c.401 0 .716.315.716.715v7.152c0 .4-.315.715-.715.715h-.415c-.644 0-.959.773-.5 1.216l2.56 2.56a.71.71 0 0 0 1.015 0l2.56-2.56c.444-.443.129-1.216-.5-1.216z"/>
</svg>
