<svg xmlns="http://www.w3.org/2000/svg" fill="none" viewBox="0 0 24 24">
    <g clip-path="url('#wormhole_svg__clip0_11500_2892')">
        <rect width="24" height="24" fill="#fff" rx="12"/>
        <path fill="#000" d="M18.6 16.409a3.85 3.85 0 0 1-3.339 1.932h-2.23v-7.519l-3.217 5.589a3.85 3.85 0 0 1-3.34 1.932H4.26V7.247h4.454v7.5l4.317-7.496v-.004h4.453v7.53l4.678-8.127a1.03 1.03 0 0 0-.019-1.06A11.99 11.99 0 0 0 11.815 0 11.94 11.94 0 0 0 0 12.065C.035 18.663 5.395 24 12 24s12-5.372 12-12a12 12 0 0 0-.404-3.088.346.346 0 0 0-.633-.088l-4.365 7.582z"/>
    </g>
    <defs>
        <clipPath id="wormhole_svg__clip0_11500_2892">
            <rect width="24" height="24" fill="#fff" rx="12"/>
        </clipPath>
    </defs>
</svg>
