<svg viewBox="0 0 24 24" xmlns="http://www.w3.org/2000/svg"><g clip-rule="evenodd" fill="#fff" fill-rule="evenodd"><path d="m3 4.8a.6.6 0 0 1 .6.6v4.2h4.2a.6.6 0 1 1 0 1.2h-4.8a.6.6 0 0 1 -.6-.6v-4.8a.6.6 0 0 1 .6-.6zm12.6 9a.6.6 0 0 1 .6-.6h4.8a.6.6 0 0 1 .6.6v4.8a.6.6 0 0 1 -1.2 0v-4.2h-4.2a.6.6 0 0 1 -.6-.6z"/><path d="m9.791 3.93a7.567 7.567 0 0 1 3.971-.123 7.827 7.827 0 0 1 3.535 1.915 8.441 8.441 0 0 1 2.217 3.477c.113.337-.054.706-.373.825a.605.605 0 0 1 -.782-.394 7.141 7.141 0 0 0 -1.877-2.942 6.623 6.623 0 0 0 -2.99-1.62 6.403 6.403 0 0 0 -3.36.105 6.677 6.677 0 0 0 -2.909 1.817l-3.79 3.758a.59.59 0 0 1 -.867-.029.672.672 0 0 1 .027-.914l3.784-3.75a7.89 7.89 0 0 1 3.414-2.124zm11.643 9.35c.231.261.22.67-.027.915l-3.784 3.75a7.89 7.89 0 0 1 -3.414 2.124 7.567 7.567 0 0 1 -3.972.124 7.827 7.827 0 0 1 -3.534-1.915 8.44 8.44 0 0 1 -2.217-3.478c-.113-.337.054-.706.373-.825a.605.605 0 0 1 .782.394 7.142 7.142 0 0 0 1.876 2.942 6.624 6.624 0 0 0 2.99 1.62 6.403 6.403 0 0 0 3.361-.105 6.678 6.678 0 0 0 2.909-1.817l3.79-3.758a.59.59 0 0 1 .867.029z"/></g></svg>