<svg xmlns="http://www.w3.org/2000/svg" viewBox="0 0 24 24">
    <g fill="#1c68f3" fill-rule="evenodd" clip-rule="evenodd">
        <path d="M3 4.8a.6.6 0 0 1 .6.6v4.2h4.2a.6.6 0 1 1 0 1.2H3a.6.6 0 0 1-.6-.6V5.4a.6.6 0 0 1 .6-.6m12.6 9a.6.6 0 0 1 .6-.6H21a.6.6 0 0 1 .6.6v4.8a.6.6 0 0 1-1.2 0v-4.2h-4.2a.6.6 0 0 1-.6-.6"/>
        <path d="M9.791 3.93a7.57 7.57 0 0 1 3.971-.123 7.8 7.8 0 0 1 3.535 1.915 8.44 8.44 0 0 1 2.217 3.477c.113.337-.054.706-.373.825a.605.605 0 0 1-.782-.394 7.14 7.14 0 0 0-1.877-2.942 6.6 6.6 0 0 0-2.99-1.62 6.4 6.4 0 0 0-3.36.105A6.7 6.7 0 0 0 7.223 6.99l-3.79 3.758a.59.59 0 0 1-.867-.029.67.67 0 0 1 .027-.914l3.784-3.75a7.9 7.9 0 0 1 3.414-2.124zm11.643 9.35c.231.261.22.67-.027.915l-3.784 3.75a7.9 7.9 0 0 1-3.414 2.124 7.57 7.57 0 0 1-3.972.124 7.8 7.8 0 0 1-3.534-1.915A8.44 8.44 0 0 1 4.486 14.8c-.113-.337.054-.706.373-.825a.605.605 0 0 1 .782.394 7.14 7.14 0 0 0 1.876 2.942 6.6 6.6 0 0 0 2.99 1.62 6.4 6.4 0 0 0 3.361-.105 6.7 6.7 0 0 0 2.909-1.817l3.79-3.758a.59.59 0 0 1 .867.029"/>
    </g>
</svg>
