<svg xmlns="http://www.w3.org/2000/svg" viewBox="0 0 24 24">
    <g fill="none" clip-path="url('#SettingsLanguage_light_svg__clip1')">
        <path stroke="#1C68F3" stroke-linecap="round" stroke-linejoin="round" stroke-width="1.25" d="M12 22c5.523 0 10-4.477 10-10S17.523 2 12 2 2 6.477 2 12s4.477 10 10 10"/>
        <path fill="#1C68F3" fill-rule="evenodd" d="M1.372 12a.75.75 0 0 1 .75-.75H21.88a.75.75 0 0 1 0 1.5H2.122a.75.75 0 0 1-.75-.75" clip-rule="evenodd"/>
        <path fill="#1C68F3" fill-rule="evenodd" d="M12 1.371a.75.75 0 0 1 .75.75V21.88a.75.75 0 0 1-1.5 0V2.12a.75.75 0 0 1 .75-.75zm4.533 1.802a.75.75 0 0 1 .968.433l-.7.267.7-.267.001.002.001.003.004.01.012.033.043.12q.054.157.144.45c.118.391.274.96.428 1.686.31 1.452.617 3.536.617 6.09a29.4 29.4 0 0 1-.617 6.09c-.154.726-.31 1.294-.428 1.685a13 13 0 0 1-.187.57l-.012.034-.004.01v.003l-.001.001-.701-.267.7.267a.75.75 0 0 1-1.401-.534l.001-.004.008-.021.034-.096q.046-.131.127-.397c.107-.354.252-.882.397-1.564.29-1.364.584-3.343.584-5.777s-.293-4.413-.584-5.778a19 19 0 0 0-.397-1.563 11 11 0 0 0-.16-.493l-.009-.021V4.14a.75.75 0 0 1 .432-.968zm-8.84 0a.75.75 0 0 0-.968.433l.7.267-.7-.267-.001.002-.001.003-.004.01-.012.033-.043.12q-.055.157-.144.45c-.118.391-.274.96-.428 1.686A29.4 29.4 0 0 0 5.475 12a29.4 29.4 0 0 0 .617 6.09c.154.726.31 1.294.428 1.685a13 13 0 0 0 .187.57l.012.034.004.01v.003l.001.001.701-.267-.7.267a.75.75 0 0 0 1.4-.534v-.004l-.008-.021a11 11 0 0 1-.161-.493 20 20 0 0 1-.397-1.564A28 28 0 0 1 6.975 12c0-2.434.293-4.413.584-5.778.145-.682.29-1.21.397-1.563a11 11 0 0 1 .16-.493l.008-.021.002-.004a.75.75 0 0 0-.433-.968" clip-rule="evenodd"/>
        <path fill="#1C68F3" fill-rule="evenodd" d="M20.826 8.03a.75.75 0 0 0-.432-.968l-.268.7.268-.7-.002-.001-.003-.001-.01-.004-.034-.012a13 13 0 0 0-.57-.187 21 21 0 0 0-1.686-.428A29.4 29.4 0 0 0 12 5.812a29.4 29.4 0 0 0-6.09.617c-.725.154-1.294.31-1.685.428a13 13 0 0 0-.57.187l-.034.012-.01.004h-.003v.001c-.001 0-.002 0 .266.701l-.267-.7a.75.75 0 0 0 .535 1.401l.003-.001.022-.008.095-.034q.131-.046.397-.127c.354-.107.882-.252 1.564-.397A28 28 0 0 1 12 7.312c2.435 0 4.413.293 5.778.584.682.145 1.21.29 1.563.397a11 11 0 0 1 .493.16l.022.009h.003a.75.75 0 0 0 .968-.432zM3.173 16.344a.75.75 0 0 0 .432.969l.268-.7-.268.7h.002l.004.002.01.003.033.013.12.042q.157.055.45.145c.391.118.96.273 1.686.428a29.4 29.4 0 0 0 6.09.616 29.4 29.4 0 0 0 6.09-.616c.726-.155 1.294-.31 1.684-.428a13 13 0 0 0 .571-.187l.034-.013.01-.003.003-.002c.001 0 .002 0-.266-.7l.267.7a.75.75 0 0 0-.535-1.402l-.003.002-.022.008-.095.033q-.13.046-.398.128a20 20 0 0 1-1.563.397 28 28 0 0 1-5.778.583c-2.434 0-4.412-.293-5.777-.583-.682-.146-1.21-.29-1.564-.397a11 11 0 0 1-.492-.161l-.022-.008-.003-.001a.75.75 0 0 0-.968.432" clip-rule="evenodd"/>
    </g>
</svg>
