<svg viewBox="0 0 24 24" xmlns="http://www.w3.org/2000/svg"><path d="m10.89 20.789h-.75a.75.75 0 0 0 .785.75zm9.248-7.728-.745-.09zm-12.923 4.053-.235.712.01.003zm.585-12.34.378.647-.378-.648zm3.125 16.764c1.45-.067 3.715-.56 5.73-1.822 2.037-1.276 3.841-3.358 4.227-6.566l-1.489-.179c-.321 2.667-1.797 4.386-3.535 5.474-1.76 1.103-3.765 1.537-5.003 1.595zm-3.936-3.708c1.281.405 2.073 1.057 2.542 1.656.49.624.609 1.16.609 1.304h1.5c0-.568-.294-1.42-.929-2.23-.656-.836-1.701-1.665-3.27-2.16zm13.893-4.679c.527-4.373-1.536-7.429-4.402-8.973-2.812-1.517-6.42-1.588-9.057-.052l.755 1.296c2.136-1.244 5.184-1.222 7.59.076 2.355 1.269 4.074 3.747 3.625 7.474l1.49.18zm-13.46-9.026c-2.574 1.5-4.532 4.225-4.945 6.935-.209 1.37-.026 2.767.714 3.986.742 1.222 1.996 2.189 3.79 2.78l.47-1.425c-1.524-.502-2.456-1.274-2.978-2.133-.523-.863-.68-1.89-.513-2.982.337-2.213 1.99-4.566 4.219-5.865l-.755-1.296z" fill="#fff"/><g stroke="#fff"><circle cx="12.581" cy="15.292" fill="none" r="1.131"/><circle cx="8.944" cy="7.754" fill="#fff" r=".531"/><path d="m12.211 7.042a.531.531 0 1 1 -1.062 0 .531.531 0 0 1 1.062 0z" fill="#fff"/><circle cx="14.212" cy="7.754" fill="#fff" r=".531"/><circle cx="16.575" cy="9.367" fill="#fff" r=".531"/></g></svg>