<svg xmlns="http://www.w3.org/2000/svg" fill="none" viewBox="0 0 42 42">
    <g clip-path="url(#MaskXmas_svg__a)">
        <path fill="#1C68F3" d="M20.873 34.283c7.336 0 13.283-5.947 13.283-13.283 0-7.336-5.947-13.283-13.283-13.283C13.537 7.717 7.59 13.664 7.59 21c0 7.336 5.947 13.283 13.283 13.283Z"/>
        <path fill="#fff" fill-rule="evenodd" d="M28.89 17.735v4.411H14.866c.613 2.677 3.043 4.676 5.947 4.676a6.105 6.105 0 0 0 5.472-3.353h2.605v3.706a1.6 1.6 0 0 1-1.613 1.588H14.37c-.89 0-1.613-.711-1.613-1.588v-9.44H28.89Zm-4.153 5.734a4.767 4.767 0 0 1-3.924 2.04 4.767 4.767 0 0 1-3.924-2.04h7.848Zm-7.365-4.675c-1.264 0-2.31.92-2.484 2.117h1.375c.151-.46.59-.794 1.11-.794.518 0 .957.333 1.108.794h1.376c-.174-1.197-1.22-2.117-2.485-2.117Zm6.902 0c-1.264 0-2.31.92-2.484 2.117h1.375c.151-.46.59-.794 1.11-.794.518 0 .957.333 1.108.794h1.376c-.174-1.197-1.22-2.117-2.485-2.117Zm3.003-5.911a1.6 1.6 0 0 1 1.613 1.588v1.94H12.756v-1.94a1.6 1.6 0 0 1 1.613-1.588h12.908Z" clip-rule="evenodd"/>
    </g>
    <path fill="#F74C4F" d="M30.643 4.506a2.71 2.71 0 1 1-5.008-2.075 2.71 2.71 0 0 1 5.008 2.075Zm6.728 26.26a2.71 2.71 0 1 1 2.075-5.009 2.71 2.71 0 0 1-2.075 5.01ZM2.309 16.243a2.71 2.71 0 1 1 2.074-5.01 2.71 2.71 0 0 1-2.074 5.01Z"/>
    <path fill="#FFC42D" d="M39.446 16.243a2.71 2.71 0 1 1-2.075-5.01 2.71 2.71 0 0 1 2.075 5.01ZM4.384 30.766a2.71 2.71 0 1 1-2.075-5.009 2.71 2.71 0 0 1 2.075 5.009Zm6.727-26.26a2.71 2.71 0 1 1 5.01-2.075 2.71 2.71 0 0 1-5.01 2.075Z"/>
    <path fill="#F64C4F" fill-rule="evenodd" d="M13.515 32.113c-.727.417-.727 1.379-.727 3.303s0 2.885.727 3.303c.082.047.169.088.26.123.806.31 1.852-.156 3.946-1.088.412-.183.785-.349 1.12-.502.15-.069.224-.103.241-.163.017-.061-.034-.136-.135-.285a2.374 2.374 0 0 1-.413-1.34c0-.526.17-1.01.457-1.404.11-.151.165-.227.148-.289-.016-.062-.093-.097-.247-.168-.348-.16-.738-.334-1.17-.526-2.095-.931-3.141-1.397-3.948-1.087-.09.035-.177.076-.259.123Zm9.242 4.976c-.017-.061.034-.136.135-.285.26-.382.413-.844.413-1.34 0-.526-.17-1.01-.457-1.404-.11-.151-.164-.227-.148-.289.016-.062.093-.097.247-.168.348-.16.739-.334 1.171-.526 2.094-.931 3.14-1.397 3.947-1.087.09.035.177.076.26.123.727.417.727 1.379.727 3.303s0 2.885-.728 3.303a1.867 1.867 0 0 1-.26.123c-.805.31-1.852-.156-3.946-1.088-.412-.183-.785-.349-1.12-.502-.15-.069-.224-.103-.24-.163Zm-1.771-3.36a1.735 1.735 0 1 0 0 3.469 1.735 1.735 0 0 0 0-3.47Z" clip-rule="evenodd"/>
    <path fill="#F64C4F" d="M14.92 39.378c-.38.074-.569.112-.61.279-.043.167.058.25.26.414.169.137.38.245.634.31.089.022.246.046.562.095.063.01.095.014.126.02.41.073.78.244 1.064.492.022.018.043.038.085.077.21.194.315.292.384.342 1.01.736 2.695.142 2.946-1.039.017-.08.028-.218.052-.495l.057-.68c.047-.555.079-.931.075-1.204-.002-.13-.003-.194-.049-.262a.16.16 0 0 0-.006-.008c-.048-.066-.134-.097-.306-.16a2.284 2.284 0 0 1-.185-.077c-.12-.056-.18-.084-.202-.09-.102-.027-.075-.029-.173.011-.022.009-.11.064-.286.174-.074.047-.165.088-.224.115l-.015.007c-.339.155-.715.322-1.124.505l-.04.017c-1.015.452-1.827.813-2.486 1.018a5.186 5.186 0 0 1-.539.139Zm6.768-1.78c-.2.061-.3.092-.353.165-.053.072-.053.148-.051.3.002.266.032.624.075 1.13l.057.68c.023.277.035.415.052.495.25 1.18 1.936 1.775 2.946 1.038.068-.05.173-.147.384-.341l.084-.077a2.207 2.207 0 0 1 1.065-.492c.03-.006.063-.01.126-.02.315-.049.473-.073.561-.096.257-.065.47-.174.64-.313.2-.165.3-.247.258-.413-.042-.167-.23-.204-.605-.28a5.226 5.226 0 0 1-.52-.135c-.66-.205-1.471-.566-2.486-1.018l-.04-.018c-.41-.182-.786-.349-1.124-.504l-.015-.007a1.931 1.931 0 0 1-.225-.115c-.135-.084-.202-.127-.22-.135-.094-.04-.083-.04-.182-.013a2.17 2.17 0 0 0-.164.07 2.37 2.37 0 0 1-.263.099Z"/>
    <path fill="#11957A" fill-rule="evenodd" d="M16.777 1.48c.263-.214.473-.369.68-.498a6.506 6.506 0 0 1 6.873 0c.197.122.395.266.64.461.04.032.06.048.072.06.18.161.228.35.15.579l-.058.142a3.253 3.253 0 1 0 6.01 2.49l.055-.13a.498.498 0 0 1 .519-.308l.082.008c.339.036.598.075.837.13a6.553 6.553 0 0 1 4.886 4.86c.05.213.087.44.122.725.01.09.016.134.016.167a.493.493 0 0 1-.276.471 3.136 3.136 0 0 1-.221.096 3.253 3.253 0 0 0 2.49 6.01c.14-.057.21-.086.245-.096a.49.49 0 0 1 .509.13c.027.025.059.065.122.143.199.246.346.446.47.643a6.506 6.506 0 0 1 .036 6.873 6.468 6.468 0 0 1-.607.812.487.487 0 0 1-.477.123 2.635 2.635 0 0 1-.298-.115 3.253 3.253 0 1 0-2.49 6.011c.225.093.337.14.392.18.133.1.191.2.213.365a1.53 1.53 0 0 1-.023.323 5.793 5.793 0 0 1-.099.59 6.46 6.46 0 0 1-4.834 4.86c-.473.11-1.024.154-2.126.242-.439.035-.658.052-.871.084a.077.077 0 0 1-.089-.076 12.396 12.396 0 0 0-.065-1.318c.067-.555.067-1.244.067-2.04v-.123c0-.91 0-1.678-.1-2.269l-.006-.03A14.07 14.07 0 0 0 34.974 21c0-7.785-6.31-14.096-14.096-14.096-7.785 0-14.096 6.31-14.096 14.096 0 4.515 2.123 8.534 5.425 11.114-.096.587-.096 1.346-.096 2.24v.123c0 .796 0 1.484.068 2.04-.039.313-.055.67-.062 1.065-.003.14-.004.21-.048.249-.043.04-.113.033-.253.022l-.322-.026h-.001c-1.103-.088-1.654-.132-2.129-.243a6.553 6.553 0 0 1-4.886-4.86 7.815 7.815 0 0 1-.155-1.032.423.423 0 0 1 .27-.425 3.253 3.253 0 0 0-2.49-6.01.509.509 0 0 1-.593-.13 6.923 6.923 0 0 1-.509-.69 6.506 6.506 0 0 1-.036-6.874c.127-.207.28-.416.491-.679.153-.19.42-.234.646-.14a3.253 3.253 0 0 0 2.49-6.011c-.23-.096-.394-.32-.37-.568.036-.366.074-.639.132-.89a6.46 6.46 0 0 1 4.834-4.86 6.534 6.534 0 0 1 .847-.131.5.5 0 0 1 .527.311l.05.119a3.253 3.253 0 1 0 5.967-2.596.5.5 0 0 1 .152-.6l.047-.038Zm2.862 35.003c.054.044.089.067.115.07h.025a2.444 2.444 0 0 1-.132-.082.532.532 0 0 1-.008.012Z" clip-rule="evenodd"/>
    <defs>
        <clipPath id="MaskXmas_svg__a">
            <path fill="#fff" d="M7.59 7.717h26.566v26.566H7.59z"/>
        </clipPath>
    </defs>
</svg>
