<?xml version="1.0" encoding="UTF-8"?>
<svg width="111px" height="91px" viewBox="0 0 111 91" version="1.1" xmlns="http://www.w3.org/2000/svg" xmlns:xlink="http://www.w3.org/1999/xlink">
    <title>Untitled</title>
    <g id="Page-1" stroke="none" stroke-width="1" fill="none" fill-rule="evenodd">
        <g id="logo" transform="translate(0.993993, 0.000649)" fill-rule="nonzero">
            <g id="编组备份" fill="#FFFFFF">
                <path d="M108.179953,0.738672012 L80.3880765,46.6422023 L59.3880765,30.5784148 L103.666077,0.657350798 L103.802169,0.571826353 C105.193867,-0.266171782 106.91467,-0.159951246 108.179953,0.738672012 Z" id="形状结合"></path>
                <path d="M24.2062854,4.5999537 L34.3880765,43.6302421 L1.5100217,89.1320165 C1.16170527,88.8550997 0.854019897,88.5148984 0.605223475,88.1156514 C0.0198934202,87.1763644 -0.149780413,86.0371496 0.135187773,84.9690642 L21.7820067,7.23073376 L21.8320452,7.07019613 C22.224392,5.89502082 23.118609,5.01358614 24.2062854,4.5999537 Z" id="形状结合"></path>
                <path d="M26.698222,4.48671676 C27.2119701,4.62977491 27.6919248,4.87412079 28.1098577,5.2053832 L80.3880765,46.6422023 L34.3880765,43.6302421 L24.2054356,4.60027698 C24.9757953,4.30711719 25.8432592,4.24864401 26.698222,4.48671676 Z" id="形状结合"></path>
                <path d="M34.3880765,43.6302421 L55.3880765,58.6900429 L6.11552704,89.3949304 C4.63957341,90.3146918 2.79665116,90.1554535 1.50921257,89.1313731 L34.3880765,43.6302421 Z" id="形状结合"></path>
                <path d="M108.177804,0.741643658 C108.560034,1.01435031 108.900627,1.35965069 109.177938,1.77329835 C109.752832,2.63083142 109.976239,3.67790086 109.801672,4.69662017 L97.0140765,79.3209374 L96.48627,82.4009469 C96.2518234,83.7691003 95.34837,84.8550636 94.169037,85.3807319 L80.3880765,46.6422023 L108.177804,0.741643658 Z" id="形状结合"></path>
                <path d="M34.3880765,43.6302421 L80.3880765,46.6422023 L94.169037,85.3807319 C93.471474,85.6916591 92.6773919,85.8065616 91.8681438,85.667889 C91.2557846,85.5629552 90.6763599,85.3168344 90.1757574,84.9491226 L34.3880765,43.6302421 Z" id="形状结合"></path>
            </g>
            <g id="编组">
                <path d="M108.179953,0.738672012 L80.3880765,46.6422023 L59.3880765,30.5784148 L103.666077,0.657350798 L103.802169,0.571826353 C105.193867,-0.266171782 106.91467,-0.159951246 108.179953,0.738672012 Z" id="形状结合" fill="#3D9EFF"></path>
                <path d="M24.2062854,4.5999537 L34.3880765,43.6302421 L1.5100217,89.1320165 C1.16170527,88.8550997 0.854019897,88.5148984 0.605223475,88.1156514 C0.0198934202,87.1763644 -0.149780413,86.0371496 0.135187773,84.9690642 L21.7820067,7.23073376 L21.8320452,7.07019613 C22.224392,5.89502082 23.118609,5.01358614 24.2062854,4.5999537 Z" id="形状结合" fill="#0647D5"></path>
                <path d="M26.698222,4.48671676 C27.2119701,4.62977491 27.6919248,4.87412079 28.1098577,5.2053832 L80.3880765,46.6422023 L34.3880765,43.6302421 L24.2054356,4.60027698 C24.9757953,4.30711719 25.8432592,4.24864401 26.698222,4.48671676 Z" id="形状结合" fill="#1667F6"></path>
                <path d="M34.3880765,43.6302421 L55.3880765,58.6900429 L6.11552704,89.3949304 C4.63957341,90.3146918 2.79665116,90.1554535 1.50921257,89.1313731 L34.3880765,43.6302421 Z" id="形状结合" fill="#002392"></path>
                <path d="M108.177804,0.741643658 C108.560034,1.01435031 108.900627,1.35965069 109.177938,1.77329835 C109.752832,2.63083142 109.976239,3.67790086 109.801672,4.69662017 L97.0140765,79.3209374 L96.48627,82.4009469 C96.2518234,83.7691003 95.34837,84.8550636 94.169037,85.3807319 L80.3880765,46.6422023 L108.177804,0.741643658 Z" id="形状结合" fill="#2E8EFF"></path>
                <path d="M34.3880765,43.6302421 L80.3880765,46.6422023 L94.169037,85.3807319 C93.471474,85.6916591 92.6773919,85.8065616 91.8681438,85.667889 C91.2557846,85.5629552 90.6763599,85.3168344 90.1757574,84.9491226 L34.3880765,43.6302421 Z" id="形状结合" fill="#2179FF"></path>
            </g>
        </g>
    </g>
</svg>