<svg xmlns="http://www.w3.org/2000/svg" width="21" height="13" fill="none" viewBox="0 0 21 13">
    <path fill="#DC4648" d="M10.8069 0H7.65369C4.45061 0 1.70436 2.28725 1.125 5.4375H14.2728C14.4524 5.4375 14.6186 5.53223 14.7102 5.68671L15.2644 6.6219C15.4595 6.95123 15.5625 7.32699 15.5625 7.7098C15.5625 8.88835 16.5179 9.84375 17.6965 9.84375H18.625V7.81812C18.625 3.50029 15.1247 0 10.8069 0Z"/>
    <path fill="white" d="M18.9532 8.48488C18.7079 8.22249 18.2918 8.22249 18.0466 8.48488C17.9243 8.61575 17.7514 8.68736 17.5724 8.68131C17.2134 8.66918 16.9192 8.96341 16.9313 9.32236C16.9374 9.50138 16.8657 9.67429 16.7349 9.7966C16.4725 10.0418 16.4725 10.4579 16.7349 10.7032C16.8657 10.8255 16.9374 10.9984 16.9313 11.1774C16.9192 11.5364 17.2134 11.8306 17.5724 11.8185C17.7514 11.8124 17.9243 11.884 18.0466 12.0149C18.2918 12.2773 18.7079 12.2773 18.9532 12.0149C19.0755 11.884 19.2484 11.8124 19.4274 11.8185C19.7864 11.8306 20.0806 11.5364 20.0685 11.1774C20.0624 10.9984 20.134 10.8255 20.2649 10.7032C20.5273 10.4579 20.5273 10.0418 20.2649 9.7966C20.134 9.67429 20.0624 9.50138 20.0685 9.32236C20.0806 8.96341 19.7864 8.66918 19.4274 8.68131C19.2484 8.68736 19.0755 8.61575 18.9532 8.48488Z"/>
    <path fill="#DC4648" fill-rule="evenodd" d="M19.4108 8.1816C19.376 8.18277 19.3424 8.16887 19.3187 8.14347C18.8758 7.66963 18.1244 7.66963 17.6815 8.14347C17.6578 8.16887 17.6242 8.18277 17.5895 8.1816C16.9413 8.15969 16.4099 8.69104 16.4318 9.33924C16.433 9.374 16.4191 9.40756 16.3937 9.4313C15.9199 9.87417 15.9199 10.6256 16.3937 11.0685C16.4191 11.0922 16.433 11.1258 16.4318 11.1605C16.4099 11.8087 16.9413 12.3401 17.5895 12.3182C17.6242 12.317 17.6578 12.3309 17.6815 12.3563C18.1244 12.8301 18.8758 12.8301 19.3187 12.3563C19.3424 12.3309 19.376 12.317 19.4108 12.3182C20.059 12.3401 20.5903 11.8087 20.5684 11.1605C20.5672 11.1258 20.5811 11.0922 20.6065 11.0685C21.0804 10.6256 21.0804 9.87417 20.6065 9.4313C20.5811 9.40756 20.5672 9.374 20.5684 9.33924C20.5903 8.69104 20.059 8.15969 19.4108 8.1816ZM18.0468 8.48488C18.2921 8.22249 18.7082 8.22249 18.9534 8.48488C19.0757 8.61575 19.2486 8.68736 19.4276 8.68131C19.7866 8.66918 20.0808 8.96341 20.0687 9.32236C20.0626 9.50138 20.1343 9.67429 20.2651 9.7966C20.5275 10.0418 20.5275 10.4579 20.2651 10.7032C20.1343 10.8255 20.0626 10.9984 20.0687 11.1774C20.0808 11.5364 19.7866 11.8306 19.4276 11.8185C19.2486 11.8124 19.0757 11.884 18.9534 12.0149C18.7082 12.2773 18.2921 12.2773 18.0468 12.0149C17.9245 11.884 17.7516 11.8124 17.5726 11.8185C17.2136 11.8306 16.9194 11.5364 16.9315 11.1774C16.9376 10.9984 16.866 10.8255 16.7351 10.7032C16.4727 10.4579 16.4727 10.0418 16.7351 9.7966C16.866 9.67429 16.9376 9.50138 16.9315 9.32236C16.9194 8.96341 17.2136 8.66918 17.5726 8.68131C17.7516 8.68736 17.9245 8.61575 18.0468 8.48488Z" clip-rule="evenodd"/>
    <path fill="white" d="M0 6.19995C0 5.78574 0.335786 5.44995 0.75 5.44995H15.25C15.6642 5.44995 16 5.78574 16 6.19995V7.69995C16 8.11416 15.6642 8.44995 15.25 8.44995H0.75C0.335787 8.44995 0 8.11416 0 7.69995V6.19995Z"/>
</svg>
