<svg xmlns="http://www.w3.org/2000/svg" fill="none" viewBox="0 0 21 13">
    <path fill="#DC4648" d="M10.807 0H7.654a6.638 6.638 0 0 0-6.529 5.438h13.148c.18 0 .346.094.437.249l.554.935c.196.33.299.705.299 1.088 0 1.178.955 2.134 2.133 2.134h.929V7.818C18.625 3.5 15.125 0 10.807 0Z"/>
    <path fill="#fff" d="M18.953 8.485a.62.62 0 0 0-.906 0 .62.62 0 0 1-.475.196.62.62 0 0 0-.64.641.62.62 0 0 1-.197.475.62.62 0 0 0 0 .906.62.62 0 0 1 .196.474.62.62 0 0 0 .641.642.62.62 0 0 1 .475.196.62.62 0 0 0 .906 0 .62.62 0 0 1 .474-.197.62.62 0 0 0 .642-.64.62.62 0 0 1 .196-.475.62.62 0 0 0 0-.906.62.62 0 0 1-.197-.475.62.62 0 0 0-.64-.64.62.62 0 0 1-.475-.197Z"/>
    <path fill="#DC4648" fill-rule="evenodd" d="M19.41 8.182a.12.12 0 0 1-.091-.039 1.12 1.12 0 0 0-1.637 0 .12.12 0 0 1-.092.039 1.12 1.12 0 0 0-1.158 1.157.12.12 0 0 1-.038.092 1.12 1.12 0 0 0 0 1.638.12.12 0 0 1 .038.091 1.12 1.12 0 0 0 1.158 1.158.12.12 0 0 1 .091.038 1.12 1.12 0 0 0 1.638 0 .12.12 0 0 1 .092-.038 1.12 1.12 0 0 0 1.157-1.157.12.12 0 0 1 .038-.092 1.12 1.12 0 0 0 0-1.638.12.12 0 0 1-.038-.092 1.12 1.12 0 0 0-1.157-1.157Zm-1.363.303a.62.62 0 0 1 .906 0 .62.62 0 0 0 .475.196.62.62 0 0 1 .64.641.62.62 0 0 0 .197.475.62.62 0 0 1 0 .906.62.62 0 0 0-.196.474.62.62 0 0 1-.641.642.62.62 0 0 0-.475.196.62.62 0 0 1-.906 0 .62.62 0 0 0-.474-.197.62.62 0 0 1-.642-.64.62.62 0 0 0-.196-.475.62.62 0 0 1 0-.906.62.62 0 0 0 .197-.475.62.62 0 0 1 .64-.64.62.62 0 0 0 .475-.197Z" clip-rule="evenodd"/>
    <path fill="#fff" d="M0 6.2a.75.75 0 0 1 .75-.75h14.5a.75.75 0 0 1 .75.75v1.5a.75.75 0 0 1-.75.75H.75A.75.75 0 0 1 0 7.7V6.2Z"/>
</svg>
