<svg xmlns="http://www.w3.org/2000/svg" fill="none" viewBox="0 0 24 24">
    <linearGradient id="Aave_svg__a" x1="21.768" x2="3.912" y1="5.448" y2="20.472" gradientUnits="userSpaceOnUse">
        <stop offset="0" stop-color="#b6509e"/>
        <stop offset="1" stop-color="#2ebac6"/>
    </linearGradient>
    <circle cx="12" cy="12" r="12" fill="url(#Aave_svg__a)"/>
    <path fill="#fff" d="m17.251 16.781-4.058-9.809c-.23-.507-.569-.755-1.018-.755h-.359c-.448 0-.787.248-1.017.755l-1.765 4.274H7.698a.73.73 0 0 0-.728.725v.01a.73.73 0 0 0 .728.726h.718L6.73 16.78a.9.9 0 0 0-.05.279c0 .228.07.407.2.546q.193.21.538.209a.73.73 0 0 0 .418-.14.9.9 0 0 0 .29-.367l1.854-4.602h1.287a.73.73 0 0 0 .728-.725v-.02a.73.73 0 0 0-.728-.726h-.688l1.416-3.527 3.86 9.6c.07.149.159.278.289.368a.73.73 0 0 0 .418.139q.345 0 .539-.209c.13-.14.2-.318.2-.547a.7.7 0 0 0-.05-.278z"/>
</svg>
