<svg fill="none" viewBox="0 0 24 24" xmlns="http://www.w3.org/2000/svg" xmlns:xlink="http://www.w3.org/1999/xlink"><linearGradient id="a" gradientUnits="userSpaceOnUse" x1="21.768" x2="3.912" y1="5.448" y2="20.472"><stop offset="0" stop-color="#b6509e"/><stop offset="1" stop-color="#2ebac6"/></linearGradient><circle cx="12" cy="12" fill="url(#a)" r="12"/><path d="m17.251 16.781-4.058-9.809c-.23-.507-.569-.755-1.018-.755h-.359c-.448 0-.787.248-1.017.755l-1.765 4.274h-1.336a.73.73 0 0 0 -.728.725v.01a.73.73 0 0 0 .728.726h.718l-1.686 4.073a.86.86 0 0 0 -.05.279c0 .228.07.407.2.546.129.14.308.209.538.209a.729.729 0 0 0 .418-.14.881.881 0 0 0 .29-.367l1.854-4.602h1.287a.73.73 0 0 0 .728-.725v-.02a.73.73 0 0 0 -.728-.726h-.688l1.416-3.527 3.86 9.6c.07.149.159.278.289.368a.73.73 0 0 0 .418.139c.23 0 .41-.07.539-.209.13-.14.2-.318.2-.547a.658.658 0 0 0 -.05-.278z" fill="#fff"/></svg>