<svg xmlns="http://www.w3.org/2000/svg" fill="none" viewBox="0 0 24 24">
    <g clip-path="url('#Algorand_svg__a')">
        <path fill="#000" d="M12 24c6.627 0 12-5.373 12-12S18.627 0 12 0 0 5.373 0 12s5.373 12 12 12"/>
        <path fill="#fff" d="m7.688 17.187 1.727-2.99 1.726-2.978 1.716-2.99.285-.474.125.474.526 1.968-.59 1.022-1.725 2.979-1.716 2.989h2.063l1.726-2.99.895-1.547.421 1.547.8 2.99h1.852l-.8-2.99-.8-2.978-.21-.77 1.285-2.22H15.12l-.064-.221-.652-2.442-.084-.316h-1.8l-.042.063-1.685 2.916-1.726 2.99-1.716 2.979-1.726 2.989z"/>
    </g>
    <defs>
        <clipPath id="Algorand_svg__a">
            <path fill="#fff" d="M0 0h24v24H0z"/>
        </clipPath>
    </defs>
</svg>
