<svg xmlns="http://www.w3.org/2000/svg" fill="none" viewBox="0 0 24 25">
    <circle cx="12" cy="12.785" r="12" fill="#212936"/>
    <path fill="#fff" d="m11.092 3.045-7.1 4.1a1.775 1.775 0 0 0-.887 1.538l.005 8.21a1.775 1.775 0 0 0 .886 1.535l7.108 4.109a1.775 1.775 0 0 0 1.775 0l7.1-4.1a1.775 1.775 0 0 0 .887-1.537l-.005-8.21a1.776 1.776 0 0 0-.886-1.535l-7.108-4.11a1.775 1.775 0 0 0-1.775 0Z"/>
    <path fill="#2D374B" d="M8.75 19.762a.332.332 0 0 1 .069-.145l6.372-10.81c.03-.05.057-.102.082-.146-.018-.033-.04-.026-.058-.026-.907.003-1.815.009-2.723.008a.19.19 0 0 0-.18.12 74490.328 74490.328 0 0 1-6.42 10.593l-.038.064c-.025.05-.054.057-.107.027-.225-.133-.453-.262-.693-.4l6.472-10.38c-.014-.042-.043-.032-.065-.032-.347-.01-.694-.026-1.04-.029a3.845 3.845 0 0 0-1.43.23 2.019 2.019 0 0 0-1.008.819 1352.96 1352.96 0 0 1-3.56 5.524l-.058.087c-.069 0-.058-.057-.065-.096a1.15 1.15 0 0 1-.004-.178c0-2.034.007-4.068-.006-6.101a.877.877 0 0 1 .502-.847c1.564-.892 3.117-1.802 4.676-2.702.696-.402 1.394-.8 2.085-1.21a.788.788 0 0 1 .878 0c1.27.745 2.551 1.473 3.828 2.207.962.555 1.926 1.108 2.89 1.66.069.04.136.082.205.12a.669.669 0 0 1 .354.628c.002 2.212.002 4.424 0 6.637a.43.43 0 0 1-.018.161c-.076.074-.104-.009-.132-.048-.115-.162-.218-.332-.324-.499-.854-1.337-1.711-2.671-2.57-4.005-.29-.45-.582-.9-.868-1.351-.067-.106-.079-.108-.145.006l-1.293 2.19a.223.223 0 0 0 .026.26c.355.573.71 1.146 1.063 1.72l1.815 2.935.735 1.188a.3.3 0 0 1 .073.19c-.05.098-.152.125-.237.17a1.79 1.79 0 0 1-.456.238c-.088-.022-.12-.101-.16-.166-.563-.876-1.117-1.757-1.675-2.635-.574-.902-1.145-1.809-1.721-2.71-.074-.116-.086-.117-.156 0-.501.843-.995 1.69-1.498 2.533a.225.225 0 0 0 .012.262c.677 1.044 1.339 2.097 2.009 3.145.186.293.375.584.558.878.036.057.085.114.052.192a3.186 3.186 0 0 1-.566.352c-.625.364-1.251.727-1.878 1.09a.621.621 0 0 1-.673 0 583.664 583.664 0 0 0-2.772-1.594.36.36 0 0 1-.16-.123Z"/>
    <path fill="#96BEDC" d="M19.663 15.566c.001-.054.004-.109.004-.163 0-2.208 0-4.415.002-6.622a.688.688 0 0 0-.376-.654c-2.318-1.329-4.634-2.66-6.948-3.995a.645.645 0 0 0-.7-.002 13601.01 13601.01 0 0 0-6.962 4.03.646.646 0 0 0-.348.61c.005 2.118.008 4.236.009 6.354 0 .047-.02.1.022.14-.245.408-.514.8-.772 1.199l-.388.598c-.021.032-.045.061-.086.118-.004-.067-.007-.104-.007-.14 0-2.793 0-5.586.002-8.38a1.688 1.688 0 0 1 .882-1.52c.898-.533 1.81-1.047 2.714-1.571.763-.442 1.524-.888 2.287-1.33.711-.413 1.416-.839 2.139-1.23a1.771 1.771 0 0 1 1.803.047c.581.33 1.16.666 1.74 1a2931.605 2931.605 0 0 1 3.143 1.808l1.496.859c.219.126.438.252.656.38a1.84 1.84 0 0 1 .91 1.31c.01.079.013.158.01.238v8.245a1.77 1.77 0 0 1-.636 1.37 2.121 2.121 0 0 1-.367.224 1483.507 1483.507 0 0 1-4.619 2.673c-.763.442-1.525.886-2.287 1.331a1.7 1.7 0 0 1-.627.259 1.769 1.769 0 0 1-1.102-.14c-.38-.204-.75-.425-1.124-.64a845.173 845.173 0 0 1-1.933-1.11c-.052-.03-.088-.06-.047-.128.187-.315.372-.631.56-.946.006-.012.023-.017.035-.026.174.082.343.174.505.278.82.47 1.64.94 2.457 1.415a.58.58 0 0 0 .63-.007c.777-.456 1.558-.905 2.337-1.357l.117-.064a.643.643 0 0 1 .284-.206c.703-.404 1.402-.815 2.106-1.217.058-.034.111-.085.188-.076l.69-.4c.041-.088.131-.116.206-.16.347-.2.69-.406 1.04-.6a.594.594 0 0 0 .317-.562c.004-.35 0-.702.002-1.053a.259.259 0 0 1 .036-.187Z"/>
    <path fill="#28A0F0" d="M19.663 15.567c.002.436.011.872.002 1.307a.552.552 0 0 1-.29.5c-.438.25-.869.512-1.312.753-.176-.32-.38-.627-.572-.94-1-1.62-2-3.239-3.002-4.857-.06-.097-.115-.198-.182-.29a.146.146 0 0 1 0-.186c.24-.4.474-.803.711-1.204l.657-1.115a.125.125 0 0 1 .058-.06l.345.53a19437.055 19437.055 0 0 1 3.478 5.42.445.445 0 0 0 .107.142Zm-2.289 2.96c-.286.187-.588.346-.882.52-.534.313-1.07.621-1.605.931l-.09.05a.253.253 0 0 0-.062-.133l-1.43-2.246c-.391-.614-.784-1.229-1.178-1.842a.19.19 0 0 1-.01-.23c.526-.886 1.05-1.774 1.572-2.663.013-.02.023-.045.054-.051.043.01.053.052.073.084l2.846 4.483c.202.318.403.637.606.955a.471.471 0 0 0 .105.142Z"/>
</svg>
