<svg xmlns="http://www.w3.org/2000/svg" fill="none" viewBox="0 0 24 24">
    <circle cx="12" cy="12" r="12" fill="#212936"/>
    <path fill="#fff" d="m11.091 2.26-7.1 4.1a1.78 1.78 0 0 0-.887 1.538l.005 8.21a1.78 1.78 0 0 0 .886 1.535l7.108 4.11a1.78 1.78 0 0 0 1.775 0l7.1-4.1a1.78 1.78 0 0 0 .887-1.538l-.005-8.21a1.78 1.78 0 0 0-.886-1.535l-7.108-4.109a1.78 1.78 0 0 0-1.775 0z"/>
    <path fill="#2d374b" d="M8.748 18.978a.33.33 0 0 1 .07-.146l6.372-10.81q.045-.077.082-.146c-.018-.033-.04-.026-.058-.026-.907.003-1.815.01-2.723.008a.19.19 0 0 0-.18.12l-6.42 10.593-.038.064c-.025.05-.054.058-.107.027-.225-.133-.453-.262-.693-.4l6.472-10.38c-.014-.042-.043-.031-.065-.032-.347-.01-.694-.025-1.04-.029a3.9 3.9 0 0 0-1.43.23 2.02 2.02 0 0 0-1.007.819 1527 1527 0 0 1-3.561 5.525l-.058.086c-.069 0-.058-.056-.065-.096a1 1 0 0 1-.004-.178c0-2.034.007-4.067-.006-6.1a.88.88 0 0 1 .502-.848c1.564-.892 3.117-1.801 4.676-2.702.696-.402 1.394-.8 2.085-1.21a.79.79 0 0 1 .878 0c1.27.745 2.551 1.473 3.828 2.208l2.89 1.66.205.12a.67.67 0 0 1 .354.627q.003 3.32 0 6.637a.4.4 0 0 1-.018.161c-.076.074-.104-.009-.132-.048-.114-.162-.217-.331-.324-.498a1185 1185 0 0 0-2.57-4.005c-.29-.451-.582-.9-.868-1.352-.067-.106-.079-.107-.145.006l-1.293 2.19a.22.22 0 0 0 .026.26l1.064 1.72 1.814 2.935.735 1.189c.046.053.072.12.073.19-.05.097-.152.125-.237.17a1.8 1.8 0 0 1-.456.237c-.088-.021-.12-.1-.16-.166-.563-.876-1.117-1.756-1.675-2.634-.574-.903-1.145-1.81-1.721-2.711-.074-.116-.086-.117-.156 0-.501.843-.995 1.69-1.498 2.534a.225.225 0 0 0 .012.262c.677 1.043 1.339 2.096 2.009 3.145q.282.437.558.877c.036.058.085.115.052.192a3.2 3.2 0 0 1-.566.352q-.937.547-1.878 1.09a.62.62 0 0 1-.673 0 575 575 0 0 0-2.772-1.593.36.36 0 0 1-.16-.124"/>
    <path fill="#96bedc" d="m19.662 14.782.004-.164.002-6.621a.69.69 0 0 0-.376-.655 2656 2656 0 0 1-6.948-3.995.65.65 0 0 0-.7-.002l-6.962 4.03a.65.65 0 0 0-.348.61q.007 3.177.01 6.354c-.001.047-.02.1.021.141-.245.408-.514.8-.772 1.198q-.193.3-.388.598c-.021.032-.045.061-.086.118-.003-.066-.007-.103-.007-.14q0-4.19.002-8.379a1.69 1.69 0 0 1 .882-1.52c.898-.534 1.81-1.048 2.714-1.572q1.144-.664 2.287-1.33c.711-.413 1.415-.839 2.14-1.23a1.77 1.77 0 0 1 1.802.048q.87.496 1.74.999l3.143 1.809 1.496.858q.329.189.656.38a1.84 1.84 0 0 1 .91 1.31q.015.12.01.238v8.245a1.77 1.77 0 0 1-.636 1.37 2 2 0 0 1-.367.225 1529 1529 0 0 1-4.619 2.673q-1.144.663-2.287 1.33c-.19.128-.403.216-.627.26a1.77 1.77 0 0 1-1.102-.14c-.38-.205-.75-.425-1.124-.64l-1.933-1.11c-.052-.03-.088-.06-.047-.128.188-.315.372-.632.56-.947.006-.012.023-.017.035-.025q.261.122.505.277 1.23.704 2.457 1.415a.58.58 0 0 0 .63-.007c.777-.456 1.558-.905 2.337-1.356q.058-.033.117-.064a.64.64 0 0 1 .284-.207c.703-.403 1.402-.814 2.106-1.217.058-.033.111-.085.188-.076l.69-.4c.041-.088.131-.116.206-.16.347-.2.69-.406 1.04-.6a.6.6 0 0 0 .317-.562c.004-.35 0-.702.002-1.053a.26.26 0 0 1 .036-.186"/>
    <path fill="#28a0f0" d="M19.662 14.782c.002.436.012.873.002 1.308a.55.55 0 0 1-.29.5c-.438.248-.869.51-1.312.753-.176-.322-.38-.628-.572-.94q-1.5-2.43-3.002-4.858c-.06-.097-.115-.197-.182-.289a.15.15 0 0 1 0-.187q.359-.6.711-1.204l.657-1.114a.13.13 0 0 1 .058-.062l.345.532 2.073 3.228 1.405 2.19a.5.5 0 0 0 .107.143m-2.289 2.96c-.286.187-.588.347-.882.52q-.802.47-1.605.931-.046.027-.09.05a.25.25 0 0 0-.062-.133l-1.43-2.245-1.178-1.843a.19.19 0 0 1-.01-.23q.789-1.33 1.573-2.663c.012-.02.022-.044.053-.05.042.009.053.052.073.084l2.846 4.483.606.954a.5.5 0 0 0 .105.142z"/>
</svg>
