<svg fill="none" viewBox="0 0 24 24" xmlns="http://www.w3.org/2000/svg"><circle cx="12" cy="12" fill="#212936" r="12"/><path d="m11.091 2.26-7.1 4.1a1.775 1.775 0 0 0 -.887 1.538l.005 8.21a1.775 1.775 0 0 0 .886 1.535l7.108 4.11a1.776 1.776 0 0 0 1.775 0l7.1-4.1a1.775 1.775 0 0 0 .887-1.538l-.005-8.21a1.775 1.775 0 0 0 -.886-1.535l-7.108-4.109a1.775 1.775 0 0 0 -1.775 0z" fill="#fff"/><path d="m8.748 18.978a.332.332 0 0 1 .07-.146l6.372-10.81c.03-.05.057-.101.082-.146-.018-.033-.04-.026-.058-.026-.907.003-1.815.01-2.723.008a.19.19 0 0 0 -.18.12 78878.137 78878.137 0 0 1 -6.42 10.593l-.038.064c-.025.05-.054.058-.107.027-.225-.133-.453-.262-.693-.4l6.472-10.38c-.014-.042-.043-.031-.065-.032-.347-.01-.694-.025-1.04-.029a3.845 3.845 0 0 0 -1.43.23 2.019 2.019 0 0 0 -1.007.819 1526.77 1526.77 0 0 1 -3.561 5.525l-.058.086c-.069 0-.058-.056-.065-.096a1.15 1.15 0 0 1 -.004-.178c0-2.034.007-4.067-.006-6.1a.877.877 0 0 1 .502-.848c1.564-.892 3.117-1.801 4.676-2.702.696-.402 1.394-.8 2.085-1.21a.788.788 0 0 1 .878 0c1.27.745 2.551 1.473 3.828 2.208l2.89 1.66c.069.04.136.081.205.12a.669.669 0 0 1 .354.627c.002 2.213.002 4.425 0 6.637a.43.43 0 0 1 -.018.161c-.076.074-.104-.009-.132-.048-.114-.162-.217-.331-.324-.498a1185.28 1185.28 0 0 0 -2.57-4.005c-.29-.451-.582-.9-.868-1.352-.067-.106-.079-.107-.145.006l-1.293 2.19a.223.223 0 0 0 .026.26l1.064 1.72 1.814 2.935.735 1.189c.046.053.072.12.073.19-.05.097-.152.125-.237.17a1.79 1.79 0 0 1 -.456.237c-.088-.021-.12-.1-.16-.166-.563-.876-1.117-1.756-1.675-2.634-.574-.903-1.145-1.81-1.721-2.711-.074-.116-.086-.117-.156 0-.501.843-.995 1.69-1.498 2.534a.225.225 0 0 0 .012.262c.677 1.043 1.339 2.096 2.009 3.145.187.292.375.583.558.877.036.058.085.115.052.192a3.176 3.176 0 0 1 -.566.352c-.625.364-1.251.728-1.878 1.09a.62.62 0 0 1 -.673 0 575.104 575.104 0 0 0 -2.772-1.593.362.362 0 0 1 -.16-.124z" fill="#2d374b"/><path d="m19.662 14.782c.001-.055.004-.11.004-.164 0-2.207 0-4.414.002-6.621a.689.689 0 0 0 -.376-.655 2655.79 2655.79 0 0 1 -6.948-3.995.645.645 0 0 0 -.7-.002 13821.127 13821.127 0 0 0 -6.962 4.03.646.646 0 0 0 -.348.61c.005 2.118.008 4.236.01 6.354-.001.047-.02.1.021.141-.245.408-.514.8-.772 1.198-.129.2-.258.4-.388.598-.021.032-.045.061-.086.118-.003-.066-.007-.103-.007-.14 0-2.793 0-5.586.002-8.379a1.688 1.688 0 0 1 .882-1.52c.898-.534 1.81-1.048 2.714-1.572.763-.442 1.524-.887 2.287-1.33.711-.413 1.415-.839 2.14-1.23a1.771 1.771 0 0 1 1.802.048c.581.33 1.16.665 1.74.999a2931.586 2931.586 0 0 1 3.143 1.809l1.496.858c.219.126.438.252.656.38a1.84 1.84 0 0 1 .91 1.31c.01.08.014.159.01.238v8.245a1.77 1.77 0 0 1 -.636 1.37 2.115 2.115 0 0 1 -.367.225 1528.518 1528.518 0 0 1 -4.619 2.673c-.763.442-1.525.885-2.287 1.33-.19.128-.403.216-.627.26a1.768 1.768 0 0 1 -1.102-.14c-.38-.205-.75-.425-1.124-.64a848.696 848.696 0 0 1 -1.933-1.11c-.052-.03-.088-.06-.047-.128.188-.315.372-.632.56-.947.006-.012.023-.017.035-.025.174.081.343.174.505.277.82.47 1.64.941 2.457 1.415a.58.58 0 0 0 .63-.007c.777-.456 1.558-.905 2.337-1.356.038-.023.078-.043.117-.064a.642.642 0 0 1 .284-.207c.703-.403 1.402-.814 2.106-1.217.058-.033.111-.085.188-.076l.69-.4c.041-.088.131-.116.206-.16.347-.2.69-.406 1.04-.6a.595.595 0 0 0 .317-.562c.004-.35 0-.702.002-1.053a.258.258 0 0 1 .036-.186z" fill="#96bedc"/><path d="m19.662 14.782c.002.436.012.873.002 1.308a.553.553 0 0 1 -.29.5c-.438.248-.869.51-1.312.753-.176-.322-.38-.628-.572-.94-1-1.62-2-3.24-3.002-4.858-.06-.097-.115-.197-.182-.289a.147.147 0 0 1 0-.187c.24-.4.475-.802.711-1.204l.657-1.114a.125.125 0 0 1 .058-.062l.345.532 2.073 3.228 1.405 2.19a.445.445 0 0 0 .107.143zm-2.289 2.96c-.286.187-.588.347-.882.52-.534.314-1.07.622-1.605.931-.03.018-.061.034-.09.05a.253.253 0 0 0 -.062-.133l-1.43-2.245a616.77 616.77 0 0 0 -1.178-1.843.19.19 0 0 1 -.01-.23c.526-.886 1.05-1.774 1.573-2.663.012-.02.022-.044.053-.05.042.009.053.052.073.084l2.846 4.483.606.954a.471.471 0 0 0 .105.142z" fill="#28a0f0"/></svg>