<svg xmlns="http://www.w3.org/2000/svg" fill="none" viewBox="0 0 24 25">
    <path fill="#70D44B" d="M12 24.785c6.627 0 12-5.373 12-12 0-6.628-5.373-12-12-12s-12 5.372-12 12c0 6.627 5.373 12 12 12Z"/>
    <path fill="#fff" d="M12 5.68a1.662 1.662 0 0 1 1.494.922l4.698 9.397a1.67 1.67 0 0 1-1.494 2.418H7.302a1.67 1.67 0 0 1-1.494-2.418l4.698-9.397A1.663 1.663 0 0 1 12 5.679Zm0-1.15a2.819 2.819 0 0 0-2.52 1.559l-4.7 9.396a2.819 2.819 0 0 0 2.522 4.08h9.396a2.82 2.82 0 0 0 2.521-4.08l-4.698-9.397a2.819 2.819 0 0 0-2.52-1.557Z"/>
</svg>
