<svg xmlns="http://www.w3.org/2000/svg" fill="none" viewBox="0 0 24 24">
    <path fill="#70D44B" d="M12 24c6.627 0 12-5.373 12-12S18.627 0 12 0 0 5.373 0 12s5.373 12 12 12Z"/>
    <path fill="#fff" d="M12 4.895a1.662 1.662 0 0 1 1.494.922l4.698 9.397a1.67 1.67 0 0 1-1.494 2.418H7.302a1.671 1.671 0 0 1-1.494-2.418l4.698-9.397A1.663 1.663 0 0 1 12 4.895Zm0-1.149a2.819 2.819 0 0 0-2.52 1.558L4.78 14.7a2.82 2.82 0 0 0 2.522 4.08h9.396a2.818 2.818 0 0 0 2.521-4.08l-4.698-9.396a2.819 2.819 0 0 0-2.52-1.558Z"/>
</svg>
