<svg xmlns="http://www.w3.org/2000/svg" fill="none" viewBox="0 0 24 25">
    <path fill="#E84142" d="M12 24.785c6.627 0 12-5.373 12-12 0-6.628-5.373-12-12-12s-12 5.372-12 12c0 6.627 5.373 12 12 12Z"/>
    <path fill="#fff" d="M16.098 12.715c.403-.696 1.052-.696 1.455 0l2.506 4.4c.403.695.073 1.262-.732 1.262h-5.05c-.795 0-1.125-.567-.731-1.262l2.552-4.4ZM11.25 4.244c.402-.696 1.043-.696 1.445 0l.558 1.006 1.317 2.314c.32.659.32 1.437 0 2.095l-4.418 7.657a2.323 2.323 0 0 1-1.811 1.061H4.672c-.805 0-1.134-.558-.732-1.262l7.31-12.871Z"/>
</svg>
