<svg fill="none" viewBox="0 0 24 24" xmlns="http://www.w3.org/2000/svg"><path d="m12 24c6.627 0 12-5.373 12-12s-5.373-12-12-12-12 5.373-12 12 5.373 12 12 12z" fill="#e84142"/><path d="m16.098 11.93c.403-.695 1.052-.695 1.455 0l2.506 4.4c.403.696.073 1.263-.732 1.263h-5.05c-.795 0-1.125-.567-.731-1.263zm-4.848-8.471c.402-.695 1.043-.695 1.445 0l.558 1.006 1.317 2.315c.32.658.32 1.436 0 2.095l-4.418 7.657a2.324 2.324 0 0 1 -1.811 1.06h-3.669c-.805 0-1.134-.557-.732-1.262l7.31-12.87z" fill="#fff"/></svg>