<?xml version="1.0" encoding="UTF-8"?><svg id="_圖層_1" xmlns="http://www.w3.org/2000/svg" xmlns:xlink="http://www.w3.org/1999/xlink" viewBox="0 0 476.45 536.09"><defs><style>.cls-1{fill:none;}.cls-2{clip-path:url(#clippath);}.cls-3{fill:#07f;}.cls-4{fill:#14aaff;}</style><clipPath id="clippath"><rect class="cls-1" width="476.45" height="536.09"/></clipPath></defs><g class="cls-2"><g><path class="cls-4" d="M247.26,194.28c-28.45,0-56.22,10.97-76.98,30.43-22.77,21.35-37.18,52.88-45.44,82.54-5.41,19.41-8.12,39.54-8.12,59.68,0,6.09,.25,12.13,.73,18.1,.59,7.26,7.66,12.29,14.7,10.39,6.14-1.65,12.6-2.54,19.26-2.54,13.68,0,26.5,3.72,37.49,10.22,.27,.16,.53,.32,.8,.47,17.86,10.65,38.93,16.5,61.4,15.75,58.61-1.94,106.49-49.63,108.65-108.23,2.36-64.11-48.9-116.82-112.48-116.82Zm0,163.99c-28.41,0-51.44-23.03-51.44-51.43s23.03-51.44,51.44-51.44,51.44,23.03,51.44,51.44-23.03,51.43-51.44,51.43Z"/><path class="cls-3" d="M200.98,158.84h0c0,14.83-7.77,28.59-20.53,36.15-8.01,4.75-15.52,10.36-22.32,16.75-15.09,14.14-26.35,31.49-34.69,48.69-1.64,3.39-6.73,2.19-6.73-1.58v-100.01c0-23.27,18.87-42.14,42.14-42.14h0c23.27,0,42.14,18.87,42.14,42.14Z"/></g></g></svg>