<svg xmlns="http://www.w3.org/2000/svg" viewBox="0 0 43 50">
    <g filter="url('#Blocto_svg__a')">
        <path fill="#AFD8F7" d="M28.944 22.396c.948 0 1.733.775 1.556 1.706a9.1 9.1 0 0 1-5.46 6.706 9.104 9.104 0 0 1-12.427-6.706c-.178-.93.607-1.706 1.555-1.706h14.776Z"/>
        <path fill="#3485C4" d="M21.556 14.222c0-.948.775-1.733 1.707-1.556a9.108 9.108 0 0 1 7.236 7.237c.178.932-.607 1.707-1.555 1.707H24.99a3.433 3.433 0 0 1-3.433-3.433v-3.955Z"/>
        <path fill="#182A71" d="M12.475 6.814c0-.173.141-.314.315-.314"/>
    </g>
    <defs>
        <filter id="Blocto_svg__a" width="62" height="64" x="-9.5" y="-12" color-interpolation-filters="sRGB" filterUnits="userSpaceOnUse">
            <feFlood flood-opacity="0" result="BackgroundImageFix"/>
            <feGaussianBlur in="BackgroundImage" stdDeviation="8"/>
            <feComposite in2="SourceAlpha" operator="in" result="effect1_backgroundBlur_270_89338"/>
            <feColorMatrix in="SourceAlpha" result="hardAlpha" values="0 0 0 0 0 0 0 0 0 0 0 0 0 0 0 0 0 0 127 0"/>
            <feOffset dy="6"/>
            <feGaussianBlur stdDeviation="6"/>
            <feComposite in2="hardAlpha" operator="out"/>
            <feColorMatrix values="0 0 0 0 0.203922 0 0 0 0 0.521569 0 0 0 0 0.768627 0 0 0 0.2 0"/>
            <feBlend in2="effect1_backgroundBlur_270_89338" result="effect2_dropShadow_270_89338"/>
            <feBlend in="SourceGraphic" in2="effect2_dropShadow_270_89338" result="shape"/>
        </filter>
    </defs>
</svg>
