<svg width="43" height="50" viewBox="0 0 43 50" xmlns="http://www.w3.org/2000/svg">
<svg width="43" height="50" view-box="0 0 43 50" fill="none" xmlns="http://www.w3.org/2000/svg">
        <g filter="url(#filter0_bd_270_89338)">
            <path
                d="M28.9443 22.396C29.8924 22.396 30.6773 23.1712 30.4996 24.1025C30.3837 24.7102 30.2058 25.3059 29.9679 25.8802C29.5104 26.9849 28.8397 27.9885 27.9943 28.834C27.1488 29.6794 26.1451 30.3501 25.0405 30.8076C23.9359 31.2652 22.7519 31.5007 21.5563 31.5007C20.3606 31.5007 19.1767 31.2652 18.072 30.8076C16.9674 30.3501 15.9637 29.6794 15.1183 28.834C14.2728 27.9885 13.6022 26.9849 13.1446 25.8802C12.9067 25.3059 12.7289 24.7102 12.6129 24.1025C12.4352 23.1712 13.2201 22.396 14.1682 22.396L21.5563 22.396H28.9443Z"
                fill="#AFD8F7"
            />
            <path
                d="M21.556 14.2218C21.556 13.2737 22.3313 12.4888 23.2626 12.6665C23.8702 12.7825 24.466 12.9603 25.0403 13.1982C26.1449 13.6558 27.1486 14.3264 27.994 15.1719C28.8395 16.0173 29.5101 17.021 29.9677 18.1256C30.2056 18.6999 30.3834 19.2957 30.4994 19.9034C30.6771 20.8346 29.8922 21.6099 28.9441 21.6099L24.9893 21.6099C23.0932 21.6099 21.556 20.0727 21.556 18.1766L21.556 14.2218Z"
                fill="#3485C4"
            />
            <path
                d="M12.4753 6.8142C12.4753 6.64067 12.616 6.5 12.7895 6.5L-nan -nanL-nan -nanL12.7895 6.5C17.0844 6.5 20.5661 9.98169 20.5661 14.2766V21.0231C20.5661 21.3472 20.3034 21.6099 19.9793 21.6099H14.192C13.2439 21.6099 12.4753 20.8413 12.4753 19.8932V6.8142Z"
                fill="#182A71"
            />
        </g>
        <defs>
            <filter
                id="filter0_bd_270_89338"
                x="-9.5"
                y="-12"
                width="62"
                height="64"
                filter-units="userSpaceOnUse"
                color-interpolation-filters="sRGB">
                <feFlood flood-opacity="0" result="BackgroundImageFix" />
                <feGaussianBlur in="BackgroundImage" std-deviation="8" />
                <feComposite in2="SourceAlpha" operator="in" result="effect1_backgroundBlur_270_89338" />
                <feColorMatrix
                    in="SourceAlpha"
                    type="matrix"
                    values="0 0 0 0 0 0 0 0 0 0 0 0 0 0 0 0 0 0 127 0"
                    result="hardAlpha"
                />
                <feOffset dy="6" />
                <feGaussianBlur std-deviation="6" />
                <feComposite in2="hardAlpha" operator="out" />
                <feColorMatrix type="matrix" values="0 0 0 0 0.203922 0 0 0 0 0.521569 0 0 0 0 0.768627 0 0 0 0.2 0" />
                <feBlend mode="normal" in2="effect1_backgroundBlur_270_89338" result="effect2_dropShadow_270_89338" />
                <feBlend mode="normal" in="SourceGraphic" in2="effect2_dropShadow_270_89338" result="shape" />
            </filter>
        </defs>
    </svg>
</svg>
  