<svg xmlns="http://www.w3.org/2000/svg" fill="none" viewBox="0 0 24 25">
    <path fill="#F3BA2F" d="M23.641 14.905c-1.603 6.429-8.115 10.342-14.545 8.738C2.67 22.041-1.244 15.528.36 9.1 1.962 2.67 8.473-1.244 14.902.36c6.43 1.603 10.342 8.116 8.739 14.546Z"/>
    <path fill="#fff" fill-rule="evenodd" d="m12 7.616-3.107 3.108-1.808-1.808L12.001 4l4.917 4.917-1.808 1.808L12 7.616Zm-6.192 2.577L4 12.002l1.808 1.808L7.616 12l-1.808-1.808Zm3.086 3.086L12 16.386l3.11-3.109 1.809 1.808h-.001L12 20.003l-4.915-4.916-.003-.003 1.81-1.805Zm9.3-3.086-1.808 1.809 1.808 1.808L20.002 12l-1.808-1.808Z" clip-rule="evenodd"/>
    <path fill="#fff" d="m13.836 12-1.834-1.834-1.356 1.356-.156.156-.321.321-.003.002.003.003 1.833 1.834 1.835-1.835V12"/>
</svg>
