<svg xmlns="http://www.w3.org/2000/svg" fill="none" viewBox="0 0 24 25">
    <path fill="#F3BA2F" d="M23.641 15.69c-1.603 6.429-8.115 10.341-14.545 8.738C2.67 22.825-1.244 16.313.36 9.884c1.603-6.43 8.114-10.343 14.543-8.74 6.43 1.603 10.342 8.116 8.739 14.545Z"/>
    <path fill="#fff" fill-rule="evenodd" d="M12 8.401 8.894 11.51 7.085 9.7l4.916-4.915 4.917 4.917-1.808 1.808L12 8.401Zm-6.192 2.577L4 12.787l1.808 1.807 1.808-1.808-1.808-1.808Zm3.086 3.085L12 17.171l3.11-3.109 1.809 1.807-.001.001L12 20.787l-4.915-4.915-.003-.003 1.81-1.806Zm9.3-3.085-1.808 1.808 1.808 1.808 1.808-1.808-1.808-1.808Z" clip-rule="evenodd"/>
    <path fill="#fff" d="m13.836 12.786-1.834-1.835-1.356 1.355-.156.156-.321.322-.003.002.003.003 1.833 1.833 1.835-1.835-.001-.002"/>
</svg>
