<svg xmlns="http://www.w3.org/2000/svg" fill="none" viewBox="0 0 24 25">
    <rect width="24" height="24" y=".785" fill="#fff" rx="12"/>
    <path fill="#FBCC5C" d="M9.9 20.659a5.775 5.775 0 1 0 0-11.55 5.775 5.775 0 0 0 0 11.55Zm0 2.1a7.875 7.875 0 1 1 0-15.75 7.875 7.875 0 0 1 0 15.75Z"/>
    <path fill="#35D07F" d="M14.1 16.46a5.775 5.775 0 1 0 0-11.55 5.775 5.775 0 0 0 0 11.55Zm0 2.1a7.875 7.875 0 1 1 0-15.75 7.875 7.875 0 0 1 0 15.75Z"/>
    <path fill="#5EA33B" d="M14.36 18.559a5.762 5.762 0 0 0 1.146-2.27 5.761 5.761 0 0 0 2.27-1.145 7.847 7.847 0 0 1-.613 2.803 7.847 7.847 0 0 1-2.803.612Zm-5.865-9.28a5.766 5.766 0 0 0-2.27 1.145c.03-.964.238-1.914.613-2.803A7.846 7.846 0 0 1 9.64 7.01a5.762 5.762 0 0 0-1.145 2.27Z"/>
</svg>
