<svg xmlns="http://www.w3.org/2000/svg" fill="none" viewBox="0 0 24 24">
    <rect width="24" height="24" fill="#fff" rx="12"/>
    <path fill="#fbcc5c" d="M9.9 19.874a5.775 5.775 0 1 0 0-11.55 5.775 5.775 0 0 0 0 11.55m0 2.1a7.875 7.875 0 1 1 0-15.75 7.875 7.875 0 0 1 0 15.75"/>
    <path fill="#35d07f" d="M14.1 15.675a5.775 5.775 0 1 0 0-11.55 5.775 5.775 0 0 0 0 11.55m0 2.1a7.875 7.875 0 1 1 0-15.75 7.875 7.875 0 0 1 0 15.75"/>
    <path fill="#5ea33b" d="M14.36 17.774a5.8 5.8 0 0 0 1.146-2.27 5.8 5.8 0 0 0 2.27-1.144 7.9 7.9 0 0 1-.613 2.802 7.9 7.9 0 0 1-2.803.612m-5.865-9.28a5.8 5.8 0 0 0-2.27 1.145c.03-.964.238-1.914.613-2.802a7.9 7.9 0 0 1 2.802-.612 5.8 5.8 0 0 0-1.145 2.269"/>
</svg>
