<svg fill="none" viewBox="0 0 24 24" xmlns="http://www.w3.org/2000/svg"><rect fill="#fff" height="24" rx="12" width="24"/><path d="m9.9 19.874a5.775 5.775 0 1 0 0-11.55 5.775 5.775 0 0 0 0 11.55zm0 2.1a7.875 7.875 0 1 1 0-15.75 7.875 7.875 0 0 1 0 15.75z" fill="#fbcc5c"/><path d="m14.1 15.675a5.775 5.775 0 1 0 0-11.55 5.775 5.775 0 0 0 0 11.55zm0 2.1a7.875 7.875 0 1 1 0-15.75 7.875 7.875 0 0 1 0 15.75z" fill="#35d07f"/><path d="m14.36 17.774a5.762 5.762 0 0 0 1.146-2.27 5.761 5.761 0 0 0 2.27-1.144 7.846 7.846 0 0 1 -.613 2.802 7.847 7.847 0 0 1 -2.803.612zm-5.865-9.28a5.78 5.78 0 0 0 -2.27 1.145c.03-.964.238-1.914.613-2.802a7.845 7.845 0 0 1 2.802-.612 5.762 5.762 0 0 0 -1.145 2.269z" fill="#5ea33b"/></svg>