<svg xmlns="http://www.w3.org/2000/svg" fill="none" viewBox="0 0 24 24">
    <rect width="24" height="24" fill="#000" rx="12"/>
    <path fill="#fff" d="M17.916 13.566c-.283.17-.613.201-.865.062-.315-.186-.504-.605-.504-1.178v-1.752c0-.838-.33-1.442-.897-1.597-.96-.28-1.685.883-1.953 1.318l-1.7 2.682V9.798c-.015-.76-.267-1.209-.74-1.348-.314-.093-.787-.047-1.243.635L6.22 15.07c-.504-.946-.772-2-.772-3.07 0-3.612 2.944-6.543 6.55-6.543 3.604 0 6.548 2.93 6.548 6.543v.031c.032.698-.189 1.256-.63 1.535M19.995 12v-.031C19.979 7.581 16.39 4 11.997 4 7.59 4 4 7.581 4 12c0 4.403 3.59 8 7.997 8a7.92 7.92 0 0 0 5.431-2.14.71.71 0 0 0 .032-1.023.73.73 0 0 0-1.023-.046l-.016.015a6.56 6.56 0 0 1-4.455 1.752 6.5 6.5 0 0 1-4.865-2.17l3.417-5.396v2.496c0 1.194.472 1.582.865 1.69.394.109.992.031 1.638-.976l1.873-2.993c.063-.093.11-.186.173-.248v1.52c0 1.116.457 2.015 1.244 2.45.708.402 1.605.356 2.345-.094.914-.589 1.402-1.612 1.339-2.837"/>
</svg>
