<svg fill="none" viewBox="0 0 24 24" xmlns="http://www.w3.org/2000/svg"><path d="m24 11.947a12 12 0 1 1 -24.001.106 12 12 0 0 1 24-.106z" fill="#8dc63f"/><path d="m23.1 11.95a11.098 11.098 0 1 1 -22.195.101 11.098 11.098 0 0 1 22.196-.1z" fill="#f9e988"/><path d="m12.205 1.623a6.103 6.103 0 0 1 2.133 0c.712.113 1.4.344 2.037.683.634.348 1.18.82 1.725 1.262.544.443 1.086.896 1.601 1.392a8.125 8.125 0 0 1 1.367 1.652 9.4 9.4 0 0 1 .956 1.928c.464 1.361.624 2.828.393 4.228h-.069c-.232-1.387-.546-2.71-1.043-3.967a15.487 15.487 0 0 0 -.82-1.847 18.162 18.162 0 0 0 -1.08-1.733 6.286 6.286 0 0 0 -1.448-1.461c-.563-.402-1.211-.662-1.838-.909s-1.249-.503-1.903-.69a24.114 24.114 0 0 0 -2.012-.466l.001-.072z" fill="#fff"/><path d="m17.63 8.033c-.806-.233-1.64-.563-2.486-.897-.049-.213-.237-.477-.617-.8-.552-.479-1.59-.466-2.486-.254-.99-.233-1.967-.316-2.905-.087-7.674 2.114-3.323 7.271-6.14 12.455.401.85 4.722 5.813 10.974 4.481 0 0-2.138-5.138 2.687-7.604 3.914-2.008 6.742-5.723.972-7.294z" fill="#8bc53f"/><path d="m18.578 11.408a.465.465 0 1 1 -.93.005.465.465 0 0 1 .93-.005z" fill="#fff"/><path d="m12.042 6.08c.56.04 2.58.696 3.103 1.054-.435-1.26-1.899-1.429-3.103-1.054z" fill="#009345"/><path d="m12.573 9.268a2.146 2.146 0 1 1 -4.292.002 2.146 2.146 0 0 1 4.292-.002z" fill="#fff"/><path d="m11.938 9.289a1.51 1.51 0 1 1 -3.02 0 1.51 1.51 0 0 1 3.02 0z" fill="#58595b"/><path d="m20.316 12.356c-1.74 1.225-3.717 2.154-6.522 2.154-1.313 0-1.58-1.39-2.447-.71-.448.352-2.027 1.142-3.28 1.082s-3.284-.795-3.85-3.47c-.225 2.675-.34 4.645-1.344 6.904 2 3.202 6.769 5.673 11.097 4.608-.465-3.247 2.373-6.428 3.973-8.056.608-.617 1.765-1.623 2.373-2.514z" fill="#8bc53f"/><path d="m20.248 12.435c-.54.492-1.182.857-1.836 1.178-.662.315-1.352.566-2.061.75-.71.184-1.45.323-2.2.255-.749-.068-1.515-.323-2.011-.885l.023-.027c.609.395 1.311.534 2.01.554a9.446 9.446 0 0 0 2.114-.174c.702-.147 1.39-.36 2.053-.634s1.32-.592 1.885-1.044z" fill="#58595b"/></svg>