<svg xmlns="http://www.w3.org/2000/svg" fill="none" viewBox="0 0 24 24">
    <path fill="#8dc63f" d="M24 11.947a12 12 0 1 1-24.001.106 12 12 0 0 1 24-.106z"/>
    <path fill="#f9e988" d="M23.1 11.95a11.098 11.098 0 1 1-22.195.101 11.098 11.098 0 0 1 22.196-.1z"/>
    <path fill="#fff" d="M12.205 1.623a6.1 6.1 0 0 1 2.133 0c.712.113 1.4.344 2.037.683.634.348 1.18.82 1.725 1.262.544.443 1.086.896 1.601 1.392a8 8 0 0 1 1.367 1.652 9.4 9.4 0 0 1 .956 1.928c.464 1.361.624 2.828.393 4.228h-.069c-.232-1.387-.546-2.71-1.043-3.967a15.5 15.5 0 0 0-.82-1.847 18 18 0 0 0-1.08-1.733 6.3 6.3 0 0 0-1.448-1.461c-.563-.402-1.211-.662-1.838-.909s-1.249-.503-1.903-.69a24 24 0 0 0-2.012-.466z"/>
    <path fill="#8bc53f" d="M17.63 8.033c-.806-.233-1.64-.563-2.486-.897-.049-.213-.237-.477-.617-.8-.552-.479-1.59-.466-2.486-.254-.99-.233-1.967-.316-2.905-.087-7.674 2.114-3.323 7.271-6.14 12.455.401.85 4.722 5.813 10.974 4.481 0 0-2.138-5.138 2.687-7.604 3.914-2.008 6.742-5.723.972-7.294z"/>
    <path fill="#fff" d="M18.578 11.408a.465.465 0 1 1-.93.005.465.465 0 0 1 .93-.005"/>
    <path fill="#009345" d="M12.042 6.08c.56.04 2.58.696 3.103 1.054-.435-1.26-1.899-1.429-3.103-1.054"/>
    <path fill="#fff" d="M12.573 9.268a2.146 2.146 0 1 1-4.292.002 2.146 2.146 0 0 1 4.292-.002"/>
    <path fill="#58595b" d="M11.938 9.289a1.51 1.51 0 1 1-3.02 0 1.51 1.51 0 0 1 3.02 0"/>
    <path fill="#8bc53f" d="M20.316 12.356c-1.74 1.225-3.717 2.154-6.522 2.154-1.313 0-1.58-1.39-2.447-.71-.448.352-2.027 1.142-3.28 1.082s-3.284-.795-3.85-3.47c-.225 2.675-.34 4.645-1.344 6.904 2 3.202 6.769 5.673 11.097 4.608-.465-3.247 2.373-6.428 3.973-8.056.608-.617 1.765-1.623 2.373-2.514z"/>
    <path fill="#58595b" d="M20.248 12.435c-.54.492-1.182.857-1.836 1.178-.662.315-1.352.566-2.061.75-.71.184-1.45.323-2.2.255-.749-.068-1.515-.323-2.011-.885l.023-.027c.609.395 1.311.534 2.01.554a9.5 9.5 0 0 0 2.114-.174c.702-.147 1.39-.36 2.053-.634s1.32-.592 1.885-1.044z"/>
</svg>
