<svg xmlns="http://www.w3.org/2000/svg" fill="none" viewBox="0 0 24 24">
    <path fill="#3B87EB" d="M7.872 0h8.256A7.87 7.87 0 0 1 24 7.872v8.256A7.87 7.87 0 0 1 16.128 24H7.872A7.87 7.87 0 0 1 0 16.128V7.872A7.87 7.87 0 0 1 7.872 0"/>
    <path fill="#fff" d="m8.373 17.068-3.1-3.1-.006.005-2.113-2.113 4.45-4.45 2.113 2.113-2.327 2.332 3.099 3.104 2.4-2.4 2.116 2.109-2.406 2.4a2.99 2.99 0 0 1-4.226 0m8.245-1.915-8.34-8.34a2.99 2.99 0 0 1 4.225 0l3.066 3.068 1.145-1.145a2.99 2.99 0 0 1 4.226 0l-3.258 3.258 3.163 3.162a2.99 2.99 0 0 1-4.227 0z"/>
</svg>
