<svg xmlns="http://www.w3.org/2000/svg" fill="none" viewBox="0 0 24 24">
    <circle cx="12.001" cy="12" r="12" fill="#2e3148"/>
    <g fill="#fff">
        <path d="M12.019 4.148c-.972 0-1.76 3.524-1.76 7.87 0 4.348.788 7.871 1.76 7.871s1.76-3.523 1.76-7.87-.788-7.87-1.76-7.87zm.121 15.297c-.11.148-.222.037-.222.037-.447-.518-.67-1.481-.67-1.481-.783-2.519-.597-7.926-.597-7.926.368-4.293 1.037-5.307 1.264-5.533a.14.14 0 0 1 .179-.014c.33.234.607 1.213.607 1.213.818 3.037.744 5.889.744 5.889.074 2.481-.41 5.26-.41 5.26-.373 2.11-.895 2.555-.895 2.555"/>
        <path d="M18.846 8.102c-.484-.843-3.932.228-7.704 2.39-3.772 2.164-6.433 4.6-5.95 5.443.484.843 3.932-.227 7.704-2.39 3.773-2.163 6.433-4.6 5.95-5.443M5.64 15.82c-.186-.024-.144-.176-.144-.176.227-.646.95-1.319.95-1.319 1.796-1.932 6.58-4.461 6.58-4.461 3.906-1.818 5.12-1.741 5.427-1.656a.14.14 0 0 1 .1.148c-.036.403-.75 1.13-.75 1.13-2.225 2.222-4.736 3.577-4.736 3.577-2.115 1.3-4.765 2.262-4.765 2.262-2.017.726-2.662.495-2.662.495"/>
        <path d="M18.83 15.963c.487-.84-2.167-3.288-5.926-5.468-3.76-2.179-7.207-3.263-7.694-2.42-.487.842 2.167 3.289 5.928 5.468 3.76 2.18 7.204 3.263 7.691 2.42zM5.532 8.4c-.072-.171.08-.212.08-.212.673-.127 1.618.162 1.618.162 2.572.586 7.157 3.458 7.157 3.458 3.53 2.47 4.072 3.559 4.153 3.867a.14.14 0 0 1-.077.162c-.368.168-1.354-.083-1.354-.083-3.04-.814-5.47-2.307-5.47-2.307-2.183-1.178-4.343-2.99-4.343-2.99C5.657 9.075 5.533 8.4 5.533 8.4z"/>
        <path d="M12.001 12.926a.926.926 0 1 0 0-1.852.926.926 0 0 0 0 1.852M15.798 9a.546.546 0 0 0 .537-.556.546.546 0 0 0-.537-.555.547.547 0 0 0-.537.555c0 .307.24.556.537.556m-8.816 1.888a.546.546 0 0 0 .537-.555.547.547 0 0 0-.537-.556.547.547 0 0 0-.537.556c0 .307.24.555.537.555m3.926 6.815a.547.547 0 0 0 .537-.556.547.547 0 0 0-.537-.555.546.546 0 0 0-.537.555c0 .307.24.556.537.556"/>
    </g>
</svg>
