<svg xmlns="http://www.w3.org/2000/svg" fill="none" viewBox="0 0 24 24">
    <rect width="24" height="24" fill="#ffcf55" rx="12"/>
    <path fill="#fff" d="M14.56 19.577C14.56 20.363 13.414 21 12 21s-2.56-.637-2.56-1.423zm-4.592-9.532-4.16.79C5.809 6.508 8.355 3 11.496 3l-.025 5.69zm1.292 2.878-.224 2.356-.304 3.203-.076.01c-1.021.106-2.454-.219-3.884-.956-1.728-.893-2.97-2.139-3.268-3.159a2.8 2.8 0 0 0 1.234-.393c.519-.3.902-.706 1.081-1.096q.038-.083.065-.17a.9.9 0 0 0 .037-.427l4.043-.667zm2.769-2.878 4.16.79C18.19 6.508 15.644 3 12.504 3l.026 5.69zm-1.291 2.878.224 2.356.304 3.203.077.01c1.02.106 2.453-.219 3.883-.956 1.73-.893 2.97-2.139 3.269-3.159a2.8 2.8 0 0 1-1.235-.393c-.518-.3-.902-.706-1.08-1.096a1 1 0 0 1-.065-.17.9.9 0 0 1-.037-.427l-4.043-.667z"/>
</svg>
