<svg xmlns="http://www.w3.org/2000/svg" fill="none" viewBox="0 0 24 24">
    <g clip-path="url('#CrossSync_svg__a')">
        <circle cx="12" cy="12" r="12" fill="#fff"/>
        <path fill="#5088FF" d="M24 12c0 6.628-5.372 12-12 12-3.406 0-6.482-1.42-8.665-3.699a8.74 8.74 0 0 0 8.842-2.923 8.7 8.7 0 0 0 1.429-2.446c.373-.972.578-2.03.578-3.133l-.002-.016a2.22 2.22 0 0 0-2.045-2.197 3.8 3.8 0 0 0-1.176.086 3.9 3.9 0 0 0-1.382.617q-.004.001-.003.002c-.472.37-.876.869-1.228 1.415-.454.704-.824 1.482-1.149 2.18-.461.04-.98.002-1.535-.236-.573-.248-.798-.545-.97-.432-.373.248.27 1.984 1.249 3.326-.699 1.418-1.582 2.884-2.56 3.115-.171.031-.297.141-.297.328q0 .026.004.05A11.95 11.95 0 0 1 0 12C0 5.372 5.372 0 12 0s12 5.372 12 12"/>
        <path fill="#5088FF" d="m13.094 12.245-.342.466a.31.31 0 0 1-.29.126.314.314 0 0 1-.218-.498l.346-.466a.313.313 0 1 1 .504.372"/>
    </g>
    <defs>
        <clipPath id="CrossSync_svg__a">
            <path fill="#fff" d="M0 0h24v24H0z"/>
        </clipPath>
    </defs>
</svg>
