<svg fill="none" viewBox="0 0 24 24" xmlns="http://www.w3.org/2000/svg"><rect fill="#ffcf55" height="24" rx="12" width="24"/><path d="m14.56 19.577c0 .786-1.146 1.423-2.56 1.423s-2.56-.637-2.56-1.423zm-4.592-9.532-4.16.79c.001-4.327 2.547-7.835 5.688-7.835l-.025 5.69-1.502 1.355zm1.292 2.878-.224 2.356-.304 3.203-.076.01c-1.021.106-2.454-.219-3.884-.956-1.728-.893-2.97-2.139-3.268-3.159a2.817 2.817 0 0 0 1.234-.393c.519-.3.902-.706 1.081-1.096.026-.055.047-.112.065-.17a.917.917 0 0 0 .037-.427l4.043-.667zm2.769-2.878 4.16.79c.001-4.327-2.545-7.835-5.685-7.835l.026 5.69zm-1.291 2.878.224 2.356.304 3.203.077.01c1.02.106 2.453-.219 3.883-.956 1.73-.893 2.97-2.139 3.269-3.159a2.817 2.817 0 0 1 -1.235-.393c-.518-.3-.902-.706-1.08-1.096a1.276 1.276 0 0 1 -.065-.17.917.917 0 0 1 -.037-.427l-4.043-.667z" fill="#fff"/></svg>