<svg xmlns="http://www.w3.org/2000/svg" fill="none" viewBox="0 0 24 25">
    <g clip-path="url('#Danger_svg__a')">
        <rect width="24" height="24" y=".096" fill="#FEDA03" rx="6"/>
        <path fill="#000" d="M12 9.763a1.833 1.833 0 1 1 0 3.666 1.833 1.833 0 0 1 0-3.666Zm-9 1.813A9.235 9.235 0 0 1 4.222 6.97a9.067 9.067 0 0 1 3.341-3.374l3 5.214a3.105 3.105 0 0 0-1.653 2.738L3 11.576Zm13.31 7.913A8.86 8.86 0 0 1 12 20.596a9.066 9.066 0 0 1-4.563-1.233l2.94-5.167a3.075 3.075 0 0 0 3.2.029l2.955 5.138-.222.127Zm-1.22-7.938a3.104 3.104 0 0 0-1.638-2.733l2.985-5.19.23.135a9.048 9.048 0 0 1 3.12 3.24A9.239 9.239 0 0 1 21 11.61l-5.91-.059Z"/>
    </g>
    <defs>
        <clipPath id="Danger_svg__a">
            <rect width="24" height="24" y=".096" fill="#fff" rx="6"/>
        </clipPath>
    </defs>
</svg>
