<svg xmlns="http://www.w3.org/2000/svg" fill="none" viewBox="0 0 20 20">
    <path fill="currentColor" fill-rule="evenodd" d="M10 7.134c.37 0 .668.299.668.667v3.658a.667.667 0 0 1-1.334 0V7.801c0-.368.299-.667.667-.667Z" clip-rule="evenodd"/>
    <path fill="currentColor" fill-rule="evenodd" d="M10 3.78c-.526 0-1.201.36-1.787 1.417L3.78 13.172c-.544.981-.506 1.727-.236 2.187s.9.855 2.024.855H10q.05 0 .099.007h4.335c1.118 0 1.75-.395 2.02-.855.272-.461.31-1.206-.233-2.186L13.94 9.068l-2.151-3.87C11.203 4.14 10.527 3.779 10 3.779Zm-.098 13.767H5.567c-1.416 0-2.585-.511-3.174-1.513-.587-1.001-.465-2.272.22-3.508l4.434-7.975c.717-1.292 1.76-2.105 2.954-2.105 1.193 0 2.236.812 2.953 2.104m0 0 2.151 3.87 2.283 4.113c.686 1.237.805 2.508.217 3.509s-1.758 1.513-3.17 1.513H10a1 1 0 0 1-.1-.008" clip-rule="evenodd"/>
    <path fill="currentColor" fill-rule="evenodd" d="M9.163 13.654c0-.46.373-.833.833-.833h.006a.833.833 0 0 1 0 1.667h-.006a.833.833 0 0 1-.833-.834" clip-rule="evenodd"/>
</svg>
