<svg xmlns="http://www.w3.org/2000/svg" fill="none" viewBox="0 0 24 25">
    <g clip-path="url('#Danger_svg__a')">
        <rect width="24" height="24" y=".096" fill="#FEDA03" rx="6"/>
        <path fill="#000" d="M12 9.763a1.833 1.833 0 1 1 0 3.666 1.833 1.833 0 0 1 0-3.666m-9 1.813A9.24 9.24 0 0 1 4.222 6.97a9.07 9.07 0 0 1 3.341-3.374l3 5.214a3.1 3.1 0 0 0-1.653 2.738zm13.31 7.913A8.86 8.86 0 0 1 12 20.596a9.07 9.07 0 0 1-4.563-1.233l2.94-5.167a3.08 3.08 0 0 0 3.2.029l2.955 5.138zm-1.22-7.938a3.1 3.1 0 0 0-1.638-2.733l2.985-5.19.23.135a9.05 9.05 0 0 1 3.12 3.24A9.24 9.24 0 0 1 21 11.61z"/>
    </g>
    <defs>
        <clipPath id="Danger_svg__a">
            <rect width="24" height="24" y=".096" fill="#fff" rx="6"/>
        </clipPath>
    </defs>
</svg>
