<svg xmlns="http://www.w3.org/2000/svg" fill="none" viewBox="0 0 24 24">
    <rect width="24" height="24" fill="#272D29" rx="12"/>
    <g clip-path="url('#DarkLens_svg__clip0_5288_44769')">
        <path fill="#F6D4D2" d="M15.585 9.954a.118.118 0 0 1-.204-.085c0-.1 0-.21-.004-.314-.119-4.332-6.602-4.332-6.72 0-.003.104-.005.21-.005.315a.12.12 0 0 1-.204.085c-.073-.074-.15-.149-.224-.22-3.129-2.978-7.71 1.641-4.753 4.784.072.076.145.152.22.226 3.567 3.593 8.325 3.593 8.326 3.593 0 0 4.758 0 8.327-3.593.074-.074.147-.15.218-.226 2.958-3.146-1.626-7.762-4.752-4.784a6.791 6.791 0 0 0-.225.22Z"/>
        <path fill="#383F3A" fill-rule="evenodd" d="M14.773 13.21c-.1 0-.136.146-.072.223a.79.79 0 0 1 .182.506c0 .436-.351.79-.784.79a.787.787 0 0 1-.785-.79c0-.024-.03-.035-.044-.017a1.351 1.351 0 0 0-.241.565c-.02.114-.111.208-.226.208h-.064c-.15 0-.274-.123-.252-.271.152-1.02 1.15-1.758 2.286-1.758 1.136 0 2.133.739 2.285 1.758.022.148-.102.27-.252.27-.15 0-.27-.122-.302-.27-.149-.667-.838-1.214-1.732-1.214Zm-6.965.729c0-.031-.04-.048-.059-.023-.132.174-.222.37-.26.578-.023.122-.122.224-.246.224h-.047c-.15 0-.274-.123-.252-.271.152-1.02 1.15-1.758 2.285-1.758 1.137 0 2.134.738 2.286 1.758.022.148-.102.27-.252.27-.15 0-.27-.122-.302-.27-.149-.667-.838-1.214-1.731-1.214-.082 0-.111.115-.057.175a.79.79 0 0 1 .203.53c0 .437-.35.79-.784.79a.787.787 0 0 1-.784-.79Zm5.483 1.818c-.132-.072-.296-.02-.402.086a1.235 1.235 0 0 1-.875.345c-.36 0-.67-.139-.874-.344-.107-.106-.27-.159-.403-.087-.132.072-.183.239-.088.356.31.382.813.62 1.365.62.553 0 1.055-.241 1.364-.62.095-.117.045-.284-.087-.356Z" clip-rule="evenodd"/>
    </g>
    <defs>
        <clipPath id="DarkLens_svg__clip0_5288_44769">
            <path fill="#fff" d="M2 5.822h20v12.903H2z"/>
        </clipPath>
    </defs>
</svg>
