<svg xmlns="http://www.w3.org/2000/svg" fill="none" viewBox="0 0 24 24">
    <path fill="#FE815F" fill-rule="evenodd" d="M21.677 16.4c0 3.645-3 6.6-6.7 6.6H2.325v-4.4h12.654c1.233 0 2.233-.985 2.233-2.2 0-1.215-1-2.2-2.233-2.2h-4.466V9.8h4.466c1.233 0 2.233-.985 2.233-2.2 0-1.215-1-2.2-2.233-2.2H2.324V1h12.654c3.7 0 6.699 2.955 6.699 6.6 0 1.69-.645 3.232-1.706 4.4a6.521 6.521 0 0 1 1.706 4.4Z" clip-rule="evenodd" opacity=".8"/>
    <path fill="#000" fill-rule="evenodd" d="M2.324 5.4h10.869C10.883 2.728 7.208 1 3.069 1c-.25 0-.498.006-.745.019V5.4Zm13.145 8.8h-4.213V9.8h4.213a9.66 9.66 0 0 1 0 4.4ZM2.324 18.6h10.868C10.884 21.272 7.208 23 3.07 23c-.25 0-.498-.006-.745-.019V18.6Z" clip-rule="evenodd" opacity=".12"/>
    <path fill="#FF6238" d="M2.324 1C8.49 1 13.49 5.925 13.49 12s-5 11-11.166 11v-4.4c3.7 0 6.7-2.955 6.7-6.6 0-3.645-3-6.6-6.7-6.6V1Z"/>
</svg>
