<svg xmlns="http://www.w3.org/2000/svg" fill="none" viewBox="0 0 20 21">
    <circle cx="10" cy="10.925" r="10" fill="#07101B"/>
    <path fill="#fff" d="M14.918 6.413a11.7 11.7 0 0 0-2.886-.895.044.044 0 0 0-.046.022 8 8 0 0 0-.36.738 10.8 10.8 0 0 0-3.24 0 8 8 0 0 0-.365-.738.05.05 0 0 0-.047-.022c-.996.172-1.966.472-2.885.895a.04.04 0 0 0-.02.016c-1.837 2.745-2.34 5.424-2.094 8.069a.05.05 0 0 0 .019.033 11.8 11.8 0 0 0 3.54 1.79.05.05 0 0 0 .05-.016 8.5 8.5 0 0 0 .724-1.18.05.05 0 0 0 .001-.036.05.05 0 0 0-.026-.025 8 8 0 0 1-1.106-.527.05.05 0 0 1-.022-.037.05.05 0 0 1 .018-.039 9 9 0 0 0 .22-.172.04.04 0 0 1 .045-.006c2.32 1.059 4.832 1.059 7.124 0a.04.04 0 0 1 .046.005q.108.089.221.173.009.007.014.017a.05.05 0 0 1-.002.043l-.016.015a7.3 7.3 0 0 1-1.106.527.05.05 0 0 0-.029.045.04.04 0 0 0 .005.018q.319.616.723 1.177a.045.045 0 0 0 .05.017 11.7 11.7 0 0 0 3.546-1.79.05.05 0 0 0 .018-.032c.295-3.058-.495-5.714-2.096-8.069a.04.04 0 0 0-.019-.017Zm-7.264 6.474c-.698 0-1.274-.64-1.274-1.429 0-.787.564-1.428 1.274-1.428.715 0 1.285.647 1.274 1.428 0 .788-.564 1.43-1.274 1.43Zm4.71 0c-.698 0-1.273-.64-1.273-1.429 0-.787.564-1.428 1.274-1.428.715 0 1.285.647 1.273 1.428 0 .788-.558 1.43-1.274 1.43Z"/>
</svg>
