<svg xmlns="http://www.w3.org/2000/svg" viewBox="0 0 24 24">
    <circle cx="12" cy="12" r="12" fill="#767f8d"/>
    <path fill="#fff" d="M17.901 6.585a14 14 0 0 0-3.463-1.074.05.05 0 0 0-.055.026 10 10 0 0 0-.432.886 13 13 0 0 0-3.888 0 9 9 0 0 0-.438-.886.06.06 0 0 0-.056-.026 14 14 0 0 0-3.463 1.074.05.05 0 0 0-.022.02c-2.206 3.294-2.81 6.508-2.514 9.682a.06.06 0 0 0 .023.04 14.1 14.1 0 0 0 4.247 2.147.06.06 0 0 0 .06-.02c.328-.446.619-.92.87-1.413a.054.054 0 0 0-.03-.075 9 9 0 0 1-1.328-.633.05.05 0 0 1-.026-.044.06.06 0 0 1 .021-.046 8 8 0 0 0 .264-.207.05.05 0 0 1 .055-.007c2.784 1.27 5.798 1.27 8.549 0a.05.05 0 0 1 .056.006q.128.105.264.208a.055.055 0 0 1-.005.09 9 9 0 0 1-1.327.632.054.054 0 0 0-.029.076q.382.738.868 1.412a.054.054 0 0 0 .06.02 14 14 0 0 0 4.254-2.146.05.05 0 0 0 .022-.04c.355-3.67-.594-6.857-2.515-9.682a.04.04 0 0 0-.022-.02m-8.716 7.77c-.838 0-1.53-.77-1.53-1.715s.678-1.715 1.53-1.715c.858 0 1.542.776 1.529 1.715 0 .945-.678 1.714-1.53 1.714zm5.652 0c-.838 0-1.528-.77-1.528-1.715s.677-1.715 1.528-1.715c.859 0 1.543.776 1.529 1.715 0 .945-.67 1.714-1.529 1.714z"/>
</svg>
