<svg xmlns="http://www.w3.org/2000/svg" fill="none" viewBox="0 0 20 21">
    <circle cx="10" cy="10.857" r="10" fill="#F5F5F5"/>
    <path fill="#15202B" d="M14.917 6.345a11.69 11.69 0 0 0-2.885-.896.044.044 0 0 0-.047.022c-.132.24-.252.487-.359.739a10.79 10.79 0 0 0-3.24 0 7.492 7.492 0 0 0-.366-.739.046.046 0 0 0-.046-.022 11.61 11.61 0 0 0-2.885.896.041.041 0 0 0-.02.016c-1.837 2.745-2.34 5.424-2.094 8.068a.049.049 0 0 0 .019.034 11.756 11.756 0 0 0 3.54 1.79.046.046 0 0 0 .05-.017c.273-.372.515-.766.723-1.178a.046.046 0 0 0 .002-.037.045.045 0 0 0-.026-.026 7.735 7.735 0 0 1-1.106-.527.045.045 0 0 1-.018-.058.045.045 0 0 1 .014-.017 9.26 9.26 0 0 0 .22-.172.044.044 0 0 1 .045-.006c2.32 1.059 4.832 1.059 7.124 0a.043.043 0 0 1 .046.005c.072.059.146.117.22.173a.046.046 0 0 1 .019.039.045.045 0 0 1-.022.036 7.267 7.267 0 0 1-1.106.527.044.044 0 0 0-.026.026.046.046 0 0 0 .002.037c.212.41.454.803.723 1.177a.045.045 0 0 0 .05.017 11.718 11.718 0 0 0 3.545-1.79.046.046 0 0 0 .019-.032c.295-3.058-.495-5.714-2.096-8.069a.036.036 0 0 0-.019-.017Zm-7.263 6.474c-.699 0-1.274-.641-1.274-1.429 0-.787.564-1.428 1.274-1.428.715 0 1.285.646 1.274 1.428 0 .788-.565 1.43-1.274 1.43Zm4.71 0c-.698 0-1.274-.641-1.274-1.429 0-.787.565-1.428 1.274-1.428.715 0 1.286.646 1.274 1.428 0 .788-.559 1.43-1.274 1.43Z"/>
</svg>
