<svg xmlns="http://www.w3.org/2000/svg" fill="none" viewBox="0 0 20 21">
    <circle cx="10" cy="10.925" r="10" fill="#07101B"/>
    <path fill="#fff" d="M14.918 6.413a11.69 11.69 0 0 0-2.886-.895.044.044 0 0 0-.046.022 8.15 8.15 0 0 0-.36.738 10.79 10.79 0 0 0-3.24 0 7.492 7.492 0 0 0-.365-.738.046.046 0 0 0-.047-.022c-.996.172-1.966.472-2.885.895a.041.041 0 0 0-.02.016c-1.837 2.745-2.34 5.424-2.094 8.069a.048.048 0 0 0 .019.033 11.756 11.756 0 0 0 3.54 1.79.046.046 0 0 0 .05-.016 8.48 8.48 0 0 0 .724-1.18.045.045 0 0 0 .001-.036.045.045 0 0 0-.026-.025 7.745 7.745 0 0 1-1.106-.527.046.046 0 0 1-.022-.037.045.045 0 0 1 .018-.039 9.26 9.26 0 0 0 .22-.172.044.044 0 0 1 .045-.006c2.32 1.059 4.832 1.059 7.124 0a.044.044 0 0 1 .046.005c.072.059.146.117.221.173.006.005.01.01.014.017a.046.046 0 0 1-.002.043.047.047 0 0 1-.016.015 7.276 7.276 0 0 1-1.106.527.046.046 0 0 0-.029.045.04.04 0 0 0 .005.018c.212.41.454.803.723 1.177a.045.045 0 0 0 .05.017 11.719 11.719 0 0 0 3.546-1.79.046.046 0 0 0 .018-.032c.295-3.058-.495-5.714-2.096-8.069a.036.036 0 0 0-.019-.017Zm-7.264 6.474c-.698 0-1.274-.64-1.274-1.429 0-.787.564-1.428 1.274-1.428.715 0 1.285.647 1.274 1.428 0 .788-.564 1.43-1.274 1.43Zm4.71 0c-.698 0-1.273-.64-1.273-1.429 0-.787.564-1.428 1.274-1.428.715 0 1.285.647 1.273 1.428 0 .788-.558 1.43-1.274 1.43Z"/>
</svg>
