<svg xmlns="http://www.w3.org/2000/svg" viewBox="0 0 24 24">
    <circle cx="12" cy="12" r="12" fill="#5863f1"/>
    <path fill="#fff" d="M17.901 6.585a14.028 14.028 0 0 0-3.463-1.074.053.053 0 0 0-.055.026 9.767 9.767 0 0 0-.432.886 12.948 12.948 0 0 0-3.888 0 8.993 8.993 0 0 0-.438-.886.055.055 0 0 0-.056-.026 13.99 13.99 0 0 0-3.463 1.074.05.05 0 0 0-.022.02c-2.206 3.294-2.81 6.508-2.514 9.682a.059.059 0 0 0 .023.04 14.107 14.107 0 0 0 4.247 2.147.055.055 0 0 0 .06-.02c.328-.446.619-.92.87-1.413a.054.054 0 0 0-.03-.075 9.28 9.28 0 0 1-1.328-.633.054.054 0 0 1-.026-.044.055.055 0 0 1 .021-.046 7.77 7.77 0 0 0 .264-.207.053.053 0 0 1 .055-.007c2.784 1.27 5.798 1.27 8.549 0a.053.053 0 0 1 .056.006c.085.07.174.14.264.208a.055.055 0 0 1-.005.09 8.716 8.716 0 0 1-1.327.632.054.054 0 0 0-.029.076c.254.491.544.963.868 1.412a.054.054 0 0 0 .06.02 14.06 14.06 0 0 0 4.254-2.146.054.054 0 0 0 .022-.04c.355-3.67-.594-6.857-2.515-9.682a.043.043 0 0 0-.022-.02zm-8.716 7.77c-.838 0-1.53-.77-1.53-1.715s.678-1.715 1.53-1.715c.858 0 1.542.776 1.529 1.715 0 .945-.678 1.714-1.53 1.714zm5.652 0c-.838 0-1.528-.77-1.528-1.715s.677-1.715 1.528-1.715c.859 0 1.543.776 1.529 1.715 0 .945-.67 1.714-1.529 1.714z"/>
</svg>
