<svg xmlns="http://www.w3.org/2000/svg" viewBox="0 0 55 18">
    <rect width="55" height="18" fill="#292929" rx="6"/>
    <path fill="#fff" d="M5.73 5.93c0-.65.32-.95 1.01-.95h3.47c.36 0 .6.22.6.56s-.24.56-.6.56H7.05v2.28h2.98c.35 0 .57.21.57.54s-.23.53-.57.53H7.05v2.41h3.15c.38 0 .62.22.62.56s-.24.56-.62.56H6.74c-.69 0-1.01-.29-1.01-.95zm6.53 6.38V5.65c0-.46.25-.73.67-.73s.66.27.66.73v6.66c0 .46-.25.73-.66.73s-.67-.27-.67-.73m3.13 0V6.02c0-.74.3-1.03 1.06-1.03h1.99c1.61 0 2.65 1.02 2.65 2.56s-1.05 2.57-2.69 2.57h-1.68v2.2c0 .46-.25.73-.67.73s-.66-.27-.66-.73zm2.44-3.29c1.39 0 1.93-.38 1.93-1.47 0-.93-.53-1.47-1.45-1.47h-1.59v2.94zm4.47.1h2.76c.43 0 .66.23.66.57s-.23.59-.66.59H22.3c-.43 0-.66-.24-.66-.59s.23-.57.66-.57m5.74-2.79H28l-.94.67c-.21.15-.35.2-.5.2-.28 0-.49-.22-.49-.49 0-.21.13-.4.4-.59l1.11-.8c.4-.28.67-.39.96-.39.48 0 .81.35.81.85v6.54c0 .46-.24.72-.66.72s-.66-.27-.66-.72V6.33zm3.7 4.44c.23 0 .39.11.56.39.35.59.86.89 1.5.89.97 0 1.65-.67 1.65-1.65s-.66-1.59-1.58-1.59c-.42 0-.83.15-1.17.43-.39.35-.53.42-.73.42-.42 0-.67-.31-.64-.81l.23-3.13c.04-.5.34-.74.91-.74h3.3c.41 0 .65.21.65.56s-.23.55-.65.55h-3.09l-.19 2.31h.08c.27-.38.94-.65 1.62-.65 1.51 0 2.55 1.06 2.55 2.59 0 1.67-1.2 2.81-2.93 2.81-1.57 0-2.62-.91-2.62-1.78 0-.35.21-.61.54-.61zm7.19 1.28 2.85-5.91v-.05h-3.45c-.43 0-.66-.22-.66-.55s.23-.56.66-.56h4.14c.39 0 .7.26.7.69 0 .24-.09.54-.28.91l-2.87 6.05c-.14.29-.32.45-.61.45-.33 0-.61-.24-.61-.6 0-.14.05-.28.12-.43zm6.38 0 2.85-5.91v-.05h-3.45c-.43 0-.66-.22-.66-.55s.23-.56.66-.56h4.14c.39 0 .7.26.7.69 0 .24-.09.54-.28.91l-2.87 6.05c-.14.29-.32.45-.61.45-.33 0-.61-.24-.61-.6 0-.14.05-.28.12-.43z"/>
</svg>
