<svg xmlns="http://www.w3.org/2000/svg" fill="none" viewBox="0 0 24 25">
    <path fill="#627EEA" d="M12 24.785c6.627 0 12-5.373 12-12 0-6.628-5.373-12-12-12s-12 5.372-12 12c0 6.627 5.373 12 12 12Z"/>
    <path fill="#C0CBF6" d="m11.998 6.384-.088.292v8.464l.088.086 3.999-2.322-4-6.52Z"/>
    <path fill="#fff" d="m12 6.384-4 6.52 4 2.322V6.384Z"/>
    <path fill="#C0CBF6" d="m11.998 15.97-.049.058v3.015l.05.142L16 13.648l-4.002 2.321Z"/>
    <path fill="#fff" d="M12 19.185v-3.216l-4-2.321 4 5.537Z"/>
    <path fill="#8197EE" d="m11.998 15.231 4-2.322-4-1.786v4.108Z"/>
    <path fill="#C0CBF6" d="m8 12.909 4 2.322v-4.108l-4 1.786Z"/>
</svg>
