<svg xmlns="http://www.w3.org/2000/svg" fill="none" viewBox="0 0 24 25">
    <path fill="#627eea" d="M12 24.785c6.627 0 12-5.373 12-12 0-6.628-5.373-12-12-12s-12 5.372-12 12c0 6.627 5.373 12 12 12"/>
    <path fill="#c0cbf6" d="m11.998 6.384-.088.292v8.464l.088.086 3.999-2.322z"/>
    <path fill="#fff" d="m12 6.384-4 6.52 4 2.322z"/>
    <path fill="#c0cbf6" d="m11.998 15.97-.049.058v3.015l.05.142L16 13.648l-4.002 2.321z"/>
    <path fill="#fff" d="M12 19.185v-3.216l-4-2.321z"/>
    <path fill="#8197ee" d="m11.998 15.231 4-2.322-4-1.786z"/>
    <path fill="#c0cbf6" d="m8 12.909 4 2.322v-4.108z"/>
</svg>
