<svg xmlns="http://www.w3.org/2000/svg" fill="none" viewBox="0 0 24 24">
    <path fill="#fff" d="M0 12C0 5.373 5.373 0 12 0s12 5.373 12 12-5.373 12-12 12S0 18.627 0 12"/>
    <path fill="#21325b" d="M4.987 11.407a1.02 1.02 0 0 1 1.022-1.019l1.694.006a1.02 1.02 0 0 1 1.019 1.02v6.419c.19-.057.435-.117.703-.18a.85.85 0 0 0 .654-.828V8.864a1.02 1.02 0 0 1 1.019-1.02h1.7a1.02 1.02 0 0 1 1.018 1.02v7.389s.425-.172.839-.348a.85.85 0 0 0 .519-.783v-8.81a1.02 1.02 0 0 1 1.018-1.02h1.697a1.02 1.02 0 0 1 1.018 1.02v7.255c1.471-1.069 2.963-2.354 4.146-3.9a1.71 1.71 0 0 0 .26-1.599 12.02 12.02 0 0 0-6.609-7.1A11.97 11.97 0 0 0 3.03 4.03a12.02 12.02 0 0 0-2.964 9.245c.176 1.662.696 3.27 1.527 4.72a1.52 1.52 0 0 0 1.446.75q.482-.041 1.197-.124a.85.85 0 0 0 .752-.843z"/>
    <path fill="#979695" d="M4.951 21.7a11.98 11.98 0 0 0 17.282-3.438A12.03 12.03 0 0 0 24 11.982c0-.278-.013-.55-.031-.823-4.383 6.548-12.474 9.61-19.018 10.542z"/>
</svg>
