<svg viewBox="0 0 45 18" xmlns="http://www.w3.org/2000/svg"><path d="m9 18a9 9 0 1 0 0-18 9 9 0 0 0 0 18z" fill="#627eea"/><path d="m8.998 4.203-.065.219v6.348l.065.065 3-1.742z" fill="#c0cbf6"/><path d="m9 4.203-3 4.89 3 1.742z" fill="#fff"/><path d="m8.999 11.39-.037.044v2.261l.037.106 3.001-4.153z" fill="#c0cbf6"/><path d="m9 13.801v-2.412l-3-1.739 3 4.15z" fill="#fff"/><path d="m8.999 10.831 2.999-1.742-3-1.339v3.081z" fill="#8197ee"/><path d="m6 9.09 3 1.741v-3.081z" fill="#c0cbf6"/><circle cx="18" cy="9" fill="#212936" r="9"/><path d="m17.32 1.693-5.325 3.075a1.33 1.33 0 0 0 -.666 1.154l.003 6.157a1.332 1.332 0 0 0 .665 1.152l5.331 3.081a1.33 1.33 0 0 0 1.331 0l5.325-3.074a1.332 1.332 0 0 0 .665-1.153l-.003-6.158a1.331 1.331 0 0 0 -.665-1.151l-5.33-3.082a1.331 1.331 0 0 0 -1.332 0v-.001z" fill="#fff"/><path d="m15.562 14.23a.25.25 0 0 1 .052-.11l4.78-8.107.06-.11c-.013-.024-.03-.019-.043-.019-.68.003-1.361.007-2.042.006a.142.142 0 0 0 -.136.09 73210.03 73210.03 0 0 1 -4.814 7.944c-.01.017-.02.033-.028.05-.02.036-.042.042-.08.02-.17-.1-.341-.197-.52-.3l4.853-7.786c-.01-.031-.032-.023-.048-.024-.26-.008-.52-.019-.78-.021a2.885 2.885 0 0 0 -1.073.173 1.514 1.514 0 0 0 -.756.613c-.886 1.383-1.777 2.765-2.67 4.144l-.044.064c-.05 0-.043-.042-.048-.071a.878.878 0 0 1 -.003-.134c0-1.525.005-3.05-.005-4.576a.658.658 0 0 1 .377-.635c1.173-.669 2.338-1.351 3.507-2.027.522-.301 1.045-.6 1.563-.907a.591.591 0 0 1 .659 0c.952.558 1.913 1.104 2.87 1.656l2.168 1.245.154.09a.501.501 0 0 1 .265.47c.002 1.66.002 3.319 0 4.978a.322.322 0 0 1 -.013.12c-.057.056-.078-.006-.099-.035-.086-.122-.163-.249-.243-.374a852.258 852.258 0 0 0 -1.928-3.004c-.216-.338-.436-.674-.65-1.014-.05-.079-.06-.08-.11.005l-.969 1.642a.167.167 0 0 0 .02.195l.797 1.29 1.361 2.201c.184.298.367.595.552.892.034.04.053.09.054.143-.037.073-.113.094-.177.127-.105.075-.22.136-.343.178-.066-.016-.089-.075-.12-.124-.421-.657-.837-1.318-1.256-1.976-.43-.677-.858-1.357-1.29-2.033-.056-.087-.065-.088-.117 0-.376.632-.747 1.268-1.124 1.9a.17.17 0 0 0 .01.197c.507.782 1.003 1.572 1.505 2.358.14.22.282.438.42.659.026.043.063.085.039.143a2.382 2.382 0 0 1 -.425.264l-1.409.818a.465.465 0 0 1 -.504 0c-.692-.4-1.385-.798-2.08-1.195a.27.27 0 0 1 -.12-.093z" fill="#2d374b"/><path d="m23.747 11.086.003-.123c0-1.655 0-3.31.002-4.965a.515.515 0 0 0 -.282-.491c-1.738-.997-3.476-1.996-5.211-2.997a.484.484 0 0 0 -.526-.001 8046.273 8046.273 0 0 0 -5.221 3.023.484.484 0 0 0 -.26.457c.003 1.588.005 3.177.006 4.765 0 .036-.014.075.017.106-.184.306-.386.6-.58.899l-.29.448c-.016.024-.034.046-.065.089-.003-.05-.005-.078-.005-.105l.001-6.285a1.266 1.266 0 0 1 .662-1.14c.674-.4 1.357-.785 2.035-1.179.573-.331 1.143-.665 1.715-.997.534-.31 1.062-.63 1.605-.922a1.328 1.328 0 0 1 1.352.035c.436.247.87.5 1.305.75a2409.512 2409.512 0 0 1 2.357 1.356l1.122.644c.165.094.329.189.492.285a1.38 1.38 0 0 1 .683.983c.008.059.01.118.007.178v6.183a1.327 1.327 0 0 1 -.477 1.028 1.595 1.595 0 0 1 -.275.169 1178.83 1178.83 0 0 1 -3.464 2.004c-.572.332-1.144.664-1.715.998a1.275 1.275 0 0 1 -.47.194c-.28.055-.57.018-.827-.105-.285-.152-.562-.318-.843-.479a578.863 578.863 0 0 1 -1.45-.833c-.04-.022-.066-.045-.036-.096.141-.236.28-.473.42-.71.005-.008.018-.012.027-.019.13.061.257.13.379.209.615.351 1.23.705 1.843 1.06a.434.434 0 0 0 .472-.005c.583-.341 1.168-.678 1.753-1.017.029-.017.058-.032.088-.048a.482.482 0 0 1 .212-.155c.528-.302 1.052-.61 1.58-.912.044-.026.083-.064.14-.058l.518-.3c.032-.066.099-.087.155-.12.26-.15.518-.304.78-.45a.445.445 0 0 0 .238-.421c.003-.263 0-.527.001-.79a.194.194 0 0 1 .027-.14z" fill="#96bedc"/><path d="m23.747 11.085c.002.327.009.654.002.98a.415.415 0 0 1 -.217.376c-.33.186-.652.383-.985.565-.132-.241-.284-.47-.428-.705-.75-1.215-1.5-2.43-2.252-3.643-.045-.073-.086-.149-.137-.217a.11.11 0 0 1 0-.14c.18-.3.356-.602.534-.904l.492-.835a.093.093 0 0 1 .044-.046l.258.398 1.555 2.422 1.054 1.643c.02.04.047.076.08.106zm-1.717 2.225c-.213.141-.44.26-.661.39-.4.236-.802.467-1.204.7l-.068.037a.19.19 0 0 0 -.046-.1l-1.072-1.685-.883-1.381a.143.143 0 0 1 -.008-.173c.395-.664.788-1.33 1.18-1.997.009-.016.016-.034.04-.039.031.008.04.04.054.064l2.135 3.362.454.716c.02.04.046.076.08.107z" fill="#28a0f0"/><path d="m35.73 11.178a8.999 8.999 0 0 1 -17.46-4.353 8.997 8.997 0 1 1 17.46 4.353z" fill="#f3ba2f"/><path clip-rule="evenodd" d="m27 5.712-2.33 2.331-1.356-1.356 3.686-3.687 3.689 3.688-1.357 1.356zm-4.644 1.933-1.356 1.356 1.356 1.356 1.356-1.356zm2.314 2.314 2.331 2.33 2.332-2.331 1.357 1.355-.001.001-3.688 3.688-3.687-3.687-.002-.002 1.358-1.353zm6.975-2.314-1.355 1.356 1.356 1.356 1.357-1.356-1.357-1.356z" fill="#fff" fill-rule="evenodd"/><path d="m28.377 9.001-1.376-1.376-1.017 1.017-.117.117-.24.24-.002.003.001.002 1.375 1.375 1.377-1.376v-.001h-.001" fill="#fff"/><path d="m31.5 7.5c-.825 0-1.5.675-1.5 1.5s.675 1.5 1.5 1.5 1.5-.675 1.5-1.5-.675-1.5-1.5-1.5zm9 0c-.825 0-1.5.675-1.5 1.5s.675 1.5 1.5 1.5 1.5-.675 1.5-1.5-.675-1.5-1.5-1.5zm-4.5 0c-.825 0-1.5.675-1.5 1.5s.675 1.5 1.5 1.5 1.5-.675 1.5-1.5-.675-1.5-1.5-1.5z" fill="#536471"/></svg>