<svg fill="none" viewBox="0 0 24 24" xmlns="http://www.w3.org/2000/svg"><path d="m12 0c6.624 0 12 5.376 12 12s-5.376 12-12 12-12-5.376-12-12 5.376-12 12-12z" fill="#185eff"/><path d="m11.715 3.11c.44-.232 1.11-.232 1.551 0l4.497 2.362c.265.14.411.348.437.562h.005v11.878c-.006.234-.153.466-.442.618l-4.497 2.363c-.44.232-1.11.232-1.551 0l-4.497-2.363c-.287-.151-.425-.385-.432-.618v-11.878h.002c.02-.217.159-.42.43-.562l4.497-2.363zm5.782 9.55-4.23 2.224c-.441.231-1.112.231-1.552 0l-4.221-2.219v5.223l4.22 2.207c.239.127.486.25.728.266l.049.001c.252.001.496-.126.744-.247l4.262-2.246v-5.208zm-11.443 4.995c0 .454.054.754.16.965.087.174.218.308.458.47l.013.01c.053.035.11.072.181.115l.083.05.256.154-.366.602-.286-.171-.048-.03a6.462 6.462 0 0 1 -.215-.137c-.683-.458-.938-.958-.943-1.997v-.031zm6.082-8.177a.65.65 0 0 0 -.09.039l-4.498 2.363a.664.664 0 0 0 -.013.007l-.004.002.007.004.01.006 4.497 2.363a.639.639 0 0 0 .091.039v-4.824zm.709 0v4.822a.639.639 0 0 0 .09-.04l4.498-2.362a.413.413 0 0 0 .013-.007l.004-.003-.007-.004-.01-.005-4.497-2.363a.65.65 0 0 0 -.091-.039zm4.652-2.6-4.034 2.12 4.034 2.12zm-10.003.005v4.23l4.024-2.116zm5.442-3.15c-.234-.123-.657-.123-.89 0l-4.499 2.362a.487.487 0 0 0 -.013.007l-.004.002.007.005.01.005 4.497 2.363c.234.123.657.123.89 0l4.498-2.363a.534.534 0 0 0 .013-.007l.004-.003-.007-.004-.01-.005-4.497-2.363zm5.225.259.286.172.048.03c.083.05.151.094.215.136.683.459.938.958.943 1.997v.032h-.708c0-.455-.053-.754-.158-.965-.088-.175-.219-.308-.459-.47l-.013-.01a5.43 5.43 0 0 0 -.181-.115l-.084-.051-.255-.153z" fill="#fff"/></svg>