<svg xmlns="http://www.w3.org/2000/svg" fill="none" viewBox="0 0 24 25">
    <path fill="#185EFF" d="M12 .785c6.624 0 12 5.376 12 12s-5.376 12-12 12-12-5.376-12-12 5.376-12 12-12Z"/>
    <path fill="#fff" d="M11.715 3.894c.44-.232 1.11-.232 1.551 0l4.497 2.363c.265.14.411.347.437.562h.005v11.877c-.006.234-.153.467-.442.619l-4.497 2.363c-.44.231-1.11.231-1.551 0l-4.497-2.363c-.287-.151-.425-.386-.432-.619V6.82h.002c.02-.217.159-.42.43-.562l4.497-2.363Zm5.782 9.551-4.23 2.223c-.441.232-1.112.232-1.552 0L7.494 13.45v5.223l4.22 2.206c.239.127.486.25.728.266l.049.002c.252 0 .496-.127.744-.247l4.262-2.246v-5.209ZM6.054 18.438c0 .455.054.754.16.965.087.175.218.308.458.47l.013.01c.053.035.11.072.181.116l.083.05.256.154-.366.602-.286-.172-.048-.029a6.313 6.313 0 0 1-.215-.137c-.683-.458-.938-.958-.943-1.997v-.032h.707Zm6.082-8.176a.65.65 0 0 0-.09.038l-4.498 2.364a.673.673 0 0 0-.013.007l-.004.002.007.004.01.006 4.497 2.363a.639.639 0 0 0 .091.038v-4.822Zm.709 0v4.822a.639.639 0 0 0 .09-.038l4.498-2.363a.767.767 0 0 0 .013-.008l.004-.002-.007-.004-.01-.005-4.497-2.364a.65.65 0 0 0-.091-.038Zm4.652-2.6-4.034 2.12 4.034 2.119V7.66Zm-10.003.004v4.23l4.024-2.115-4.024-2.115Zm5.442-3.15c-.234-.122-.657-.122-.89 0L7.547 6.88a.515.515 0 0 0-.013.007l-.004.002.007.004.01.006 4.497 2.363c.234.123.657.123.89 0l4.498-2.363a.534.534 0 0 0 .013-.008l.004-.002-.007-.004-.01-.005-4.497-2.363Zm5.225.26.286.171.048.03c.083.05.151.094.215.137.683.458.938.958.943 1.997v.032h-.708c0-.455-.053-.755-.158-.965-.088-.175-.219-.308-.459-.47l-.013-.01a5.447 5.447 0 0 0-.181-.116l-.084-.05-.255-.154.366-.602Z"/>
</svg>
