<svg xmlns="http://www.w3.org/2000/svg" fill="none" viewBox="0 0 24 24">
    <circle cx="12" cy="12" r="12" fill="#8964CE"/>
    <path fill="#fff" fill-rule="evenodd" d="M7.316 5.5v1.832H5l.415 1.901h.484v7.334a.484.484 0 0 0-.415.479H9.15a.484.484 0 0 0-.416-.48v-3.669c0-1.795 1.248-3.18 3.042-3.18 1.795 0 3.319 1.385 3.319 3.18v3.7h.027a.48.48 0 0 0-.304.448h3.665a.484.484 0 0 0-.484-.484V9.233h.518l.484-1.9h-2.385V5.5zM5 18.013c0-.267.217-.483.484-.483h3.664c.267 0 .484.216.484.483v.484H5zm9.817-.483a.484.484 0 0 0-.484.483v.484h4.632v-.483a.484.484 0 0 0-.483-.484v-.484h-3.665zm-9.333-.484H9.15v.484H5.484z" clip-rule="evenodd"/>
</svg>
