<svg xmlns="http://www.w3.org/2000/svg" fill="none" viewBox="0 0 24 24">
    <path fill="#fff" d="M0 12C0 6.343 0 3.515 1.757 1.757 3.515 0 6.343 0 12 0s8.485 0 10.243 1.757C24 3.515 24 6.343 24 12s0 8.485-1.757 10.243C20.485 24 17.657 24 12 24s-8.485 0-10.243-1.757C0 20.485 0 17.657 0 12"/>
    <path fill="#D543ED" d="M5.75 2H7v1.25H5.75zm2.5 2.5H7v1.25H5.75v5H4.5V17h1.25v2.5H7v1.25h1.25V22h7.5v-1.25H17V19.5h1.25v-1.25h1.25V12h-1.25V9.5H17V7h-1.25V5.75H17V4.5h-1.25v1.25H14.5V4.5h-1.25V3.25h-2.5V2H9.5v2.5h1.25v1.25H9.5v2.5H8.25V7H7V5.75h1.25z"/>
    <path fill="#9250FF" d="M12 5.75h1.25V7h1.25v1.25h1.25v2.5H17v2.5h1.25v5H17v1.25h-1.25v1.25H9.5V19.5H7V17H5.75v-5H7V9.5h3.75V8.25H12zM8.25 7H7v1.25h1.25z"/>
    <path fill="#9787FC" d="M12 8.25h1.25V9.5H12zm3.75 6.25V12H14.5V9.5h-1.25v1.25h-2.5V12H9.5v-1.25H8.25v2.5H7v6.25h2.5v1.25h6.25v-2.5H17V14.5z"/>
    <path fill="#fff" d="M13.25 10.75H12V12h1.25z"/>
    <path fill="#fff" fill-rule="evenodd" d="M9.5 13.25v1.25H8.25v5H9.5v1.25h5V19.5h1.25v-5H14.5v-1.25zm0 2.5h1.25v2.5H9.5zm5 2.5v-2.5h-1.25v2.5z" clip-rule="evenodd"/>
</svg>
