<svg xmlns="http://www.w3.org/2000/svg" fill="none" viewBox="0 0 24 24">
    <rect width="24" height="24" fill="#000" rx="2"/>
    <path fill="url(#Firefly_svg__a)" d="M12.925 13.102c-.436.437-.654.655-.925.655s-.49-.218-.925-.655L5.024 7.045c-.291-.291-.437-.437-.437-.618 0-.18.146-.326.437-.617l.372-.373c.29-.291.436-.437.617-.437.18 0 .326.146.617.437l5.061 5.066c.146.146.219.219.309.219s.163-.073.309-.219l5.061-5.066c.29-.291.436-.437.617-.437.18 0 .326.146.617.437l.373.373c.29.29.436.436.436.617s-.146.327-.436.618l-6.052 6.057Z"/>
    <path fill="url(#Firefly_svg__b)" d="M19.191 19.992c-.29.291-.436.437-.617.437-.18 0-.326-.146-.617-.437l-3.682-3.686c-.436-.437-.654-.655-.654-.926 0-.272.218-.49.654-.927l3.098-3.1c.291-.292.437-.438.617-.438.181 0 .327.146.618.437l.372.373c.29.291.436.437.436.618 0 .18-.145.326-.436.617l-2.109 2.111c-.145.146-.218.218-.218.309 0 .09.073.163.218.309l2.693 2.695c.29.29.436.436.436.617s-.145.327-.436.618l-.373.373Z"/>
    <path fill="url(#Firefly_svg__c)" d="M6.627 11.352c-.291-.29-.437-.437-.617-.437-.181 0-.327.146-.617.437l-.373.373c-.29.291-.436.437-.436.618 0 .18.145.326.436.617l2.109 2.111c.145.146.218.218.218.309 0 .09-.073.163-.218.309l-2.693 2.695c-.29.29-.436.436-.436.617s.145.327.436.618l.373.373c.29.291.436.437.617.437.18 0 .326-.146.617-.437l3.682-3.686c.436-.437.654-.655.654-.926 0-.272-.218-.49-.654-.927l-3.098-3.1Z"/>
    <defs>
        <linearGradient id="Firefly_svg__a" x1="4" x2="19.394" y1="5" y2="21.679" gradientUnits="userSpaceOnUse">
            <stop stop-color="#FFA1C8"/>
            <stop offset=".333" stop-color="#F3DFCA"/>
            <stop offset=".667" stop-color="#B4E5EB"/>
            <stop offset="1" stop-color="#85C2F9"/>
        </linearGradient>
        <linearGradient id="Firefly_svg__b" x1="4" x2="19.394" y1="5" y2="21.679" gradientUnits="userSpaceOnUse">
            <stop stop-color="#FFA1C8"/>
            <stop offset=".333" stop-color="#F3DFCA"/>
            <stop offset=".667" stop-color="#B4E5EB"/>
            <stop offset="1" stop-color="#85C2F9"/>
        </linearGradient>
        <linearGradient id="Firefly_svg__c" x1="4" x2="19.394" y1="5" y2="21.679" gradientUnits="userSpaceOnUse">
            <stop stop-color="#FFA1C8"/>
            <stop offset=".333" stop-color="#F3DFCA"/>
            <stop offset=".667" stop-color="#B4E5EB"/>
            <stop offset="1" stop-color="#85C2F9"/>
        </linearGradient>
    </defs>
</svg>
