<svg xmlns="http://www.w3.org/2000/svg" fill="none" viewBox="0 0 24 25">
    <g clip-path="url(#Flow_svg__a)">
        <path fill="#00EF8B" d="M12 24.785c6.627 0 12-5.373 12-12 0-6.628-5.373-12-12-12s-12 5.372-12 12c0 6.627 5.373 12 12 12Z"/>
        <path fill="#fff" d="M17.266 10.908h-3.389v3.389h3.389v-3.39Zm-6.776 4.658a1.272 1.272 0 1 1-1.272-1.272h1.272v-3.386H9.218a4.658 4.658 0 1 0 4.658 4.658v-1.272H10.49v1.272Zm4.659-6.353h3.81v-3.39h-3.81a4.663 4.663 0 0 0-4.659 4.66v.424h3.387v-.425a1.273 1.273 0 0 1 1.272-1.27Z"/>
        <path fill="#16FF99" d="M10.49 14.294h3.387v-3.386H10.49v3.386Z"/>
    </g>
    <defs>
        <clipPath id="Flow_svg__a">
            <path fill="#fff" d="M0 0h24v24H0z" transform="translate(0 .785)"/>
        </clipPath>
    </defs>
</svg>
