<svg xmlns="http://www.w3.org/2000/svg" fill="none" viewBox="0 0 24 24">
    <g clip-path="url('#Flow_svg__a')">
        <path fill="#00EF8B" d="M12 24c6.627 0 12-5.373 12-12S18.627 0 12 0 0 5.373 0 12s5.373 12 12 12"/>
        <path fill="#fff" d="M17.266 10.123h-3.389v3.389h3.389zm-6.776 4.658a1.272 1.272 0 1 1-1.272-1.272h1.272v-3.386H9.218a4.659 4.659 0 1 0 4.658 4.658V13.51H10.49zm4.659-6.353h3.81V5.039h-3.81a4.663 4.663 0 0 0-4.659 4.658v.425h3.387v-.425a1.273 1.273 0 0 1 1.272-1.27Z"/>
        <path fill="#16FF99" d="M10.49 13.51h3.387v-3.387H10.49z"/>
    </g>
    <defs>
        <clipPath id="Flow_svg__a">
            <path fill="#fff" d="M0 0h24v24H0z"/>
        </clipPath>
    </defs>
</svg>
