<svg xmlns="http://www.w3.org/2000/svg" fill="none" viewBox="0 0 24 17">
    <g clip-path="url(#Game_svg__a)">
        <path fill="#59DAAF" d="M7.718 3.891c-1.063 0-1.89.838-1.89 1.916 0 1.077.827 1.915 1.89 1.915 1.064 0 1.892-.838 1.892-1.915A1.917 1.917 0 0 0 7.718 3.89Z"/>
        <path fill="url(#Game_svg__b)" d="M16.762 0c-3.487 1.736-5.792 1.556-9.398 0-6.324 0-9.93 16.941-5.2 16.941 4.018 0 4.55-4.968 9.988-4.968 4.432 0 7.033 4.908 9.988 4.908C26.75 16.881 21.963 0 16.762 0ZM7.719 8.98c-1.714 0-3.073-1.377-3.073-3.113s1.359-3.113 3.073-3.113 3.073 1.377 3.073 3.113S9.374 8.979 7.72 8.979Zm7.033-2.934c-.473-.12-.709-.598-.532-1.077.119-.42.591-.719 1.064-.54.473.12.71.6.532 1.078-.118.42-.59.659-1.064.54Zm2.069 1.317a.812.812 0 0 1-1.064.539c-.473-.12-.71-.599-.532-1.078a.812.812 0 0 1 1.064-.538c.414.18.71.658.532 1.077Zm.118-2.035c-.473-.12-.71-.599-.532-1.078a.813.813 0 0 1 1.064-.539c.473.12.71.6.532 1.078-.177.42-.65.659-1.064.539Zm2.128 1.436a.813.813 0 0 1-1.064.54c-.473-.12-.71-.6-.532-1.078a.812.812 0 0 1 1.064-.539c.414.12.65.599.532 1.077Z"/>
    </g>
    <defs>
        <radialGradient id="Game_svg__b" cx="0" cy="0" r="1" gradientTransform="matrix(0 -26.5075 13.2079 0 6.083 -11.294)" gradientUnits="userSpaceOnUse">
            <stop stop-color="#7769EF"/>
            <stop offset="1" stop-color="#492BFB"/>
        </radialGradient>
        <clipPath id="Game_svg__a">
            <path fill="#fff" d="M0 0h24v16.941H0z"/>
        </clipPath>
    </defs>
</svg>
