<svg fill="none" viewBox="0 0 24 25" xmlns="http://www.w3.org/2000/svg" xmlns:xlink="http://www.w3.org/1999/xlink"><radialGradient id="a" cx="0" cy="0" gradientTransform="matrix(0 -26.5075 13.2079 0 6.083 -7.294)" gradientUnits="userSpaceOnUse" r="1"><stop offset="0" stop-color="#7769ef"/><stop offset="1" stop-color="#492bfb"/></radialGradient><path d="m7.718 7.891c-1.063 0-1.89.838-1.89 1.916 0 1.077.827 1.915 1.89 1.915 1.064 0 1.892-.838 1.892-1.915a1.917 1.917 0 0 0 -1.892-1.917z" fill="#59daaf"/><path d="m16.762 4c-3.487 1.736-5.792 1.556-9.398 0-6.324 0-9.93 16.941-5.2 16.941 4.018 0 4.55-4.968 9.988-4.968 4.432 0 7.033 4.908 9.988 4.908 4.61 0-.177-16.881-5.378-16.881zm-9.043 8.98c-1.714 0-3.073-1.377-3.073-3.113s1.359-3.113 3.073-3.113 3.073 1.377 3.073 3.113-1.418 3.112-3.073 3.112zm7.033-2.934c-.473-.12-.709-.598-.532-1.077.119-.42.591-.719 1.064-.54.473.12.71.6.532 1.078-.118.42-.59.659-1.064.54zm2.069 1.317a.812.812 0 0 1 -1.064.539c-.473-.12-.71-.599-.532-1.078a.812.812 0 0 1 1.064-.538c.414.18.71.658.532 1.077zm.118-2.035c-.473-.12-.71-.599-.532-1.078a.813.813 0 0 1 1.064-.539c.473.12.71.6.532 1.078-.177.42-.65.659-1.064.539zm2.128 1.437c-.118.418-.591.718-1.064.538-.473-.12-.71-.598-.532-1.077a.812.812 0 0 1 1.064-.539c.414.12.65.599.532 1.078z" fill="url(#a)"/></svg>