<svg fill="none" viewBox="0 0 24 25" xmlns="http://www.w3.org/2000/svg" xmlns:xlink="http://www.w3.org/1999/xlink"><linearGradient id="a" gradientUnits="userSpaceOnUse" x1=".111" x2="5.85" y1="11.865" y2="6.125"><stop offset="0" stop-color="#c774ff"/><stop offset="1" stop-color="#d677db"/></linearGradient><linearGradient id="b" gradientUnits="userSpaceOnUse" x1="5.486" x2="9.929" y1="11.835" y2="7.361"><stop offset="0" stop-color="#ef7a9d"/><stop offset="1" stop-color="#d677db"/></linearGradient><linearGradient id="c" gradientUnits="userSpaceOnUse" x1="10.529" x2="14.578" y1="11.643" y2="7.796"><stop offset="0" stop-color="#ef7a9d"/><stop offset="1" stop-color="#ff936d"/></linearGradient><linearGradient id="d" gradientUnits="userSpaceOnUse" x1="9.571" x2="19.098" y1="17.186" y2="8.02"><stop offset="0" stop-color="#ffc846"/><stop offset="1" stop-color="#ff936d"/></linearGradient><linearGradient id="e" gradientUnits="userSpaceOnUse" x1="12.664" x2="21.924" y1="18.979" y2="9.796"><stop offset="0" stop-color="#ffc846"/><stop offset="1" stop-color="#ffc846"/></linearGradient><path d="m4.548 4.327-3.743 3.7a2.116 2.116 0 0 0 0 2.991l1.042 1.042 9.566-8.35h-5.369c-.56 0-1.099.222-1.496.617z" fill="url(#a)"/><path d="m10.182 3.71-8.335 8.35 2.535 2.535 12.591-10.885z" fill="url(#b)"/><path d="m15.272 3.71-10.89 10.885 2.535 2.535 13.663-11.6-1.104-1.102a2.35 2.35 0 0 0 -1.696-.724h-2.507v.006z" fill="url(#c)"/><path d="m19.55 4.501-12.632 12.628 2.538 2.538 13.241-12.017-3.146-3.15z" fill="url(#d)"/><path d="m10.44 20.653-.985-.986 12.656-12.603 1.045 1.045c.826.825.899 2.084.074 2.91l-9.685 9.637a2.197 2.197 0 0 1 -3.104-.003z" fill="url(#e)"/></svg>