<svg xmlns="http://www.w3.org/2000/svg" fill="none" viewBox="0 0 24 25">
    <linearGradient id="Gem_svg__a" x1=".111" x2="5.85" y1="11.865" y2="6.125" gradientUnits="userSpaceOnUse">
        <stop offset="0" stop-color="#c774ff"/>
        <stop offset="1" stop-color="#d677db"/>
    </linearGradient>
    <linearGradient id="Gem_svg__b" x1="5.486" x2="9.929" y1="11.835" y2="7.361" gradientUnits="userSpaceOnUse">
        <stop offset="0" stop-color="#ef7a9d"/>
        <stop offset="1" stop-color="#d677db"/>
    </linearGradient>
    <linearGradient id="Gem_svg__c" x1="10.529" x2="14.578" y1="11.643" y2="7.796" gradientUnits="userSpaceOnUse">
        <stop offset="0" stop-color="#ef7a9d"/>
        <stop offset="1" stop-color="#ff936d"/>
    </linearGradient>
    <linearGradient id="Gem_svg__d" x1="9.571" x2="19.098" y1="17.186" y2="8.02" gradientUnits="userSpaceOnUse">
        <stop offset="0" stop-color="#ffc846"/>
        <stop offset="1" stop-color="#ff936d"/>
    </linearGradient>
    <linearGradient id="Gem_svg__e" x1="12.664" x2="21.924" y1="18.979" y2="9.796" gradientUnits="userSpaceOnUse">
        <stop offset="0" stop-color="#ffc846"/>
        <stop offset="1" stop-color="#ffc846"/>
    </linearGradient>
    <path fill="url(#Gem_svg__a)" d="m4.548 4.327-3.743 3.7a2.116 2.116 0 0 0 0 2.991l1.042 1.042 9.566-8.35H6.044c-.56 0-1.099.222-1.496.617"/>
    <path fill="url(#Gem_svg__b)" d="m10.182 3.71-8.335 8.35 2.535 2.535L16.973 3.71z"/>
    <path fill="url(#Gem_svg__c)" d="M15.272 3.71 4.382 14.595l2.535 2.535L20.58 5.53l-1.104-1.102a2.35 2.35 0 0 0-1.696-.724h-2.507z"/>
    <path fill="url(#Gem_svg__d)" d="M19.55 4.501 6.918 17.129l2.538 2.538L22.697 7.65 19.551 4.5z"/>
    <path fill="url(#Gem_svg__e)" d="m10.44 20.653-.985-.986L22.111 7.064l1.045 1.045c.826.825.899 2.084.074 2.91l-9.685 9.637a2.197 2.197 0 0 1-3.104-.003z"/>
</svg>
