<svg xmlns="http://www.w3.org/2000/svg" fill="none" viewBox="0 0 24 24">
    <g clip-path="url('#Gnosis_svg__a')">
        <path fill="#037A5B" d="M12 24c6.627 0 12-5.373 12-12S18.627 0 12 0 0 5.373 0 12s5.373 12 12 12"/>
        <path fill="#fff" fill-rule="evenodd" d="m5.148 6.662 6.88 6.689 6.793-6.55-.259-.278c-1.683-1.812-4.102-2.857-6.62-2.857h-.015c-2.49 0-4.807.976-6.505 2.717zm6.88 5.588L6.273 6.662c1.525-1.435 3.525-2.216 5.67-2.216h.014c2.16 0 4.232.85 5.758 2.328L12.03 12.25Z" clip-rule="evenodd"/>
        <path fill="#fff" d="m18.333 8.447.634-.613.157.25a7.9 7.9 0 0 1 1.21 4.195c-.014 4.445-3.743 8.055-8.334 8.055h-.014c-4.591 0-8.334-3.638-8.319-8.083A7.85 7.85 0 0 1 4.89 8.057l.144-.237.762.739a2.8 2.8 0 0 0-.36.682c-.604 1.603.26 3.373 1.93 3.958.993.334 2.044.18 2.864-.349L12 14.58l2.03-1.965c.188.125.403.223.633.306 1.627.558 3.411-.265 3.987-1.825.345-.92.187-1.881-.317-2.648Z"/>
        <path fill="#fff" d="M6.388 10.468c0-.362.12-.714.345-1.003l2.39 2.299a1.7 1.7 0 0 1-1.037.348c-.936 0-1.698-.738-1.698-1.644m8.677 1.156c.274.18.59.278.95.278.936 0 1.699-.738 1.699-1.644 0-.334-.1-.655-.288-.92z"/>
    </g>
    <defs>
        <clipPath id="Gnosis_svg__a">
            <path fill="#fff" d="M0 0h24v24H0z"/>
        </clipPath>
    </defs>
</svg>
