<svg xmlns="http://www.w3.org/2000/svg" fill="none" viewBox="0 0 24 25">
    <g clip-path="url(#Gnosis_svg__a)">
        <path fill="#037A5B" d="M12 24.785c6.627 0 12-5.373 12-12 0-6.628-5.373-12-12-12s-12 5.372-12 12c0 6.627 5.373 12 12 12Z"/>
        <path fill="#fff" fill-rule="evenodd" d="m5.148 7.447 6.88 6.689 6.793-6.55-.259-.279c-1.683-1.811-4.102-2.856-6.62-2.856h-.015c-2.49 0-4.807.976-6.505 2.717l-.274.279Zm6.88 5.588L6.273 7.447c1.525-1.435 3.525-2.216 5.67-2.216h.014c2.16 0 4.232.85 5.758 2.327l-5.685 5.477Z" clip-rule="evenodd"/>
        <path fill="#fff" d="m18.333 9.232.634-.614.157.251a7.909 7.909 0 0 1 1.21 4.194C20.32 17.51 16.59 21.118 12 21.118h-.014c-4.591 0-8.334-3.637-8.319-8.082A7.853 7.853 0 0 1 4.89 8.842l.144-.237.762.738a2.814 2.814 0 0 0-.36.683c-.604 1.602.26 3.372 1.93 3.957a3.322 3.322 0 0 0 2.864-.348L12 15.363l2.03-1.965c.188.126.403.224.633.307 1.627.557 3.411-.265 3.987-1.826.345-.919.187-1.88-.317-2.647Z"/>
        <path fill="#fff" d="M6.388 11.253c0-.362.12-.714.345-1.004l2.39 2.3a1.683 1.683 0 0 1-1.037.348c-.936 0-1.698-.738-1.698-1.644Zm8.677 1.155c.274.181.59.279.95.279.936 0 1.699-.739 1.699-1.644 0-.335-.1-.655-.288-.92l-2.36 2.285Z"/>
    </g>
    <defs>
        <clipPath id="Gnosis_svg__a">
            <path fill="#fff" d="M0 0h24v24H0z" transform="translate(0 .785)"/>
        </clipPath>
    </defs>
</svg>
