<svg width="24" height="24" viewBox="0 0 24 24" fill="none" xmlns="http://www.w3.org/2000/svg">
<path d="M21.7864 6.67712H20.5254V8.04952C20.5254 8.16749 20.4298 8.26312 20.3118 8.26312H19.173C19.0553 8.26279 18.96 8.16725 18.96 8.04952V6.67712H17.73C17.6733 6.67728 17.6189 6.65487 17.5787 6.61483C17.5386 6.57479 17.516 6.52042 17.516 6.46372V5.43172C17.516 5.31375 17.6116 5.21812 17.7296 5.21812H18.96V3.85032C18.96 3.73243 19.0555 3.63683 19.1734 3.63672H20.3122C20.4302 3.63672 20.5258 3.73235 20.5258 3.85032V5.21812H21.7868C21.9046 5.21834 22 5.31391 22 5.43172V6.46372C22 6.52035 21.9775 6.57466 21.9374 6.61469C21.8974 6.65471 21.843 6.67717 21.7864 6.67712ZM13.9896 7.79112H9.3696C6.4942 7.79112 4.163 10.1211 4.163 12.9953C4.163 15.8695 6.4944 18.1997 9.3698 18.1997H12.7614C13.138 18.2049 13.4883 18.007 13.6781 17.6817C13.8679 17.3564 13.8679 16.9541 13.6781 16.6288C13.4883 16.3034 13.138 16.1055 12.7614 16.1107H9.773C7.8706 16.1107 6.3266 14.7247 6.3266 13.0049C6.3266 11.2851 7.8706 9.87652 9.773 9.87652L12.113 9.88392C12.113 9.88252 12.113 9.88112 12.113 9.87972H15.0156C15.0156 11.0947 13.9426 12.0797 12.619 12.0797C12.5746 12.0797 12.533 12.0785 12.4932 12.0763V12.0797H9.4248C8.90863 12.0797 8.4902 12.4982 8.4902 13.0143C8.4902 13.5305 8.90863 13.9489 9.4248 13.9489H12.7614C13.9071 13.9489 14.9657 14.5601 15.5386 15.5523C16.1114 16.5445 16.1114 17.7669 15.5386 18.7591C14.9657 19.7513 13.9071 20.3625 12.7614 20.3625H9.3698C5.3 20.3627 2 17.0645 2 12.9961C2 8.92772 5.3 5.62972 9.3698 5.62972H16.1162C16.1157 6.8097 15.1694 7.77148 13.9896 7.79112Z" fill="url(#paint0_linear_1859_26086)"/>
<defs>
<linearGradient id="paint0_linear_1859_26086" x1="2.47377" y1="15.7239" x2="21.1518" y2="4.81211" gradientUnits="userSpaceOnUse">
<stop stop-color="#00D9FF"/>
<stop offset="1" stop-color="#00FFC5"/>
</linearGradient>
</defs>
</svg>
