<svg fill="none" viewBox="0 0 24 24" xmlns="http://www.w3.org/2000/svg" xmlns:xlink="http://www.w3.org/1999/xlink"><linearGradient id="a" gradientUnits="userSpaceOnUse" x1="2.474" x2="21.152" y1="15.724" y2="4.812"><stop offset="0" stop-color="#00d9ff"/><stop offset="1" stop-color="#00ffc5"/></linearGradient><path d="m21.786 6.677h-1.26v1.373a.214.214 0 0 1 -.214.213h-1.139a.214.214 0 0 1 -.213-.213v-1.373h-1.23a.214.214 0 0 1 -.214-.213v-1.032c0-.118.096-.214.214-.214h1.23v-1.368c0-.118.095-.213.213-.213h1.14c.117 0 .213.095.213.213v1.368h1.26c.119 0 .214.096.214.214v1.032a.213.213 0 0 1 -.214.213zm-7.796 1.114h-4.62a5.205 5.205 0 1 0 0 10.409h3.391a1.045 1.045 0 1 0 0-2.09h-2.988c-1.902 0-3.446-1.385-3.446-3.105s1.543-3.128 3.446-3.128l2.34.007v-.004h2.903c0 1.215-1.073 2.2-2.397 2.2a2.27 2.27 0 0 1 -.126-.004v.004h-3.068a.935.935 0 0 0 0 1.869h3.336a3.207 3.207 0 0 1 0 6.414h-3.391a7.368 7.368 0 0 1 -7.37-7.368c0-4.067 3.3-7.365 7.37-7.365h6.746c0 1.18-.947 2.141-2.126 2.161z" fill="url(#a)"/></svg>