<svg xmlns="http://www.w3.org/2000/svg" fill="none" viewBox="0 0 24 24">
    <path fill="url(#GoPlusLab_svg__a)" d="M21.786 6.677h-1.26V8.05a.214.214 0 0 1-.214.213h-1.139a.214.214 0 0 1-.213-.213V6.677h-1.23a.214.214 0 0 1-.214-.213V5.432c0-.118.096-.214.214-.214h1.23V3.85c0-.118.095-.213.213-.213h1.14c.117 0 .213.095.213.213v1.368h1.26c.119 0 .214.096.214.214v1.032a.213.213 0 0 1-.214.213ZM13.99 7.791H9.37a5.205 5.205 0 1 0 0 10.409h3.391a1.045 1.045 0 1 0 0-2.09H9.773c-1.902 0-3.446-1.385-3.446-3.105S7.87 9.877 9.773 9.877l2.34.007V9.88h2.903c0 1.215-1.073 2.2-2.397 2.2a2.27 2.27 0 0 1-.126-.004v.004H9.425a.935.935 0 0 0 0 1.869h3.336a3.207 3.207 0 0 1 0 6.414H9.37A7.368 7.368 0 0 1 2 12.995C2 8.928 5.3 5.63 9.37 5.63h6.746c0 1.18-.947 2.141-2.126 2.161Z"/>
    <defs>
        <linearGradient id="GoPlusLab_svg__a" x1="2.474" x2="21.152" y1="15.724" y2="4.812" gradientUnits="userSpaceOnUse">
            <stop stop-color="#00D9FF"/>
            <stop offset="1" stop-color="#00FFC5"/>
        </linearGradient>
    </defs>
</svg>
