<svg xmlns="http://www.w3.org/2000/svg" fill="none" viewBox="0 0 24 24">
    <circle cx="12" cy="12" r="12" fill="url(#Harmony_svg__a)"/>
    <path fill="#fff" d="M15.412 6.215c-.686 0-1.344.272-1.829.757a2.598 2.598 0 0 0-.76 1.831v2.87c-.268.017-.54.029-.823.029-.283 0-.554.011-.822.027V8.803a2.6 2.6 0 0 0-.773-1.809 2.586 2.586 0 0 0-3.632 0A2.6 2.6 0 0 0 6 8.804v6.857a2.6 2.6 0 0 0 .773 1.809 2.585 2.585 0 0 0 3.632 0 2.6 2.6 0 0 0 .773-1.81v-2.869c.267-.018.54-.03.822-.03.283 0 .554-.01.822-.026v2.926a2.6 2.6 0 0 0 .773 1.809 2.586 2.586 0 0 0 3.632 0A2.6 2.6 0 0 0 18 15.66V8.803a2.598 2.598 0 0 0-.76-1.83 2.584 2.584 0 0 0-1.828-.758Zm-6.823 1.06a1.525 1.525 0 0 1 1.528 1.528v3.038c-.758.11-1.497.32-2.2.624a3.995 3.995 0 0 0-.854.51V8.804A1.534 1.534 0 0 1 8.59 7.276Zm1.528 8.386c0 .406-.161.796-.448 1.083a1.526 1.526 0 0 1-2.608-1.083v-.688c0-.608.48-1.184 1.284-1.542a7.518 7.518 0 0 1 1.772-.52v2.75Zm5.294 1.527a1.525 1.525 0 0 1-1.527-1.527v-3.039a8.69 8.69 0 0 0 2.2-.623 4 4 0 0 0 .853-.511v4.173a1.534 1.534 0 0 1-1.526 1.527Zm.244-6.16a7.513 7.513 0 0 1-1.771.52V8.803a1.526 1.526 0 1 1 3.056 0v.688c0 .605-.48 1.18-1.285 1.537Z"/>
    <defs>
        <linearGradient id="Harmony_svg__a" x1="21.486" x2="4.686" y1="4.8" y2="21.6" gradientUnits="userSpaceOnUse">
            <stop stop-color="#6CFBBB"/>
            <stop offset="1" stop-color="#04B2E5"/>
        </linearGradient>
    </defs>
</svg>
