<svg xmlns="http://www.w3.org/2000/svg" fill="none" viewBox="0 0 24 25">
    <circle cx="12" cy="12.785" r="12" fill="url(#Harmony_svg__a)"/>
    <path fill="#fff" d="M15.412 7c-.686 0-1.344.272-1.829.757a2.598 2.598 0 0 0-.76 1.83v2.87c-.268.018-.54.03-.823.03a13.6 13.6 0 0 0-.822.027V9.588a2.6 2.6 0 0 0-.773-1.81 2.586 2.586 0 0 0-3.632 0A2.6 2.6 0 0 0 6 9.589v6.857a2.6 2.6 0 0 0 .773 1.81 2.586 2.586 0 0 0 3.632 0 2.6 2.6 0 0 0 .773-1.81v-2.869c.267-.018.54-.03.822-.03.283 0 .554-.01.822-.027v2.926a2.6 2.6 0 0 0 .773 1.81A2.586 2.586 0 0 0 18 16.444V9.588a2.598 2.598 0 0 0-.76-1.83A2.584 2.584 0 0 0 15.412 7ZM8.588 8.06a1.525 1.525 0 0 1 1.528 1.528v3.038a8.69 8.69 0 0 0-2.2.624 4 4 0 0 0-.854.51V9.588A1.534 1.534 0 0 1 8.59 8.06Zm1.528 8.385a1.534 1.534 0 0 1-1.528 1.532c-.406 0-.794-.161-1.08-.448a1.534 1.534 0 0 1-.448-1.084v-.688c0-.607.48-1.183 1.284-1.541a7.518 7.518 0 0 1 1.772-.52v2.75Zm5.294 1.528a1.533 1.533 0 0 1-1.528-1.527v-3.04a8.693 8.693 0 0 0 2.2-.623c.305-.134.592-.305.854-.51v4.172a1.534 1.534 0 0 1-.448 1.08 1.525 1.525 0 0 1-1.078.448Zm.244-6.16a7.518 7.518 0 0 1-1.771.52V9.588a1.526 1.526 0 1 1 3.056 0v.688c0 .605-.48 1.18-1.285 1.537Z"/>
    <defs>
        <linearGradient id="Harmony_svg__a" x1="21.486" x2="4.686" y1="5.585" y2="22.385" gradientUnits="userSpaceOnUse">
            <stop stop-color="#6CFBBB"/>
            <stop offset="1" stop-color="#04B2E5"/>
        </linearGradient>
    </defs>
</svg>
