<svg xmlns="http://www.w3.org/2000/svg" viewBox="0 0 48 48">
    <g clip-path="url('#Instagram_svg__a')">
        <path fill="url(#Instagram_svg__b)" d="M12.172 47.83a16.16 16.16 0 0 1-5.437-1.006 9.095 9.095 0 0 1-3.367-2.19 9.027 9.027 0 0 1-2.192-3.366A16.16 16.16 0 0 1 .171 35.83C.03 32.745 0 31.82 0 24s.032-8.742.17-11.83a16.251 16.251 0 0 1 1.006-5.435 9.13 9.13 0 0 1 2.19-3.368 9.038 9.038 0 0 1 3.368-2.19A16.16 16.16 0 0 1 12.17.17C15.257.029 16.184 0 24 0s8.742.032 11.83.17a16.27 16.27 0 0 1 5.436 1.006 9.06 9.06 0 0 1 3.367 2.19 9.066 9.066 0 0 1 2.19 3.368c.646 1.74.987 3.58 1.008 5.436.14 3.089.17 4.013.17 11.83 0 7.818-.03 8.743-.17 11.831a16.233 16.233 0 0 1-1.008 5.437 9.694 9.694 0 0 1-5.557 5.556c-1.74.645-3.58.986-5.436 1.007-3.086.14-4.013.17-11.83.17-7.818 0-8.743-.028-11.829-.17"/>
        <path fill="url(#Instagram_svg__c)" d="M12.172 47.83a16.16 16.16 0 0 1-5.437-1.006 9.095 9.095 0 0 1-3.367-2.19 9.027 9.027 0 0 1-2.192-3.366A16.16 16.16 0 0 1 .171 35.83C.03 32.745 0 31.82 0 24s.032-8.742.17-11.83a16.251 16.251 0 0 1 1.006-5.435 9.13 9.13 0 0 1 2.19-3.368 9.038 9.038 0 0 1 3.368-2.19A16.16 16.16 0 0 1 12.17.17C15.257.029 16.184 0 24 0s8.742.032 11.83.17a16.27 16.27 0 0 1 5.436 1.006 9.06 9.06 0 0 1 3.367 2.19 9.066 9.066 0 0 1 2.19 3.368c.646 1.74.987 3.58 1.008 5.436.14 3.089.17 4.013.17 11.83 0 7.818-.03 8.743-.17 11.831a16.233 16.233 0 0 1-1.008 5.437 9.694 9.694 0 0 1-5.557 5.556c-1.74.645-3.58.986-5.436 1.007-3.086.14-4.013.17-11.83.17-7.818 0-8.743-.028-11.829-.17"/>
        <path fill="#fff" d="M18.107 24.102a5.944 5.944 0 1 1 11.888 0 5.944 5.944 0 0 1-11.888 0Zm-3.213 0a9.157 9.157 0 1 0 18.314 0 9.157 9.157 0 0 0-18.314 0Zm16.536-9.52a2.14 2.14 0 1 0 4.277.003 2.14 2.14 0 0 0-4.277-.003ZM16.847 38.617a9.855 9.855 0 0 1-3.312-.611 5.905 5.905 0 0 1-3.385-3.384 9.846 9.846 0 0 1-.611-3.311c-.087-1.88-.104-2.445-.104-7.207 0-4.761.019-5.325.104-7.206a9.92 9.92 0 0 1 .611-3.312 5.9 5.9 0 0 1 3.385-3.385 9.833 9.833 0 0 1 3.312-.611c1.88-.087 2.444-.104 7.204-.104s5.325.018 7.207.104c1.13.014 2.25.22 3.311.612a5.902 5.902 0 0 1 3.385 3.385c.393 1.06.6 2.18.612 3.311.087 1.883.104 2.445.104 7.207 0 4.762-.018 5.325-.104 7.206a9.896 9.896 0 0 1-.612 3.312 5.904 5.904 0 0 1-3.385 3.384 9.847 9.847 0 0 1-3.311.611c-1.88.087-2.444.104-7.207.104-4.762 0-5.325-.018-7.204-.104ZM16.699 6.38c-1.48.029-2.943.309-4.33.828a9.117 9.117 0 0 0-5.215 5.215 13.08 13.08 0 0 0-.828 4.33c-.088 1.901-.108 2.51-.108 7.352 0 4.843.02 5.45.108 7.352.03 1.48.31 2.944.828 4.33A9.118 9.118 0 0 0 12.37 41c1.386.519 2.85.799 4.33.828 1.901.087 2.508.108 7.351.108s5.45-.02 7.352-.108c1.48-.03 2.944-.31 4.33-.828a9.117 9.117 0 0 0 5.215-5.216c.52-1.385.8-2.85.828-4.33.087-1.902.107-2.508.107-7.351s-.02-5.45-.107-7.352a13.078 13.078 0 0 0-.828-4.33 9.118 9.118 0 0 0-5.214-5.215c-1.386-.52-2.85-.8-4.33-.828-1.901-.087-2.509-.108-7.35-.108-4.842 0-5.451.02-7.354.108"/>
    </g>
    <defs>
        <radialGradient id="Instagram_svg__b" cx="0" cy="0" r="1">
            <stop offset=".09" stop-color="#FA8F21"/>
            <stop offset=".78" stop-color="#D82D7E"/>
        </radialGradient>
        <radialGradient id="Instagram_svg__c" cx="0" cy="0" r="1">
            <stop offset=".64" stop-color="#8C3AAA" stop-opacity="0"/>
            <stop offset="1" stop-color="#8C3AAA"/>
        </radialGradient>
        <clipPath id="Instagram_svg__a">
            <path fill="#fff" d="M0 0h48v48H0z"/>
        </clipPath>
    </defs>
</svg>
