<svg xmlns="http://www.w3.org/2000/svg" fill="none" viewBox="0 0 24 24">
    <linearGradient id="InstagramRoundColored_svg__a" x1="15.629" x2="49.702" y1="41.895" y2="8.315" gradientUnits="userSpaceOnUse">
        <stop offset="0" stop-color="#fff"/>
        <stop offset=".148" stop-color="#f6640e"/>
        <stop offset=".444" stop-color="#ba03a7"/>
        <stop offset=".733" stop-color="#6a01b9"/>
        <stop offset="1" stop-color="#6b01b9"/>
    </linearGradient>
    <rect width="24" height="24" fill="url(#InstagramRoundColored_svg__a)" rx="12"/>
    <path fill="#fff" d="M12 9.434A2.567 2.567 0 0 0 9.433 12 2.553 2.553 0 0 0 12 14.568 2.567 2.567 0 0 0 14.567 12 2.58 2.58 0 0 0 12 9.434m0 4.24a1.67 1.67 0 0 1-1.674-1.673c0-.916.737-1.652 1.674-1.652.916 0 1.652.736 1.652 1.652 0 .937-.736 1.674-1.652 1.674zm3.26-4.33a.6.6 0 0 0-.603-.602.6.6 0 0 0-.603.602.6.6 0 0 0 .603.603.6.6 0 0 0 .602-.603zm1.696.603c-.045-.804-.223-1.518-.804-2.098-.58-.58-1.294-.76-2.098-.804-.826-.044-3.304-.044-4.13 0-.803.045-1.495.223-2.098.804-.58.58-.759 1.294-.803 2.098-.045.826-.045 3.304 0 4.13.044.803.223 1.495.803 2.098.603.58 1.295.759 2.099.803.825.045 3.303.045 4.129 0 .804-.044 1.518-.223 2.098-.803.58-.603.76-1.295.804-2.099.044-.825.044-3.303 0-4.129m-1.072 5c-.156.446-.513.781-.937.96-.67.268-2.232.2-2.947.2-.736 0-2.299.068-2.946-.2a1.7 1.7 0 0 1-.96-.96c-.268-.647-.2-2.21-.2-2.946 0-.715-.068-2.277.2-2.947.179-.424.514-.759.96-.937.647-.268 2.21-.201 2.946-.201.715 0 2.277-.067 2.947.2.424.157.759.514.937.938.268.67.201 2.232.201 2.947 0 .736.067 2.299-.2 2.946z"/>
</svg>
