<svg xmlns="http://www.w3.org/2000/svg" fill="none" viewBox="0 0 25 24">
    <path fill="#469ea2" d="m2.831 17.44 9.492 5.48 9.49-5.48V6.48L12.324 1 2.83 6.48z"/>
    <path fill="#6acad1" d="M11.352 2.311 4.459 6.288q.017.187 0 .373l6.881 3.978a1.645 1.645 0 0 1 1.955 0l6.881-3.978a2 2 0 0 1 0-.373l-6.87-3.977a1.64 1.64 0 0 1-1.954 0m9.491 5.446L13.95 11.78a1.665 1.665 0 0 1-.971 1.695l.011 7.91q.167.073.316.18l6.882-3.977a1.665 1.665 0 0 1 .972-1.695V7.938a2 2 0 0 1-.317-.18zm-17.04.046a2 2 0 0 1-.316.18v7.955a1.625 1.625 0 0 1 .972 1.695l6.881 3.977q.15-.106.317-.18v-7.955a1.625 1.625 0 0 1-.972-1.695L3.804 7.803z"/>
    <path fill="#469ea2" d="m12.322 2.186 8.486 4.904v9.797l-8.486 4.904-8.485-4.904V7.079l8.486-4.893zm0-1.164-9.49 5.48v10.961l9.49 5.48 9.492-5.48V6.503z"/>
    <path fill="#469ea2" d="M12.39 13.825h-.135a1.77 1.77 0 0 1-1.774-1.774v-.136a1.77 1.77 0 0 1 1.774-1.774h.135a1.77 1.77 0 0 1 1.774 1.774v.136a1.77 1.77 0 0 1-1.774 1.774m0 7.288h-.135a1.77 1.77 0 0 0-1.548.904l1.615.926 1.616-.926a1.77 1.77 0 0 0-1.548-.904m9.435-5.48h-.068a1.77 1.77 0 0 0-1.774 1.774v.135a1.7 1.7 0 0 0 .226.859l1.616-.938zM20.21 5.575a1.74 1.74 0 0 0-.226.859v.135a1.77 1.77 0 0 0 1.774 1.774h.068v-1.84l-1.616-.927zm-7.886-4.554-1.616.927a1.78 1.78 0 0 0 1.548.915h.135a1.77 1.77 0 0 0 1.548-.904zM4.446 5.565l-1.616.938v1.841h.068A1.77 1.77 0 0 0 4.673 6.57v-.135a1.9 1.9 0 0 0-.226-.87zM2.899 15.632H2.83v1.831l1.616.938a1.74 1.74 0 0 0 .226-.859v-.136a1.77 1.77 0 0 0-1.774-1.773z"/>
    <g fill="#083b54">
        <path fill-opacity=".15" d="M12.322 23V12.028l-9.49-5.48V17.52z"/>
        <path fill-opacity=".05" d="M21.825 17.418V6.458l-9.491 5.48V22.91z"/>
    </g>
</svg>
