<svg fill="none" viewBox="0 0 25 24" xmlns="http://www.w3.org/2000/svg"><path d="m2.831 17.44 9.492 5.48 9.49-5.48v-10.96l-9.489-5.48-9.494 5.48v10.96z" fill="#469ea2"/><path d="m11.352 2.311-6.893 3.977c.011.124.011.25 0 .373l6.881 3.978a1.645 1.645 0 0 1 1.955 0l6.881-3.978a2.055 2.055 0 0 1 0-.373l-6.87-3.977a1.644 1.644 0 0 1 -1.954 0zm9.491 5.446-6.893 4.023a1.665 1.665 0 0 1 -.971 1.695l.011 7.91c.111.048.217.109.316.18l6.882-3.977a1.665 1.665 0 0 1 .972-1.695v-7.955a2.257 2.257 0 0 1 -.317-.18zm-17.04.046a1.76 1.76 0 0 1 -.316.18v7.955a1.625 1.625 0 0 1 .972 1.695l6.881 3.977c.1-.07.205-.131.317-.18v-7.955a1.625 1.625 0 0 1 -.972-1.695l-6.881-3.977z" fill="#6acad1"/><path d="m12.322 2.186 8.486 4.904v9.797l-8.486 4.904-8.485-4.904v-9.808l8.486-4.893zm0-1.164-9.49 5.48v10.961l9.49 5.48 9.492-5.48v-10.96l-9.492-5.48z" fill="#469ea2"/><path d="m12.39 13.825h-.135a1.77 1.77 0 0 1 -1.774-1.774v-.136a1.77 1.77 0 0 1 1.774-1.774h.135a1.77 1.77 0 0 1 1.774 1.774v.136a1.77 1.77 0 0 1 -1.774 1.774zm0 7.288h-.135a1.767 1.767 0 0 0 -1.548.904l1.615.926 1.616-.926a1.768 1.768 0 0 0 -1.548-.904zm9.435-5.48h-.068a1.77 1.77 0 0 0 -1.774 1.774v.135a1.71 1.71 0 0 0 .226.859l1.616-.938zm-1.615-10.058a1.74 1.74 0 0 0 -.226.859v.135a1.768 1.768 0 0 0 1.774 1.774h.068v-1.84l-1.616-.927zm-7.886-4.554-1.616.927a1.777 1.777 0 0 0 1.548.915h.135a1.768 1.768 0 0 0 1.548-.904l-1.616-.938zm-7.878 4.544-1.616.938v1.841h.068a1.77 1.77 0 0 0 1.775-1.774v-.135a1.88 1.88 0 0 0 -.226-.87zm-1.547 10.067h-.069v1.831l1.616.938a1.74 1.74 0 0 0 .226-.859v-.136a1.77 1.77 0 0 0 -1.774-1.773z" fill="#469ea2"/><g fill="#083b54"><path d="m12.322 23v-10.972l-9.49-5.48v10.972z" fill-opacity=".15"/><path d="m21.825 17.418v-10.96l-9.491 5.48v10.972z" fill-opacity=".05"/></g></svg>