<svg xmlns="http://www.w3.org/2000/svg" fill="none" viewBox="0 0 24 24">
    <g clip-path="url('#Iqwiki_svg__clip0_11436_40609')">
        <circle cx="12" cy="12" r="12" fill="#000"/>
        <path fill="#000" stroke="#103849" stroke-linejoin="round" stroke-miterlimit="10" stroke-width="1.621" d="M19.886 11.774a2.15 2.15 0 0 0 .477-1.354 2.164 2.164 0 0 0-2.412-2.146A2.836 2.836 0 0 0 13.7 5.987a3.584 3.584 0 0 0-2.528-1.047A3.58 3.58 0 0 0 7.77 7.417c-1.506.14-2.684 1.263-2.684 2.623 0 .136.012.271.036.405a2.871 2.871 0 0 0-1.707 2.637 2.897 2.897 0 0 0 3.439 2.84c.379 1.091 1.402 1.84 2.543 1.84a2.64 2.64 0 0 0 1.318-.353c.565 1.01 1.694 1.651 2.933 1.651 1.508 0 2.783-.942 3.177-2.223a3.152 3.152 0 0 0 3.76-3.087c0-.722-.248-1.418-.7-1.976Z"/>
        <path fill="#FF5CAA" d="M20.409 13.75c0 .372-.069.727-.193 1.055a2.976 2.976 0 0 1-5.591-.08c-2.402.173-3.775-.899-4.347-2.942a3.394 3.394 0 0 1-2.503-3.274c0-1.012.444-1.92 1.148-2.542a3.385 3.385 0 0 1 2.25-.85c.988 0 1.879.421 2.499 1.095.417-.272.915-.43 1.45-.43a2.652 2.652 0 0 1 2.657 2.617v.081a1.984 1.984 0 0 1 2.007.743c.252.333.401.747.401 1.196a1.968 1.968 0 0 1-.534 1.352c.47.525.756 1.219.756 1.978Z"/>
        <path fill="#000" d="M15.089 8.27a3.265 3.265 0 0 0-.867 2.22 3.281 3.281 0 0 0 3.98 3.204m-7.174-6.483a2.281 2.281 0 0 0 2.277 2.12l-2.277-2.12Zm5.907 1.68c.244-.203.533-.343.844-.41l-.844.41Zm-3.264-2.68a2.658 2.658 0 0 0-.908 1l.908-1Z"/>
        <path stroke="#103849" stroke-linecap="round" stroke-linejoin="round" stroke-miterlimit="10" stroke-width=".926" d="M15.089 8.27a3.265 3.265 0 0 0-.867 2.22 3.281 3.281 0 0 0 3.98 3.204m-7.174-6.483a2.281 2.281 0 0 0 2.277 2.12m3.63-.44c.244-.203.533-.343.844-.41m-4.108-2.27a2.658 2.658 0 0 0-.908 1"/>
        <path fill="#FF52A0" stroke="#103849" stroke-linejoin="round" stroke-miterlimit="10" stroke-width=".81" d="M20.409 13.75a2.975 2.975 0 0 1-5.784.976c-2.402.172-3.775-.9-4.347-2.943a3.394 3.394 0 0 1-2.503-3.274 3.395 3.395 0 0 1 3.398-3.392c.988 0 1.879.421 2.499 1.095a2.656 2.656 0 0 1 4.108 2.224v.045a1.985 1.985 0 0 1 1.874 3.29c.47.526.755 1.22.755 1.979Z"/>
        <path fill="#000" d="M19.653 11.772s-.23-.239-.546-.487l.546.487Zm-8.869 5.386a2.672 2.672 0 0 1-.246-.863l.246.863Z"/>
        <path stroke="#103849" stroke-linecap="round" stroke-linejoin="round" stroke-miterlimit="10" stroke-width=".926" d="M19.653 11.772s-.23-.239-.546-.487m-8.323 5.873a2.672 2.672 0 0 1-.246-.863"/>
        <path fill="#FF5CAA" d="M16.616 15.092c.105.291.159.599.158.908 0 1.593-1.4 2.883-3.126 2.883-1.28 0-2.381-.71-2.864-1.726-.398.27-.875.428-1.387.428-1.15 0-2.12-.79-2.423-1.87a2.717 2.717 0 0 1-3.382-2.634c0-1.152.718-2.136 1.732-2.53a2.17 2.17 0 0 1-.06-.511c0-1.36 1.265-2.462 2.826-2.462.896 0 1.696.364 2.213.93.416-.222.894-.35 1.404-.35 1.582 0 2.865 1.225 2.865 2.736 0 .036 0 .071-.003.107 1.306.239 2.298 1.436 2.298 2.877 0 .433-.09.844-.251 1.214Z"/>
        <path fill="#000" d="M15.601 13.75a2.9 2.9 0 0 1 1.015 1.342L15.6 13.75Zm-8.627 1.965a2.647 2.647 0 0 1-.1-.72c0-1.021.576-1.904 1.411-2.326m-2.253-2.288a2.689 2.689 0 0 0-.708.17l.708-.17Zm4.272-1.872Zm0 0a2.856 2.856 0 0 0-.904.764l.903-.764Z"/>
        <path stroke="#103849" stroke-linecap="round" stroke-linejoin="round" stroke-miterlimit="10" stroke-width=".926" d="M15.601 13.75a2.9 2.9 0 0 1 1.015 1.342m-9.642.623a2.647 2.647 0 0 1-.1-.72c0-1.021.576-1.904 1.411-2.326m-2.253-2.288a2.689 2.689 0 0 0-.708.17m4.98-2.042h0a2.856 2.856 0 0 0-.904.764"/>
        <path fill="#FF52A0" stroke="#103849" stroke-linejoin="round" stroke-miterlimit="10" stroke-width=".81" d="M16.616 15.092c.105.291.159.599.158.908 0 1.593-1.4 2.883-3.126 2.883-1.28 0-2.381-.71-2.864-1.726-.398.27-.875.428-1.387.428-1.15 0-2.12-.79-2.423-1.87a2.717 2.717 0 0 1-3.382-2.634c0-1.152.718-2.136 1.732-2.53a2.17 2.17 0 0 1-.06-.511c0-1.36 1.265-2.462 2.826-2.462.896 0 1.696.364 2.213.93.416-.222.894-.35 1.404-.35 1.582 0 2.865 1.225 2.865 2.736 0 .036 0 .071-.003.107 1.306.239 2.298 1.436 2.298 2.877 0 .433-.09.844-.251 1.214Z"/>
        <path fill="#FF52A0" d="M12.125 11.815a2.704 2.704 0 0 1 2.444-.813m-.18 3.435a2.16 2.16 0 0 1-1.69.812 2.16 2.16 0 0 1-1.674-3.525"/>
        <path stroke="#103849" stroke-linecap="round" stroke-linejoin="round" stroke-miterlimit="10" stroke-width=".926" d="M12.125 11.815a2.704 2.704 0 0 1 2.444-.813m-.18 3.435a2.16 2.16 0 0 1-1.69.812 2.16 2.16 0 0 1-1.674-3.525"/>
        <path fill="#000" d="M13.657 16.317a2.45 2.45 0 0 0-.296-1.171l.296 1.171Zm-4.52-1.379a2.473 2.473 0 0 1 1.56-1.039l-1.56 1.04Zm-3.854-1.854a2.336 2.336 0 0 1 2.183.246m2.263-2.234a1.641 1.641 0 0 1-1.61-.398m8.706.293a1.307 1.307 0 0 1 1.017-.238"/>
        <path stroke="#103849" stroke-linecap="round" stroke-linejoin="round" stroke-miterlimit="10" stroke-width=".926" d="M13.657 16.317a2.45 2.45 0 0 0-.296-1.171m-4.223-.208a2.47 2.47 0 0 1 1.558-1.039m-5.413-.815a2.336 2.336 0 0 1 2.183.246m2.263-2.234a1.641 1.641 0 0 1-1.61-.398m8.706.293a1.307 1.307 0 0 1 1.017-.238"/>
        <path fill="#F0F0F0" d="M11.172 3.932a4.57 4.57 0 0 0-4.127 2.585C5.36 6.925 4.157 8.278 4.08 9.88a3.897 3.897 0 0 0-1.675 3.202 3.907 3.907 0 0 0 3.838 3.9 3.71 3.71 0 0 0 3.154 1.789c.329 0 .653-.044.966-.13.813.902 2.006 1.428 3.285 1.428.866 0 1.705-.245 2.426-.709a4.157 4.157 0 0 0 1.384-1.455 4.162 4.162 0 0 0 4.137-4.154 4.13 4.13 0 0 0-.514-2.002 3.16 3.16 0 0 0-.611-3.54 3.158 3.158 0 0 0-1.673-.901 3.846 3.846 0 0 0-4.93-2.5 4.59 4.59 0 0 0-2.695-.875Zm0 .655a3.96 3.96 0 0 1 2.586.97 3.189 3.189 0 0 1 4.508 2.35 2.518 2.518 0 0 1 2.45 2.513c0 .478-.136.946-.393 1.35.398.579.615 1.272.615 1.98a3.506 3.506 0 0 1-3.88 3.479c-.539 1.3-1.898 2.184-3.41 2.184-1.248 0-2.39-.585-3.061-1.545a3.008 3.008 0 0 1-1.19.246 3.056 3.056 0 0 1-2.768-1.804 3.25 3.25 0 0 1-3.567-3.229c0-1.187.65-2.275 1.679-2.84a2.69 2.69 0 0 1-.008-.2c0-1.468 1.179-2.701 2.777-2.948a3.916 3.916 0 0 1 3.662-2.506Z"/>
    </g>
    <defs>
        <clipPath id="Iqwiki_svg__clip0_11436_40609">
            <path fill="#fff" d="M0 0h24v24H0z"/>
        </clipPath>
    </defs>
</svg>
