<svg xmlns="http://www.w3.org/2000/svg" fill="none" viewBox="0 0 24 24">
    <path fill="#33a0ff" d="M12 2.065C5.67 2.065.537 7.197.537 13.527c0 2.186.612 4.229 1.674 5.967l2.994-3.18 15.157.095-.11 5.073a11.42 11.42 0 0 0 3.21-7.955c0-6.33-5.131-11.462-11.462-11.462"/>
    <path fill="#3dcc8e" d="M6.818 5.332a1.02 1.02 0 0 1-.954-1.076L5.94 3.03a1.02 1.02 0 0 1 1.077-.954l1.224.076a1.014 1.014 0 0 1 .953 1.081l-.075 1.22a.7.7 0 0 1-.027.157l-.044.213-.805.596-1.425-.088z"/>
    <path fill="#282828" d="M6.957 1.46c-.861 0-1.578.673-1.631 1.533L5.25 4.215v.005a1.637 1.637 0 0 0 1.53 1.725l1.2.075.447.027.36-.266.437-.323.378-.28.087-.425a1.3 1.3 0 0 0 .043-.261l.075-1.221A1.62 1.62 0 0 0 9.4 2.087a1.62 1.62 0 0 0-1.124-.548l-1.22-.076h-.004zm.914 2.668.044-.727-.727-.045-.045.727zM6.957 2.69l.024.001 1.222.076a.4.4 0 0 1 .377.428l-.075 1.22c-.001.02-.009.036-.012.054l-.436.323-1.2-.074a.404.404 0 0 1-.38-.427l.077-1.222a.403.403 0 0 1 .403-.379"/>
    <path fill="#fff" d="M12 8.006A8.666 8.666 0 0 0 4.79 21.48h14.767c.777-1.42 1.109-3.1 1.109-4.81 0-4.429-3.88-8.665-8.666-8.665z"/>
    <path fill="#282827" d="M12 7.391c-5.118 0-9.281 4.164-9.281 9.281 0 1.76.492 3.406 1.346 4.81h1.483a8 8 0 0 1-1.599-4.81c0-4.44 3.611-8.05 8.05-8.05 2.11 0 4.129.882 5.687 2.485 1.503 1.545 2.364 3.573 2.364 5.565 0 1.364-.225 3.217-1.204 4.81h1.404c.678-1.364 1.03-2.995 1.03-4.81 0-2.31-.988-4.65-2.712-6.423C16.776 8.406 14.443 7.391 12 7.391"/>
    <path fill="#282827" d="M10.25 19.188a.832.832 0 1 1-1.664 0 .832.832 0 0 1 1.664 0m5.163 0a.832.832 0 1 1-1.664 0 .832.832 0 0 1 1.664 0"/>
    <path fill="#ff6f21" d="m2.545 18.857 4.618-4.897-1.112 3.485c3.605-2.624 7.39-2.21 10.055-1.427 2.829.83 4.809-1.667 2.87-4.332-.92-1.267-2.184-2.318-3.62-2.956-3.764-1.672-7.55-.697-10.102 1.882-2.705 2.732-2.71 5.762-2.71 8.245z"/>
    <path fill="#282827" d="M11.566 8.518q-.806 0-1.592.161c-1.595.328-3.076 1.146-4.283 2.365-2.005 2.026-2.422 4.2-2.509 6.24L8.57 11.57l-1.426 4.472c2.68-1.402 5.745-1.61 9.135-.614 1.079.317 2.056.077 2.552-.626.508-.722.377-1.752-.352-2.755-.872-1.197-2.07-2.176-3.373-2.755a8.7 8.7 0 0 0-3.54-.774M1.93 20.406v-1.549c0-2.567 0-5.762 2.886-8.678 1.379-1.392 3.077-2.328 4.91-2.705 1.931-.397 3.964-.157 5.88.694 1.497.665 2.871 1.786 3.868 3.156 1.037 1.427 1.176 3.03.362 4.186-.796 1.13-2.328 1.56-3.904 1.098-3.634-1.067-6.837-.618-9.52 1.334l-1.518 1.105.86-2.697z"/>
    <path fill="#ff6f21" d="M14.212 7.545a3.02 3.02 0 0 1-3.606 1.809c-1.657-.467-2.532-1.799-2.322-3.488.209-1.68 1.344-3.153 2.653-4.969-1.075 2.288-.162 2.503.127 2.491.285-.011.702.037 1.295.234a3 3 0 0 1 1.853 3.923"/>
    <path fill="#282827" d="M9.97 3.35c-.569.89-.967 1.716-1.076 2.592-.172 1.386.53 2.44 1.879 2.82a2.397 2.397 0 0 0 2.865-1.438 2.37 2.37 0 0 0-.07-1.875 2.36 2.36 0 0 0-1.403-1.243c-.547-.182-.888-.21-1.077-.203a1.19 1.19 0 0 1-1.119-.654zm1.429 6.728q-.482 0-.96-.132c-.955-.27-1.718-.8-2.207-1.538-.487-.734-.68-1.64-.559-2.618.215-1.728 1.28-3.2 2.513-4.904l.252-.348 1.055.62c-.52 1.11-.461 1.52-.434 1.614.42-.013.922.077 1.493.266a3.58 3.58 0 0 1 2.128 1.884c.426.9.464 1.91.106 2.843-.543 1.414-1.927 2.313-3.387 2.313"/>
    <path fill="#3dcc8e" d="M12.657 12.993a.71.71 0 0 1-.553-.263l-.414-.507a.713.713 0 0 1 .072-.976.7.7 0 0 1-.235-.186l-.094-.116a.713.713 0 0 1 .1-1.002l.06-.048-.606-.744a.775.775 0 0 1 1.2-.98l2.585 3.182a.775.775 0 0 1-1.136 1.048l-.527.43a.72.72 0 0 1-.452.162"/>
    <path fill="#282828" d="M12.577 7.852a1.273 1.273 0 0 0-1.796-.18 1.28 1.28 0 0 0-.182 1.797l.336.413c-.247.425-.22.978.109 1.381l.063.078c-.149.393-.09.852.194 1.2l.414.507a1.22 1.22 0 0 0 1.713.173l.248-.202a1.28 1.28 0 0 0 1.304-.188 1.28 1.28 0 0 0 .182-1.797l-2.583-3.179zm-.989.538a.27.27 0 0 1 .21.1l2.584 3.18a.27.27 0 1 1-.42.343l-.257-.317-.914.746a.21.21 0 0 1-.296-.03l-.414-.507a.21.21 0 0 1 .03-.293l.918-.75-.375-.462-.455.37a.2.2 0 0 1-.28-.028l-.095-.116a.21.21 0 0 1 .03-.293l.448-.367-.924-1.134a.27.27 0 0 1 .21-.442"/>
</svg>
