<svg fill="none" viewBox="0 0 24 24" xmlns="http://www.w3.org/2000/svg"><path d="m12 2.065c-6.33 0-11.463 5.132-11.463 11.462 0 2.186.612 4.229 1.674 5.967l2.994-3.18 15.157.095-.11 5.073a11.424 11.424 0 0 0 3.21-7.955c0-6.33-5.131-11.462-11.462-11.462z" fill="#33a0ff"/><path d="m6.818 5.332a1.02 1.02 0 0 1 -.954-1.076l.076-1.226a1.02 1.02 0 0 1 1.077-.954l1.224.076a1.014 1.014 0 0 1 .953 1.081l-.075 1.22a.738.738 0 0 1 -.027.157l-.044.213-.805.596-1.425-.088z" fill="#3dcc8e"/><path d="m6.957 1.46c-.861 0-1.578.673-1.631 1.533l-.076 1.222v.005a1.637 1.637 0 0 0 1.53 1.725l1.2.075.447.027.36-.266.437-.323.378-.28.087-.425a1.34 1.34 0 0 0 .043-.261l.075-1.221a1.622 1.622 0 0 0 -.407-1.184 1.621 1.621 0 0 0 -1.124-.548l-1.22-.076h-.004a1.67 1.67 0 0 0 -.096-.003zm.914 2.668.044-.727-.727-.045-.045.727zm-.914-1.438.024.001 1.222.076a.4.4 0 0 1 .377.428l-.075 1.22c-.001.02-.009.036-.012.054l-.436.323-1.2-.074a.404.404 0 0 1 -.38-.427l.077-1.222a.403.403 0 0 1 .403-.379z" fill="#282828"/><path d="m12 8.006a8.666 8.666 0 0 0 -7.21 13.474h14.767c.777-1.42 1.109-3.1 1.109-4.81 0-4.429-3.88-8.665-8.666-8.665z" fill="#fff"/><path d="m12 7.391c-5.118 0-9.281 4.164-9.281 9.281 0 1.76.492 3.406 1.346 4.81h1.483a8.008 8.008 0 0 1 -1.599-4.81c0-4.44 3.611-8.05 8.05-8.05 2.11 0 4.129.882 5.687 2.485 1.503 1.545 2.364 3.573 2.364 5.565 0 1.364-.225 3.217-1.204 4.81h1.404c.678-1.364 1.03-2.995 1.03-4.81 0-2.31-.988-4.65-2.712-6.423-1.792-1.843-4.125-2.858-6.568-2.858z" fill="#282827"/><path d="m10.25 19.188a.832.832 0 1 1 -1.664 0 .832.832 0 0 1 1.664 0zm5.163 0a.832.832 0 1 1 -1.664 0 .832.832 0 0 1 1.664 0z" fill="#282827"/><path d="m2.545 18.857 4.618-4.897-1.112 3.485c3.605-2.624 7.39-2.21 10.055-1.427 2.829.83 4.809-1.667 2.87-4.332-.92-1.267-2.184-2.318-3.62-2.956-3.764-1.672-7.55-.697-10.102 1.882-2.705 2.732-2.71 5.762-2.71 8.245z" fill="#ff6f21"/><path d="m11.566 8.518c-.536 0-1.069.053-1.592.161-1.595.328-3.076 1.146-4.283 2.365-2.005 2.026-2.422 4.2-2.509 6.24l5.388-5.714-1.426 4.472c2.68-1.402 5.745-1.61 9.135-.614 1.079.317 2.056.077 2.552-.626.508-.722.377-1.752-.352-2.755-.872-1.197-2.07-2.176-3.373-2.755a8.718 8.718 0 0 0 -3.54-.774zm-9.636 11.888v-1.549c0-2.567 0-5.762 2.886-8.678 1.379-1.392 3.077-2.328 4.91-2.705 1.931-.397 3.964-.157 5.88.694 1.497.665 2.871 1.786 3.868 3.156 1.037 1.427 1.176 3.03.362 4.186-.796 1.13-2.328 1.56-3.904 1.098-3.634-1.067-6.837-.618-9.52 1.334l-1.518 1.105.86-2.697-3.824 4.056z" fill="#282827"/><path d="m14.212 7.545a3.02 3.02 0 0 1 -3.606 1.809c-1.657-.467-2.532-1.799-2.322-3.488.209-1.68 1.344-3.153 2.653-4.969-1.075 2.288-.162 2.503.127 2.491.285-.011.702.037 1.295.234a2.998 2.998 0 0 1 1.853 3.923z" fill="#ff6f21"/><path d="m9.97 3.35c-.569.89-.967 1.716-1.076 2.592-.172 1.386.53 2.44 1.879 2.82a2.397 2.397 0 0 0 2.865-1.438 2.366 2.366 0 0 0 -.07-1.875 2.362 2.362 0 0 0 -1.403-1.243c-.547-.182-.888-.21-1.077-.203a1.187 1.187 0 0 1 -1.119-.654zm1.429 6.728c-.32 0-.642-.043-.96-.132-.955-.27-1.718-.8-2.207-1.538-.487-.734-.68-1.64-.559-2.618.215-1.728 1.28-3.2 2.513-4.904l.252-.348 1.055.62c-.52 1.11-.461 1.52-.434 1.614.42-.013.922.077 1.493.266a3.58 3.58 0 0 1 2.128 1.884c.426.9.464 1.91.106 2.843-.543 1.414-1.927 2.313-3.387 2.313z" fill="#282827"/><path d="m12.657 12.993a.711.711 0 0 1 -.553-.263l-.414-.507a.713.713 0 0 1 .072-.976.701.701 0 0 1 -.235-.186l-.094-.116a.713.713 0 0 1 .1-1.002l.06-.048-.606-.744a.775.775 0 0 1 1.2-.98l2.585 3.182a.775.775 0 0 1 -1.136 1.048l-.527.43a.716.716 0 0 1 -.452.162z" fill="#3dcc8e"/><path d="m12.577 7.852a1.273 1.273 0 0 0 -1.796-.18 1.279 1.279 0 0 0 -.182 1.797l.336.413c-.247.425-.22.978.109 1.381l.063.078c-.149.393-.09.852.194 1.2l.414.507a1.22 1.22 0 0 0 1.713.173l.248-.202a1.28 1.28 0 0 0 1.304-.188 1.279 1.279 0 0 0 .182-1.797l-2.583-3.179zm-.989.538a.27.27 0 0 1 .21.1l2.584 3.18a.27.27 0 1 1 -.42.343l-.257-.317-.914.746a.21.21 0 0 1 -.296-.03l-.414-.507a.208.208 0 0 1 .03-.293l.918-.75-.375-.462-.455.37a.2.2 0 0 1 -.28-.028l-.095-.116a.209.209 0 0 1 .03-.293l.448-.367-.924-1.134a.27.27 0 0 1 .21-.442z" fill="#282828"/></svg>