<svg xmlns="http://www.w3.org/2000/svg" fill="none" viewBox="0 0 32 32">
    <path fill="#000" d="M19.886 26.188a1.125 1.125 0 1 0 0 2.25 1.125 1.125 0 0 0 0-2.25zm6.995-9.225c-.594-.914-2.461-3.279-5.454-4.607-.38-.17-.762-.321-1.149-.455a4.9 4.9 0 0 0-2.992-6.508c-.776-.256-1.459-.375-2.026-.36-.038-.126-.118-.688.587-2.188L14.417 2l-.343.472a59.821 59.821 0 0 0-1.522 2.181 3.19 3.19 0 0 0-.518-.078c-2.595-.153-2.437-.146-2.566-.146-3.163 0-3.172 3.258-3.172 2.868L6.15 9.589c-.1 1.688 1.234 3.138 2.977 3.241l.558.034a13.372 13.372 0 0 0-2.893 2.221c-3.916 3.956-3.916 8.29-3.916 11.776v2.102l1.458-1.862c.195.82.501 1.61.91 2.347.36.633.929.59 1.227.458.263-.117.625-.432.234-1.257a11.17 11.17 0 0 1-.985-3.32l2.927-3.74-1.542 4.632c3.64-2.65 9.837-3.86 14.766-2.412 2.138.628 4.216.043 5.296-1.49.045-.062.075-.135.116-.2a9.8 9.8 0 0 1 .175 1.776c0 1.456-.23 3.308-.93 5.103-.158.403.11.906.537.983.464.098.959-.194 1.149-.697.6-1.596.912-3.409.912-5.389 0-2.411-.812-4.841-2.244-6.932zM10.898 8.035l-.981-.058L9.83 9.34l.82.049c-.036.407-.029.817.02 1.223l-1.398-.084a.769.769 0 0 1-.735-.8l.15-2.29c.063-.761.867-.705.83-.708l1.819.108c-.174.389-.32.79-.438 1.198zm9.276 10.761a.657.657 0 0 1-.896-.086l-.605-.718-2.152 1.687a.505.505 0 0 1-.695-.068l-.987-1.165a.461.461 0 0 1 .084-.646l2.16-1.699-.883-1.046-1.068.84a.484.484 0 0 1-.662-.062l-.238-.283a.461.461 0 0 1 .086-.646l1.057-.83-1.163-1.384a.597.597 0 0 1 .11-.84.649.649 0 0 1 .893.086l5.068 6.02a.597.597 0 0 1-.109.84zm-6.459 7.39a1.125 1.125 0 1 0 0 2.25 1.125 1.125 0 0 0 0-2.25z"/>
</svg>
