<svg xmlns="http://www.w3.org/2000/svg" fill="none" viewBox="0 0 24 24">
    <circle cx="12" cy="12" r="12" fill="#000"/>
    <path fill="#fff" d="M19.065 7.522c-.24-.19-.528-.449-1.051-.514-.49-.064-.99.264-1.329.482s-.977.856-1.24 1.05c-.264.195-.94.376-2.028 1.029S8.06 12.962 8.06 12.962l1.111.014-4.953 2.55h.495L4 16.07s.63.166 1.157-.167v.153s5.899-2.325 7.037-1.723l-.694.204c.06 0 1.18.074 1.18.074a1.59 1.59 0 0 0 .713 1.148c.676.445.69.69.69.69s-.351.144-.351.324c0 0 .518-.157 1-.143q.46.017.902.143s-.037-.194-.504-.324c-.468-.13-.93-.639-1.158-.917a1.3 1.3 0 0 1-.19-1.268c.162-.421.727-.653 1.894-1.255 1.375-.713 1.69-1.24 1.884-1.652.195-.412.482-1.232.644-1.616.203-.496.453-.76.662-.917.208-.157 1.134-.505 1.134-.505s-.708-.615-.935-.796z"/>
</svg>
