<svg fill="none" viewBox="0 0 24 24" xmlns="http://www.w3.org/2000/svg"><circle cx="12" cy="12" fill="#000" r="12"/><path d="m19.065 7.522c-.24-.19-.528-.449-1.051-.514-.49-.064-.99.264-1.329.482-.338.217-.977.856-1.24 1.05-.264.195-.94.376-2.028 1.029-1.088.652-5.357 3.393-5.357 3.393l1.111.014-4.953 2.55h.495l-.713.544s.63.166 1.157-.167v.153s5.899-2.325 7.037-1.723l-.694.204c.06 0 1.18.074 1.18.074a1.588 1.588 0 0 0 .713 1.148c.676.445.69.69.69.69s-.351.144-.351.324c0 0 .518-.157 1-.143.305.011.608.06.902.143 0 0-.037-.194-.504-.324-.468-.13-.93-.639-1.158-.917a1.298 1.298 0 0 1 -.19-1.268c.162-.421.727-.653 1.894-1.255 1.375-.713 1.69-1.24 1.884-1.652.195-.412.482-1.232.644-1.616.203-.496.453-.76.662-.917.208-.157 1.134-.505 1.134-.505s-.708-.615-.935-.796z" fill="#fff"/></svg>