<svg xmlns="http://www.w3.org/2000/svg" fill="none" viewBox="0 0 24 24">
    <rect width="24" height="24" fill="#a1fe27" rx="12"/>
    <g fill="#00501e">
        <path d="M12.018 14.29c-.16 0-3.97-.033-6.882-2.947l-.181-.186c-.61-.643-.9-1.408-.839-2.213.055-.71.383-1.396.92-1.936.538-.54 1.227-.866 1.936-.92.743-.054 1.454.187 2.066.706.066-.8.395-1.474.96-1.959.54-.463 1.256-.718 2.02-.718.765 0 1.48.255 2.02.718.565.485.896 1.16.962 1.959.611-.519 1.322-.765 2.065-.706.71.055 1.396.383 1.935.92.54.538.867 1.227.92 1.936.062.805-.228 1.57-.838 2.214l-.18.186c-2.914 2.913-6.723 2.946-6.884 2.946M7.183 6.685c-.66 0-1.28.307-1.722.748-.792.793-1.152 2.168-.07 3.312q.084.088.17.174c2.739 2.74 6.421 2.77 6.458 2.77s3.726-.037 6.458-2.77q.087-.086.169-.174c1.083-1.146.723-2.519-.07-3.312s-2.168-1.154-3.314-.07a7 7 0 0 0-.304.304l-.57.604.023-.829c0-.063.004-.126.004-.19q0-.124-.003-.243c-.044-1.575-1.27-2.292-2.392-2.292s-2.348.717-2.392 2.292l-.003.243q0 .093.003.185l.023.834-.57-.6a8 8 0 0 0-.306-.307c-.51-.484-1.065-.679-1.592-.679"/>
        <path d="M11.633 11.11h-.437c0-.65-.633-1.18-1.41-1.18-.778 0-1.41.53-1.41 1.18h-.438c0-.891.83-1.616 1.848-1.616s1.847.725 1.847 1.616m4.44-.018h-.436c0-.65-.633-1.18-1.41-1.18-.779 0-1.411.53-1.411 1.18h-.437c0-.891.829-1.616 1.847-1.616s1.847.725 1.847 1.616"/>
        <path d="M10.288 11.119a.628.628 0 1 0 0-1.257.628.628 0 0 0 0 1.257m4.411 0a.628.628 0 1 0 0-1.257.628.628 0 0 0 0 1.257m-2.683 1.596c-.514 0-.992-.264-1.214-.674l.382-.209c.148.273.474.446.831.446.358 0 .684-.175.832-.446l.382.209c-.22.41-.696.674-1.213.674m7.826 6.054a5.45 5.45 0 0 1-3.506.382 5.36 5.36 0 0 1-2.587-1.4c.453.187.938.283 1.428.28a4.1 4.1 0 0 0 2.363-.753l-.35-.488c-.946.68-2.245.844-3.271.38-1.012-.455-1.583-1.43-1.62-2.753v-.427h-.6v.423c-.035 1.325-.607 2.301-1.62 2.758-1.026.462-2.328.3-3.27-.383l-.35.488a4.1 4.1 0 0 0 2.361.755c.49.002.976-.093 1.428-.28a5.36 5.36 0 0 1-2.586 1.4 5.45 5.45 0 0 1-3.507-.383l-.256.543a6.03 6.03 0 0 0 3.895.425 5.97 5.97 0 0 0 3.379-2.114l.004-.005q.3-.394.523-.835v3.09h.6v-3.086q.224.44.522.832l.004.005a5.97 5.97 0 0 0 3.379 2.114 6.03 6.03 0 0 0 3.895-.425z"/>
    </g>
</svg>
