<svg xmlns="http://www.w3.org/2000/svg" fill="none" viewBox="0 0 24 25">
    <path fill="#000" d="M5.413 6.943c3.638-3.617 9.537-3.617 13.174 0l3.143 3.125-3.143 3.125c-3.637 3.617-9.536 3.617-13.174 0l-3.142-3.125z"/>
    <path fill="#0ce466" fill-rule="evenodd" d="m0 10.073 7.135-7.14h9.73L24 10.073 12 22.068zm17.514-2.6c-3.033-3.045-7.995-3.045-11.028 0l-2.594 2.595 2.594 2.594c3.033 3.045 7.995 3.045 11.027 0l2.595-2.594-2.595-2.595z" clip-rule="evenodd"/>
    <path fill="#000" d="M12 12.338a2.27 2.27 0 1 1 0-4.54 2.27 2.27 0 0 1 0 4.54"/>
    <path fill="#fff" fill-rule="evenodd" d="M8.27 10.068a3.73 3.73 0 1 0 7.46 0 3.73 3.73 0 0 0-7.46 0m2.109 0a1.622 1.622 0 1 0 3.243 0 1.622 1.622 0 0 0-3.243 0" clip-rule="evenodd"/>
</svg>
