<svg fill="none" viewBox="0 0 24 25" xmlns="http://www.w3.org/2000/svg"><path d="m5.413 6.943c3.638-3.617 9.537-3.617 13.174 0l3.143 3.125-3.143 3.125c-3.637 3.617-9.536 3.617-13.174 0l-3.142-3.125z" fill="#000"/><path clip-rule="evenodd" d="m0 10.073 7.135-7.14h9.73l7.135 7.14-12 11.995zm17.514-2.6c-3.033-3.045-7.995-3.045-11.028 0l-2.594 2.595 2.594 2.594c3.033 3.045 7.995 3.045 11.027 0l2.595-2.594-2.595-2.595z" fill="#0ce466" fill-rule="evenodd"/><path d="m12 12.338a2.27 2.27 0 1 1 0-4.54 2.27 2.27 0 0 1 0 4.54z" fill="#000"/><path clip-rule="evenodd" d="m8.27 10.068a3.73 3.73 0 1 0 7.46 0 3.73 3.73 0 0 0 -7.46 0zm2.109 0a1.622 1.622 0 1 0 3.243 0 1.622 1.622 0 0 0 -3.243 0z" fill="#fff" fill-rule="evenodd"/></svg>