<svg xmlns="http://www.w3.org/2000/svg" viewBox="0 0 120 120">
    <path fill="#2f3336" d="M18 36c9.941 0 18-8.059 18-18S27.941 0 18 0 0 8.059 0 18s8.059 18 18 18"/>
    <path fill="#15171a" fill-rule="evenodd" d="M28.864 13.575v5.978H9.86c.83 3.627 4.123 6.336 8.058 6.336a8.27 8.27 0 0 0 7.415-4.543h3.531v5.021c0 1.189-.979 2.152-2.186 2.152H9.186C7.98 28.52 7 27.556 7 26.367V13.575zm-5.628 7.771a6.46 6.46 0 0 1-5.318 2.764 6.46 6.46 0 0 1-5.317-2.764zm-9.98-6.336c-1.714 0-3.131 1.247-3.367 2.87h1.864c.205-.625.8-1.077 1.503-1.077s1.298.452 1.503 1.076h1.863c-.235-1.622-1.653-2.869-3.366-2.869m9.353 0c-1.714 0-3.131 1.247-3.367 2.87h1.864c.205-.625.8-1.077 1.503-1.077s1.298.452 1.503 1.076h1.863c-.235-1.622-1.653-2.869-3.366-2.869M26.678 7c1.207 0 2.186.963 2.186 2.152v2.63H7v-2.63C7 7.963 7.979 7 9.186 7z" clip-rule="evenodd"/>
</svg>
