<svg viewBox="0 0 120 120" xmlns="http://www.w3.org/2000/svg"><path d="m18 36c9.941 0 18-8.059 18-18s-8.059-18-18-18-18 8.059-18 18 8.059 18 18 18z" fill="#2f3336"/><path clip-rule="evenodd" d="m28.864 13.575v5.978h-19.004c.83 3.627 4.123 6.336 8.058 6.336a8.273 8.273 0 0 0 7.415-4.543h3.531v5.021c0 1.189-.979 2.152-2.186 2.152h-17.492c-1.206.001-2.186-.963-2.186-2.152v-12.792zm-5.628 7.771a6.46 6.46 0 0 1 -5.318 2.764 6.46 6.46 0 0 1 -5.317-2.764zm-9.98-6.336c-1.714 0-3.131 1.247-3.367 2.87h1.864c.205-.625.8-1.077 1.503-1.077.702 0 1.298.452 1.503 1.076h1.863c-.235-1.622-1.653-2.869-3.366-2.869zm9.353 0c-1.714 0-3.131 1.247-3.367 2.87h1.864c.205-.625.8-1.077 1.503-1.077.702 0 1.298.452 1.503 1.076h1.863c-.235-1.622-1.653-2.869-3.366-2.869zm4.069-8.01c1.207 0 2.186.963 2.186 2.152v2.63h-21.864v-2.63c0-1.189.979-2.152 2.186-2.152z" fill="#15171a" fill-rule="evenodd"/></svg>