<svg xmlns="http://www.w3.org/2000/svg" viewBox="0 0 2124 660">
    <g fill="none" fill-rule="evenodd">
        <g transform="translate(30 30)">
            <circle cx="300" cy="300" r="300" fill="#1c68f3"/>
            <path fill="#fff" d="M480 230v100H180v.001h-12.907C180.753 390.677 234.97 436 299.773 436c53.574 0 99.913-30.978 122.082-75.998L480 360v84c0 19.882-16.118 36-36 36H156c-19.882 0-36-16.118-36-36V230zm-92.674 130.002c-19.091 27.912-51.183 46.23-87.553 46.23s-68.463-18.318-87.554-46.23zM223 254c-28.212 0-51.551 20.862-55.433 48h30.687c3.374-10.445 13.178-18 24.746-18s21.372 7.555 24.746 18h30.687c-3.882-27.138-27.221-48-55.433-48m154 0c-28.212 0-51.551 20.862-55.433 48h30.687c3.374-10.445 13.178-18 24.746-18s21.372 7.555 24.746 18h30.687c-3.882-27.138-27.221-48-55.433-48m67-134c19.882 0 36 16.118 36 36v44H120v-44c0-19.882 16.118-36 36-36z"/>
        </g>
        <path fill="#1c68f3" fill-rule="nonzero" d="M1638.293 247c54.478 0 116.36 21.209 120.062 89.076h-76.162c-1.587-19.618-19.57-28.632-43.37-28.632-22.215 0-32.264 8.484-32.264 18.558 0 8.483 6.347 16.437 26.445 20.148l48.13 7.953c48.132 9.014 79.866 32.343 79.866 77.942 0 59.384-53.42 86.955-120.062 86.955-67.171 0-121.649-28.101-126.938-96.499l76.163.53c3.702 22.27 22.214 32.343 49.188 32.343 22.743 0 36.495-6.893 36.495-18.027 0-8.483-7.934-15.376-24.859-18.027l-51.833-9.014c-44.428-7.423-75.105-32.343-75.105-77.411 0-54.082 46.015-85.895 114.244-85.895m-321.049 1c27.984 0 51.215 7.415 70.222 19.597v-13.77H1473v256.877h-85.534v-14.3c-19.006 12.18-42.238 19.596-70.222 19.596C1248.078 516 1190 458.269 1190 382c0-76.798 58.078-134 127.244-134m-500.997-98L944.5 342.71 1072.223 150H1139v361h-89.565V329.97l-80.026 123.695v.53H919.59v-.53l-80.556-124.758.53 182.093H750V150zM1893.8 135v215.538l89.507-96.383h102.219l-97.452 104.856L2094 511h-102.748l-61.437-88.969-36.015 38.66V511H1808V135zm-559.66 182.913c-34.847 0-60.19 28.6-60.19 64.087 0 35.486 25.343 63.557 60.19 63.557 19.007 0 37.487-5.296 53.326-23.834v-79.446c-15.84-18.538-34.319-24.364-53.326-24.364"/>
    </g>
</svg>
