<svg xmlns="http://www.w3.org/2000/svg" fill="none" viewBox="0 0 167 48">
    <g fill="#fff" clip-path="url('#MaskSquare_dark_svg__a')">
        <path d="M129.869 17.962c4.399 0 9.396 1.69 9.695 7.1h-6.15c-.129-1.564-1.581-2.283-3.503-2.283-1.793 0-2.605.676-2.605 1.48 0 .675.513 1.31 2.136 1.605l3.886.634c3.887.718 6.449 2.578 6.449 6.212 0 4.733-4.313 6.93-9.695 6.93-5.424 0-9.823-2.24-10.25-7.69l6.15.042c.299 1.774 1.794 2.577 3.972 2.577 1.837 0 2.947-.549 2.947-1.437 0-.676-.641-1.225-2.007-1.436l-4.186-.719c-3.587-.591-6.064-2.577-6.064-6.17 0-4.31 3.715-6.845 9.225-6.845m-25.925.08c2.26 0 4.136.59 5.671 1.561v-1.097h6.906v20.473h-6.906v-1.14c-1.535.971-3.411 1.562-5.671 1.562-5.585 0-10.275-4.601-10.275-10.68 0-6.12 4.69-10.68 10.275-10.68ZM63.489 10.23l10.356 15.36L84.16 10.23h5.392v28.773H82.32V24.574l-6.462 9.86v.041h-4.023v-.042L65.33 24.49l.043 14.513H58.14V10.23zm87.012-1.196v17.179l7.227-7.682h8.255l-7.87 8.357 8.554 12.114h-8.297l-4.961-7.091-2.908 3.081v4.01h-6.929V9.035zm-45.192 14.578c-2.814 0-4.861 2.28-4.861 5.108 0 2.829 2.047 5.066 4.861 5.066 1.534 0 3.027-.422 4.306-1.9v-6.332c-1.279-1.477-2.772-1.942-4.306-1.942"/>
        <path fill-rule="evenodd" d="M24 46.667c12.519 0 22.667-10.148 22.667-22.667C46.667 11.482 36.519 1.333 24 1.333 11.482 1.333 1.333 11.482 1.333 24S11.482 46.667 24 46.667M48 24c0 13.255-10.745 24-24 24S0 37.255 0 24 10.745 0 24 0s24 10.745 24 24" clip-rule="evenodd"/>
        <path fill-rule="evenodd" d="M38.486 18.1v7.97H13.147c1.106 4.836 5.497 8.449 10.744 8.449 4.339 0 8.091-2.47 9.887-6.058h4.708v6.695c0 1.585-1.305 2.87-2.915 2.87H12.249c-1.61 0-2.915-1.285-2.915-2.87V18.1zm-7.505 10.361a8.61 8.61 0 0 1-7.09 3.685 8.61 8.61 0 0 1-7.09-3.685zm-13.307-8.448c-2.284 0-4.174 1.663-4.489 3.826h2.485a2.1 2.1 0 0 1 2.004-1.435c.937 0 1.731.602 2.004 1.435h2.485c-.314-2.163-2.204-3.826-4.489-3.826m12.471 0c-2.284 0-4.174 1.663-4.489 3.826h2.485a2.1 2.1 0 0 1 2.004-1.435c.937 0 1.73.602 2.004 1.435h2.485c-.314-2.163-2.204-3.826-4.489-3.826m5.426-10.68c1.61 0 2.915 1.285 2.915 2.87v3.506H9.334v-3.507c0-1.584 1.305-2.869 2.915-2.869z" clip-rule="evenodd"/>
    </g>
    <defs>
        <clipPath id="MaskSquare_dark_svg__a">
            <path fill="#fff" d="M0 0h166.667v48H0z"/>
        </clipPath>
    </defs>
</svg>
