<svg viewBox="0 0 2124 660" xmlns="http://www.w3.org/2000/svg"><g fill="none" fill-rule="evenodd"><g transform="translate(30 30)"><circle cx="300" cy="300" fill="#1c68f3" r="300"/><path d="m480 230v100h-300v.001h-12.907c13.66 60.676 67.877 105.999 132.68 105.999 53.574 0 99.913-30.978 122.082-75.998l58.145-.002v84c0 19.882-16.118 36-36 36h-288c-19.882 0-36-16.118-36-36v-214zm-92.674 130.002c-19.091 27.912-51.183 46.23-87.553 46.23s-68.463-18.318-87.554-46.23zm-164.326-106.002c-28.212 0-51.551 20.862-55.433 48h30.687c3.374-10.445 13.178-18 24.746-18s21.372 7.555 24.746 18h30.687c-3.882-27.138-27.221-48-55.433-48zm154 0c-28.212 0-51.551 20.862-55.433 48h30.687c3.374-10.445 13.178-18 24.746-18s21.372 7.555 24.746 18h30.687c-3.882-27.138-27.221-48-55.433-48zm67-134c19.882 0 36 16.118 36 36v44h-360v-44c0-19.882 16.118-36 36-36z" fill="#fff"/></g><path d="m1638.293 247c54.478 0 116.36 21.209 120.062 89.076h-76.162c-1.587-19.618-19.57-28.632-43.37-28.632-22.215 0-32.264 8.484-32.264 18.558 0 8.483 6.347 16.437 26.445 20.148l48.13 7.953c48.132 9.014 79.866 32.343 79.866 77.942 0 59.384-53.42 86.955-120.062 86.955-67.171 0-121.649-28.101-126.938-96.499l76.163.53c3.702 22.27 22.214 32.343 49.188 32.343 22.743 0 36.495-6.893 36.495-18.027 0-8.483-7.934-15.376-24.859-18.027l-51.833-9.014c-44.428-7.423-75.105-32.343-75.105-77.411 0-54.082 46.015-85.895 114.244-85.895zm-321.049 1c27.984 0 51.215 7.415 70.222 19.597v-13.77h85.534v256.877h-85.534v-14.3c-19.006 12.18-42.238 19.596-70.222 19.596-69.166 0-127.244-57.731-127.244-134 0-76.798 58.078-134 127.244-134zm-500.997-98 128.253 192.71 127.723-192.71h66.777v361h-89.565v-181.03l-80.026 123.695v.53h-49.819v-.53l-80.556-124.758.53 182.093h-89.564v-361zm1077.553-15v215.538l89.507-96.383h102.219l-97.452 104.856 105.926 151.989h-102.748l-61.437-88.969-36.015 38.66v50.309h-85.8v-376zm-559.66 182.913c-34.847 0-60.19 28.6-60.19 64.087 0 35.486 25.343 63.557 60.19 63.557 19.007 0 37.487-5.296 53.326-23.834v-79.446c-15.84-18.538-34.319-24.364-53.326-24.364z" fill="#1c68f3" fill-rule="nonzero"/></g></svg>