<svg viewBox="0 0 36 36" xmlns="http://www.w3.org/2000/svg"><g fill="none"><path d="m18 36c9.941 0 18-8.059 18-18s-8.059-18-18-18-18 8.059-18 18 8.059 18 18 18z" fill="#2f3336"/><path clip-rule="evenodd" d="m28.5 13.917v5.833h-18.253a7.936 7.936 0 0 0 14.861 1.75h3.392v4.9a2.1 2.1 0 0 1 -2.1 2.1h-16.8a2.1 2.1 0 0 1 -2.1-2.1v-12.483zm-5.406 7.583a6.177 6.177 0 0 1 -5.107 2.697 6.177 6.177 0 0 1 -5.108-2.697zm-9.586-6.183a3.267 3.267 0 0 0 -3.233 2.8h1.79a1.517 1.517 0 0 1 2.887 0h1.79a3.267 3.267 0 0 0 -3.234-2.8zm8.984 0a3.267 3.267 0 0 0 -3.234 2.8h1.79a1.517 1.517 0 0 1 2.887 0h1.79a3.267 3.267 0 0 0 -3.233-2.8zm3.908-7.817c1.16 0 2.1.94 2.1 2.1v2.567h-21v-2.567c0-1.16.94-2.1 2.1-2.1z" fill="#15171a" fill-rule="evenodd"/></g></svg>