<svg xmlns="http://www.w3.org/2000/svg" fill="none" viewBox="0 0 100 29">
    <g fill="#fff">
        <path d="M77.921 10.877c2.64 0 5.638 1.014 5.817 4.26h-3.69c-.077-.938-.948-1.37-2.101-1.37-1.076 0-1.563.406-1.563.888 0 .406.307.786 1.28.963l2.333.38c2.332.432 3.87 1.548 3.87 3.728 0 2.84-2.589 4.158-5.818 4.158-3.254 0-5.894-1.343-6.15-4.614l3.69.025c.18 1.065 1.077 1.547 2.383 1.547 1.102 0 1.769-.33 1.769-.862 0-.406-.385-.736-1.205-.863l-2.511-.43c-2.153-.356-3.639-1.547-3.639-3.702 0-2.587 2.23-4.108 5.535-4.108m-15.555.048c1.356 0 2.482.354 3.403.937v-.659h4.144v12.285h-4.144v-.684c-.921.582-2.047.937-3.403.937-3.35 0-6.164-2.76-6.164-6.408 0-3.673 2.813-6.408 6.165-6.408ZM38.094 6.238l6.214 9.216 6.188-9.216h3.236v17.264h-4.34v-8.657l-3.877 5.915v.025H43.1v-.025l-3.903-5.966.026 8.708h-4.34V6.238zM90.3 5.521v10.307l4.337-4.609h4.952l-4.721 5.014L100 23.502h-4.978l-2.977-4.255-1.745 1.849v2.406h-4.157V5.522H90.3Zm-27.115 8.747c-1.688 0-2.916 1.368-2.916 3.065s1.228 3.04 2.916 3.04c.921 0 1.816-.254 2.584-1.14v-3.8c-.768-.886-1.663-1.165-2.584-1.165"/>
        <path fill-rule="evenodd" d="M14.4 28.1c7.511 0 13.6-6.089 13.6-13.6S21.911.9 14.4.9.8 6.989.8 14.5s6.089 13.6 13.6 13.6m14.4-13.6c0 7.953-6.447 14.4-14.4 14.4S0 22.453 0 14.5 6.447.1 14.4.1s14.4 6.447 14.4 14.4" clip-rule="evenodd"/>
        <path fill-rule="evenodd" d="M23.091 10.96v4.782H7.888c.664 2.902 3.298 5.07 6.447 5.07a6.62 6.62 0 0 0 5.931-3.635h2.826v4.017c0 .95-.784 1.722-1.75 1.722H7.35c-.966 0-1.749-.771-1.749-1.722V10.96h17.492Zm-4.502 6.217a5.17 5.17 0 0 1-4.254 2.21 5.17 5.17 0 0 1-4.254-2.21zm-7.984-5.069c-1.371 0-2.505.998-2.694 2.295h1.491c.164-.5.64-.86 1.203-.86.562 0 1.038.36 1.202.86h1.49c-.188-1.297-1.322-2.295-2.693-2.295Zm7.482 0c-1.37 0-2.505.998-2.693 2.295h1.49c.165-.5.64-.86 1.203-.86.562 0 1.038.36 1.202.86h1.491c-.188-1.297-1.322-2.295-2.693-2.295M21.342 5.7c.966 0 1.75.77 1.75 1.722v2.104H5.6V7.422c0-.951.783-1.722 1.75-1.722z" clip-rule="evenodd"/>
    </g>
</svg>
