<svg xmlns="http://www.w3.org/2000/svg" viewBox="0 0 36 36">
    <g fill="none">
        <path fill="#38444d" d="M18 36c9.941 0 18-8.059 18-18S27.941 0 18 0 0 8.059 0 18s8.059 18 18 18"/>
        <path fill="#18232e" fill-rule="evenodd" d="M28.5 13.917v5.833H10.247a7.936 7.936 0 0 0 14.861 1.75H28.5v4.9a2.1 2.1 0 0 1-2.1 2.1H9.6a2.1 2.1 0 0 1-2.1-2.1V13.917zM23.094 21.5a6.18 6.18 0 0 1-5.107 2.697 6.18 6.18 0 0 1-5.108-2.697zm-9.586-6.183a3.27 3.27 0 0 0-3.233 2.8h1.79a1.517 1.517 0 0 1 2.887 0h1.79a3.27 3.27 0 0 0-3.234-2.8m8.984 0a3.27 3.27 0 0 0-3.234 2.8h1.79a1.517 1.517 0 0 1 2.887 0h1.79a3.27 3.27 0 0 0-3.233-2.8M26.4 7.5c1.16 0 2.1.94 2.1 2.1v2.567h-21V9.6c0-1.16.94-2.1 2.1-2.1z" clip-rule="evenodd"/>
    </g>
</svg>
