<svg xmlns="http://www.w3.org/2000/svg" viewBox="0 0 120 120">
    <path fill="#8796af" d="M60 120A60 60 0 1 0 60 0a60 60 0 0 0 0 120"/>
    <path fill="#fff" fill-rule="evenodd" d="M96 46v20H33.42a27.21 27.21 0 0 0 50.95 6H96v16.8a7.2 7.2 0 0 1-7.2 7.2H31.2a7.2 7.2 0 0 1-7.2-7.2V46zM77.47 72a21.18 21.18 0 0 1-35.03 0zM44.6 50.8a11.2 11.2 0 0 0-11.09 9.6h6.14a5.2 5.2 0 0 1 9.9 0h6.14a11.2 11.2 0 0 0-11.09-9.6m30.8 0a11.2 11.2 0 0 0-11.09 9.6h6.14a5.2 5.2 0 0 1 9.9 0h6.14a11.2 11.2 0 0 0-11.09-9.6M88.8 24a7.2 7.2 0 0 1 7.2 7.2V40H24v-8.8a7.2 7.2 0 0 1 7.2-7.2z" clip-rule="evenodd"/>
</svg>
