<svg xmlns="http://www.w3.org/2000/svg" viewBox="0 0 250 72">
    <g fill="#fff" clip-path="url('#MaskBanner_svg__a')">
        <path d="M194.803 26.943c6.598 0 14.094 2.535 14.542 10.649h-9.225c-.192-2.345-2.37-3.423-5.253-3.423-2.691 0-3.908 1.014-3.908 2.219 0 1.014.769 1.965 3.203 2.408l5.83.951c5.83 1.078 9.673 3.867 9.673 9.318 0 7.1-6.47 10.396-14.542 10.396-8.136 0-14.735-3.36-15.375-11.537l9.225.064c.448 2.662 2.691 3.866 5.958 3.866 2.755 0 4.42-.824 4.42-2.155 0-1.014-.961-1.838-3.011-2.155l-6.278-1.078c-5.381-.887-9.097-3.866-9.097-9.254 0-6.466 5.573-10.27 13.838-10.27Zm-38.887.12c3.389 0 6.203.886 8.505 2.342V27.76h10.361v30.71h-10.361v-1.71c-2.302 1.457-5.116 2.343-8.505 2.343-8.378 0-15.412-6.902-15.412-16.02 0-9.181 7.034-16.02 15.412-16.02M95.233 15.345l15.535 23.04 15.47-23.04h8.088v43.158h-10.848V36.862l-9.693 14.788v.063h-6.034v-.063l-9.758-14.915.065 21.77H87.209v-43.16zm130.518-1.793V39.32l10.841-11.523h12.381l-11.804 12.536L250 58.504h-12.446l-7.441-10.636-4.362 4.622v6.014h-10.393V13.553h10.393ZM157.962 35.42c-4.22 0-7.29 3.42-7.29 7.662 0 4.243 3.07 7.599 7.29 7.599 2.303 0 4.541-.634 6.459-2.85v-9.498c-1.918-2.216-4.156-2.913-6.459-2.913"/>
        <path fill-rule="evenodd" d="M36 70c18.778 0 34-15.222 34-34S54.778 2 36 2 2 17.222 2 36s15.222 34 34 34m36-34c0 19.882-16.118 36-36 36S0 55.882 0 36 16.118 0 36 0s36 16.118 36 36" clip-rule="evenodd"/>
        <path fill-rule="evenodd" d="M57.729 27.15v11.956H19.72c1.66 7.254 8.245 12.672 16.117 12.672 6.507 0 12.136-3.703 14.829-9.085h7.063v10.042c0 2.377-1.958 4.304-4.373 4.304H18.373c-2.415 0-4.373-1.927-4.373-4.304V27.15zM46.472 42.694a12.92 12.92 0 0 1-10.635 5.526 12.92 12.92 0 0 1-10.635-5.526zM26.512 30.02c-3.428 0-6.263 2.494-6.734 5.738h3.727a3.155 3.155 0 0 1 3.006-2.152c1.405 0 2.596.904 3.006 2.152h3.728c-.472-3.244-3.307-5.738-6.734-5.738Zm18.706 0c-3.427 0-6.262 2.494-6.734 5.738h3.728a3.155 3.155 0 0 1 3.005-2.152c1.406 0 2.597.904 3.006 2.152h3.728c-.472-3.244-3.307-5.738-6.733-5.738M53.355 14c2.415 0 4.373 1.927 4.373 4.304v5.26H14v-5.26C14 15.927 15.958 14 18.373 14z" clip-rule="evenodd"/>
    </g>
    <defs>
        <clipPath id="MaskBanner_svg__a">
            <path fill="#fff" d="M0 0h250v72H0z"/>
        </clipPath>
    </defs>
</svg>
