<svg xmlns="http://www.w3.org/2000/svg" viewBox="0 0 24 24">
    <g clip-path="url('#Medium_svg__a')">
        <path fill="#12100E" d="M2 0h20c1.333 0 2 .667 2 2v20c0 1.333-.667 2-2 2H2c-1.333 0-2-.667-2-2V2C0 .667.667 0 2 0Z"/>
        <path fill="#fff" d="M5.897 7.652a.642.642 0 0 0-.201-.535L4.202 5.275V5H8.84l3.586 8.048L15.578 5H20v.275L18.723 6.53a.387.387 0 0 0-.142.366v9.21c-.023.14.032.28.142.366l1.247 1.254V18h-6.274v-.275l1.292-1.284c.127-.13.127-.168.127-.367V8.63l-3.593 9.34h-.486L6.853 8.63v6.26a.876.876 0 0 0 .232.718l1.68 2.086v.275H4v-.275l1.68-2.086c.18-.19.26-.457.217-.719V7.652Z"/>
    </g>
    <defs>
        <clipPath id="Medium_svg__a">
            <path fill="#fff" d="M0 0h24v24H0z"/>
        </clipPath>
    </defs>
</svg>
