<svg xmlns="http://www.w3.org/2000/svg" viewBox="0 0 24 24">
    <g clip-path="url('#Medium_svg__a')">
        <path fill="#12100E" d="M2 0h20q2 0 2 2v20q0 2-2 2H2q-2 0-2-2V2q0-2 2-2"/>
        <path fill="#fff" d="M5.897 7.652a.64.64 0 0 0-.201-.535L4.202 5.275V5H8.84l3.586 8.048L15.578 5H20v.275L18.723 6.53a.39.39 0 0 0-.142.366v9.21c-.023.14.032.28.142.366l1.247 1.254V18h-6.274v-.275l1.292-1.284c.127-.13.127-.168.127-.367V8.63l-3.593 9.34h-.486L6.853 8.63v6.26a.88.88 0 0 0 .232.718l1.68 2.086v.275H4v-.275l1.68-2.086c.18-.19.26-.457.217-.719z"/>
    </g>
    <defs>
        <clipPath id="Medium_svg__a">
            <path fill="#fff" d="M0 0h24v24H0z"/>
        </clipPath>
    </defs>
</svg>
