<svg viewBox="0 0 48 48" xmlns="http://www.w3.org/2000/svg"><path d="m0 12c0-6.627 5.373-12 12-12h24c6.627 0 12 5.373 12 12v24c0 6.627-5.373 12-12 12h-24c-6.627 0-12-5.373-12-12z" fill="#fff"/><g stroke-linecap="round" stroke-linejoin="round"><path d="m38.709 10-11.8 8.75 2.195-5.157z" fill="#e17726" stroke="#e17726"/><path d="m11.493 10 11.694 8.832-2.09-5.239-9.603-3.593zm22.971 20.288-3.14 4.807 6.722 1.855 1.926-6.557zm-24.217.105 1.914 6.557 6.71-1.855-3.127-4.807z" fill="#e27625" stroke="#e27625"/><path d="m18.509 22.168-1.867 2.824 6.652.303-.222-7.175zm13.187 0-4.633-4.13-.152 7.257 6.652-.303zm-12.824 12.927 4.027-1.948-3.466-2.707-.56 4.655zm8.438-1.948 4.014 1.948-.549-4.655-3.466 2.707z" fill="#e27625" stroke="#e27625"/><path d="m31.322 35.095-4.015-1.948.327 2.613-.035 1.108zm-12.452 0 3.735 1.773-.023-1.108.315-2.613-4.026 1.948z" fill="#d5bfb2" stroke="#d5bfb2"/><path d="m22.674 28.713-3.338-.98 2.358-1.085zm4.854 0 .98-2.065 2.37 1.085z" fill="#233447" stroke="#233447"/><path d="m18.87 35.095.583-4.806-3.71.104zm11.88-4.807.571 4.807 3.14-4.701-3.712-.105zm2.816-5.296-6.652.303.618 3.418.98-2.065 2.37 1.085zm-14.23 2.741 2.357-1.085.98 2.065.619-3.418-6.652-.303z" fill="#cc6228" stroke="#cc6228"/><path d="m16.64 24.992 2.79 5.448-.094-2.707zm14.234 2.741-.105 2.707 2.79-5.448zm-7.584-2.438-.618 3.418.781 4.037.176-5.32zm3.622 0-.327 2.123.163 5.332.782-4.037-.619-3.418z" fill="#e27525" stroke="#e27525"/><path d="m27.528 28.713-.782 4.037.56.397 3.466-2.707.105-2.707-3.35.98zm-8.192-.98.094 2.707 3.466 2.707.56-.397-.782-4.037z" fill="#f5841f" stroke="#f5841f"/><path d="m27.6 36.868.035-1.108-.303-.257h-4.458l-.292.257.023 1.108-3.734-1.773 1.307 1.073 2.649 1.832h4.54l2.66-1.832 1.296-1.073z" fill="#c0ac9d" stroke="#c0ac9d"/><path d="m27.308 33.147-.56-.397h-3.29l-.561.397-.315 2.613.292-.257h4.458l.303.257z" fill="#161616" stroke="#161616"/><path d="m39.211 19.322.992-4.83-1.493-4.492-11.402 8.458 4.388 3.71 6.197 1.809 1.365-1.599-.595-.431.945-.864-.723-.56.945-.723zm-29.211-4.83 1.004 4.83-.642.478.957.723-.724.56.945.864-.595.431 1.366 1.599 6.197-1.809 4.388-3.71-11.402-8.458z" fill="#763e1a" stroke="#763e1a"/><path d="m37.896 23.977-6.196-1.809 1.867 2.824-2.789 5.448 3.688-.047h5.508l-2.077-6.416zm-19.386-1.809-6.198 1.809-2.065 6.416h5.496l3.688.047-2.789-5.448 1.867-2.824zm8.403 3.127.397-6.837 1.797-4.865h-8.006l1.798 4.865.396 6.837.152 2.147.012 5.308h3.29l.013-5.308z" fill="#f5841f" stroke="#f5841f"/></g></svg>