<svg xmlns="http://www.w3.org/2000/svg" viewBox="0 0 48 48">
    <path fill="#fff" d="M0 12C0 5.373 5.373 0 12 0h24c6.627 0 12 5.373 12 12v24c0 6.627-5.373 12-12 12H12C5.373 48 0 42.627 0 36V12z"/>
    <path fill="#E17726" stroke="#E17726" stroke-linecap="round" stroke-linejoin="round" d="m38.709 10-11.8 8.75 2.195-5.157L38.709 10z"/>
    <path fill="#E27625" stroke="#E27625" stroke-linecap="round" stroke-linejoin="round" d="m11.493 10 11.694 8.832-2.09-5.239L11.494 10zm22.971 20.288-3.14 4.807 6.722 1.855 1.926-6.557-5.508-.105zm-24.217.105 1.914 6.557 6.71-1.855-3.127-4.807-5.497.105z"/>
    <path fill="#E27625" stroke="#E27625" stroke-linecap="round" stroke-linejoin="round" d="m18.509 22.168-1.867 2.824 6.652.303-.222-7.175-4.563 4.048zm13.187 0-4.633-4.13-.152 7.257 6.652-.303-1.867-2.824zM18.872 35.095l4.027-1.948-3.466-2.707-.56 4.655zm8.438-1.948 4.014 1.948-.549-4.655-3.466 2.707z"/>
    <path fill="#D5BFB2" stroke="#D5BFB2" stroke-linecap="round" stroke-linejoin="round" d="m31.322 35.095-4.015-1.948.327 2.613-.035 1.108 3.723-1.773zm-12.452 0 3.735 1.773-.023-1.108.315-2.613-4.026 1.948z"/>
    <path fill="#233447" stroke="#233447" stroke-linecap="round" stroke-linejoin="round" d="m22.674 28.713-3.338-.98 2.358-1.085.98 2.065zm4.854 0 .98-2.065 2.37 1.085-3.35.98z"/>
    <path fill="#CC6228" stroke="#CC6228" stroke-linecap="round" stroke-linejoin="round" d="m18.87 35.095.583-4.806-3.71.104 3.127 4.702zm11.88-4.807.571 4.807 3.14-4.701-3.712-.105zm2.816-5.296-6.652.303.618 3.418.98-2.065 2.37 1.085 2.684-2.741zm-14.23 2.741 2.357-1.085.98 2.065.619-3.418-6.652-.303 2.696 2.741z"/>
    <path fill="#E27525" stroke="#E27525" stroke-linecap="round" stroke-linejoin="round" d="m16.64 24.992 2.79 5.448-.094-2.707-2.696-2.741zm14.234 2.741-.105 2.707 2.79-5.448-2.685 2.741zm-7.584-2.438-.618 3.418.781 4.037.176-5.32-.339-2.135zm3.622 0-.327 2.123.163 5.332.782-4.037-.619-3.418z"/>
    <path fill="#F5841F" stroke="#F5841F" stroke-linecap="round" stroke-linejoin="round" d="m27.528 28.713-.782 4.037.56.397 3.466-2.707.105-2.707-3.35.98zm-8.192-.98.094 2.707 3.466 2.707.56-.397-.782-4.037-3.338-.98z"/>
    <path fill="#C0AC9D" stroke="#C0AC9D" stroke-linecap="round" stroke-linejoin="round" d="m27.6 36.868.035-1.108-.303-.257h-4.458l-.292.257.023 1.108-3.734-1.773 1.307 1.073L22.827 38h4.54l2.66-1.832 1.296-1.073-3.723 1.773z"/>
    <path fill="#161616" stroke="#161616" stroke-linecap="round" stroke-linejoin="round" d="m27.308 33.147-.56-.397h-3.29l-.561.397-.315 2.613.292-.257h4.458l.303.257-.327-2.613z"/>
    <path fill="#763E1A" stroke="#763E1A" stroke-linecap="round" stroke-linejoin="round" d="m39.211 19.322.992-4.83L38.71 10l-11.402 8.458 4.388 3.71 6.197 1.809 1.365-1.599-.595-.431.945-.864-.723-.56.945-.723-.619-.478zM10 14.492l1.004 4.83-.642.478.957.723-.724.56.945.864-.595.431 1.366 1.599 6.197-1.809 4.388-3.71L11.494 10 10 14.492z"/>
    <path fill="#F5841F" stroke="#F5841F" stroke-linecap="round" stroke-linejoin="round" d="M37.896 23.977 31.7 22.168l1.867 2.824-2.789 5.448 3.688-.047h5.508l-2.077-6.416zM18.51 22.168l-6.198 1.809-2.065 6.416h5.496l3.688.047-2.789-5.448 1.867-2.824zm8.403 3.127.397-6.837 1.797-4.865h-8.006l1.798 4.865.396 6.837.152 2.147.012 5.308h3.29l.013-5.308.151-2.147z"/>
</svg>
