<svg xmlns="http://www.w3.org/2000/svg" fill="none" viewBox="0 0 60 59">
    <g fill-rule="evenodd" clip-rule="evenodd" filter="url('#MetaMaskWallet_svg__a')">
        <path fill="#CDBDB2" d="m22.3 37.49 4.717 1.252v-1.638l.386-.385h2.695v3.276H27.21l-3.562-1.542-1.347-.964Z"/>
        <path fill="#CDBDB2" d="m37.701 37.49-4.62 1.252v-1.638l-.385-.385H30v3.276h2.887l3.562-1.542 1.251-.964Z"/>
        <path fill="#393939" d="m27.403 33.923-.385 3.18.48-.386h5.006l.578.386-.385-3.18-.77-.482-3.85.097-.674.385Z"/>
        <path fill="#F89C35" d="m24.803 12.438 2.31 5.395 1.059 15.705h3.754l1.155-15.705 2.118-5.395H24.803Z"/>
        <path fill="#F89D35" d="M14.695 24.289 12 32.093l6.738-.385h4.332v-3.372l-.193-6.938-.962.771-7.22 2.12Z"/>
        <path fill="#D87C30" d="m19.797 25.156 7.893.193-.866 4.047-3.754-.964-3.273-3.276Z"/>
        <path fill="#EA8D3A" d="m19.797 25.254 3.273 3.083v3.083l-3.273-6.166Z"/>
        <path fill="#F89D35" d="m23.068 28.434 3.85.963 1.252 4.143-.866.482-4.236-2.505v-3.083Z"/>
        <path fill="#EB8F35" d="m23.07 31.516-.77 5.973 5.102-3.565-4.331-2.408Z"/>
        <path fill="#EA8E3A" d="m27.691 25.348.481 8.19-1.444-4.192.963-3.998Z"/>
        <path fill="#D87C30" d="m18.643 31.612 4.427-.096-.77 5.973-3.657-5.877Z"/>
        <path fill="#EB8F35" d="m14.118 40.088 8.182-2.601-3.658-5.878-6.642.482 2.118 7.997Z"/>
        <path fill="#E8821E" d="m27.113 17.836-4.14 3.469-3.176 3.854 7.893.289-.577-7.612Z"/>
        <path fill="#DFCEC3" d="m22.3 37.49 5.102-3.564-.385 3.083v1.734l-3.465-.674-1.251-.578Zm15.401 0-5.005-3.564.385 3.083v1.734l3.465-.674 1.155-.578Z"/>
        <path fill="#393939" d="m25.572 27.082 1.059 2.216-3.754-.963 2.695-1.253Z"/>
        <path fill="#E88F35" d="m14.021 7.91 13.092 9.924-2.214-5.395L14.02 7.91Z"/>
        <path fill="#8E5A30" d="m14.02 7.91-1.733 5.3.963 5.78-.674.386.963.867-.77.674 1.058.964-.674.578 1.54 1.927 7.22-2.216c3.53-2.826 5.262-4.272 5.198-4.336-.064-.064-4.428-3.372-13.091-9.924Z"/>
        <path fill="#F89D35" d="M45.305 24.289 48 32.093l-6.738-.385H36.93v-3.372l.193-6.938.962.771 7.22 2.12Z"/>
        <path fill="#D87C30" d="m40.203 25.156-7.893.193.866 4.047 3.754-.964 3.273-3.276Z"/>
        <path fill="#EA8D3A" d="m40.203 25.254-3.273 3.083v3.083l3.273-6.166Z"/>
        <path fill="#F89D35" d="m36.932 28.434-3.85.963-1.252 4.143.866.482 4.236-2.505v-3.083Z"/>
        <path fill="#EB8F35" d="m36.93 31.516.77 5.973-5.006-3.468 4.235-2.505Z"/>
        <path fill="#EA8E3A" d="m32.309 25.348-.481 8.19 1.444-4.192-.963-3.998Z"/>
        <path fill="#D87C30" d="m41.357 31.612-4.428-.096.77 5.973 3.658-5.877Z"/>
        <path fill="#EB8F35" d="M45.882 40.092 37.7 37.491l3.658-5.878 6.642.482-2.118 7.997Z"/>
        <path fill="#E8821E" d="m32.888 17.836 4.139 3.469 3.176 3.854-7.893.289.578-7.612Z"/>
        <path fill="#393939" d="m34.428 27.082-1.059 2.216 3.754-.963-2.695-1.253Z"/>
        <path fill="#E88F35" d="m45.978 7.91-13.09 9.924L35.1 12.44l10.878-4.53Z"/>
        <path fill="#8E5A30" d="m45.978 7.91 1.733 5.3-.963 5.78.674.386-.962.867.77.674-1.06.964.675.578-1.54 1.927-7.22-2.216c-3.53-2.826-5.262-4.272-5.198-4.336.064-.064 4.428-3.372 13.091-9.924Z"/>
    </g>
    <defs>
        <filter id="MetaMaskWallet_svg__a" width="72" height="72" x="-6" y="-6" color-interpolation-filters="sRGB" filterUnits="userSpaceOnUse">
            <feFlood flood-opacity="0" result="BackgroundImageFix"/>
            <feColorMatrix in="SourceAlpha" result="hardAlpha" values="0 0 0 0 0 0 0 0 0 0 0 0 0 0 0 0 0 0 127 0"/>
            <feOffset dy="6"/>
            <feGaussianBlur stdDeviation="6"/>
            <feComposite in2="hardAlpha" operator="out"/>
            <feColorMatrix values="0 0 0 0 0.847059 0 0 0 0 0.486275 0 0 0 0 0.188235 0 0 0 0.2 0"/>
            <feBlend in2="BackgroundImageFix" result="effect1_dropShadow_3826_26585"/>
            <feBlend in="SourceGraphic" in2="effect1_dropShadow_3826_26585" result="shape"/>
        </filter>
    </defs>
</svg>
