<svg xmlns="http://www.w3.org/2000/svg" viewBox="0 0 24 24">
    <g clip-path="url('#Minds_svg__a')">
        <path fill="#21252A" d="M6.086 23.915a8.083 8.083 0 0 1-2.718-.503 4.549 4.549 0 0 1-1.684-1.095 4.512 4.512 0 0 1-1.096-1.683 8.08 8.08 0 0 1-.502-2.718C.014 16.373 0 15.91 0 12c0-3.91.016-4.371.085-5.915a8.126 8.126 0 0 1 .503-2.717 4.565 4.565 0 0 1 1.095-1.685A4.52 4.52 0 0 1 3.367.588 8.08 8.08 0 0 1 6.085.085C7.63.015 8.092 0 12 0s4.371.016 5.915.085a8.126 8.126 0 0 1 2.718.503 4.531 4.531 0 0 1 1.684 1.095c.486.472.86 1.048 1.095 1.684.323.87.493 1.79.503 2.718.07 1.544.085 2.007.085 5.916 0 3.908-.014 4.37-.085 5.915a8.118 8.118 0 0 1-.503 2.718 4.848 4.848 0 0 1-2.779 2.778 8.06 8.06 0 0 1-2.718.503c-1.543.07-2.007.085-5.915.085-3.91 0-4.372-.013-5.914-.085"/>
        <path fill="#656565" d="m10.791 18.755-.094 1.338.094-1.338Zm-1.151.877 1.16-.969 1.161 1.892-2.32-.923Z"/>
        <path fill="#787778" d="M9.64 16.772v2.86l1.16-.969-1.16-1.891Z"/>
        <path fill="#5C5C5C" d="m13.121 18.663-1.16 1.892 2.32-.923-1.16-.969Z"/>
        <path fill="#787778" d="m14.281 19.632-1.16-.969 1.16-1.891v2.86Z"/>
        <path fill="#4A4A4A" d="M9.64 16.772h4.641l-2.32 3.783-2.32-3.783Z"/>
        <path fill="#FED12F" d="m10.104 8.052 4.919 2.03-3.527 2.814-1.393-4.844Zm3.712-3.414 2.785 2.86-1.578 2.584-1.207-5.444ZM9.64 16.772l5.106-1.477-.465 1.477h-4.64Z"/>
        <path fill="#FED12F" d="m9.176 15.295 2.32-2.399-1.856 3.876-.464-1.477ZM7.32 7.499l2.785-2.86v3.413L7.32 7.5Z"/>
        <path fill="#FFF3CB" d="m11.498 12.896 3.249 2.4.278-5.214-3.527 2.814Zm-.002 0-4.455-.784 2.135 3.183 2.32-2.399Z"/>
        <path fill="#FFDD63" d="m10.104 8.052 3.712-3.413 1.207 5.443-4.92-2.03Z"/>
        <path fill="#FFEDAC" d="m7.041 12.112 3.063-4.06 1.392 4.844-4.455-.784Z"/>
        <path fill="#FFDD63" d="m9.64 16.772 1.856-3.875 3.248 2.399-5.105 1.476Zm5.104-1.477.278-5.213 1.857 2.03-2.135 3.183Zm-7.702-3.183L7.32 7.5l2.785.553-3.063 4.06Z"/>
        <path fill="#FEE382" d="M15.025 10.082 16.603 7.5l.278 4.613-1.856-2.03Z"/>
        <path fill="#FEF1C0" d="m13.818 4.639-3.713 3.414V4.639h3.713Z"/>
    </g>
    <defs>
        <clipPath id="Minds_svg__a">
            <path fill="#fff" d="M0 0h24v24H0z"/>
        </clipPath>
    </defs>
</svg>
