<svg xmlns="http://www.w3.org/2000/svg" fill="none" viewBox="0 0 25 25">
    <g clip-path="url(#MindsRound_svg__a)">
        <path fill="#21252A" d="M6.586 23.932a8.083 8.083 0 0 1-2.718-.504 4.549 4.549 0 0 1-1.684-1.095 4.512 4.512 0 0 1-1.096-1.682 8.08 8.08 0 0 1-.502-2.719C.514 16.39.5 15.927.5 12.017S.516 7.646.585 6.1a8.126 8.126 0 0 1 .503-2.717A4.565 4.565 0 0 1 2.183 1.7 4.519 4.519 0 0 1 3.867.605 8.08 8.08 0 0 1 6.585.102C8.13.03 8.592.017 12.5.017s4.371.015 5.915.085a8.126 8.126 0 0 1 2.718.503A4.531 4.531 0 0 1 22.817 1.7c.486.472.86 1.047 1.095 1.683.323.87.493 1.79.503 2.719.07 1.544.085 2.006.085 5.915 0 3.909-.014 4.371-.085 5.915a8.118 8.118 0 0 1-.503 2.719 4.848 4.848 0 0 1-2.779 2.777c-.87.323-1.79.494-2.718.504-1.543.07-2.007.085-5.915.085-3.91 0-4.372-.014-5.914-.085"/>
        <path fill="#656565" d="m11.292 18.773-.094 1.337.094-1.337Zm-1.15.875 1.16-.97 1.16 1.892-2.32-.922Z"/>
        <path fill="#787778" d="M10.142 16.788v2.86l1.16-.968-1.16-1.892Z"/>
        <path fill="#5C5C5C" d="m13.623 18.679-1.16 1.891 2.32-.922-1.16-.97Z"/>
        <path fill="#787778" d="m14.783 19.648-1.16-.968 1.16-1.892v2.86Z"/>
        <path fill="#4A4A4A" d="M10.142 16.788h4.64l-2.32 3.783-2.32-3.783Z"/>
        <path fill="#FED12F" d="m10.605 8.07 4.92 2.03-3.527 2.813-1.393-4.844Zm3.712-3.415 2.785 2.86-1.578 2.584-1.207-5.444Zm-4.175 12.133 5.105-1.476-.464 1.476h-4.641Z"/>
        <path fill="#FED12F" d="m9.678 15.312 2.32-2.399-1.856 3.875-.464-1.476ZM7.82 7.516l2.785-2.86v3.413L7.82 7.516Z"/>
        <path fill="#FFF3CB" d="m11.998 12.913 3.249 2.399.278-5.213-3.527 2.814Zm-.001.001-4.455-.785 2.135 3.184 2.32-2.4Z"/>
        <path fill="#FFDD63" d="m10.605 8.07 3.713-3.415 1.207 5.444-4.92-2.03Z"/>
        <path fill="#FFEDAC" d="m7.542 12.128 3.063-4.06 1.392 4.844-4.455-.784Z"/>
        <path fill="#FFDD63" d="m10.141 16.788 1.857-3.876 3.248 2.4-5.105 1.476Zm5.105-1.476.278-5.213 1.857 2.03-2.135 3.183Zm-7.703-3.184.278-4.614 2.785.554-3.063 4.06Z"/>
        <path fill="#FEE382" d="m15.525 10.098 1.578-2.583.278 4.613-1.856-2.03Z"/>
        <path fill="#FEF1C0" d="m14.319 4.654-3.713 3.414V4.654h3.713Z"/>
    </g>
    <defs>
        <clipPath id="MindsRound_svg__a">
            <rect width="24" height="24" x=".5" y=".017" fill="#fff" rx="12"/>
        </clipPath>
    </defs>
</svg>
