<svg xmlns="http://www.w3.org/2000/svg" fill="none" viewBox="0 0 24 24">
    <g clip-path="url('#MindsRound_svg__a')">
        <path fill="#21252A" d="M23.641 14.905c-1.603 6.429-8.115 10.342-14.545 8.738C2.67 22.041-1.244 15.528.36 9.1 1.962 2.67 8.473-1.244 14.902.36c6.43 1.603 10.342 8.116 8.739 14.546Z"/>
        <path fill="#656565" d="m10.792 18.756-.094 1.338.094-1.338Zm-1.15.874 1.16-.968 1.16 1.892-2.32-.923Z"/>
        <path fill="#787778" d="M9.642 16.771v2.86l1.16-.968-1.16-1.892Z"/>
        <path fill="#5C5C5C" d="m13.123 18.662-1.16 1.892 2.32-.923-1.16-.969Z"/>
        <path fill="#787778" d="m14.283 19.632-1.16-.969 1.16-1.892v2.86Z"/>
        <path fill="#4A4A4A" d="M9.642 16.771h4.64l-2.32 3.783-2.32-3.782Z"/>
        <path fill="#FED12F" d="m10.105 8.053 4.92 2.03-3.527 2.814-1.393-4.844Zm3.712-3.414 2.785 2.86-1.578 2.583-1.207-5.443ZM9.642 16.771l5.105-1.476-.464 1.476H9.642Z"/>
        <path fill="#FED12F" d="m9.178 15.295 2.32-2.399-1.856 3.876-.464-1.477ZM7.32 7.499l2.785-2.86v3.414L7.32 7.499Z"/>
        <path fill="#FFF3CB" d="m11.498 12.896 3.249 2.4.278-5.214-3.527 2.814Zm-.001.001-4.455-.784 2.135 3.183 2.32-2.4Z"/>
        <path fill="#FFDD63" d="m10.105 8.053 3.713-3.414 1.207 5.444-4.92-2.03Z"/>
        <path fill="#FFEDAC" d="m7.042 12.111 3.063-4.06 1.392 4.845-4.455-.785Z"/>
        <path fill="#FFDD63" d="m9.641 16.771 1.857-3.875 3.248 2.399-5.105 1.476Zm5.105-1.476.278-5.213 1.857 2.03-2.135 3.183Zm-7.703-3.184.278-4.613 2.785.554-3.063 4.06Z"/>
        <path fill="#FEE382" d="m15.025 10.082 1.578-2.584.278 4.613-1.856-2.03Z"/>
        <path fill="#FEF1C0" d="m13.819 4.638-3.713 3.414V4.638h3.713Z"/>
    </g>
    <defs>
        <clipPath id="MindsRound_svg__a">
            <rect width="24" height="24" fill="#fff" rx="12"/>
        </clipPath>
    </defs>
</svg>
