<svg xmlns="http://www.w3.org/2000/svg" viewBox="0 0 48 48">
    <g fill="#fff" fill-rule="evenodd" clip-path="url('#MiniMask_light_svg__a')" clip-rule="evenodd">
        <path d="M24 47.186c12.474 0 22.587-10.148 22.587-22.666C46.587 12 36.474 1.852 24 1.852S1.414 12 1.414 24.519 11.526 47.186 24 47.186M47.915 24.52c0 13.254-10.707 24-23.915 24S.085 37.774.085 24.52c0-13.255 10.707-24 23.915-24s23.915 10.745 23.915 24"/>
        <path d="M38.435 18.62v7.97h-25.25c1.103 4.836 5.478 8.448 10.707 8.448 4.323 0 8.062-2.469 9.85-6.057h4.693v6.695c0 1.584-1.3 2.869-2.905 2.869H12.29c-1.604 0-2.905-1.285-2.905-2.87V18.62zm-7.478 10.36a8.57 8.57 0 0 1-7.065 3.686 8.57 8.57 0 0 1-7.065-3.685zm-13.26-8.448c-2.277 0-4.16 1.663-4.473 3.826H15.7a2.1 2.1 0 0 1 1.997-1.434c.933 0 1.724.602 1.997 1.434h2.476c-.314-2.163-2.197-3.826-4.473-3.826m12.426 0c-2.276 0-4.16 1.663-4.473 3.826h2.477a2.1 2.1 0 0 1 1.996-1.434c.934 0 1.725.602 1.997 1.434h2.476c-.313-2.163-2.196-3.826-4.473-3.826m5.407-10.68c1.604 0 2.905 1.285 2.905 2.87v3.507H9.385v-3.507c0-1.585 1.3-2.87 2.905-2.87z"/>
    </g>
    <defs>
        <clipPath id="MiniMask_light_svg__a">
            <path fill="#fff" d="M.085.52h47.83v48H.085z"/>
        </clipPath>
    </defs>
</svg>
