<svg xmlns="http://www.w3.org/2000/svg" fill="none" viewBox="0 0 24 24">
    <circle cx="12" cy="12" r="12" fill="#FAEBEA"/>
    <path fill="#565467" d="M21.087 10.6c0-1.09-.421-2.135-1.17-2.905-.37-.38-.81-.683-1.295-.89a3.87 3.87 0 0 0-2.645-.148 4.14 4.14 0 0 0-1.305-2.61A3.93 3.93 0 0 0 12.007 3a3.93 3.93 0 0 0-2.666 1.048 4.14 4.14 0 0 0-1.304 2.61 3.9 3.9 0 0 0-2.65.143 4 4 0 0 0-1.3.89 4.1 4.1 0 0 0-.868 1.334 4.21 4.21 0 0 0 .455 3.985 4 4 0 0 0 1.992 1.493 4.16 4.16 0 0 0-.755 2.39c0 1.089.421 2.134 1.17 2.904.37.38.81.683 1.295.89a3.9 3.9 0 0 0 3.24-.08 4 4 0 0 0 1.38-1.11c.373.47.844.849 1.38 1.11a3.9 3.9 0 0 0 3.236.078 4 4 0 0 0 1.295-.892c.372-.382.665-.835.865-1.333.2-.5.303-1.033.302-1.573 0-.86-.265-1.696-.755-2.392a4 4 0 0 0 2-1.486 4.2 4.2 0 0 0 .768-2.41Z"/>
    <path fill="#fff" fill-rule="evenodd" d="M14.658 11.164c-.097 0-.13.143-.069.22a.78.78 0 0 1 .118.79.77.77 0 0 1-.41.42.8.8 0 0 1-.29.06.75.75 0 0 1-.535-.229.78.78 0 0 1-.22-.546c0-.023-.03-.034-.043-.016a1.34 1.34 0 0 0-.232.554c-.02.11-.107.203-.219.203h-.061c-.145 0-.264-.12-.243-.266.146-1 1.108-1.725 2.204-1.725s2.057.726 2.204 1.725c.022.146-.098.267-.243.267s-.26-.122-.291-.266c-.143-.655-.808-1.191-1.67-1.191m-6.717.715c0-.031-.038-.047-.057-.023-.126.166-.212.36-.25.567-.022.12-.118.22-.237.22H7.35c-.145 0-.264-.12-.243-.267.146-1 1.109-1.724 2.204-1.724s2.058.724 2.204 1.724c.022.146-.098.267-.243.267s-.26-.122-.29-.265c-.144-.656-.81-1.192-1.67-1.192-.08 0-.108.113-.055.172a.78.78 0 0 1 .14.816.77.77 0 0 1-.41.42.8.8 0 0 1-.29.06.75.75 0 0 1-.536-.229.78.78 0 0 1-.22-.546m5.288 1.783c-.127-.07-.285-.02-.388.084a1.18 1.18 0 0 1-.843.339c-.348 0-.647-.137-.844-.338-.102-.104-.26-.155-.388-.085-.127.07-.176.234-.085.349.3.375.784.608 1.317.608s1.017-.236 1.315-.608c.092-.114.044-.278-.084-.35Z" clip-rule="evenodd"/>
</svg>
