<svg xmlns="http://www.w3.org/2000/svg" fill="none" viewBox="0 0 32 19">
    <path fill="#F5F5F5" d="M0 4.306a4 4 0 0 1 4-4h24a4 4 0 0 1 4 4v10a4 4 0 0 1-4 4H4a4 4 0 0 1-4-4v-10Z"/>
    <path fill="#1C68F3" d="M9.077 4.306H6.769l2.885 5-2.885 5h2.308l2.885-5-2.885-5Z"/>
    <path fill="#000" d="M14.654 4.306h1.923v10h-1.923v-10Z"/>
    <path fill="#000" fill-rule="evenodd" d="M17.539 4.306v10h2.692a5 5 0 0 0 0-10h-2.692Zm1.923 8.077h.769a3.077 3.077 0 0 0 0-6.154h-.77v6.154Z" clip-rule="evenodd"/>
    <path fill="#1C68F3" d="M11.769 12.383h1.923v1.923h-1.923z"/>
</svg>
