<svg fill="none" viewBox="0 0 32 19" xmlns="http://www.w3.org/2000/svg"><path d="m0 4.306a4 4 0 0 1 4-4h24a4 4 0 0 1 4 4v10a4 4 0 0 1 -4 4h-24a4 4 0 0 1 -4-4z" fill="#f5f5f5"/><path d="m9.077 4.306h-2.308l2.885 5-2.885 5h2.308l2.885-5z" fill="#1c68f3"/><path d="m14.654 4.306h1.923v10h-1.923z" fill="#000"/><path clip-rule="evenodd" d="m17.539 4.306v10h2.692a5 5 0 0 0 0-10zm1.923 8.077h.769a3.077 3.077 0 0 0 0-6.154h-.77v6.154z" fill="#000" fill-rule="evenodd"/><path d="m11.769 12.383h1.923v1.923h-1.923z" fill="#1c68f3"/></svg>