<svg width="32" height="19" viewBox="0 0 32 19" fill="none" xmlns="http://www.w3.org/2000/svg">
    <path d="M0 4.30615C0 2.09701 1.79086 0.306152 4 0.306152H28C30.2091 0.306152 32 2.09701 32 4.30615V14.3062C32 16.5153 30.2091 18.3062 28 18.3062H4C1.79086 18.3062 0 16.5153 0 14.3062V4.30615Z" fill="#07101B"/>
    <path d="M9.07698 4.30615H6.76929L9.6539 9.30615L6.76929 14.3062H9.07698L11.9616 9.30615L9.07698 4.30615Z" fill="#1C68F3"/>
    <path d="M14.6538 4.30615H16.5769V14.3062H14.6538V4.30615Z" fill="white"/>
    <path fill-rule="evenodd" clip-rule="evenodd" d="M17.5386 4.30615V14.3062H20.2309C22.9923 14.3062 25.2309 12.0676 25.2309 9.30615C25.2309 6.54473 22.9923 4.30615 20.2309 4.30615H17.5386ZM19.4617 12.3831H20.2309C21.9302 12.3831 23.3078 11.0055 23.3078 9.30615C23.3078 7.60681 21.9302 6.22923 20.2309 6.22923H19.4617V12.3831Z" fill="white"/>
    <rect x="11.7693" y="12.3831" width="1.92308" height="1.92308" fill="#1C68F3"/>
</svg>
