<svg xmlns="http://www.w3.org/2000/svg" fill="none" viewBox="0 0 24 24">
    <g clip-path="url('#NFTGo_svg__Nftgo_svg__clip0_9378_26385')">
        <path fill="#5177FF" d="M19.177 24H4.823A4.836 4.836 0 0 1 0 19.177V4.823A4.834 4.834 0 0 1 4.822 0h14.355A4.836 4.836 0 0 1 24 4.822v14.355A4.84 4.84 0 0 1 19.177 24"/>
        <path fill="#fff" d="M14.825 7.912c-.168.057-.105.255.07.252l.908-.018-1.815 4.866-1.713-3.15A3.33 3.33 0 0 0 9.569 8.11h-.51a3.34 3.34 0 0 0-2.92 2.212l-2.796 7.68a.08.08 0 0 0 .073.107h4.187a.08.08 0 0 0 .075-.053l1.756-4.836 1.706 3.137a3.34 3.34 0 0 0 3.2 1.755 3.34 3.34 0 0 0 2.927-2.186l2.915-7.816.765-2.133a.08.08 0 0 0-.058-.105.1.1 0 0 0-.044.003z"/>
        <path fill="#515EFF" d="M6.136 10.32 3.342 18a.08.08 0 0 0 .074.108h4.187a.08.08 0 0 0 .074-.053l1.757-4.836 1.705 3.137a3.33 3.33 0 0 0 2.704 1.755h.498L9.058 8.109a3.34 3.34 0 0 0-2.922 2.21Z" opacity=".3"/>
        <path fill="#fff" d="m7.457 12.809-1.943 5.196a.08.08 0 0 0 .037.097.1.1 0 0 0 .036.01h2.018a.08.08 0 0 0 .075-.053l1.756-4.836-.353-.55c-.365-.574-1.373-.494-1.626.136"/>
        <path fill="#515EFF" d="m15.97 13.434 1.938-5.072a.16.16 0 0 0-.148-.216h-1.958l-1.815 4.877.354.55c.368.57 1.377.492 1.629-.14Z" opacity=".3"/>
    </g>
</svg>
