<svg xmlns="http://www.w3.org/2000/svg" viewBox="0 0 24 24">
    <path fill="#1450F0" d="M12.5 7.162c.71 0 1.291.58 1.291 1.29h5.162C18.953 4.903 16.049 2 12.5 2 8.952 2 6.049 4.903 6.049 8.452s2.903 6.452 6.452 6.452c.71 0 1.29.58 1.29 1.29 0 .258-.064.452-.194.645h5.291c0-.193.065-.451.065-.645 0-3.548-2.904-6.452-6.452-6.452-.71 0-1.29-.58-1.29-1.29s.58-1.29 1.29-1.29Zm-1.29 9.032H6.05c0 .194 0 .452.064.646h5.29a1.1 1.1 0 0 1-.193-.646ZM6.37 18.13h12.323c.065-.194.13-.452.194-.646H6.177c.064.194.129.452.193.646m.519 1.29h11.162a3 3 0 0 0 .322-.646H6.566a3 3 0 0 1 .323.646m1.029 1.29h9.226c.193-.194.387-.387.58-.646H7.337c.193.259.387.452.58.646ZM9.726 22h5.613c.387-.193.71-.387 1.032-.645H8.63c.322.258.71.452 1.097.645Z"/>
</svg>
