<svg xmlns="http://www.w3.org/2000/svg" fill="none" viewBox="0 0 24 25">
    <path fill="#1450F0" d="M12 7.662c.71 0 1.291.58 1.291 1.29h5.162C18.453 5.404 15.549 2.5 12 2.5c-3.549 0-6.452 2.904-6.452 6.452 0 3.549 2.903 6.452 6.452 6.452.71 0 1.29.58 1.29 1.29 0 .259-.064.452-.194.646h5.291c0-.194.065-.452.065-.645 0-3.549-2.904-6.452-6.452-6.452-.71 0-1.29-.58-1.29-1.29 0-.71.58-1.291 1.29-1.291Zm-1.29 9.033H5.55c0 .193 0 .451.064.645h5.29a1.09 1.09 0 0 1-.193-.645ZM5.87 18.63h12.323c.065-.194.13-.452.194-.645H5.677c.064.193.129.451.193.645Zm.519 1.29h11.162a3.01 3.01 0 0 0 .322-.645H6.066c.13.194.258.452.323.645Zm1.029 1.29h9.226a5.81 5.81 0 0 0 .58-.645H6.837c.193.258.387.452.58.645Zm1.808 1.29h5.613c.387-.193.71-.387 1.032-.645H8.13c.322.258.71.452 1.097.646Z"/>
</svg>
