<svg xmlns="http://www.w3.org/2000/svg" fill="none" viewBox="0 0 24 25">
    <g clip-path="url(#OKX_svg__a)">
        <path fill="#000" d="M24 12.785c0-6.628-5.373-12-12-12s-12 5.372-12 12c0 6.627 5.373 12 12 12s12-5.373 12-12Z"/>
        <path fill="#fff" d="m14.289 15.245-4.56.004-.065-.071.003-4.2c0-.385.029-.414.407-.414 1.28 0 2.56 0 3.84.003.127.01.253.032.377.065l-.01-.01c.03.06.052.125.063.192 0 1.466-.004 2.932-.012 4.4a.394.394 0 0 1-.043.03Z"/>
        <path fill="#fff" d="M7.367 10.624c-.678 0-1.358-.005-2.036.005-.21.003-.287-.085-.287-.278V6.218c0-.256.184-.274.374-.274h2.816c.39 0 .78.006 1.168 0 .226-.003.324.092.324.32a779.75 779.75 0 0 0 0 4.104c0 .196-.07.263-.263.26-.699-.008-1.397-.004-2.096-.004Zm6.92.009a4.578 4.578 0 0 1-.06-.523 547.56 547.56 0 0 1 0-3.715c0-.378.07-.448.452-.448h3.805c.38 0 .43.05.43.433 0 1.308-.005 2.616.003 3.925 0 .24-.08.343-.325.34-1.44-.011-2.875-.015-4.313-.021l.008.009Zm-4.623 4.545.07.07-.007 4.2c0 .36-.055.42-.412.42h-3.84c-.375 0-.429-.06-.429-.431 0-1.29.008-2.58-.006-3.87-.003-.3.091-.39.394-.388 1.41.01 2.817 0 4.23 0Zm4.625.067a.373.373 0 0 0 .039-.03c.088-.013.176-.023.265-.027 1.33 0 2.66.004 3.99-.006.245 0 .334.07.332.32-.008 1.34-.008 2.68 0 4.02 0 .263-.11.35-.36.348-1.31-.006-2.62-.006-3.93 0-.268 0-.405-.101-.403-.381.003-1.33 0-2.66.004-3.99a1.11 1.11 0 0 1 .063-.254Z"/>
    </g>
    <defs>
        <clipPath id="OKX_svg__a">
            <path fill="#fff" d="M0 0h24v24H0z" transform="translate(0 .785)"/>
        </clipPath>
    </defs>
</svg>
