<svg xmlns="http://www.w3.org/2000/svg" fill="none" viewBox="0 0 24 24">
    <g clip-path="url('#OKX_svg__a')">
        <path fill="#000" d="M24 12c0-6.627-5.373-12-12-12S0 5.373 0 12s5.373 12 12 12 12-5.373 12-12Z"/>
        <path fill="#fff" d="m14.289 14.46-4.56.005-.065-.072.003-4.2c0-.384.029-.414.407-.414 1.28 0 2.56 0 3.84.003.127.011.253.033.377.065l-.01-.01c.03.06.052.125.063.192a768.3 768.3 0 0 1-.012 4.4.381.381 0 0 1-.043.03Z"/>
        <path fill="#fff" d="M7.367 9.84c-.678 0-1.358-.006-2.036.004-.21.003-.287-.085-.287-.277V5.433c0-.255.184-.273.374-.273h2.816c.39 0 .78.005 1.168 0 .226-.004.324.092.324.32a779.761 779.761 0 0 0 0 4.104c0 .195-.07.262-.263.26-.699-.009-1.397-.004-2.096-.004Zm6.92.008a4.575 4.575 0 0 1-.06-.523 547.551 547.551 0 0 1 0-3.715c0-.377.07-.447.452-.447h3.805c.38 0 .43.05.43.432 0 1.308-.005 2.616.003 3.925 0 .24-.08.343-.325.34-1.44-.01-2.875-.015-4.313-.021l.008.009Zm-4.623 4.546.07.07-.007 4.2c0 .36-.055.42-.412.42h-3.84c-.375 0-.429-.06-.429-.432 0-1.29.008-2.58-.006-3.869-.003-.3.091-.391.394-.388 1.41.01 2.817 0 4.23-.001Zm4.625.066a.404.404 0 0 0 .039-.029c.088-.014.176-.023.265-.028 1.33 0 2.66.004 3.99-.006.245 0 .334.07.332.321-.008 1.34-.008 2.68 0 4.02 0 .263-.11.349-.36.347-1.31-.006-2.62-.006-3.93 0-.268 0-.405-.101-.403-.38.003-1.33 0-2.661.004-3.99a1.11 1.11 0 0 1 .063-.255Z"/>
    </g>
    <defs>
        <clipPath id="OKX_svg__a">
            <path fill="#fff" d="M0 0h24v24H0z"/>
        </clipPath>
    </defs>
</svg>
