<svg xmlns="http://www.w3.org/2000/svg" fill="none" viewBox="0 0 24 24">
    <path fill="#fff" d="M0 4a4 4 0 0 1 4-4h16a4 4 0 0 1 4 4v16a4 4 0 0 1-4 4H4a4 4 0 0 1-4-4z"/>
    <path fill="#000" fill-rule="evenodd" d="M9.274 4.762h-4.19a.32.32 0 0 0-.322.322v4.19c0 .177.144.32.321.32h4.19a.32.32 0 0 0 .321-.322V5.084a.32.32 0 0 0-.322-.32zm4.834 4.833H9.92a.32.32 0 0 0-.322.322v4.189c0 .178.144.322.322.322h4.189a.32.32 0 0 0 .322-.321v-4.19a.32.32 0 0 0-.322-.323zm.643-4.833h4.189c.178 0 .322.144.322.322v4.19a.32.32 0 0 1-.322.32h-4.188a.32.32 0 0 1-.323-.322V5.085c0-.178.145-.322.323-.322zm-5.477 9.666h-4.19a.32.32 0 0 0-.322.322v4.19c0 .178.144.322.321.322h4.19a.32.32 0 0 0 .321-.323v-4.188a.32.32 0 0 0-.322-.322zm5.477 0h4.189c.178 0 .322.145.322.322v4.19a.32.32 0 0 1-.322.322h-4.188a.32.32 0 0 1-.323-.323v-4.188c0-.177.145-.322.323-.322z" clip-rule="evenodd"/>
</svg>
