<svg xmlns="http://www.w3.org/2000/svg" fill="none" viewBox="0 0 24 25">
    <g clip-path="url(#OpenSea_svg__a)">
        <path fill="#2081E2" d="M24 12.5c0 6.628-5.373 12-12 12s-12-5.372-12-12C0 5.874 5.373.5 12 .5c6.628 0 12 5.373 12 12Z"/>
        <path fill="#fff" d="m5.92 12.904.051-.081 3.122-4.884a.107.107 0 0 1 .187.014c.522 1.168.972 2.622.761 3.527-.09.372-.337.877-.614 1.343a2.454 2.454 0 0 1-.117.198.106.106 0 0 1-.089.047h-3.21a.107.107 0 0 1-.092-.164Z"/>
        <path fill="#fff" d="M19.835 13.81v.774a.11.11 0 0 1-.067.101c-.242.104-1.069.483-1.413.962-.878 1.222-1.548 2.969-3.048 2.969H9.053a4.02 4.02 0 0 1-4.013-4.027v-.072c0-.059.048-.107.107-.107h3.487c.069 0 .12.064.113.132a1.19 1.19 0 0 0 .125.67c.207.42.636.683 1.1.683h1.726v-1.348H9.99a.11.11 0 0 1-.088-.173l.061-.09c.162-.23.392-.587.622-.992a7.75 7.75 0 0 0 .43-.86c.024-.053.044-.107.064-.16.033-.093.068-.181.092-.268.025-.074.045-.152.064-.225a3.47 3.47 0 0 0 .083-.787c0-.107-.005-.219-.015-.326-.005-.117-.02-.234-.034-.352a3.59 3.59 0 0 0-.048-.313 5.244 5.244 0 0 0-.099-.468l-.013-.06c-.03-.107-.055-.209-.09-.316a11.937 11.937 0 0 0-.469-1.328c-.073-.176-.147-.337-.215-.488a6.854 6.854 0 0 1-.093-.196 7.024 7.024 0 0 0-.103-.215c-.024-.053-.053-.102-.072-.151l-.211-.39a.069.069 0 0 1 .078-.1l1.319.358h.008l.174.049.191.054.07.02v-.784c0-.379.304-.686.679-.686a.67.67 0 0 1 .48.201.69.69 0 0 1 .198.485V7.15l.14.04a.113.113 0 0 1 .032.015l.147.111c.05.04.102.088.167.137a9.974 9.974 0 0 1 .572.503c.214.2.455.434.684.693.064.073.127.147.191.224.064.08.132.157.191.234.078.104.162.211.234.323l.108.16c.093.143.176.29.255.436.033.068.068.142.097.215.088.196.157.395.201.595.014.043.024.09.029.132v.01c.014.059.02.122.024.186a1.988 1.988 0 0 1-.107.873c-.03.084-.06.171-.097.254a3.437 3.437 0 0 1-.266.503 2.8 2.8 0 0 1-.112.181c-.043.063-.087.122-.127.18a3.72 3.72 0 0 1-.171.22 8.075 8.075 0 0 1-.41.488c-.05.059-.103.118-.157.171-.053.06-.107.112-.157.161a6.213 6.213 0 0 1-.21.2l-.135.125a.11.11 0 0 1-.073.027h-1.05v1.348h1.321c.296 0 .578-.105.804-.298.078-.067.417-.36.818-.803a.102.102 0 0 1 .05-.031l3.65-1.056a.108.108 0 0 1 .138.104Z"/>
    </g>
    <defs>
        <clipPath id="OpenSea_svg__a">
            <path fill="#fff" d="M0 0h24v24H0z" transform="translate(0 .5)"/>
        </clipPath>
    </defs>
</svg>
