<svg xmlns="http://www.w3.org/2000/svg" fill="none" viewBox="0 0 24 24">
    <g clip-path="url('#OpenSea_svg__a')">
        <path fill="#2081E2" d="M24 12c0 6.627-5.373 12-12 12S0 18.627 0 12 5.373 0 12 0c6.628 0 12 5.373 12 12Z"/>
        <path fill="#fff" d="m5.92 12.403.051-.08 3.122-4.884a.107.107 0 0 1 .187.013c.522 1.169.972 2.623.761 3.527-.09.373-.337.877-.614 1.343a2.454 2.454 0 0 1-.117.199.106.106 0 0 1-.089.046h-3.21a.107.107 0 0 1-.092-.164Z"/>
        <path fill="#fff" d="M19.835 13.31v.774a.11.11 0 0 1-.067.1c-.242.104-1.069.484-1.413.962-.878 1.222-1.548 2.969-3.048 2.969H9.053a4.02 4.02 0 0 1-4.013-4.027v-.071c0-.06.048-.107.107-.107h3.487c.069 0 .12.064.113.131a1.19 1.19 0 0 0 .125.67c.207.42.636.683 1.1.683h1.726v-1.348H9.99a.11.11 0 0 1-.088-.172c.018-.029.039-.058.061-.091.162-.23.392-.586.622-.992a7.75 7.75 0 0 0 .43-.859c.024-.053.044-.107.064-.16.033-.094.068-.181.092-.269.025-.074.045-.152.064-.224a3.47 3.47 0 0 0 .083-.787c0-.107-.005-.22-.015-.327-.005-.117-.02-.234-.034-.351a3.59 3.59 0 0 0-.048-.313 5.245 5.245 0 0 0-.099-.469l-.013-.059c-.03-.107-.055-.21-.09-.317a11.937 11.937 0 0 0-.469-1.328c-.073-.176-.147-.336-.215-.488a6.867 6.867 0 0 1-.093-.196 7.024 7.024 0 0 0-.103-.214c-.024-.053-.053-.103-.072-.152l-.211-.39a.069.069 0 0 1 .078-.1l1.319.358h.004l.004.001.174.048.191.055.07.02v-.785c0-.378.304-.685.679-.685a.67.67 0 0 1 .48.2.69.69 0 0 1 .198.485V6.65l.14.04a.113.113 0 0 1 .032.016l.147.11c.05.04.102.088.167.137a9.967 9.967 0 0 1 .572.503c.214.2.455.434.684.693.064.073.127.147.191.225.064.079.132.156.191.234.078.104.162.21.234.323.035.053.074.107.108.16.093.142.176.289.255.435.033.068.068.142.097.215.088.196.157.396.201.595a.73.73 0 0 1 .029.132v.01c.014.06.02.122.024.186a1.988 1.988 0 0 1-.107.873c-.03.084-.06.172-.097.254a3.437 3.437 0 0 1-.266.503 2.8 2.8 0 0 1-.112.182l-.127.18a3.72 3.72 0 0 1-.171.22 8.075 8.075 0 0 1-.41.488c-.05.058-.103.118-.157.17a6.213 6.213 0 0 1-.366.361l-.136.125a.11.11 0 0 1-.073.027h-1.05v1.348h1.321c.296 0 .578-.105.804-.297.078-.068.417-.361.818-.804a.102.102 0 0 1 .05-.03l3.65-1.056a.108.108 0 0 1 .138.103Z"/>
    </g>
    <defs>
        <clipPath id="OpenSea_svg__a">
            <path fill="#fff" d="M0 0h24v24H0z"/>
        </clipPath>
    </defs>
</svg>
