<svg xmlns="http://www.w3.org/2000/svg" fill="none" viewBox="0 0 24 24">
    <g clip-path="url('#Optimism_svg__a')">
        <path fill="#FF0420" d="M12 24c6.627 0 12-5.373 12-12S18.627 0 12 0 0 5.373 0 12s5.373 12 12 12Z"/>
        <path fill="#fff" d="M8.498 15.182a2.883 2.883 0 0 1-1.755-.504 1.724 1.724 0 0 1-.675-1.458c.002-.163.018-.325.045-.486.078-.433.189-.952.333-1.558.408-1.65 1.461-2.475 3.16-2.475a3.14 3.14 0 0 1 1.242.234c.35.137.65.375.864.684.215.318.325.696.315 1.08a3.17 3.17 0 0 1-.045.477c-.09.534-.198 1.054-.324 1.558-.21.822-.573 1.437-1.09 1.845-.515.402-1.205.603-2.07.603Zm.126-1.296a1.28 1.28 0 0 0 .856-.297c.264-.24.444-.559.513-.91.138-.563.243-1.055.315-1.476a2.06 2.06 0 0 0 .036-.387c0-.546-.285-.82-.856-.819a1.314 1.314 0 0 0-.864.297c-.26.242-.436.56-.504.91a19.52 19.52 0 0 0-.324 1.476 1.927 1.927 0 0 0-.036.378c0 .552.288.828.864.828Zm3.817 1.206a.19.19 0 0 1-.153-.063.216.216 0 0 1-.027-.162l1.243-5.852a.258.258 0 0 1 .098-.162.275.275 0 0 1 .171-.063h2.395a2.783 2.783 0 0 1 1.602.415 1.357 1.357 0 0 1 .613 1.197c-.001.158-.02.315-.055.468a2.438 2.438 0 0 1-.909 1.53c-.45.33-1.068.496-1.854.496H14.35l-.415 1.971a.258.258 0 0 1-.098.162.276.276 0 0 1-.17.063H12.44Zm3.187-3.439c.236.005.467-.067.657-.207a.972.972 0 0 0 .378-.594c.017-.089.026-.18.027-.27a.502.502 0 0 0-.153-.396.755.755 0 0 0-.522-.144h-1.08l-.342 1.611h1.035Z"/>
    </g>
    <defs>
        <clipPath id="Optimism_svg__a">
            <path fill="#fff" d="M0 0h24v24H0z"/>
        </clipPath>
    </defs>
</svg>
