<svg xmlns="http://www.w3.org/2000/svg" fill="none" viewBox="0 0 24 24">
    <g clip-path="url('#Optimism_svg__a')">
        <path fill="#FF0420" d="M12 24c6.627 0 12-5.373 12-12S18.627 0 12 0 0 5.373 0 12s5.373 12 12 12"/>
        <path fill="#fff" d="M8.498 15.182a2.9 2.9 0 0 1-1.755-.504 1.72 1.72 0 0 1-.675-1.458q.004-.245.045-.486.117-.65.333-1.558.612-2.475 3.16-2.475a3.1 3.1 0 0 1 1.242.234c.35.137.65.375.864.684.215.318.325.696.315 1.08a3 3 0 0 1-.045.477q-.135.801-.324 1.558-.315 1.233-1.09 1.845-.772.603-2.07.603m.126-1.296a1.28 1.28 0 0 0 .856-.297c.264-.24.444-.559.513-.91q.207-.845.315-1.476a2 2 0 0 0 .036-.387q0-.82-.856-.819a1.3 1.3 0 0 0-.864.297c-.26.242-.436.56-.504.91a20 20 0 0 0-.324 1.476 2 2 0 0 0-.036.378q0 .828.864.828m3.817 1.206a.19.19 0 0 1-.153-.063.22.22 0 0 1-.027-.162l1.243-5.852a.26.26 0 0 1 .098-.162.28.28 0 0 1 .171-.063h2.395a2.8 2.8 0 0 1 1.602.415 1.36 1.36 0 0 1 .613 1.197q-.002.238-.055.468a2.44 2.44 0 0 1-.909 1.53q-.675.495-1.854.496H14.35l-.415 1.971a.26.26 0 0 1-.098.162.28.28 0 0 1-.17.063H12.44Zm3.187-3.439c.236.005.467-.067.657-.207a.97.97 0 0 0 .378-.594q.026-.134.027-.27a.5.5 0 0 0-.153-.396.76.76 0 0 0-.522-.144h-1.08l-.342 1.611z"/>
    </g>
    <defs>
        <clipPath id="Optimism_svg__a">
            <path fill="#fff" d="M0 0h24v24H0z"/>
        </clipPath>
    </defs>
</svg>
