<svg xmlns="http://www.w3.org/2000/svg" fill="none" viewBox="0 0 24 24">
    <g clip-path="url('#Pets_svg__a')">
        <path fill="#25253D" d="M12 24c6.627 0 12-5.373 12-12S18.627 0 12 0 0 5.373 0 12s5.373 12 12 12"/>
        <path fill="#E95287" d="M11.754 5.277H9.031V8h2.723z"/>
        <path fill="#F58D4E" d="M6.271 5.25H5.25v1.02h1.021z"/>
        <path fill="#E45385" d="M8.199 6.817H6.61v1.588H8.2z"/>
        <path fill="url(#Pets_svg__b)" fill-rule="evenodd" d="M17.16 5.794h1.59v1.58h-1.59zm-7.155 3.893h3.292V6.416h3.292v3.27h-3.292v3.271h3.292v3.272h-3.292v-3.271h-3.292zm3.292 6.542h-3.292V19.5h3.292v-3.27Zm3.863-3.686h1.476v1.466H17.16z" clip-rule="evenodd"/>
    </g>
    <defs>
        <linearGradient id="Pets_svg__b" x1="14.377" x2="14.377" y1="5.794" y2="19.5" gradientUnits="userSpaceOnUse">
            <stop stop-color="#9B54D6"/>
            <stop offset="1" stop-color="#4E23D4"/>
        </linearGradient>
        <clipPath id="Pets_svg__a">
            <path fill="#fff" d="M0 0h24v24H0z"/>
        </clipPath>
    </defs>
</svg>
