<svg viewBox="0 0 48 48" xmlns="http://www.w3.org/2000/svg"><path d="m0 12c0-6.627 5.373-12 12-12h24c6.627 0 12 5.373 12 12v24c0 6.627-5.373 12-12 12h-24c-6.627 0-12-5.373-12-12z" fill="#fff"/><path d="m36 20.775c0-6.708-5.397-12.132-12-12.132s-12 5.424-12 12.132c0 1.348.222 2.664.635 3.948.286.867 1.238 1.348 2.127 1.06.857-.29 1.333-1.252 1.047-2.151a8.634 8.634 0 0 1 -.476-3.113c.127-4.526 3.746-8.25 8.223-8.474 4.984-.257 9.11 3.755 9.11 8.73 0 4.654-3.618 8.474-8.158 8.73 0 0-1.683.097-2.508.226-.413.064-.73.128-.952.16-.096.032-.19-.064-.16-.16l.287-1.413 1.555-7.254c.19-.898-.38-1.797-1.27-1.99a1.664 1.664 0 0 0 -1.968 1.284s-3.746 17.654-3.778 17.846c-.19.899.381 1.798 1.27 1.99a1.664 1.664 0 0 0 1.968-1.284c.032-.192.54-2.535.54-2.535.381-1.798 1.841-3.114 3.556-3.339.38-.064 1.873-.16 1.873-.16 6.189-.481 11.079-5.713 11.079-12.1z" fill="#231f20"/><circle cx="29" cy="37" fill="#d32f79" r="3"/></svg>