<svg xmlns="http://www.w3.org/2000/svg" fill="none" viewBox="0 0 24 24">
    <circle cx="12" cy="12" r="12" fill="#fff"/>
    <path fill="#8247e5" d="M15.6 9.59c-.255-.146-.584-.146-.877 0l-2.047 1.215-1.389.773-2.01 1.214c-.256.147-.585.147-.878 0l-1.571-.957a.9.9 0 0 1-.439-.773v-1.84c0-.294.146-.588.439-.772l1.571-.92c.256-.147.585-.147.878 0l1.572.957a.9.9 0 0 1 .438.773v1.214l1.39-.81v-1.25a.91.91 0 0 0-.44-.773L9.314 5.91a.93.93 0 0 0-.877 0L5.439 7.677A.81.81 0 0 0 5 8.413v3.459c0 .294.146.589.439.773l2.96 1.73c.256.146.585.146.878 0l2.01-1.178 1.39-.81 2.01-1.177c.256-.148.585-.148.877 0l1.572.92a.9.9 0 0 1 .438.772v1.84a.91.91 0 0 1-.438.773l-1.535.92c-.256.147-.585.147-.878 0l-1.572-.92a.9.9 0 0 1-.438-.773v-1.177l-1.39.81v1.213c0 .295.147.589.44.773l2.96 1.73a.93.93 0 0 0 .877 0l2.961-1.73a.9.9 0 0 0 .439-.773v-3.495a.91.91 0 0 0-.439-.773l-2.96-1.73z"/>
</svg>
