<svg xmlns="http://www.w3.org/2000/svg" fill="none" viewBox="0 0 24 25">
    <g clip-path="url(#Rarible_svg__a)">
        <path fill="#FEDA03" d="M19.2.5H4.8A4.8 4.8 0 0 0 0 5.3v14.4a4.8 4.8 0 0 0 4.8 4.8h14.4a4.8 4.8 0 0 0 4.8-4.8V5.3A4.8 4.8 0 0 0 19.2.5Z"/>
        <path fill="#000" d="M16.56 12.413c.757-.197 1.43-.762 1.43-1.899 0-1.893-1.608-2.333-3.667-2.333H6.12v8.524h3.452v-2.893h4.096c.63 0 1 .25 1 .869v2.024h3.452v-2.131c0-1.161-.655-1.893-1.56-2.161Zm-2.833-.899H9.572v-.833h4.155c.453 0 .726.06.726.416 0 .357-.273.417-.726.417Z"/>
    </g>
    <defs>
        <clipPath id="Rarible_svg__a">
            <path fill="#fff" d="M0 0h24v24H0z" transform="translate(0 .5)"/>
        </clipPath>
    </defs>
</svg>
