<svg xmlns="http://www.w3.org/2000/svg" viewBox="0 0 24 24">
    <circle cx="12" cy="12" r="12" fill="#ff3d00"/>
    <path fill="#fff" d="M14.665 16.03c.142.143.142.281 0 .415-.554.554-1.442.83-2.666.83-1.223 0-2.111-.276-2.665-.83-.143-.134-.143-.272 0-.415a.273.273 0 0 1 .201-.08c.08 0 .147.027.2.08.43.438 1.184.656 2.264.656 1.072 0 1.826-.218 2.264-.656a.273.273 0 0 1 .2-.08c.08 0 .148.027.202.08zm-4.112-2.424c0 .33-.116.612-.348.844a1.15 1.15 0 0 1-.844.348 1.17 1.17 0 0 1-.85-.348 1.138 1.138 0 0 1-.355-.844c0-.34.118-.625.354-.857.237-.232.52-.348.85-.348.331 0 .613.118.845.355.232.236.348.52.348.85zm5.29 0c0 .33-.118.612-.355.844a1.17 1.17 0 0 1-.85.348 1.15 1.15 0 0 1-.844-.348 1.15 1.15 0 0 1-.348-.844c0-.33.116-.614.348-.85.232-.237.513-.355.844-.355.33 0 .614.116.85.348.237.232.355.518.355.857zm3.362-1.607c0-.438-.157-.813-.47-1.125a1.55 1.55 0 0 0-1.137-.469c-.447 0-.83.16-1.152.482-1.161-.803-2.55-1.232-4.165-1.285l.843-3.79 2.679.602c0 .33.116.612.348.844s.514.348.844.348.614-.118.85-.355a1.16 1.16 0 0 0 .355-.85c0-.33-.118-.614-.355-.85a1.16 1.16 0 0 0-.85-.356c-.482 0-.84.224-1.072.67l-2.96-.656c-.17-.045-.28.026-.334.214l-.924 4.179c-1.607.062-2.987.495-4.139 1.299-.312-.33-.7-.496-1.165-.496a1.55 1.55 0 0 0-1.138.469 1.534 1.534 0 0 0-.47 1.125 1.603 1.603 0 0 0 .912 1.447c-.054.24-.08.49-.08.75 0 1.267.624 2.352 1.874 3.254s2.755 1.352 4.514 1.352c1.768 0 3.277-.45 4.527-1.352s1.875-1.987 1.875-3.255c0-.285-.032-.54-.094-.763a1.585 1.585 0 0 0 .884-1.433z"/>
</svg>
