<svg xmlns="http://www.w3.org/2000/svg" viewBox="0 0 24 24">
    <circle cx="12" cy="12" r="12" fill="#ff3d00"/>
    <path fill="#fff" d="M14.665 16.03q.213.214 0 .415-.83.83-2.666.83-1.834 0-2.665-.83-.215-.2 0-.415a.27.27 0 0 1 .201-.08q.12 0 .2.08.645.656 2.264.656 1.607 0 2.264-.656a.27.27 0 0 1 .2-.08q.12 0 .202.08m-4.112-2.424q0 .495-.348.844a1.15 1.15 0 0 1-.844.348 1.17 1.17 0 0 1-.85-.348 1.14 1.14 0 0 1-.355-.844q0-.51.354-.857.355-.348.85-.348.497 0 .845.355.348.354.348.85m5.29 0q0 .495-.355.844a1.17 1.17 0 0 1-.85.348 1.15 1.15 0 0 1-.844-.348 1.15 1.15 0 0 1-.348-.844q0-.496.348-.85.348-.355.844-.355.495 0 .85.348t.355.857m3.362-1.607q0-.657-.47-1.125a1.55 1.55 0 0 0-1.137-.469q-.67 0-1.152.482-1.742-1.205-4.165-1.285l.843-3.79 2.679.602q0 .495.348.844c.348.349.514.348.844.348s.614-.118.85-.355a1.16 1.16 0 0 0 .355-.85q0-.495-.355-.85a1.16 1.16 0 0 0-.85-.356q-.724 0-1.072.67l-2.96-.656q-.254-.068-.334.214l-.924 4.179q-2.41.093-4.139 1.299-.468-.495-1.165-.496a1.55 1.55 0 0 0-1.138.469 1.53 1.53 0 0 0-.47 1.125 1.6 1.6 0 0 0 .912 1.447q-.08.36-.08.75 0 1.9 1.874 3.254c1.874 1.354 2.755 1.352 4.514 1.352q2.652 0 4.527-1.352c1.875-1.352 1.875-1.987 1.875-3.255q0-.428-.094-.763a1.59 1.59 0 0 0 .884-1.433"/>
</svg>
