<svg xmlns="http://www.w3.org/2000/svg" fill="none" viewBox="0 0 24 24">
    <g clip-path="url('#Rsk_svg__a')">
        <circle cx="12" cy="12" r="12" fill="#fff"/>
        <path fill="#008CFF" d="M10.984 9.91V3.386S8.683 4.437 8.683 6.674s2.301 3.237 2.301 3.237Z"/>
        <path fill="#0CBFE8" d="M10.984 3.385s2.302 1.052 2.302 3.289-2.302 3.237-2.302 3.237z"/>
        <path fill="#008CFF" d="m16.357 12.981 3.162-1.65s-1.092-.673-2.175-.107c-1.084.566-.987 1.757-.987 1.757"/>
        <path fill="#0CBFE8" d="M19.52 11.331s.071 1.205-1.013 1.77c-1.084.566-2.15-.12-2.15-.12l3.162-1.65Z"/>
        <path fill="#000" d="M19.67 11.069c-.055-.028-1.39-.673-2.516-.076-.902.479-1.083 1.439-1.119 1.838l-.417.22a1.2 1.2 0 0 0-.806-.303 1.2 1.2 0 0 0-.798.297l-1.91-1.012a1 1 0 0 0 .033-.254c0-.482-.353-.89-.834-1.017v-.623c.557-.328 2.324-1.52 2.324-3.418 0-2.196-2.374-3.57-2.476-3.625L10.984 3l-.167.096c-.103.056-2.477 1.429-2.477 3.625 0 1.898 1.767 3.09 2.325 3.418v.623c-.482.127-.835.535-.835 1.017q0 .132.034.254l-1.91 1.012a1.2 1.2 0 0 0-.799-.297c-.636 0-1.154.475-1.154 1.059 0 .481.353.89.833 1.017v2.103c-.48.127-.833.535-.833 1.017 0 .584.518 1.059 1.154 1.059.339 0 .642-.133.852-.348l1.857.983a1 1 0 0 0-.034.252c0 .584.518 1.058 1.154 1.058s1.154-.474 1.154-1.058a1 1 0 0 0-.033-.252l1.856-.983c.21.214.514.348.852.348.637 0 1.154-.476 1.154-1.06 0-.48-.353-.889-.833-1.017v-2.102c.48-.128.833-.536.833-1.017q0-.128-.031-.247l.415-.22c.244.105.723.278 1.27.278.331 0 .688-.064 1.031-.246 1.127-.597 1.184-1.98 1.186-2.036l.006-.181-.174-.087h.001Zm-4.537 3.109a.54.54 0 0 1-.501.072.5.5 0 0 1-.137-.07.46.46 0 0 1-.193-.432.48.48 0 0 1 .322-.381.56.56 0 0 1 .39.004.474.474 0 0 1 .308.513.47.47 0 0 1-.188.293m.195 3.767c0 .261-.23.473-.515.473a.54.54 0 0 1-.27-.07.47.47 0 0 1-.246-.403v-.014a.47.47 0 0 1 .196-.357.5.5 0 0 1 .319-.103c.12 0 .232.039.32.103a.46.46 0 0 1 .195.37m-.833-1.017q-.237.063-.422.207l-1.957-1.036v-.001a.97.97 0 0 0-.024-.504l1.927-1.02c.132.117.295.204.476.252v2.103zm-3.511 3.436a.505.505 0 0 1-.51-.4.475.475 0 0 1 .316-.509.56.56 0 0 1 .388 0 .476.476 0 0 1 .315.508c-.038.228-.252.401-.509.401M9.854 16.1l-1.958 1.034a1.2 1.2 0 0 0-.422-.208v-2.103c.182-.047.347-.137.48-.255l1.924 1.02a.96.96 0 0 0-.024.51zM7.67 17.943c0 .17-.099.32-.246.403a.54.54 0 0 1-.27.07c-.284 0-.515-.211-.515-.473 0-.15.076-.285.195-.37a.545.545 0 0 1 .64 0 .5.5 0 0 1 .165.211.4.4 0 0 1 .032.16M6.64 13.807c0-.261.231-.473.516-.473a.6.6 0 0 1 .189.033.48.48 0 0 1 .327.44.46.46 0 0 1-.197.372.53.53 0 0 1-.318.101.54.54 0 0 1-.321-.103.46.46 0 0 1-.196-.37m4.025-2.4a.55.55 0 0 1 .639 0 .47.47 0 0 1 .196.371.46.46 0 0 1-.196.371.54.54 0 0 1-.639 0 .46.46 0 0 1-.19-.44.47.47 0 0 1 .19-.302m.834 4.499a.45.45 0 0 1-.195.352.55.55 0 0 1-.64 0 .46.46 0 0 1-.194-.358l-.001-.014a.46.46 0 0 1 .196-.372.56.56 0 0 1 .639 0 .47.47 0 0 1 .196.373zm2.194-2.355a1 1 0 0 0 .003.518l-1.945 1.028a1.2 1.2 0 0 0-.447-.227v-2.075c.184-.048.348-.136.48-.254zM8.98 6.721c0-1.557 1.495-2.683 2.005-3.022.511.337 2.005 1.46 2.005 3.021 0 1.303-1.05 2.247-1.685 2.699v-2.46c0-.162-.143-.293-.32-.293-.176 0-.319.13-.319.292V9.42C10.03 8.969 8.98 8.028 8.98 6.721m1.206 5.82c.133.118.297.206.48.254v2.075q-.25.067-.442.223l-1.947-1.03a1 1 0 0 0 0-.513zm-1.894 5.588a.97.97 0 0 0-.037-.508l1.897-1.003c.138.133.316.234.514.286v1.97a1.2 1.2 0 0 0-.482.257zm3.494 1.003a1.2 1.2 0 0 0-.481-.258v-1.97c.2-.051.377-.153.515-.287l1.896 1.003a.96.96 0 0 0-.037.51zm6.548-6.267c-.423.224-.902.184-1.263.095l.638-.338c.153-.08.206-.26.118-.399a.335.335 0 0 0-.436-.108l-.635.336c.096-.33.298-.729.72-.952.608-.322 1.36-.118 1.704.008-.052.337-.232 1.033-.846 1.358"/>
    </g>
    <defs>
        <clipPath id="Rsk_svg__a">
            <path fill="#fff" d="M0 0h24v24H0z"/>
        </clipPath>
    </defs>
</svg>
