<svg xmlns="http://www.w3.org/2000/svg" fill="none" viewBox="0 0 24 24">
    <path fill="#146CFA" d="M21.082 2H2.918a.613.613 0 0 0-.611.624v18.752a.62.62 0 0 0 .61.624h18.166a.62.62 0 0 0 .612-.624V2.624A.62.62 0 0 0 21.083 2Zm-1.966 16.733a.39.39 0 0 1-.326.187h-2.873a.37.37 0 0 1-.336-.219l-1.63-3.35a.66.66 0 0 0-.581-.365H8.408a.185.185 0 0 0-.183.188v3.371a.38.38 0 0 1-.377.385H5.576a.38.38 0 0 1-.377-.385v-6.264a.38.38 0 0 1 .377-.385h7.641c.275 0 .51-.229.51-.52V8.712a.517.517 0 0 0-.51-.52h-7.64a.38.38 0 0 1-.378-.386v-2.32a.38.38 0 0 1 .377-.385h7.998a.38.38 0 0 1 .377.385v1.842c0 .28.224.52.51.52h1.914a.38.38 0 0 1 .378.385v3.621a.38.38 0 0 1-.378.385H14.46a.516.516 0 0 0-.51.52v1.333c0 .364.286.655.643.655h2.526c.143 0 .275.083.336.219l1.661 3.402a.38.38 0 0 1-.02.375z"/>
</svg>
