<svg xmlns="http://www.w3.org/2000/svg" fill="none" viewBox="0 0 24 25">
    <path fill="#0072FF" d="M0 .5h24v24H0z"/>
    <path fill="#fff" d="M16.03 12.946c-.281-.418-.96-.64-1.446-.771l-.178-.046h-.005c-.261-.066-.558-.139-.789-.264-.265-.145-.395-.333-.395-.575 0-.04.004-.078.011-.117v-.007a.565.565 0 0 1 .017-.06v-.002c.034-.1.091-.19.167-.265.196-.198.51-.31.86-.31h.012a2.014 2.014 0 0 1 1.37.617l.004.504v.005h.437V10.14h-.436v.344l-.002.007a.016.016 0 0 1-.005.005.02.02 0 0 1-.012-.005 2.23 2.23 0 0 0-1.337-.454c-.285 0-.517.033-.71.096a1.364 1.364 0 0 0-.443.246 1.156 1.156 0 0 0-.333.417 1.187 1.187 0 0 0-.076.807c.033.11.084.214.149.309.005.009.012.017.018.026l.009.013.004.005c.286.395.925.57 1.392.7l.013.003.103.028.112.03c.244.06.481.14.711.237.12.053.227.134.31.235a.708.708 0 0 1 .126.682.9.9 0 0 1-.222.35c-.11.097-.238.17-.377.216a1.584 1.584 0 0 1-.42.075 2.125 2.125 0 0 1-.675-.077 1.97 1.97 0 0 1-.933-.623.088.088 0 0 1-.016-.03l-.005-.433v-.006h-.436v1.585h.437v-.463c.182.16.394.285.623.366a2.6 2.6 0 0 0 .837.16h.035c.243 0 .81 0 1.256-.378a1.301 1.301 0 0 0 .44-.825c.02-.15.014-.3-.02-.447a1.027 1.027 0 0 0-.182-.394Zm-4.315 0c-.276-.416-.957-.64-1.445-.77l-.175-.045c-.53-.13-1.189-.294-1.196-.842 0-.083.017-.165.05-.24a.712.712 0 0 1 .15-.212c.199-.196.51-.308.859-.308h.011c.258.005.513.065.746.176.233.105.443.255.62.441l.008.504v.005h.437V10.14h-.436v.344c0 .002 0 .005-.002.007a.015.015 0 0 1-.005.005c-.003 0-.007 0-.012-.005a2.23 2.23 0 0 0-1.337-.454c-.286 0-.519.033-.712.096-.16.054-.31.137-.44.246a1.187 1.187 0 0 0-.411 1.225c.033.11.081.213.144.308.275.427.946.611 1.436.745l.012.003.097.027.103.028.01.002c.242.06.48.14.71.237a.856.856 0 0 1 .312.237.71.71 0 0 1 .125.685.899.899 0 0 1-.223.348 1.03 1.03 0 0 1-.376.215 1.563 1.563 0 0 1-.42.074l-.091.002c-.2 0-.398-.027-.59-.08a1.526 1.526 0 0 1-.066-.023h-.004a2 2 0 0 1-.716-.444l-.008-.008a1.796 1.796 0 0 1-.08-.084l-.02-.023a.715.715 0 0 1-.032-.04.09.09 0 0 1-.016-.03l-.005-.434v-.005h-.443v1.585h.442v-.464c.182.16.394.285.623.366a2.6 2.6 0 0 0 .837.16h.035c.242 0 .806 0 1.256-.377a1.322 1.322 0 0 0 .442-.823c.02-.15.013-.3-.021-.447a1.034 1.034 0 0 0-.183-.397ZM7.234 14.55 6.04 12.744c.202.008.404-.031.588-.114.261-.133.471-.3.6-.549.105-.204.159-.431.158-.662 0-.362-.143-.709-.397-.966-.276-.25-.62-.372-1.054-.372H3.621v.499h.491v3.976h-.534v.417h1.55v-.417H4.63V12.75h.836l1.17 1.805h-.531v.417h1.669v-.417H7.25c-.003 0-.006 0-.01-.002a.021.021 0 0 1-.007-.004Zm-2.605-3.993h1.28c.394 0 .695.157.848.425a.888.888 0 0 1-.014.876c-.156.265-.342.412-.753.412H4.63v-1.713Zm15.591 2.97c0-.6-.303-1.032-.805-1.218.426-.224.614-.592.614-.97 0-.876-.734-1.339-1.691-1.339-.522.004-1.08.178-1.46.712l.398.259c.213-.287.516-.508 1.062-.508.695 0 1.188.283 1.188.82 0 .515-.494.802-1 .802h-.69v.497h.73c.645 0 1.155.348 1.14.94-.036.628-.59.966-1.316.966-.467 0-.985-.147-1.372-.56l-.02-.008-.339.371.016.004a2.444 2.444 0 0 0 1.715.693c1-.002 1.83-.544 1.83-1.46Zm-16.963-1.26H2v.514h1.257v-.514Zm18.743 0h-1.257v.514H22v-.514Z"/>
</svg>
