<svg width="24" height="24" viewBox="0 0 24 24" xmlns="http://www.w3.org/2000/svg">
    <g>
        <path d="M16.836 12.541c-.337-.5-1.151-.768-1.734-.925a14.756 14.756 0 0 0-.214-.054h-.006c-.314-.08-.67-.168-.947-.318-.318-.174-.474-.4-.474-.69a.71.71 0 0 1 .014-.14v-.008a.65.65 0 0 1 .019-.072v-.003c.041-.12.11-.23.201-.318.236-.238.611-.372 1.033-.372h.013c.31.007.615.079.896.211.28.127.534.307.747.53l.006.604v.006h.524V9.173h-.523v.412l-.002.01a.019.019 0 0 1-.007.006.023.023 0 0 1-.014-.007 2.676 2.676 0 0 0-1.604-.545c-.341 0-.62.04-.853.115a1.64 1.64 0 0 0-.53.296c-.17.133-.308.304-.4.5a1.424 1.424 0 0 0-.092.968c.04.132.1.257.179.37.007.012.014.022.022.032l.01.015.005.007c.344.474 1.111.684 1.67.839l.016.004.124.035.135.036c.292.071.577.166.853.284.144.064.272.16.372.282a.85.85 0 0 1 .151.818 1.082 1.082 0 0 1-.266.419 1.27 1.27 0 0 1-.453.26 1.903 1.903 0 0 1-.503.09 2.548 2.548 0 0 1-.811-.092 2.363 2.363 0 0 1-1.12-.747.106.106 0 0 1-.019-.037l-.005-.52v-.006h-.524v1.902h.524v-.556c.22.192.473.341.749.439.321.118.66.183 1.003.191h.043c.291 0 .972 0 1.506-.452a1.556 1.556 0 0 0 .53-.99c.024-.18.016-.361-.025-.537a1.233 1.233 0 0 0-.219-.473ZM11.659 12.541c-.331-.498-1.148-.767-1.735-.925l-.209-.053c-.635-.156-1.427-.352-1.436-1.01 0-.1.021-.198.062-.288a.855.855 0 0 1 .18-.254c.238-.235.611-.37 1.03-.37h.013c.31.006.615.078.895.21.28.128.532.308.743.53l.01.604v.007h.525V9.173h-.523v.412l-.003.009a.02.02 0 0 1-.005.007c-.004 0-.009 0-.015-.007a2.675 2.675 0 0 0-1.604-.545c-.343 0-.623.04-.855.115a1.637 1.637 0 0 0-.528.296 1.424 1.424 0 0 0-.493 1.47c.039.13.098.255.173.369.33.513 1.135.734 1.723.895l.014.003.117.033.123.032.012.004c.291.071.577.166.853.284.144.065.272.162.373.284a.852.852 0 0 1 .15.822 1.078 1.078 0 0 1-.267.418c-.13.117-.284.205-.45.258a1.882 1.882 0 0 1-.505.088l-.11.002c-.239.001-.477-.031-.708-.096a1.574 1.574 0 0 1-.079-.027h-.004a2.402 2.402 0 0 1-.86-.532l-.01-.01a2.152 2.152 0 0 1-.094-.101l-.024-.027a.89.89 0 0 1-.04-.05.11.11 0 0 1-.019-.036l-.005-.52v-.006h-.532v1.902h.53v-.556c.219.193.473.342.748.44.322.118.661.182 1.004.19h.042c.29 0 .968 0 1.507-.452a1.59 1.59 0 0 0 .53-.987c.024-.18.016-.36-.025-.537a1.239 1.239 0 0 0-.22-.476ZM6.282 14.466 4.848 12.3c.243.009.485-.038.707-.137.313-.16.565-.36.72-.659.125-.245.19-.518.19-.794-.001-.434-.172-.85-.477-1.16-.332-.3-.745-.446-1.265-.446H1.946v.599h.59v4.77h-.641v.502h1.86v-.501h-.599v-2.165h1.003l1.404 2.165h-.638v.5h2.003v-.5H6.3c-.003 0-.007 0-.01-.002a.026.026 0 0 1-.01-.006Zm-3.126-4.79h1.536c.472 0 .834.187 1.018.51a1.066 1.066 0 0 1-.017 1.05c-.188.319-.41.494-.904.494H3.156V9.676ZM21.864 13.239c0-.72-.364-1.239-.967-1.462.512-.268.737-.71.737-1.165 0-1.05-.88-1.606-2.029-1.606-.626.005-1.294.214-1.75.854l.476.311c.255-.343.619-.609 1.274-.609.834 0 1.426.34 1.426.984 0 .618-.593.963-1.2.963h-.829v.595h.876c.775 0 1.388.418 1.369 1.128-.044.755-.709 1.16-1.58 1.16-.56 0-1.181-.176-1.646-.673l-.024-.009-.406.446.019.004c.584.548 1.278.831 2.058.831 1.2-.002 2.196-.652 2.196-1.752Z" />
        <path d="M1.509 11.727H0v.616h1.509v-.616ZM24 11.727H22.49v.616H24v-.616Z" />
    </g>
</svg>
