<svg xmlns="http://www.w3.org/2000/svg" fill="none" viewBox="0 0 24 24">
    <rect width="24" height="24" fill="#0072FF" rx="4"/>
    <path fill="#fff" d="M16.03 12.446c-.281-.418-.96-.64-1.446-.772l-.178-.045h-.005c-.261-.066-.558-.14-.789-.265-.265-.145-.395-.333-.395-.574 0-.04.004-.079.011-.117v-.007a.565.565 0 0 1 .014-.053l.003-.007v-.002a.671.671 0 0 1 .167-.265c.196-.199.51-.31.86-.31h.012c.258.005.513.065.747.175.233.107.445.256.622.442l.005.503v.006h.437V9.639h-.436v.343l-.002.008a.016.016 0 0 1-.005.005.02.02 0 0 1-.012-.005 2.23 2.23 0 0 0-1.337-.455 2.29 2.29 0 0 0-.71.096 1.366 1.366 0 0 0-.443.246 1.156 1.156 0 0 0-.333.417 1.187 1.187 0 0 0-.076.807c.033.11.084.214.149.31l.018.025.009.013.004.005c.286.396.925.57 1.392.7l.013.003.103.029.112.03c.244.06.481.139.711.237.12.053.227.133.31.235a.707.707 0 0 1 .126.682.9.9 0 0 1-.222.349c-.11.097-.238.17-.377.216-.136.044-.277.07-.42.075a2.125 2.125 0 0 1-.675-.076 1.968 1.968 0 0 1-.933-.623.09.09 0 0 1-.016-.03l-.005-.434v-.005h-.436v1.585h.437v-.464c.182.161.394.285.623.366.268.1.551.153.837.16h.035c.243 0 .81 0 1.256-.377a1.301 1.301 0 0 0 .44-.826c.02-.149.014-.3-.02-.447a1.027 1.027 0 0 0-.182-.393Zm-4.315 0c-.276-.416-.957-.64-1.445-.771a4.957 4.957 0 0 0-.175-.044c-.53-.131-1.189-.294-1.196-.843 0-.082.017-.164.05-.24a.712.712 0 0 1 .15-.211c.199-.196.51-.309.859-.309h.011a1.984 1.984 0 0 1 1.365.617l.009.504v.006h.437V9.639h-.436v.343c0 .003 0 .005-.002.007a.015.015 0 0 1-.005.006c-.003 0-.007 0-.012-.005a2.23 2.23 0 0 0-1.337-.455c-.286 0-.519.033-.712.096-.16.054-.31.138-.44.246a1.187 1.187 0 0 0-.411 1.225c.033.11.081.213.144.308.275.428.946.612 1.436.746l.012.003.097.027.103.027.01.003c.242.06.48.139.71.237a.864.864 0 0 1 .312.236.71.71 0 0 1 .125.685.899.899 0 0 1-.223.349c-.108.097-.237.17-.376.215a1.566 1.566 0 0 1-.42.073l-.091.002c-.2 0-.398-.026-.59-.08a1.526 1.526 0 0 1-.066-.023h-.004a2 2 0 0 1-.716-.444l-.008-.007a1.747 1.747 0 0 1-.08-.085l-.02-.022a.753.753 0 0 1-.032-.041.09.09 0 0 1-.016-.03l-.005-.433v-.006h-.443v1.585h.442v-.463c.182.16.394.284.623.366.268.098.551.152.837.16h.035c.242 0 .806 0 1.256-.378a1.322 1.322 0 0 0 .442-.823c.02-.149.013-.3-.021-.447a1.035 1.035 0 0 0-.183-.396ZM7.234 14.05 6.04 12.243a1.32 1.32 0 0 0 .588-.115c.261-.132.471-.3.6-.548.105-.205.159-.432.158-.662 0-.362-.143-.71-.397-.967-.276-.25-.62-.372-1.054-.372H3.621v.5h.491v3.975h-.534v.418h1.55v-.418H4.63V12.25h.836l1.17 1.804h-.531v.418h1.669v-.418H7.25a.022.022 0 0 1-.017-.006Zm-2.605-3.993h1.28c.394 0 .695.156.848.425a.888.888 0 0 1-.014.876c-.156.265-.342.411-.753.411H4.63v-1.712Zm15.591 2.97c0-.6-.303-1.033-.805-1.218.426-.224.614-.592.614-.971 0-.875-.734-1.338-1.691-1.338-.522.003-1.08.177-1.46.711l.398.26c.213-.287.516-.508 1.062-.508.695 0 1.188.282 1.188.82 0 .515-.494.802-1 .802h-.69v.496h.73c.645 0 1.155.348 1.14.94-.036.629-.59.967-1.316.967-.467 0-.985-.147-1.372-.56l-.02-.009-.339.372.016.003a2.444 2.444 0 0 0 1.715.693c1-.002 1.83-.543 1.83-1.46Zm-16.963-1.26H2v.513h1.257v-.513Zm18.743 0h-1.257v.513H22v-.513Z"/>
</svg>
