<svg xmlns="http://www.w3.org/2000/svg" fill="none" viewBox="0 0 24 24">
    <g clip-path="url('#Savm_svg__clip0_11436_40765')">
        <circle cx="12" cy="12" r="12" fill="#000"/>
        <path fill="#FF7800" d="m4.772 7.331-.433.75 14.834 8.565.433-.75L4.772 7.33Z"/>
        <path fill="#FF7800" d="M11.966 16.716a.43.43 0 0 1-.217-.058l-7.41-4.286a.433.433 0 0 1 0-.75l7.431-4.29a.43.43 0 0 1 .434 0l7.224 4.17.011.007.186.115a.433.433 0 0 1-.01.744l-7.432 4.29a.43.43 0 0 1-.217.058m-6.544-4.719 6.544 3.785 6.571-3.793-6.55-3.782z"/>
        <path fill="#FF7800" d="M11.966 20.99a.43.43 0 0 1-.218-.059l-7.41-4.309a.434.434 0 0 1 0-.75L18.494 7.7l-6.536-3.766L4.99 7.957v4.04h-.867v-4.29c0-.156.083-.299.217-.376l7.4-4.273a.43.43 0 0 1 .434 0l7.404 4.266a.433.433 0 0 1 0 .751L5.42 16.249l6.547 3.806 6.997-4.04v-4.023h.867v4.274a.43.43 0 0 1-.217.375l-7.431 4.29a.43.43 0 0 1-.217.059"/>
        <path fill="#FF7800" d="M12.42 3.434h-.866v4.272h.867zm-.02 12.849h-.868v4.273h.867z"/>
    </g>
    <defs>
        <clipPath id="Savm_svg__clip0_11436_40765">
            <path fill="#fff" d="M0 0h24v24H0z"/>
        </clipPath>
    </defs>
</svg>
