<svg xmlns="http://www.w3.org/2000/svg" viewBox="0 0 18 18">
    <linearGradient id="Solana_svg__a" x1="4.636" x2="12.845" y1="14.089" y2="4.434">
        <stop offset=".08" stop-color="#9945ff"/>
        <stop offset=".3" stop-color="#8752f3"/>
        <stop offset=".5" stop-color="#5497d5"/>
        <stop offset=".6" stop-color="#43b4ca"/>
        <stop offset=".72" stop-color="#28e0b9"/>
        <stop offset=".97" stop-color="#19fb9b"/>
    </linearGradient>
    <path d="M9 18A9 9 0 1 0 9 0a9 9 0 0 0 0 18"/>
    <path fill="url(#Solana_svg__a)" d="m14.196 11.97-1.733 1.782a.4.4 0 0 1-.295.123H3.951a.2.2 0 0 1-.11-.032.2.2 0 0 1-.074-.084.19.19 0 0 1 .037-.208l1.735-1.782a.4.4 0 0 1 .293-.123h8.217q.06 0 .11.032a.186.186 0 0 1 .037.293zm-1.733-3.587a.4.4 0 0 0-.295-.122H3.951a.2.2 0 0 0-.11.031.2.2 0 0 0-.074.085.19.19 0 0 0 .037.208l1.735 1.782a.4.4 0 0 0 .293.122h8.217q.06 0 .11-.031a.2.2 0 0 0 .074-.085.19.19 0 0 0-.037-.208zM3.95 7.103h8.217a.42.42 0 0 0 .295-.122l1.733-1.782a.19.19 0 0 0 .037-.208.2.2 0 0 0-.074-.084.2.2 0 0 0-.11-.032H5.832a.42.42 0 0 0-.293.123L3.805 6.779a.19.19 0 0 0-.038.208.2.2 0 0 0 .074.085q.05.03.11.032z"/>
</svg>
