<svg viewBox="0 0 18 18" xmlns="http://www.w3.org/2000/svg" xmlns:xlink="http://www.w3.org/1999/xlink"><linearGradient id="a" x1="4.636" x2="12.845" y1="14.089" y2="4.434"><stop offset=".08" stop-color="#9945ff"/><stop offset=".3" stop-color="#8752f3"/><stop offset=".5" stop-color="#5497d5"/><stop offset=".6" stop-color="#43b4ca"/><stop offset=".72" stop-color="#28e0b9"/><stop offset=".97" stop-color="#19fb9b"/></linearGradient><path d="m9 18a9 9 0 1 0 0-18 9 9 0 0 0 0 18z"/><path d="m14.196 11.97-1.733 1.782a.404.404 0 0 1 -.295.123h-8.217a.208.208 0 0 1 -.11-.032.195.195 0 0 1 -.074-.084.186.186 0 0 1 .037-.208l1.735-1.782a.403.403 0 0 1 .293-.123h8.217c.039 0 .077.011.11.032a.186.186 0 0 1 .037.293zm-1.733-3.587a.404.404 0 0 0 -.295-.122h-8.217a.208.208 0 0 0 -.11.031.195.195 0 0 0 -.074.085.186.186 0 0 0 .037.208l1.735 1.782a.403.403 0 0 0 .293.122h8.217c.039 0 .077-.01.11-.031a.196.196 0 0 0 .074-.085.186.186 0 0 0 -.037-.208zm-8.513-1.28h8.217a.418.418 0 0 0 .295-.122l1.733-1.782a.186.186 0 0 0 .037-.208.196.196 0 0 0 -.074-.084.208.208 0 0 0 -.11-.032h-8.216a.417.417 0 0 0 -.293.123l-1.734 1.781a.186.186 0 0 0 -.038.208.195.195 0 0 0 .074.085c.033.02.071.031.11.032z" fill="url(#a)"/></svg>