<svg xmlns="http://www.w3.org/2000/svg" fill="none" viewBox="0 0 24 24">
    <rect width="24" height="24" fill="#1DA1F2" rx="12"/>
    <path fill="#fff" d="M9.64 18.004c4.8 0 7.424-3.874 7.424-7.234q.002-.165-.007-.329c.51-.36.951-.805 1.302-1.315-.477.205-.982.34-1.499.4a2.56 2.56 0 0 0 1.147-1.407 5.3 5.3 0 0 1-1.657.617 2.63 2.63 0 0 0-1.48-.767 2.67 2.67 0 0 0-1.655.267 2.57 2.57 0 0 0-1.146 1.193 2.5 2.5 0 0 0-.166 1.626 7.6 7.6 0 0 1-2.978-.77 7.4 7.4 0 0 1-2.4-1.886 2.5 2.5 0 0 0-.285 1.853c.15.63.541 1.181 1.094 1.54a2.64 2.64 0 0 1-1.185-.318v.033c0 .587.21 1.155.59 1.61a2.63 2.63 0 0 0 1.504.882 2.7 2.7 0 0 1-1.178.043c.166.505.491.947.928 1.264.437.316.965.492 1.51.502a5.3 5.3 0 0 1-1.824.901 5.4 5.4 0 0 1-2.038.153 7.53 7.53 0 0 0 4 1.14"/>
</svg>
