<svg xmlns="http://www.w3.org/2000/svg" viewBox="0 0 24 24">
    <path fill="#2CA4EF" d="M20.661 6.688a4.3 4.3 0 0 0 1.887-2.374 8.6 8.6 0 0 1-2.725 1.041 4.3 4.3 0 0 0-7.316 3.915 12.18 12.18 0 0 1-8.844-4.484 4.3 4.3 0 0 0 1.328 5.73 4.3 4.3 0 0 1-1.943-.538v.054a4.294 4.294 0 0 0 3.443 4.208 4.3 4.3 0 0 1-1.938.074 4.3 4.3 0 0 0 4.009 2.98 8.6 8.6 0 0 1-5.33 1.837q-.515 0-1.025-.059A12.15 12.15 0 0 0 8.786 21a12.127 12.127 0 0 0 12.21-12.211q0-.279-.013-.555a8.7 8.7 0 0 0 2.142-2.222 8.6 8.6 0 0 1-2.464.676"/>
</svg>
