<svg viewBox="0 0 24 24" xmlns="http://www.w3.org/2000/svg"><g fill="none"><path d="m0 12c0-6.627 5.373-12 12-12s12 5.373 12 12-5.373 12-12 12-12-5.373-12-12z" fill="#1da1f2"/><path d="m9.64 17.033c4.8 0 7.424-3.874 7.424-7.233 0-.11 0-.22-.007-.329.51-.36.951-.805 1.302-1.316-.477.206-.982.34-1.499.4a2.563 2.563 0 0 0 1.147-1.406 5.313 5.313 0 0 1 -1.657.617 2.634 2.634 0 0 0 -1.48-.768 2.672 2.672 0 0 0 -1.655.268 2.571 2.571 0 0 0 -1.146 1.193 2.484 2.484 0 0 0 -.166 1.626 7.562 7.562 0 0 1 -2.978-.771 7.376 7.376 0 0 1 -2.4-1.885 2.488 2.488 0 0 0 -.285 1.851c.15.63.541 1.182 1.094 1.541a2.64 2.64 0 0 1 -1.185-.318v.032c0 .587.21 1.156.59 1.61a2.62 2.62 0 0 0 1.504.882 2.671 2.671 0 0 1 -1.178.044c.166.505.491.947.928 1.264.437.316.965.492 1.51.502a5.305 5.305 0 0 1 -1.824.901 5.37 5.37 0 0 1 -2.038.152 7.531 7.531 0 0 0 4 1.14" fill="#fff"/></g></svg>