<svg xmlns="http://www.w3.org/2000/svg" viewBox="0 0 25 25">
    <linearGradient id="Uniswap_svg__a" x1=".5" x2="24.5" y1=".193" y2="24.193">
        <stop offset="0" stop-color="#fffbfd"/>
        <stop offset="1" stop-color="#fcbcdb"/>
    </linearGradient>
    <circle cx="12.5" cy="12.193" r="12" fill="url(#Uniswap_svg__a)"/>
    <circle cx="12.5" cy="12.193" r="10.969" fill="#fff" opacity=".5"/>
    <g fill="#fe007a">
        <path d="M9.951 5.744c-.188-.029-.196-.032-.107-.045.17-.026.57.01.847.074.644.153 1.23.543 1.856 1.236l.167.184.238-.038c1.002-.16 2.02-.033 2.874.358.235.108.605.322.65.378a1 1 0 0 1 .06.25c.064.419.034.738-.096.977-.07.13-.074.171-.027.283a.27.27 0 0 0 .247.154c.212 0 .44-.34.545-.814l.042-.19.083.095c.457.514.815 1.214.876 1.713l.016.13-.076-.118a1.5 1.5 0 0 0-.435-.453c-.306-.202-.63-.27-1.487-.316-.774-.04-1.212-.106-1.646-.247-.74-.24-1.112-.558-1.99-1.703-.39-.509-.63-.79-.87-1.016-.546-.515-1.082-.786-1.767-.89z"/>
        <path d="M16.653 6.88c.019-.34.065-.565.159-.77a1 1 0 0 1 .077-.148c.005 0-.011.06-.036.133-.068.2-.08.472-.032.789.06.402.093.46.52.894.201.205.434.46.52.572l.153.2-.154-.143c-.188-.175-.62-.518-.716-.567-.064-.032-.074-.032-.113.007-.037.036-.044.09-.05.347-.007.399-.062.655-.194.91-.071.14-.082.11-.018-.047.048-.116.053-.168.053-.554 0-.776-.094-.963-.638-1.28a6 6 0 0 0-.504-.261 2 2 0 0 1-.246-.12c.015-.015.545.139.758.22.319.122.37.137.41.123.025-.01.038-.085.05-.305zm-6.337 1.328c-.38-.523-.618-1.324-.566-1.923l.015-.185.087.015c.164.03.445.134.577.214.362.218.519.505.678 1.243.047.216.108.46.136.545.045.133.217.444.356.646.1.146.034.215-.188.195-.34-.03-.798-.345-1.095-.75m5.872 3.889c-1.785-.714-2.413-1.334-2.413-2.38 0-.154.005-.28.012-.28.006 0 .075.05.153.113.362.288.768.412 1.89.575.66.096 1.03.173 1.374.286 1.09.359 1.764 1.087 1.925 2.08.046.289.02.83-.057 1.114-.06.226-.242.63-.29.647-.014.005-.027-.046-.03-.116-.018-.372-.208-.736-.527-1.008-.362-.309-.848-.556-2.037-1.031m-1.252.297a3 3 0 0 0-.086-.375l-.046-.136.085.096c.117.13.21.297.288.52.06.17.066.22.066.496 0 .271-.008.328-.064.48-.077.226-.206.43-.376.597-.327.33-.746.512-1.351.588-.105.013-.411.035-.68.049-.68.035-1.127.108-1.528.248a.3.3 0 0 1-.115.027c-.016-.016.258-.178.483-.286.318-.153.635-.236 1.346-.353.35-.058.713-.13.805-.157.869-.264 1.316-.948 1.173-1.794"/>
        <path d="M15.754 13.838c-.237-.506-.292-.995-.162-1.451.014-.05.036-.09.05-.09.013 0 .07.03.124.068.11.073.328.196.913.512.728.395 1.144.7 1.426 1.05.247.306.4.655.475 1.08.042.24.017.82-.045 1.062-.197.764-.65 1.364-1.301 1.715a2 2 0 0 1-.19.093c-.01 0 .026-.087.077-.194.219-.455.244-.896.079-1.387-.102-.301-.308-.669-.724-1.29-.485-.72-.603-.913-.722-1.168M9.05 16.573c.663-.556 1.487-.95 2.238-1.073.387-.05.78-.034 1.161.045.48.122.91.397 1.134.722.218.319.312.596.41 1.214.038.243.08.489.092.544.073.32.216.576.393.704.28.204.764.217 1.24.033a.6.6 0 0 1 .154-.048c.017.017-.222.176-.39.26-.2.106-.422.16-.648.156-.435 0-.797-.22-1.099-.668q-.166-.285-.296-.588c-.318-.722-.475-.94-.845-1.182-.322-.21-.737-.247-1.049-.095-.41.2-.524.72-.23 1.05a.9.9 0 0 0 .512.267.547.547 0 0 0 .62-.545c0-.217-.085-.34-.296-.436-.289-.129-.598.022-.597.291 0 .115.051.187.167.24.074.033.076.035.015.023-.264-.055-.326-.372-.114-.582.256-.252.784-.141.965.204.077.145.086.433.02.607-.15.39-.583.596-1.023.484-.3-.076-.421-.158-.782-.527-.628-.643-.87-.768-1.775-.908l-.174-.027z"/>
        <path fill-rule="evenodd" d="M6.105 5.077c2.095 2.527 3.539 3.57 3.699 3.79.132.182.082.346-.144.474-.16.081-.336.13-.515.143-.147 0-.198-.056-.198-.056-.085-.08-.133-.066-.57-.837a133 133 0 0 0-1.13-1.727c-.031-.03-.03-.03 1.068 1.924.177.407.035.556.035.614 0 .118-.033.18-.179.343-.244.27-.353.575-.432 1.204-.088.705-.336 1.204-1.025 2.057-.402.5-.468.59-.57.793-.128.253-.163.395-.177.714-.015.339.014.557.118.88.09.284.186.47.43.845.21.323.33.563.33.657 0 .074.014.074.34.001.776-.174 1.407-.48 1.763-.857.22-.234.27-.362.273-.68 0-.209-.006-.253-.063-.373-.092-.195-.26-.358-.63-.61-.487-.33-.695-.595-.751-.96-.048-.3.007-.512.275-1.071.278-.58.347-.828.394-1.411.03-.377.071-.526.18-.646.115-.124.217-.166.499-.204.459-.063.75-.18.99-.4a.85.85 0 0 0 .31-.653l.01-.21-.117-.134c-.42-.488-4.495-3.994-4.521-3.994-.005 0 .133.173.308.384m.977 9.82a.37.37 0 0 0-.115-.49c-.15-.1-.386-.051-.386.078q-.001.058.072.094c.084.043.09.09.024.19-.067.099-.06.186.015.246.124.095.298.043.39-.118m3.643-4.702c-.216.065-.425.292-.49.53-.04.145-.017.4.042.478.096.127.188.16.44.16.49-.004.916-.213.966-.475.04-.214-.147-.51-.405-.641a.97.97 0 0 0-.553-.052m.574.445c.075-.107.042-.222-.087-.3-.244-.15-.616-.026-.616.204 0 .115.194.24.37.24.119 0 .28-.07.333-.144" clip-rule="evenodd"/>
    </g>
</svg>
