<svg fill="none" viewBox="0 0 24 24" xmlns="http://www.w3.org/2000/svg"><path d="m12 24c6.627 0 12-5.373 12-12s-5.373-12-12-12-12 5.373-12 12 5.373 12 12 12z" fill="#ea6262"/><path d="m11.998 5.6-.088.291v8.465l.088.085 3.999-2.322-4-6.52z" fill="#f6c0c0"/><path d="m12 5.6-4 6.519 4 2.322z" fill="#fff"/><path d="m11.998 15.185-.049.059v3.015l.05.141 4.001-5.537z" fill="#f6c0c0"/><path d="m12 18.4v-3.215l-4-2.322z" fill="#fff"/><path d="m11.998 14.446 4-2.322-4-1.786z" fill="#ee8181"/><path d="m8 12.124 4 2.322v-4.108z" fill="#f6c0c0"/></svg>