<svg xmlns="http://www.w3.org/2000/svg" fill="none" viewBox="0 0 24 24">
    <path fill="#ea6262" d="M12 24c6.627 0 12-5.373 12-12S18.627 0 12 0 0 5.373 0 12s5.373 12 12 12"/>
    <path fill="#f6c0c0" d="m11.998 5.6-.088.291v8.465l.088.085 3.999-2.322z"/>
    <path fill="#fff" d="m12 5.6-4 6.519 4 2.322z"/>
    <path fill="#f6c0c0" d="m11.998 15.185-.049.059v3.015l.05.141L16 12.863z"/>
    <path fill="#fff" d="M12 18.4v-3.215l-4-2.322z"/>
    <path fill="#ee8181" d="m11.998 14.446 4-2.322-4-1.786z"/>
    <path fill="#f6c0c0" d="m8 12.124 4 2.322v-4.108z"/>
</svg>
