<svg fill="none" viewBox="0 0 24 24" xmlns="http://www.w3.org/2000/svg" xmlns:xlink="http://www.w3.org/1999/xlink"><linearGradient id="a"><stop offset="0" stop-color="#00e0ff"/><stop offset="1" stop-color="#562ec8"/></linearGradient><linearGradient id="b" gradientUnits="userSpaceOnUse" x1="3" x2="21" xlink:href="#a" y1="11.69" y2="11.69"/><linearGradient id="c" gradientUnits="userSpaceOnUse" x1="2.997" x2="20.997" xlink:href="#a" y1="11.691" y2="11.691"/><linearGradient id="d" gradientUnits="userSpaceOnUse" x1="3.004" x2="21.003" xlink:href="#a" y1="11.693" y2="11.693"/><circle cx="12" cy="12" fill="#fff" r="12"/><path d="m19.146 6.528a7.65 7.65 0 1 0 0 10.944 9 9 0 1 1 0-10.944z" fill="url(#b)"/><path d="m8.08 16.38a6.12 6.12 0 1 0 0-8.755 7.2 7.2 0 1 1 0 8.755z" fill="url(#c)"/><path clip-rule="evenodd" d="m17.403 12.004a5.4 5.4 0 1 1 -10.8 0 5.4 5.4 0 0 1 10.8 0zm-1.8 0a3.6 3.6 0 1 1 -7.2 0 3.6 3.6 0 0 1 7.2 0z" fill="url(#d)" fill-rule="evenodd"/></svg>