<svg xmlns="http://www.w3.org/2000/svg" fill="none" viewBox="0 0 24 24">
    <circle cx="12" cy="12" r="12" fill="#fff"/>
    <path fill="url(#X2Y2_svg__a)" d="M19.146 6.528a7.65 7.65 0 1 0 0 10.944 9 9 0 1 1 0-10.944Z"/>
    <path fill="url(#X2Y2_svg__b)" d="M8.08 16.38a6.12 6.12 0 1 0 0-8.755 7.2 7.2 0 1 1 0 8.755Z"/>
    <path fill="url(#X2Y2_svg__c)" fill-rule="evenodd" d="M17.403 12.004a5.4 5.4 0 1 1-10.8 0 5.4 5.4 0 0 1 10.8 0Zm-1.8 0a3.6 3.6 0 1 1-7.2 0 3.6 3.6 0 0 1 7.2 0Z" clip-rule="evenodd"/>
    <defs>
        <linearGradient id="X2Y2_svg__a" x1="3" x2="21" y1="11.69" y2="11.69" gradientUnits="userSpaceOnUse">
            <stop stop-color="#00E0FF"/>
            <stop offset="1" stop-color="#562EC8"/>
        </linearGradient>
        <linearGradient id="X2Y2_svg__b" x1="2.997" x2="20.997" y1="11.691" y2="11.691" gradientUnits="userSpaceOnUse">
            <stop stop-color="#00E0FF"/>
            <stop offset="1" stop-color="#562EC8"/>
        </linearGradient>
        <linearGradient id="X2Y2_svg__c" x1="3.004" x2="21.003" y1="11.693" y2="11.693" gradientUnits="userSpaceOnUse">
            <stop stop-color="#00E0FF"/>
            <stop offset="1" stop-color="#562EC8"/>
        </linearGradient>
    </defs>
</svg>
