<svg xmlns="http://www.w3.org/2000/svg" fill="none" viewBox="0 0 24 24">
    <g clip-path="url('#XLog_svg__a')">
        <path stroke="#121212" stroke-miterlimit="10" stroke-width="6" d="M23.497.501H.502v22.998h22.996z"/>
        <path fill="#000" d="M11.548 16.029c0 1.994-1.453 3.445-3.416 3.445-1.964 0-3.453-1.451-3.453-3.445s1.45-3.425 3.444-3.425 3.425 1.451 3.425 3.425m7.812.098v2.41c-.598.577-1.583.948-2.657.948-2.249 0-3.68-1.309-3.68-3.33 0-2.023 1.585-3.537 3.812-3.537v3.51h2.525Zm0-7.192v2.41h-6.337V4.54h3.846v4.395zM4.639 11.367 6.667 7.59 4.722 4.513h6.784L9.561 7.59l2.027 3.778z"/>
    </g>
    <defs>
        <clipPath id="XLog_svg__a">
            <path fill="#fff" d="M0 0h23.998v24H0z"/>
        </clipPath>
    </defs>
</svg>
