<svg viewBox="0 0 24 24" xmlns="http://www.w3.org/2000/svg"><path d="m10 16.785v-7l6 3.512zm13.76-8.333s-.235-1.665-.954-2.4c-.913-.962-1.936-.966-2.405-1.022-3.358-.245-8.396-.245-8.396-.245h-.01s-5.038 0-8.396.245c-.47.056-1.492.06-2.406 1.023-.719.734-.953 2.4-.953 2.4s-.24 1.954-.24 3.909v1.835c0 1.956.24 3.912.24 3.912s.234 1.665.953 2.399c.914.963 2.113.932 2.647 1.033 1.92.187 8.16.244 8.16.244s5.043-.008 8.401-.252c.47-.057 1.492-.061 2.405-1.024.72-.734.954-2.4.954-2.4s.24-1.955.24-3.911v-1.834c0-1.956-.24-3.912-.24-3.912z" fill="#f00"/></svg>