<svg xmlns="http://www.w3.org/2000/svg" fill="none" viewBox="0 0 24 24">
    <g clip-path="url('#Zerion_svg__a')">
        <path fill="#16161A" d="M-.098 6.425c0-2.249 0-3.373.438-4.232.385-.756 1-1.37 1.755-1.755C2.954 0 4.079 0 6.328 0h11.238c2.249 0 3.373 0 4.232.438.756.385 1.37.999 1.755 1.755.438.859.438 1.983.438 4.232v11.15c0 2.249 0 3.373-.438 4.232-.385.756-1 1.37-1.755 1.755-.859.438-1.983.438-4.232.438H6.328c-2.25 0-3.374 0-4.233-.438A4 4 0 0 1 .34 21.807c-.438-.859-.438-1.983-.438-4.232z"/>
        <path fill="#fff" d="M5.127 6.001c-.413 0-.572.509-.225.721l8.665 5.206c.216.132.504.08.653-.119l3.81-4.983c.26-.347-.003-.825-.45-.825zm13.62 12c.413 0 .576-.511.23-.724l-8.669-5.205a.49.49 0 0 0-.645.125L5.845 17.18c-.259.346.011.821.46.821z"/>
    </g>
    <defs>
        <clipPath id="Zerion_svg__a">
            <path fill="#fff" d="M0 0h24v24H0z"/>
        </clipPath>
    </defs>
</svg>
