<svg xmlns="http://www.w3.org/2000/svg" fill="none" viewBox="0 0 24 24">
    <circle cx="12" cy="12" r="12" fill="#fff"/>
    <path fill="#000" d="m7.216 14.178 1.28-1.325-1.592-2.149-2.027-2.868A8.2 8.2 0 0 0 3.75 12a8.23 8.23 0 0 0 2.904 6.282l2.574-1.818a5.3 5.3 0 0 1-2.012-2.286m2.606-6.962 1.325 1.28 2.149-1.592 2.868-2.027A8.2 8.2 0 0 0 12 3.75a8.23 8.23 0 0 0-6.282 2.904l1.818 2.574a5.3 5.3 0 0 1 2.286-2.012m5.681 3.931 1.593 2.149 2.027 2.868A8.2 8.2 0 0 0 20.25 12a8.23 8.23 0 0 0-2.904-6.282l-2.574 1.818a5.3 5.3 0 0 1 2.012 2.286zm2.78 6.199-1.819-2.574a5.3 5.3 0 0 1-2.286 2.012l-1.325-1.28-2.149 1.592-2.868 2.027A8.2 8.2 0 0 0 12 20.25a8.23 8.23 0 0 0 6.282-2.904z"/>
</svg>
