<svg fill="none" viewBox="0 0 24 24" xmlns="http://www.w3.org/2000/svg"><circle cx="12" cy="12" fill="#fff" r="12"/><path d="m7.216 14.178 1.28-1.325-1.592-2.149-2.027-2.868a8.21 8.21 0 0 0 -1.127 4.164 8.23 8.23 0 0 0 2.904 6.282l2.574-1.818a5.279 5.279 0 0 1 -2.012-2.286zm2.606-6.962 1.325 1.28 2.149-1.592 2.868-2.027a8.21 8.21 0 0 0 -4.164-1.127 8.23 8.23 0 0 0 -6.282 2.904l1.818 2.574a5.278 5.278 0 0 1 2.286-2.012zm5.681 3.931 1.593 2.149 2.027 2.868a8.21 8.21 0 0 0 1.127-4.164 8.23 8.23 0 0 0 -2.904-6.282l-2.574 1.818a5.279 5.279 0 0 1 2.012 2.286zm2.78 6.199-1.819-2.574a5.278 5.278 0 0 1 -2.286 2.012l-1.325-1.28-2.149 1.592-2.868 2.027a8.21 8.21 0 0 0 4.164 1.127 8.23 8.23 0 0 0 6.282-2.904z" fill="#000"/></svg>