<svg xmlns="http://www.w3.org/2000/svg" fill="none" viewBox="0 0 24 24">
    <circle cx="12" cy="12" r="12" fill="#fff"/>
    <g clip-path="url('#Zilliqa_svg__a')">
        <path fill="#49C1BF" d="m16.31 10.91-1.81.806-4.803 2.445 4.802 2.308v-3.816l1.81-.816v5.638l-1.81.807-7.07-3.384V13.1l4.894-2.401-4.894-2.352V6.522l1.839-.807 7.041 3.39v1.804Z"/>
        <path fill="#077A8F" d="m7.429 6.522 7.07 3.39 1.81-.807-7.041-3.39z"/>
        <path fill="#298E97" d="m14.499 9.904 1.81-.807v1.805l-1.81.807z"/>
        <path fill="#49C1BF" d="M7.429 6.524v1.824l4.894 2.352-4.894 2.401V14.9l7.07 3.384v-1.81l-4.802-2.312 4.802-2.444V9.914z"/>
        <path fill="#298E97" d="m14.499 18.27 1.81-.807v-5.638l-1.81.816v5.63Z"/>
    </g>
    <defs>
        <clipPath id="Zilliqa_svg__a">
            <path fill="#fff" d="M7.429 5.714h8.88v12.571h-8.88z"/>
        </clipPath>
    </defs>
</svg>
