<svg fill="none" height="340" viewBox="0 0 340 340" width="340" xmlns="http://www.w3.org/2000/svg"><path clip-rule="evenodd" d="m170 0c93.888 0 170 76.1116 170 170 0 93.888-76.112 170-170 170-93.8884 0-170-76.112-170-170 0-93.8884 76.1116-170 170-170zm0 300.946c-72.3195 0-130.9459-58.627-130.9459-130.946 0-72.3195 58.6264-130.9459 130.9459-130.9459 56.152 0 104.048 35.3432 122.658 84.9969l26.691-.001c-19.622-63.8505-79.065-110.2662-149.349-110.2662-86.2758 0-156.2162 69.9404-156.2162 156.2162 0 86.276 69.9404 156.216 156.2162 156.216 76.869 0 140.771-55.52 153.791-128.648h-25.752c-12.66 59.082-65.177 103.378-128.039 103.378zm82.703-163.108h-165.4057v98.324c0 9.044 7.2581 16.392 16.2667 16.538l.274.003h132.324c9.044 0 16.392-7.258 16.538-16.267l.003-.274v-38.594h-26.716l-.309.619c-10.303 20.35-31.413 34.299-55.783 34.299-29.476 0-54.185-20.409-60.767-47.867l-.194-.835h143.769zm-42.58 59.73h-80.455l.265.384c8.802 12.609 23.419 20.857 39.962 20.857 16.544 0 31.161-8.248 39.963-20.857zm112.778-59.732h-25.935c2.599 10.29 3.98 21.066 3.98 32.164 0 4.656-.243 9.255-.717 13.786h25.387c.397-4.542.6-9.14.6-13.786 0-11.026-1.142-21.784-3.315-32.164zm-188.279 11.029c12.832 0 23.471 9.394 25.413 21.681l.056.373h-14.1l-.055-.169c-1.601-4.711-6.062-8.101-11.314-8.101-5.253 0-9.714 3.39-11.314 8.101l-.056.169h-14.1l.057-.373c1.942-12.287 12.58-21.681 25.413-21.681zm70.756 0c12.833 0 23.471 9.394 25.413 21.681l.057.373h-14.1l-.056-.169c-1.6-4.711-6.061-8.101-11.314-8.101-5.252 0-9.713 3.39-11.314 8.101l-.055.169h-14.1l.056-.373c1.942-12.287 12.581-21.681 25.413-21.681zm30.784-61.5677h-132.324c-9.0439 0-16.3924 7.2581-16.5385 16.2667l-.0022.274v20.216h165.4057v-20.216c0-9.0439-7.258-16.3924-16.267-16.5385z" fill="#edf3fe" fill-rule="evenodd"/></svg>