<svg fill="none" height="50" viewBox="0 0 218 50" width="218" xmlns="http://www.w3.org/2000/svg"><path d="m84.31 14.6333v21.5334h-5.3517v-10.7984l-4.7816 7.3784v.0316h-2.9767v-.0316l-4.8133-7.4417.0316 10.8617h-5.3516v-21.5334h3.9583l7.6633 11.495 7.6317-11.495zm19.918 6.175v15.3584h-5.1297v-.855c-1.14.7283-2.5333 1.1716-4.2116 1.1716-4.1484 0-7.6317-3.4516-7.6317-8.0116 0-4.5917 3.4833-8.0117 7.6317-8.0117 1.6783 0 3.0716.4433 4.2116 1.1717v-.8234zm-8.328 11.4634c1.14 0 2.2483-.3167 3.1983-1.425v-4.75c-.95-1.1084-2.0583-1.4567-3.1983-1.4567-2.09 0-3.61 1.71-3.61 3.8317 0 2.1216 1.52 3.8 3.61 3.8zm10.767-1.3934 4.56.0317c.221 1.33 1.33 1.9317 2.945 1.9317 1.361 0 2.185-.4117 2.185-1.0767 0-.5067-.475-.9183-1.489-1.0767l-3.103-.5383c-2.66-.4433-4.497-1.9317-4.497-4.6233 0-3.23 2.755-5.13 6.84-5.13 3.262 0 6.967 1.2666 7.189 5.32h-4.56c-.095-1.1717-1.172-1.71-2.597-1.71-1.33 0-1.932.5066-1.932 1.1083 0 .5067.38.9817 1.584 1.2033l2.881.475c2.882.5384 4.782 1.9317 4.782 4.655 0 3.5467-3.198 5.1934-7.188 5.1934-4.022 0-7.284-1.6784-7.6-5.7634zm24.826-.0316-2.153 2.3116v3.0084h-5.13v-22.4834h5.13v12.8884l5.352-5.7634h6.111l-5.826 6.27 6.333 9.0884h-6.143zm20.995-10.3234c4.149 0 7.632 3.42 7.632 7.98 0 4.5917-3.483 8.0434-7.632 8.0434-1.678 0-3.071-.4434-4.211-1.1717v.7917h-5.13v-22.4834h5.13v8.0117c1.14-.7283 2.533-1.1717 4.211-1.1717zm-1.013 11.8117c2.09 0 3.61-1.6783 3.61-3.8317 0-2.09-1.52-3.8-3.61-3.8-1.14 0-2.248.3484-3.198 1.4567v4.75c.95 1.1083 2.058 1.425 3.198 1.425zm19.063-11.875c4.845 0 8.329 3.3883 8.329 8.0117 0 4.6866-3.484 8.17-8.329 8.17s-8.328-3.4834-8.328-8.17c0-4.6234 3.483-8.0117 8.328-8.0117zm.032 11.7483c2.058 0 3.452-1.6466 3.452-3.705 0-1.995-1.394-3.61-3.452-3.61-2.09 0-3.483 1.615-3.483 3.61 0 2.0584 1.393 3.705 3.483 3.705zm18.747-11.7483c4.845 0 8.328 3.3883 8.328 8.0117 0 4.6866-3.483 8.17-8.328 8.17s-8.329-3.4834-8.329-8.17c0-4.6234 3.484-8.0117 8.329-8.0117zm.031 11.7483c2.059 0 3.452-1.6466 3.452-3.705 0-1.995-1.393-3.61-3.452-3.61-2.09 0-3.483 1.615-3.483 3.61 0 2.0584 1.393 3.705 3.483 3.705zm18.304-1.3616-2.154 2.3116v3.0084h-5.13v-22.4834h5.13v12.8884l5.352-5.7634h6.112l-5.827 6.27 6.333 9.0884h-6.143z" fill="#1c68f3"/><path d="m25 50c13.8071 0 25-11.1929 25-25s-11.1929-25-25-25-25 11.1929-25 25 11.1929 25 25 25z" fill="#1c68f3"/><path clip-rule="evenodd" d="m39.9999 19.1667v8.3333h-25v.0001h-1.0756c1.1384 5.0563 5.6564 8.8332 11.0566 8.8332 4.4645 0 8.3261-2.5814 10.1735-6.3331l4.8455-.0001v6.9999c0 1.6569-1.3432 3-3 3h-24c-1.6569 0-3.00002-1.3431-3.00002-3v-17.8333zm-7.7228 10.8334c-1.591 2.3261-4.2653 3.8525-7.2962 3.8525-3.0308 0-5.7052-1.5264-7.2961-3.8525zm-13.6939-8.8334c-2.351 0-4.2959 1.7385-4.6194 4h2.5572c.2812-.8704 1.0982-1.5 2.0622-1.5s1.781.6296 2.0622 1.5h2.5572c-.3235-2.2615-2.2684-4-4.6194-4zm12.8333 0c-2.3509 0-4.2959 1.7385-4.6194 4h2.5573c.2811-.8704 1.0981-1.5 2.0621-1.5.9641 0 1.7811.6296 2.0622 1.5h2.5573c-.3235-2.2615-2.2685-4-4.6195-4zm5.5834-11.1667c1.6568 0 3 1.3431 3 3v3.6667h-30.00002v-3.6667c0-1.6569 1.34312-3 3.00002-3z" fill="#fff" fill-rule="evenodd"/></svg>