<svg xmlns="http://www.w3.org/2000/svg" fill="none" viewBox="0 0 19 18">
    <path stroke="currentColor" stroke-linecap="round" stroke-linejoin="round" stroke-width="1.5" d="M7.25 16.5h4.5C15.5 16.5 17 15 17 11.25v-4.5C17 3 15.5 1.5 11.75 1.5h-4.5C3.5 1.5 2 3 2 6.75v4.5C2 15 3.5 16.5 7.25 16.5Z"/>
    <path stroke="currentColor" stroke-linecap="round" stroke-linejoin="round" stroke-miterlimit="10" stroke-width="1.5" d="M12.71 10.207a3.11 3.11 0 0 1-3.135.773l-1.942 1.935a.79.79 0 0 1-.615.203l-.9-.12c-.3-.038-.57-.323-.615-.615l-.12-.9c-.03-.196.067-.473.202-.616L7.52 8.932a3.127 3.127 0 0 1 .773-3.135 3.132 3.132 0 0 1 4.417 0c1.215 1.208 1.215 3.188 0 4.41ZM8.338 12.21l-.638-.645"/>
    <path stroke="currentColor" stroke-linecap="round" stroke-linejoin="round" stroke-width="2" d="M10.546 8.025h.007"/>
</svg>
