<svg fill="none" height="26" viewBox="0 0 30 26" width="30" xmlns="http://www.w3.org/2000/svg"><path clip-rule="evenodd" d="m20.8194 14.1385 8.8424 9.1533c.1062.1083.1907.2372.2487.3794.058.1421.0884.2947.0895.449.001.1543-.0273.3073-.0835.4503-.0561.143-.1388.2731-.2435.383l-.6488.6693c-.1824.1978-.4232.3269-.6845.3669-.1725.0239-.348.0061-.5128-.052-.1648-.058-.3143-.1548-.437-.2826l-10.7977-11.1773c-.1877-.194-.3366-.4244-.4383-.6781-.1016-.2536-.1539-.5255-.1539-.8001s.0523-.5465.1539-.8002c.1017-.2536.2506-.4841.4383-.6781l10.7977-11.177238c.1052-.109071.2301-.195603.3677-.2546412.1375-.0590383.2849-.0894208.4338-.0894208s.2963.0303825.4339.0894208c.1375.0590382.2625.1455702.3677.2546412l.6688.703918c.1054.10889.189.23822.246.38058.057.14237.0864.29498.0864.44911 0 .15412-.0294.30673-.0864.4491s-.1406.27171-.246.38061l-8.8424 9.15552c-.29.3026-.4527.7116-.4527 1.1378 0 .4263.1627.8352.4527 1.1378zm-11.63923-2.2659-8.838947-9.15562c-.107254-.10845-.192644-.23787-.2512164-.38076-.0585721-.14289-.08915992-.2964-.08998923-.45163s.02811843-.30909.08516023-.45265c.0570414-.14355.1410474-.27394.2471354-.38361l.646316-.671618c.184051-.196557.425101-.3254145.686431-.36695629.17243-.02313311.34769-.00499503.51228.05302209.1646.0580172.31415.1543552.43714.2816202l10.79352 11.177402c.1877.194.3365.4245.4381.6781.1016.2537.1539.5256.1539.8002s-.0523.5465-.1539.8001c-.1016.2537-.2504.4841-.4381.6781l-10.79352 11.1774c-.10535.1092-.23043.1958-.36809.2548-.13767.0591-.28522.0895-.43424.0895-.14901 0-.29657-.0304-.43423-.0895-.13767-.059-.26275-.1456-.36809-.2548l-.668607-.6923c-.105394-.1091-.188999-.2387-.2460405-.3812-.0570415-.1426-.08639814-.2954-.08639814-.4497s.02935664-.3071.08639814-.4497.1406465-.2721.2460405-.3812l8.838947-9.1533c.28989-.3026.45255-.7116.45255-1.1379 0-.4262-.16266-.8352-.45255-1.1378z" fill="#fff" fill-rule="evenodd"/></svg>